<svg width="40" height="40" viewBox="0 0 40 40" fill="none" xmlns="http://www.w3.org/2000/svg">
<path d="M27.2914 5.41641C29.2236 5.42218 31.0751 6.19231 32.4414 7.55861C33.8077 8.92491 34.5778 10.7764 34.5836 12.7086V27.2914C34.5778 29.2236 33.8077 31.0751 32.4414 32.4414C31.0751 33.8077 29.2236 34.5778 27.2914 34.5836H12.7086C10.7764 34.5778 8.92491 33.8077 7.55861 32.4414C6.19231 31.0751 5.42218 29.2236 5.41641 27.2914V12.7086C5.42218 10.7764 6.19231 8.92491 7.55861 7.55861C8.92491 6.19231 10.7764 5.42218 12.7086 5.41641H27.2914V5.41641ZM27.2914 2.5H12.7086C7.09375 2.5 2.5 7.09375 2.5 12.7086V27.2914C2.5 32.9062 7.09375 37.5 12.7086 37.5H27.2914C32.9062 37.5 37.5 32.9062 37.5 27.2914V12.7086C37.5 7.09375 32.9062 2.5 27.2914 2.5V2.5Z" fill="black"/>
<path d="M29.4789 12.7085C29.0463 12.7085 28.6233 12.5802 28.2636 12.3398C27.9039 12.0995 27.6235 11.7578 27.4579 11.3581C27.2924 10.9584 27.249 10.5186 27.3334 10.0942C27.4178 9.6699 27.6262 9.28013 27.9321 8.9742C28.238 8.66827 28.6278 8.45993 29.0521 8.37553C29.4765 8.29112 29.9163 8.33444 30.316 8.50001C30.7157 8.66558 31.0574 8.94595 31.2977 9.30569C31.5381 9.66542 31.6664 10.0884 31.6664 10.521C31.667 10.8084 31.6109 11.0932 31.5012 11.3588C31.3914 11.6245 31.2303 11.8659 31.0271 12.0692C30.8238 12.2724 30.5824 12.4335 30.3168 12.5432C30.0511 12.653 29.7663 12.7091 29.4789 12.7085V12.7085ZM20 14.1663C21.1538 14.1663 22.2816 14.5084 23.241 15.1494C24.2003 15.7905 24.948 16.7015 25.3895 17.7675C25.8311 18.8334 25.9466 20.0064 25.7215 21.138C25.4964 22.2696 24.9408 23.309 24.125 24.1249C23.3091 24.9407 22.2697 25.4963 21.1381 25.7214C20.0065 25.9465 18.8335 25.831 17.7676 25.3894C16.7016 24.9479 15.7906 24.2002 15.1495 23.2409C14.5085 22.2815 14.1664 21.1537 14.1664 19.9999C14.1681 18.4532 14.7832 16.9704 15.8769 15.8768C16.9705 14.7831 18.4533 14.168 20 14.1663V14.1663ZM20 11.2499C18.2694 11.2499 16.5777 11.7631 15.1388 12.7245C13.6998 13.686 12.5783 15.0526 11.9161 16.6514C11.2538 18.2503 11.0805 20.0096 11.4181 21.7069C11.7558 23.4043 12.5891 24.9634 13.8128 26.1871C15.0365 27.4108 16.5956 28.2442 18.293 28.5818C19.9903 28.9194 21.7496 28.7461 23.3485 28.0838C24.9473 27.4216 26.3139 26.3001 27.2754 24.8611C28.2368 23.4222 28.75 21.7305 28.75 19.9999C28.75 17.6793 27.8281 15.4537 26.1872 13.8127C24.5462 12.1718 22.3206 11.2499 20 11.2499V11.2499Z" fill="black"/>
</svg>
