<svg width="22" height="18" viewBox="0 0 22 18" fill="none" xmlns="http://www.w3.org/2000/svg">
<rect x="1" y="1" width="20" height="16" rx="5" stroke="#FBC02D" stroke-width="1.4"/>
<path d="M15.4556 7.53148C15.7491 7.27988 15.7831 6.83797 15.5315 6.54445C15.2799 6.25092 14.838 6.21692 14.5444 6.46852L15.4556 7.53148ZM7.45555 6.46852C7.16203 6.21692 6.72012 6.25092 6.46852 6.54445C6.21692 6.83797 6.25092 7.27988 6.54445 7.53148L7.45555 6.46852ZM11 10.7C11.1744 10.7 11.3228 10.643 11.395 10.6131C11.4859 10.5755 11.5774 10.5276 11.6627 10.4789C11.8345 10.3807 12.0331 10.2489 12.2396 10.1031C12.6553 9.8097 13.1526 9.42438 13.6248 9.04661C14.099 8.66726 14.5564 8.2887 14.8947 8.00548C15.064 7.86373 15.2038 7.74554 15.3015 7.66266C15.3504 7.62122 15.3887 7.58859 15.4149 7.56624C15.428 7.55506 15.438 7.54646 15.4449 7.5406C15.4483 7.53768 15.4509 7.53544 15.4527 7.53391C15.4536 7.53314 15.4543 7.53256 15.4548 7.53215C15.455 7.53195 15.4552 7.53179 15.4553 7.53168C15.4554 7.53162 15.4554 7.53157 15.4555 7.53155C15.4555 7.53151 15.4556 7.53148 15 7C14.5444 6.46852 14.5445 6.46852 14.5444 6.46852C14.5444 6.46854 14.5444 6.46856 14.5444 6.46859C14.5443 6.46866 14.5441 6.46878 14.544 6.46894C14.5436 6.46926 14.543 6.46976 14.5422 6.47044C14.5406 6.4718 14.5382 6.47386 14.535 6.47661C14.5286 6.48211 14.5189 6.49035 14.5063 6.50114C14.481 6.52274 14.4436 6.55456 14.3957 6.59515C14.3001 6.67634 14.1626 6.79252 13.996 6.93202C13.6624 7.2113 13.2135 7.58274 12.7502 7.95339C12.2849 8.32562 11.8134 8.6903 11.4323 8.95937C11.2403 9.09487 11.0834 9.19744 10.9681 9.26332C10.9099 9.2966 10.875 9.31316 10.8597 9.3195C10.8256 9.33358 10.8881 9.3 11 9.3V10.7ZM11 9.3C11.1119 9.3 11.1744 9.33358 11.1403 9.3195C11.125 9.31316 11.0901 9.2966 11.0319 9.26332C10.9166 9.19744 10.7597 9.09487 10.5677 8.95937C10.1866 8.6903 9.71507 8.32562 9.24979 7.95339C8.78647 7.58274 8.33762 7.2113 8.00404 6.93202C7.83742 6.79252 7.69994 6.67634 7.60425 6.59515C7.55642 6.55456 7.51905 6.52274 7.49373 6.50114C7.48108 6.49035 7.47143 6.48211 7.465 6.47661C7.46179 6.47386 7.45938 6.4718 7.4578 6.47044C7.457 6.46976 7.45642 6.46926 7.45604 6.46894C7.45586 6.46878 7.45572 6.46866 7.45564 6.46859C7.4556 6.46856 7.45558 6.46854 7.45556 6.46852C7.45555 6.46852 7.45555 6.46852 7 7C6.54445 7.53148 6.54448 7.53151 6.54452 7.53155C6.54456 7.53157 6.54461 7.53162 6.54468 7.53168C6.54481 7.53179 6.54499 7.53195 6.54523 7.53215C6.54571 7.53256 6.54639 7.53314 6.54728 7.53391C6.54907 7.53544 6.55168 7.53768 6.55511 7.5406C6.56195 7.54646 6.57202 7.55506 6.58512 7.56624C6.61132 7.58859 6.64964 7.62122 6.69848 7.66266C6.79616 7.74554 6.93602 7.86373 7.10533 8.00548C7.44363 8.2887 7.90103 8.66726 8.37521 9.04661C8.84743 9.42438 9.34469 9.8097 9.76038 10.1031C9.96687 10.2489 10.1655 10.3807 10.3373 10.4789C10.4226 10.5276 10.5141 10.5755 10.605 10.6131C10.6772 10.643 10.8256 10.7 11 10.7V9.3Z" fill="#FBC02D"/>
</svg>
