<svg width="40" height="40" viewBox="0 0 40 40" fill="none" xmlns="http://www.w3.org/2000/svg">
<path d="M38.75 8.55464C37.3433 9.16585 35.855 9.56853 34.332 9.74995C35.9326 8.81275 37.1362 7.32383 37.7172 5.56245C36.204 6.44729 34.5512 7.06813 32.8297 7.39839C32.1048 6.63865 31.2329 6.03425 30.2671 5.62194C29.3014 5.20963 28.2618 4.99801 27.2117 4.99995C22.9602 4.99995 19.5195 8.39058 19.5195 12.5703C19.5165 13.1516 19.5831 13.7313 19.718 14.2968C16.6693 14.1539 13.684 13.3762 10.9531 12.0134C8.22222 10.6507 5.80585 8.73289 3.85859 6.38276C3.17545 7.53442 2.81417 8.84842 2.8125 10.1875C2.8125 12.8125 4.18203 15.1328 6.25 16.4921C5.02479 16.4631 3.82468 16.1388 2.75156 15.5468V15.6406C2.75156 19.3125 5.40781 22.3671 8.92344 23.0625C8.26233 23.2387 7.58107 23.328 6.89687 23.3281C6.41139 23.3289 5.92701 23.2818 5.45078 23.1875C6.42812 26.1953 9.27266 28.3828 12.6422 28.4453C9.9042 30.5554 6.54267 31.6958 3.08594 31.6875C2.47236 31.6865 1.85935 31.65 1.25 31.5781C4.76655 33.8236 8.85425 35.0113 13.0266 35C27.1953 35 34.9359 23.4609 34.9359 13.4531C34.9359 13.125 34.9273 12.7968 34.9117 12.4765C36.4141 11.4078 37.7139 10.0797 38.75 8.55464V8.55464Z" fill="black"/>
</svg>
