<svg width="70" height="150" viewBox="0 0 70 150" fill="none" xmlns="http://www.w3.org/2000/svg">
<path d="M27.6988 124.542C27.7439 122.048 27.7327 102.768 27.7327 102.768L37.5125 108.823C36.0718 119.947 34.8569 125.196 34.7139 127.121C34.6806 127.246 34.6592 127.374 34.65 127.503C34.65 129.703 32.0471 130.891 30.0272 132.358C28.3036 133.652 26.4753 134.796 24.5617 135.777C23.0948 136.484 19.811 135.995 19.4424 135.089C21.9024 133.29 24.3962 131.678 26.1679 129.455C27.1158 128.275 27.6537 126.861 27.6988 124.542Z" fill="#AD6359"/>
<path d="M15.5674 138.004C15.4433 138.004 15.2515 139.337 15.9436 139.914C16.7297 140.567 19.0468 141.641 22.1124 141.263C25.178 140.884 26.8368 139.971 28.063 138.971C29.2893 137.97 31.012 136.598 32.3962 136.297C33.6827 136.025 35.0819 135.468 35.4957 135.086C35.9094 134.704 35.853 133.004 35.853 133.004L15.5674 138.004Z" fill="#263238"/>
<path d="M34.804 126.51C34.804 126.51 35.0184 126.487 35.0974 126.892C35.1877 127.362 35.2892 128.722 35.4735 129.489C35.7519 130.555 35.9362 132.744 35.7669 133.611C35.5977 134.478 33.51 135.086 32.1559 135.578C30.5876 136.235 29.1226 137.122 27.8077 138.21C26.367 139.356 23.339 140.502 21.3417 140.502C18.2949 140.544 16.3201 139.738 15.6995 138.699C14.9472 137.401 15.2368 136.094 18.7425 134.536C20.0492 133.862 21.3142 133.108 22.5303 132.278C24.633 130.719 25.1859 130.02 26.3407 127.893C26.4756 127.559 26.6459 127.241 26.8485 126.945C26.9952 126.766 27.3074 126.502 27.9957 126.643C28.575 126.762 30.4445 127.079 30.9748 127.323C31.445 127.537 32.1033 127.786 32.1033 128.366C32.0913 128.567 32.0468 128.765 31.9716 128.951C31.9302 129.069 31.8964 129.226 32.0055 129.298C32.1145 129.371 32.2424 129.298 32.3327 129.211C32.676 128.874 32.9917 128.51 33.2768 128.122C33.4406 127.919 33.6275 127.737 33.8335 127.579C34.041 127.466 34.2408 127.338 34.4316 127.197C34.6315 127.02 34.7634 126.776 34.804 126.51Z" fill="#37474F"/>
<path d="M18.2082 134.795C22.6204 135.086 24.3093 138.256 24.4936 139.876C23.4853 140.241 22.4295 140.453 21.3603 140.506C18.3135 140.548 16.2146 139.742 15.6052 138.707C14.8943 137.481 15.0749 135.934 18.2082 134.795Z" fill="#FAFAFA"/>
<path d="M25.1259 135.395C25.1755 135.396 25.2238 135.379 25.2613 135.345C25.2832 135.329 25.3016 135.309 25.3153 135.285C25.329 135.261 25.3377 135.235 25.3409 135.208C25.3441 135.181 25.3417 135.153 25.3338 135.127C25.3259 135.1 25.3128 135.076 25.2951 135.055C24.6783 134.333 22.6057 132.824 20.9995 132.992C20.9725 132.994 20.9461 133.002 20.9219 133.014C20.8977 133.027 20.8762 133.044 20.8587 133.065C20.8412 133.086 20.828 133.11 20.8199 133.136C20.8117 133.163 20.8089 133.19 20.8115 133.218C20.8147 133.246 20.8234 133.273 20.8372 133.297C20.851 133.322 20.8695 133.343 20.8916 133.361C20.9137 133.378 20.939 133.39 20.966 133.397C20.9929 133.404 21.021 133.405 21.0484 133.401C22.553 133.252 24.4714 134.746 24.9604 135.311C24.98 135.337 25.0051 135.358 25.0337 135.372C25.0624 135.387 25.0939 135.395 25.1259 135.395V135.395Z" fill="#F0F0F0"/>
<path d="M27.0287 134.329C27.0778 134.331 27.1259 134.315 27.1641 134.283C27.1857 134.267 27.2038 134.246 27.2172 134.222C27.2305 134.199 27.2389 134.172 27.2417 134.145C27.2445 134.118 27.2418 134.09 27.2336 134.064C27.2254 134.038 27.212 134.014 27.1942 133.993C26.5811 133.271 24.5047 131.758 22.9023 131.93C22.8744 131.931 22.8469 131.938 22.8216 131.95C22.7963 131.963 22.7738 131.98 22.7555 132.002C22.7372 132.023 22.7235 132.048 22.7152 132.075C22.7069 132.103 22.7042 132.131 22.7073 132.159C22.7104 132.188 22.7193 132.215 22.7333 132.24C22.7473 132.264 22.7662 132.286 22.7887 132.303C22.8113 132.319 22.837 132.331 22.8644 132.338C22.8917 132.344 22.92 132.344 22.9475 132.339C24.4521 132.186 26.3742 133.684 26.8594 134.249C26.8804 134.274 26.9063 134.294 26.9355 134.308C26.9647 134.322 26.9965 134.329 27.0287 134.329V134.329Z" fill="#F0F0F0"/>
<path d="M28.7897 133.126C28.8397 133.126 28.8884 133.11 28.9289 133.08C28.9506 133.063 28.9688 133.042 28.9822 133.018C28.9956 132.994 29.0039 132.967 29.0067 132.94C29.0096 132.912 29.0068 132.884 28.9985 132.858C28.9903 132.831 28.9768 132.807 28.9589 132.786C28.3458 132.064 25.7993 130.246 24.2045 130.418C24.1771 130.419 24.1503 130.426 24.1257 130.438C24.101 130.451 24.0791 130.468 24.0612 130.489C24.0432 130.51 24.0297 130.534 24.0214 130.561C24.013 130.587 24.01 130.615 24.0126 130.643C24.0158 130.671 24.0246 130.698 24.0384 130.723C24.0521 130.747 24.0706 130.769 24.0927 130.786C24.1148 130.803 24.1401 130.815 24.1671 130.822C24.194 130.829 24.2221 130.831 24.2496 130.826C25.7542 130.674 28.139 132.477 28.6242 133.05C28.6449 133.074 28.6703 133.093 28.6989 133.106C28.7274 133.119 28.7583 133.126 28.7897 133.126V133.126Z" fill="#F0F0F0"/>
<path d="M30.5153 131.904C30.5641 131.904 30.6116 131.887 30.6507 131.858C30.6726 131.842 30.691 131.821 30.7047 131.797C30.7184 131.774 30.7272 131.747 30.7303 131.72C30.7335 131.693 30.7311 131.665 30.7232 131.639C30.7153 131.613 30.7022 131.588 30.6846 131.567C29.842 130.544 27.1638 129.008 25.5652 129.176C25.5375 129.177 25.5103 129.185 25.4854 129.197C25.4605 129.21 25.4384 129.227 25.4204 129.249C25.4024 129.27 25.389 129.295 25.3809 129.322C25.3728 129.349 25.3702 129.377 25.3734 129.405C25.3818 129.461 25.4112 129.511 25.4554 129.546C25.4996 129.58 25.5551 129.595 25.6103 129.589C27.051 129.436 29.5975 130.918 30.3498 131.827C30.3705 131.851 30.396 131.87 30.4245 131.883C30.453 131.897 30.484 131.903 30.5153 131.904V131.904Z" fill="#F0F0F0"/>
<path d="M48.9961 114.5L58.7082 113.354C58.964 119.546 58.5766 124.982 59.0543 130.521C59.1408 131.567 60.0097 138.6 59.8442 140.785C59.5997 144.063 55.4809 144.342 55.0483 142.439C54.6157 140.537 52.7538 131.678 52.6447 130.834C51.8511 127.488 51.0611 123.736 49.4211 116.627C49.3497 116.318 49.0751 114.79 48.9961 114.5Z" fill="#AD6359"/>
<path d="M53.3818 143.78C53.3818 145.816 53.9197 147.516 54.7886 148.364C55.2306 148.82 55.7837 149.149 56.3915 149.317C56.9994 149.486 57.6404 149.488 58.2492 149.323C59.5883 148.983 61.1681 148.055 61.6683 146.45C62.2702 144.51 62.0445 143.394 61.7172 141.641L53.3818 143.78Z" fill="#263238"/>
<path d="M58.9979 129.848C59.5508 129.883 59.7502 132.435 60.0849 134.983C60.4611 137.718 61.3149 138.841 61.6422 141.095C62.0183 143.658 61.7964 145.09 60.8899 146.649C59.9834 148.207 56.6695 149.762 55.0145 147.558C53.6679 145.763 53.1638 143.837 53.2579 141.274C53.3072 139.106 53.2268 136.938 53.0171 134.78C52.8892 132.87 52.1821 131.059 52.6598 130.842C52.9494 131.804 53.2428 133.252 53.4347 132.885C53.4572 132.644 53.4572 132.401 53.4347 132.16C53.4164 132.052 53.4196 131.942 53.4442 131.835C53.4687 131.729 53.5141 131.629 53.5776 131.541C53.7488 131.387 53.9633 131.292 54.1907 131.269C54.7324 131.163 56.4062 130.738 56.9592 130.685C57.2337 130.658 57.5083 130.643 57.7867 130.643C58.023 130.635 58.259 130.665 58.4863 130.731C58.5517 130.75 58.6126 130.782 58.665 130.826C58.7175 130.87 58.7604 130.925 58.791 130.987C58.8181 131.082 58.8282 131.182 58.8211 131.281C58.8234 131.458 58.8487 131.634 58.8963 131.804C58.9189 131.881 58.9715 131.972 59.0505 131.953C59.1295 131.934 59.1408 131.862 59.1408 131.797C59.1408 131.487 59.0957 131.266 59.0769 130.903C59.0769 130.739 59.0392 130.521 59.0355 130.345C59.0317 130.169 59.0129 130.013 58.9979 129.848Z" fill="#37474F"/>
<path d="M61.8639 142.565C61.9768 144.154 61.8 145.533 61.0816 146.767C60.16 148.33 56.8123 149.701 54.9391 147.688C54.0025 146.683 53.506 145.128 53.3818 143.795C54.341 142.057 60.3067 141.125 61.8639 142.565Z" fill="#FAFAFA"/>
<path d="M54.6677 141.221L54.7354 141.201C54.758 141.201 57.5226 139.784 60.0014 140.311C60.0533 140.324 60.108 140.316 60.1538 140.288C60.1995 140.26 60.2326 140.215 60.2459 140.162C60.2514 140.137 60.2517 140.11 60.2468 140.085C60.242 140.059 60.2321 140.034 60.2177 140.013C60.2033 139.991 60.1847 139.972 60.163 139.958C60.1414 139.944 60.1171 139.934 60.0917 139.929C57.4587 139.372 54.6338 140.8 54.5398 140.846C54.5159 140.856 54.4944 140.872 54.4765 140.891C54.4587 140.91 54.4449 140.932 54.4361 140.957C54.4272 140.982 54.4235 141.008 54.4252 141.034C54.4269 141.061 54.4339 141.086 54.4458 141.11C54.4661 141.15 54.4986 141.183 54.5386 141.203C54.5786 141.223 54.6239 141.229 54.6677 141.221V141.221Z" fill="#F0F0F0"/>
<path d="M59.8668 138.405C59.9046 138.4 59.9405 138.385 59.9709 138.362C60.0012 138.338 60.025 138.307 60.0398 138.272C60.0551 138.22 60.0498 138.165 60.0252 138.118C60.0005 138.071 59.9584 138.035 59.9081 138.019C57.4218 137.255 54.4653 138.841 54.36 138.894C54.3369 138.906 54.3165 138.922 54.2998 138.942C54.283 138.962 54.2705 138.985 54.2627 139.01C54.255 139.035 54.2523 139.061 54.2548 139.087C54.2573 139.113 54.2649 139.139 54.2772 139.162C54.3054 139.208 54.3496 139.242 54.4011 139.257C54.4526 139.271 54.5077 139.266 54.5556 139.242C54.5782 139.242 57.467 137.668 59.7803 138.394C59.808 138.403 59.8375 138.407 59.8668 138.405V138.405Z" fill="#F0F0F0"/>
<path d="M59.6968 136.602C59.7346 136.599 59.7708 136.585 59.8013 136.562C59.8318 136.539 59.8555 136.508 59.8699 136.472C59.8785 136.448 59.8821 136.421 59.8803 136.395C59.8784 136.369 59.8713 136.343 59.8593 136.32C59.8473 136.297 59.8307 136.276 59.8105 136.259C59.7903 136.243 59.767 136.231 59.742 136.224C57.0074 135.315 54.19 137.022 54.0998 137.08C54.0771 137.092 54.0572 137.11 54.0414 137.13C54.0255 137.151 54.0141 137.175 54.0077 137.2C54.0014 137.226 54.0002 137.252 54.0044 137.278C54.0086 137.304 54.018 137.329 54.0321 137.351C54.062 137.396 54.1079 137.428 54.1604 137.44C54.2129 137.452 54.2679 137.444 54.3142 137.416C54.3367 137.416 57.0638 135.747 59.6103 136.595C59.6385 136.602 59.6678 136.605 59.6968 136.602V136.602Z" fill="#F0F0F0"/>
<path d="M59.5167 134.581C59.5539 134.578 59.5894 134.564 59.6193 134.541C59.6492 134.518 59.6722 134.487 59.6859 134.452C59.6953 134.427 59.6997 134.401 59.6987 134.375C59.6976 134.348 59.6913 134.322 59.68 134.299C59.6687 134.275 59.6527 134.254 59.633 134.237C59.6133 134.22 59.5903 134.207 59.5656 134.199C57.0002 133.309 53.9873 135.055 53.882 135.116C53.8592 135.128 53.8391 135.145 53.8228 135.165C53.8066 135.185 53.7946 135.208 53.7875 135.233C53.7805 135.258 53.7785 135.285 53.7818 135.311C53.7852 135.336 53.7936 135.361 53.8068 135.384C53.8361 135.43 53.8818 135.462 53.9343 135.475C53.9868 135.488 54.0421 135.48 54.0889 135.452C54.1152 135.452 57.0454 133.741 59.4264 134.57C59.4551 134.581 59.4861 134.585 59.5167 134.581V134.581Z" fill="#EBEBEB"/>
<path d="M51.4705 47.5847C51.6811 48.7307 51.8805 49.193 52.2867 49.7621C54.7919 53.2536 55.9278 56.6381 56.1911 62.9984C56.8381 78.7712 56.6162 95.1246 56.6162 95.1246C56.7365 96.5151 57.9214 98.9676 58.5232 106.172C59.0461 112.479 58.9671 121.127 58.9671 121.127C58.9671 121.127 51.9068 122.189 49.9095 120.115C48.9014 115.409 45.6477 103.456 43.8911 96.6068C42.3 90.3878 41.1942 81.2237 41.1942 81.2237L38.6326 93.9634C38.9348 96.695 38.9348 99.4524 38.6326 102.184C38.1775 106.413 36.3757 117.365 36.3757 117.365C35.0479 118.79 28.992 118.553 27.4799 116.444C27.4799 116.444 26.3514 97.8789 26.2498 92.7601C26.0881 83.2559 25.7195 65.0269 28.8001 51.1679C28.9242 50.6025 29.2703 48.3029 29.2703 48.3029C32.5541 51.0418 47.1185 50.5911 51.4705 47.5847Z" fill="#263238"/>
<path d="M45.4034 52.1114C45.4497 52.0997 45.4988 52.1066 45.5402 52.1308C45.5816 52.1551 45.6121 52.1947 45.6253 52.2413C45.8134 52.9748 45.9563 53.6318 46.0955 54.2697C46.6033 56.5617 46.9681 58.2349 48.7059 59.9997C49.2803 60.5593 49.9586 60.997 50.7012 61.2876C51.4439 61.5781 52.2361 61.7156 53.0316 61.692C52.2417 56.9781 50.6318 53.2231 48.1004 50.1403C48.0856 50.1223 48.0747 50.1014 48.0682 50.0789C48.0617 50.0564 48.0598 50.0328 48.0626 50.0096C48.0655 49.9863 48.0729 49.9639 48.0846 49.9437C48.0962 49.9235 48.1118 49.9059 48.1304 49.892C48.1692 49.864 48.2169 49.8516 48.2641 49.8572C48.3114 49.8629 48.3549 49.8862 48.3862 49.9226C50.9892 53.0932 52.6329 56.9552 53.4191 61.8104C53.4207 61.818 53.4207 61.8258 53.4191 61.8333V61.8333C53.7234 63.7725 53.8993 65.7302 53.9457 67.6932C54.1939 76.5633 54.5701 89.9753 54.7356 93.4935C54.8258 95.3806 55.2584 97.0117 55.8076 99.0783C56.2815 100.858 56.8157 102.879 57.3122 105.645C58.3616 111.631 57.9554 121.486 57.9516 121.586C57.9469 121.632 57.9255 121.675 57.8914 121.706C57.8574 121.737 57.8131 121.754 57.7673 121.754V121.754C57.7439 121.754 57.7208 121.749 57.6993 121.74C57.6778 121.73 57.6584 121.717 57.6422 121.7C57.6261 121.683 57.6135 121.662 57.6052 121.64C57.597 121.618 57.5933 121.594 57.5943 121.57C57.5943 121.471 58.0005 111.638 56.9586 105.706C56.4734 102.952 55.9392 100.939 55.454 99.1662C54.9011 97.0805 54.461 95.4302 54.3707 93.5126C54.2052 89.9867 53.8291 76.5747 53.5808 67.7009C53.5348 65.7997 53.3677 63.9036 53.0805 62.0243H52.8887C52.064 62.041 51.2442 61.8924 50.4761 61.5869C49.708 61.2815 49.0068 60.8252 48.4126 60.2442C46.607 58.403 46.2309 56.6993 45.7118 54.3423C45.5726 53.7082 45.4297 53.0512 45.2454 52.3254C45.2392 52.3005 45.2386 52.2746 45.2435 52.2494C45.2485 52.2243 45.2589 52.2006 45.2741 52.1801C45.2892 52.1596 45.3087 52.1428 45.3311 52.1309C45.3534 52.119 45.3782 52.1124 45.4034 52.1114Z" fill="#455A64"/>
<path d="M58.9791 119.179C57.6625 120.463 51.9564 121.208 49.9102 120.115L50.8054 123.553C50.8054 123.553 52.2799 124.287 55.2326 123.985C58.6556 123.633 59.0129 122.522 59.0129 122.522L58.9791 119.179Z" fill="#455A64"/>
<path d="M36.3763 117.365C34.6197 117.976 29.4101 117.636 27.4805 116.444L27.5632 119.29C27.5632 119.29 28.9061 120.337 31.8588 120.623C34.8116 120.91 35.9964 120.085 35.9964 120.085L36.3763 117.365Z" fill="#455A64"/>
<path d="M41.1984 81.2237L39.1146 65.661C37.6235 65.6921 36.1454 65.3732 34.7956 64.7292C33.4457 64.0851 32.2604 63.1334 31.3321 61.9479C31.3321 61.9479 31.2418 65.8443 37.5649 67.571L40.0136 81.9113L38.6331 93.9634L41.1984 81.2237Z" fill="black"/>
<path d="M68.176 40.3955C67.9353 40.5101 65.4715 39.9256 63.1582 39.0127V30.1197C63.1582 30.1197 66.1674 30.4253 67.1303 33.913C68.7778 39.918 68.176 40.3955 68.176 40.3955Z" fill="#263238"/>
<path d="M50.0609 25.975C47.8792 25.9368 45.3289 27.0332 44.5654 28.756C44.4337 29.0501 43.5197 31.3154 43.5197 31.3154C42.2934 37.3242 40.0779 52.7952 41.6389 54.7129C43.971 57.5855 55.4398 63.2162 60.4688 63.0558C64.6065 62.9221 68.62 59.0906 69.1955 57.9332C71.0762 54.1361 66.1186 32.9847 64.8058 30.8646C62.6693 27.4228 52.8368 26.0209 50.0609 25.975Z" fill="#FBC02D"/>
<path opacity="0.18" d="M41.643 54.7129C43.9751 57.5855 55.4438 63.2162 60.4729 63.0557C61.6007 62.9987 62.7081 62.7279 63.7378 62.2574C62.568 62.8189 61.1913 62.2574 60.8114 60.7026C60.4315 59.1479 59.7921 46.7596 59.7921 36.1477L43.5237 31.3154C42.2937 37.3242 40.0782 52.7952 41.643 54.7129Z" fill="black"/>
<path opacity="0.5" d="M65.3395 31.9953C65.2242 31.5324 65.0497 31.0868 64.8205 30.6698C62.6877 27.2318 52.8552 25.826 50.0793 25.7802C47.8976 25.742 45.3474 26.8383 44.5838 28.5612C44.4559 28.8438 43.5381 31.1206 43.5381 31.1206C47.8976 33.4699 58.7946 35.8574 59.9531 35.4295C61.3561 34.9062 65.3395 31.9953 65.3395 31.9953Z" fill="black"/>
<path d="M68.3001 48.3487C68.1947 48.2991 66.645 47.2027 66.4645 47.1149C66.1485 46.9659 61.7589 50.2053 61.3602 50.7439C61.0856 51.1259 61.8416 58.8117 62.0335 59.209C62.1012 59.3503 63.8013 60.3015 63.8691 60.4428C64.0609 60.8248 68.6988 57.5396 68.9696 56.768C69.2404 55.9964 68.7665 48.5703 68.3001 48.3487Z" fill="#FBC02D"/>
<path opacity="0.18" d="M68.3001 48.3487C68.1947 48.2991 66.645 47.2027 66.4645 47.1149C66.1485 46.9659 61.7589 50.2053 61.3602 50.7439C61.0856 51.1259 61.8416 58.8117 62.0335 59.209C62.1012 59.3503 63.8013 60.3015 63.8691 60.4428C64.0609 60.8248 68.6988 57.5396 68.9696 56.768C69.2404 55.9964 68.7665 48.5703 68.3001 48.3487Z" fill="black"/>
<path d="M63.1993 51.9816C62.9209 52.3636 63.6808 60.0456 63.8688 60.4429C64.0569 60.8402 68.6986 57.5397 68.9694 56.768C69.2402 55.9964 68.7663 48.5703 68.2998 48.364C67.9726 48.1998 63.5942 51.443 63.1993 51.9816Z" fill="#FBC02D"/>
<path opacity="0.4" d="M66.4684 47.1149C66.6452 47.1951 68.1949 48.3029 68.3002 48.3487C67.988 48.1998 63.5947 51.4429 63.1997 51.9777L61.3604 50.7439C61.7591 50.2053 66.1487 46.9621 66.4684 47.1149Z" fill="black"/>
<path opacity="0.3" d="M63.1993 51.9816C62.9209 52.3636 63.6808 60.0456 63.8688 60.4429C64.0569 60.8402 68.6986 57.5397 68.9694 56.768C69.2402 55.9964 68.7663 48.5703 68.2998 48.364C67.9726 48.1998 63.5942 51.443 63.1993 51.9816Z" fill="black"/>
<path d="M61.3604 50.7439C61.6876 50.5109 62.7069 51.0151 63.1508 51.378C63.5947 51.7409 64.125 53.4905 65.2497 53.7311C66.3744 53.9718 67.8827 52.4209 68.1949 51.4391C68.5071 50.4574 68.8118 48.4404 68.2476 47.7414C67.6834 47.0423 66.743 46.6832 65.9531 47.1454C65.1632 47.6077 61.4281 49.85 61.3604 50.7439Z" fill="#FBC02D"/>
<path opacity="0.1" d="M61.3604 50.7439C61.6876 50.5109 62.7069 51.0151 63.1508 51.378C63.5947 51.7409 64.125 53.4905 65.2497 53.7311C66.3744 53.9718 67.8827 52.4209 68.1949 51.4391C68.5071 50.4574 68.8118 48.4404 68.2476 47.7414C67.6834 47.0423 66.743 46.6832 65.9531 47.1454C65.1632 47.6077 61.4281 49.85 61.3604 50.7439Z" fill="black"/>
<path d="M66.2544 51.6225C66.1257 51.7069 66.0225 51.8257 65.9561 51.9659C65.8897 52.1061 65.8628 52.2623 65.8783 52.417C65.8785 52.4783 65.895 52.5384 65.9261 52.591C65.9572 52.6435 66.0017 52.6866 66.0548 52.7155C66.108 52.7445 66.168 52.7583 66.2283 52.7555C66.2885 52.7527 66.347 52.7335 66.3974 52.6997C66.5279 52.6173 66.6327 52.4988 66.6993 52.358C66.7659 52.2173 66.7917 52.0602 66.7735 51.9052C66.7284 51.6034 66.4952 51.4773 66.2544 51.6225Z" fill="#37474F"/>
<path d="M59.7843 35.9529C59.7843 35.9529 61.3189 34.8833 63.1696 33.7946C65.0202 32.7059 66.0697 32.3277 66.7317 34.5204C67.3286 36.447 67.8085 38.4091 68.1686 40.3955C68.5259 40.2236 68.4883 39.5704 68.24 36.7742C67.8639 32.702 68.3867 30.8875 64.2378 29.2564C57.8057 26.7314 52.4043 24.745 48.7255 25.5816C45.0468 26.4181 44.1892 28.5115 43.5234 31.132C43.5234 31.132 47.9921 35.2423 59.7843 35.9529Z" fill="#37474F"/>
<path d="M34.3603 26.0781C30.9299 27.1019 29.5569 28.4924 27.7778 31.514C25.9535 34.6082 22.7637 39.7652 20.0179 44.502L10.8286 41.8967L7.97363 47.516C7.97363 47.516 18.5396 52.482 20.9507 52.7646C23.3618 53.0473 24.0878 52.2833 25.7052 50.4001C27.5069 48.3029 33.262 40.2503 33.262 40.2503L34.3603 26.0781Z" fill="#AD6359"/>
<path d="M34.5481 25.7076C30.1209 26.8956 29.079 29.0539 27.3412 31.8654C25.6034 34.677 20.0176 44.502 20.0176 44.502C20.0176 44.502 21.2589 44.7121 23.117 46.2095C25.5206 48.1463 26.1939 49.8615 26.1939 49.8615C26.1939 49.8615 28.1311 47.5695 29.5303 45.797C33.2918 41.0067 33.5024 40.7393 33.5024 40.7393L34.5481 25.7076Z" fill="#FBC02D"/>
<path opacity="0.6" d="M34.5481 25.7076C30.1209 26.8956 29.079 29.0539 27.3412 31.8654C25.6034 34.677 20.0176 44.502 20.0176 44.502C20.0176 44.502 21.2589 44.7121 23.117 46.2095C25.5206 48.1463 26.1939 49.8615 26.1939 49.8615C26.1939 49.8615 28.1311 47.5695 29.5303 45.797C33.2918 41.0067 33.5024 40.7393 33.5024 40.7393L34.5481 25.7076Z" fill="white"/>
<path d="M0.64226 32.7784L1.19143 32.2054C1.2756 32.1377 1.37442 32.0914 1.47972 32.0701C1.58501 32.0489 1.69378 32.0533 1.79703 32.0832L8.39464 33.2979C8.72905 33.3796 9.04223 33.5335 9.31289 33.749C9.58354 33.9645 9.80533 34.2367 9.96318 34.5471L15.7558 47.7375C15.8219 47.843 15.8548 47.9663 15.8501 48.0912C15.8454 48.2161 15.8033 48.3366 15.7295 48.4366V48.4366L15.1578 49.0249C15.0741 49.095 14.975 49.1435 14.8689 49.1661C14.7627 49.1887 14.6527 49.1848 14.5484 49.1547L7.95456 47.94C7.62073 47.858 7.30819 47.7041 7.03818 47.4885C6.76817 47.273 6.54703 47.0009 6.38978 46.6908L0.593359 33.5004C0.523578 33.3908 0.490633 33.2613 0.499448 33.1311C0.508264 33.001 0.558367 32.8772 0.64226 32.7784Z" fill="#455A64"/>
<path d="M8.5752 34.188C8.93158 34.4178 9.22013 34.7412 9.41024 35.1239L15.2067 48.322C15.2692 48.4254 15.3023 48.5444 15.3023 48.6658C15.3023 48.7872 15.2692 48.9062 15.2067 49.0096L15.7408 48.4595C15.8149 48.3589 15.8571 48.2378 15.8618 48.1123C15.8665 47.9867 15.8335 47.8627 15.7671 47.7566L9.95941 34.57C9.78783 34.2149 9.52866 33.9109 9.20712 33.6876L8.5752 34.188Z" fill="#263238"/>
<path d="M15.2034 48.322L9.41071 35.1316C9.25325 34.8213 9.03152 34.5494 8.76077 34.3344C8.49001 34.1194 8.17664 33.9665 7.84219 33.8862L1.24457 32.66C0.631452 32.5492 0.341815 32.9236 0.593833 33.5004L6.39025 46.6909C6.5475 47.0009 6.76864 47.273 7.03865 47.4885C7.30866 47.7041 7.6212 47.8581 7.95503 47.94L14.5602 49.1624C15.1658 49.2732 15.4591 48.8988 15.2034 48.322Z" fill="#37474F"/>
<path d="M9.64388 37.9851L8.56057 35.5174C8.53142 35.4591 8.49005 35.408 8.43936 35.3678C8.38866 35.3275 8.32989 35.299 8.26718 35.2843L7.02967 35.0551C6.91682 35.0322 6.8604 35.1048 6.9093 35.2118C7.1237 35.6969 7.78196 37.1943 7.9926 37.6795C8.02215 37.7378 8.06359 37.7891 8.11418 37.83C8.16476 37.8708 8.22334 37.9002 8.28599 37.9163L9.52351 38.1417C9.63635 38.1646 9.68902 38.092 9.64388 37.9851Z" fill="#455A64"/>
<path d="M8.54166 36.1286C8.46421 35.9837 8.35691 35.8576 8.22708 35.7587C8.09726 35.6598 7.94795 35.5905 7.78936 35.5556C7.49597 35.5021 7.34928 35.6702 7.46588 35.9376C7.54333 36.0824 7.65063 36.2086 7.78045 36.3074C7.91028 36.4063 8.05958 36.4756 8.21817 36.5106C8.51909 36.5602 8.66578 36.3922 8.54166 36.1286Z" fill="#263238"/>
<path d="M9.08346 37.3777C9.00642 37.2321 8.89931 37.1052 8.76946 37.0057C8.63961 36.9061 8.49009 36.8362 8.33116 36.8009C8.03401 36.7474 7.88731 36.9155 8.00392 37.1829C8.08137 37.3277 8.18866 37.4539 8.31849 37.5527C8.44832 37.6516 8.59762 37.7209 8.75621 37.7559C9.05337 37.8093 9.20006 37.626 9.08346 37.3777Z" fill="#263238"/>
<path d="M2.33536 40.8386C1.58307 40.0441 1.60564 39.9142 1.87646 39.4023C2.07896 38.9983 2.37321 38.649 2.7349 38.3833C3.09659 38.1176 3.51534 37.9432 3.95656 37.8743C4.73518 37.775 5.51381 37.6336 5.94637 37.7788C6.37894 37.924 6.1683 38.8331 5.19408 39.2228C3.6594 39.8378 3.7384 40.2771 3.7384 40.2771C4.3918 40.0113 5.05849 39.7805 5.73573 39.5857C6.31876 39.4596 7.43592 39.5857 8.12427 39.5857C8.81262 39.5857 9.07967 40.4413 7.98885 40.9265H9.24894C10.1329 40.9265 10.494 41.3505 9.90343 41.9961C9.71285 42.2172 9.45445 42.3666 9.16996 42.4201C9.16996 42.4201 10.0877 42.2711 10.1517 42.5805C10.3435 43.4591 9.81316 43.78 8.04527 44.6204C6.35637 45.4226 6.14196 46.4464 6.5971 47.0576C6.5971 47.0576 5.81848 46.7482 5.11885 46.4044C4.60353 46.1522 4.15215 45.8505 4.24995 45.0788C4.24995 45.0788 3.24187 45.2622 3.08389 44.6357C2.99797 44.1725 3.00951 43.696 3.11774 43.2376C2.92161 43.161 2.75044 43.0303 2.62351 42.8602C2.49658 42.6901 2.41893 42.4874 2.39931 42.2749C2.3361 41.8728 2.40483 41.4608 2.59491 41.1022L2.33536 40.8386Z" fill="#AD6359"/>
<path d="M7.9889 40.9112C7.61193 40.8917 7.234 40.9096 6.86046 40.9647C6.49361 41.0825 6.14714 41.2578 5.83357 41.4842C5.20161 41.8903 4.60399 42.349 4.04688 42.8556C4.72852 42.5496 5.38402 42.1867 6.00661 41.7707C6.29847 41.5589 6.6081 41.3735 6.93193 41.2168C7.25165 41.106 7.63532 41.0373 7.9889 40.9112Z" fill="#AF6152"/>
<path d="M9.16999 42.4086C8.75879 42.3561 8.34118 42.4086 7.95503 42.5614C7.57451 42.7107 7.20814 42.8949 6.86044 43.1115C6.16985 43.5353 5.52443 44.0307 4.93457 44.5899C5.66806 44.2384 6.34888 43.8259 7.03347 43.398C7.679 42.9364 8.40353 42.6009 9.16999 42.4086V42.4086Z" fill="#AF6152"/>
<path d="M55.4959 58.1165C53.6152 52.5851 52.4303 49.3916 52.3814 47.6344C52.3814 47.6344 53.9499 38.8102 54.1756 36.7321C54.7586 31.3192 53.7995 28.7789 52.7312 28.2021C52.1106 27.8697 49.5716 27.1095 48.7591 26.8765C45.0691 25.8069 39.7842 25.6732 36.3463 25.7305C35.0598 25.7993 34.6611 25.8451 34.6611 25.8451C32.9809 27.1149 31.4297 28.552 30.0307 30.135C27.2999 33.3514 26.4461 35.5135 26.8824 38.8255C27.1183 40.2687 27.7432 41.6174 28.6879 42.7219C28.8985 44.3224 29.2408 48.8606 29.2408 48.8606C29.1995 50.6445 29.3236 50.6025 28.4359 54.8962C31.2307 63.3575 49.8499 62.838 55.4959 58.1165Z" fill="#FAFAFA"/>
<path d="M47.1562 3.62799C48.0191 3.26429 48.9699 3.17327 49.8845 3.3668C50.7991 3.56034 51.635 4.02945 52.2831 4.71287C53.562 6.11099 53.8591 8.15087 54.0622 10.0303C54.4208 13.3155 54.6892 16.6084 54.8672 19.9088C54.9462 21.3872 55.2132 22.8464 55.3449 24.3324C55.4903 25.9979 55.6082 27.666 55.6985 29.3366C55.7692 29.7628 55.6907 30.2007 55.4766 30.5743C55.213 30.8616 54.8566 31.0432 54.4722 31.0862C52.6395 31.4629 50.7343 31.1261 49.1347 30.1426C46.6371 28.6146 45.2454 25.6006 45.0535 22.6363C44.9294 20.7263 45.2529 18.8163 45.5726 16.9063C45.7852 15.5079 46.0702 14.1219 46.4265 12.754C46.6672 11.8907 46.9681 11.0426 47.1788 10.1717C47.58 8.37709 47.5374 6.50954 47.0546 4.73579" fill="#263238"/>
<path d="M49.0412 3.62798C49.9336 4.38133 50.5618 5.40792 50.8317 6.5541C50.9265 6.85603 50.9265 7.18042 50.8317 7.48236C50.7248 7.69847 50.5534 7.87471 50.3419 7.98587C50.1304 8.09702 49.8898 8.13739 49.6543 8.1012C49.1787 8.01294 48.7436 7.77191 48.4131 7.4136C47.6707 6.70211 47.179 5.76259 47.0138 4.7396C46.9386 4.26592 46.9837 3.51338 47.4351 3.2116C47.9617 2.86398 48.6425 3.27272 49.0412 3.62798Z" fill="#FBC02D"/>
<path d="M31.6064 10.7599C30.5231 8.43356 31.4221 5.27442 32.5881 3.76934C34.2733 1.59194 36.9703 0.594918 41.0778 0.713338C44.2036 0.816478 47.9838 2.11146 48.6647 5.347C51.5986 6.7413 50.6959 10.8516 49.9774 12.605C48.4728 16.2531 46.2498 19.141 46.2649 21.0587L31.6064 10.7599Z" fill="#263238"/>
<path d="M33.2841 5.79776C32.5845 6.35548 31.4297 7.91786 31.6065 10.7638C31.7005 11.6233 31.4297 12.6738 31.4297 14.2934C31.4297 20.3711 33.0885 21.6393 34.7059 22.3575C35.6726 22.7853 36.2105 22.8541 37.7452 22.835V25.6541C37.7452 25.6541 34.2433 31.2046 35.8344 36.0636C43.1015 31.0594 46.295 25.2072 46.2988 25.1957L46.3514 18.3388C46.3514 18.3388 47.3106 19.1869 48.8152 18.3617C50.4477 17.464 51.0721 14.6678 50.0113 13.3957C48.9506 12.1237 47.4159 12.903 46.7426 14.0413C46.0693 15.1797 44.3917 14.8588 44.892 13.1322C44.1397 12.7502 43.173 11.9862 43.8726 8.80028C44.0306 7.98662 43.7334 6.58468 42.9774 5.9009C41.7098 4.7549 39.246 5.0223 37.8543 6.44716C35.951 4.84658 34.7323 4.64412 33.2841 5.79776Z" fill="#AD6359"/>
<path d="M39.2422 17.0859L36.4775 18.0753C36.5323 18.261 36.6237 18.4335 36.7461 18.5824C36.8685 18.7312 37.0194 18.8533 37.1896 18.9411C37.3599 19.029 37.5459 19.0808 37.7364 19.0935C37.9269 19.1062 38.118 19.0795 38.2981 19.015C38.6686 18.8771 38.973 18.6003 39.1486 18.2414C39.3242 17.8826 39.3577 17.469 39.2422 17.0859V17.0859Z" fill="#AF6152"/>
<path d="M37.6582 19.0799C37.6631 18.7299 37.803 18.3959 38.0477 18.1495C38.2924 17.9031 38.6226 17.764 38.9672 17.762C39.074 17.7636 39.1802 17.779 39.2832 17.8078C39.2406 18.0812 39.1267 18.338 38.9534 18.5516C38.7801 18.7652 38.5537 18.9278 38.2976 19.0226C38.0919 19.0923 37.8728 19.1119 37.6582 19.0799Z" fill="#AD6359"/>
<path d="M37.0342 10.8936L36.6581 16.318L33.9912 15.0383L37.0342 10.8936Z" fill="#AF6152"/>
<path d="M37.7451 22.8312C39.6672 22.7242 43.7635 21.6546 44.7678 19.0646C44.7678 19.0646 44.6173 20.9135 42.2626 22.346C40.4045 23.492 37.7489 23.7098 37.7489 23.7098L37.7451 22.8312Z" fill="#AF6152"/>
<path d="M39.2117 12.6012C39.2373 12.825 39.3479 13.0298 39.5201 13.1718C39.6923 13.3139 39.9123 13.382 40.1333 13.3615C40.3542 13.3411 40.5585 13.2338 40.7026 13.0624C40.8467 12.8911 40.9191 12.6694 40.9044 12.4446C40.8969 12.3297 40.8668 12.2174 40.8159 12.1145C40.7651 12.0116 40.6944 11.9201 40.6082 11.8453C40.522 11.7705 40.4219 11.714 40.3138 11.6791C40.2058 11.6442 40.0919 11.6316 39.979 11.642C39.8661 11.6525 39.7564 11.6858 39.6563 11.7399C39.5562 11.7941 39.4679 11.868 39.3964 11.9574C39.3249 12.0468 39.2717 12.1498 39.24 12.2603C39.2083 12.3709 39.1987 12.4868 39.2117 12.6012V12.6012Z" fill="#263238"/>
<path d="M32.8741 12.3834C32.912 12.5499 32.9976 12.7011 33.1202 12.8181C33.2427 12.9351 33.3967 13.0125 33.5626 13.0406C33.7284 13.0687 33.8988 13.0462 34.0521 12.976C34.2054 12.9057 34.3347 12.7909 34.4237 12.6459C34.5127 12.501 34.5574 12.3325 34.5521 12.1618C34.5468 11.9911 34.4917 11.8258 34.3939 11.6869C34.296 11.5479 34.1598 11.4416 34.0024 11.3813C33.8451 11.321 33.6736 11.3095 33.5098 11.3482C33.4009 11.3734 33.2981 11.4203 33.2071 11.486C33.1161 11.5518 33.0389 11.6352 32.9798 11.7314C32.9207 11.8277 32.8809 11.9348 32.8628 12.0467C32.8447 12.1586 32.8485 12.2731 32.8741 12.3834Z" fill="#263238"/>
<path d="M33.1901 9.00655C33.3455 8.96845 33.5067 8.96185 33.6646 8.98714C33.8224 9.01243 33.9739 9.0691 34.1101 9.15391C34.2464 9.23872 34.3649 9.35 34.4587 9.48138C34.5526 9.61276 34.62 9.76165 34.6571 9.91953L32.2949 10.504C32.2567 10.346 32.2496 10.1818 32.2739 10.021C32.2983 9.8602 32.3536 9.70584 32.4367 9.56675C32.5199 9.42767 32.6292 9.3066 32.7585 9.21048C32.8878 9.11435 33.0344 9.04506 33.1901 9.00655V9.00655Z" fill="#263238"/>
<path d="M41.1603 9.46495C41.4566 9.5937 41.6906 9.83639 41.8112 10.1399C41.9317 10.4435 41.929 10.7831 41.8035 11.0846L39.5654 10.122C39.6915 9.82039 39.9302 9.58186 40.2291 9.4587C40.5281 9.33553 40.863 9.33778 41.1603 9.46495V9.46495Z" fill="#263238"/>
<path d="M33.8069 2.53928H42.9247C49.086 5.00318 46.8178 13.0481 45.5314 14.0298C41.8715 12.4636 42.1084 8.75442 42.3793 6.64196C40.5249 8.4068 37.4329 9.69796 35.9848 9.86222C36.6581 9.04092 37.2223 7.00486 37.2223 7.00486C36.5846 8.32315 35.582 9.42375 34.3373 10.1716C32.0804 11.4895 30.5457 10.6109 30.5457 10.6109C30.5457 10.6109 29.7784 5.02228 33.8069 2.53928Z" fill="#263238"/>
<path d="M45.7346 24.7984C45.5644 25.9846 45.2861 27.1522 44.9033 28.2861C44.151 30.7003 43.8952 32.6294 43.7485 37.7979C43.6018 42.9663 45.4562 67.1202 44.9108 72.9648C48.6911 72.9648 54.7207 70.4169 57.5381 67.3188C57.2045 63.3718 56.5209 59.4634 55.4956 55.6411C54.1452 50.4192 52.7384 50.0028 53.0243 47.2027C53.3102 44.4027 55.9206 33.2827 53.6863 27.6023C52.37 27.4331 51.0659 27.1779 49.7819 26.8383C46.1973 25.9521 45.7346 24.7984 45.7346 24.7984Z" fill="#FBC02D"/>
<path opacity="0.4" d="M45.7346 24.7984C45.5644 25.9846 45.2861 27.1522 44.9033 28.2861C44.151 30.7003 43.8952 32.6294 43.7485 37.7979C43.6018 42.9663 45.4562 67.1202 44.9108 72.9648C48.6911 72.9648 54.7207 70.4169 57.5381 67.3188C57.2045 63.3718 56.5209 59.4634 55.4956 55.6411C54.1452 50.4192 52.7384 50.0028 53.0243 47.2027C53.3102 44.4027 55.9206 33.2827 53.6863 27.6023C52.37 27.4331 51.0659 27.1779 49.7819 26.8383C46.1973 25.9521 45.7346 24.7984 45.7346 24.7984Z" fill="white"/>
<path d="M37.6743 24.5234L37.5427 25.0467C37.5427 26.5289 34.5335 28.8667 32.4346 32.3773C30.3357 35.8879 29.9821 39.2762 30.1401 43.738C30.2981 48.1997 29.1396 64.939 28.6957 67.124C27.4392 66.2748 26.5456 64.9743 26.1943 63.4836C26.5442 60.8363 27.1723 56.2256 27.5485 54.6212C27.9246 53.0168 27.8983 50.381 27.8983 47.0767C27.9133 45.6459 27.8253 44.216 27.635 42.7983C27.635 42.7983 25.5587 40.1739 26.7736 35.3034C27.9886 30.4329 34.5486 25.7076 34.5486 25.7076C34.9715 25.5777 35.4009 25.4706 35.835 25.3867C36.4857 25.19 37.1052 24.8993 37.6743 24.5234Z" fill="#FBC02D"/>
<path opacity="0.4" d="M37.6743 24.5234L37.5427 25.0467C37.5427 26.5289 34.5335 28.8667 32.4346 32.3773C30.3357 35.8879 29.9821 39.2762 30.1401 43.738C30.2981 48.1997 29.1396 64.939 28.6957 67.124C27.4392 66.2748 26.5456 64.9743 26.1943 63.4836C26.5442 60.8363 27.1723 56.2256 27.5485 54.6212C27.9246 53.0168 27.8983 50.381 27.8983 47.0767C27.9133 45.6459 27.8253 44.216 27.635 42.7983C27.635 42.7983 25.5587 40.1739 26.7736 35.3034C27.9886 30.4329 34.5486 25.7076 34.5486 25.7076C34.9715 25.5777 35.4009 25.4706 35.835 25.3867C36.4857 25.19 37.1052 24.8993 37.6743 24.5234Z" fill="white"/>
<path d="M46.2873 22.728C46.6618 24.1998 47.4734 25.5189 48.6118 26.506C48.6118 26.506 47.6226 31.2008 47.7956 33.5042C47.9686 35.8077 48.4275 38.0424 47.7956 38.0271C46.9427 37.892 46.1015 37.6902 45.2792 37.4235C45.2792 37.4235 46.7838 39.6735 46.6446 40.3764C46.5054 41.0793 44.1545 48.9943 44.1545 48.9943C44.1545 48.9943 43.1728 39.8263 43.327 37.1523C43.4812 34.4783 43.9551 29.5391 44.8955 26.7161C45.5613 24.7335 46.2873 22.728 46.2873 22.728Z" fill="#FBC02D"/>
<path d="M30.068 47.7184C29.9363 45.1399 28.6085 38.6765 28.4355 37.4044C28.2625 36.1324 30.068 34.9405 30.068 34.9405C30.068 34.9405 28.9809 35.2232 28.6236 34.9405C28.2662 34.6579 30.4517 31.4376 32.3211 29.3099C34.1906 27.1821 37.7527 23.9619 37.7527 23.9619V25.6656C36.7336 26.7898 35.8206 28.0087 35.0256 29.306C33.3894 32.0297 30.3576 35.0017 30.068 47.7184Z" fill="#FBC02D"/>
<path d="M50.2071 26.8956C50.2071 26.8956 46.3328 30.2649 45.7196 36.7436C44.1737 53.1276 55.9809 56.4815 55.9809 56.4815C55.747 55.0858 55.4215 53.7076 55.0067 52.3559C55.0067 52.3559 48.0593 45.8925 48.8304 37.519C49.3795 31.5484 52.1931 27.969 53.6864 27.587C52.5388 27.2975 51.3775 27.0667 50.2071 26.8956V26.8956Z" fill="#37474F"/>
<path d="M58.0343 56.726C56.4883 56.1797 55.4727 55.5189 53.8967 54.052C50.9815 51.3398 50.8236 50.9387 48.405 48.5436C47.585 47.7337 46.8477 46.9277 46.5017 46.561C46.1556 46.1942 45.2604 45.5181 44.6773 44.5211C44.2824 43.845 43.7633 42.9931 43.6918 42.1871C43.6166 41.3008 43.342 40.3917 43.5451 39.5131C43.6053 39.2533 43.7031 39.005 43.752 38.7491C43.8003 38.3858 43.8167 38.0189 43.8009 37.6527C43.792 37.0094 43.899 36.3698 44.1169 35.7657C44.3127 35.2603 44.6264 34.8106 45.0309 34.4554C45.1704 34.2991 45.3491 34.1843 45.5478 34.1231C45.7465 34.0619 45.9579 34.0566 46.1594 34.1078C46.0465 34.5814 45.9638 34.9787 45.8622 35.5326C45.941 36.3213 46.2487 37.0685 46.7461 37.6795C47.6376 38.9859 48.42 39.6812 48.5479 39.429C48.6758 39.1769 48.356 38.3709 48.5479 37.0874C48.7209 35.865 49.0971 35.3607 49.4882 35.2805C50.1126 35.1506 50.0788 35.8306 50.2894 36.8696C50.5415 38.1073 51.0417 38.8064 51.0116 40.6171C51.0116 42.2062 50.722 42.5614 51.5646 43.2911C52.046 43.7227 53.7011 44.7617 53.7011 44.7617C53.7011 44.7617 53.3024 43.016 52.6516 40.0326C51.3915 34.2453 51.3991 28.5726 53.6597 27.8086C56.3755 28.6223 59.016 30.177 60.2122 34.9023C61.4873 39.9256 61.4911 40.6744 62.5631 50.5911C63.353 57.8032 60.3777 57.5587 58.0343 56.726Z" fill="#AD6359"/>
<path d="M53.7125 44.7579C55.6346 46.3547 59.8926 48.7307 60.3478 51.1603C60.3478 51.1603 60.3477 49.2503 57.8351 46.8398C56.4405 45.4857 54.9398 44.249 53.3477 43.1421L53.7125 44.7579Z" fill="#AF6152"/>
<path d="M53.6793 27.6023C55.5788 28.0531 57.9674 29.3442 59.0845 31.4605C60.2017 33.5768 60.4951 35.0857 61.2022 38.1799C61.9094 41.2741 63.0153 52.0427 62.7068 52.4858C60.7208 49.4298 58.2194 46.6641 53.7207 44.7579C53.7207 44.7579 52.5057 40.2962 52.0242 37.2554C51.5428 34.2147 50.5836 29.0654 53.6793 27.6023Z" fill="#FBC02D"/>
<path opacity="0.6" d="M53.6793 27.6023C55.5788 28.0531 57.9674 29.3442 59.0845 31.4605C60.2017 33.5768 60.4951 35.0857 61.2022 38.1799C61.9094 41.2741 63.0153 52.0427 62.7068 52.4858C60.7208 49.4298 58.2194 46.6641 53.7207 44.7579C53.7207 44.7579 52.5057 40.2962 52.0242 37.2554C51.5428 34.2147 50.5836 29.0654 53.6793 27.6023Z" fill="white"/>
</svg>
