<svg width="581" height="328" viewBox="0 0 581 328" fill="none" xmlns="http://www.w3.org/2000/svg">
<path d="M293.578 328C452.315 328 580.996 315.764 580.996 300.669C580.996 285.575 452.315 273.339 293.578 273.339C134.842 273.339 6.16016 285.575 6.16016 300.669C6.16016 315.764 134.842 328 293.578 328Z" fill="#FBC02D" fill-opacity="0.1"/>
<g opacity="0.6">
<path opacity="0.6" d="M528.543 62.5636C528.543 62.5636 525.718 57.1308 518.572 57.8109C511.424 58.4909 512.276 63.9383 508.871 63.4277C505.466 62.9171 500.702 63.4277 499.68 66.8326C498.659 70.2376 494.064 68.3645 493.894 71.2564C493.725 74.1507 499.17 76.1907 505.466 73.6401C511.763 71.087 514.826 75.6237 523.676 74.8013C532.525 73.9789 533.622 72.9576 538.858 73.4682C544.097 73.9789 543.972 70.3922 541.59 68.0085C539.209 65.6273 529.565 65.8531 528.543 62.5636Z" fill="white"/>
</g>
<g opacity="0.6">
<path opacity="0.6" d="M58.2088 24.5611C58.2088 24.5611 53.4638 15.4337 41.4576 16.5777C29.4513 17.7217 30.88 26.8687 25.1629 26.0119C19.4457 25.1552 11.4407 26.0119 9.72487 31.7294C8.00899 37.4469 0.291228 34.3021 0.00647585 39.1629C-0.278276 44.0236 8.86816 47.4531 19.4457 43.1644C30.0233 38.8756 35.1685 46.4957 50.0345 45.116C64.9005 43.7363 66.7416 42.0204 75.5394 42.8796C84.3373 43.7363 84.1286 37.712 80.1274 33.7105C76.1237 29.7066 59.9223 30.0895 58.2088 24.5611Z" fill="white"/>
</g>
<g opacity="0.6">
<path opacity="0.6" d="M375.769 10.2443C375.769 10.2443 372.015 3.02443 362.516 3.92783C353.016 4.83369 354.147 12.0708 349.623 11.3932C345.099 10.7156 338.766 11.3932 337.411 15.9176C336.053 20.442 329.946 17.9527 329.72 21.7996C329.494 25.6439 336.731 28.3591 345.099 24.9664C353.467 21.5737 357.54 27.603 369.3 26.5105C381.061 25.4181 382.519 24.0605 389.481 24.7405C396.443 25.4181 396.278 20.6531 393.112 17.4863C389.945 14.3195 377.126 14.6165 375.769 10.2443Z" fill="white"/>
</g>
<path d="M182.531 132.926C190.232 134.389 198.951 133.012 208.476 128.821C215.668 125.657 220.767 121.943 220.98 121.788L212.565 109.742L216.773 115.766L212.578 109.735C208.196 112.919 194.609 120.632 184.453 118.133C179.843 116.996 176.284 113.802 173.579 108.367L160.605 115.194C165.213 124.447 172.266 130.464 180.995 132.595C181.5 132.717 182.016 132.828 182.531 132.926Z" fill="#D3766A"/>
<path d="M201.07 123.384C201.07 123.384 205.855 116.257 210.717 114.062C215.58 111.868 218.664 113.689 218.664 113.689L223.882 111.605C223.882 111.605 224.631 131.404 211.066 127.915C209.998 127.638 201.07 123.384 201.07 123.384Z" fill="#D3766A"/>
<path d="M223.105 101.282L218.119 129.983C217.793 131.861 215.981 133.1 214.113 132.72L200.757 130.014C198.96 129.651 197.779 127.923 198.094 126.119L203.006 97.8356C203.325 95.9968 205.07 94.7645 206.909 95.0787L220.339 97.3667C222.187 97.6809 223.427 99.4362 223.105 101.282Z" fill="#331832"/>
<path d="M221.019 100.391C221.005 99.898 220.595 99.5101 220.101 99.5248C219.608 99.5395 219.22 99.9495 219.235 100.443C219.25 100.936 219.659 101.324 220.153 101.31C220.644 101.295 221.032 100.882 221.019 100.391Z" fill="#100B47"/>
<path d="M225.563 109.501C225.563 109.501 226.938 106.484 224.176 105.249C220.656 103.676 214.762 105.087 216.979 106.116C218.943 107.027 222.046 107.655 222.046 107.655C222.046 107.655 214.139 106.172 214.392 107.92C214.644 109.668 221.461 110.849 221.461 110.849C221.461 110.849 213.628 110.132 214.401 111.706C215.175 113.279 221.358 114.391 221.358 114.391C221.358 114.391 213.739 113.277 214.681 115.084C215.624 116.891 219.679 116.667 221.42 116.964C223.064 117.247 223.779 116.277 223.936 114.671C223.936 114.671 225.023 113.164 224.861 112.089C224.8 111.676 225.237 111.352 225.32 111.07C225.48 110.532 225.563 109.501 225.563 109.501Z" fill="#D3766A"/>
<path d="M152.492 296.165C152.492 296.165 152.618 301.195 156.02 302.614C159.422 304.033 169.283 305.312 165.598 308.545C163.485 310.401 153.521 309.201 150.71 309.201C147.897 309.201 145.256 310.426 143.167 308.543C140.867 306.471 143.167 296.163 143.167 296.163C143.167 296.163 145.595 297.427 147.777 297.37C150.924 297.292 152.492 296.165 152.492 296.165Z" fill="#331832"/>
<path d="M113.414 296.165C113.414 296.165 113.54 301.195 116.942 302.614C120.344 304.033 130.205 305.312 126.52 308.545C124.407 310.401 114.443 309.201 111.632 309.201C108.819 309.201 106.178 310.426 104.089 308.543C101.789 306.471 104.089 296.163 104.089 296.163C104.089 296.163 106.516 297.427 108.699 297.37C111.843 297.292 113.414 296.165 113.414 296.165Z" fill="#331832"/>
<path d="M177.78 158.297C177.78 158.297 178.408 179.348 171.689 219.734C166.839 248.888 161.112 278.266 158.304 292.35C157.3 297.387 153.063 301.072 148.04 301.273L145.342 301.382C139.912 301.6 135.506 296.936 135.904 291.39L142.721 196.103L144.4 164.741L177.78 158.297Z" fill="#68A1BF"/>
<path d="M116.325 176.825C116.635 179.388 131.123 179.076 148.858 176.829C166.596 174.583 180.402 170.741 180.093 168.178C179.783 165.615 165.475 165.304 147.737 167.55C129.998 169.796 116.014 174.262 116.325 176.825Z" fill="#331832"/>
<path d="M157.418 173.334L119.551 294.987C117.965 300.078 113.382 303.569 108.158 303.657L105.883 303.697C100.509 303.787 96.3999 298.819 97.3794 293.411L118.095 179.103C118.397 177.745 119.399 176.663 120.709 176.287C127.813 174.237 158.115 168.304 157.418 173.334Z" fill="#68A1BF"/>
<path d="M113.908 168.23L122.495 158.256C122.343 158.16 105.489 147.52 107.101 132.369C107.943 124.471 112.676 118.116 121.175 113.483C127.937 109.796 134.573 108.64 134.636 108.63L132.619 95.6899C132.268 95.7464 123.892 97.1531 115.153 101.92C102.867 108.62 95.6819 118.658 94.3735 130.95C93.3155 140.877 96.7865 150.749 104.411 159.498C109.88 165.775 109.635 166.151 113.908 168.23Z" fill="#D3766A"/>
<path d="M122.245 106.784C122.245 106.784 127.285 92.6067 145.231 93.2524C163.18 93.898 176.733 117.485 180.089 168.179C180.089 168.179 150.698 161.734 116.268 176.768C116.27 176.771 114.363 127.447 122.245 106.784Z" fill="#EF8062"/>
<path d="M108.148 103.786L122.354 114.07C122.354 114.07 155.039 117.34 163.714 115.766C172.392 114.193 174.771 107.174 174.771 107.174C174.771 107.174 165.528 96.6425 149.823 93.8292C148.348 93.5616 146.816 93.3677 145.23 93.2523C142.567 93.0633 139.901 93.1443 137.291 93.4266C121.775 95.1009 108.148 103.786 108.148 103.786Z" fill="#EF8062"/>
<path d="M108.149 103.786C107.378 104.901 109.934 108.104 113.856 110.945C117.779 113.785 121.584 115.184 122.352 114.07C123.123 112.955 120.568 109.751 116.645 106.911C112.725 104.071 108.92 102.672 108.149 103.786Z" fill="#331832"/>
<path d="M98.4801 135.837C97.1791 135.837 96.1211 134.35 96.1211 132.518C96.1211 130.687 97.1791 129.199 98.4801 129.199C99.7812 129.199 100.839 130.689 100.839 132.518C100.839 133.382 100.606 134.2 100.186 134.821C99.737 135.476 99.1331 135.837 98.4801 135.837ZM96.7446 132.518C96.7446 133.979 97.54 135.214 98.4801 135.214C98.9195 135.214 99.3442 134.949 99.6707 134.47C100.022 133.952 100.216 133.26 100.216 132.518C100.216 131.058 99.4203 129.823 98.4801 129.823C97.54 129.823 96.7446 131.058 96.7446 132.518Z" fill="#EC865C"/>
<path d="M137.324 93.424C139.243 93.2178 140.91 92.0149 141.674 90.24L144.067 84.6846L144.762 83.0717L148.844 73.5884L148.137 83.4154L147.712 89.3145L147.592 90.9961C147.494 92.3684 148.451 93.5812 149.806 93.8242L149.831 93.8291C150.557 95.0099 151.561 97.4133 148.562 98.3658C145.039 99.4877 139.342 96.7136 137.297 93.4265C137.304 93.4265 137.314 93.424 137.324 93.424Z" fill="#D3766A"/>
<path d="M115.569 153.856C115.569 153.856 120.888 148.988 125.086 149.418C129.284 149.848 134.323 153.572 131.665 153.856C129.006 154.144 125.506 153.569 125.506 153.569C125.506 153.569 132.924 155.145 131.805 156.719C130.685 158.295 124.247 156.861 124.247 156.861C124.247 156.861 132.924 159.439 131.385 160.585C129.846 161.732 123.267 159.726 123.267 159.726C123.267 159.726 131.245 162.446 129.426 163.735C127.607 165.024 122.847 161.445 121.728 163.018C120.609 164.594 118.51 170.751 113.75 168.173L115.569 153.856Z" fill="#D3766A"/>
<path d="M140.495 227.708L148.639 202.95C150.471 197.382 154.236 192.735 159.246 189.868L158.93 189.315C153.785 192.264 149.916 197.036 148.036 202.754L139.891 227.511L140.495 227.708Z" fill="#020202"/>
<path d="M119.737 114.261C119.737 114.261 120.525 111.897 116.956 109.268C113.387 106.637 108.759 106.045 108.759 106.045L107.824 110.557L112.861 112.759L119.737 114.261Z" fill="#D3766A"/>
<path d="M137.737 71.9707C137.737 71.9707 138.117 73.5836 137.189 76.8879C135.832 81.724 141.36 83.742 142.774 82.3623C142.948 82.1905 142.717 73.9665 142.717 73.9665L140.95 72.9158L137.737 71.9707Z" fill="#331832"/>
<path d="M144.057 84.5199C144.06 84.5739 144.062 84.6279 144.067 84.6819C144.3 87.8487 147.69 89.329 147.69 89.329L147.71 89.3119L148.134 83.4127C147.099 83.0322 145.623 82.6419 144.759 83.069C144.31 83.2924 144.025 83.7368 144.057 84.5199Z" fill="#331832"/>
<path d="M149.291 86.5501C154.39 86.5501 158.523 81.4503 158.523 75.1593C158.523 68.8684 154.39 63.7686 149.291 63.7686C144.192 63.7686 140.059 68.8684 140.059 75.1593C140.059 81.4503 144.192 86.5501 149.291 86.5501Z" fill="#D3766A"/>
<path d="M151.304 82.409C149.839 82.5023 149.738 83.7297 151.059 83.5751C152.38 83.4204 152.306 82.3452 151.304 82.409Z" fill="white"/>
<path d="M152.949 66.4176C152.694 66.7662 154.144 72.6285 143.289 74.0254C132.434 75.4247 138.957 62.2541 146.964 61.9571C158.529 61.5274 160.212 69.3046 159.1 72.1032C157.993 74.8993 152.949 66.4176 152.949 66.4176Z" fill="#331832"/>
<path d="M136.217 59.2125C136.217 59.2125 141.092 62.4751 137.342 65.5462C133.591 68.6172 123.276 69.9601 126.089 75.1399C128.902 80.3222 131.34 87.9963 126.275 88.9561C121.211 89.916 118.023 89.5306 115.961 93.5615C113.899 97.5925 104.708 95.0958 105.459 90.299C106.21 85.5021 98.3329 81.2796 101.708 76.8657C105.084 72.4518 113.336 68.6148 115.398 62.858C117.463 57.1013 132.277 56.7183 136.217 59.2125Z" fill="#331832"/>
<path d="M144.486 72.1597C144.486 72.1597 140.05 76.8363 141.589 81.6184C141.589 81.6184 139.017 78.8076 138.96 77.7569C138.904 76.7062 139.586 72.9182 139.586 72.9182L144.486 72.1597Z" fill="#331832"/>
<path d="M141.294 76.878C142.34 77.8772 143.803 77.9803 144.562 77.1063C145.32 76.2324 145.087 74.7177 144.041 73.7185C142.995 72.7194 141.532 72.6163 140.774 73.4902C140.015 74.3617 140.249 75.8789 141.294 76.878Z" fill="#D3766A"/>
<path d="M107.71 95.1251C107.737 95.1251 107.764 95.1202 107.788 95.1104C109.096 94.6047 109.875 93.9664 110.164 93.1612C110.606 91.9338 109.85 90.5885 109.052 89.1646C108.353 87.9175 107.629 86.6287 107.803 85.47C108.009 84.1051 109.803 83.7859 111.701 83.4472C113.301 83.1624 114.958 82.8678 115.614 81.8441C115.926 81.358 115.987 80.7394 115.798 80.0078C115.589 79.2002 115.332 78.476 115.084 77.7763C114.016 74.7691 113.174 72.3952 117.887 66.9551C123.933 59.9807 128.941 59.6444 133.453 60.3195C133.98 60.3981 135.316 61.0879 135.308 61.6992C135.303 62.0158 134.874 62.8039 130.961 63.2948C130.885 63.3096 125.401 64.5886 122.762 70.5074C121.356 73.6595 123.354 77.0325 124.959 79.7452C126.037 81.5642 126.967 83.1354 126.677 84.1885C126.572 84.5715 126.304 84.8735 125.858 85.1165C124.763 85.7106 123.535 86.0444 122.35 86.3636C119.296 87.1884 116.139 88.0427 115.741 93.5442C115.732 93.6645 115.825 93.77 115.945 93.7799C116.068 93.7921 116.171 93.6964 116.181 93.5761C116.554 88.3864 119.426 87.6107 122.465 86.7883C123.675 86.4593 124.93 86.123 126.069 85.5019C126.616 85.2049 126.965 84.7998 127.102 84.3039C127.443 83.0691 126.469 81.4243 125.34 79.5193C123.705 76.76 121.851 73.63 123.165 70.6866C125.715 64.9691 130.986 63.7392 131.037 63.7294C134.189 63.3341 135.738 62.6713 135.748 61.7065C135.76 60.7344 134.096 59.9734 133.516 59.8874C128.882 59.1927 123.739 59.5339 117.556 66.6703C112.673 72.3019 113.554 74.7838 114.669 77.9261C114.914 78.6159 115.167 79.3303 115.371 80.1208C115.53 80.7369 115.489 81.2255 115.241 81.6084C114.688 82.4701 113.127 82.7475 111.62 83.0151C109.651 83.3662 107.616 83.727 107.363 85.4062C107.167 86.7122 107.928 88.0697 108.664 89.3807C109.413 90.7137 110.12 91.973 109.747 93.0139C109.504 93.6915 108.809 94.2438 107.626 94.7004C107.513 94.7446 107.457 94.8723 107.501 94.9852C107.538 95.0711 107.621 95.1251 107.71 95.1251Z" fill="white"/>
<path d="M143.205 70.5714C143.208 70.5714 143.208 70.5714 143.21 70.5714C147.386 70.4831 149.46 67.196 149.546 67.056C149.61 66.9529 149.578 66.8179 149.475 66.7541C149.372 66.6903 149.237 66.7222 149.173 66.8253C149.153 66.8572 147.131 70.0486 143.2 70.132C143.08 70.1345 142.982 70.2351 142.984 70.3554C142.987 70.4757 143.085 70.5714 143.205 70.5714Z" fill="white"/>
<path d="M125.455 153.717L125.566 153.425C125.48 153.393 123.432 152.639 122.301 153.444L122.48 153.699C123.479 152.99 125.436 153.709 125.455 153.717Z" fill="#E9845C"/>
<path d="M124.192 157.009L124.308 156.719C124.224 156.687 122.255 155.924 120.461 156.721L120.589 157.006C122.263 156.262 124.173 157.001 124.192 157.009Z" fill="#E9845C"/>
<path d="M123.213 159.873L123.323 159.581C123.22 159.542 120.805 158.651 119.668 159.608L119.869 159.846C120.866 159.007 123.188 159.866 123.213 159.873Z" fill="#E9845C"/>
<path d="M177.462 170.474C177.462 170.474 169.219 169.327 156.839 170.243C137.665 171.659 121.383 176.1 121.383 176.1L127.468 177.124L165.578 178.634L173.249 172.342L177.462 170.474Z" fill="#68A1BF"/>
<path d="M150.182 75.27C150.244 75.2528 150.298 75.2086 150.322 75.1448C150.366 75.0368 150.312 74.9165 150.207 74.8723C150.143 74.8478 148.729 74.1211 147.487 75.4787C147.408 75.5646 147.411 75.6947 147.494 75.7757C147.578 75.8567 147.695 75.8322 147.791 75.7684C148.756 75.1203 149.996 75.243 150.05 75.2626C150.094 75.2798 150.14 75.2823 150.182 75.27Z" fill="#080435"/>
<path d="M148.52 77.5774C148.505 78.0782 148.785 78.4931 149.149 78.5054C149.512 78.5176 149.819 78.1199 149.836 77.6191C149.851 77.1183 149.571 76.7035 149.207 76.6912C148.844 76.6789 148.537 77.0766 148.52 77.5774Z" fill="#080435"/>
<path d="M157.678 76.3649C157.742 76.3723 157.808 76.3527 157.854 76.3036C157.935 76.2201 157.933 76.0875 157.85 76.0065C157.8 75.9599 156.772 74.7472 155.105 75.5303C155 75.5794 154.95 75.7021 155 75.8077C155.046 75.9132 155.164 75.9378 155.277 75.9132C156.416 75.68 157.516 76.2667 157.557 76.306C157.592 76.3404 157.634 76.36 157.678 76.3649Z" fill="#080435"/>
<path d="M155.263 77.8648C155.056 78.3214 155.159 78.8124 155.491 78.9622C155.822 79.1119 156.259 78.8615 156.463 78.4049C156.669 77.9483 156.566 77.4573 156.235 77.3076C155.903 77.1578 155.469 77.4082 155.263 77.8648Z" fill="#080435"/>
<path d="M165.176 106.237L164.789 106.445L169.021 114.357L169.409 114.149L165.176 106.237Z" fill="#331832"/>
<path d="M276.233 186.791C267.249 187.405 263.581 190.238 263.581 190.238C264.777 199.392 263.304 196.861 260.358 203.364C257.413 209.867 264.185 214.121 263.581 215.759C255.613 221.16 242.949 233.771 242.949 233.771C248.185 240.904 259.376 234.566 259.376 234.566C293.908 226.421 304.218 216.741 298.326 209.538C292.435 202.338 276.233 186.791 276.233 186.791Z" fill="#DB9C00"/>
<path d="M499.098 290.163C499.098 290.163 481.443 290.715 479.268 286.767C471.266 272.244 479.582 238.568 489.031 230.143C498.479 221.715 505.468 236.417 505.468 236.417L499.098 290.163Z" fill="#331832"/>
<path d="M507.707 241.467C507.707 241.467 504.479 229.61 497.304 233.314C490.129 237.019 490.487 289.946 499.099 290.162C507.71 290.378 511.296 258.141 507.707 241.467Z" fill="#764678"/>
<path d="M505.298 245.942C505.298 245.942 503.337 236.748 498.975 239.623C494.615 242.495 494.833 283.529 500.065 283.696C505.298 283.861 507.478 258.87 505.298 245.942Z" fill="#92A5E6"/>
<path d="M430.727 306.446C430.727 306.446 407.115 308.024 404.675 302.93C396.935 286.762 389.269 242.776 416.499 228.5C440.065 216.147 446.46 247.415 446.46 247.415L430.727 306.446Z" fill="#331832"/>
<path d="M442.149 246.392C442.149 246.392 437.866 231.768 428.349 236.339C418.829 240.908 419.305 306.181 430.727 306.449C442.149 306.714 446.907 266.957 442.149 246.392Z" fill="#764678"/>
<path d="M438.948 251.91C438.948 251.91 436.346 240.573 430.561 244.116C424.775 247.658 425.064 298.261 432.006 298.47C438.948 298.676 441.843 267.852 438.948 251.91Z" fill="#92A5E6"/>
<path d="M286.809 249.374C286.809 249.374 285.852 246.561 283.839 244.008V244.005C283.839 244.005 274.565 228.38 262.031 237.335C249.497 246.291 253.933 294.13 256.633 298.404C259.333 302.678 275.39 301.131 275.39 301.131C286.809 301.364 291.569 267.099 286.809 249.374Z" fill="#331832"/>
<path d="M279.618 180.185C279.618 180.185 271.868 183.396 263.579 190.238C270.771 192.997 263.498 203.033 266.357 206.936C285.595 207.221 277.799 222.447 244.019 233.307C244.019 233.307 240.403 233.864 239.014 241.094C237.624 248.326 244.854 282.255 250.139 283.09C255.424 283.925 407.545 288.375 411.439 286.149C415.332 283.925 419.225 278.639 418.948 265.847C418.67 253.054 422.183 226.404 433.409 227.533C443.007 228.498 445.307 260.198 443.007 280.171C441.865 290.074 455.936 276.135 468.173 275.023C480.41 273.911 488.432 275.757 488.992 268.802C489.549 261.85 487.765 232.161 498.349 231.699C508.35 231.262 509.087 251.756 509.087 251.756C510.199 250.366 511.559 234.552 508.5 227.531C505.441 220.51 509.889 191.863 502.66 187.692C495.428 183.522 500.713 140.411 459.275 132.069C417.836 123.725 333.571 126.877 317.164 136.009C300.756 145.142 279.618 180.185 279.618 180.185Z" fill="#FBC02D"/>
<path d="M279.618 180.185C279.618 180.185 271.868 183.396 263.579 190.238C270.771 192.997 263.498 203.033 266.357 206.936C285.595 207.221 277.799 222.447 244.019 233.307C244.019 233.307 240.403 233.864 239.014 241.094C237.624 248.326 244.854 282.255 250.139 283.09C255.424 283.925 407.545 288.375 411.439 286.149C415.332 283.925 419.225 278.639 418.948 265.847C418.67 253.054 422.183 226.404 433.409 227.533C443.007 228.498 445.307 260.198 443.007 280.171C441.865 290.074 455.936 276.135 468.173 275.023C480.41 273.911 488.432 275.757 488.992 268.802C489.549 261.85 487.765 232.161 498.349 231.699C508.35 231.262 509.087 251.756 509.087 251.756C510.199 250.366 511.559 234.552 508.5 227.531C505.441 220.51 509.889 191.863 502.66 187.692C495.428 183.522 500.713 140.411 459.275 132.069C417.836 123.725 333.571 126.877 317.164 136.009C300.756 145.142 279.618 180.185 279.618 180.185Z" fill="#FBC02D"/>
<path d="M349.092 228.648H290.755C287.986 228.648 285.381 227.57 283.422 225.611L282.239 224.428C280.7 222.888 278.655 222.042 276.48 222.042H271.129V219.817H276.48C279.249 219.817 281.854 220.895 283.813 222.854L284.996 224.037C286.535 225.577 288.58 226.424 290.755 226.424H349.092C350.457 226.424 351.81 226.077 353.007 225.42L360.899 221.091C362.424 220.257 364.147 219.815 365.885 219.815H373.703V222.039H365.885C364.52 222.039 363.168 222.385 361.97 223.043L354.078 227.371C352.551 228.206 350.828 228.648 349.092 228.648Z" fill="#331832"/>
<path d="M431.534 135.103C434.168 135.346 435.999 137.833 435.474 140.426C434.554 144.965 433.304 152.477 433.132 160.438C432.855 173.23 439.529 181.02 418.394 182.409C397.258 183.799 281.885 184.302 282.719 180.409C283.554 176.515 312.714 139.392 321.055 136.797C328.464 134.494 410.166 133.137 431.534 135.103Z" fill="#263238" fill-opacity="0.72"/>
<path d="M263.58 266.218C263.58 269.905 260.872 273.82 256.675 273.82C252.477 273.82 249.77 269.905 249.77 266.218C249.77 262.53 253.172 259.079 257.372 259.079C261.567 259.079 263.58 262.533 263.58 266.218Z" fill="#331832"/>
<path d="M396.932 266.218C396.932 269.905 394.224 273.82 390.026 273.82C385.829 273.82 383.121 269.905 383.121 266.218C383.121 262.53 386.523 259.079 390.724 259.079C394.919 259.079 396.932 262.533 396.932 266.218Z" fill="#331832"/>
<path d="M239.017 241.094C239.017 241.094 238.276 246.934 249.772 248.464C261.267 249.993 271.278 247.212 274.059 256.668C276.84 266.124 271.278 275.023 289.632 277.527C307.986 280.031 354.912 282.813 357.592 275.303C360.27 267.794 354.71 255.279 366.39 253.054C378.07 250.83 404.768 253.612 411.165 249.996C417.562 246.38 417.839 241.931 413.946 238.87C410.053 235.811 264.881 236.089 256.677 236.089C248.473 236.089 239.015 235.254 239.017 241.094Z" fill="#331832"/>
<path d="M286.85 246.929L350.536 243.431V258.06H285.598L286.85 246.929Z" fill="#DAEBE8"/>
<path d="M477.098 198.676C477.778 201.116 476.982 203.472 475.318 203.936C473.654 204.4 471.751 202.797 471.071 200.357C470.391 197.917 471.187 195.56 472.851 195.096C474.518 194.63 476.418 196.233 477.098 198.676Z" fill="#331832"/>
<path d="M500.418 196.044C501.098 198.484 500.302 200.841 498.638 201.305C496.974 201.769 495.071 200.166 494.391 197.726C493.712 195.286 494.507 192.929 496.171 192.465C497.835 191.999 499.738 193.602 500.418 196.044Z" fill="#331832"/>
<path d="M491.664 179.26C491.664 179.26 491.811 157.937 479.761 149.222C467.71 140.507 450.282 136.613 446.946 139.208C443.61 141.803 443.052 175.921 446.018 179.258C448.983 182.596 488.551 182.596 491.664 179.26Z" fill="#263238" fill-opacity="0.72"/>
<path d="M454.548 188.39C454.548 188.39 449.125 183.244 451.907 174.623C454.688 166.001 476.101 171.841 478.327 176.152C480.551 180.463 471.792 187.833 465.95 189.085C460.11 190.337 461.362 200.905 456.912 200.348C452.461 199.79 448.929 196.732 451.114 194.785C453.296 192.841 457.329 190.059 454.548 188.39Z" fill="#DB9C00"/>
<path d="M394.521 222.49C401.485 216.856 404.144 208.596 400.459 204.04C396.774 199.484 388.141 200.357 381.176 205.991C374.212 211.625 371.554 219.885 375.239 224.441C378.924 228.997 387.557 228.123 394.521 222.49Z" fill="white"/>
<path d="M424.556 156.274C424.556 156.274 428.098 142.996 426.13 140.703C424.163 138.408 406.953 136.932 406.953 139.228C406.953 141.523 413.721 142.831 415.501 147.177C417.28 151.522 423.557 160.519 424.556 156.274Z" fill="#DB9C00"/>
<path d="M266.864 195.786C267.706 195.909 268.587 196.069 269.523 196.285C269.523 196.285 269.523 198.985 269.032 203.367C269.032 203.367 274.462 203.716 278.075 210.032C278.075 210.032 281.183 223.532 282.717 211.505C284.251 199.478 306.837 211.259 305.855 209.05C305.855 209.05 292.6 201.194 281.308 204.386C272.471 204.14 269.525 203.158 278.362 198.003C278.362 198.003 273.207 190.147 263.582 190.241C266.309 191.286 266.955 193.378 266.864 195.786Z" fill="#DB9C00"/>
<path d="M257.739 229.561C264.612 231.414 262.403 233.108 269.031 234.569C275.659 236.029 285.478 233.844 294.07 230.899C302.661 227.953 283.269 229.671 275.168 229.671C269.213 229.671 270.023 226.089 264.436 224.663C259.259 227.616 252.449 230.597 244.022 233.307C244.022 233.307 243.58 233.376 242.949 233.771C253.441 237.137 250.866 227.707 257.739 229.561Z" fill="#DB9C00"/>
<path d="M274.129 214.257L272.221 218.624L267.68 216.493L269.153 218.624C269.153 218.624 268.294 221.57 267.68 221.202C267.066 220.834 262.034 217.642 262.402 218.133C262.771 218.624 264.734 221.234 264.734 221.234L263.578 222.675L261.011 223.657L258.843 222.306L257.461 224.653C260.404 226.36 263.61 227.376 266.62 227.376C278.174 227.373 274.129 214.257 274.129 214.257Z" fill="white"/>
<path d="M238.843 291.78C238.593 292.762 227.301 309.21 227.301 309.21C227.301 309.21 242.886 307.092 242.95 306.677C243.011 306.264 238.843 291.78 238.843 291.78Z" fill="white"/>
<path d="M253.612 305.037C254.302 305.773 261.666 318.539 249.638 320.503C237.609 322.466 244.974 315.593 244.974 315.593C250.865 315.347 250.865 315.347 250.865 315.347C248.41 310.683 247.183 306.676 247.183 306.676L253.612 305.037Z" fill="white"/>
<path d="M246.939 298.899H252.585V303.318L245.957 301.406L246.939 298.899Z" fill="white"/>
<path d="M219.691 320.856L228.774 318.048C228.774 318.048 231.518 321.904 227.301 320.856C223.084 319.806 219.691 320.856 219.691 320.856Z" fill="white"/>
<path d="M217.726 310.683C217.726 310.683 213.553 297.284 217.726 301.406C221.899 305.528 221.899 305.528 221.899 305.528L217.726 310.683Z" fill="white"/>
<path d="M271.129 312.946L282.286 316.82L275.28 318.048L271.129 312.946Z" fill="white"/>
<path d="M258.475 321.035C257.738 321.975 249.27 325.658 249.27 325.658L260.93 323.348L258.475 321.035Z" fill="white"/>
<path d="M260.93 314.12L266.372 315.497L263.652 312.946L260.93 314.12Z" fill="white"/>
<path d="M282.287 308.228L280.323 310.683C280.323 310.683 277.132 309.701 278.113 309.455C279.095 309.21 283.268 306.676 283.268 306.676L282.287 308.228Z" fill="white"/>
<path d="M288.641 315.497L293.577 321.035V318.048L288.641 315.497Z" fill="white"/>
<path d="M263.582 306.676C263.879 307.246 269.586 306.676 269.586 306.676V309.21L263.582 306.676Z" fill="white"/>
<path d="M224.672 295.954L229.653 298.9V295.954H224.672Z" fill="white"/>
<path opacity="0.21" d="M254.61 211.976C241.73 198.413 250.972 174.053 254.61 166.199C262.885 148.338 255.567 127.576 248.348 120.423C273.576 135.209 264.714 156.647 256.451 173.363C244.948 196.626 254.61 211.976 254.61 211.976Z" fill="#ACC9C5"/>
<path d="M256.503 39.8504C255.305 17.6654 274.2 1.30343 296.17 0.11771C327.986 -1.60072 339.886 15.7923 341.084 37.9773C342.282 60.1623 317.919 77.2386 295.949 78.4243C273.976 79.6125 257.701 62.0354 256.503 39.8504Z" fill="#FBC02D"/>
<path d="M251.473 75.8343C251.473 75.8343 265.263 72.9154 265.502 58.9004L276.865 66.3756C276.865 66.3756 272.343 79.4872 251.473 75.8343Z" fill="#FBC02D"/>
<path d="M272.53 76.6225C266.245 81.9423 257.386 81.7459 251.031 80.6363L249.504 80.3687L251.021 80.0471C251.124 80.025 261.311 77.7567 264.1 68.2513C259.158 61.5248 256.294 53.2714 255.813 44.3724C255.243 33.8212 259.232 23.8862 267.048 16.3987C274.557 9.20586 284.754 4.91713 295.761 4.32305C310.743 3.51293 322.236 6.89579 329.927 14.3734C336.614 20.8765 340.337 30.3279 340.993 42.4674C341.553 52.8173 336.584 62.8848 327.006 70.8117C318.328 77.9923 306.58 82.6346 295.572 83.2287C287.155 83.6853 279.192 81.4022 272.53 76.6225ZM267.465 16.8308C259.777 24.1955 255.852 33.9636 256.414 44.338C256.89 53.1708 259.748 61.3579 264.672 68.0107L264.76 68.1285L264.721 68.2709C262.49 76.1364 255.405 79.2689 252.457 80.2533C258.611 81.142 266.621 80.9726 272.318 76.0137L272.498 75.8566L272.692 75.9965C279.28 80.786 287.182 83.0814 295.54 82.6272C306.422 82.038 318.041 77.4473 326.623 70.3478C336.051 62.5436 340.944 52.6528 340.394 42.4968C339.746 30.5144 336.083 21.1956 329.509 14.8006C321.944 7.44323 310.603 4.11929 295.796 4.91959C284.931 5.50877 274.869 9.73857 267.465 16.8308Z" fill="#2F1A31"/>
<path d="M289.54 53.4033C289.889 51.9145 288.966 50.4242 287.477 50.0745C285.988 49.7249 284.498 50.6485 284.149 52.1373C283.799 53.6261 284.722 55.1164 286.211 55.466C287.7 55.8156 289.19 54.8921 289.54 53.4033Z" fill="white"/>
<path d="M299.678 54.731C300.76 53.6496 300.76 51.8963 299.678 50.8149C298.597 49.7335 296.844 49.7335 295.763 50.8149C294.681 51.8963 294.681 53.6496 295.763 54.731C296.844 55.8124 298.597 55.8124 299.678 54.731Z" fill="white"/>
<path d="M309.703 55.3047C311.103 54.69 311.74 53.0565 311.125 51.6561C310.511 50.2556 308.877 49.6186 307.477 50.2333C306.077 50.8479 305.44 52.4815 306.054 53.8819C306.669 55.2823 308.302 55.9193 309.703 55.3047Z" fill="white"/>
</svg>
