<svg width="153" height="153" viewBox="0 0 153 153" fill="none" xmlns="http://www.w3.org/2000/svg">
<path d="M41.9225 13.8434L42.0541 14.0638C42.1995 14.3096 42.4117 14.5091 42.6661 14.639L42.8956 14.7523L42.6753 14.8838C42.4302 15.0293 42.2317 15.2416 42.103 15.4958L41.9868 15.7284L41.8552 15.5081C41.7097 15.2623 41.4975 15.0628 41.2432 14.9328L41.0137 14.8196L41.234 14.6849C41.48 14.5398 41.6796 14.3275 41.8093 14.0729L41.9225 13.8434Z" fill="#E0E0E0"/>
<path d="M74.3834 30.7499L74.515 30.9703C74.6604 31.2161 74.8727 31.4156 75.127 31.5455L75.3565 31.6588L75.1362 31.7903C74.8911 31.9367 74.6918 32.1487 74.5609 32.4023L74.4477 32.6318L74.3161 32.4146C74.1707 32.1687 73.9585 31.9693 73.7041 31.8393L73.4746 31.7261L73.6949 31.5914C73.9408 31.447 74.1396 31.2345 74.2671 30.9794L74.3834 30.7499Z" fill="#E0E0E0"/>
<path d="M18.5545 77.724L18.686 77.9443C18.8324 78.1894 19.0444 78.3887 19.298 78.5196L19.5306 78.6328L19.3103 78.7644C19.0652 78.9107 18.8659 79.1227 18.735 79.3764L18.6218 79.609L18.4871 79.3887C18.342 79.1426 18.1297 78.943 17.8751 78.8134L17.6426 78.7001L17.8629 78.5655C18.1089 78.4203 18.3085 78.208 18.4382 77.9535L18.5545 77.724Z" fill="#E0E0E0"/>
<path d="M106.078 136.862L106.213 137.082C106.358 137.328 106.571 137.527 106.825 137.657L107.058 137.77L106.837 137.905C106.591 138.05 106.392 138.262 106.262 138.517L106.149 138.75L106.017 138.529C105.871 138.284 105.659 138.085 105.405 137.954L105.176 137.841L105.396 137.706C105.64 137.559 105.838 137.347 105.968 137.094L106.078 136.862Z" fill="#E0E0E0"/>
<path d="M130.996 71.2643L131.302 71.7448C131.627 72.2851 132.099 72.7214 132.664 73.0024L133.169 73.2503L132.688 73.5563C132.148 73.8812 131.712 74.3536 131.431 74.918L131.183 75.4229L130.892 74.9425C130.568 74.4015 130.095 73.965 129.53 73.6848L129.025 73.4369L129.509 73.1462C130.048 72.8212 130.484 72.3487 130.763 71.7845L130.996 71.2643Z" fill="#E0E0E0"/>
<path d="M103.289 9.79199L103.579 10.2755C103.904 10.8156 104.376 11.2512 104.941 11.5301L105.446 11.7779L104.963 12.0839C104.423 12.409 103.988 12.8815 103.708 13.4456L103.46 13.9505L103.154 13.4701C102.829 12.9289 102.355 12.4924 101.789 12.2125L101.303 11.934L101.783 11.6433C102.324 11.3192 102.761 10.8466 103.041 10.2816L103.289 9.79199Z" fill="#E0E0E0"/>
<path d="M43.9605 129.542L44.2482 130.026C44.5736 130.566 45.0473 131.001 45.6129 131.28L46.1148 131.528L45.6344 131.819C45.0934 132.143 44.6578 132.617 44.3798 133.183L44.1288 133.685L43.8412 133.205C43.516 132.664 43.0422 132.229 42.4764 131.95L41.9746 131.699L42.455 131.412C42.9947 131.086 43.4299 130.612 43.7096 130.047L43.9605 129.542Z" fill="#E0E0E0"/>
<path d="M122.75 50.4716C122.75 50.4716 120.28 51.6956 117.052 53.602C113.117 55.9398 105.017 60.5329 99.8395 56.9037L95.0996 47.5983C95.0996 47.5983 98.1413 48.9936 102.771 48.3908C106.902 47.8553 110.207 45.6797 111.694 44.679C112.306 44.2721 113.089 43.7243 113.711 43.351C114.751 42.739 115.999 41.821 117.817 40.9275L122.75 50.4716Z" fill="#EBEBEB"/>
<path d="M110.141 55.6456C112.207 55.2836 113.603 53.4004 113.259 51.4395C112.916 49.4786 110.963 48.1824 108.897 48.5444C106.831 48.9065 105.435 50.7896 105.778 52.7505C106.122 54.7114 108.075 56.0076 110.141 55.6456Z" fill="#F5F5F5"/>
<path d="M108.284 50.6277L107.978 50.1565L108.354 49.9117L108.66 50.3737C109.008 50.1685 109.411 50.0755 109.814 50.1075L109.94 50.7562C109.623 50.7246 109.305 50.7841 109.022 50.9276L109.477 51.6314C109.967 51.4753 110.533 51.3254 110.922 51.9374C111.213 52.3842 111.17 52.9564 110.616 53.4154L110.922 53.8836L110.545 54.1253L110.239 53.6663C109.959 53.822 109.642 53.9021 109.321 53.8989L109.175 53.2593C109.422 53.2624 109.666 53.2101 109.891 53.1063L109.429 52.3903C108.942 52.5494 108.382 52.6963 108 52.0843C107.712 51.6528 107.746 51.102 108.284 50.6277ZM108.559 51.6498C108.654 51.7997 108.813 51.8089 109.018 51.766L108.642 51.1846C108.574 51.2385 108.527 51.3157 108.512 51.4015C108.497 51.4872 108.514 51.5756 108.559 51.6498ZM109.86 52.2618L110.246 52.8738C110.316 52.816 110.364 52.7343 110.378 52.6441C110.393 52.5538 110.374 52.4614 110.325 52.3842C110.23 52.2097 110.065 52.2036 109.854 52.2495L109.86 52.2618Z" fill="#EBEBEB"/>
<path d="M100.368 56.9527L100.43 56.9894C100.583 57.0812 104.276 59.1835 110.861 56.1877C113.321 55.0668 115.686 53.7476 117.933 52.2434C119.359 51.3254 120.381 50.6491 121.519 50.3492L121.825 50.2697L117.562 41.512L117.321 41.6833C117.25 41.7323 110.301 46.564 107.204 47.8309C104.756 48.8376 100.096 50.2789 96.5892 48.6724L95.916 48.3664L100.368 56.9527ZM107.388 48.3021C109.625 47.3841 113.692 44.7433 115.956 43.2164C116.166 43.5404 116.485 43.7783 116.856 43.8865C117.266 44.0004 117.705 43.95 118.08 43.7458L120.414 48.5408C120.227 48.6185 120.06 48.738 119.926 48.8902C119.791 49.0424 119.694 49.2233 119.64 49.419C119.544 49.7968 119.566 50.195 119.701 50.5604C119.089 50.897 118.425 51.3193 117.657 51.818C115.434 53.3108 113.091 54.6177 110.653 55.7257C107.345 57.2312 104.811 57.375 103.269 57.2312C102.866 57.1944 102.467 57.13 102.073 57.0384C101.956 56.5882 101.705 56.1842 101.353 55.8803C101.001 55.5763 100.565 55.3868 100.102 55.337L97.6143 50.5451C97.8683 50.5237 98.2018 50.3707 98.2661 49.7281C101.553 50.3492 105.264 49.1681 107.373 48.3021H107.388Z" fill="#F5F5F5"/>
<path d="M38.7869 18.7823C38.7869 18.7823 36.3175 20.0063 33.0892 21.9127C29.154 24.2474 21.0542 28.8436 15.8767 25.2144L11.1367 15.912C11.1367 15.912 14.1784 17.3043 18.8081 16.7045C22.9391 16.169 26.2439 13.9934 27.7311 12.9897C28.3431 12.5858 29.1265 12.035 29.7476 11.6617C30.788 11.0497 32.0365 10.1317 33.8542 9.24121L38.7869 18.7823Z" fill="#EBEBEB"/>
<path d="M26.1783 23.9498C28.2441 23.5878 29.6401 21.7046 29.2965 19.7437C28.9529 17.7828 26.9996 16.4866 24.9338 16.8486C22.868 17.2107 21.4719 19.0938 21.8156 21.0547C22.1592 23.0156 24.1125 24.3118 26.1783 23.9498Z" fill="#F5F5F5"/>
<path d="M24.3213 18.9383L24.0153 18.464L24.3916 18.2223L24.6976 18.6844C25.0451 18.4778 25.4484 18.3847 25.8513 18.4181L25.9767 19.0669C25.661 19.0356 25.3428 19.0939 25.0587 19.2352L25.5147 19.942C26.0043 19.786 26.5704 19.636 26.959 20.248C27.1124 20.4846 27.1664 20.7722 27.1091 21.0484C27.0518 21.3245 26.8879 21.5669 26.653 21.7229L26.959 22.1911L26.5826 22.4359L26.2766 21.9739C25.9961 22.1305 25.6798 22.2116 25.3586 22.2095L25.2117 21.5699C25.4587 21.5716 25.703 21.5194 25.9278 21.4169L25.4657 20.7009C24.9792 20.86 24.4192 21.0069 24.0367 20.3949C23.7399 19.9634 23.7827 19.3973 24.3213 18.9383ZM24.5967 19.9604C24.6915 20.1073 24.8506 20.1195 25.0557 20.0767L24.6793 19.4953C24.6108 19.5491 24.5646 19.6263 24.5494 19.7121C24.5341 19.7978 24.551 19.8862 24.5967 19.9604ZM25.8972 20.5724L26.2827 21.1844C26.3533 21.1258 26.4003 21.0435 26.4149 20.953C26.4295 20.8624 26.4108 20.7696 26.3623 20.6917C26.2674 20.5204 26.1022 20.502 25.8972 20.5601V20.5724Z" fill="#EBEBEB"/>
<path d="M16.3912 25.2634L16.4524 25.3001C16.6054 25.3919 20.2988 27.4941 26.8839 24.4984C29.3477 23.3768 31.7168 22.0577 33.9678 20.5541C35.3938 19.6361 36.4158 18.9598 37.5541 18.6599L37.8601 18.5804L33.5761 9.82263L33.3344 9.99399C33.264 10.043 26.3178 14.8716 23.218 16.1415C20.77 17.1483 16.1096 18.5895 12.6029 16.983L11.9297 16.677L16.3912 25.2634ZM23.4108 16.6128C25.6477 15.6948 29.7144 13.054 31.9788 11.5271C32.1971 11.8676 32.5372 12.112 32.9296 12.2104C33.3219 12.3087 33.737 12.2537 34.0902 12.0564L36.425 16.8515C36.2373 16.9288 36.0699 17.0481 35.9356 17.2004C35.8014 17.3527 35.704 17.5338 35.6508 17.7297C35.5546 18.1065 35.576 18.5037 35.712 18.868C35.1 19.2077 34.436 19.6299 33.6679 20.1287C31.4474 21.621 29.1078 22.928 26.6728 24.0363C23.3649 25.5419 20.8312 25.6857 19.2798 25.5388C18.8771 25.5029 18.4774 25.4395 18.0833 25.3491C17.9672 24.8983 17.7163 24.4936 17.3642 24.1891C17.0121 23.8846 16.5755 23.6946 16.1127 23.6447L13.6341 18.8527C13.8881 18.8343 14.2216 18.6813 14.2859 18.0357C17.5907 18.666 21.2933 17.4788 23.4108 16.6128Z" fill="#F5F5F5"/>
<path d="M126.644 124.282C126.644 124.282 124.175 125.506 120.947 127.412C117.014 129.744 108.912 134.334 103.734 130.714L98.9941 121.409C98.9941 121.409 102.036 122.804 106.666 122.204C110.797 121.666 114.101 119.49 115.589 118.489C116.201 118.082 116.984 117.535 117.605 117.161C118.645 116.549 119.894 115.631 121.712 114.738L126.644 124.282Z" fill="#EBEBEB"/>
<path d="M109.675 126.559C109.332 124.597 110.727 122.715 112.793 122.351C114.858 121.987 116.811 123.287 117.153 125.249C117.496 127.21 116.101 129.092 114.035 129.453C111.97 129.814 110.018 128.52 109.675 126.559Z" fill="#F5F5F5"/>
<path d="M112.18 124.438L111.874 123.967L112.25 123.725L112.556 124.184C112.904 123.979 113.307 123.886 113.71 123.918L113.835 124.566C113.519 124.537 113.201 124.596 112.917 124.738L113.373 125.442C113.863 125.286 114.432 125.136 114.821 125.748C115.108 126.197 115.066 126.767 114.515 127.226L114.821 127.694L114.444 127.936L114.138 127.477C113.857 127.632 113.541 127.712 113.22 127.709L113.073 127.07C113.32 127.073 113.565 127.022 113.79 126.92L113.327 126.201C112.841 126.36 112.281 126.507 111.898 125.895C111.599 125.46 111.641 124.9 112.18 124.438ZM112.455 125.463C112.55 125.61 112.712 125.619 112.914 125.579L112.538 124.995C112.471 125.05 112.426 125.127 112.411 125.212C112.396 125.297 112.412 125.385 112.455 125.46V125.463ZM113.756 126.075L114.144 126.672C114.214 126.613 114.261 126.531 114.275 126.441C114.289 126.351 114.27 126.259 114.221 126.182C114.138 126.023 113.961 126.014 113.756 126.072V126.075Z" fill="#EBEBEB"/>
<path d="M104.249 130.763L104.31 130.8C104.466 130.891 108.157 132.994 114.742 130.001C117.202 128.879 119.567 127.559 121.814 126.054C123.24 125.136 124.262 124.459 125.4 124.159L125.706 124.08L121.443 115.325L121.199 115.494C121.128 115.543 114.182 120.374 111.082 121.641C108.634 122.648 103.974 124.089 100.467 122.483L99.7969 122.177L104.249 130.763ZM111.269 122.112C113.506 121.194 117.572 118.554 119.837 117.027C120.055 117.367 120.395 117.612 120.788 117.71C121.18 117.808 121.595 117.753 121.948 117.556L124.283 122.351C124.096 122.429 123.929 122.549 123.795 122.701C123.661 122.853 123.563 123.034 123.509 123.229C123.414 123.607 123.436 124.006 123.573 124.371C122.961 124.71 122.294 125.133 121.529 125.628C119.303 127.12 116.96 128.428 114.522 129.539C111.214 131.041 108.68 131.185 107.138 131.041C106.736 131.005 106.337 130.94 105.944 130.849C105.827 130.399 105.576 129.995 105.224 129.691C104.872 129.388 104.436 129.198 103.974 129.147L101.486 124.355C101.74 124.337 102.07 124.184 102.135 123.538C105.452 124.159 109.151 122.981 111.269 122.112Z" fill="#F5F5F5"/>
<path d="M34.4166 95.5332C34.4166 95.5332 31.9503 96.7572 28.722 98.6636C24.7868 100.998 16.687 105.594 11.5095 101.965L6.76953 92.6599C6.76953 92.6599 9.81117 94.0552 14.4409 93.4524C18.5689 92.9169 21.8767 90.7413 23.3639 89.7376C23.9759 89.3337 24.7562 88.7829 25.3804 88.4126C26.4208 87.8006 27.6663 86.8826 29.487 85.9891L34.4166 95.5332Z" fill="#EBEBEB"/>
<path d="M17.4424 97.8099C17.0997 95.8484 18.495 93.9634 20.5605 93.6023C22.626 93.2413 24.5783 94.5356 24.9241 96.4971C25.2699 98.4586 23.8684 100.344 21.809 100.705C19.7496 101.066 17.7912 99.7713 17.4424 97.8099Z" fill="#F5F5F5"/>
<path d="M19.9515 95.6892L19.6455 95.2149L20.0219 94.9732L20.3279 95.4353C20.6759 95.23 21.0787 95.137 21.4815 95.169L21.6039 95.8178C21.2882 95.7862 20.9699 95.8445 20.6859 95.9861L21.1296 96.696C21.6223 96.5399 22.1884 96.39 22.577 97.002C22.8646 97.4487 22.8218 98.021 22.271 98.48L22.577 98.9481L22.2006 99.1899L21.8946 98.7278C21.6145 98.8854 21.298 98.9666 20.9766 98.9634L20.8328 98.3239C21.0798 98.3256 21.3241 98.2734 21.5488 98.1709L21.0868 97.4549C20.5972 97.614 20.0403 97.7609 19.6547 97.1489C19.3732 96.7143 19.413 96.1482 19.9515 95.6892ZM20.2269 96.7113C20.3248 96.8582 20.484 96.8704 20.6859 96.8276L20.3126 96.2462C20.2442 96.3 20.1978 96.377 20.182 96.4626C20.1662 96.5482 20.1822 96.6366 20.2269 96.7113ZM21.5305 97.3233L21.916 97.9353C21.9873 97.877 22.0345 97.7945 22.0486 97.7036C22.0627 97.6127 22.0427 97.5197 21.9925 97.4426C21.8977 97.2713 21.7263 97.2651 21.5305 97.308V97.3233Z" fill="#EBEBEB"/>
<path d="M12.0209 102.014L12.0852 102.051C12.2382 102.143 15.9316 104.245 22.5167 101.249C24.9768 100.129 27.3419 98.8112 29.5884 97.308C31.0143 96.39 32.0364 95.7137 33.1747 95.4139L33.4807 95.3343L29.2089 86.5735L28.9672 86.7449C28.8968 86.7939 21.9476 91.6225 18.8508 92.8924C16.4028 93.8992 11.7425 95.3404 8.2357 93.7339L7.5625 93.4279L12.0209 102.014ZM19.0436 93.3637C21.2805 92.4457 25.3472 89.8049 27.6116 88.278C27.8305 88.6187 28.1711 88.8632 28.564 88.9616C28.9569 89.0599 29.3725 89.0048 29.7261 88.8073L32.0578 93.6024C31.8706 93.6798 31.7036 93.7993 31.5699 93.9516C31.4362 94.1039 31.3393 94.2849 31.2867 94.4806C31.1891 94.8583 31.2104 95.2569 31.3479 95.6219C30.7359 95.9585 30.0719 96.3808 29.3038 96.8796C27.0803 98.3723 24.7376 99.6793 22.2995 100.787C18.9916 102.293 16.4579 102.437 14.9126 102.293C14.5109 102.256 14.1122 102.191 13.7192 102.1C13.6023 101.65 13.3512 101.245 12.9992 100.941C12.6473 100.637 12.2111 100.446 11.7486 100.396L9.2608 95.6036C9.51478 95.5852 9.84526 95.4322 9.91258 94.7866C13.2235 95.4108 16.923 94.2296 19.0436 93.3637Z" fill="#F5F5F5"/>
<path d="M110.566 97.0602C110.566 97.0602 115.294 91.5185 124.587 95.0865C124.939 95.2245 125.304 95.327 125.677 95.3925C126.736 95.6019 127.831 95.5237 128.85 95.166C130.658 94.4377 133.235 93.3759 133.235 93.3759L141.191 98.0883C141.191 98.0883 137.852 100.536 134.621 100.726C131.39 100.916 127.583 98.278 123.862 99.196C121.978 99.6044 120.267 100.588 118.966 102.011L110.566 97.0602Z" fill="#EBEBEB"/>
<path d="M129.745 98.2811C129.387 98.5871 127.233 98.3055 124.932 97.6232C122.631 96.9408 121.052 96.1268 121.41 95.8055C121.768 95.4842 123.925 95.778 126.226 96.4634C128.528 97.1489 130.116 97.9598 129.745 98.2811Z" fill="#F5F5F5"/>
<path d="M126.546 97.6568L126.693 97.8129L126.21 97.7058L126.066 97.5558C125.623 97.455 125.185 97.3293 124.756 97.1794L124.863 97.0693C125.201 97.1903 125.545 97.2924 125.894 97.3753L125.677 97.1458C125.105 96.9897 124.453 96.8061 124.27 96.6072C124.129 96.4634 124.383 96.4175 125.123 96.5613L124.979 96.4083L125.463 96.5154L125.607 96.6654C125.977 96.7541 126.356 96.8581 126.669 96.9714L126.586 97.0876C126.301 96.9928 126.029 96.9163 125.778 96.8551L126.002 97.0876C126.571 97.2437 127.226 97.4243 127.397 97.617C127.532 97.7547 127.296 97.7976 126.546 97.6568ZM125.484 96.9408L125.298 96.7449C125.059 96.7051 124.992 96.7235 125.038 96.7694C125.175 96.8527 125.326 96.9107 125.484 96.9408ZM126.632 97.4579C126.497 97.3752 126.349 97.3172 126.194 97.2865L126.375 97.4763C126.601 97.513 126.684 97.5007 126.632 97.4579Z" fill="#EBEBEB"/>
<path d="M133.129 93.942L133.044 93.9849C131.549 94.7202 129.991 95.3203 128.389 95.778C127.279 96.0595 126.758 95.9708 125.81 95.8056C125.626 95.775 125.427 95.7382 125.198 95.7046C124.644 95.5892 124.098 95.4369 123.564 95.2486C122.361 94.86 120.865 94.3796 119.368 94.3306H119.341C119.298 94.3306 115.176 93.9787 111.835 96.6685L111.633 96.8276L118.787 101.158L118.885 101.069C118.925 101.032 122.762 97.5651 127.949 98.8717C128.561 99.0247 129.133 99.1777 129.668 99.3184C133.873 100.429 135.981 100.986 140.204 98.4494L140.464 98.2933L133.129 93.942ZM129.763 98.9574C129.228 98.8135 128.656 98.6514 128.041 98.5075C124.512 97.6201 121.59 98.8625 119.984 99.8325C119.627 99.6123 119.208 99.5141 118.791 99.5528C118.374 99.5914 117.98 99.7648 117.67 100.047L113.487 97.513C114.295 96.8092 113.824 96.2003 113.548 95.9494C115.328 95.0246 117.319 94.5845 119.323 94.6734C120.791 94.7162 122.275 95.1905 123.466 95.573C124.017 95.7685 124.582 95.925 125.155 96.0412L125.767 96.1422C126.731 96.3105 127.312 96.4114 128.496 96.1116C129.692 95.782 130.861 95.3637 131.994 94.86C132.3 95.1201 133.08 95.6097 134.252 95.0222L138.521 97.5467C138.215 97.6997 137.722 98.0914 138.484 98.9512C135.342 100.435 133.316 99.9029 129.745 98.9635L129.763 98.9574Z" fill="#F5F5F5"/>
<path d="M38.5567 57.4944C38.5567 57.4944 38.4802 50.2085 47.8315 46.7844C48.1887 46.6583 48.5322 46.4963 48.8566 46.3009C49.7928 45.7708 50.5687 44.998 51.1027 44.064C51.9901 42.3259 53.2447 39.8351 53.2447 39.8351L62.342 38.1552C62.342 38.1552 61.424 42.1852 59.1229 44.4618C56.8218 46.7385 52.1981 47.2495 50.0011 50.3676C48.8511 51.9146 48.2096 53.7803 48.1651 55.7073L38.5567 57.4944Z" fill="#EBEBEB"/>
<path d="M53.8314 45.8051C53.7733 46.2825 51.9526 47.4759 49.7678 48.4734C47.5829 49.471 45.8632 49.8933 45.9214 49.4159C45.9795 48.9386 47.8002 47.7421 49.985 46.7476C52.1699 45.7531 53.8896 45.3278 53.8314 45.8051Z" fill="#F5F5F5"/>
<path d="M51.0029 47.4453L51.2171 47.4667L50.7826 47.7023L50.5745 47.684C50.1766 47.8974 49.7681 48.0905 49.3505 48.2623V48.1093C49.6835 47.9765 50.0093 47.8264 50.3266 47.6595L50.0206 47.6289C49.4851 47.889 48.8762 48.1766 48.6069 48.1491C48.4049 48.1307 48.5671 47.9318 49.2189 47.5524L49.0078 47.534L49.4423 47.2953L49.6473 47.3137C49.987 47.1362 50.3419 46.9679 50.6479 46.8425V46.9832C50.3695 47.0995 50.1124 47.2219 49.8829 47.3382L50.2042 47.3688C50.7367 47.1117 51.3364 46.8272 51.6057 46.8516C51.8107 46.8731 51.6516 47.0689 51.0029 47.4453ZM49.733 47.6013L49.4637 47.5769C49.2556 47.7054 49.2189 47.7605 49.2832 47.7666C49.4415 47.7377 49.5936 47.6818 49.733 47.6013ZM50.9356 47.2372C50.7797 47.2646 50.6296 47.3185 50.4919 47.3963L50.755 47.4208C50.9509 47.3015 50.9968 47.2433 50.9356 47.2372Z" fill="#EBEBEB"/>
<path d="M53.5298 40.3247L53.4931 40.4135C52.8445 41.9456 52.0611 43.4171 51.1522 44.8107C50.5004 45.7532 50.0475 46.0347 49.2244 46.5273L48.7011 46.8333C48.2081 47.1103 47.6969 47.3536 47.1711 47.5616C46.0083 48.0604 44.567 48.6816 43.4073 49.6302L43.3798 49.6516C43.3461 49.6761 40.0138 52.121 39.2549 56.3438L39.209 56.5978L47.4312 55.178L47.4465 55.0433C47.4465 54.9913 48.0585 49.8566 52.8352 47.4331C53.4013 47.1455 53.9306 46.8854 54.4264 46.6406C58.337 44.7158 60.2832 43.758 61.8132 39.064L61.9081 38.7794L53.5298 40.3247ZM54.2795 46.3193C53.7838 46.5641 53.2513 46.8272 52.6883 47.1149C49.4447 48.7642 48.0554 51.6192 47.4863 53.4062C47.0727 53.4739 46.6925 53.6745 46.4032 53.9777C46.1139 54.2808 45.9312 54.6699 45.8828 55.0862L41.0633 55.9246C41.2102 54.8658 40.4513 54.7159 40.0841 54.7006C40.8165 52.8342 42.0282 51.1939 43.597 49.9454C44.7323 49.0121 46.1613 48.3939 47.3119 47.9013C47.8561 47.6863 48.3847 47.4338 48.8939 47.1455C49.0836 47.0261 49.255 46.9221 49.4141 46.8395C50.2495 46.3315 50.7544 46.0255 51.449 45.0218C52.142 43.9854 52.7558 42.898 53.285 41.769C53.6797 41.769 54.5977 41.6191 55.0934 40.4073L59.9772 39.5016C59.8364 39.8076 59.7324 40.4196 60.8707 40.5848C59.457 43.758 57.5812 44.6913 54.2795 46.3193Z" fill="#F5F5F5"/>
<path d="M106.303 25.8111C106.303 25.8111 110.773 20.0491 120.217 23.1703C120.575 23.2912 120.944 23.3773 121.318 23.4274C122.385 23.5874 123.476 23.4574 124.476 23.051C126.248 22.237 128.76 21.0528 128.76 21.0528L136.939 25.3796C136.939 25.3796 133.72 27.9684 130.513 28.3295C127.307 28.6906 123.353 26.2211 119.696 27.3013C117.831 27.8033 116.169 28.8727 114.938 30.3613L106.303 25.8111Z" fill="#EBEBEB"/>
<path d="M125.533 26.111C125.19 26.4476 123.02 26.2579 120.689 25.6856C118.357 25.1134 116.744 24.376 117.087 24.0394C117.43 23.7028 119.596 23.8925 121.928 24.4647C124.26 25.0369 125.875 25.7744 125.533 26.111Z" fill="#F5F5F5"/>
<path d="M122.293 25.6428L122.446 25.7897L121.96 25.704L121.81 25.5602C121.362 25.4841 120.918 25.3819 120.482 25.2542L120.583 25.141C120.889 25.2297 121.268 25.3246 121.629 25.3949L121.4 25.1746C120.822 25.0461 120.176 24.8962 119.968 24.7064C119.821 24.5687 120.072 24.5106 120.822 24.6208L120.669 24.4739L121.155 24.5565L121.305 24.7003C121.681 24.7707 122.064 24.8564 122.382 24.9482L122.306 25.0706C122.018 24.988 121.74 24.9237 121.489 24.8747L121.721 25.0981C122.3 25.2236 122.945 25.3735 123.138 25.5602C123.282 25.704 123.034 25.7499 122.293 25.6428ZM121.198 24.9788L121.002 24.7921C120.76 24.7646 120.696 24.7921 120.742 24.8288C120.884 24.9041 121.039 24.9547 121.198 24.9788ZM122.37 25.4378C122.23 25.3632 122.079 25.3125 121.923 25.2878L122.113 25.4684C122.342 25.4959 122.4 25.4806 122.37 25.4378Z" fill="#EBEBEB"/>
<path d="M128.689 21.625L128.606 21.6709C127.147 22.47 125.621 23.1386 124.044 23.6691C122.945 24.0026 122.422 23.9384 121.467 23.819L120.855 23.7456C120.296 23.6578 119.743 23.5321 119.2 23.3692C117.976 23.0387 116.461 22.6317 114.965 22.6562H114.928C114.885 22.6562 110.754 22.5032 107.541 25.349L107.352 25.5173L114.696 29.4953L114.79 29.4005C114.827 29.3637 118.496 25.7285 123.738 26.7719C124.35 26.8974 124.937 27.0198 125.479 27.1361C129.729 28.0541 131.862 28.5008 135.959 25.7652L136.21 25.5969L128.689 21.625ZM125.562 26.7933C125.02 26.6771 124.442 26.5516 123.82 26.4261C120.259 25.704 117.391 27.0902 115.834 28.152C115.468 27.9451 115.045 27.8631 114.629 27.9183C114.213 27.9735 113.826 28.163 113.527 28.458L109.243 26.1263C110.014 25.3857 109.512 24.8013 109.227 24.5626C110.961 23.554 112.929 23.019 114.934 23.0112C116.403 22.9836 117.905 23.3845 119.114 23.7119C119.675 23.8802 120.246 24.01 120.825 24.1005L121.437 24.1709C122.343 24.3505 123.281 24.2947 124.16 24.0087C125.342 23.6255 126.493 23.1529 127.603 22.595C127.909 22.8368 128.726 23.2896 129.867 22.6501L134.249 24.9665C133.943 25.1318 133.481 25.5479 134.28 26.3711C131.207 27.999 129.163 27.5614 125.562 26.7933Z" fill="#F5F5F5"/>
<path d="M136.247 81.2216L136.44 81.5429C136.659 81.9047 136.977 82.1957 137.358 82.3813L137.694 82.5465L137.373 82.7393C137.011 82.9585 136.72 83.2772 136.534 83.6573L136.369 83.9939L136.176 83.6879C135.957 83.3261 135.639 83.035 135.258 82.8495L134.922 82.6842L135.243 82.4915C135.605 82.2723 135.896 81.9536 136.082 81.5735L136.247 81.2216Z" fill="#FBC02D"/>
<path d="M42.9803 141.032L43.1669 141.338C43.3771 141.688 43.6829 141.97 44.0482 142.152L44.3756 142.311L44.0696 142.498C43.7206 142.71 43.4392 143.016 43.2587 143.382L43.0965 143.707L42.9099 143.401C42.6992 143.052 42.3935 142.771 42.0286 142.59L41.7012 142.428L42.0072 142.241C42.3558 142.029 42.6379 141.724 42.8211 141.36L42.9803 141.032Z" fill="#FBC02D"/>
<path d="M24.2135 39.1312L24.5501 39.6912C24.9282 40.3192 25.4782 40.8257 26.1352 41.1508L26.7196 41.4568L26.1627 41.7934C25.5334 42.1699 25.0265 42.7204 24.7031 43.3785L24.3971 43.963L24.0605 43.403C23.6905 42.7686 23.1455 42.2544 22.4907 41.9219L21.9062 41.6159L22.4662 41.2793C23.0933 40.9015 23.5996 40.3527 23.9259 39.6973L24.2135 39.1312Z" fill="#FBC02D"/>
<path d="M91.8005 19.5442L92.1371 20.1042C92.5144 20.7328 93.0647 21.2395 93.7222 21.5638L94.3067 21.8698L93.7467 22.2064C93.1181 22.5837 92.6114 23.134 92.2871 23.7915L91.9994 24.3759L91.6628 23.816C91.2866 23.1819 90.7366 22.669 90.0778 22.338L89.4902 22.032L90.0502 21.6954C90.6788 21.3181 91.1855 20.7678 91.5098 20.1103L91.8005 19.5442Z" fill="#FBC02D"/>
<path d="M142.903 68.6755L143.035 68.8928C143.18 69.1386 143.392 69.3381 143.647 69.4681L143.876 69.5813L143.656 69.7159C143.41 69.8611 143.21 70.0734 143.08 70.3279L142.967 70.5605L142.836 70.3402C142.69 70.0944 142.478 69.8949 142.224 69.7649L141.994 69.6517L142.214 69.5201C142.46 69.3738 142.659 69.1618 142.79 68.9081L142.903 68.6755Z" fill="#FBC02D"/>
<path d="M30.2 67.4026L30.3377 67.629C30.4896 67.8852 30.7129 68.0915 30.9803 68.2227L31.219 68.3389L30.9895 68.4766C30.7353 68.6301 30.5304 68.853 30.3989 69.1192L30.2796 69.3579L30.145 69.1284C29.9915 68.8742 29.7686 68.6693 29.5024 68.5378L29.2637 68.4216L29.4901 68.2839C29.7463 68.132 29.9526 67.9087 30.0838 67.6413L30.2 67.4026Z" fill="#FBC02D"/>
<path d="M53.5223 27.6195L53.66 27.8459C53.8141 28.1003 54.0369 28.306 54.3026 28.4396L54.5382 28.5559L54.3118 28.6936C54.0576 28.847 53.8527 29.07 53.7212 29.3362L53.6019 29.5718L53.4672 29.3453C53.3114 29.0943 53.0875 28.8927 52.8216 28.7639L52.5859 28.6446L52.8124 28.51C53.0694 28.3497 53.2754 28.1193 53.406 27.8459L53.5223 27.6195Z" fill="#FBC02D"/>
<path d="M106.607 98.327C106.607 98.6544 108.581 107.366 108.581 107.366C108.581 107.366 112.691 104.572 114.251 103.257C115.812 101.941 123.373 94.9579 123.373 94.9579L127.908 99.144C127.908 99.144 112.914 119.539 107.605 120.766C104.878 121.393 101.855 119.334 101.268 117.877C99.9426 114.628 97.9199 100.778 97.9199 100.778L100.861 99.4776L106.607 98.327Z" fill="#BA7E6D"/>
<path d="M108.754 107.385C108.436 107.436 108.123 107.518 107.821 107.629C107.113 107.951 106.518 108.477 106.113 109.141C105.72 109.816 105.423 110.542 105.229 111.298C105.156 111.617 105.06 111.93 104.941 112.235C104.968 111.908 105.027 111.584 105.116 111.268C105.28 110.488 105.569 109.74 105.973 109.052C106.394 108.361 107.027 107.824 107.778 107.522C108.006 107.437 108.245 107.387 108.488 107.372C108.577 107.36 108.667 107.364 108.754 107.385Z" fill="#875149"/>
<path d="M122.172 96.0657C122.172 96.0657 126.303 91.439 127.971 91.5706C129.638 91.7021 132.034 92.0632 132.701 91.95C133.544 91.8911 134.389 91.8911 135.232 91.95C135.232 91.95 139.562 89.606 140.361 89.7896C140.361 89.7896 141.104 89.7498 141.361 90.1721C141.361 90.1721 143.007 89.1287 144.195 89.7774L139.88 93.3729L141.196 93.2077C141.196 93.2077 145.073 91.1575 146.3 92.5681L143.372 94.141C143.372 94.141 145.804 94.1042 146.171 95.0926L140.722 95.9678C140.722 95.9678 130.367 96.8338 129.819 97.0724C129.271 97.3111 127.08 100.132 127.08 100.132L122.172 96.0657Z" fill="#BA7E6D"/>
<path d="M141.42 90.1935C141.344 90.2887 141.257 90.374 141.16 90.4475C140.986 90.6005 140.729 90.8178 140.398 91.0595C139.54 91.7244 138.639 92.3326 137.702 92.8802C137.179 93.1862 136.683 93.4647 136.2 93.6881C135.768 93.918 135.269 93.9854 134.792 93.8778L134.869 93.8349C134.81 94.0166 134.71 94.182 134.576 94.318C134.442 94.4541 134.278 94.5569 134.098 94.6183C133.999 94.6518 133.896 94.6704 133.792 94.6734C133.721 94.6734 133.688 94.6734 133.688 94.6734C133.816 94.6455 133.943 94.6097 134.067 94.5663C134.228 94.4982 134.372 94.3954 134.489 94.2653C134.606 94.1352 134.693 93.981 134.743 93.8135L134.762 93.7523L134.82 93.7707C135.268 93.8561 135.731 93.7814 136.129 93.5595C136.594 93.3362 137.096 93.0485 137.61 92.7486C138.703 92.1122 139.648 91.4634 140.322 90.9769L141.114 90.3955C141.208 90.3167 141.311 90.2489 141.42 90.1935Z" fill="#875149"/>
<path d="M139.881 93.4555C139.717 93.6392 139.521 93.7917 139.302 93.9053C138.796 94.2138 138.238 94.4294 137.656 94.5418C137.313 94.6091 136.983 94.6214 136.698 94.6734C136.447 94.7223 136.205 94.8089 135.979 94.9304C135.77 95.0664 135.525 95.1367 135.275 95.1324C135.498 95.0447 135.715 94.9425 135.924 94.8264C136.154 94.6833 136.406 94.5798 136.671 94.5204C136.977 94.4561 137.283 94.4408 137.622 94.3735C138.42 94.1912 139.182 93.8812 139.881 93.4555Z" fill="#875149"/>
<path d="M143.599 93.8319C143.427 94.0115 143.228 94.1642 143.011 94.2848C141.99 94.9206 140.819 95.2744 139.617 95.3099C139.369 95.3303 139.12 95.3127 138.877 95.2578C139.704 95.2077 140.524 95.0755 141.325 94.8631C142.656 94.4714 143.568 93.7829 143.599 93.8319Z" fill="#875149"/>
<path d="M60.2257 123.012C55.755 129.97 50.5653 138.676 47.4043 146.519H101.26L94.8343 123.012H60.2257Z" fill="#263238"/>
<path d="M26.877 97.5559C26.877 97.5559 30.6805 103.134 31.9719 104.594C33.2632 106.054 38.7039 113.857 41.5344 116.981C44.3649 120.105 47.4524 121.825 49.4506 121.825C51.5008 121.825 53.5755 121.124 55.2034 117.302C57.5535 111.794 59.5333 95.5761 59.5333 95.5761L50.3533 92.2101L47.0179 109.003C46.1213 108.11 31.9749 94.9274 31.9749 94.9274L28.7313 96.2738L26.877 97.5559Z" fill="#BA7E6D"/>
<path d="M15.0782 90.6831C15.0782 90.6831 15.2955 90.2945 16.5042 90.4689C17.7129 90.6433 19.8335 91.8949 20.3078 91.8949C20.7821 91.8949 26.0973 92.0662 27.1347 92.3263C28.172 92.5864 29.7846 92.7425 30.7332 93.7339L32.2632 95.0987L27.1316 97.92C26.9398 97.6642 26.6926 97.4551 26.4086 97.3083C26.1246 97.1616 25.811 97.0809 25.4914 97.0724C24.3256 97.002 18.9706 96.7327 18.9706 96.7327L14.8212 95.778L9.54883 93.229C9.66865 92.9419 9.88595 92.7062 10.1625 92.5634C10.439 92.4207 10.757 92.3801 11.0605 92.4487C12.1406 92.7088 14.1725 93.4432 14.1725 93.4432L15.9442 93.9849L11.2777 91.7572C11.5798 91.4485 11.9634 91.2319 12.3838 91.1328C12.8042 91.0337 13.2441 91.056 13.6523 91.1972C15.1211 91.6715 17.6303 92.7945 17.6303 92.7945L17.9761 92.666L15.0782 90.6831Z" fill="#BA7E6D"/>
<path d="M20.9108 93.7523C20.3715 93.794 19.83 93.7059 19.3318 93.4953C18.8151 93.3325 18.3449 93.0481 17.9609 92.666C17.9885 92.6262 18.5729 93.0516 19.3838 93.3484C20.1947 93.6452 20.9138 93.7064 20.9108 93.7523Z" fill="#875149"/>
<path d="M19.9349 95.0895C19.7098 95.1445 19.4772 95.1621 19.2464 95.1416C18.1238 95.114 17.0308 94.7762 16.0885 94.1654C15.8868 94.0504 15.7041 93.9049 15.5469 93.7339C16.2095 94.137 16.9132 94.4683 17.646 94.7223C18.3937 94.926 19.1611 95.0491 19.9349 95.0895Z" fill="#875149"/>
<path d="M10.6841 93.789C10.5014 93.8763 10.3483 94.0154 10.2438 94.1889C10.1394 94.3624 10.0882 94.5628 10.0966 94.7651C11.8491 95.3383 13.6495 95.7531 15.4761 96.0044" fill="#875149"/>
<path d="M50.2562 116.087C50.2226 116.087 50.2868 115.622 50.2379 114.863C50.2092 114.428 50.1448 113.996 50.0451 113.572C49.9179 113.054 49.7438 112.549 49.5249 112.063C49.2992 111.58 49.0287 111.119 48.7171 110.686C48.4601 110.334 48.1746 110.003 47.8633 109.698C47.3278 109.178 46.9453 108.924 46.9453 108.899C47.0471 108.942 47.1428 108.997 47.2299 109.065C47.3377 109.132 47.44 109.208 47.5359 109.291C47.6522 109.386 47.7929 109.487 47.9276 109.618C48.2548 109.918 48.5539 110.247 48.8211 110.601C49.4782 111.472 49.9395 112.475 50.1736 113.541C50.2678 113.975 50.3221 114.417 50.3358 114.86C50.3451 115.029 50.3451 115.199 50.3358 115.368C50.3343 115.496 50.323 115.624 50.3021 115.751C50.3008 115.864 50.2854 115.977 50.2562 116.087Z" fill="#875149"/>
<path d="M59.031 75.9461C57.7611 76.7295 54.8266 79.1071 51.7911 85.5331C47.7488 94.0797 46.6992 99.4133 46.6992 99.4133L57.4429 103.251L60.6987 75.1414C60.6987 75.1414 59.4502 75.6891 59.031 75.9461Z" fill="#455A64"/>
<path d="M56.7012 84.8998C56.7012 84.8998 56.9552 93.9696 56.9552 96.4329C56.9552 98.8962 58.0567 117.421 58.0567 117.421C58.0567 117.421 58.0568 123.517 61.842 123.422C65.6272 123.327 72.0991 124.062 74.6603 124.062C76.5483 124.062 87.2798 124.187 92.9285 123.682C95.606 123.444 96.6372 122.137 97.4634 120.01C97.5736 119.723 97.5063 119.891 97.5736 119.723C99.1923 115.745 97.9408 98.7218 97.9408 98.7218L95.9365 83.333L91.371 74.254L65.5109 74.1714C57.2214 74.7405 57.2214 78.1433 56.7012 84.8998Z" fill="#455A64"/>
<path d="M102.18 81.702C97.9206 74.6334 91.3691 74.2662 91.3691 74.2662L95.237 106.142L98.297 105.292C98.5234 105.215 109.772 100.729 109.772 100.729C109.772 100.729 104.799 86.0411 102.18 81.702Z" fill="#455A64"/>
<path d="M94.5918 83.9787C94.5918 83.9787 94.6071 83.9971 94.6316 84.0399C94.6561 84.0827 94.6897 84.1531 94.7264 84.2296C94.806 84.3949 94.9345 84.6397 95.0783 84.964C95.3843 85.6066 95.7638 86.5583 96.1708 87.7578C97.1991 90.8975 97.8624 94.1451 98.1475 97.4366C98.4316 100.723 98.5337 104.023 98.4535 107.32C98.4321 108.584 98.4015 109.606 98.377 110.313C98.377 110.656 98.3525 110.925 98.3464 111.127C98.3464 111.213 98.3464 111.283 98.3464 111.341C98.3495 111.365 98.3495 111.388 98.3464 111.412C98.3437 111.387 98.3437 111.363 98.3464 111.338V111.127C98.3464 110.928 98.3464 110.656 98.3464 110.313C98.3464 109.591 98.3464 108.572 98.3709 107.317C98.4208 104.025 98.3054 100.733 98.0251 97.4519C97.7394 94.171 97.0939 90.9314 96.1004 87.7915C95.7087 86.5919 95.3354 85.6495 95.0569 84.9885C94.9253 84.6611 94.806 84.4132 94.7509 84.2419L94.6683 84.046C94.6406 84.0262 94.6149 84.0037 94.5918 83.9787Z" fill="#263238"/>
<g opacity="0.3">
<path opacity="0.3" d="M75.7832 105.031C77.1437 103.669 78.8034 102.642 80.6302 102.033C83.0476 101.252 90.208 99.7591 92.1083 99.0614C94.2035 98.2885 96.1125 97.0833 97.7112 95.524L106.117 102.427C104.657 103.737 103.054 104.876 101.337 105.824C98.6322 107.278 91.9645 107.284 88.3751 109.438C86.0495 110.833 83.0385 114.918 83.0385 114.918L75.7832 105.031Z" fill="black"/>
</g>
<g opacity="0.3">
<path opacity="0.3" d="M87.3532 142.388C85.4333 142.234 83.5757 141.635 81.9278 140.638C79.7644 139.303 73.9902 134.824 72.2276 133.823C70.2493 132.715 68.1133 131.915 65.8934 131.452L65.7129 120.971C67.6553 121.234 69.5617 121.716 71.3953 122.409C74.2564 123.529 78.5802 128.603 82.549 129.943C85.1163 130.809 90.1806 130.454 90.1806 130.454L87.3532 142.388Z" fill="black"/>
</g>
<g opacity="0.3">
<path opacity="0.3" d="M49.7695 89.8294C51.9115 90.5516 54.6227 89.3245 55.9966 87.5283C57.3706 85.7321 58.7139 83.431 59.0413 81.1941C57.4716 81.1941 55.3387 81.3104 53.769 81.3073L49.7695 89.8294Z" fill="black"/>
</g>
<path d="M57.2206 92.2958C57.2347 92.3786 57.2408 92.4627 57.239 92.5467L57.2665 93.2689C57.2849 93.9115 57.3094 94.8172 57.34 95.928C57.4012 98.1832 57.4838 101.277 57.5725 104.695C57.6613 108.113 57.7806 111.216 57.8786 113.459C57.9336 114.57 57.9765 115.472 58.0071 116.115C58.0071 116.421 58.0316 116.656 58.0407 116.837C58.0455 116.921 58.0455 117.004 58.0407 117.088C58.0212 117.006 58.0099 116.922 58.0071 116.837C57.9887 116.659 57.9673 116.418 57.9428 116.118C57.8847 115.506 57.8296 114.588 57.7623 113.465C57.6338 111.222 57.5083 108.122 57.4073 104.698C57.3063 101.274 57.2512 98.174 57.2206 95.928C57.2206 94.8172 57.2053 93.9145 57.1992 93.2689C57.1992 92.9629 57.1992 92.7272 57.1992 92.5467C57.199 92.4626 57.2062 92.3786 57.2206 92.2958Z" fill="#263238"/>
<g opacity="0.3">
<path opacity="0.3" d="M57.5025 111.262C54.7057 104.958 55.1218 97.9201 57.221 91.3411C57.527 97.7518 57.6677 104.845 57.5117 111.262" fill="black"/>
</g>
<path d="M90.8799 43.9692C90.5252 42.8268 89.947 41.7662 89.179 40.849C88.411 39.9319 87.4685 39.1764 86.4062 38.6264C84.0714 37.4361 81.2868 37.3351 78.7317 37.9226C76.1766 38.5101 73.8174 39.7433 71.5866 41.1203C70.3351 41.8914 69.0897 42.736 68.2206 43.9141C66.6111 46.0561 65.0596 49.5598 64.974 52.2434C64.9066 54.413 65.892 59.8108 66.862 61.7508C67.2078 62.4424 68.0187 63.0513 69.004 63.5654C70.0486 65.4874 71.4278 67.2076 73.0769 68.645C73.5359 67.1762 73.9959 65.7074 74.4569 64.2386L90.8799 43.9692Z" fill="#263238"/>
<path d="M89.5399 41.3345L85.2559 40.6919C87.7467 46.1815 88.7443 58.8714 90.2467 64.7098C91.7553 62.3812 95.21 55.3248 94.9346 52.5647C94.6592 49.8046 94.598 40.7164 89.5399 41.3345Z" fill="#263238"/>
<path d="M69.5678 51.1602C69.7055 47.9074 71.7312 45.184 74.8616 44.2905L84.6199 41.5028C88.855 40.9214 91.8385 46.0683 92.2393 50.3217C92.683 55.0494 93.0166 60.0433 92.5637 63.596C91.6457 70.738 86.2356 71.8121 86.2356 71.8121C86.2356 71.8121 86.3305 75.1781 86.3855 77.2681L80.596 89.352L71.6027 74.8721L69.5555 51.2489C69.5372 51.1265 69.5617 51.3223 69.5678 51.1602Z" fill="#BA7E6D"/>
<path d="M89.5194 55.5421C89.5279 55.7795 89.4441 56.0111 89.2854 56.188C89.1268 56.3649 88.9057 56.4734 88.6687 56.4907C88.553 56.5033 88.4359 56.4928 88.3243 56.4596C88.2127 56.4265 88.1088 56.3714 88.0187 56.2976C87.9287 56.2237 87.8543 56.1327 87.7998 56.0298C87.7454 55.9269 87.7121 55.8141 87.7018 55.6981C87.6932 55.4606 87.7771 55.2291 87.9357 55.0522C88.0944 54.8753 88.3155 54.7668 88.5524 54.7495C88.6682 54.7369 88.7853 54.7474 88.8969 54.7806C89.0085 54.8137 89.1124 54.8688 89.2024 54.9426C89.2925 55.0164 89.3669 55.1075 89.4213 55.2104C89.4758 55.3133 89.5091 55.4261 89.5194 55.5421Z" fill="#263238"/>
<path d="M91.2514 53.137C91.1443 53.2594 90.4375 52.7698 89.4552 52.8034C88.473 52.8371 87.7722 53.3481 87.6621 53.2318C87.607 53.1798 87.7171 52.9625 88.0231 52.7239C88.4384 52.4164 88.9387 52.2454 89.4552 52.2343C89.9648 52.216 90.4668 52.3619 90.8873 52.6504C91.1872 52.8707 91.3065 53.0819 91.2514 53.137Z" fill="#263238"/>
<path d="M81.0487 55.5452C81.0564 55.7821 80.9722 56.0129 80.8136 56.1891C80.6551 56.3654 80.4345 56.4734 80.198 56.4907C80.0823 56.5034 79.9652 56.4928 79.8536 56.4597C79.7419 56.4265 79.6381 56.3714 79.548 56.2976C79.458 56.2238 79.3836 56.1327 79.3291 56.0298C79.2747 55.9269 79.2414 55.8141 79.2311 55.6982C79.2225 55.4607 79.3064 55.2291 79.465 55.0522C79.6237 54.8753 79.8447 54.7668 80.0817 54.7496C80.1977 54.7369 80.3151 54.7475 80.4269 54.7809C80.5387 54.8142 80.6427 54.8696 80.7328 54.9437C80.8229 55.0179 80.8972 55.1093 80.9515 55.2125C81.0057 55.3158 81.0388 55.4289 81.0487 55.5452Z" fill="#263238"/>
<path d="M81.9351 53.4032C81.8249 53.5256 81.1181 53.036 80.1389 53.0696C79.1597 53.1033 78.4528 53.6143 78.3427 53.498C78.2906 53.446 78.3977 53.2287 78.7037 52.9901C79.1192 52.6832 79.6194 52.5122 80.1358 52.5005C80.6459 52.4828 81.1483 52.6275 81.5709 52.9136C81.88 53.1369 81.9871 53.3481 81.9351 53.4032Z" fill="#263238"/>
<path d="M85.2239 61.0195C85.2239 60.9644 85.8359 60.842 86.809 60.6829C87.0568 60.6492 87.2925 60.5942 87.3292 60.4228C87.3441 60.1632 87.2777 59.9055 87.1394 59.6853L86.3408 57.8004C85.23 55.1168 84.416 52.9044 84.5231 52.8615C84.6302 52.8187 85.6217 54.9576 86.7325 57.6413L87.5036 59.5385C87.6688 59.8364 87.7251 60.1827 87.6627 60.5177C87.6291 60.6072 87.5755 60.6878 87.506 60.7536C87.4366 60.8193 87.3531 60.8684 87.2619 60.8971C87.125 60.9399 86.9829 60.9636 86.8396 60.9675C85.8451 61.0532 85.23 61.0776 85.2239 61.0195Z" fill="#263238"/>
<path d="M76.7344 69.5508C76.7344 69.5508 79.1824 74.3672 86.2816 73.4829L86.2357 71.8121C82.9203 71.9525 79.6311 71.1696 76.7344 69.5508Z" fill="#875149"/>
<path d="M81.5273 49.8781C81.4386 50.1473 80.4563 50.0494 79.3088 50.2238C78.1613 50.3983 77.2433 50.741 77.0811 50.5054C77.0107 50.3952 77.1637 50.1382 77.5309 49.8689C78.0223 49.5375 78.5826 49.3221 79.1694 49.2389C79.7562 49.1557 80.3542 49.2068 80.9184 49.3885C81.3468 49.5384 81.564 49.7404 81.5273 49.8781Z" fill="#263238"/>
<path d="M90.8481 50.1473C90.6829 50.3738 89.9974 50.1657 89.1865 50.1779C88.3757 50.1902 87.6902 50.3738 87.525 50.1473C87.4515 50.0341 87.5525 49.8077 87.8463 49.5874C88.2409 49.3179 88.7087 49.1759 89.1865 49.1804C89.664 49.1752 90.1313 49.3185 90.5238 49.5904C90.8175 49.8077 90.9216 50.0341 90.8481 50.1473Z" fill="#263238"/>
<path d="M90.1225 43.8865C89.6574 42.8278 88.467 42.2188 87.3134 42.1944C86.1598 42.1699 85.0429 42.6381 84.0606 43.2439C79.896 45.8113 77.8886 51.7844 73.779 54.4344C72.7692 55.0861 71.4137 54.5537 70.5599 55.4044C69.7062 56.2551 69.1799 57.5892 69.6939 58.6755C69.0716 57.9477 68.5564 57.1347 68.1639 56.2612C67.9733 55.8228 67.8783 55.3487 67.8851 54.8707C67.892 54.3927 68.0006 53.9216 68.2037 53.4888C68.5464 52.8523 69.1737 52.3536 69.3267 51.6528C69.4644 51.0408 69.2013 50.3921 69.2105 49.7526C69.2664 49.1008 69.4762 48.4716 69.8225 47.9166C71.3769 44.9698 73.5587 42.2862 76.4137 40.5726C78.281 39.4226 80.4265 38.8037 82.6194 38.7825C84.8162 38.7716 86.9445 39.5465 88.62 40.9673C89.5809 41.8149 90.5907 42.687 90.15 43.8865" fill="#263238"/>
<path d="M70.6845 56.2826C70.6049 56.0807 66.8595 54.8475 66.9207 58.7918C66.9819 62.623 70.8252 61.757 70.8283 61.6468C70.8314 61.5367 70.6845 56.2826 70.6845 56.2826Z" fill="#BA7E6D"/>
<path d="M69.6226 60.2178C69.6073 60.2178 69.5584 60.2667 69.4451 60.3218C69.2874 60.3916 69.1088 60.3982 68.9464 60.3402C68.5394 60.1994 68.1875 59.5629 68.1538 58.8744C68.1391 58.5467 68.1966 58.2197 68.3221 57.9166C68.3558 57.7961 68.4182 57.6855 68.5041 57.5944C68.5899 57.5033 68.6965 57.4343 68.8148 57.3934C68.891 57.372 68.9723 57.3777 69.0448 57.4095C69.1174 57.4413 69.1766 57.4973 69.2126 57.5678C69.2646 57.6749 69.2432 57.7514 69.2646 57.7575C69.286 57.7636 69.3442 57.6933 69.3105 57.5341C69.2871 57.44 69.232 57.3568 69.1544 57.2985C69.0481 57.2201 68.9149 57.1871 68.7842 57.2067C68.6271 57.2415 68.4815 57.316 68.3615 57.4232C68.2415 57.5304 68.151 57.6666 68.0987 57.8187C67.9416 58.153 67.8691 58.5208 67.8876 58.8897C67.9274 59.6608 68.3374 60.3769 68.8943 60.5238C68.9981 60.5538 69.1075 60.5592 69.2137 60.5395C69.32 60.5199 69.4202 60.4757 69.5063 60.4105C69.6165 60.3126 69.6379 60.2269 69.6226 60.2178Z" fill="#875149"/>
<path d="M69.1074 54.3579C69.1877 54.3216 69.2636 54.2764 69.3339 54.2232C69.4777 54.1253 69.7011 53.9937 69.9642 53.7979C70.7026 53.2237 71.3776 52.5723 71.9777 51.8548C72.8573 50.7805 73.6747 49.6567 74.4257 48.4888C75.33 47.0624 76.3537 45.7152 77.4857 44.4618C78.087 43.8351 78.755 43.2759 79.4778 42.7941C80.1558 42.3527 80.8855 41.9961 81.6504 41.7323C82.9472 41.2757 84.3187 41.068 85.6926 41.1203C86.6197 41.1501 87.5387 41.3034 88.4252 41.5763C88.7312 41.6619 88.9791 41.7629 89.1412 41.818C89.2235 41.8523 89.3085 41.8799 89.3952 41.9006C89.3199 41.8545 89.2399 41.8166 89.1565 41.7874C88.9262 41.6802 88.689 41.5882 88.4466 41.512C87.5576 41.2109 86.6303 41.0378 85.6926 40.9979C84.3009 40.9261 82.9084 41.1246 81.5922 41.5824C80.813 41.8458 80.0698 42.2056 79.3798 42.6534C78.6436 43.1414 77.9633 43.7089 77.3511 44.3456C76.2166 45.6067 75.1928 46.9632 74.2911 48.4001C73.5517 49.5631 72.7519 50.6866 71.8951 51.7661C71.3083 52.4845 70.6524 53.1435 69.9367 53.7336C69.6796 53.9387 69.4654 54.0794 69.3247 54.1835C69.2477 54.2356 69.175 54.2939 69.1074 54.3579Z" fill="#455A64"/>
<path d="M69.2072 60.9093C69.018 60.8797 68.8246 60.9233 68.6664 61.0312C68.5082 61.1391 68.3971 61.3033 68.3557 61.4902C68.3143 61.6772 68.3457 61.8729 68.4435 62.0376C68.5413 62.2022 68.6982 62.3233 68.8822 62.3764C69.0662 62.4294 69.2635 62.4103 69.434 62.3229C69.6044 62.2356 69.7351 62.0866 69.7995 61.9063C69.864 61.7259 69.8572 61.5278 69.7807 61.3523C69.7042 61.1767 69.5637 61.0369 69.3877 60.9614" fill="white"/>
<path d="M69.3877 60.9613C69.5568 61.0875 69.6829 61.2627 69.7488 61.4632C69.7798 61.5682 69.7838 61.6795 69.7602 61.7865C69.7367 61.8935 69.6864 61.9928 69.6141 62.0752C69.5322 62.1792 69.4212 62.2566 69.2951 62.2973C69.1691 62.3381 69.0338 62.3404 68.9064 62.3039C68.7791 62.2675 68.6655 62.194 68.5801 62.0928C68.4947 61.9915 68.4413 61.8672 68.4268 61.7355C68.4105 61.6285 68.421 61.5191 68.4573 61.4171C68.4936 61.3151 68.5546 61.2237 68.6349 61.151C68.7963 61.0146 68.9964 60.9321 69.2071 60.9154C69.2071 60.9154 69.149 60.8756 69.0266 60.8787C68.9181 60.8836 68.8117 60.9105 68.7139 60.9579C68.6161 61.0053 68.5291 61.0722 68.458 61.1544C68.387 61.2366 68.3335 61.3324 68.3008 61.436C68.268 61.5396 68.2568 61.6488 68.2677 61.7569C68.2828 61.9214 68.3472 62.0775 68.4525 62.2047C68.5578 62.332 68.699 62.4245 68.8578 62.4701C69.0165 62.5158 69.1853 62.5124 69.3421 62.4605C69.4989 62.4086 69.6364 62.3105 69.7365 62.1792C69.8215 62.0775 69.8781 61.9552 69.9007 61.8247C69.9233 61.6941 69.911 61.5599 69.8651 61.4356C69.811 61.2706 69.7033 61.1284 69.559 61.0317C69.4611 60.9583 69.3907 60.9521 69.3877 60.9613Z" fill="#263238"/>
<path d="M70.1028 55.4136C70.0722 56.4631 70.0538 57.5556 70.5648 58.4736C71.0758 59.3916 72.3121 59.9852 73.2056 59.4405C73.9339 58.9968 74.1236 58.039 74.2307 57.1914C74.5367 54.7434 74.6224 52.2709 74.9345 49.826L70.1028 55.4136Z" fill="#263238"/>
<path d="M89.1269 42.0903C89.1269 42.1148 88.7873 42.0383 88.1753 42.0353C87.3076 42.0442 86.4503 42.2263 85.6539 42.5707C85.103 42.801 84.5787 43.0904 84.0902 43.4337C83.5307 43.8344 82.9953 44.2676 82.4868 44.7311C81.3128 45.7843 80.27 46.9751 79.3809 48.2776C78.9127 48.9753 78.5026 49.6883 78.0528 50.3523C77.6302 50.9997 77.132 51.5945 76.5687 52.1241C75.6 52.9938 74.5354 53.7504 73.3955 54.3793C72.4285 54.924 71.6207 55.2973 71.0638 55.5788L70.4181 55.8848C70.3443 55.9241 70.2663 55.9549 70.1855 55.9766C70.25 55.9239 70.321 55.8797 70.3967 55.845L71.027 55.5115C71.5717 55.2238 72.3673 54.8169 73.319 54.2569C74.4371 53.616 75.4817 52.8547 76.4341 51.9864C76.9817 51.4642 77.4664 50.8799 77.8784 50.2452C78.319 49.5873 78.7291 48.8713 79.2003 48.1675C80.0994 46.8498 81.1592 45.6492 82.3552 44.5934C82.8714 44.1262 83.4172 43.6929 83.9892 43.296C84.4914 42.9519 85.0302 42.6646 85.5957 42.4392C86.4123 42.1 87.2914 41.9373 88.1753 41.9618C88.4136 41.9681 88.651 41.9937 88.8852 42.0383C88.9675 42.0467 89.0485 42.0641 89.1269 42.0903Z" fill="#455A64"/>
<path d="M69.9289 53.0512C69.829 53.1441 69.718 53.2243 69.5985 53.2899L68.6437 53.8866L68.3224 54.0855C68.1957 54.164 68.0539 54.2151 67.9063 54.2355C67.8158 54.248 67.7238 54.2285 67.6462 54.1804C67.6037 54.1535 67.568 54.1171 67.542 54.0741C67.516 54.0311 67.5003 53.9826 67.4962 53.9325C67.4999 53.7558 67.5587 53.5846 67.6645 53.4429C67.9919 52.8799 68.353 52.2648 68.7386 51.6069L68.8946 51.7446C68.5268 52.0294 68.1128 52.2488 67.6706 52.3933C67.2308 52.5386 66.7689 52.6059 66.3059 52.5922C66.1878 52.5938 66.0701 52.5773 65.957 52.5433C65.8911 52.5256 65.8298 52.4941 65.777 52.4508C65.7242 52.4075 65.6813 52.3535 65.651 52.2924C65.627 52.2281 65.6194 52.1589 65.6291 52.091C65.6387 52.0231 65.6652 51.9587 65.7061 51.9037C65.7679 51.8151 65.8386 51.733 65.9173 51.6589C66.4066 51.1547 66.8284 50.589 67.1719 49.9759C67.4757 49.4003 67.7365 48.803 67.9522 48.1889C67.9395 48.3663 67.9035 48.5412 67.8451 48.7091C67.7118 49.1731 67.5314 49.6222 67.3065 50.0494C66.9733 50.6868 66.5531 51.2749 66.058 51.7966C65.9203 51.9343 65.7826 52.1026 65.8408 52.2128C65.8989 52.323 66.11 52.3872 66.312 52.3811C67.1963 52.4023 68.0608 52.1181 68.76 51.5763L69.2068 51.2305L68.9008 51.714L67.8022 53.55C67.7174 53.6598 67.6654 53.7914 67.6523 53.9295C67.6523 54.0366 67.7533 54.0978 67.8757 54.0855C68.1193 54.0271 68.3498 53.9233 68.555 53.7795L69.5403 53.2348C69.6626 53.1593 69.7929 53.0977 69.9289 53.0512Z" fill="#455A64"/>
<path d="M81.5405 62.935C81.6052 62.6419 81.7703 62.3806 82.0072 62.1963C82.2441 62.0119 82.5379 61.916 82.8379 61.9252C83.057 61.948 83.2672 62.024 83.4502 62.1467C83.6332 62.2694 83.7833 62.435 83.8875 62.629C83.9875 62.8253 84.0473 63.0394 84.0636 63.259C84.0799 63.4786 84.0523 63.6993 83.9824 63.9081L83.964 63.9999C83.7663 64.2262 83.5033 64.3857 83.2113 64.4564C82.9192 64.5271 82.6124 64.5055 82.333 64.3947C82.0584 64.2729 81.8318 64.0637 81.6885 63.7997C81.5451 63.5357 81.4931 63.2317 81.5405 62.935Z" fill="#875149"/>
<path d="M83.2313 64.3273C83.2313 64.3273 83.1915 64.4314 83.0355 64.5232C82.8078 64.6514 82.5411 64.6916 82.2858 64.6364C82.0951 64.5917 81.9168 64.5047 81.7643 64.3818C81.6118 64.2589 81.4888 64.1033 81.4045 63.9265C81.259 63.5943 81.2177 63.2257 81.286 62.8695C81.3543 62.5133 81.529 62.1862 81.787 61.9314C81.8808 61.8457 81.9931 61.7828 82.1152 61.7478C82.2373 61.7128 82.3659 61.7065 82.4908 61.7294C82.8495 61.8371 83.1798 62.0231 83.4577 62.2741C83.9382 62.6382 84.2227 62.8861 84.1983 62.9167C84.1738 62.9473 83.8433 62.7759 83.3292 62.4607C83.0641 62.2606 82.7643 62.1112 82.4449 62.0201C82.3639 62.0071 82.281 62.0134 82.2028 62.0384C82.1247 62.0634 82.0535 62.1064 81.9951 62.1639C81.8604 62.3078 81.7563 62.4775 81.6891 62.6627C81.6119 62.842 81.5721 63.0351 81.5721 63.2303C81.5721 63.4255 81.6119 63.6187 81.6891 63.798C81.7506 63.9419 81.8422 64.0711 81.9578 64.1766C82.0734 64.2822 82.2103 64.3618 82.3592 64.41C82.5694 64.4758 82.7947 64.4758 83.0049 64.41C83.1334 64.3641 83.213 64.309 83.2313 64.3273Z" fill="#263238"/>
<path d="M106.738 57.121C108.575 57.8956 110.207 59.088 111.502 60.6033C113.195 62.6199 117.414 68.9082 118.825 70.4596C120.383 72.1688 122.282 73.5314 124.4 74.459L121.053 85.2119C119.228 84.3217 117.511 83.2273 115.933 81.9499C113.485 79.9211 110.881 73.5257 107.414 70.9186C105.171 69.2325 100.07 67.9351 100.07 67.9351L106.738 57.121Z" fill="#FBC02D"/>
<g opacity="0.2">
<path opacity="0.2" d="M123.749 74.7803C123.718 74.7589 120.383 72.8708 118.969 71.3011C117.968 70.1964 116.426 68.0972 114.933 66.0654C113.804 64.5354 112.736 63.0727 111.931 62.0874C109.361 58.9356 107.313 58.2991 107.228 58.2746L107.029 58.2134L101.215 67.2894L101.579 67.3873C101.616 67.3873 105.37 68.4124 107.142 69.7068C109.501 71.4296 110.863 73.7215 112.182 75.937C113.124 77.522 114.018 79.0184 115.242 80.3281C116.33 81.4936 117.548 82.5315 118.871 83.4217C119.398 83.7809 119.949 84.104 120.52 84.3887L120.808 84.5202L123.749 74.7803ZM107.454 69.2723C106.398 68.5012 104.74 67.8433 103.476 67.4118C103.688 67.1447 103.797 66.8101 103.782 66.4693C103.635 65.9155 103.17 65.8022 102.69 66.0256L106.478 60.1321L106.509 60.178C107.093 60.998 108.238 60.2912 108.314 59.4466C108.333 59.4616 108.354 59.4749 108.375 59.4864C109.558 60.3052 110.611 61.2952 111.503 62.424C112.298 63.4001 113.363 64.8475 114.489 66.3836C114.621 66.5581 114.749 66.7355 114.878 66.91C114.015 66.5122 112.877 66.7019 111.802 68.2074C110.811 69.6028 110.67 71.4847 110.93 72.9229C109.987 71.5142 108.812 70.2757 107.454 69.26V69.2723ZM115.627 79.9608C114.443 78.694 113.568 77.2221 112.641 75.6769L112.378 75.2332C113 75.4197 113.666 75.3972 114.274 75.1689C114.882 74.9406 115.398 74.5192 115.744 73.9694C116.46 72.7668 117.145 71.044 116.662 69.3121C117.39 70.2698 118.057 71.1144 118.58 71.6958C119.581 72.7974 121.304 74.1071 122.338 74.8568C122.258 74.8791 122.184 74.9173 122.12 74.9691C122.055 75.0208 122.002 75.0851 121.963 75.158C121.924 75.231 121.901 75.311 121.894 75.3933C121.886 75.4756 121.896 75.5586 121.922 75.6371C121.989 75.9767 122.307 76.396 122.693 76.3133L122.745 76.2919L120.756 82.8372C120.45 81.9192 119.437 82.3476 119.596 83.2503C118.139 82.3224 116.805 81.213 115.627 79.9486V79.9608Z" fill="white"/>
</g>
<path d="M113.022 73.1095L112.67 73.6695L112.223 73.3911L112.566 72.8433C112.172 72.5753 111.87 72.1914 111.703 71.7448L112.33 71.2858C112.457 71.6403 112.681 71.952 112.976 72.1854L113.499 71.347C113.089 70.9033 112.652 70.3708 113.098 69.6517C113.432 69.1193 114.062 68.8776 114.824 69.2295L115.173 68.6725L115.62 68.951L115.277 69.4987C115.589 69.7226 115.837 70.0243 115.996 70.3739L115.384 70.8513C115.264 70.585 115.087 70.3488 114.864 70.1597L114.332 71.0134C114.745 71.4571 115.176 71.9835 114.733 72.6903C114.408 73.2136 113.784 73.44 113.022 73.1095ZM113.977 72.3017C114.087 72.1242 114.016 71.9498 113.87 71.754L113.438 72.4455C113.53 72.4911 113.635 72.5016 113.735 72.4751C113.834 72.4486 113.92 72.387 113.977 72.3017ZM113.961 70.6095L114.408 69.8965C114.31 69.8508 114.199 69.8424 114.095 69.8728C113.992 69.9032 113.903 69.9704 113.845 70.0618C113.735 70.2362 113.808 70.4167 113.961 70.6095Z" fill="#FBC02D"/>
<path d="M76.1934 100.472C77.6023 99.0618 79.3205 97.9994 81.2118 97.3692C83.7148 96.5583 91.1292 95.013 93.0968 94.2908C95.2713 93.4891 97.2524 92.2379 98.9108 90.6188L107.613 97.767C106.099 99.1233 104.436 100.304 102.656 101.286C99.8533 102.792 92.9499 102.798 89.232 105.028C86.8238 106.473 83.7057 110.705 83.7057 110.705L76.1934 100.472Z" fill="#FBC02D"/>
<g opacity="0.2">
<path opacity="0.2" d="M98.9539 91.3533C98.9233 91.3747 95.9215 93.7462 93.9294 94.4745C92.531 94.9855 90.0065 95.625 87.5615 96.2431C85.7255 96.7113 83.9599 97.1611 82.7451 97.5283C78.8589 98.7248 77.4972 100.38 77.4421 100.451L77.3105 100.61L83.5376 109.429L83.7641 109.123C83.7886 109.089 86.1417 105.992 88.0083 104.839C90.49 103.309 93.1246 102.902 95.6736 102.513C97.5096 102.235 99.2171 101.971 100.894 101.332C102.384 100.761 103.803 100.021 105.126 99.1287C105.663 98.7781 106.174 98.3895 106.656 97.9659L106.888 97.7487L98.9539 91.3533ZM87.7084 104.377C86.5976 105.062 85.3645 106.353 84.4862 107.363C84.3142 107.073 84.0422 106.855 83.7212 106.751C83.1551 106.678 82.8736 107.057 82.9012 107.596L78.865 101.867H78.9201C79.8993 101.632 79.6759 100.307 78.9201 99.9182L78.9782 99.8754C80.1901 99.0829 81.5133 98.4754 82.9042 98.073C84.1068 97.7028 85.851 97.2621 87.6962 96.794L88.3296 96.6348C87.638 97.2835 87.3841 98.4127 88.3755 99.9733C89.2935 101.415 90.9857 102.253 92.4178 102.553C90.7562 102.89 89.1638 103.507 87.7084 104.377ZM100.674 100.821C99.0549 101.433 97.3627 101.699 95.5696 101.975L95.0616 102.051C95.4644 101.545 95.6913 100.921 95.7079 100.275C95.7245 99.6282 95.5298 98.9938 95.1534 98.4678C94.3058 97.3539 92.9686 96.0687 91.1754 95.876C92.3413 95.57 93.3725 95.2639 94.1069 94.9916C95.5053 94.4806 97.3658 93.379 98.4521 92.6997C98.4428 92.7818 98.4502 92.8649 98.4739 92.9441C98.4977 93.0232 98.5372 93.0968 98.5901 93.1602C98.643 93.2237 98.7082 93.2758 98.7817 93.3134C98.8553 93.351 98.9357 93.3733 99.0182 93.379C99.3578 93.4463 99.8627 93.3086 99.9362 92.92C99.9377 92.9017 99.9377 92.8832 99.9362 92.8649L105.264 97.1673C104.294 97.1183 104.312 98.2046 105.209 98.3913C103.807 99.392 102.283 100.209 100.674 100.821Z" fill="white"/>
</g>
<path d="M93.3759 100.674L93.7646 101.209L93.3392 101.515L92.9598 100.992C92.5621 101.256 92.0934 101.391 91.6164 101.381L91.4298 100.625C91.8052 100.641 92.1775 100.551 92.5038 100.365L91.9255 99.5632C91.3563 99.7774 90.7015 99.9855 90.2027 99.3C89.8355 98.789 89.8478 98.1158 90.4598 97.5405L90.0742 97.0081L90.5026 96.7021L90.882 97.2254C91.2054 97.0208 91.5768 96.9047 91.9592 96.8888L92.1734 97.6323C91.882 97.6455 91.597 97.7217 91.338 97.8557L91.9286 98.6727C92.4947 98.4524 93.1526 98.2535 93.633 98.9298C93.9941 99.45 93.9818 100.108 93.3759 100.674ZM91.4145 98.8625L90.9218 98.1801C90.8426 98.2537 90.7929 98.3537 90.7822 98.4613C90.7715 98.5689 90.8005 98.6768 90.8637 98.7645C90.983 98.9451 91.188 98.942 91.4145 98.8747V98.8625ZM92.9873 99.4745C92.8649 99.3062 92.6813 99.3031 92.4396 99.3643L92.9169 100.028C92.9879 99.9617 93.0336 99.8726 93.0464 99.7762C93.0593 99.6797 93.0384 99.5818 92.9873 99.4989V99.4745Z" fill="#FBC02D"/>
<path d="M76.9888 12.3042L66.5848 10.9058L65.4832 11.016C63.5983 11.273 62.0928 11.729 59.8498 14.1035C57.668 16.4138 56.75 22.3166 56.75 22.3166C56.75 22.3166 59.3388 20.9855 63.3259 21.0742C67.3131 21.1629 68.7636 21.8606 68.7636 21.8606C68.7636 21.8606 68.7911 17.8826 70.4955 15.8875C72.6253 13.412 76.9888 12.3042 76.9888 12.3042Z" fill="#FBC02D"/>
<g opacity="0.2">
<path opacity="0.2" d="M76.9888 12.3042L66.5848 10.9058L65.4832 11.016C63.5983 11.273 62.0928 11.729 59.8498 14.1035C57.668 16.4138 56.75 22.3166 56.75 22.3166C56.75 22.3166 59.3388 20.9855 63.3259 21.0742C67.3131 21.1629 68.7636 21.8606 68.7636 21.8606C68.7636 21.8606 68.7911 17.8826 70.4955 15.8875C72.6253 13.412 76.9888 12.3042 76.9888 12.3042Z" fill="black"/>
</g>
<path d="M65.4824 11.016C65.4824 11.016 67.9304 10.6702 71.8044 13.9995C74.283 16.1232 78.5364 22.6379 78.5364 22.6379C79.4206 21.4258 80.5405 20.4048 81.8289 19.636C85.2837 17.5889 87.2635 17.0718 87.2635 17.0718C87.2635 17.0718 85.0664 13.77 81.7647 12.4695C73.7964 9.31466 65.4824 11.016 65.4824 11.016Z" fill="#FBC02D"/>
<g opacity="0.2">
<path opacity="0.2" d="M68.7148 10.6182C69.2565 10.9058 72.4542 12.038 74.6665 11.8422C76.8789 11.6464 77.4205 11.2883 76.527 11.0558C75.2854 10.7324 74.0094 10.5598 72.7265 10.5417C71.389 10.4857 70.0493 10.5113 68.7148 10.6182Z" fill="white"/>
</g>
<g opacity="0.2">
<path opacity="0.2" d="M86.1068 16.371C84.6323 14.8176 82.9422 13.4841 81.0884 12.4114C80.6967 12.1972 80.2806 11.9921 79.8644 11.7994C78.4413 11.3673 76.9864 11.048 75.5131 10.8446C76.9085 11.1506 78.7169 11.2975 81.0425 12.8948C82.2078 13.7057 83.3179 14.5931 84.3657 15.5509C84.0015 15.7621 83.9954 16.4903 84.2555 16.7749C83.2983 17.1437 82.3808 17.6081 81.5168 18.1611C80.7224 18.6861 79.9573 19.254 79.2249 19.8625C79.289 19.7261 79.3144 19.5747 79.2983 19.4249C79.2126 18.9414 78.5303 18.6262 78.0743 18.7609C77.9827 18.7767 77.8972 18.8177 77.8275 18.8793C77.7578 18.9409 77.7066 19.0207 77.6796 19.1097C76.3699 17.2033 74.1942 14.1709 72.9396 13.1182C71.6737 12.0908 70.2658 11.2518 68.7597 10.6274H68.726C68.1875 10.661 67.7621 10.7192 67.3398 10.7651C69.23 11.3936 70.992 12.3565 72.5418 13.6078C74.3136 15.095 78.209 21.0161 78.2487 21.0773L78.4507 21.3833L78.72 21.1385C79.7158 20.2543 80.7686 19.4365 81.8718 18.6905C83.1344 17.8809 84.5158 17.2738 85.9661 16.8912L86.4954 16.7719L86.1068 16.371Z" fill="white"/>
</g>
<path d="M39.084 86.188L48.4996 87.7945L49.488 87.7272C51.2077 87.5558 52.5878 87.1917 54.69 85.1078C56.7463 83.079 57.7684 77.7638 57.7684 77.7638C57.7684 77.7638 55.3754 78.8899 51.7585 78.6818C48.1416 78.4737 46.8472 77.7913 46.8472 77.7913C46.8472 77.7913 46.6942 81.4113 45.0816 83.1586C43.0834 85.322 39.084 86.188 39.084 86.188Z" fill="#FBC02D"/>
<g opacity="0.2">
<path opacity="0.2" d="M39.084 86.188L48.4996 87.7945L49.488 87.7272C51.2077 87.5558 52.5878 87.1917 54.69 85.1078C56.7463 83.079 57.7684 77.7638 57.7684 77.7638C57.7684 77.7638 55.3754 78.8899 51.7585 78.6818C48.1416 78.4737 46.8472 77.7913 46.8472 77.7913C46.8472 77.7913 46.6942 81.4113 45.0816 83.1586C43.0834 85.322 39.084 86.188 39.084 86.188Z" fill="black"/>
</g>
<path d="M49.4884 87.7271C49.4884 87.7271 47.2607 87.9627 43.8427 84.8171C41.6609 82.8097 38.0287 76.754 38.0287 76.754C37.1877 77.827 36.1385 78.719 34.9442 79.3764C31.7434 81.1236 29.9258 81.5184 29.9258 81.5184C29.9258 81.5184 31.8016 84.5784 34.7575 85.8758C41.8843 89.0062 49.4884 87.7271 49.4884 87.7271Z" fill="#FBC02D"/>
<g opacity="0.2">
<path opacity="0.2" d="M46.5418 87.9873C46.0583 87.7058 43.1942 86.5766 41.1776 86.6929C39.1611 86.8092 38.6715 87.106 39.464 87.3477C40.5809 87.6803 41.7335 87.8786 42.8973 87.9383C44.1101 88.0277 45.3271 88.044 46.5418 87.9873Z" fill="white"/>
</g>
<g opacity="0.2">
<path opacity="0.2" d="M30.9357 82.2039C32.2246 83.6594 33.7145 84.9237 35.3604 85.9585C35.7093 86.1666 36.0795 86.3655 36.462 86.5521C37.7396 86.9928 39.0504 87.3304 40.3819 87.5619C39.1242 87.2284 37.4871 87.0448 35.4247 85.5209C34.3945 84.7452 33.4153 83.904 32.4932 83.0025C32.8298 82.822 32.8604 82.161 32.634 81.8948C33.5154 81.5917 34.3633 81.199 35.1646 80.7228C35.9054 80.2736 36.6205 79.7832 37.3066 79.254C37.244 79.3757 37.2164 79.5124 37.227 79.6488C37.2882 80.0894 37.8972 80.3985 38.3225 80.2914C38.4067 80.2791 38.4859 80.2441 38.5517 80.1902C38.6174 80.1363 38.6673 80.0655 38.6958 79.9854C39.8219 81.7571 41.6977 84.5754 42.8054 85.5791C43.9184 86.5526 45.1666 87.3596 46.5111 87.975H46.5386C47.0313 87.9597 47.4199 87.9199 47.8024 87.8924C46.1073 87.2596 44.5401 86.3268 43.1757 85.1384C41.6151 83.7339 38.2797 78.2289 38.2368 78.1739L38.0624 77.8893L37.8084 78.1035C36.878 78.8727 35.8965 79.5781 34.8708 80.2149C33.6987 80.9105 32.4245 81.4175 31.0948 81.7173L30.6113 81.8091L30.9357 82.2039Z" fill="white"/>
</g>
<path d="M106.543 30.6918C106.543 30.6918 108.743 28.9017 111.543 26.2303C114.958 22.9745 122.039 16.4873 128.067 18.9414L134.98 27.2034C134.98 27.2034 131.614 26.5027 127.085 28.1765C123.073 29.6606 120.258 32.6104 118.988 33.966C118.477 34.5137 117.807 35.2481 117.268 35.7653C116.35 36.6343 115.325 37.84 113.7 39.1496L106.543 30.6918Z" fill="#FBC02D"/>
<g opacity="0.2">
<path opacity="0.2" d="M122.971 24.6728C123.769 26.5669 122.802 28.7793 120.81 29.6208C118.818 30.4623 116.557 29.6208 115.758 27.7175C114.96 25.8142 115.93 23.611 117.922 22.7725C119.914 21.9341 122.175 22.7817 122.971 24.6728Z" fill="white"/>
</g>
<path d="M121.068 27.2034L121.481 27.6073L121.175 27.9378L120.759 27.54C120.456 27.8263 120.073 28.0132 119.661 28.0755L119.385 27.4635C119.711 27.422 120.019 27.2894 120.273 27.081L119.661 26.469C119.202 26.7383 118.666 27.0137 118.131 26.4965C117.736 26.114 117.647 25.5326 118.088 24.9451L117.678 24.5443L117.999 24.2138L118.403 24.6085C118.653 24.3842 118.956 24.2282 119.284 24.1556L119.59 24.7676C119.343 24.8208 119.109 24.9251 118.905 25.0736L119.535 25.6856C119.991 25.4133 120.52 25.144 121.044 25.655C121.417 26.0406 121.506 26.622 121.068 27.2034ZM119.11 25.9366L118.583 25.4225C118.526 25.497 118.497 25.5902 118.503 25.6844C118.509 25.7786 118.55 25.8672 118.617 25.9335C118.749 26.062 118.914 26.0314 119.11 25.9366ZM120.557 26.2426C120.426 26.114 120.251 26.1416 120.068 26.2426L120.579 26.7413C120.64 26.6714 120.673 26.5806 120.67 26.4874C120.667 26.3942 120.629 26.3056 120.563 26.2395L120.557 26.2426Z" fill="#FBC02D"/>
<g opacity="0.2">
<path opacity="0.2" d="M127.553 19.0087L127.483 18.9873C127.306 18.9291 123.11 17.6715 117.186 22.1972C114.972 23.8918 112.9 25.7636 110.99 27.794C109.766 29.0547 108.887 29.9635 107.823 30.5265L107.541 30.6734L113.832 38.4887L114.037 38.2622C114.099 38.198 119.965 31.7414 122.786 29.7493C125.023 28.1703 129.362 25.6428 133.257 26.4567L134.028 26.622L127.553 19.0087ZM122.495 29.324C120.457 30.7591 116.987 34.3546 115.05 36.4109C114.752 36.1187 114.353 35.9514 113.936 35.9435C113.518 35.9355 113.113 36.0874 112.804 36.3681L109.356 32.0841C109.525 31.9624 109.664 31.8039 109.763 31.6205C109.863 31.4371 109.919 31.2336 109.928 31.0253C109.937 30.6227 109.824 30.2268 109.603 29.8901C110.151 29.4066 110.711 28.8313 111.366 28.155C113.257 26.1428 115.31 24.2893 117.504 22.6134C120.482 20.3398 122.994 19.6115 124.576 19.4004C124.989 19.3436 125.405 19.315 125.821 19.3147C126.042 19.7411 126.388 20.0899 126.812 20.3146C127.236 20.5393 127.719 20.6293 128.196 20.5724L131.801 24.8135C131.55 24.8931 131.253 25.1195 131.336 25.7835C127.869 25.9212 124.423 27.9623 122.495 29.324Z" fill="white"/>
</g>
<path d="M18.8269 109.741C18.8269 109.741 21.0239 111.534 24.2063 113.734C28.0895 116.421 35.8741 122.042 34.696 128.453L28.0069 136.892C28.0069 136.892 28.0069 133.44 25.4579 129.358C23.1812 125.72 19.7234 123.544 18.1445 122.59C17.5049 122.201 16.6512 121.693 16.0331 121.271C15.0019 120.564 13.6096 119.787 12 118.462L18.8269 109.741Z" fill="#FBC02D"/>
<g opacity="0.2">
<path opacity="0.2" d="M28.0424 124.62C29.7335 123.455 30.1108 121.068 28.885 119.288C27.6591 117.507 25.2944 117.008 23.6032 118.173C21.912 119.337 21.5348 121.724 22.7606 123.505C23.9864 125.285 26.3512 125.784 28.0424 124.62Z" fill="white"/>
</g>
<path d="M25.1498 123.238L24.8438 123.728L24.4552 123.48L24.7612 123.003C24.4204 122.764 24.1609 122.427 24.0176 122.036L24.5714 121.641C24.6799 121.952 24.8727 122.226 25.1284 122.434L25.5935 121.702C25.2355 121.311 24.8591 120.839 25.2569 120.218C25.5629 119.753 26.1045 119.548 26.7716 119.863L27.0776 119.38L27.4662 119.628L27.1602 120.102C27.4274 120.302 27.6383 120.567 27.7722 120.873L27.2336 121.286C27.1299 121.052 26.9764 120.843 26.7838 120.674L26.3156 121.421C26.6737 121.809 27.047 122.275 26.6522 122.89C26.3585 123.342 25.8138 123.547 25.1498 123.238ZM25.9913 122.541C26.0892 122.388 26.028 122.235 25.9025 122.06L25.517 122.672C25.5984 122.712 25.6917 122.721 25.7792 122.697C25.8666 122.672 25.9421 122.617 25.9913 122.541ZM25.9913 121.063L26.386 120.451C26.3007 120.411 26.2039 120.404 26.1135 120.429C26.023 120.455 25.9449 120.513 25.8934 120.592C25.7985 120.735 25.8628 120.891 26.0096 121.063H25.9913Z" fill="#FBC02D"/>
<g opacity="0.2">
<path opacity="0.2" d="M34.5225 127.951V127.874C34.5439 127.691 34.9264 123.327 29.2929 118.443C27.1862 116.619 24.9348 114.968 22.5609 113.508C21.0799 112.568 20.012 111.889 19.247 110.959L19.0419 110.714L12.668 118.471L12.9311 118.624C13.0076 118.67 20.5199 123.107 23.0291 125.466C25.0273 127.339 28.3811 131.075 28.3749 135.056V135.818L34.5225 127.951ZM23.3963 125.084C21.5787 123.382 17.3559 120.705 14.9477 119.23C15.1732 118.879 15.2563 118.455 15.1801 118.045C15.1039 117.635 14.8741 117.27 14.5376 117.024L18.0291 112.776C18.1825 112.918 18.3661 113.022 18.566 113.082C18.7659 113.142 18.9768 113.156 19.1827 113.122C19.579 113.052 19.9437 112.861 20.2262 112.574C20.8106 113.015 21.4899 113.446 22.2855 113.951C24.6389 115.399 26.87 117.036 28.9563 118.847C31.7868 121.295 33.0108 123.615 33.5463 125.123C33.6851 125.516 33.7965 125.918 33.8799 126.326C33.508 126.628 33.237 127.037 33.1031 127.497C32.9691 127.958 32.9786 128.448 33.1302 128.903L29.6969 133.284C29.5714 133.055 29.2838 132.81 28.6534 133.024C27.815 129.658 25.1222 126.699 23.3963 125.084Z" fill="white"/>
</g>
<path d="M4.2832 59.0733C4.2832 59.0733 9.1792 53.3603 18.7448 57.0384C19.1083 57.1764 19.4844 57.2789 19.8678 57.3444C20.9593 57.5607 22.0889 57.4804 23.1389 57.1118C25.0055 56.3621 27.6585 55.2758 27.6585 55.2758L35.8685 60.1351C35.8685 60.1351 32.426 62.6443 29.0937 62.8554C25.7613 63.0666 21.8231 60.3309 18.0012 61.2642C16.0577 61.6852 14.2933 62.7 12.9522 64.1682L4.2832 59.0733Z" fill="#FBC02D"/>
<g opacity="0.2">
<path opacity="0.2" d="M24.0758 60.3309C23.7056 60.6614 21.484 60.3585 19.1095 59.6547C16.7349 58.9509 15.1101 58.1247 15.4803 57.7789C15.8506 57.4331 18.0721 57.7514 20.4467 58.4582C22.8212 59.1651 24.443 60.0004 24.0758 60.3309Z" fill="white"/>
</g>
<path d="M20.7636 59.6914L20.9135 59.8505L20.4147 59.7404L20.2678 59.5843C19.8114 59.4801 19.3609 59.3514 18.9184 59.1988L19.0285 59.0855C19.3345 59.1926 19.7232 59.3089 20.0904 59.3915L19.867 59.1559C19.2764 58.9937 18.6063 58.8071 18.4135 58.6021C18.2727 58.4521 18.5328 58.4062 19.2978 58.5531L19.1479 58.397L19.6467 58.5041L19.7935 58.6602C20.176 58.752 20.5677 58.8591 20.889 58.9662L20.8033 59.0886C20.5126 58.9907 20.2281 58.9081 19.971 58.8469L20.2005 59.0886C20.788 59.2477 21.449 59.4344 21.6387 59.6333C21.7795 59.7924 21.5224 59.8352 20.7636 59.6914ZM19.6681 58.9509L19.4753 58.7489C19.2274 58.7092 19.1693 58.7275 19.206 58.7734C19.3491 58.8579 19.5052 58.9179 19.6681 58.9509ZM20.8523 59.4833C20.7125 59.3989 20.5594 59.3389 20.3994 59.3059L20.5861 59.5017C20.8064 59.5415 20.8951 59.5292 20.8523 59.4833Z" fill="#FBC02D"/>
<g opacity="0.2">
<path opacity="0.2" d="M27.54 55.8665L27.4482 55.9093C25.908 56.6635 24.3032 57.278 22.6532 57.7453C21.5057 58.0513 20.9702 57.9442 19.9941 57.7728L19.3821 57.6688C18.8098 57.551 18.2464 57.3936 17.696 57.1976C16.472 56.7998 14.9145 56.304 13.3722 56.2551H13.3324C13.2896 56.2551 9.04843 55.8879 5.59369 58.6633L5.38867 58.8285L12.7633 63.2931L12.8643 63.1982C12.904 63.1615 16.8606 59.5874 22.2095 60.9338C22.8429 61.0929 23.4335 61.2398 23.9843 61.3959C28.3173 62.5403 30.4899 63.1156 34.8473 60.4993L35.1105 60.3402L27.54 55.8665ZM24.0761 61.0348C23.5222 60.8879 22.9317 60.7288 22.2982 60.5727C18.6599 59.6547 15.6458 60.9399 13.9903 61.9405C12.7663 61.2979 11.9187 61.8763 11.6066 62.1578L7.29199 59.5476C8.12431 58.8224 7.63777 58.1951 7.35625 57.935C9.1897 56.9793 11.2422 56.5223 13.308 56.61C14.8227 56.6529 16.3527 57.1425 17.592 57.528C18.1606 57.7288 18.7423 57.8904 19.3331 58.0115L19.9451 58.1156C20.9365 58.29 21.5363 58.391 22.7572 58.0819C23.9958 57.7448 25.2069 57.3142 26.3803 56.7936C26.6863 57.0599 27.5033 57.5648 28.712 56.9619L33.1123 59.5629C32.7818 59.719 32.2891 60.126 33.0756 61.0134C29.8289 62.5556 27.745 62.0048 24.0761 61.0348Z" fill="white"/>
</g>
<path d="M116.28 136.17C116.28 136.17 115.702 128.682 125.09 124.542C125.448 124.386 125.791 124.195 126.112 123.973C127.034 123.356 127.773 122.503 128.254 121.503C129.047 119.667 130.157 117.005 130.157 117.005L139.402 114.655C139.402 114.655 138.735 118.863 136.522 121.363C134.31 123.863 129.588 124.704 127.538 128.064C126.458 129.733 125.924 131.696 126.008 133.682L116.28 136.17Z" fill="#FBC02D"/>
<g opacity="0.2">
<path opacity="0.2" d="M131.193 123.113C131.165 123.609 129.375 124.949 127.196 126.136C125.018 127.324 123.274 127.865 123.301 127.36C123.329 126.855 125.119 125.524 127.297 124.337C129.476 123.15 131.22 122.617 131.193 123.113Z" fill="white"/>
</g>
<path d="M128.392 124.995H128.613L128.181 125.27H127.967C127.572 125.518 127.163 125.744 126.743 125.947V125.79C127.077 125.631 127.403 125.455 127.719 125.261H127.389C126.859 125.567 126.253 125.901 125.972 125.895C125.764 125.895 125.917 125.671 126.562 125.237H126.345L126.777 124.961H126.991C127.324 124.756 127.679 124.557 127.985 124.41L128.01 124.554C127.734 124.692 127.477 124.833 127.248 124.97H127.581C128.111 124.664 128.71 124.334 128.986 124.358C129.185 124.349 129.032 124.563 128.392 124.995ZM127.095 125.243H126.816C126.611 125.387 126.578 125.448 126.645 125.448C126.806 125.406 126.958 125.336 127.095 125.243ZM128.319 124.787C128.16 124.826 128.009 124.891 127.872 124.98H128.144C128.328 124.848 128.374 124.787 128.31 124.787H128.319Z" fill="#FBC02D"/>
<g opacity="0.2">
<path opacity="0.2" d="M130.504 117.504L130.473 117.599C129.911 119.22 129.205 120.788 128.365 122.284C127.753 123.297 127.312 123.612 126.502 124.181C126.342 124.291 126.171 124.41 125.984 124.545C125.494 124.865 124.983 125.151 124.454 125.402C123.295 125.995 121.85 126.73 120.724 127.786L120.697 127.813C120.663 127.841 117.398 130.567 116.911 134.98L116.881 135.243L125.259 133.202V133.064C125.259 133.009 125.544 127.685 130.281 124.863C130.844 124.53 131.37 124.227 131.863 123.945C135.743 121.702 137.677 120.579 138.928 115.647L139.005 115.341L130.504 117.504ZM131.688 123.624C131.192 123.912 130.663 124.215 130.103 124.542C126.881 126.461 125.648 129.493 125.18 131.372C124.761 131.472 124.385 131.705 124.109 132.035C123.833 132.366 123.672 132.778 123.65 133.208L118.754 134.398C118.83 133.297 118.044 133.196 117.661 133.211C118.287 131.241 119.422 129.471 120.951 128.079C122.052 127.042 123.481 126.308 124.623 125.723C125.167 125.463 125.694 125.167 126.199 124.836C126.382 124.701 126.554 124.582 126.71 124.472C127.536 123.893 128.032 123.554 128.68 122.464C129.325 121.352 129.885 120.192 130.354 118.994C130.761 118.964 131.694 118.749 132.123 117.464L137.077 116.207C136.954 116.546 136.89 117.183 138.071 117.259C136.838 120.628 134.972 121.711 131.688 123.624Z" fill="white"/>
</g>
<path d="M129.978 62.0599C129.978 62.0599 127.897 54.8413 136.248 48.8743C136.569 48.6506 136.866 48.3953 137.136 48.1124C137.918 47.3223 138.473 46.3361 138.742 45.2574C139.146 43.2868 139.697 40.4685 139.697 40.4685L148.265 36.2947C148.265 36.2947 148.461 40.5481 146.802 43.4459C145.144 46.3437 140.682 48.1216 139.36 51.8272C138.641 53.6813 138.516 55.713 139.002 57.6412L129.978 62.0599Z" fill="#FBC02D"/>
<g opacity="0.2">
<path opacity="0.2" d="M141.936 46.2427C142.009 46.7323 140.531 48.4215 138.634 50.0127C136.737 51.6039 135.142 52.4974 135.069 52.0078C134.996 51.5182 136.477 49.8291 138.371 48.2379C140.265 46.6467 141.862 45.7501 141.936 46.2427Z" fill="white"/>
</g>
<path d="M139.575 48.654L139.793 48.6142L139.425 48.9722L139.214 49.009C138.876 49.3355 138.52 49.642 138.146 49.927L138.113 49.774C138.407 49.5509 138.69 49.313 138.96 49.061L138.639 49.1161C138.18 49.52 137.654 49.9759 137.378 50.0341C137.173 50.0677 137.28 49.826 137.825 49.2691L137.608 49.3089L137.975 48.9508L138.186 48.9141C138.474 48.6448 138.78 48.3786 139.049 48.1705L139.101 48.3082C138.859 48.4979 138.636 48.6907 138.44 48.8682L138.771 48.8101C139.226 48.4061 139.747 47.9594 140.019 47.9135C140.218 47.8584 140.114 48.0971 139.575 48.654ZM138.351 49.162L138.076 49.2079C137.908 49.3945 137.886 49.4588 137.95 49.4466C138.1 49.3741 138.237 49.2769 138.354 49.1589L138.351 49.162ZM139.447 48.4673C139.299 48.5364 139.164 48.6306 139.049 48.7458L139.318 48.6999C139.483 48.5224 139.511 48.4521 139.45 48.4643L139.447 48.4673Z" fill="#FBC02D"/>
<g opacity="0.2">
<path opacity="0.2" d="M140.122 40.8816V40.9795C139.9 42.6799 139.527 44.3572 139.009 45.9918C138.62 47.1087 138.247 47.5065 137.567 48.2256C137.433 48.3694 137.289 48.5316 137.133 48.6907C136.72 49.1031 136.279 49.4865 135.814 49.8382C134.795 50.6553 133.531 51.6742 132.644 52.9288L132.619 52.9594C132.595 52.9931 129.951 56.3407 130.364 60.7441L130.389 61.0072L138.179 57.3138L138.158 57.1761C138.158 57.1241 137.347 51.8517 141.417 48.1307C141.897 47.6901 142.353 47.2862 142.779 46.9067C146.123 43.9233 147.8 42.4269 148.017 37.3504V37.0444L140.122 40.8816ZM142.522 46.6283C142.093 47.0108 141.637 47.4178 141.157 47.8523C138.387 50.3829 137.791 53.6051 137.717 55.536C137.325 55.7175 137.003 56.0218 136.799 56.4027C136.596 56.7836 136.522 57.2205 136.588 57.6474L132.032 59.8077C131.885 58.7153 131.092 58.7734 130.722 58.8652C130.935 56.8089 131.688 54.8454 132.904 53.1736C133.773 51.9496 135.024 50.9276 136.031 50.1136C136.514 49.7506 136.97 49.3538 137.396 48.9264C137.549 48.7581 137.702 48.6204 137.821 48.4674C138.513 47.736 138.929 47.2923 139.351 46.102C139.75 44.8822 140.057 43.6343 140.269 42.3688C140.664 42.2556 141.533 41.8578 141.692 40.5144L146.282 38.2776C146.233 38.6386 146.301 39.2721 147.473 39.1099C146.962 42.6656 145.349 44.1038 142.522 46.6283Z" fill="white"/>
</g>
<path d="M41.2717 37.5738C39.2836 37.4147 37.36 36.7944 35.6535 35.7622C33.4166 34.3791 27.4343 29.734 25.6106 28.7028C23.5611 27.5576 21.3487 26.732 19.0499 26.2548L18.8633 15.401C20.8745 15.6753 22.8483 16.1752 24.7477 16.8912C27.7097 18.051 32.1896 23.3172 36.2961 24.6912C38.9583 25.5908 44.2001 25.2205 44.2001 25.2205L41.2717 37.5738Z" fill="#FBC02D"/>
<g opacity="0.2">
<path opacity="0.2" d="M19.5838 25.8142L19.7796 25.8723C19.8164 25.8723 23.3813 26.9035 25.2234 27.95C26.5208 28.6844 28.6445 30.193 30.6977 31.6526C32.2553 32.7604 33.7271 33.7946 34.7981 34.4893C38.2284 36.6741 40.3704 36.6313 40.4622 36.6313H40.6672L43.3569 26.1814L42.9806 26.2028C42.9408 26.2028 39.0546 26.42 36.9677 25.7468C34.1892 24.8533 32.1757 23.1061 30.2357 21.4139C28.8434 20.2082 27.5306 19.0669 25.9517 18.207C24.5451 17.4399 23.0554 16.8363 21.5116 16.4077C20.8987 16.2306 20.2739 16.0977 19.6419 16.0099L19.3359 15.9732L19.5838 25.8142ZM36.7994 26.2732C38.0387 26.671 39.8226 26.775 41.1599 26.7903C41.0486 27.1107 41.0562 27.4604 41.1813 27.7756C41.4873 28.253 41.9708 28.2163 42.3563 27.8521L40.6121 34.6392L40.5693 34.6025C39.7553 34.0088 38.8893 35.0401 39.0821 35.8632L39.0117 35.8448C37.6218 35.4318 36.3016 34.8129 35.0949 34.0088C34.0331 33.3326 32.5674 32.2922 31.016 31.1875L30.4835 30.8081C31.426 30.9152 32.4511 30.3766 32.9958 28.611C33.5007 26.977 33.0417 25.1471 32.344 23.8619C33.6775 24.9103 35.1786 25.7255 36.7841 26.2732H36.7994ZM25.6671 18.6905C27.1971 19.5228 28.4823 20.6428 29.8501 21.8331C29.9817 21.9433 30.1102 22.0565 30.2387 22.1697C29.5923 22.1905 28.9702 22.4217 28.4671 22.8282C27.964 23.2347 27.6073 23.7942 27.4511 24.4219C27.1451 25.7866 27.041 27.641 28.0631 29.1312C27.0594 28.458 26.1628 27.846 25.4804 27.4696C24.186 26.7352 22.1389 26.0314 20.921 25.6336C21.0526 25.5405 21.1421 25.3993 21.1702 25.2406C21.1983 25.0819 21.1626 24.9186 21.071 24.786C20.8996 24.48 20.459 24.174 20.1285 24.3851L20.0856 24.4188L19.9173 17.5828C20.5079 18.3508 21.3249 17.6348 20.8904 16.8269C22.5555 17.2422 24.1607 17.8684 25.6671 18.6905Z" fill="white"/>
</g>
<path d="M30.2926 24.3698L30.4487 23.7242L30.9628 23.8496L30.8098 24.4616C31.2672 24.5936 31.673 24.8628 31.9726 25.2328L31.5166 25.8815C31.2855 25.5851 30.976 25.3593 30.6231 25.2297L30.3875 26.1905C30.9199 26.4965 31.5013 26.8515 31.3055 27.6746C31.1556 28.2866 30.6323 28.712 29.7969 28.6171L29.6439 29.2567L29.1298 29.1312L29.2828 28.5192C28.9167 28.4019 28.5876 28.1909 28.3281 27.9072L28.7626 27.2554C28.9624 27.468 29.2055 27.635 29.4756 27.745L29.7143 26.7658C29.1819 26.4782 28.6066 26.114 28.7963 25.3031C28.9401 24.7034 29.4542 24.2811 30.2926 24.3698ZM29.6409 25.4347C29.5919 25.6367 29.7143 25.7805 29.9132 25.9213L30.106 25.1287C30.0035 25.1123 29.8986 25.1346 29.8115 25.1911C29.7245 25.2476 29.6615 25.3344 29.6347 25.4347H29.6409ZM30.1855 27.0351L29.9866 27.846C30.094 27.8589 30.2024 27.8321 30.2915 27.7707C30.3805 27.7093 30.444 27.6174 30.4701 27.5125C30.5099 27.3197 30.3844 27.1728 30.1794 27.0351H30.1855Z" fill="#FBC02D"/>
<path d="M87.3947 138.385C85.4072 138.226 83.4844 137.605 81.7796 136.571C79.5397 135.191 73.5574 130.546 71.7336 129.515C69.6851 128.37 67.4738 127.544 65.176 127.067L64.9863 116.213C66.9979 116.485 68.972 116.985 70.8707 117.703C73.8328 118.863 78.3126 124.114 82.4222 125.503C85.0813 126.399 90.3231 126.032 90.3231 126.032L87.3947 138.385Z" fill="#FBC02D"/>
<g opacity="0.2">
<path opacity="0.2" d="M65.691 126.626L65.8868 126.681C65.9235 126.681 69.4915 127.715 71.3336 128.762C72.628 129.496 74.7516 131.005 76.8049 132.464C78.3624 133.572 79.8343 134.606 80.9083 135.301C84.3356 137.486 86.4806 137.443 86.5694 137.443H86.7774L89.4641 126.99L89.0877 127.011C89.048 127.011 85.1648 127.229 83.0748 126.555C80.2963 125.662 78.2829 123.915 76.3428 122.223C74.9505 121.017 73.6347 119.876 72.0588 119.016C70.6543 118.25 69.1666 117.647 67.6249 117.219C67.012 117.042 66.3871 116.909 65.7552 116.822L65.4492 116.785L65.691 126.626ZM82.9065 127.085C84.1489 127.483 85.9298 127.587 87.2701 127.602C87.1588 127.922 87.1664 128.272 87.2915 128.587C87.5975 129.065 88.081 129.028 88.4665 128.664L86.7193 135.451L86.6765 135.414C85.8656 134.821 84.9996 135.852 85.1924 136.675L85.122 136.657C83.7325 136.249 82.4121 135.636 81.2052 134.836C80.1433 134.16 78.6776 133.119 77.1262 132.015L76.5907 131.635C77.5362 131.742 78.5583 131.204 79.103 129.438C79.6079 127.804 79.1519 125.974 78.4512 124.689C79.7904 125.733 81.2968 126.543 82.9065 127.085ZM71.7895 119.502C73.3195 120.331 74.6047 121.454 75.9756 122.642C76.1041 122.755 76.2327 122.868 76.3642 122.978C75.7173 123 75.095 123.232 74.5915 123.639C74.088 124.046 73.7307 124.606 73.5735 125.234C73.2675 126.598 73.1635 128.453 74.1855 129.94C73.1941 129.257 72.2944 128.667 71.6151 128.281C70.3177 127.547 68.2736 126.843 67.0527 126.445C67.1215 126.399 67.1803 126.34 67.2255 126.271C67.2708 126.201 67.3015 126.124 67.3158 126.042C67.3301 125.96 67.3277 125.877 67.3088 125.796C67.2898 125.716 67.2548 125.64 67.2057 125.573C67.0343 125.267 66.5937 124.961 66.2601 125.175L66.2173 125.209L66.052 118.37C66.6426 119.141 67.4566 118.425 67.0221 117.617C68.6853 118.039 70.2876 118.672 71.7895 119.502Z" fill="white"/>
</g>
<path d="M76.4101 125.178L76.5692 124.536L77.0802 124.661L76.9272 125.289C77.3862 125.419 77.7934 125.689 78.0931 126.06L77.6402 126.684C77.4088 126.387 77.098 126.161 76.7436 126.032L76.4988 126.99C77.0313 127.296 77.6157 127.651 77.4168 128.474C77.27 129.086 76.7467 129.511 75.9113 129.417L75.7553 130.056L75.2442 129.931L75.3972 129.319C75.0298 129.202 74.6994 128.991 74.4395 128.707L74.8709 128.064C75.0695 128.276 75.3117 128.443 75.5808 128.554L75.8195 127.574C75.2871 127.287 74.7149 126.923 74.9015 126.112C75.0637 125.515 75.5808 125.093 76.4101 125.178ZM75.7583 126.246C75.7094 126.448 75.8318 126.592 76.0307 126.733L76.2265 125.94C76.1246 125.926 76.0207 125.948 75.9345 126.005C75.8482 126.061 75.7856 126.147 75.7583 126.246ZM76.303 127.847L76.1041 128.664C76.2114 128.676 76.3195 128.649 76.4083 128.588C76.4972 128.526 76.5609 128.435 76.5876 128.33C76.6365 128.128 76.4988 127.981 76.303 127.847Z" fill="#FBC02D"/>
<path d="M65.371 49.7128C63.4157 49.7618 59.8233 49.6853 56.4267 48.1277C52.2192 46.1969 50.3985 43.4276 50.3985 43.4276L49.4805 53.7367C51.9285 59.5079 61.6562 59.9056 66.1911 60.0127C64.9916 55.0188 64.6795 52.6718 65.371 49.7128Z" fill="#FBC02D"/>
<g opacity="0.2">
<path opacity="0.2" d="M63.829 56.1404C64.5716 54.3116 63.6123 52.195 61.6863 51.4129C59.7604 50.6309 57.5971 51.4795 56.8544 53.3084C56.1118 55.1373 57.0711 57.2539 58.997 58.0359C60.923 58.818 63.0863 57.9693 63.829 56.1404Z" fill="white"/>
</g>
<path d="M59.8691 52.8921V52.3352H60.3128V52.8799C60.7135 52.8905 61.1013 53.024 61.4236 53.2624L61.188 53.8744C60.9381 53.6795 60.6375 53.5605 60.322 53.5317V54.3609C60.8147 54.4894 61.3685 54.6669 61.3777 55.3799C61.3777 55.9062 61.0472 56.3622 60.3495 56.4631V57.014H59.9058V56.4723C59.5784 56.4522 59.2619 56.3467 58.9878 56.1663L59.202 55.5543C59.409 55.6851 59.6418 55.7696 59.8844 55.8022V54.9576C59.3918 54.8352 58.8471 54.6516 58.8379 53.9539C58.844 53.449 59.1745 52.9962 59.8691 52.8921ZM59.5631 53.8989C59.5631 54.0733 59.6947 54.1651 59.8875 54.2385V53.55C59.6702 53.6082 59.5631 53.7397 59.5631 53.8989ZM60.3434 55.08V55.7838C60.4329 55.7719 60.5149 55.7277 60.5741 55.6595C60.6333 55.5913 60.6655 55.5038 60.6647 55.4136C60.6739 55.2483 60.5393 55.1535 60.3434 55.08Z" fill="#FBC02D"/>
<g opacity="0.2">
<path opacity="0.2" d="M65.9209 58.8469C63.6561 58.9229 61.3891 58.7887 59.1491 58.446C55.5781 57.9687 53.3749 56.7569 52.1539 55.8236C51.8358 55.5819 51.5342 55.3192 51.2512 55.0372C51.3905 54.5977 51.3924 54.1262 51.2568 53.6855C51.1213 53.2449 50.8546 52.856 50.4923 52.5708L50.9207 47.2372C51.1441 47.3535 51.5021 47.3994 51.8969 46.8915C54.3449 49.1528 58.075 50.1075 60.3119 50.49C61.9182 50.7071 63.538 50.8094 65.1589 50.796L65.2538 50.2544C63.6388 50.2749 62.0243 50.1829 60.422 49.979C57.8272 49.5322 53.1607 48.3052 51.0646 45.1075L50.6606 44.4955L49.8926 54.0549L49.9262 54.1192C50.0058 54.2783 52.004 57.984 59.1062 58.9326C61.3888 59.2814 63.6986 59.4207 66.0065 59.3487L65.9209 58.8469Z" fill="white"/>
</g>
</svg>
