<svg width="67" height="51" viewBox="0 0 67 51" fill="none" xmlns="http://www.w3.org/2000/svg">
<path d="M65.6042 11.5417C66.3747 11.5417 67 12.167 67 12.9375V14.364C67 16.5778 64.4149 17.125 62.4887 17.125L59.4569 11.5417H65.6042ZM61.5814 21.3293C63.3653 24.6402 64.2223 27.6161 64.2223 31.5635C64.2223 35.3881 63.114 38.6348 61.4167 42.6771V47.8333C61.4167 49.3743 60.166 50.625 58.625 50.625H54.4375C52.8965 50.625 51.6458 49.3743 51.6458 47.8333V45.0417H15.3542V47.8333C15.3542 49.3743 14.1035 50.625 12.5625 50.625H8.375C6.834 50.625 5.58333 49.3743 5.58333 47.8333V42.6771C3.886 38.6348 2.77771 35.3881 2.77771 31.5635C2.77771 27.6161 3.63475 24.6402 5.41862 21.3293C7.73292 17.0385 10.586 11.6896 13.5982 6.66742C15.9097 2.80933 17.1213 1.90204 19.9576 1.39396C24.2345 0.62625 28.1037 0.375 33.5 0.375C38.8963 0.375 42.7655 0.62625 47.0424 1.39396C49.8787 1.90204 51.0903 2.80933 53.4018 6.66742C56.414 11.6896 59.2671 17.0385 61.5814 21.3293ZM16.75 29.6875C16.75 27.376 14.874 25.5 12.5625 25.5C10.251 25.5 8.375 27.376 8.375 29.6875C8.375 31.999 10.251 33.875 12.5625 33.875C14.874 33.875 16.75 31.999 16.75 29.6875ZM44.6667 32.4792C44.6667 31.7087 44.0413 31.0833 43.2708 31.0833H23.7292C22.9587 31.0833 22.3333 31.7087 22.3333 32.4792C22.3333 33.2497 22.9587 33.875 23.7292 33.875H43.2708C44.0413 33.875 44.6667 33.2497 44.6667 32.4792ZM52.877 17.0496C52.877 17.0496 50.8111 11.952 48.3237 8.27821C47.7598 7.44629 46.886 6.87679 45.8978 6.69812C41.6796 5.93879 37.9834 5.69592 33.5 5.69592C29.0166 5.69592 25.3204 5.93879 21.1022 6.69812C20.114 6.874 19.2402 7.4435 18.6763 8.27821C16.1889 11.9493 14.123 17.0496 14.123 17.0496C18.7014 17.9234 26.1523 18.4371 33.5 18.4371C40.8477 18.4371 48.2986 17.9234 52.877 17.0496ZM58.625 29.6875C58.625 27.376 56.749 25.5 54.4375 25.5C52.126 25.5 50.25 27.376 50.25 29.6875C50.25 31.999 52.126 33.875 54.4375 33.875C56.749 33.875 58.625 31.999 58.625 29.6875ZM7.54308 11.5417H1.39583C0.625333 11.5417 0 12.167 0 12.9375V14.364C0 16.5778 2.58508 17.125 4.51133 17.125L7.54308 11.5417Z" fill="#FBC02D"/>
</svg>
