<svg width="499" height="285" viewBox="0 0 499 285" fill="none" xmlns="http://www.w3.org/2000/svg">
<path d="M404.316 129.728C397.45 133.064 397.725 134.983 395.666 140.786C394.613 143.848 378.045 152.941 374.155 153.261C373.697 152.895 361.249 144.579 361.249 144.579C361.249 144.579 343.354 144.716 344.864 156.185C345.825 163.314 367.107 183.465 382.073 186.344C392.279 188.309 425.918 178.942 428.389 163.268C430.861 147.549 404.316 129.728 404.316 129.728Z" fill="#6A7B9B"/>
<path d="M470.535 235.695C477.171 238.665 482.892 238.071 486.599 240.676C490.123 243.189 494.425 246.297 490.032 252.968C485.592 259.594 488.293 269.373 483.121 275.998C477.949 282.624 461.839 280.385 460.054 278.42C455.477 273.485 464.265 269.464 465.729 264.3C467.194 259.137 465.363 260.782 460.97 254.156C456.53 247.485 470.535 235.695 470.535 235.695Z" fill="black"/>
<path d="M462.484 199.596C456.671 199.139 457.449 196.306 441.431 192.148C439.509 191.645 430.355 195.026 428.159 194.432C408.524 188.995 391.224 183.786 382.117 186.299C370.949 189.406 367.746 199.596 372.78 211.934C374.29 215.589 394.794 262.929 394.794 262.929C394.794 262.929 422.621 259.731 429.532 259.731C436.488 259.731 400.149 215.544 402.392 215.544C442.621 215.544 462.484 199.596 462.484 199.596Z" fill="black"/>
<path d="M431.091 249.266C434.248 257.628 442.487 273.713 432.555 275.267C422.349 276.82 426.056 271.52 414.523 275.723C402.989 279.927 399.328 278.648 390.495 276.592C383.676 275.038 385.278 265.99 397.086 264.62C405.827 263.614 407.246 258.177 412.509 252.967C417.772 247.712 431.091 249.266 431.091 249.266Z" fill="black"/>
<path d="M437.809 168.569C454.285 160.938 485.865 186.756 485.865 186.756C496.117 201.287 502.661 231.491 478.039 237.02C478.039 237.02 461.791 239.122 421.058 227.927C421.058 227.927 459.503 227.973 481.105 238.528C477.215 249.449 462.478 265.031 462.478 265.031C462.478 265.031 388.884 247.941 384.445 240.813C377.991 230.532 383.529 222.352 385.085 218.468C386.641 214.584 389.937 209.329 429.571 197.768C432.363 196.946 431.814 171.356 437.809 168.569Z" fill="black"/>
<path d="M384.454 240.813C376.307 230.669 380.014 225.049 381.57 221.164C382.943 217.783 404.225 205.628 439.191 202.658C443.997 202.338 443.356 204.577 445.37 204.714C440.198 205.445 406.239 207.41 393.653 218.88C391.593 220.753 386.879 226.694 390.998 234.005C394.843 240.813 453.7 253.836 469.855 258.68C467.521 264.255 466.377 266.311 464.272 269.327C464.226 269.327 389.671 247.393 384.454 240.813Z" fill="#1E2123"/>
<path d="M415.532 121.137C421.207 120.36 430.269 120.909 437.363 124.519C465.235 138.593 498.782 175.24 499.011 205.856C499.011 207.729 496.586 206.358 496.357 208.14C496.036 210.197 494.663 215.452 496.448 216.32C458.05 197.128 453.244 203.982 446.059 201.149C430.498 195.072 428.072 195.666 412.511 191.096C404.731 188.811 390.863 142.979 390.863 142.979L415.532 121.137Z" fill="#96A6BC"/>
<path d="M368.019 120.726C366.875 109.759 391.635 90.4298 400.925 104.367C417.859 129.773 405.868 145.721 405.868 145.721C402.298 148.965 396.532 152.712 391.589 153.078C389.163 153.261 386.966 149.148 383.9 145.812C381.886 146.269 379.689 146.498 379.278 145.127C379.415 142.933 378.454 137.587 375.891 134.983C372.321 131.098 369.117 131.647 368.019 120.726Z" fill="#D3766A"/>
<path d="M372.185 135.257C377.31 134.755 387.288 130.322 391.727 125.113C391.727 125.113 395.846 130.916 395.846 132.744C395.846 134.572 390.171 141.883 377.356 144.396C376.12 144.625 378.867 148.646 381.109 149.149C383.352 149.651 384.313 155.866 387.471 156.46C390.629 157.1 392.734 156.186 393.146 159.11C393.466 161.349 401.842 158.333 407.517 152.941C409.439 151.113 413.375 151.479 414.794 147.321C416.258 143.117 404.313 116.796 397.723 112.318C391.132 107.795 374.702 111.998 369.347 116.385C363.946 120.772 372.185 135.257 372.185 135.257Z" fill="black"/>
<path d="M377.45 123.741C373.56 123.056 368.48 122.507 365.002 125.523C362.713 127.534 368.48 111.677 375.345 105.234C382.439 98.563 399.373 95.9127 400.517 101.716C402.165 109.758 377.45 123.741 377.45 123.741Z" fill="#6A7B9B"/>
<path d="M369.625 123.376C379.602 121.274 395.346 136.719 398.413 143.162C401.479 149.605 402.12 157.419 405.095 159.338C407.841 161.075 428.939 130.688 428.939 130.688C428.939 130.688 417.726 113.415 411.044 105.098C404.637 97.1475 390.22 97.3303 385.323 100.438C374.568 107.246 369.625 123.376 369.625 123.376Z" fill="#96A6BC"/>
<path d="M405.872 151.662C409.304 144.351 417.954 127.169 417.908 124.382C418.412 130.002 412.096 150.291 408.663 151.616C405.231 152.941 405.872 151.662 405.872 151.662Z" fill="#6A7B9B"/>
<path d="M347.973 132.699C350.124 131.739 357.172 129.637 357.584 132.15L352.824 137.177L347.973 132.699Z" fill="black"/>
<path d="M420.608 132.287C411.454 150.245 434.613 160.116 434.613 160.116C434.613 160.116 412.049 153.855 405.322 155.089C402.575 160.573 401.66 178.851 401.66 178.851C401.66 178.851 459.418 191.645 467.519 181.592C476.352 170.625 447.107 130.459 434.292 126.804C425.139 124.154 420.608 132.287 420.608 132.287Z" fill="#6A7B9B"/>
<path d="M338.919 126.071L337.391 128.882L374.961 149.24L376.489 146.429L338.919 126.071Z" fill="#6A7B9B"/>
<path d="M375.654 147.823L338.125 127.489L338.903 126.026L376.432 146.361L375.654 147.823Z" fill="#96A6BC"/>
<path d="M396.845 155.545L394.053 154.037C392.863 152.484 390.895 150.838 388.515 149.513C386.09 148.188 383.664 147.457 381.696 147.32L376.433 144.487C375.289 143.893 373.687 144.67 372.817 146.269C371.948 147.868 372.177 149.65 373.321 150.244L378.584 153.078C379.774 154.677 381.742 156.276 384.168 157.556C386.593 158.881 388.973 159.612 390.987 159.749L393.779 161.257C394.923 161.851 396.525 161.074 397.394 159.475C398.218 157.921 397.989 156.139 396.845 155.545Z" fill="#11103D"/>
<path d="M396.847 155.545L394.055 154.037C392.865 152.484 390.897 150.838 388.517 149.513C386.092 148.188 383.666 147.457 381.698 147.32L376.435 144.487C375.291 143.893 373.689 144.67 372.819 146.269C372.819 146.315 372.773 146.36 372.773 146.406L397.213 159.658C397.259 159.612 397.305 159.566 397.305 159.521C398.22 157.921 397.991 156.139 396.847 155.545Z" fill="#1F398C"/>
<path d="M344.035 138.228C342.937 140.786 344.172 144.305 347.834 147.595C351.587 150.885 355.66 149.286 355.66 149.286C355.66 149.286 360.328 147.458 361.426 146.544C363.166 145.173 365.317 141.563 364.859 140.558C364.31 139.416 363.257 141.106 361.747 142.066C359.779 143.3 358.543 144.853 358.543 144.853C358.543 144.853 360.557 143.802 362.754 141.198C362.754 141.198 366.049 138.547 364.859 137.451C364.493 137.131 364.081 136.308 361.152 138.639C358.085 141.061 357.536 141.655 357.536 141.655C357.536 141.655 358.863 140.192 361.198 138.456C363.761 136.537 364.31 135.577 363.486 134.298C362.937 133.43 362.113 133.567 359.687 135.394C358.269 136.445 357.033 137.451 356.209 137.679C355.66 137.816 361.243 135.257 360.099 133.018C359.596 132.104 358.406 133.567 355.706 134.572C353.417 135.44 352.685 135.349 351.815 135.486C350.992 135.623 348.337 135.943 346.735 136.902C343.806 138.639 344.035 138.228 344.035 138.228Z" fill="black"/>
<path d="M408.024 153.992C408.024 153.992 390.907 148.6 388.802 148.463C386.468 148.28 382.257 149.651 381.296 150.108C379.053 151.159 379.328 151.068 376.674 152.85C374.706 154.175 376.857 155.455 379.053 154.723C380.93 154.129 383.081 153.353 383.081 153.353L385.186 153.581C385.186 153.581 379.053 155.774 378.367 156.003C377.68 156.231 374.568 158.379 373.699 158.836C372.417 159.43 372.921 162.08 375.026 161.578C377.131 161.121 381.067 159.384 382.44 158.882C383.813 158.425 384.179 158.562 384.179 158.562C380.427 159.933 375.896 161.715 375.026 162.766C374.156 163.817 375.896 165.462 378.138 164.685C380.381 163.908 384.774 163.36 384.774 163.36L378.321 164.868C378.321 164.868 378.23 165.827 379.191 166.284C380.655 167.015 383.813 167.335 386.925 167.335C391.502 167.335 392.875 167.335 396.537 167.198C398.779 167.107 403.081 170.305 403.447 170.123C408.436 167.427 412.647 157.694 408.024 153.992Z" fill="black"/>
<path d="M8.46694 70.8271L22.8836 68.2682C30.0233 66.9887 36.568 71.1013 36.9341 77.59C37.3003 78.7323 37.8495 80.2403 39.7717 81.5654L47.6894 83.3932C50.0236 83.9416 51.5339 86.4548 51.0304 89.0137C50.527 91.5726 47.6437 95.2282 45.3095 94.6799L33.9593 92.0753C31.3505 95.2282 27.5519 95.1369 22.8836 94.817L8.46694 93.6746C3.61561 93.3548 0 89.2422 0 84.4899V80.88C0 76.1734 3.61561 71.6496 8.46694 70.8271Z" fill="#6A7B9B"/>
<path d="M341.33 259.593C341.33 278.466 330.162 285 316.432 285H309.155C295.425 285 284.258 278.466 284.258 259.593V218.011C284.258 199.093 295.425 183.785 309.155 183.785H316.432C330.208 183.785 341.33 199.093 341.33 218.011V259.593Z" fill="#1E2123"/>
<path d="M84.9378 259.593C84.9378 278.466 73.7706 285 59.9947 285H52.7177C38.9418 285 27.8203 278.466 27.8203 259.593V218.011C27.8203 199.093 38.9418 183.785 52.7177 183.785H59.9947C73.7706 183.785 84.9378 199.093 84.9378 218.011V259.593Z" fill="black"/>
<g opacity="0.7">
<path opacity="0.7" d="M54.2773 101.077L319.361 107.931L291.763 24.8121L185.858 4.20361L81.5088 20.1055L54.2773 101.077Z" fill="#A6DDFF"/>
</g>
<path d="M338.819 105.144C337.079 103.682 336.988 101.032 327.056 98.0159C319.459 77.773 303.532 27.0515 293.097 22.025C263.074 7.63107 205.682 0.776816 189.48 0H183.119C166.871 0.776816 110.761 1.64502 78.5405 17.7297C68.1513 22.9389 52.7735 71.8783 45.1304 92.1212C35.1989 95.1371 35.1074 97.7874 33.3225 99.2496C26.732 104.779 19.5008 117.253 14.8325 161.121C12.3611 184.242 15.9309 209.649 15.9309 209.649C15.9309 209.649 27.51 239.899 42.1098 240.356H329.482C332.182 240.356 336.896 235.512 336.896 235.512C336.896 235.512 351.908 187.167 351.908 161.121C351.862 121.229 345.455 110.719 338.819 105.144ZM186.093 78.824C146.047 79.9206 90.3484 85.1756 62.3389 87.7802C69.7532 67.9028 80.7373 29.062 88.8839 25.6806C109.571 17.0899 168.885 12.5661 183.439 11.835H189.16C203.714 12.5204 262.387 16.9529 283.074 25.5435C291.221 28.8793 302.434 67.8571 309.848 87.7802C281.564 83.3478 227.879 78.0014 186.093 78.824Z" fill="#D1990B"/>
<path d="M355.559 70.5078L341.142 67.9489C334.002 66.6695 327.458 70.782 327.092 77.225C326.725 78.3674 326.176 79.921 324.254 81.2005L316.336 83.0283C314.002 83.5766 312.492 86.0898 312.995 88.6488C313.499 91.2077 317.343 94.7719 319.677 94.2692L331.028 91.6189C333.636 94.7719 336.52 94.7262 341.188 94.4063L355.605 93.3554C360.502 92.9898 364.117 88.8772 364.117 84.125V80.515C364.072 75.8999 360.456 71.376 355.559 70.5078Z" fill="#96A6BC"/>
<path d="M331.311 239.899C331.311 239.899 351.769 228.795 353.828 217.371C356.941 199.824 353.92 178.531 353.325 161.806C351.769 120.544 345.956 106.972 339.32 101.397C337.581 99.9351 337.535 97.2848 327.512 94.2689C319.915 74.026 303.942 22.6647 293.461 17.7297C259.914 1.96489 206.092 0.776816 189.844 0H186.32V11.7436H189.524C204.078 12.4291 262.385 16.9986 283.072 25.5892C291.219 28.9707 302.478 73.3862 309.938 93.3093C281.928 89.9735 232.728 83.3478 186.32 84.3531V240.356H320.739C323.393 240.356 331.311 239.899 331.311 239.899Z" fill="#FBC02D"/>
<path d="M362.479 224.043C362.479 233.776 344.401 241.636 335.065 241.636H36.2504C26.9139 241.636 7.46285 233.776 7.46285 224.043V209.741C7.46285 200.008 5.58639 192.148 14.9229 192.148H355.019C364.356 192.148 362.479 200.053 362.479 209.741V224.043Z" fill="#6A7B9B"/>
<path d="M349.887 197.723H18.99C9.88233 197.723 11.713 198.865 11.713 208.598V209.695C18.8985 216.549 36.8392 215.041 44.2077 215.041H324.623C331.992 215.041 349.978 216.549 357.118 209.695V208.598C357.164 198.865 358.995 197.723 349.887 197.723Z" fill="#96A6BC"/>
<path opacity="0.39" d="M123.16 178.851C111.307 174.51 104.304 149.515 99.5445 137.223C97.3934 131.648 60.4593 103.865 53.1823 97.6509L47.9648 98.0164C54.2807 102.495 91.3064 133.75 93.7321 140.056C98.4919 152.348 101.787 178.028 110.208 183.603C137.623 185.842 186.594 184.7 186.594 184.7L186.868 180.816C174.42 181.273 144.396 180.542 123.16 178.851Z" fill="#FBC02D"/>
<path opacity="0.39" d="M185.77 180.77L186.044 184.654C186.044 184.654 227.784 185.796 255.198 183.557C263.62 177.982 266.915 152.302 271.675 140.01C274.1 133.704 308.197 102.129 314.513 97.6504L309.295 97.3306C302.064 103.499 268.013 131.648 265.862 137.222C261.102 149.514 254.146 174.509 242.292 178.851C221.102 180.541 198.31 181.272 185.77 180.77Z" fill="black"/>
<path d="M106.136 154.038C102.612 143.163 103.711 137.314 112.407 137.314H254.605C264.949 137.771 263.347 144.625 260.509 153.855L257.672 163.131C254.651 173.047 247.786 181.455 238.266 181.455L125.725 181.409C116.251 181.409 110.164 172.91 108.013 162.857L106.136 154.038Z" fill="#6A7B9B"/>
<path d="M254.926 150.2C254.926 151.616 253.965 152.759 252.775 152.759H114.1C112.91 152.759 111.949 151.571 111.949 150.2C111.949 148.738 112.91 147.595 114.1 147.595H252.775C253.965 147.595 254.926 148.783 254.926 150.2Z" fill="#96A6BC"/>
<path d="M251.531 159.933C251.531 161.349 250.616 162.537 249.472 162.537H117.388C116.243 162.537 115.328 161.395 115.328 159.933C115.328 158.47 116.243 157.328 117.388 157.328H249.472C250.616 157.328 251.531 158.516 251.531 159.933Z" fill="#96A6BC"/>
<path d="M249.019 169.027C249.019 170.443 248.103 171.631 247.005 171.631H119.909C118.811 171.631 117.941 170.489 117.941 169.027C117.941 167.61 118.811 166.422 119.909 166.422H247.051C248.149 166.422 249.019 167.564 249.019 169.027Z" fill="#96A6BC"/>
<mask id="mask0_521_1796" style="mask-type:alpha" maskUnits="userSpaceOnUse" x="60" y="4" width="160" height="95">
<path d="M60.8711 98.7011L90.0248 26.5029L219.866 4.1123L193.55 98.7468L60.8711 98.7011Z" fill="url(#paint0_linear_521_1796)"/>
</mask>
<g mask="url(#mask0_521_1796)">
<path d="M175.833 18.9634C163.888 19.5575 110.935 23.3045 93.9554 30.3415C87.2734 33.1289 78.0284 67.126 71.9414 83.4392C93.4978 81.4286 174.46 73.3863 209.884 73.8889C216.978 58.3983 220.548 36.9673 228.74 21.0654C203.705 19.1919 199.54 18.4608 175.833 18.9634Z" fill="url(#paint1_linear_521_1796)"/>
</g>
<path d="M108.244 177.617C108.153 171.676 98.084 159.75 82.752 155.866C74.7885 153.855 62.9805 141.243 54.1017 142.02C45.2686 142.843 42.0649 157.648 41.47 167.884C40.7377 180.678 52.4999 177.525 66.1843 179.901C79.8229 182.323 108.336 185.019 108.244 177.617Z" fill="#D1990B"/>
<path d="M104.126 177.206C107.146 173.276 91.0821 160.481 77.9012 157.648C71.0818 156.186 62.7064 146.224 55.1549 146.818C47.6033 147.413 45.1776 159.339 44.6284 166.742C43.9877 176.018 54.926 173.55 66.4136 176.337C78.8165 179.308 100.831 181.455 104.126 177.206Z" fill="#6A7B9B"/>
<path opacity="0.42" d="M50.4844 160.846C50.4844 156.368 54.1458 152.712 58.6309 152.712C63.1161 152.712 66.7775 156.322 66.7775 160.846C66.7775 165.324 63.1161 168.98 58.6309 168.98C54.1458 168.98 50.4844 165.324 50.4844 160.846Z" fill="white"/>
<path d="M53.1836 160.846C53.1836 157.876 55.6093 155.409 58.5841 155.409C61.559 155.409 64.0304 157.831 64.0304 160.846C64.0304 163.862 61.6048 166.238 58.5841 166.238C55.6093 166.238 53.1836 163.817 53.1836 160.846Z" fill="#6A7B9B"/>
<path opacity="0.42" d="M71.9019 167.335C72.6342 164.457 77.1651 163.086 82.0165 164.274C86.8678 165.508 90.2546 168.843 89.5223 171.722C88.79 174.647 84.2591 176.017 79.362 174.784C74.5564 173.55 71.2154 170.214 71.9019 167.335Z" fill="white"/>
<path d="M277.856 177.617C277.947 171.676 288.016 159.75 303.348 155.866C311.312 153.855 323.165 141.243 331.999 142.02C340.832 142.843 344.035 157.648 344.63 167.884C345.408 180.678 333.6 177.525 319.916 179.901C306.277 182.323 277.719 185.019 277.856 177.617Z" fill="#D1990B"/>
<path d="M281.928 177.206C278.907 173.276 295.017 160.481 308.153 157.648C314.972 156.186 323.347 146.224 330.899 146.818C338.45 147.413 340.876 159.339 341.425 166.742C342.066 176.018 331.082 173.55 319.594 176.337C307.237 179.308 285.223 181.455 281.928 177.206Z" fill="#96A6BC"/>
<path opacity="0.42" d="M335.84 159.659C335.84 155.181 332.179 151.525 327.693 151.525C323.208 151.525 319.547 155.135 319.547 159.659C319.547 164.137 323.162 167.793 327.693 167.793C332.179 167.793 335.84 164.137 335.84 159.659Z" fill="white"/>
<path d="M333.093 159.659C333.093 156.689 330.667 154.221 327.647 154.221C324.672 154.221 322.246 156.643 322.246 159.659C322.246 162.675 324.672 165.051 327.647 165.051C330.667 165.051 333.093 162.629 333.093 159.659Z" fill="#96A6BC"/>
<path opacity="0.42" d="M314.145 167.335C313.412 164.457 308.881 163.086 303.984 164.274C299.133 165.508 295.746 168.843 296.478 171.722C297.211 174.647 301.742 176.017 306.639 174.784C311.49 173.55 314.877 170.214 314.145 167.335Z" fill="white"/>
<defs>
<linearGradient id="paint0_linear_521_1796" x1="62.1608" y1="4.4212" x2="242.431" y2="113.094" gradientUnits="userSpaceOnUse">
<stop stop-color="white"/>
<stop offset="0.0622" stop-color="#F9F9F9"/>
<stop offset="0.1453" stop-color="#E8E8E8"/>
<stop offset="0.2401" stop-color="#CCCCCC"/>
<stop offset="0.3437" stop-color="#A5A5A5"/>
<stop offset="0.4544" stop-color="#747474"/>
<stop offset="0.5692" stop-color="#383838"/>
<stop offset="0.6648"/>
</linearGradient>
<linearGradient id="paint1_linear_521_1796" x1="194.787" y1="28.4059" x2="72.4868" y2="96.1267" gradientUnits="userSpaceOnUse">
<stop stop-color="white"/>
<stop offset="0.6703" stop-color="white"/>
</linearGradient>
</defs>
</svg>
