<?xml version="1.0" encoding="utf-8"?>
<!-- Generator: Adobe Illustrator 23.0.2, SVG Export Plug-In . SVG Version: 6.00 Build 0)  -->
<svg version="1.1" id="Layer_1" xmlns="http://www.w3.org/2000/svg" xmlns:xlink="http://www.w3.org/1999/xlink" x="0px" y="0px"
	 viewBox="0 0 500 500" style="enable-background:new 0 0 500 500;" xml:space="preserve">
<path d="M120.1,214.6c-8.1-1.2-15.5-2.3-22.9-3.5c-4.1-0.6-6.7-3-8-6.8c-1.4-3.8-0.1-7.7,3.3-9.6c6.6-3.8,13.8-5.1,21.4-4.5
	c2.5,0.2,4.2,1.6,4.7,4c0.5,2.3,0.7,4.6,0.8,6.9c0.1,2.2,0.6,4,3.5,4c3.8-8.8,7.6-17.9,11.7-26.8c5.6-12.3,11.6-24.4,17.2-36.7
	c2-4.3,5.2-6.5,9.8-6.8c12.6-0.8,25.3-2.2,37.9-2.3c34.1-0.3,68.3-0.3,102.4,0c12.4,0.1,24.9,1.5,37.3,2.2c4.9,0.3,8.2,2.6,10.3,7.1
	c7.9,17.4,16,34.7,24,52.1c1.7,3.6,3.1,7.3,4.7,11.1c2.5,0,3.4-1.4,3.5-3.8c0.1-2.1,0.2-4.2,0.6-6.3c0.5-3.1,2.4-4.8,5.6-5
	c6.9-0.4,13.5,0.8,19.6,4c3.8,1.9,5.4,4.8,4.8,8.4c-0.6,3.9-2.6,7.2-6.6,8c-6.2,1.3-12.5,2.1-18.7,3.1c-1.8,0.3-3.5,0.5-5.9,0.8
	c1.2,2.6,2.1,5,3.5,7.1c3.5,5.4,7.3,10.6,11,15.9c3.5,5,5.4,10.4,5.5,16.6c0.5,34.5,1,69.1,1.4,103.6c0.1,7.4-4.1,11.2-11.5,11.3
	c-6.8,0-13.5,0-20.3,0c-4.6,0-6.5-1.9-6.5-6.6c0-6.5,0-13,0-19.8c-75.8,5.2-151.2,5.2-227,0c0,6.4,0,12.6,0,18.8
	c0,5.9-1.7,7.5-7.5,7.5c-6.4,0-12.9,0-19.3,0c-7.3,0-11.5-3.9-11.4-11c0.4-35,1-69.9,1.5-104.9c0.1-5.7,2.1-10.7,5.3-15.4
	c3.6-5.2,7.3-10.3,10.8-15.6C117.8,219.9,118.8,217.3,120.1,214.6z M134,203.3c36.9,11.1,195.3,11.2,233.1,0
	c-1.9-4.1-3.8-8.2-5.7-12.3c-6.8-14.5-13.6-29.1-20.3-43.6c-0.8-1.8-2.1-2.7-4.1-2.8c-8.4-0.5-16.8-1.5-25.3-1.7
	c-31.3-0.4-62.5-0.9-93.8-0.7c-17.9,0.1-35.9,1.5-53.8,2.3c-2,0.1-3.3,0.9-4.1,2.8c-5.1,10.8-10.2,21.5-15.3,32.4
	C141,187.5,137.5,195.4,134,203.3z M250.3,309.8c0-0.3,0-0.7,0-1c-22.1,0-44.2,0-66.2,0c-9.8,0-19.6-0.4-29.5-0.4
	c-2.7,0-5.9,0.2-7,3.3c-1.1,3.1,1.1,5.4,3,7.5c0.4,0.4,0.8,0.7,1.2,1.1c4.3,3.5,9.5,5.1,14.9,5.7c13,1.4,26,3.1,39.1,3.6
	c37.6,1.4,75.2,1.9,112.7-1.7c8.5-0.8,16.9-2.6,25.2-4.4c3.9-0.8,7-3.5,9-7.1c2.2-3.9,1.2-6.6-3.3-7.4c-3-0.6-6.1-0.7-9.1-0.6
	C310.3,308.7,280.3,309.3,250.3,309.8z M169.5,274.1c2.4,0,4.9-0.1,7.3,0c2.1,0.1,3-0.9,2.7-2.8c-1.6-9.3-2.3-19.1-13.2-23.2
	c-1.2-0.4-2.1-1.4-3.3-1.9c-9.2-4.3-18.4-8.9-27.8-12.9c-3.8-1.6-8-2.1-11.7,1c-5.6,4.7-7.3,10.7-5.9,17.6c1.9,9.1,8.1,14.2,16.6,17
	C145.7,272.6,157.5,273.7,169.5,274.1z M332.5,274.1c3.4-0.2,7.9-0.4,12.4-0.9c9.1-0.9,18-2.4,26.4-6.2c10.1-4.7,15-16,11.3-25.8
	c-2.7-7-7.9-9.9-15.1-8.4c-1.8,0.4-3.7,1-5.4,1.7c-12.1,4.5-23.2,11.1-34.1,18c-0.8,0.5-1.7,1.2-1.9,2c-1.6,5.7-3.1,11.3-4.5,17.1
	c-0.4,1.8,0.5,2.7,2.5,2.6C326.5,274,329,274.1,332.5,274.1z"/>
</svg>
