<svg width="472" height="534" viewBox="0 0 472 534" fill="none" xmlns="http://www.w3.org/2000/svg">
<g clip-path="url(#clip0_520_1233)">
<path d="M384.008 57.7737L96.6271 39.6242C90.0079 39.2719 84.0508 47.1563 84.0508 53.7773V457.787C84.0508 466.97 92.6418 468.817 99.261 468.079L384.008 436.331C389.209 435.751 393.409 430.554 393.409 424.721V68.8352C393.409 63.0022 389.209 58.051 384.008 57.7737Z" fill="#97A6B7"/>
<path d="M388.733 54.5653L100.784 39.0988C94.1645 38.7424 88.7734 43.8624 88.7734 50.5356V457.702C88.7734 464.375 94.1645 469.178 100.784 468.434L388.733 436.077C393.934 435.493 398.134 430.254 398.134 424.377V65.7123C398.132 59.8355 393.934 54.8447 388.733 54.5653Z" fill="#D8DEE8"/>
<path opacity="0.74" d="M100.786 462.913C97.2164 463.307 94.3047 460.701 94.3047 457.107V50.8087C94.3047 47.2126 97.2164 44.4378 100.786 44.6213L388.735 59.4707C391.546 59.6166 393.829 62.3205 393.829 65.5018V424.844C393.829 428.026 391.546 430.863 388.735 431.174L100.786 462.913Z" fill="white"/>
<path d="M370.179 421.536L123.895 447.443V72.5961L370.179 82.7236V421.536Z" fill="white"/>
<path opacity="0.3" d="M271.67 84.5582L173.242 85.9028L175.45 61.668C175.617 58.5201 177.702 55.935 180.446 55.4743L197.116 52.6787C199.08 52.3493 200.77 50.9338 201.626 48.8991L203.433 44.6129L247.033 47.5524L271.67 84.5582Z" fill="#97A6B7"/>
<path d="M324.228 68.8352C323.76 66.0938 321.749 64.1696 319.213 64.0445L303.485 63.2753C296.346 62.9251 291.113 56.5938 291.375 48.576L291.982 29.9928C292.095 26.5551 289.846 23.8012 286.756 23.6011L281.589 23.2633C277.649 23.0069 275.024 19.2148 275.577 14.8286C276.542 7.16515 271.734 0.552434 264.764 0.0333399C257.74 -0.489924 251.183 5.37021 250.137 13.1316C249.982 14.2845 249.625 15.4248 249.044 16.4421C247.421 19.2857 244.576 20.8492 241.792 20.6679L236.462 20.3197C233.232 20.1092 230.162 22.5837 229.345 26.0673L224.913 44.9319C222.996 53.0894 215.766 58.9849 208.088 58.6097L190.835 57.7654C188.009 57.6278 185.238 59.4248 183.936 62.2434L173.539 84.7645C172.686 86.6095 173.735 88.6025 175.592 88.6692L325.21 94.0936C326.848 94.1541 328.237 92.3696 327.936 90.5997L324.228 68.8352ZM262.646 16.1169C260.584 15.9772 259.156 14.0218 259.454 11.7474C259.755 9.47502 261.669 7.75096 263.73 7.89689C265.788 8.04282 267.208 9.99828 266.909 12.2644C266.61 14.5325 264.703 16.2566 262.646 16.1169Z" fill="url(#paint0_linear_520_1233)"/>
<path d="M325.115 69.3397C324.647 66.5983 322.636 64.6741 320.1 64.5491L304.372 63.7798C297.233 63.4296 292 57.0983 292.261 49.0805L292.869 30.4973C292.982 27.0596 290.732 24.3057 287.643 24.1056L282.476 23.7658C278.536 23.5093 275.911 19.7173 276.464 15.331C277.429 7.66759 272.621 1.05488 265.651 0.535781C258.626 0.0125176 252.07 5.87265 251.023 13.6341C250.869 14.7869 250.512 15.9272 249.931 16.9446C248.308 19.7881 245.463 21.3517 242.679 21.1703L237.348 20.8222C234.119 20.6116 231.049 23.0862 230.232 26.5697L225.8 45.4343C223.882 53.5918 216.653 59.4874 208.975 59.1121L191.722 58.2678C188.896 58.1302 186.124 59.9273 184.823 62.7458L174.425 85.2691C173.573 87.114 174.622 89.107 176.478 89.1737L326.097 94.6003C327.734 94.6586 329.123 92.8762 328.823 91.1063L325.115 69.3397ZM263.531 16.6215C261.469 16.4818 260.04 14.5263 260.339 12.2519C260.64 9.97954 262.555 8.25548 264.615 8.40141C266.672 8.54734 268.093 10.5028 267.794 12.7689C267.495 15.035 265.588 16.759 263.531 16.6215Z" fill="#97A6B7"/>
<path opacity="0.5" d="M299.509 79.6903C286.162 70.6948 275.923 77.074 267.606 66.9277C258.702 56.0684 264.707 41.7693 255.493 35.0232C249.595 30.7037 244.333 34.5145 237.474 33.345C234.961 32.9176 232.281 31.8273 229.495 29.703L225.798 45.4364C223.88 53.5938 216.651 59.4894 208.973 59.1142L191.72 58.2699C188.894 58.1323 186.122 59.9293 184.821 62.7478L174.425 85.269C173.573 87.114 174.622 89.107 176.478 89.1737L312.451 94.104C309.023 88.1647 304.769 83.2343 299.509 79.6903Z" fill="white"/>
<path d="M178.378 252.371V274.263L157.65 275.026V252.926L178.378 252.371ZM180.619 250.072L155.406 250.75V277.351L180.619 276.421V250.072Z" fill="#D8DEE8"/>
<path d="M348.011 270.252L189.902 276.079V249.824L348.011 245.577V270.252Z" fill="#D8DEE8"/>
<path d="M178.378 290.795V312.684L157.65 313.75V291.652L178.378 290.795ZM180.619 288.462L155.406 289.507V316.108L180.619 314.811V288.462Z" fill="#D8DEE8"/>
<path d="M348.011 306.201L189.902 314.334V288.079L348.011 281.528V306.201Z" fill="#D8DEE8"/>
<path d="M178.378 329.22V351.108L157.65 352.475V330.381L178.378 329.22ZM180.619 326.852L155.406 328.263V354.864L180.619 353.201V326.852Z" fill="#D8DEE8"/>
<path d="M348.011 342.152L189.902 352.588V326.333L348.011 317.477V342.152Z" fill="#D8DEE8"/>
<path d="M178.378 367.644V389.525L157.65 391.195V369.105L178.378 367.644ZM180.619 365.242L155.406 367.023V393.624L180.619 391.591V365.242Z" fill="#D8DEE8"/>
<path d="M348.011 378.101L189.902 390.842V364.588L348.011 353.428V378.101Z" fill="#D8DEE8"/>
<path d="M155.407 227.207C155.112 227.207 154.83 227.092 154.621 226.886C154.406 226.675 154.285 226.388 154.285 226.088V101.943C154.285 101.64 154.408 101.351 154.626 101.14C154.843 100.929 155.119 100.811 155.44 100.823L255.7 103.742C256.305 103.761 256.788 104.255 256.788 104.859V224.324C256.788 224.935 256.297 225.431 255.687 225.443L155.428 227.205C155.419 227.207 155.413 227.207 155.407 227.207ZM156.526 103.096V224.949L254.544 223.227V105.949L156.526 103.096ZM255.666 224.326H255.672H255.666Z" fill="#D8DEE8"/>
<path d="M348.008 122.717L271.41 120.957V105.32L348.008 107.55V122.717Z" fill="#D8DEE8"/>
<path d="M348.008 156.42L271.41 155.707V147.89L348.008 148.836V156.42Z" fill="#D8DEE8"/>
<path d="M348.008 168.918L271.41 168.595V160.775L348.008 161.336V168.918Z" fill="#D8DEE8"/>
<path d="M348.008 181.416L271.41 181.481V173.661L348.008 173.834V181.416Z" fill="#D8DEE8"/>
<path d="M159.316 221.672V174.07L173.912 171.77L236.263 171.109L252.037 173.936V220.194L159.316 221.672Z" fill="#D8DEE8"/>
<path d="M208.777 141.404C209.497 148.715 210.218 156.02 210.939 163.323C211.133 165.301 212.618 166.857 214.469 167.03C221.775 167.707 229.798 171.305 237.023 171.97L203.897 182.292L174.672 172.631C182.555 171.433 188.295 168.916 194.08 167.042C195.563 166.563 196.633 165.201 196.815 163.567C197.316 159.041 197.817 154.517 198.318 149.995L208.777 141.404Z" fill="white"/>
<path d="M203.898 183.411C203.779 183.411 203.66 183.393 203.545 183.355L174.319 173.694C173.828 173.532 173.511 173.054 173.555 172.537C173.599 172.022 173.991 171.603 174.503 171.526C180.381 170.632 185.016 169.004 189.496 167.43C190.95 166.919 192.324 166.435 193.734 165.981C194.795 165.637 195.568 164.643 195.7 163.448L197.203 149.877C197.235 149.587 197.379 149.322 197.605 149.136L208.063 140.543C208.382 140.281 208.821 140.216 209.203 140.372C209.585 140.531 209.849 140.885 209.89 141.296L212.052 163.215C212.194 164.657 213.255 165.793 214.571 165.916C218.333 166.265 222.281 167.367 226.099 168.435C229.798 169.467 233.621 170.536 237.125 170.857C237.658 170.907 238.08 171.324 238.136 171.854C238.193 172.383 237.865 172.879 237.355 173.04L204.23 183.361C204.123 183.395 204.011 183.411 203.898 183.411ZM179.132 172.927L203.908 181.116L232.161 172.312C229.94 171.829 227.697 171.201 225.495 170.586C221.773 169.546 217.924 168.472 214.365 168.141C211.979 167.92 210.07 165.939 209.822 163.431L207.866 143.599L199.382 150.571L197.928 163.692C197.698 165.758 196.324 167.492 194.428 168.107C193.045 168.556 191.683 169.033 190.242 169.54C186.795 170.751 183.263 171.993 179.132 172.927Z" fill="#D8DEE8"/>
<path d="M216.676 140.72C216.676 151.411 210.967 163.911 203.893 163.869C196.779 163.827 190.984 151.134 190.984 140.339C190.984 129.542 196.781 124.818 203.893 124.966C210.967 125.112 216.676 130.03 216.676 140.72Z" fill="white"/>
<path d="M203.931 164.989C203.916 164.989 203.902 164.989 203.887 164.989C195.99 164.943 189.863 151.701 189.863 140.339C189.863 134.727 191.415 130.245 194.352 127.374C196.794 124.987 200.106 123.768 203.916 123.847C214.151 124.059 217.798 132.703 217.798 140.72C217.798 148.855 214.7 157.609 210.264 162.012C208.271 163.986 206.141 164.989 203.931 164.989ZM203.57 126.08C200.499 126.08 197.859 127.076 195.921 128.971C193.425 131.41 192.104 135.342 192.104 140.337C192.104 150.394 197.546 162.712 203.897 162.75C205.537 162.758 207.116 161.976 208.681 160.423C212.662 156.473 215.553 148.186 215.553 140.72C215.553 131.708 211.185 126.236 203.868 126.084C203.77 126.082 203.67 126.08 203.57 126.08Z" fill="#D8DEE8"/>
<path d="M158.602 263.418C158.602 263.418 165.519 269.187 166.852 272.737C166.963 272.894 169.143 272.37 169.394 272.477C170.169 270.919 171.38 266.669 174.572 261.774C178.754 255.361 183.666 249.147 183.75 249.069C183.754 249.065 183.785 249.038 183.792 249.003C183.823 248.803 183.013 248.459 182.883 248.586C182.041 249.413 177.133 254.219 173.145 259.164C169.791 263.325 167.193 267.819 167.193 267.819C167.193 267.819 160.582 262.724 159.688 262.428C159.326 262.758 158.963 263.087 158.602 263.418Z" fill="url(#paint1_linear_520_1233)"/>
<path d="M158.602 303.324C158.602 303.324 165.519 309.092 166.852 312.643C166.963 312.799 169.143 312.276 169.394 312.382C170.169 310.825 171.38 306.574 174.572 301.679C178.754 295.267 183.666 289.052 183.75 288.975C183.754 288.971 183.785 288.944 183.792 288.908C183.823 288.708 183.013 288.364 182.883 288.491C182.041 289.319 177.133 294.124 173.145 299.069C169.791 303.23 167.193 307.725 167.193 307.725C167.193 307.725 160.582 302.63 159.688 302.334C159.326 302.665 158.963 302.995 158.602 303.324Z" fill="url(#paint2_linear_520_1233)"/>
<path d="M158.602 343.615C158.602 343.615 165.519 349.384 166.852 352.934C166.963 353.09 169.143 352.567 169.394 352.673C170.169 351.116 171.38 346.865 174.572 341.971C178.754 335.558 183.666 329.343 183.75 329.266C183.754 329.262 183.785 329.235 183.792 329.2C183.823 328.999 183.013 328.655 182.883 328.783C182.041 329.61 177.133 334.416 173.145 339.36C169.791 343.522 167.193 348.016 167.193 348.016C167.193 348.016 160.582 342.921 159.688 342.625C159.326 342.957 158.963 343.286 158.602 343.615Z" fill="url(#paint3_linear_520_1233)"/>
<path d="M158.602 380.104C158.602 380.104 165.519 385.873 166.852 389.423C166.963 389.579 169.143 389.056 169.394 389.162C170.169 387.605 171.38 383.354 174.572 378.459C178.754 372.047 183.666 365.832 183.75 365.755C183.754 365.751 183.785 365.724 183.792 365.688C183.823 365.488 183.013 365.144 182.883 365.271C182.041 366.099 177.133 370.904 173.145 375.849C169.791 380.01 167.193 384.505 167.193 384.505C167.193 384.505 160.582 379.41 159.688 379.114C159.326 379.445 158.963 379.775 158.602 380.104Z" fill="url(#paint4_linear_520_1233)"/>
<path d="M195.112 181.866C195.112 181.866 195.248 174.945 198.45 173.874C201.652 172.802 212.549 164.386 211.897 167.667C211.246 170.949 206.483 173.473 206.483 173.473C206.483 173.473 210.496 178.458 205.387 181.379C200.278 184.297 190.578 194.064 195.112 181.866Z" fill="#D3766A"/>
<path d="M193.857 179.932C196.287 182.867 198.716 185.802 201.145 188.738C199.645 195.319 196.836 204.534 191.255 214.534C188.792 218.945 181.087 231.939 166.896 243.241C147.579 258.624 111.133 274.937 98.5798 262.093C87.3779 250.633 100.334 221.207 102.734 215.916C108.965 218.061 100.821 211.301 131.734 220.242C135.711 221.393 146.633 219.602 158.282 214.626C179.842 205.418 190.373 186.851 193.857 179.932Z" fill="#FBC02D"/>
<path d="M107.928 514.994C107.928 514.994 107.007 520.624 107.124 522.628C107.241 524.631 129.519 525.657 129.745 524.154C129.97 522.653 126.062 520.266 123.311 519.424C120.56 518.581 112.51 516.332 112.51 516.332L107.928 514.994Z" fill="url(#paint5_linear_520_1233)"/>
<path d="M113.337 509.382L112.626 516.382C112.626 516.382 110.039 518.09 107.758 516.772L106.617 509.152L113.337 509.382Z" fill="#D3766A"/>
<path d="M68.1816 524.121C68.1816 524.121 67.2605 529.751 67.3775 531.755C67.4944 533.758 89.775 534.784 89.9985 533.281C90.224 531.78 86.316 529.393 83.5652 528.551C80.8143 527.708 72.7643 525.459 72.7643 525.459L68.1816 524.121Z" fill="url(#paint6_linear_520_1233)"/>
<path d="M73.5866 518.508L72.8765 525.509C72.8765 525.509 70.2885 527.216 68.0076 525.899L66.8672 518.279L73.5866 518.508Z" fill="#D3766A"/>
<path d="M109.294 326.612C111.87 331.824 114.445 337.034 117.021 342.246C119.093 371.984 120.12 404.32 119.46 438.902C118.969 464.631 117.591 489.003 115.613 511.881C112.12 511.721 108.63 511.56 105.138 511.402C100.089 501.401 94.128 486.248 93.5808 467.543C93.0085 448.033 98.9342 445.443 98.5582 426.762C98.0716 402.55 87.8994 396.09 82.4791 366.966C80.4071 355.828 79.0118 341.281 80.6703 323.631C90.2116 324.624 99.753 325.618 109.294 326.612Z" fill="url(#paint7_linear_520_1233)"/>
<path opacity="0.3" d="M80.6664 323.631C85.8193 324.167 90.9722 324.705 96.1272 325.241C105.403 341.354 107.993 358.123 106.366 365.54C104.062 376.035 97.9716 379.397 98.3058 389.934C98.6379 400.359 104.791 403.063 108.695 415.353C111.398 423.86 110.684 431.684 109.146 446.982C106.051 477.798 98.594 487.221 104.839 497.326C106.615 500.196 109.811 503.615 116.075 506.225C115.922 508.114 115.77 510.011 115.609 511.881C112.116 511.723 108.626 511.56 105.134 511.402C100.085 501.399 94.1241 486.248 93.5769 467.543C93.0046 448.033 98.9303 445.441 98.5543 426.762C98.0677 402.55 87.8955 396.092 82.4752 366.966C80.4032 355.828 79.0079 341.281 80.6664 323.631Z" fill="url(#paint8_linear_520_1233)"/>
<path d="M95.4413 335.993C90.608 362.303 86.3366 390.461 83.005 420.324C78.9821 456.382 76.8349 490.373 75.991 521.936C72.1582 522.044 68.3254 522.152 64.4946 522.261C49.3931 492.443 48.4699 472.228 50.6484 459.065C51.4881 453.993 53.7669 444.049 54.287 429.185C54.6483 418.823 53.9883 410.939 53.1591 401.46C51.3461 380.677 49.1445 376.141 48.8291 360.245C48.5325 345.327 48.4699 337.778 52.7371 333.371C63.9787 321.763 93.2231 334.966 95.4413 335.993Z" fill="url(#paint9_linear_520_1233)"/>
<path d="M119.954 347.58C123.626 341.499 119.014 335.635 117.963 324.113C116.773 311.054 121.813 308.882 126.799 287.24C130.114 272.85 133.295 259.032 129.497 242.859C127.678 235.108 124.591 221.962 113.69 215.612C108.065 212.335 100.385 212.662 85.2517 213.452C66.5387 214.428 57.1833 214.918 50.2069 218.585C49.1855 219.122 27.9577 230.645 26.4977 249.43C25.0105 268.549 45.8707 271.119 48.6529 296.613C49.9019 308.058 47.6754 325.662 46.232 337.08C44.8451 348.043 43.8927 350.849 46.0587 354.168C51.2826 362.167 67.2781 359.889 99.2671 355.329C111.814 353.543 117.216 352.117 119.954 347.58Z" fill="#FBC02D"/>
<path opacity="0.2" d="M71.2807 292.515C69.9272 297.485 65.0625 301.196 61.6766 313.283C60.9456 315.893 55.7384 334.476 62.4933 339.05C66.3951 341.691 69.8979 336.686 79.3662 336.033C95.7753 334.901 103.591 348.665 114.311 344.906C116.17 344.253 118.626 342.863 121.076 339.667C121.565 342.546 121.481 345.048 119.952 347.578C117.212 352.117 111.813 353.541 99.2635 355.329C67.2745 359.889 51.2789 362.169 46.055 354.168C43.8869 350.849 44.8414 348.041 46.2283 337.08C47.6717 325.662 49.8983 308.058 48.6492 296.613C45.867 271.117 25.0047 268.549 26.494 249.43C26.8908 244.318 28.7749 239.767 31.2939 235.806C57.7582 246.497 75.5333 276.9 71.2807 292.515Z" fill="url(#paint10_linear_520_1233)"/>
<path d="M37.8594 330.123L43.1543 333.498C44.1047 332.402 46.3062 330.192 49.7422 329.437C53.6147 328.589 58.0574 329.806 58.1619 331.04C58.2454 332.028 55.5384 333.025 55.1207 333.179C51.7432 334.424 49.2367 333.39 47.8707 334.745C47.3882 335.224 46.7866 336.117 45.4018 336.942C45.0384 337.159 44.6582 337.351 44.4556 337.43C42.2019 338.306 38.3335 334.386 38.0014 334.044L37.8594 330.123Z" fill="#D3766A"/>
<path d="M53.5 260.813C57.3307 251.657 60.2738 237.718 54.2248 216.9C14.3613 232.577 -6.25664 269.66 1.68055 299.121C8.22456 323.408 32.0299 335.237 37.3415 337.726C38.576 334.918 39.8125 332.112 41.049 329.306C34.8956 322.466 27.9589 312.351 28.9406 300.81C30.2983 284.81 45.7445 279.35 53.5 260.813Z" fill="#FBC02D"/>
<path d="M84.2726 194.619C84.2726 194.619 83.9572 201.577 81.7932 206.791C79.8382 211.503 69.5491 214.463 67.4624 215.514C65.3758 216.565 71.3704 219.639 77.3881 220.242C83.4057 220.847 100.594 219.481 103.692 217.205C106.789 214.928 101.202 215.099 96.9052 213.525C92.6108 211.951 90.1252 203.566 90.8834 199.762C91.6437 195.955 84.2726 194.619 84.2726 194.619Z" fill="#D3766A"/>
<path d="M93.7917 192.096C96.9143 189.034 97.3509 188.677 97.6913 187.618C99.0553 183.37 95.7551 177.551 91.4251 176.119C91.1995 176.044 88.2962 175.116 87.1871 176.375C86.2451 177.443 87.6299 178.919 86.9719 180.976C86.3558 182.903 84.6806 183.046 81.5809 185.573C79.0264 187.654 77.4389 188.948 77.0713 190.768C76.3152 194.521 80.8665 199.958 84.8936 199.81C86.3411 199.753 86.7359 199.015 93.7917 192.096Z" fill="url(#paint11_linear_520_1233)"/>
<path d="M85.284 200.387C85.284 200.387 88.603 204.138 93.6598 202.899C98.1882 201.788 97.0311 191.419 93.7183 189.761C92.6134 189.209 90.604 189.255 89.0938 189.98C88.2019 190.41 87.9534 190.856 86.4829 191.529C85.1252 192.15 84.695 192.063 84.3315 192.501C83.8741 193.047 83.6777 194.223 85.1085 197.062C84.0767 196.334 82.9676 196.18 82.2866 196.664C82.178 196.741 81.9023 197.01 81.7832 197.364C81.3509 198.646 82.6898 199.951 85.284 200.387Z" fill="#D3766A"/>
<path d="M93.979 219.543C93.3649 220.934 92.6672 222.37 91.8881 223.844C91.5289 224.518 91.1696 225.176 90.8104 225.812C89.3253 226.014 87.8423 226.223 86.3593 226.425C85.4674 224.405 84.5755 222.37 83.6836 220.344C84.7259 220.306 85.8183 220.254 86.9441 220.179C87.5582 220.194 88.2036 220.179 88.8699 220.142C90.0751 220.067 91.1863 219.925 92.1827 219.746C92.7863 219.685 93.3858 219.61 93.979 219.543Z" fill="url(#paint12_linear_520_1233)"/>
<path d="M90.7615 225.399C90.7615 225.399 95.8664 275.264 111.584 283.054C111.204 284.657 111.774 297.641 111.774 297.641C111.774 297.641 97.1614 293.455 96.3343 293.755C95.5092 294.055 78.3482 266.481 86.3522 226.427L90.7615 225.399Z" fill="url(#paint13_linear_520_1233)"/>
<path d="M379.743 270.846C375.119 270.98 370.609 269.817 366.701 267.48C354.797 260.358 337.208 248.596 321.384 233.201C301.305 213.665 289.769 193.806 287.243 174.305L287.204 173.999L286.715 90.7915C286.715 74.3473 297.461 60.9988 317.639 52.2263C334.309 44.9799 356.404 41.39 379.743 42.0633C402.813 42.7305 424.16 47.4815 439.959 55.3972C458.741 64.8076 468.596 78.031 468.596 93.7101L468.149 173.217L468.113 173.509C465.807 192.182 455.192 211.484 436.431 231.003C421.384 246.66 404.378 259.066 392.7 266.752C388.837 269.295 384.357 270.713 379.743 270.846Z" fill="#DD9900"/>
<path d="M384.321 270.846C379.757 270.98 375.306 269.817 371.453 267.48C359.706 260.358 342.35 248.596 326.735 233.201C306.921 213.665 295.537 193.806 293.046 174.305L293.006 173.999L292.523 90.7915C292.523 74.3473 303.128 60.9988 323.038 52.2263C339.487 44.9799 361.289 41.39 384.323 42.0633C407.089 42.7305 428.153 47.4815 443.744 55.3972C462.277 64.8076 472.002 78.031 472.002 93.7101L471.562 173.217L471.526 173.509C469.249 192.182 458.776 211.484 440.262 231.003C425.413 246.66 408.632 259.066 397.109 266.752C393.295 269.295 388.875 270.713 384.321 270.846Z" fill="#FBC02D"/>
<path d="M385.55 250.312C385.153 250.32 384.551 250.256 383.945 249.889C375.026 244.498 357.736 233.207 342.695 218.459C326.447 202.53 317.077 187.045 314.929 172.498L314.453 91.0813C314.472 83.2698 320.669 76.5842 332.813 71.2348C346.371 65.2621 365.625 62.1287 385.552 62.602C405.28 63.0689 423.972 67.0341 436.922 73.4467C448.377 79.1192 454.169 85.8069 454.187 93.3494L453.743 171.947C451.737 186.023 442.942 201.196 427.5 217.146C412.981 232.144 396.02 244.033 387.156 249.814C386.548 250.208 385.948 250.301 385.55 250.312Z" fill="#DD9900"/>
<path d="M383.513 244.746C374.504 239.209 358.488 228.516 344.512 214.79C329.243 199.793 320.408 185.4 318.33 172.083L317.855 91.1396C317.87 85.5546 323.015 80.4304 333.105 75.9712C345.949 70.2945 364.351 67.305 383.511 67.7324C402.487 68.1577 420.373 71.8977 432.663 77.9684C442.213 82.684 447.044 87.8291 447.058 93.2764L446.616 171.585C444.667 184.506 436.333 198.636 421.758 213.663C408.229 227.616 392.48 238.833 383.513 244.746Z" fill="#FBC02D"/>
<path opacity="0.8" d="M378.763 202.297C375.179 202.53 371.845 200.867 369.99 197.894L338.839 147.969C335.919 143.291 337.492 136.882 342.35 133.657C347.204 130.434 353.504 131.612 356.42 136.288L378.024 170.945L406.529 113.002C409.087 107.803 415.232 105.416 420.254 107.671C425.273 109.927 427.27 115.967 424.715 121.162L387.88 196.101C386.193 199.532 382.84 201.894 379.124 202.265C379.003 202.278 378.884 202.288 378.763 202.297Z" fill="white"/>
</g>
<defs>
<linearGradient id="paint0_linear_520_1233" x1="173.239" y1="47.048" x2="327.976" y2="47.048" gradientUnits="userSpaceOnUse">
<stop stop-color="#444B8C"/>
<stop offset="0.9964" stop-color="#26264F"/>
</linearGradient>
<linearGradient id="paint1_linear_520_1233" x1="167.827" y1="239.322" x2="205.295" y2="427.666" gradientUnits="userSpaceOnUse">
<stop stop-color="#FF9085"/>
<stop offset="1" stop-color="#FB6FBB"/>
</linearGradient>
<linearGradient id="paint2_linear_520_1233" x1="160.162" y1="240.847" x2="197.63" y2="429.19" gradientUnits="userSpaceOnUse">
<stop stop-color="#FF9085"/>
<stop offset="1" stop-color="#FB6FBB"/>
</linearGradient>
<linearGradient id="paint3_linear_520_1233" x1="160.162" y1="281.138" x2="197.63" y2="469.482" gradientUnits="userSpaceOnUse">
<stop stop-color="#FF9085"/>
<stop offset="1" stop-color="#FB6FBB"/>
</linearGradient>
<linearGradient id="paint4_linear_520_1233" x1="145.415" y1="243.78" x2="182.883" y2="432.124" gradientUnits="userSpaceOnUse">
<stop stop-color="#FF9085"/>
<stop offset="1" stop-color="#FB6FBB"/>
</linearGradient>
<linearGradient id="paint5_linear_520_1233" x1="131.436" y1="454.302" x2="111.17" y2="559.69" gradientUnits="userSpaceOnUse">
<stop stop-color="#311944"/>
<stop offset="1" stop-color="#893976"/>
</linearGradient>
<linearGradient id="paint6_linear_520_1233" x1="94.8129" y1="447.256" x2="74.5465" y2="552.645" gradientUnits="userSpaceOnUse">
<stop stop-color="#311944"/>
<stop offset="1" stop-color="#893976"/>
</linearGradient>
<linearGradient id="paint7_linear_520_1233" x1="122.926" y1="415.772" x2="85.8295" y2="418.752" gradientUnits="userSpaceOnUse">
<stop stop-color="#444B8C"/>
<stop offset="0.9964" stop-color="#26264F"/>
</linearGradient>
<linearGradient id="paint8_linear_520_1233" x1="122.923" y1="415.772" x2="85.8276" y2="418.752" gradientUnits="userSpaceOnUse">
<stop stop-color="#444B8C"/>
<stop offset="0.9964" stop-color="#26264F"/>
</linearGradient>
<linearGradient id="paint9_linear_520_1233" x1="102.408" y1="422.737" x2="46.0936" y2="427.259" gradientUnits="userSpaceOnUse">
<stop stop-color="#444B8C"/>
<stop offset="0.9964" stop-color="#26264F"/>
</linearGradient>
<linearGradient id="paint10_linear_520_1233" x1="-10.2394" y1="438.463" x2="100.663" y2="248.13" gradientUnits="userSpaceOnUse">
<stop stop-color="#FF9085"/>
<stop offset="1" stop-color="#FB6FBB"/>
</linearGradient>
<linearGradient id="paint11_linear_520_1233" x1="78.6332" y1="217.881" x2="90.5599" y2="178.57" gradientUnits="userSpaceOnUse">
<stop stop-color="#444B8C"/>
<stop offset="0.9964" stop-color="#3E4177"/>
</linearGradient>
<linearGradient id="paint12_linear_520_1233" x1="87.6245" y1="202.315" x2="89.6893" y2="232.623" gradientUnits="userSpaceOnUse">
<stop stop-color="#444B8C"/>
<stop offset="0.9964" stop-color="#26264F"/>
</linearGradient>
<linearGradient id="paint13_linear_520_1233" x1="98.0086" y1="273.363" x2="96.871" y2="185.693" gradientUnits="userSpaceOnUse">
<stop stop-color="#444B8C"/>
<stop offset="0.9964" stop-color="#26264F"/>
</linearGradient>
<clipPath id="clip0_520_1233">
<rect width="472" height="534" fill="white"/>
</clipPath>
</defs>
</svg>
