<svg width="888" height="472" viewBox="0 0 888 472" fill="none" xmlns="http://www.w3.org/2000/svg">
<g clip-path="url(#clip0_396_6832)">
<path d="M335.541 119.476C335.541 119.476 345.293 111.823 348.192 114.991C351.091 118.157 351.091 125.81 349.773 126.336C348.455 126.862 341.339 129.768 340.81 130.031C340.287 130.294 335.541 119.476 335.541 119.476Z" fill="url(#paint0_linear_396_6832)"/>
<path d="M342.83 132.58L349.776 130.314L346.69 109.814L336.775 112.952L342.83 132.58Z" fill="url(#paint1_linear_396_6832)"/>
<path d="M316.543 110.17C319.199 117.883 327.267 117.41 330.908 116.091L336.27 114.165C334.753 112.393 332.882 108.848 331.314 104.596C329.747 100.292 328.835 96.3937 328.785 94.1148L323.423 96.0405C319.778 97.3566 313.544 101.458 316.543 110.17Z" fill="url(#paint2_linear_396_6832)"/>
<path d="M373.823 115.411C373.823 115.411 373.447 115.891 371.477 115.335C365.203 113.562 353.064 108.448 332.425 115.841C331.161 116.297 328.428 111.993 326.305 106.219C324.181 100.498 323.472 95.4342 324.737 94.9777V94.9277C345.376 87.5346 351.397 76.0901 354.988 70.7727C355.394 70.1663 355.231 70.7527 355.534 70.4495C353.357 73.2848 355.291 82.7236 359.591 94.3214C364.394 107.179 370.535 116.677 373.823 115.411Z" fill="url(#paint3_linear_396_6832)"/>
<path d="M368.692 89.6136C373.901 101.974 376.178 113.535 373.791 115.415C371.412 117.344 365.261 108.828 360.085 96.4603C354.876 84.0996 352.6 72.5385 354.986 70.6594C357.343 68.787 363.484 77.2529 368.692 89.6136Z" fill="url(#paint4_linear_396_6832)"/>
<path d="M366.295 92.7555C367.583 96.1705 365.895 99.9553 362.537 101.298C362.437 101.351 362.287 101.405 362.134 101.458C361.023 99.2523 359.958 96.8468 358.992 94.3347C358.347 92.5755 357.754 90.9163 357.262 89.2571C357.411 89.2038 357.561 89.0972 357.764 89.0439C361.176 87.7012 364.957 89.3904 366.295 92.7555Z" fill="url(#paint5_linear_396_6832)"/>
<path d="M281.286 119.326L281.1 106.565L268.998 99.0658V120.989L281.286 119.326Z" fill="url(#paint6_linear_396_6832)"/>
<path d="M268.136 97.9363C268.136 97.9363 269.514 108.291 277.791 108.291C286.069 108.291 290.206 108.981 290.206 100.698C290.206 92.4123 292.276 84.1296 286.758 81.3676C281.239 78.6056 267.447 77.9159 268.136 89.6536C268.136 89.6536 264.688 86.8916 264.688 91.033C264.684 95.1776 264.684 99.319 268.136 97.9363Z" fill="url(#paint7_linear_396_6832)"/>
<path d="M268.135 100.009C268.135 100.009 246.754 84.1296 261.239 73.0849C275.724 62.0402 279.861 75.1572 292.965 66.1815C292.965 66.1815 305.379 76.5366 289.517 83.4399C289.517 83.4399 269.859 81.0244 271.241 92.0691C271.241 92.0691 269.17 89.3071 265.722 89.9968C262.271 90.6898 267.1 97.5931 268.135 100.009Z" fill="url(#paint8_linear_396_6832)"/>
<path d="M302.415 343.795H294.084L274.098 252.092L289.365 203.459L298.804 204.015L302.415 343.795Z" fill="url(#paint9_linear_396_6832)"/>
<path d="M294.157 343.488L292.539 348.673C291.96 350.528 293.345 352.411 295.285 352.411H319.226C319.226 352.411 319.782 347.95 314.213 346.833C308.642 345.717 303.629 343.488 303.629 343.488H294.157Z" fill="url(#paint10_linear_396_6832)"/>
<path d="M249.184 343.488L247.567 348.673C246.987 350.528 248.372 352.411 250.312 352.411H274.253C274.253 352.411 274.809 347.95 269.241 346.833C263.669 345.717 258.657 343.488 258.657 343.488H249.184Z" fill="url(#paint11_linear_396_6832)"/>
<path d="M290.476 197.902L252.722 191.231L249.391 343.518H258.83L290.476 197.902Z" fill="url(#paint12_linear_396_6832)"/>
<path d="M335.541 119.476L314.456 150.611L302.048 121.588C299.991 116.764 295.665 113.289 290.512 112.326C285.566 111.4 278.936 112.043 274.929 111.756C270.858 111.466 263.693 111.62 257.249 113.466C250.669 115.351 245.806 120.939 244.688 127.699C242.508 140.859 239.392 162.479 240.507 172.894C242.172 188.456 248.279 212.911 248.279 212.911H257.162L255.498 202.906L303.246 204.572L298.527 161.499L303.123 166.443C304.751 168.209 308.572 171.094 311.82 171.721C315.428 172.414 318.633 169.575 321.433 167.193L340.813 130.034L335.541 119.476Z" fill="url(#paint13_linear_396_6832)"/>
<path d="M257.163 212.908C257.163 212.908 258.827 218.465 258.827 220.134C258.827 221.8 258.271 223.469 257.163 221.8C256.051 220.134 256.607 225.692 257.163 228.47C257.719 231.249 252.719 232.918 248.835 228.47C244.948 224.022 248.835 212.908 248.835 212.908H257.163Z" fill="url(#paint14_linear_396_6832)"/>
<path opacity="0.1" d="M298.803 161.219V138.99L303.193 166.56L298.803 161.219Z" fill="black"/>
<path opacity="0.1" d="M255.498 203.459C255.498 203.459 253.278 183.452 253.833 174.003C254.389 164.554 257.721 150.661 257.721 150.661L259.941 203.462H255.498V203.459Z" fill="black"/>
<path d="M350.94 126.336C350.94 126.336 348.041 126.862 346.46 124.49C344.879 122.115 343.035 116.048 345.142 115.255C347.253 114.462 349.096 113.409 349.622 116.837" fill="url(#paint15_linear_396_6832)"/>
<path d="M337.186 118.28C337.186 118.28 339.366 116.048 340.354 116.311C341.343 116.574 340.817 117.367 340.817 118.157C340.817 118.946 337.918 120.532 337.918 120.532L337.186 118.28Z" fill="url(#paint16_linear_396_6832)"/>
<path d="M260.953 375.143C249.59 300.902 185.083 233.614 185.083 233.614H148.628H112.173C112.173 233.614 47.6629 300.902 36.3033 375.143C30.6784 411.905 59.0259 445.076 96.1801 445.076H148.628H201.076C238.227 445.073 266.578 411.905 260.953 375.143Z" fill="url(#paint17_linear_396_6832)"/>
<path d="M189.081 228.597C189.081 231.349 186.781 233.594 184.032 233.594H112.752C110.003 233.594 107.76 231.349 107.76 228.597C107.76 225.788 110.003 223.546 112.752 223.546H184.032C186.781 223.546 189.081 225.792 189.081 228.597Z" fill="url(#paint18_linear_396_6832)"/>
<path d="M118.473 223.546H112.752C109.387 213.497 85.1034 194.017 80.0543 188.963C74.952 183.855 95.3081 174.366 100.187 170.885C103.273 168.696 101.196 163.868 99.2322 160.5C103.722 167.406 115.108 188.123 118.473 223.546Z" fill="url(#paint19_linear_396_6832)"/>
<path d="M184.035 223.546H180.447C181.905 202.719 193.627 171.841 195.981 165.89C195.588 168.303 195.644 170.941 196.43 173.47C198.843 181.216 212.19 178.074 215.668 189.302C219.199 200.527 189.194 205.188 184.035 223.546Z" fill="url(#paint20_linear_396_6832)"/>
<path d="M198.504 157.751C197.832 159.097 196.54 162.185 196.034 165.777C195.978 165.834 195.978 165.834 195.978 165.89C193.621 171.841 181.902 202.719 180.444 223.546H118.474C115.109 188.123 103.723 167.406 99.2363 160.5C99.0699 160.22 98.9002 159.937 98.7304 159.657C97.9449 158.477 97.4956 157.861 97.4956 157.861C97.1594 157.411 97.3259 156.795 97.8318 156.568C105.347 153.37 162.411 119.459 198.108 156.568C198.427 156.898 198.674 157.301 198.504 157.751Z" fill="url(#paint21_linear_396_6832)"/>
<path d="M140.507 405.845V391.272C130.242 390.812 120.28 388.05 114.459 384.675L119.055 366.731C125.492 370.259 134.532 373.481 144.491 373.481C153.224 373.481 159.202 370.106 159.202 363.972C159.202 358.141 154.299 354.463 142.96 350.625C126.564 345.104 115.378 337.435 115.378 322.555C115.378 309.058 124.877 298.473 141.272 295.255V280.682H156.29V294.179C166.554 294.639 173.45 296.787 178.506 299.24L174.063 316.571C170.079 314.885 163.029 311.354 151.996 311.354C142.038 311.354 138.819 315.648 138.819 319.943C138.819 325.004 144.181 328.226 157.205 333.133C175.437 339.577 182.793 348.013 182.793 361.816C182.793 375.47 173.141 387.124 155.517 390.193V405.838H140.507V405.845Z" fill="url(#paint22_linear_396_6832)"/>
<path d="M242.36 340.22C242.067 342.039 240.622 343.535 238.702 343.802C211.612 347.566 206.75 324.574 201.121 297.947C199.557 290.55 197.94 282.904 195.766 274.808C186.214 239.222 150.161 232.155 149.798 232.089C147.462 231.655 145.888 229.38 146.35 227.071C146.78 224.732 149.026 223.186 151.363 223.619C153.064 223.932 193.13 231.795 204.077 272.576C206.31 280.898 208.028 289.008 209.539 296.168C215.663 325.131 219.144 337.828 237.52 335.272C239.873 334.946 242.047 336.592 242.373 338.947C242.433 339.38 242.426 339.81 242.36 340.22Z" fill="url(#paint23_linear_396_6832)"/>
<path d="M196.131 344.218C196.054 344.691 195.898 345.161 195.652 345.607C194.507 347.693 191.894 348.453 189.811 347.31C174.52 338.901 175.226 325.777 181.39 287.359C187.098 251.786 150.014 233.235 148.433 232.465C146.299 231.422 145.411 228.843 146.446 226.711C147.484 224.572 150.05 223.679 152.187 224.715C152.633 224.932 196.614 246.785 189.884 288.725C183.393 329.165 184.968 334.823 193.951 339.76C195.588 340.663 196.411 342.475 196.131 344.218Z" fill="url(#paint24_linear_396_6832)"/>
<path d="M314.581 430.163H205.598C207.288 428.807 209.435 428.001 211.768 428.001H308.407C310.743 428.001 312.89 428.807 314.581 430.163Z" fill="url(#paint25_linear_396_6832)"/>
<path d="M314.559 445.709C312.868 447.059 310.732 447.862 308.408 447.862H211.77C209.444 447.862 207.3 447.055 205.609 445.709H314.559Z" fill="url(#paint26_linear_396_6832)"/>
<path d="M318.325 437.933C318.325 440.675 317.213 443.157 315.419 444.95C315.149 445.22 314.86 445.476 314.56 445.709H205.611C203.321 443.897 201.85 441.085 201.85 437.933C201.85 435.191 202.961 432.709 204.755 430.91C205.018 430.647 205.304 430.393 205.597 430.16H314.58C316.86 431.979 318.325 434.785 318.325 437.933Z" fill="url(#paint27_linear_396_6832)"/>
<path d="M307.21 410.303H198.227C199.917 408.947 202.064 408.141 204.397 408.141H301.036C303.369 408.141 305.519 408.947 307.21 410.303Z" fill="url(#paint28_linear_396_6832)"/>
<path d="M307.188 425.849C305.497 427.198 303.36 428.001 301.037 428.001H204.399C202.073 428.001 199.929 427.195 198.238 425.849H307.188Z" fill="url(#paint29_linear_396_6832)"/>
<path d="M310.953 418.073C310.953 420.815 309.841 423.297 308.047 425.089C307.778 425.359 307.488 425.616 307.189 425.849H198.236C195.946 424.036 194.475 421.224 194.475 418.073C194.475 415.331 195.586 412.848 197.38 411.049C197.643 410.786 197.929 410.533 198.222 410.3H307.205C309.489 412.122 310.953 414.927 310.953 418.073Z" fill="url(#paint30_linear_396_6832)"/>
<path d="M314.577 390.446H205.598C207.288 389.09 209.435 388.284 211.768 388.284H308.407C310.74 388.284 312.887 389.09 314.577 390.446Z" fill="url(#paint31_linear_396_6832)"/>
<path d="M314.555 405.992C312.864 407.341 310.728 408.144 308.404 408.144H211.766C209.44 408.144 207.296 407.338 205.605 405.992H314.555Z" fill="url(#paint32_linear_396_6832)"/>
<path d="M318.321 398.215C318.321 400.957 317.209 403.44 315.415 405.232C315.146 405.502 314.856 405.759 314.556 405.992H205.607C203.317 404.179 201.846 401.367 201.846 398.215C201.846 395.473 202.957 392.991 204.751 391.192C205.014 390.929 205.301 390.676 205.593 390.443H314.576C316.856 392.265 318.321 395.067 318.321 398.215Z" fill="url(#paint33_linear_396_6832)"/>
<path d="M307.206 370.585H198.223C199.913 369.229 202.06 368.423 204.393 368.423H301.032C303.368 368.423 305.515 369.233 307.206 370.585Z" fill="url(#paint34_linear_396_6832)"/>
<path d="M307.184 386.131C305.493 387.481 303.357 388.284 301.033 388.284H204.395C202.069 388.284 199.925 387.477 198.234 386.131H307.184Z" fill="url(#paint35_linear_396_6832)"/>
<path d="M310.95 378.355C310.95 381.097 309.838 383.579 308.044 385.372C307.774 385.642 307.485 385.898 307.185 386.131H198.236C195.946 384.319 194.475 381.507 194.475 378.355C194.475 375.613 195.586 373.131 197.38 371.332C197.643 371.069 197.929 370.815 198.222 370.582H307.205C309.485 372.405 310.95 375.21 310.95 378.355Z" fill="url(#paint36_linear_396_6832)"/>
<path d="M310.954 350.742H201.971C203.661 349.386 205.808 348.579 208.141 348.579H304.78C307.113 348.583 309.263 349.389 310.954 350.742Z" fill="url(#paint37_linear_396_6832)"/>
<path d="M310.932 366.291C309.241 367.64 307.105 368.443 304.781 368.443H208.143C205.817 368.443 203.673 367.637 201.982 366.291H310.932Z" fill="url(#paint38_linear_396_6832)"/>
<path d="M314.697 358.515C314.697 361.257 313.585 363.739 311.791 365.531C311.522 365.801 311.232 366.058 310.933 366.291H201.98C199.69 364.478 198.219 361.666 198.219 358.515C198.219 355.773 199.33 353.29 201.124 351.491C201.387 351.228 201.674 350.975 201.966 350.742H310.949C313.233 352.561 314.697 355.366 314.697 358.515Z" fill="url(#paint39_linear_396_6832)"/>
<path d="M314.591 445.877H314.561V445.543L314.591 445.877Z" fill="url(#paint40_linear_396_6832)"/>
<path d="M318.322 462.461C349.478 462.461 374.734 437.179 374.734 405.992C374.734 374.804 349.478 349.522 318.322 349.522C287.167 349.522 261.91 374.804 261.91 405.992C261.91 437.179 287.167 462.461 318.322 462.461Z" fill="url(#paint41_linear_396_6832)"/>
<path d="M318.322 354.257C289.778 354.257 266.643 377.419 266.643 405.988C266.643 414.911 268.899 423.31 272.873 430.637C272.877 430.64 272.88 430.65 272.88 430.653C281.63 446.779 298.698 457.727 318.322 457.727C337.962 457.727 355.043 446.766 363.79 430.62C367.754 423.297 370.007 414.908 370.007 405.992C370.007 377.419 346.869 354.257 318.322 354.257Z" fill="url(#paint42_linear_396_6832)"/>
<path d="M318.323 444.653C339.654 444.653 356.945 427.344 356.945 405.992C356.945 384.64 339.654 367.33 318.323 367.33C296.993 367.33 279.701 384.64 279.701 405.992C279.701 427.344 296.993 444.653 318.323 444.653Z" fill="url(#paint43_linear_396_6832)"/>
<path d="M323.181 437.53L321.041 430.453C315.988 431.739 310.746 431.866 307.421 431.083L307.019 421.691C310.663 422.457 315.526 422.69 320.362 421.224C324.602 419.938 327.009 417.42 326.11 414.441C325.255 411.609 322.332 410.543 316.261 410.35C307.488 410.083 300.931 408.004 298.744 400.778C296.761 394.224 299.819 387.684 307.308 383.709L305.168 376.632L312.46 374.424L314.444 380.977C319.497 379.691 323.161 379.718 325.977 380.164L326.366 389.236C324.183 389.003 320.242 388.327 314.883 389.953C310.047 391.419 309.115 393.978 309.744 396.063C310.487 398.522 313.565 399.295 320.612 399.761C330.413 400.205 335.223 403.22 337.25 409.923C339.257 416.553 336.278 423.633 328.173 427.718L330.473 435.314L323.181 437.53Z" fill="url(#paint44_linear_396_6832)"/>
<path opacity="0.46" d="M363.789 430.617C355.039 446.762 337.961 457.724 318.321 457.724C298.697 457.724 281.629 446.779 272.879 430.65C283.153 444.6 299.679 453.649 318.321 453.649C336.976 453.652 353.521 444.587 363.789 430.617Z" fill="url(#paint45_linear_396_6832)"/>
<path d="M793.289 177.525C793.236 178.374 793.116 179.187 792.949 179.964C793.116 185.877 797.003 186.271 798.531 184.861C800.059 183.452 798.751 190.642 796.278 204.285C796.268 204.339 796.261 204.399 796.251 204.452C795.213 210.426 796.547 216.05 798.734 220.318C799.546 221.883 800.465 223.273 801.417 224.429C803.783 227.281 806.389 228.724 808.1 228.024C812.337 226.301 808.276 213.874 808.11 213.358C808.31 213.551 811.335 216.549 815.136 213.341C819.067 210.026 813.459 208.573 809.528 184.865C805.597 161.153 789.824 169.742 789.824 169.742C792.127 171.831 793.482 174.639 793.289 177.525Z" fill="url(#paint46_linear_396_6832)"/>
<path d="M776.551 201.193C776.358 202.953 782.782 195.779 784.449 194.703C784.579 194.617 784.765 193.174 784.929 191.425C785.208 188.556 785.471 184.865 785.471 184.865C784.912 185.294 785.471 191.458 778.987 193.864C778.412 194.073 777.869 194.16 777.353 194.117C777.353 194.117 777.247 194.983 777.117 196.146C776.994 197.152 776.854 198.375 776.741 199.434C776.654 200.117 776.594 200.737 776.551 201.193Z" fill="url(#paint47_linear_396_6832)"/>
<path d="M807.967 267.748H766.066C766.1 258.253 770.526 249.653 771.562 239.205C772.021 234.581 771.615 231.655 770.849 229.423C769.631 225.862 767.494 224.099 766.526 220.021C766.1 218.195 766.669 215.83 767.737 213.341C767.737 213.334 767.737 213.334 767.737 213.334C768.386 211.815 769.215 210.249 770.117 208.75C773.079 203.765 776.737 199.431 776.737 199.431C776.657 200.117 776.594 200.734 776.547 201.187C776.358 202.949 782.775 195.773 784.449 194.696C784.449 194.696 792.004 199.261 796.278 204.289C797.389 205.591 798.278 206.927 798.758 208.223C799.843 211.145 801.131 220.298 801.929 229.84C801.929 229.84 801.929 229.84 801.929 229.846C801.806 230.213 798.069 241.364 800.222 246.198C802.412 251.116 809.122 261.141 807.967 267.748Z" fill="url(#paint48_linear_396_6832)"/>
<path d="M819.158 438.889H811.393C811.393 438.889 791.793 371.205 785.475 348.679C784.344 344.645 783.096 340.067 781.784 335.209C777.997 321.189 773.666 304.431 770.558 291.467C770.538 291.38 770.511 291.297 770.491 291.224C770.478 291.137 770.451 291.047 770.438 290.974C770.431 290.954 770.431 290.94 770.425 290.914C768.431 282.598 766.943 275.814 766.387 272.166C766.164 270.667 766.068 269.194 766.075 267.751H807.975C813.856 283.244 809.393 295.262 804.836 341.926L819.158 438.889Z" fill="url(#paint49_linear_396_6832)"/>
<path d="M776.194 438.893H768.446C768.446 438.893 753.225 355.296 752.184 348.673C751.135 342.046 766.063 267.748 766.063 267.748C766.056 269.197 766.153 270.667 766.379 272.169C766.932 275.814 768.419 282.598 770.413 290.914C770.42 290.937 770.42 290.957 770.426 290.974C770.443 291.05 770.466 291.134 770.486 291.223C770.503 291.3 770.529 291.383 770.553 291.467C773.665 304.43 777.992 321.186 781.779 335.212C781.779 335.212 775.762 347.16 774.018 352.397C772.274 357.628 776.194 438.893 776.194 438.893Z" fill="url(#paint50_linear_396_6832)"/>
<path d="M770.121 178.907C770.121 178.907 771.729 193.67 777.357 194.117C777.873 194.16 778.415 194.073 778.991 193.864C785.475 191.458 784.915 185.291 785.475 184.865C785.518 184.828 785.571 184.828 785.624 184.865C786.453 185.371 790.84 183.099 789.618 178.907C788.43 174.839 785.591 176.932 784.543 180.823C783.504 184.708 782.602 181.35 781.521 177.298C780.436 173.257 779.973 174.106 777.956 171.761C775.929 169.415 772.225 171.131 771.472 173.493C770.697 175.862 770.121 178.907 770.121 178.907Z" fill="url(#paint51_linear_396_6832)"/>
<path d="M770.85 229.426C770.85 229.426 754.155 245.889 749.745 242.157C747.618 240.351 744.702 231.772 742.256 223.376L744.479 221.837L749.106 219.098H749.112C751.322 224.139 753.389 228.54 753.922 228.683C755.183 229.03 767.351 213.824 767.738 213.348C766.666 215.836 766.097 218.205 766.526 220.028C767.498 224.102 769.631 225.865 770.85 229.426Z" fill="url(#paint52_linear_396_6832)"/>
<path d="M776.893 449.011H773.845L773.482 446.352L769.405 449.011C769.405 449.011 759.387 449.361 758.684 449.011C757.989 448.664 758.248 446.396 759.47 446.042C760.691 445.696 766.09 444.65 766.875 442.907C766.875 442.907 767.102 442.991 767.471 443.087C768.836 443.444 772.124 443.993 772.856 441.191C773.292 439.516 776.321 440.698 776.321 440.698L776.893 449.011Z" fill="url(#paint53_linear_396_6832)"/>
<path d="M776.323 440.698C776.323 440.698 773.294 439.519 772.858 441.191C772.126 443.993 768.834 443.444 767.473 443.087C768.944 441.978 768.448 438.893 768.448 438.893H776.196L776.323 440.698Z" fill="url(#paint54_linear_396_6832)"/>
<path d="M819.849 449.011H816.8L816.437 446.352L812.36 449.011C812.36 449.011 802.342 449.361 801.639 449.011C800.944 448.664 801.203 446.396 802.425 446.042C803.646 445.696 809.045 444.65 809.83 442.907C809.83 442.907 810.057 442.991 810.426 443.087C811.791 443.444 815.079 443.993 815.811 441.191C816.247 439.516 819.276 440.698 819.276 440.698L819.849 449.011Z" fill="url(#paint55_linear_396_6832)"/>
<path d="M819.276 440.698C819.276 440.698 816.247 439.519 815.811 441.191C815.079 443.993 811.787 443.444 810.426 443.087C811.897 441.978 811.401 438.893 811.401 438.893H819.149L819.276 440.698Z" fill="url(#paint56_linear_396_6832)"/>
<path d="M741.547 203.759L740.632 204.165L739.547 201.723L738.678 199.764L738.142 198.548C738.129 198.531 738.119 198.501 738.112 198.478L737.047 196.083L734.404 190.119L735.32 189.709L738.392 196.639L741.214 203.019C741.214 203.019 741.214 203.019 741.221 203.019L741.547 203.759Z" fill="url(#paint57_linear_396_6832)"/>
<path d="M740.562 197.735C739.603 198.115 738.711 197.349 738.395 196.632C738.072 195.916 740.479 195.633 740.758 195.769C740.758 195.769 740.901 196.072 740.991 196.442C740.991 196.442 740.998 196.459 741.004 196.502C741.004 196.532 741.011 196.556 741.018 196.586C741.024 196.632 741.034 196.692 741.041 196.759C741.071 197.159 740.981 197.568 740.562 197.735Z" fill="url(#paint58_linear_396_6832)"/>
<path d="M749.108 219.098L744.482 221.837C744.482 221.837 740.301 208.84 739.792 207.707C739.283 206.574 737.549 205.545 737.549 205.545C737.549 205.545 735.984 201.943 735.169 201.367C734.47 200.864 735.974 197.325 737.046 196.082C737.229 195.866 737.406 195.716 737.549 195.669C738.424 195.356 737.881 197.825 738.111 198.478C738.118 198.498 738.131 198.531 738.144 198.545C738.171 198.585 738.204 198.611 738.248 198.625C738.614 198.711 738.66 199.154 738.68 199.757C738.694 200.014 738.694 200.294 738.707 200.59C738.727 200.884 739.066 201.283 739.546 201.716C740.028 202.156 740.644 202.613 741.213 203.012C741.213 203.012 741.213 203.012 741.22 203.012C741.985 203.556 742.664 203.969 742.764 204.029C742.764 204.035 742.771 204.035 742.771 204.035C742.771 204.035 746.079 212.178 749.108 219.098Z" fill="url(#paint59_linear_396_6832)"/>
<path d="M742.761 204.035C742.664 203.975 741.989 203.559 741.22 203.016C741.213 203.016 741.213 203.016 741.213 203.016L738.391 196.636C738.707 197.352 739.599 198.118 740.557 197.738C740.98 197.572 741.07 197.162 741.033 196.762C741.17 197.625 741.533 200.057 741.583 201.31C741.636 202.753 742.638 203.892 742.761 204.035Z" fill="url(#paint60_linear_396_6832)"/>
<path d="M754.197 213.474L751.182 219.098L744.482 205.125C744.482 205.125 742.022 203.559 741.047 202.629C740.072 201.693 741.29 198.491 741.203 197.842C741.11 197.192 738.887 196.029 738.398 195.739C737.902 195.446 737.482 194.573 737.978 194.123C738.481 193.684 746.006 197.842 746.006 197.842L748.093 204.035L754.197 213.474Z" fill="url(#paint61_linear_396_6832)"/>
<path d="M774.801 244.672C763.96 244.503 748.883 223.376 748.883 223.376L751.179 219.095L754.195 213.471C754.195 213.471 767.089 229.057 772.035 229.836C774.684 230.256 778.525 221.947 778.525 221.947C786.729 207.6 792.354 204.765 794.834 204.299C795.646 204.142 796.495 204.415 797.091 204.985C808.607 215.95 785.405 244.836 774.801 244.672Z" fill="url(#paint62_linear_396_6832)"/>
<path d="M770.121 178.907C770.121 178.907 770.697 175.862 771.466 173.493C772.218 171.131 775.923 169.419 777.95 171.761C779.967 174.106 780.433 173.257 781.514 177.298C782.599 181.346 783.498 184.705 784.536 180.823C785.585 176.932 788.424 174.839 789.612 178.907C790.837 183.095 786.45 185.371 785.618 184.865C785.565 184.828 785.512 184.828 785.468 184.865C785.468 184.865 785.206 188.556 784.926 191.425C788.308 188.966 791.812 185.224 792.947 179.967C793.114 179.187 793.237 178.374 793.287 177.528C793.48 174.643 792.125 171.834 789.819 169.745C786.893 167.086 782.436 165.574 777.673 166.49C769.15 168.123 770.121 178.907 770.121 178.907Z" fill="url(#paint63_linear_396_6832)"/>
<path d="M807.99 213.475L807.934 213.341H808.127L807.99 213.475ZM808.127 213.341H808.1L808.231 213.244L808.127 213.341Z" fill="url(#paint64_linear_396_6832)"/>
<path d="M532.691 186.844C532.691 186.844 532.022 196.312 531.683 196.532C530.035 197.595 523.711 204.668 523.895 202.933C523.941 202.486 524.004 201.876 524.081 201.2C524.197 200.154 524.34 198.951 524.457 197.958C524.587 196.812 524.69 195.956 524.69 195.956C525.196 195.996 525.728 195.919 526.298 195.709C532.685 193.337 532.132 187.26 532.691 186.844Z" fill="url(#paint65_linear_396_6832)"/>
<path d="M536.977 255.227L530.181 268.514H513.562C513.599 259.162 517.956 250.683 518.978 240.391C519.434 235.837 519.038 232.951 518.279 230.756C517.077 227.244 514.97 225.508 514.022 221.49C513.599 219.694 514.162 217.356 515.213 214.91C515.213 214.903 515.22 214.897 515.22 214.897C517.983 208.427 524.083 201.2 524.083 201.2C524.007 201.876 523.944 202.486 523.897 202.933C523.714 204.672 530.038 197.595 531.685 196.532C531.685 196.532 539.127 201.037 543.341 205.984C523.105 206.807 536.977 255.227 536.977 255.227Z" fill="url(#paint66_linear_396_6832)"/>
<path d="M554.855 268.514H541.582C544.974 263.214 547.869 258.456 548.755 256.374C551.477 260.965 553.461 264.839 554.855 268.514Z" fill="url(#paint67_linear_396_6832)"/>
<path d="M565.876 437.16H558.227C558.227 437.16 538.906 370.462 532.689 348.263C531.574 344.288 530.342 339.78 529.048 334.992C525.317 321.172 521.053 304.66 517.984 291.886C517.961 291.803 517.938 291.723 517.921 291.647C517.904 291.56 517.881 291.477 517.861 291.4C517.854 291.383 517.854 291.363 517.848 291.34C515.884 283.144 514.416 276.464 513.87 272.869C513.647 271.39 513.554 269.94 513.561 268.511H554.852C560.647 283.777 556.247 295.625 551.76 341.609L565.876 437.16Z" fill="url(#paint68_linear_396_6832)"/>
<path d="M548.754 256.374C547.869 258.459 544.97 263.214 541.582 268.514C535.278 278.35 527.27 290.057 527.27 290.057L521.975 284.563L530.179 268.518L536.975 255.231C536.975 255.231 523.103 206.811 543.333 205.988C544.431 207.274 545.303 208.59 545.779 209.863C546.847 212.745 548.112 221.763 548.904 231.162V231.169C549.813 241.93 550.099 253.195 548.754 256.374Z" fill="url(#paint69_linear_396_6832)"/>
<path d="M523.546 437.16H515.91C515.91 437.16 500.913 354.786 499.888 348.256C498.856 341.726 513.567 268.511 513.567 268.511C513.561 269.937 513.654 271.39 513.877 272.869C514.423 276.461 515.887 283.144 517.854 291.34C517.861 291.363 517.861 291.38 517.867 291.4C517.884 291.477 517.907 291.56 517.927 291.647C517.944 291.723 517.967 291.807 517.991 291.886C521.059 304.664 525.323 321.172 529.054 334.992C529.054 334.992 523.123 346.763 521.406 351.924C519.681 357.082 523.546 437.16 523.546 437.16Z" fill="url(#paint70_linear_396_6832)"/>
<path d="M532.83 186.844C532.777 186.807 532.731 186.807 532.691 186.844C532.135 187.26 532.684 193.337 526.297 195.709C525.728 195.919 525.195 195.996 524.689 195.956C519.141 195.516 517.557 180.973 517.557 180.973C517.557 180.973 518.126 177.971 518.878 175.642C519.624 173.307 523.278 171.614 525.272 173.926C527.259 176.239 527.718 175.406 528.786 179.387C529.855 183.375 530.74 186.69 531.772 182.856C532.797 179.021 535.603 176.962 536.768 180.97C537.969 185.101 533.646 187.337 532.83 186.844Z" fill="url(#paint71_linear_396_6832)"/>
<path d="M518.28 230.756C518.28 230.756 501.828 246.978 497.482 243.297C493.128 239.608 485.463 207.224 485.463 207.224L490.612 205.738C490.612 205.738 500.344 229.68 501.599 230.023C502.844 230.363 514.835 215.373 515.212 214.91C514.163 217.359 513.597 219.694 514.02 221.49C514.972 225.508 517.079 227.244 518.28 230.756Z" fill="url(#paint72_linear_396_6832)"/>
<path d="M524.235 447.132H521.233L520.873 444.513L516.856 447.132C516.856 447.132 506.984 447.478 506.292 447.132C505.606 446.792 505.863 444.553 507.067 444.207C508.269 443.867 513.591 442.834 514.363 441.118C514.363 441.118 514.586 441.201 514.949 441.295C516.294 441.648 519.535 442.188 520.258 439.429C520.687 437.78 523.672 438.943 523.672 438.943L524.235 447.132Z" fill="url(#paint73_linear_396_6832)"/>
<path d="M523.669 438.939C523.669 438.939 520.683 437.776 520.254 439.426C519.532 442.184 516.29 441.645 514.945 441.291C516.393 440.199 515.907 437.157 515.907 437.157H523.542L523.669 438.939Z" fill="url(#paint74_linear_396_6832)"/>
<path d="M566.564 447.132H563.562L563.205 444.513L559.188 447.132C559.188 447.132 549.316 447.478 548.624 447.132C547.938 446.792 548.195 444.553 549.4 444.207C550.601 443.867 555.923 442.834 556.695 441.118C556.695 441.118 556.918 441.201 557.281 441.295C558.626 441.648 561.868 442.188 562.59 439.429C563.019 437.78 566.005 438.943 566.005 438.943L566.564 447.132Z" fill="url(#paint75_linear_396_6832)"/>
<path d="M565.997 438.939C565.997 438.939 563.011 437.776 562.582 439.426C561.86 442.184 558.618 441.645 557.273 441.291C558.721 440.199 558.235 437.157 558.235 437.157H565.871L565.997 438.939Z" fill="url(#paint76_linear_396_6832)"/>
<path d="M489.403 205.461L488.501 205.861L487.433 203.452L486.578 201.52L486.048 200.324C486.035 200.307 486.025 200.277 486.018 200.254L484.97 197.895L482.367 192.018L483.269 191.611L486.295 198.438L489.074 204.725C489.074 204.725 489.074 204.725 489.08 204.725L489.403 205.461Z" fill="url(#paint77_linear_396_6832)"/>
<path d="M488.432 199.527C487.487 199.904 486.608 199.144 486.299 198.441C485.982 197.738 488.352 197.455 488.628 197.588C488.628 197.588 488.768 197.888 488.858 198.251C488.858 198.251 488.865 198.268 488.871 198.311C488.871 198.341 488.878 198.365 488.884 198.395C488.891 198.441 488.901 198.501 488.908 198.565C488.934 198.958 488.848 199.361 488.432 199.527Z" fill="url(#paint78_linear_396_6832)"/>
<path d="M490.611 205.738L485.462 207.224C485.462 207.224 483.921 203.672 483.116 203.102C482.43 202.609 483.915 199.121 484.97 197.895C485.153 197.685 485.323 197.538 485.462 197.488C486.324 197.182 485.792 199.614 486.018 200.254C486.025 200.277 486.035 200.307 486.048 200.324C486.078 200.364 486.108 200.387 486.148 200.4C486.511 200.487 486.557 200.924 486.577 201.523C486.591 201.776 486.591 202.053 486.607 202.346C486.624 202.629 486.96 203.026 487.433 203.456C487.909 203.885 488.511 204.335 489.074 204.728C489.074 204.728 489.074 204.728 489.08 204.728C489.836 205.261 490.505 205.675 490.598 205.731C490.608 205.738 490.611 205.738 490.611 205.738Z" fill="url(#paint79_linear_396_6832)"/>
<path d="M490.6 205.731C490.507 205.671 489.838 205.261 489.083 204.728C489.076 204.728 489.076 204.728 489.076 204.728L486.297 198.441C486.606 199.144 487.488 199.904 488.43 199.528C488.846 199.364 488.936 198.958 488.9 198.565C489.036 199.418 489.392 201.813 489.439 203.046C489.492 204.468 490.477 205.591 490.6 205.731Z" fill="url(#paint80_linear_396_6832)"/>
<path d="M527.269 290.057C527.269 290.057 527.269 290.057 526.424 292.466C525.585 294.875 524.377 297.164 521.97 297.281C519.754 297.381 518.509 293.899 517.983 291.89C517.96 291.807 517.936 291.727 517.92 291.65C517.903 291.563 517.88 291.48 517.86 291.403C517.853 291.387 517.853 291.367 517.847 291.343C517.507 289.448 521.97 284.563 521.97 284.563L527.269 290.057Z" fill="url(#paint81_linear_396_6832)"/>
<path d="M548.907 231.166V231.159C548.115 221.76 546.847 212.741 545.782 209.859C545.306 208.586 544.434 207.27 543.335 205.984C539.125 201.033 531.68 196.532 531.68 196.532C532.019 196.316 532.688 186.844 532.688 186.844C532.728 186.807 532.775 186.807 532.828 186.844C533.643 187.337 537.967 185.101 536.762 180.973C535.594 176.962 532.791 179.024 531.766 182.859C530.734 186.694 529.849 183.375 528.781 179.39C527.712 175.409 527.256 176.242 525.266 173.93C523.272 171.618 519.618 173.307 518.872 175.646C518.12 177.978 517.551 180.976 517.551 180.976C517.551 180.976 519.135 195.519 524.683 195.959C524.683 195.959 524.577 196.815 524.45 197.962L515.447 203.206C506.175 188.939 514.755 174.689 514.755 174.689C514.755 174.689 521.675 158.8 536.972 169.992C547.15 177.441 549.669 203.206 560.649 211.465C583.994 229.017 553.194 241.241 548.907 231.166Z" fill="url(#paint82_linear_396_6832)"/>
<path d="M632.143 446.302C632.143 448.438 633.314 448.974 635.661 448.974C638.007 448.974 644.457 449.507 645.632 448.974C646.804 448.441 649.74 446.715 649.74 447.905C649.74 449.507 652.086 449.507 653.258 448.974C654.429 448.441 654.429 439.899 654.429 439.899H645.632C645.632 439.899 642.7 440.432 642.114 442.571C641.528 444.7 632.143 444.163 632.143 446.302Z" fill="url(#paint83_linear_396_6832)"/>
<path d="M676.52 446.302C676.52 448.438 677.691 448.974 680.038 448.974C682.384 448.974 688.834 449.507 690.009 448.974C691.181 448.441 694.117 446.715 694.117 447.905C694.117 449.507 696.463 449.507 697.635 448.974C698.806 448.441 698.806 439.899 698.806 439.899H690.009C690.009 439.899 687.077 440.432 686.491 442.571C685.906 444.7 676.52 444.163 676.52 446.302Z" fill="url(#paint84_linear_396_6832)"/>
<path d="M668.894 193.3C669.523 193.3 669.986 193.007 670.332 192.547C670.332 192.541 670.332 192.541 670.332 192.541C671.28 191.295 671.4 188.873 671.826 188.013C672.266 187.133 672.049 186.587 672.156 185.871C672.192 185.631 672.266 185.371 672.415 185.078C673.001 183.905 674.762 179.207 672.415 179.207C670.069 179.207 671.83 185.664 670.655 185.078C669.483 184.491 670.069 177.445 669.483 175.096C668.897 172.747 667.137 173.923 667.137 177.445C667.137 177.445 667.113 178.091 667.097 179.117C667.017 183.195 667.024 193.3 668.894 193.3Z" fill="url(#paint85_linear_396_6832)"/>
<path d="M661.856 172.164C665.963 175.099 665.963 175.099 664.788 176.275C663.616 177.448 667.094 179.124 667.094 179.124C667.111 178.098 667.134 177.451 667.134 177.451C667.134 173.93 668.895 172.754 669.481 175.103C670.067 177.451 669.481 184.498 670.652 185.084C671.824 185.671 670.067 179.214 672.413 179.214C674.759 179.214 672.999 183.912 672.413 185.084C672.267 185.378 672.19 185.638 672.153 185.877C672.153 185.877 673.585 190.369 674.17 193.304H679.449C679.449 193.304 690.007 178.624 688.246 172.754C686.485 166.883 681.796 160.423 673.581 162.772C665.37 165.121 663.024 163.358 661.852 162.185C660.684 161.009 657.752 169.229 661.856 172.164Z" fill="url(#paint86_linear_396_6832)"/>
<path d="M670.332 192.551C670.362 192.644 670.984 194.9 670.455 198.411C674.502 196.772 677.964 197.039 679.428 197.265C678.882 193.87 679.452 193.3 679.452 193.3H674.173C673.587 190.365 672.156 185.874 672.156 185.874C672.049 186.59 672.266 187.137 671.826 188.016C671.397 188.873 671.281 191.298 670.332 192.544C670.332 192.544 670.332 192.544 670.332 192.551Z" fill="url(#paint87_linear_396_6832)"/>
<path d="M672.195 328.629L681.598 376.779L689.832 439.895H698.806C699.315 429.134 696.459 376.779 696.459 376.779C698.805 349.479 698.806 298.203 698.806 298.203C698.806 298.203 698.699 293.776 698.483 286.879H698.476C698.479 286.879 683.884 305.73 672.195 328.629Z" fill="url(#paint88_linear_396_6832)"/>
<path d="M605.766 207.68C605.766 207.68 628.119 250.733 636.529 250.733C644.834 250.733 659.828 234.581 660.191 234.194C660.038 234.824 654.552 257.393 649.696 286.879H698.483C697.754 263.81 695.79 213.094 692.449 207.687C688.145 200.717 680.177 197.412 680.177 197.412C680.177 197.412 679.914 197.342 679.425 197.265C677.957 197.035 674.499 196.772 670.452 198.411C669.823 198.665 669.18 198.968 668.521 199.321C668.521 199.321 660.357 202.01 658.11 204.752C655.864 207.494 636.133 230.186 636.133 230.186C636.133 230.186 616.48 210.559 610.279 203.412L605.766 207.68Z" fill="url(#paint89_linear_396_6832)"/>
<path d="M642.3 364.938L645.432 439.895H654.429C654.429 439.895 656.759 371.302 660.683 357.108C663.309 347.596 667.522 337.788 672.195 328.625C683.884 305.726 698.479 286.876 698.479 286.876H649.696C645.725 311.011 642.171 339.767 642.3 364.938Z" fill="url(#paint90_linear_396_6832)"/>
<path d="M601.246 201.05C601.053 202.889 605.769 207.68 605.769 207.68L610.286 203.412C610.286 203.412 609.853 198.345 608.285 197.095C606.724 195.846 603.885 191.964 602.714 191.165C601.542 190.365 603.792 194.816 603.792 196.016C603.789 197.219 601.442 199.208 601.246 201.05Z" fill="url(#paint91_linear_396_6832)"/>
<path d="M607.478 56.9393C605.527 63.103 605.454 68.6837 607.198 70.123C607.354 70.2529 607.531 70.3496 607.717 70.4095C609.977 71.1258 613.532 66.2582 615.662 59.5347C617.789 52.8146 617.682 46.7842 615.419 46.0679C615.249 46.0146 615.073 45.9912 614.89 45.9979C612.633 46.0912 609.445 50.7223 607.478 56.9393Z" fill="url(#paint92_linear_396_6832)"/>
<path d="M604.859 56.1397C602.732 62.8631 602.23 68.3472 606.673 70.0564L607.718 70.4095C607.532 70.3495 607.355 70.2529 607.199 70.123C605.455 68.6837 605.528 63.103 607.479 56.9393C609.446 50.7223 612.637 46.0912 614.894 45.9979C615.077 45.9912 615.254 46.0146 615.423 46.0679L614.378 45.7147C610.607 43.9755 606.986 49.4163 604.859 56.1397Z" fill="url(#paint93_linear_396_6832)"/>
<path d="M608.307 57.2025C606.517 62.8631 606.567 67.9274 608.417 68.5138C610.268 69.1001 613.223 64.9888 615.014 59.3282C616.804 53.6676 616.754 48.6033 614.904 48.0169C613.053 47.4306 610.098 51.5452 608.307 57.2025Z" fill="url(#paint94_linear_396_6832)"/>
<path d="M609.341 57.509C608.18 61.1773 608.24 64.469 609.474 64.8589C610.709 65.2487 612.65 62.5933 613.808 58.925C614.97 55.2568 614.91 51.965 613.675 51.5752C612.443 51.1854 610.503 53.8408 609.341 57.509Z" fill="url(#paint95_linear_396_6832)"/>
<path d="M609.373 63.093L609.896 61.847C609.636 61.0607 609.826 59.8346 610.282 58.7485C610.741 57.649 611.174 57.2059 611.766 57.2558C612.199 57.2658 612.415 57.1759 612.585 56.7727C612.728 56.4296 612.805 55.9898 612.602 55.6833C612.375 55.3434 612.112 55.4067 611.972 55.4167L612.458 53.9008C612.645 53.8608 612.858 53.9041 613.084 54.184L613.533 53.1112L613.843 53.5743L613.357 54.7337C613.587 55.4967 613.43 56.6295 612.981 57.7056C612.485 58.8884 611.999 59.1549 611.477 59.0883C611.114 59.045 610.891 59.1849 610.698 59.648C610.495 60.1345 610.505 60.5876 610.684 60.8574C610.891 61.164 611.184 61.1873 611.433 61.104L610.931 62.6732C610.698 62.7632 610.402 62.6732 610.175 62.3934L609.689 63.5528L609.373 63.093Z" fill="url(#paint96_linear_396_6832)"/>
<path d="M453.227 93.9749C458.02 98.8592 464.244 100.668 467.812 98.4161C468.135 98.2129 468.438 97.973 468.714 97.6998C472.042 94.428 470.505 87.4613 465.279 82.1306C460.054 76.8031 453.124 75.1373 449.796 78.4057C449.546 78.6522 449.326 78.9154 449.13 79.1986C446.717 82.717 448.394 89.0472 453.227 93.9749Z" fill="url(#paint97_linear_396_6832)"/>
<path d="M451.659 95.4808C456.885 100.808 463.818 102.477 467.146 99.2057L468.714 97.6997C468.437 97.9729 468.134 98.2128 467.812 98.4161C464.244 100.668 458.02 98.8625 453.227 93.9749C448.394 89.0472 446.716 82.7136 449.126 79.202C449.323 78.9188 449.542 78.6522 449.792 78.409L448.224 79.915C444.899 83.1867 446.437 90.1567 451.659 95.4808Z" fill="url(#paint98_linear_396_6832)"/>
<path d="M454.451 92.7754C458.851 97.26 464.629 98.7259 467.355 96.0439C470.081 93.3652 468.727 87.5546 464.327 83.0701C459.926 78.5856 454.149 77.1196 451.423 79.8017C448.697 82.4804 450.051 88.2876 454.451 92.7754Z" fill="url(#paint99_linear_396_6832)"/>
<path d="M455.949 91.2695C458.801 94.1781 462.582 95.0877 464.4 93.3019C466.217 91.5161 465.378 87.7145 462.526 84.8059C459.674 81.8973 455.893 80.9878 454.075 82.7736C452.258 84.5594 453.097 88.3642 455.949 91.2695Z" fill="url(#paint100_linear_396_6832)"/>
<path d="M463.375 92.399L462.403 91.4694C462.053 91.9925 461.561 92.3523 461.158 92.4489L460.106 91.0563C460.539 90.9363 461.035 90.6565 461.345 90.12C461.614 89.6503 461.574 89.1139 461.165 88.7241C460.775 88.3509 460.379 88.3809 459.774 88.7474C458.898 89.2771 458.043 89.3871 457.051 88.4409C456.152 87.5813 455.74 86.3952 456.032 85.309L455.061 84.3795L455.527 83.5732L456.425 84.4328C456.775 83.9097 457.131 83.6765 457.45 83.5632L458.469 84.9059C458.232 85.0125 457.78 85.1658 457.44 85.7588C457.131 86.2952 457.317 86.7417 457.603 87.0149C457.94 87.3381 458.322 87.2548 459.051 86.8683C460.043 86.2986 460.835 86.4418 461.754 87.3214C462.663 88.191 463.142 89.4537 462.799 90.5965L463.841 91.5927L463.375 92.399Z" fill="url(#paint101_linear_396_6832)"/>
<path d="M514.848 10.6782C517.817 13.7034 521.671 14.8229 523.881 13.4269C524.081 13.3003 524.267 13.1537 524.44 12.9838C526.501 10.9581 525.549 6.64347 522.314 3.34173C519.078 0.0433096 514.785 -0.989528 512.724 1.03617C512.571 1.18943 512.435 1.35268 512.312 1.52926C510.817 3.70488 511.856 7.62633 514.848 10.6782Z" fill="url(#paint102_linear_396_6832)"/>
<path d="M513.879 11.6111C517.114 14.9128 521.408 15.9457 523.471 13.9166L524.44 12.9838C524.27 13.1503 524.08 13.3003 523.881 13.4269C521.671 14.8229 517.816 13.7034 514.847 10.6782C511.855 7.62633 510.817 3.70488 512.308 1.52926C512.431 1.35267 512.567 1.18942 512.721 1.03616L511.752 1.96904C509.692 3.99474 510.644 8.31266 513.879 11.6111Z" fill="url(#paint103_linear_396_6832)"/>
<path d="M515.606 9.9319C518.332 12.7106 521.91 13.6168 523.598 11.9576C525.285 10.2984 524.447 6.70012 521.724 3.92145C518.998 1.14279 515.42 0.236557 513.733 1.89576C512.042 3.55829 512.881 7.15657 515.606 9.9319Z" fill="url(#paint104_linear_396_6832)"/>
<path d="M516.535 9.00235C518.302 10.8015 520.646 11.3679 521.767 10.2617C522.892 9.15561 522.373 6.80007 520.606 5.00094C518.838 3.2018 516.495 2.63541 515.374 3.74154C514.249 4.84435 514.768 7.19988 516.535 9.00235Z" fill="url(#paint105_linear_396_6832)"/>
<path d="M521.135 9.70201L520.532 9.12562C520.316 9.4488 520.013 9.67202 519.76 9.732L519.108 8.86908C519.377 8.79578 519.684 8.6192 519.873 8.28935C520.04 7.99949 520.016 7.66632 519.763 7.4231C519.524 7.19321 519.277 7.20987 518.901 7.43643C518.359 7.76294 517.83 7.83291 517.214 7.24652C516.658 6.71344 516.402 5.98046 516.585 5.30745L515.982 4.73106L516.269 4.2313L516.825 4.76438C517.041 4.4412 517.26 4.29461 517.46 4.22464L518.089 5.05757C517.943 5.12421 517.663 5.2175 517.45 5.58732C517.261 5.91716 517.374 6.19703 517.553 6.36361C517.763 6.56352 517.999 6.51354 518.449 6.27366C519.064 5.92049 519.554 6.01045 520.123 6.55352C520.685 7.09326 520.982 7.87289 520.772 8.58255L521.418 9.19892L521.135 9.70201Z" fill="url(#paint106_linear_396_6832)"/>
<path d="M443.215 333.053C446.184 336.079 450.038 337.198 452.248 335.802C452.448 335.675 452.634 335.529 452.807 335.359C454.868 333.333 453.916 329.019 450.681 325.717C447.445 322.419 443.152 321.386 441.092 323.411C440.939 323.565 440.802 323.728 440.679 323.904C439.185 326.08 440.223 330.002 443.215 333.053Z" fill="url(#paint107_linear_396_6832)"/>
<path d="M442.246 333.986C445.481 337.288 449.775 338.321 451.838 336.292L452.807 335.359C452.637 335.526 452.447 335.675 452.248 335.802C450.038 337.198 446.183 336.079 443.215 333.053C440.222 330.002 439.184 326.08 440.675 323.904C440.795 323.728 440.935 323.565 441.088 323.411L440.119 324.344C438.059 326.373 439.011 330.688 442.246 333.986Z" fill="url(#paint108_linear_396_6832)"/>
<path d="M443.974 332.31C446.7 335.089 450.278 335.995 451.965 334.336C453.652 332.677 452.814 329.079 450.091 326.3C447.365 323.521 443.787 322.615 442.1 324.274C440.409 325.933 441.248 329.532 443.974 332.31Z" fill="url(#paint109_linear_396_6832)"/>
<path d="M444.902 331.377C446.67 333.177 449.013 333.743 450.134 332.637C451.259 331.531 450.74 329.175 448.973 327.376C447.205 325.577 444.862 325.011 443.741 326.117C442.616 327.223 443.135 329.578 444.902 331.377Z" fill="url(#paint110_linear_396_6832)"/>
<path d="M449.502 332.077L448.899 331.501C448.683 331.824 448.38 332.047 448.127 332.107L447.475 331.244C447.744 331.171 448.051 330.994 448.24 330.665C448.407 330.375 448.384 330.041 448.131 329.798C447.891 329.568 447.645 329.585 447.269 329.812C446.726 330.138 446.197 330.208 445.581 329.622C445.025 329.089 444.769 328.356 444.952 327.683L444.35 327.106L444.636 326.606L445.192 327.14C445.408 326.816 445.628 326.67 445.827 326.6L446.456 327.433C446.31 327.499 446.03 327.593 445.817 327.962C445.628 328.296 445.741 328.572 445.921 328.739C446.13 328.939 446.367 328.889 446.816 328.649C447.432 328.296 447.921 328.386 448.49 328.929C449.053 329.468 449.349 330.248 449.139 330.958L449.785 331.574L449.502 332.077Z" fill="url(#paint111_linear_396_6832)"/>
<path d="M771.182 25.4911C774.151 28.5163 778.005 29.6358 780.215 28.2398C780.415 28.1132 780.601 27.9666 780.774 27.7966C782.835 25.771 781.883 21.4564 778.647 18.1546C775.412 14.8562 771.119 13.8234 769.058 15.8491C768.905 16.0023 768.769 16.1656 768.646 16.3422C767.151 18.5178 768.19 22.4426 771.182 25.4911Z" fill="url(#paint112_linear_396_6832)"/>
<path d="M770.213 26.424C773.448 29.7257 777.742 30.7586 779.805 28.7295L780.774 27.7966C780.604 27.9632 780.414 28.1132 780.215 28.2398C778.004 29.6358 774.15 28.5163 771.181 25.4911C768.189 22.4392 767.151 18.5178 768.642 16.3421C768.762 16.1656 768.901 16.0023 769.055 15.849L768.086 16.7819C766.026 18.811 766.978 23.1256 770.213 26.424Z" fill="url(#paint113_linear_396_6832)"/>
<path d="M771.94 24.7481C774.666 27.5268 778.244 28.433 779.931 26.7738C781.618 25.1146 780.78 21.5163 778.057 18.7377C775.331 15.959 771.753 15.0528 770.066 16.712C768.375 18.3712 769.217 21.9695 771.94 24.7481Z" fill="url(#paint114_linear_396_6832)"/>
<path d="M772.869 23.8152C774.636 25.6144 776.98 26.1808 778.101 25.0746C779.226 23.9685 778.707 21.613 776.94 19.8138C775.172 18.0147 772.829 17.4483 771.708 18.5544C770.583 19.6606 771.102 22.0161 772.869 23.8152Z" fill="url(#paint115_linear_396_6832)"/>
<path d="M777.469 24.5182L776.866 23.9418C776.65 24.265 776.347 24.4882 776.094 24.5482L775.442 23.6853C775.711 23.612 776.018 23.4354 776.207 23.1056C776.374 22.8157 776.35 22.4825 776.097 22.2393C775.858 22.0094 775.611 22.0261 775.235 22.2526C774.693 22.5792 774.164 22.6491 773.548 22.0627C772.992 21.5297 772.736 20.7967 772.919 20.1237L772.316 19.5473L772.603 19.0475L773.158 19.5806C773.375 19.2574 773.595 19.1108 773.794 19.0409L774.423 19.8738C774.277 19.9404 773.997 20.0337 773.784 20.4035C773.595 20.7367 773.708 21.0132 773.887 21.1798C774.097 21.3797 774.333 21.3298 774.783 21.0899C775.399 20.7367 775.888 20.8267 776.457 21.3697C777.019 21.9095 777.316 22.6891 777.106 23.3988L777.752 24.0151L777.469 24.5182Z" fill="url(#paint116_linear_396_6832)"/>
<path d="M730.317 121.495C727.348 124.52 723.494 125.64 721.284 124.244C721.084 124.117 720.898 123.97 720.725 123.801C718.664 121.775 719.616 117.46 722.852 114.159C726.087 110.86 730.38 109.827 732.441 111.853C732.594 112.006 732.73 112.169 732.853 112.346C734.351 114.522 733.313 118.443 730.317 121.495Z" fill="url(#paint117_linear_396_6832)"/>
<path d="M731.289 122.428C728.054 125.73 723.761 126.762 721.697 124.733L720.729 123.801C720.898 123.967 721.088 124.117 721.288 124.244C723.498 125.64 727.352 124.52 730.321 121.495C733.313 118.443 734.351 114.522 732.86 112.346C732.741 112.169 732.601 112.006 732.448 111.853L733.416 112.786C735.476 114.812 734.525 119.129 731.289 122.428Z" fill="url(#paint118_linear_396_6832)"/>
<path d="M729.561 120.752C726.836 123.531 723.258 124.437 721.57 122.778C719.883 121.118 720.722 117.52 723.444 114.742C726.17 111.963 729.748 111.057 731.435 112.716C733.126 114.375 732.284 117.973 729.561 120.752Z" fill="url(#paint119_linear_396_6832)"/>
<path d="M728.633 119.819C726.866 121.618 724.523 122.185 723.401 121.079C722.276 119.972 722.795 117.617 724.562 115.818C726.33 114.019 728.673 113.452 729.795 114.558C730.92 115.661 730.397 118.017 728.633 119.819Z" fill="url(#paint120_linear_396_6832)"/>
<path d="M723.746 120.019L724.392 119.403C724.182 118.696 724.478 117.913 725.041 117.374C725.61 116.827 726.099 116.741 726.715 117.094C727.168 117.334 727.404 117.384 727.61 117.184C727.787 117.014 727.903 116.737 727.713 116.407C727.5 116.041 727.221 115.944 727.074 115.878L727.703 115.045C727.903 115.115 728.123 115.261 728.339 115.584L728.895 115.051L729.181 115.551L728.579 116.128C728.759 116.801 728.506 117.534 727.95 118.067C727.337 118.653 726.805 118.586 726.262 118.257C725.886 118.03 725.64 118.013 725.4 118.243C725.147 118.486 725.124 118.816 725.29 119.109C725.48 119.439 725.786 119.616 726.056 119.689L725.404 120.552C725.154 120.492 724.848 120.269 724.631 119.946L724.029 120.522L723.746 120.019Z" fill="url(#paint121_linear_396_6832)"/>
<path d="M371.219 226.338C366.946 230.693 361.397 232.305 358.215 230.296C357.926 230.116 357.656 229.9 357.41 229.66C354.441 226.744 355.812 220.531 360.472 215.78C365.128 211.032 371.309 209.543 374.278 212.461C374.501 212.681 374.697 212.918 374.87 213.168C377.02 216.299 375.526 221.947 371.219 226.338Z" fill="url(#paint122_linear_396_6832)"/>
<path d="M372.614 227.681C367.954 232.432 361.774 233.918 358.808 231.002L357.41 229.66C357.656 229.903 357.926 230.116 358.216 230.296C361.398 232.305 366.946 230.693 371.219 226.338C375.526 221.943 377.024 216.299 374.874 213.168C374.698 212.914 374.501 212.678 374.281 212.461L375.679 213.804C378.642 216.719 377.274 222.933 372.614 227.681Z" fill="url(#paint123_linear_396_6832)"/>
<path d="M370.127 225.268C366.207 229.267 361.054 230.573 358.621 228.184C356.188 225.795 357.397 220.614 361.321 216.616C365.241 212.618 370.394 211.312 372.827 213.701C375.256 216.09 374.048 221.267 370.127 225.268Z" fill="url(#paint124_linear_396_6832)"/>
<path d="M368.79 223.926C366.248 226.518 362.876 227.327 361.255 225.738C359.637 224.146 360.383 220.757 362.926 218.165C365.469 215.573 368.84 214.76 370.461 216.353C372.082 217.942 371.333 221.334 368.79 223.926Z" fill="url(#paint125_linear_396_6832)"/>
<path d="M361.754 224.216L362.683 223.326C362.38 222.307 362.806 221.184 363.614 220.407C364.433 219.621 365.139 219.495 366.024 220.001C366.676 220.347 367.016 220.421 367.316 220.131C367.572 219.888 367.738 219.488 367.462 219.011C367.159 218.482 366.753 218.345 366.543 218.252L367.449 217.052C367.735 217.156 368.051 217.362 368.361 217.829L369.163 217.062L369.575 217.782L368.71 218.612C368.97 219.581 368.604 220.637 367.801 221.404C366.916 222.25 366.154 222.15 365.372 221.677C364.833 221.35 364.476 221.327 364.13 221.657C363.768 222.007 363.731 222.483 363.971 222.903C364.247 223.379 364.686 223.629 365.072 223.739L364.134 224.979C363.771 224.892 363.335 224.572 363.022 224.106L362.157 224.935L361.754 224.216Z" fill="url(#paint126_linear_396_6832)"/>
</g>
<defs>
<linearGradient id="paint0_linear_396_6832" x1="360.846" y1="121.198" x2="334.375" y2="122.898" gradientUnits="userSpaceOnUse">
<stop stop-color="#AD6359"/>
<stop offset="0.2378" stop-color="#AD6359"/>
<stop offset="0.7374" stop-color="#AD6359"/>
<stop offset="1" stop-color="#AD6359"/>
</linearGradient>
<linearGradient id="paint1_linear_396_6832" x1="349.775" y1="121.196" x2="336.774" y2="121.196" gradientUnits="userSpaceOnUse">
<stop stop-color="#BE73DE"/>
<stop offset="1" stop-color="#514EB7"/>
</linearGradient>
<linearGradient id="paint2_linear_396_6832" x1="336.269" y1="105.486" x2="315.751" y2="105.486" gradientUnits="userSpaceOnUse">
<stop stop-color="#BE73DE"/>
<stop offset="1" stop-color="#514EB7"/>
</linearGradient>
<linearGradient id="paint3_linear_396_6832" x1="388.328" y1="77.6908" x2="317.289" y2="123.153" gradientUnits="userSpaceOnUse">
<stop stop-color="#FFD571"/>
<stop offset="0.2509" stop-color="#FFBD60"/>
<stop offset="0.7782" stop-color="#FF8035"/>
<stop offset="1" stop-color="#FF6421"/>
</linearGradient>
<linearGradient id="paint4_linear_396_6832" x1="390.794" y1="73.9263" x2="354.716" y2="99.9869" gradientUnits="userSpaceOnUse">
<stop stop-color="#FFD571"/>
<stop offset="0.2509" stop-color="#FFBD60"/>
<stop offset="0.7782" stop-color="#FF8035"/>
<stop offset="1" stop-color="#FF6421"/>
</linearGradient>
<linearGradient id="paint5_linear_396_6832" x1="366.729" y1="95.02" x2="357.263" y2="95.02" gradientUnits="userSpaceOnUse">
<stop stop-color="#BE73DE"/>
<stop offset="1" stop-color="#514EB7"/>
</linearGradient>
<linearGradient id="paint6_linear_396_6832" x1="289.619" y1="108.735" x2="267.989" y2="109.552" gradientUnits="userSpaceOnUse">
<stop stop-color="#AD6359"/>
<stop offset="0.2378" stop-color="#AD6359"/>
<stop offset="0.7374" stop-color="#AD6359"/>
<stop offset="1" stop-color="#AD6359"/>
</linearGradient>
<linearGradient id="paint7_linear_396_6832" x1="308.148" y1="92.3019" x2="262.665" y2="95.0725" gradientUnits="userSpaceOnUse">
<stop stop-color="#AD6359"/>
<stop offset="0.2378" stop-color="#AD6359"/>
<stop offset="0.7374" stop-color="#AD6359"/>
<stop offset="1" stop-color="#AD6359"/>
</linearGradient>
<linearGradient id="paint8_linear_396_6832" x1="321.542" y1="52.7392" x2="254.947" y2="92.1009" gradientUnits="userSpaceOnUse">
<stop stop-color="#808080"/>
<stop offset="0.6386" stop-color="#52524D"/>
<stop offset="1" stop-color="#3C3C35"/>
</linearGradient>
<linearGradient id="paint9_linear_396_6832" x1="302.414" y1="273.628" x2="274.098" y2="273.628" gradientUnits="userSpaceOnUse">
<stop stop-color="#BE73DE"/>
<stop offset="1" stop-color="#514EB7"/>
</linearGradient>
<linearGradient id="paint10_linear_396_6832" x1="329.215" y1="351.078" x2="285.535" y2="346.507" gradientUnits="userSpaceOnUse">
<stop stop-color="#808080"/>
<stop offset="0.6386" stop-color="#52524D"/>
<stop offset="1" stop-color="#3C3C35"/>
</linearGradient>
<linearGradient id="paint11_linear_396_6832" x1="283.693" y1="353.264" x2="240.011" y2="345.368" gradientUnits="userSpaceOnUse">
<stop stop-color="#808080"/>
<stop offset="0.6386" stop-color="#52524D"/>
<stop offset="1" stop-color="#3C3C35"/>
</linearGradient>
<linearGradient id="paint12_linear_396_6832" x1="290.476" y1="267.375" x2="249.39" y2="267.375" gradientUnits="userSpaceOnUse">
<stop stop-color="#BE73DE"/>
<stop offset="1" stop-color="#514EB7"/>
</linearGradient>
<linearGradient id="paint13_linear_396_6832" x1="212.839" y1="219.371" x2="352.743" y2="91.8103" gradientUnits="userSpaceOnUse">
<stop stop-color="#30944C"/>
<stop offset="0.41" stop-color="#8ABB62"/>
<stop offset="0.8161" stop-color="#DEDF77"/>
<stop offset="1" stop-color="#FFED7F"/>
</linearGradient>
<linearGradient id="paint14_linear_396_6832" x1="266.774" y1="220.983" x2="246.154" y2="221.872" gradientUnits="userSpaceOnUse">
<stop stop-color="#AD6359"/>
<stop offset="0.2378" stop-color="#AD6359"/>
<stop offset="0.7374" stop-color="#AD6359"/>
<stop offset="1" stop-color="#AD6359"/>
</linearGradient>
<linearGradient id="paint15_linear_396_6832" x1="355.514" y1="119.718" x2="343.642" y2="120.17" gradientUnits="userSpaceOnUse">
<stop stop-color="#AD6359"/>
<stop offset="0.2378" stop-color="#AD6359"/>
<stop offset="0.7374" stop-color="#AD6359"/>
<stop offset="1" stop-color="#AD6359"/>
</linearGradient>
<linearGradient id="paint16_linear_396_6832" x1="343.513" y1="118.161" x2="336.89" y2="118.557" gradientUnits="userSpaceOnUse">
<stop stop-color="#AD6359"/>
<stop offset="0.2378" stop-color="#AD6359"/>
<stop offset="0.7374" stop-color="#AD6359"/>
<stop offset="1" stop-color="#AD6359"/>
</linearGradient>
<linearGradient id="paint17_linear_396_6832" x1="128.83" y1="223.926" x2="166.203" y2="526.344" gradientUnits="userSpaceOnUse">
<stop stop-color="#BE73DE"/>
<stop offset="1" stop-color="#514EB7"/>
</linearGradient>
<linearGradient id="paint18_linear_396_6832" x1="107.762" y1="228.571" x2="189.082" y2="228.571" gradientUnits="userSpaceOnUse">
<stop stop-color="#F7F7F7"/>
<stop offset="1" stop-color="white"/>
</linearGradient>
<linearGradient id="paint19_linear_396_6832" x1="74.8813" y1="198.043" x2="121.715" y2="189.762" gradientUnits="userSpaceOnUse">
<stop stop-color="#BE73DE"/>
<stop offset="1" stop-color="#514EB7"/>
</linearGradient>
<linearGradient id="paint20_linear_396_6832" x1="221.01" y1="197.063" x2="174.594" y2="193.751" gradientUnits="userSpaceOnUse">
<stop stop-color="#BE73DE"/>
<stop offset="1" stop-color="#514EB7"/>
</linearGradient>
<linearGradient id="paint21_linear_396_6832" x1="146.814" y1="128.336" x2="151.798" y2="256.525" gradientUnits="userSpaceOnUse">
<stop stop-color="#BE73DE"/>
<stop offset="1" stop-color="#514EB7"/>
</linearGradient>
<linearGradient id="paint22_linear_396_6832" x1="112.447" y1="304.104" x2="233.674" y2="438.664" gradientUnits="userSpaceOnUse">
<stop stop-color="#FFD571"/>
<stop offset="0.2509" stop-color="#FFBD60"/>
<stop offset="0.7782" stop-color="#FF8035"/>
<stop offset="1" stop-color="#FF6421"/>
</linearGradient>
<linearGradient id="paint23_linear_396_6832" x1="185.793" y1="336.995" x2="202.697" y2="231.872" gradientUnits="userSpaceOnUse">
<stop stop-color="#F7F7F7"/>
<stop offset="1" stop-color="white"/>
</linearGradient>
<linearGradient id="paint24_linear_396_6832" x1="161.948" y1="343.086" x2="180.286" y2="229.049" gradientUnits="userSpaceOnUse">
<stop stop-color="#F7F7F7"/>
<stop offset="1" stop-color="white"/>
</linearGradient>
<linearGradient id="paint25_linear_396_6832" x1="260.09" y1="429.869" x2="260.09" y2="428.288" gradientUnits="userSpaceOnUse">
<stop stop-color="#FDC830"/>
<stop offset="1" stop-color="#F37335"/>
</linearGradient>
<linearGradient id="paint26_linear_396_6832" x1="260.017" y1="448.027" x2="260.083" y2="445.721" gradientUnits="userSpaceOnUse">
<stop stop-color="#FDC830"/>
<stop offset="1" stop-color="#F37335"/>
</linearGradient>
<linearGradient id="paint27_linear_396_6832" x1="259.904" y1="430.907" x2="260.431" y2="451.071" gradientUnits="userSpaceOnUse">
<stop stop-color="#FFC05B"/>
<stop offset="0.5642" stop-color="#FFD980"/>
<stop offset="1" stop-color="#FFE999"/>
</linearGradient>
<linearGradient id="paint28_linear_396_6832" x1="252.718" y1="410.011" x2="252.718" y2="408.429" gradientUnits="userSpaceOnUse">
<stop stop-color="#FDC830"/>
<stop offset="1" stop-color="#F37335"/>
</linearGradient>
<linearGradient id="paint29_linear_396_6832" x1="252.645" y1="428.169" x2="252.711" y2="425.862" gradientUnits="userSpaceOnUse">
<stop stop-color="#FDC830"/>
<stop offset="1" stop-color="#F37335"/>
</linearGradient>
<linearGradient id="paint30_linear_396_6832" x1="252.531" y1="411.048" x2="253.059" y2="431.212" gradientUnits="userSpaceOnUse">
<stop stop-color="#FFC05B"/>
<stop offset="0.5642" stop-color="#FFD980"/>
<stop offset="1" stop-color="#FFE999"/>
</linearGradient>
<linearGradient id="paint31_linear_396_6832" x1="260.087" y1="390.152" x2="260.087" y2="388.571" gradientUnits="userSpaceOnUse">
<stop stop-color="#FDC830"/>
<stop offset="1" stop-color="#F37335"/>
</linearGradient>
<linearGradient id="paint32_linear_396_6832" x1="260.014" y1="408.31" x2="260.08" y2="406.004" gradientUnits="userSpaceOnUse">
<stop stop-color="#FDC830"/>
<stop offset="1" stop-color="#F37335"/>
</linearGradient>
<linearGradient id="paint33_linear_396_6832" x1="259.9" y1="391.19" x2="260.428" y2="411.354" gradientUnits="userSpaceOnUse">
<stop stop-color="#FFC05B"/>
<stop offset="0.5642" stop-color="#FFD980"/>
<stop offset="1" stop-color="#FFE999"/>
</linearGradient>
<linearGradient id="paint34_linear_396_6832" x1="252.715" y1="370.293" x2="252.715" y2="368.712" gradientUnits="userSpaceOnUse">
<stop stop-color="#FDC830"/>
<stop offset="1" stop-color="#F37335"/>
</linearGradient>
<linearGradient id="paint35_linear_396_6832" x1="252.642" y1="388.451" x2="252.708" y2="386.145" gradientUnits="userSpaceOnUse">
<stop stop-color="#FDC830"/>
<stop offset="1" stop-color="#F37335"/>
</linearGradient>
<linearGradient id="paint36_linear_396_6832" x1="252.529" y1="371.331" x2="253.056" y2="391.495" gradientUnits="userSpaceOnUse">
<stop stop-color="#FFC05B"/>
<stop offset="0.5642" stop-color="#FFD980"/>
<stop offset="1" stop-color="#FFE999"/>
</linearGradient>
<linearGradient id="paint37_linear_396_6832" x1="256.462" y1="350.451" x2="256.462" y2="348.869" gradientUnits="userSpaceOnUse">
<stop stop-color="#FDC830"/>
<stop offset="1" stop-color="#F37335"/>
</linearGradient>
<linearGradient id="paint38_linear_396_6832" x1="256.389" y1="368.608" x2="256.455" y2="366.302" gradientUnits="userSpaceOnUse">
<stop stop-color="#FDC830"/>
<stop offset="1" stop-color="#F37335"/>
</linearGradient>
<linearGradient id="paint39_linear_396_6832" x1="256.275" y1="351.488" x2="256.803" y2="371.652" gradientUnits="userSpaceOnUse">
<stop stop-color="#FFC05B"/>
<stop offset="0.5642" stop-color="#FFD980"/>
<stop offset="1" stop-color="#FFE999"/>
</linearGradient>
<linearGradient id="paint40_linear_396_6832" x1="314.56" y1="445.708" x2="314.592" y2="445.708" gradientUnits="userSpaceOnUse">
<stop offset="0.0027027" stop-color="#C662C2"/>
<stop offset="0.1241" stop-color="#B95DBC"/>
<stop offset="0.3491" stop-color="#9751AB"/>
<stop offset="0.6531" stop-color="#5F3D90"/>
<stop offset="1" stop-color="#17236D"/>
</linearGradient>
<linearGradient id="paint41_linear_396_6832" x1="261.91" y1="405.991" x2="374.736" y2="405.991" gradientUnits="userSpaceOnUse">
<stop stop-color="#FFC05B"/>
<stop offset="0.5642" stop-color="#FFD980"/>
<stop offset="1" stop-color="#FFE999"/>
</linearGradient>
<linearGradient id="paint42_linear_396_6832" x1="314.911" y1="457.615" x2="321.749" y2="354.368" gradientUnits="userSpaceOnUse">
<stop stop-color="#FDC830"/>
<stop offset="1" stop-color="#F37335"/>
</linearGradient>
<linearGradient id="paint43_linear_396_6832" x1="342.091" y1="438.867" x2="293.507" y2="371.799" gradientUnits="userSpaceOnUse">
<stop stop-color="#FFC05B"/>
<stop offset="0.5642" stop-color="#FFD980"/>
<stop offset="1" stop-color="#FFE999"/>
</linearGradient>
<linearGradient id="paint44_linear_396_6832" x1="298.153" y1="405.977" x2="337.855" y2="405.977" gradientUnits="userSpaceOnUse">
<stop stop-color="#FDC830"/>
<stop offset="1" stop-color="#F37335"/>
</linearGradient>
<linearGradient id="paint45_linear_396_6832" x1="272.879" y1="444.172" x2="363.789" y2="444.172" gradientUnits="userSpaceOnUse">
<stop stop-color="#FDC830"/>
<stop offset="1" stop-color="#F37335"/>
</linearGradient>
<linearGradient id="paint46_linear_396_6832" x1="816.471" y1="198.213" x2="789.822" y2="198.213" gradientUnits="userSpaceOnUse">
<stop stop-color="#808080"/>
<stop offset="0.6386" stop-color="#52524D"/>
<stop offset="1" stop-color="#3C3C35"/>
</linearGradient>
<linearGradient id="paint47_linear_396_6832" x1="791.522" y1="192.189" x2="775.813" y2="192.757" gradientUnits="userSpaceOnUse">
<stop stop-color="#AD6359"/>
<stop offset="0.2378" stop-color="#AD6359"/>
<stop offset="0.7374" stop-color="#AD6359"/>
<stop offset="1" stop-color="#AD6359"/>
</linearGradient>
<linearGradient id="paint48_linear_396_6832" x1="822.651" y1="284.905" x2="744.063" y2="192.467" gradientUnits="userSpaceOnUse">
<stop stop-color="#30944C"/>
<stop offset="0.41" stop-color="#8ABB62"/>
<stop offset="0.8161" stop-color="#DEDF77"/>
<stop offset="1" stop-color="#FFED7F"/>
</linearGradient>
<linearGradient id="paint49_linear_396_6832" x1="766.068" y1="353.319" x2="819.157" y2="353.319" gradientUnits="userSpaceOnUse">
<stop stop-color="#BE73DE"/>
<stop offset="1" stop-color="#514EB7"/>
</linearGradient>
<linearGradient id="paint50_linear_396_6832" x1="752.131" y1="353.319" x2="781.779" y2="353.319" gradientUnits="userSpaceOnUse">
<stop stop-color="#BE73DE"/>
<stop offset="1" stop-color="#514EB7"/>
</linearGradient>
<linearGradient id="paint51_linear_396_6832" x1="803.197" y1="181.001" x2="768.564" y2="182.959" gradientUnits="userSpaceOnUse">
<stop stop-color="#AD6359"/>
<stop offset="0.2378" stop-color="#AD6359"/>
<stop offset="0.7374" stop-color="#AD6359"/>
<stop offset="1" stop-color="#AD6359"/>
</linearGradient>
<linearGradient id="paint52_linear_396_6832" x1="786.755" y1="244.263" x2="711.384" y2="199.973" gradientUnits="userSpaceOnUse">
<stop stop-color="#30944C"/>
<stop offset="0.41" stop-color="#8ABB62"/>
<stop offset="0.8161" stop-color="#DEDF77"/>
<stop offset="1" stop-color="#FFED7F"/>
</linearGradient>
<linearGradient id="paint53_linear_396_6832" x1="758.305" y1="444.73" x2="776.892" y2="444.73" gradientUnits="userSpaceOnUse">
<stop stop-color="#808080"/>
<stop offset="0.6386" stop-color="#52524D"/>
<stop offset="1" stop-color="#3C3C35"/>
</linearGradient>
<linearGradient id="paint54_linear_396_6832" x1="782.324" y1="440.873" x2="766.994" y2="442.908" gradientUnits="userSpaceOnUse">
<stop stop-color="#AD6359"/>
<stop offset="0.2378" stop-color="#AD6359"/>
<stop offset="0.7374" stop-color="#AD6359"/>
<stop offset="1" stop-color="#AD6359"/>
</linearGradient>
<linearGradient id="paint55_linear_396_6832" x1="801.262" y1="444.73" x2="819.849" y2="444.73" gradientUnits="userSpaceOnUse">
<stop stop-color="#808080"/>
<stop offset="0.6386" stop-color="#52524D"/>
<stop offset="1" stop-color="#3C3C35"/>
</linearGradient>
<linearGradient id="paint56_linear_396_6832" x1="825.277" y1="440.873" x2="809.947" y2="442.908" gradientUnits="userSpaceOnUse">
<stop stop-color="#AD6359"/>
<stop offset="0.2378" stop-color="#AD6359"/>
<stop offset="0.7374" stop-color="#AD6359"/>
<stop offset="1" stop-color="#AD6359"/>
</linearGradient>
<linearGradient id="paint57_linear_396_6832" x1="734.406" y1="196.935" x2="741.548" y2="196.935" gradientUnits="userSpaceOnUse">
<stop stop-color="#808080"/>
<stop offset="0.6386" stop-color="#52524D"/>
<stop offset="1" stop-color="#3C3C35"/>
</linearGradient>
<linearGradient id="paint58_linear_396_6832" x1="742.864" y1="196.662" x2="738.173" y2="197.066" gradientUnits="userSpaceOnUse">
<stop stop-color="#AD6359"/>
<stop offset="0.2378" stop-color="#AD6359"/>
<stop offset="0.7374" stop-color="#AD6359"/>
<stop offset="1" stop-color="#AD6359"/>
</linearGradient>
<linearGradient id="paint59_linear_396_6832" x1="758.681" y1="207.196" x2="733.829" y2="208.098" gradientUnits="userSpaceOnUse">
<stop stop-color="#AD6359"/>
<stop offset="0.2378" stop-color="#AD6359"/>
<stop offset="0.7374" stop-color="#AD6359"/>
<stop offset="1" stop-color="#AD6359"/>
</linearGradient>
<linearGradient id="paint60_linear_396_6832" x1="745.724" y1="199.899" x2="738.033" y2="200.205" gradientUnits="userSpaceOnUse">
<stop stop-color="#AD6359"/>
<stop offset="0.2378" stop-color="#AD6359"/>
<stop offset="0.7374" stop-color="#AD6359"/>
<stop offset="1" stop-color="#AD6359"/>
</linearGradient>
<linearGradient id="paint61_linear_396_6832" x1="765.346" y1="205.121" x2="736.422" y2="206.402" gradientUnits="userSpaceOnUse">
<stop stop-color="#AD6359"/>
<stop offset="0.2378" stop-color="#AD6359"/>
<stop offset="0.7374" stop-color="#AD6359"/>
<stop offset="1" stop-color="#AD6359"/>
</linearGradient>
<linearGradient id="paint62_linear_396_6832" x1="806.126" y1="246.596" x2="740.228" y2="184.563" gradientUnits="userSpaceOnUse">
<stop stop-color="#30944C"/>
<stop offset="0.41" stop-color="#8ABB62"/>
<stop offset="0.8161" stop-color="#DEDF77"/>
<stop offset="1" stop-color="#FFED7F"/>
</linearGradient>
<linearGradient id="paint63_linear_396_6832" x1="793.31" y1="178.82" x2="770.087" y2="178.82" gradientUnits="userSpaceOnUse">
<stop stop-color="#808080"/>
<stop offset="0.6386" stop-color="#52524D"/>
<stop offset="1" stop-color="#3C3C35"/>
</linearGradient>
<linearGradient id="paint64_linear_396_6832" x1="808.229" y1="213.359" x2="807.934" y2="213.359" gradientUnits="userSpaceOnUse">
<stop stop-color="#808080"/>
<stop offset="0.6386" stop-color="#52524D"/>
<stop offset="1" stop-color="#3C3C35"/>
</linearGradient>
<linearGradient id="paint65_linear_396_6832" x1="538.659" y1="194.06" x2="523.167" y2="194.622" gradientUnits="userSpaceOnUse">
<stop stop-color="#AD6359"/>
<stop offset="0.2378" stop-color="#AD6359"/>
<stop offset="0.7374" stop-color="#AD6359"/>
<stop offset="1" stop-color="#AD6359"/>
</linearGradient>
<linearGradient id="paint66_linear_396_6832" x1="513.563" y1="232.523" x2="543.335" y2="232.523" gradientUnits="userSpaceOnUse">
<stop stop-color="#77D8FC"/>
<stop offset="0.4282" stop-color="#75C0EA"/>
<stop offset="1" stop-color="#719ACD"/>
</linearGradient>
<linearGradient id="paint67_linear_396_6832" x1="541.583" y1="262.443" x2="554.856" y2="262.443" gradientUnits="userSpaceOnUse">
<stop stop-color="#77D8FC"/>
<stop offset="0.4282" stop-color="#75C0EA"/>
<stop offset="1" stop-color="#719ACD"/>
</linearGradient>
<linearGradient id="paint68_linear_396_6832" x1="513.564" y1="352.838" x2="565.877" y2="352.838" gradientUnits="userSpaceOnUse">
<stop stop-color="#BE73DE"/>
<stop offset="1" stop-color="#514EB7"/>
</linearGradient>
<linearGradient id="paint69_linear_396_6832" x1="521.975" y1="248.02" x2="549.675" y2="248.02" gradientUnits="userSpaceOnUse">
<stop stop-color="#77D8FC"/>
<stop offset="0.4282" stop-color="#75C0EA"/>
<stop offset="1" stop-color="#719ACD"/>
</linearGradient>
<linearGradient id="paint70_linear_396_6832" x1="499.834" y1="352.838" x2="529.049" y2="352.838" gradientUnits="userSpaceOnUse">
<stop stop-color="#BE73DE"/>
<stop offset="1" stop-color="#514EB7"/>
</linearGradient>
<linearGradient id="paint71_linear_396_6832" x1="550.146" y1="183.032" x2="516.023" y2="184.96" gradientUnits="userSpaceOnUse">
<stop stop-color="#AD6359"/>
<stop offset="0.2378" stop-color="#AD6359"/>
<stop offset="0.7374" stop-color="#AD6359"/>
<stop offset="1" stop-color="#AD6359"/>
</linearGradient>
<linearGradient id="paint72_linear_396_6832" x1="485.463" y1="224.789" x2="518.28" y2="224.789" gradientUnits="userSpaceOnUse">
<stop stop-color="#77D8FC"/>
<stop offset="0.4282" stop-color="#75C0EA"/>
<stop offset="1" stop-color="#719ACD"/>
</linearGradient>
<linearGradient id="paint73_linear_396_6832" x1="505.917" y1="442.914" x2="524.233" y2="442.914" gradientUnits="userSpaceOnUse">
<stop stop-color="#808080"/>
<stop offset="0.6386" stop-color="#52524D"/>
<stop offset="1" stop-color="#3C3C35"/>
</linearGradient>
<linearGradient id="paint74_linear_396_6832" x1="529.584" y1="439.109" x2="514.474" y2="441.115" gradientUnits="userSpaceOnUse">
<stop stop-color="#AD6359"/>
<stop offset="0.2378" stop-color="#AD6359"/>
<stop offset="0.7374" stop-color="#AD6359"/>
<stop offset="1" stop-color="#AD6359"/>
</linearGradient>
<linearGradient id="paint75_linear_396_6832" x1="548.246" y1="442.914" x2="566.563" y2="442.914" gradientUnits="userSpaceOnUse">
<stop stop-color="#808080"/>
<stop offset="0.6386" stop-color="#52524D"/>
<stop offset="1" stop-color="#3C3C35"/>
</linearGradient>
<linearGradient id="paint76_linear_396_6832" x1="571.912" y1="439.109" x2="556.802" y2="441.115" gradientUnits="userSpaceOnUse">
<stop stop-color="#AD6359"/>
<stop offset="0.2378" stop-color="#AD6359"/>
<stop offset="0.7374" stop-color="#AD6359"/>
<stop offset="1" stop-color="#AD6359"/>
</linearGradient>
<linearGradient id="paint77_linear_396_6832" x1="482.366" y1="198.737" x2="489.405" y2="198.737" gradientUnits="userSpaceOnUse">
<stop stop-color="#808080"/>
<stop offset="0.6386" stop-color="#52524D"/>
<stop offset="1" stop-color="#3C3C35"/>
</linearGradient>
<linearGradient id="paint78_linear_396_6832" x1="490.704" y1="198.47" x2="486.08" y2="198.867" gradientUnits="userSpaceOnUse">
<stop stop-color="#AD6359"/>
<stop offset="0.2378" stop-color="#AD6359"/>
<stop offset="0.7374" stop-color="#AD6359"/>
<stop offset="1" stop-color="#AD6359"/>
</linearGradient>
<linearGradient id="paint79_linear_396_6832" x1="495.812" y1="201.768" x2="482.33" y2="202.481" gradientUnits="userSpaceOnUse">
<stop stop-color="#AD6359"/>
<stop offset="0.2378" stop-color="#AD6359"/>
<stop offset="0.7374" stop-color="#AD6359"/>
<stop offset="1" stop-color="#AD6359"/>
</linearGradient>
<linearGradient id="paint80_linear_396_6832" x1="493.518" y1="201.657" x2="485.945" y2="201.958" gradientUnits="userSpaceOnUse">
<stop stop-color="#AD6359"/>
<stop offset="0.2378" stop-color="#AD6359"/>
<stop offset="0.7374" stop-color="#AD6359"/>
<stop offset="1" stop-color="#AD6359"/>
</linearGradient>
<linearGradient id="paint81_linear_396_6832" x1="518.538" y1="288.215" x2="526.473" y2="295.419" gradientUnits="userSpaceOnUse">
<stop stop-color="#FFECDC"/>
<stop offset="0.2378" stop-color="#F6DAC4"/>
<stop offset="0.7374" stop-color="#E0AD87"/>
<stop offset="1" stop-color="#D39364"/>
</linearGradient>
<linearGradient id="paint82_linear_396_6832" x1="511.143" y1="200.401" x2="569.308" y2="200.401" gradientUnits="userSpaceOnUse">
<stop stop-color="#808080"/>
<stop offset="0.6386" stop-color="#52524D"/>
<stop offset="1" stop-color="#3C3C35"/>
</linearGradient>
<linearGradient id="paint83_linear_396_6832" x1="654.431" y1="444.594" x2="632.143" y2="444.594" gradientUnits="userSpaceOnUse">
<stop stop-color="#808080"/>
<stop offset="0.6386" stop-color="#52524D"/>
<stop offset="1" stop-color="#3C3C35"/>
</linearGradient>
<linearGradient id="paint84_linear_396_6832" x1="698.808" y1="444.594" x2="676.52" y2="444.594" gradientUnits="userSpaceOnUse">
<stop stop-color="#808080"/>
<stop offset="0.6386" stop-color="#52524D"/>
<stop offset="1" stop-color="#3C3C35"/>
</linearGradient>
<linearGradient id="paint85_linear_396_6832" x1="678.028" y1="182.443" x2="666.526" y2="182.703" gradientUnits="userSpaceOnUse">
<stop stop-color="#AD6359"/>
<stop offset="0.2378" stop-color="#AD6359"/>
<stop offset="0.7374" stop-color="#AD6359"/>
<stop offset="1" stop-color="#AD6359"/>
</linearGradient>
<linearGradient id="paint86_linear_396_6832" x1="688.449" y1="177.685" x2="659.743" y2="177.685" gradientUnits="userSpaceOnUse">
<stop stop-color="#808080"/>
<stop offset="0.6386" stop-color="#52524D"/>
<stop offset="1" stop-color="#3C3C35"/>
</linearGradient>
<linearGradient id="paint87_linear_396_6832" x1="685.635" y1="191.404" x2="669.599" y2="192.19" gradientUnits="userSpaceOnUse">
<stop stop-color="#AD6359"/>
<stop offset="0.2378" stop-color="#AD6359"/>
<stop offset="0.7374" stop-color="#AD6359"/>
<stop offset="1" stop-color="#AD6359"/>
</linearGradient>
<linearGradient id="paint88_linear_396_6832" x1="698.868" y1="363.387" x2="672.196" y2="363.387" gradientUnits="userSpaceOnUse">
<stop stop-color="#BE73DE"/>
<stop offset="1" stop-color="#514EB7"/>
</linearGradient>
<linearGradient id="paint89_linear_396_6832" x1="698.485" y1="241.986" x2="605.766" y2="241.986" gradientUnits="userSpaceOnUse">
<stop stop-color="#FFD571"/>
<stop offset="0.2509" stop-color="#FFBD60"/>
<stop offset="0.7782" stop-color="#FF8035"/>
<stop offset="1" stop-color="#FF6421"/>
</linearGradient>
<linearGradient id="paint90_linear_396_6832" x1="698.479" y1="363.387" x2="642.297" y2="363.387" gradientUnits="userSpaceOnUse">
<stop stop-color="#BE73DE"/>
<stop offset="1" stop-color="#514EB7"/>
</linearGradient>
<linearGradient id="paint91_linear_396_6832" x1="616.419" y1="198.396" x2="600.496" y2="198.98" gradientUnits="userSpaceOnUse">
<stop stop-color="#AD6359"/>
<stop offset="0.2378" stop-color="#AD6359"/>
<stop offset="0.7374" stop-color="#AD6359"/>
<stop offset="1" stop-color="#AD6359"/>
</linearGradient>
<linearGradient id="paint92_linear_396_6832" x1="607.735" y1="73.0042" x2="616.706" y2="38.5235" gradientUnits="userSpaceOnUse">
<stop stop-color="#FFD571"/>
<stop offset="0.0514" stop-color="#FFBE61"/>
<stop offset="0.1296" stop-color="#FFA24D"/>
<stop offset="0.2181" stop-color="#FF8B3D"/>
<stop offset="0.3197" stop-color="#FF7A30"/>
<stop offset="0.4425" stop-color="#FF6D28"/>
<stop offset="0.6078" stop-color="#FF6622"/>
<stop offset="1" stop-color="#FF6421"/>
</linearGradient>
<linearGradient id="paint93_linear_396_6832" x1="611.578" y1="58.2137" x2="604.873" y2="56.0918" gradientUnits="userSpaceOnUse">
<stop stop-color="#F5EF68"/>
<stop offset="1" stop-color="#F8C154"/>
</linearGradient>
<linearGradient id="paint94_linear_396_6832" x1="608.402" y1="68.6082" x2="615.073" y2="47.2664" gradientUnits="userSpaceOnUse">
<stop stop-color="#F5EF68"/>
<stop offset="1" stop-color="#F8C154"/>
</linearGradient>
<linearGradient id="paint95_linear_396_6832" x1="605.481" y1="77.5526" x2="614.17" y2="49.7558" gradientUnits="userSpaceOnUse">
<stop stop-color="#FFD571"/>
<stop offset="0.2509" stop-color="#FFBD60"/>
<stop offset="0.7782" stop-color="#FF8035"/>
<stop offset="1" stop-color="#FF6421"/>
</linearGradient>
<linearGradient id="paint96_linear_396_6832" x1="612.698" y1="58.6794" x2="610.493" y2="57.9816" gradientUnits="userSpaceOnUse">
<stop stop-color="#F5EF68"/>
<stop offset="1" stop-color="#F8C154"/>
</linearGradient>
<linearGradient id="paint97_linear_396_6832" x1="473.664" y1="97.2092" x2="437.669" y2="74.3893" gradientUnits="userSpaceOnUse">
<stop stop-color="#FFD571"/>
<stop offset="0.2509" stop-color="#FFBD60"/>
<stop offset="0.7782" stop-color="#FF8035"/>
<stop offset="1" stop-color="#FF6421"/>
</linearGradient>
<linearGradient id="paint98_linear_396_6832" x1="455.43" y1="94.7883" x2="453.195" y2="99.4508" gradientUnits="userSpaceOnUse">
<stop stop-color="#F5EF68"/>
<stop offset="1" stop-color="#F8C154"/>
</linearGradient>
<linearGradient id="paint99_linear_396_6832" x1="467.442" y1="96.0977" x2="450.818" y2="79.2532" gradientUnits="userSpaceOnUse">
<stop stop-color="#F5EF68"/>
<stop offset="1" stop-color="#F8C154"/>
</linearGradient>
<linearGradient id="paint100_linear_396_6832" x1="484.696" y1="104.421" x2="449.161" y2="81.6006" gradientUnits="userSpaceOnUse">
<stop stop-color="#FFD571"/>
<stop offset="0.2509" stop-color="#FFBD60"/>
<stop offset="0.7782" stop-color="#FF8035"/>
<stop offset="1" stop-color="#FF6421"/>
</linearGradient>
<linearGradient id="paint101_linear_396_6832" x1="457.646" y1="89.3334" x2="461.296" y2="86.614" gradientUnits="userSpaceOnUse">
<stop stop-color="#F5EF68"/>
<stop offset="1" stop-color="#F8C154"/>
</linearGradient>
<linearGradient id="paint102_linear_396_6832" x1="527.505" y1="12.6799" x2="505.213" y2="-1.45271" gradientUnits="userSpaceOnUse">
<stop stop-color="#FFD571"/>
<stop offset="0.2509" stop-color="#FFBD60"/>
<stop offset="0.7782" stop-color="#FF8035"/>
<stop offset="1" stop-color="#FF6421"/>
</linearGradient>
<linearGradient id="paint103_linear_396_6832" x1="516.212" y1="11.1807" x2="514.828" y2="14.0681" gradientUnits="userSpaceOnUse">
<stop stop-color="#F5EF68"/>
<stop offset="1" stop-color="#F8C154"/>
</linearGradient>
<linearGradient id="paint104_linear_396_6832" x1="523.652" y1="11.9916" x2="513.356" y2="1.55984" gradientUnits="userSpaceOnUse">
<stop stop-color="#F5EF68"/>
<stop offset="1" stop-color="#F8C154"/>
</linearGradient>
<linearGradient id="paint105_linear_396_6832" x1="534.337" y1="17.1462" x2="512.33" y2="3.01352" gradientUnits="userSpaceOnUse">
<stop stop-color="#FFD571"/>
<stop offset="0.2509" stop-color="#FFBD60"/>
<stop offset="0.7782" stop-color="#FF8035"/>
<stop offset="1" stop-color="#FF6421"/>
</linearGradient>
<linearGradient id="paint106_linear_396_6832" x1="517.585" y1="7.80244" x2="519.845" y2="6.1184" gradientUnits="userSpaceOnUse">
<stop stop-color="#F5EF68"/>
<stop offset="1" stop-color="#F8C154"/>
</linearGradient>
<linearGradient id="paint107_linear_396_6832" x1="455.873" y1="335.057" x2="433.581" y2="320.924" gradientUnits="userSpaceOnUse">
<stop stop-color="#FFD571"/>
<stop offset="0.2509" stop-color="#FFBD60"/>
<stop offset="0.7782" stop-color="#FF8035"/>
<stop offset="1" stop-color="#FF6421"/>
</linearGradient>
<linearGradient id="paint108_linear_396_6832" x1="444.58" y1="333.557" x2="443.196" y2="336.445" gradientUnits="userSpaceOnUse">
<stop stop-color="#F5EF68"/>
<stop offset="1" stop-color="#F8C154"/>
</linearGradient>
<linearGradient id="paint109_linear_396_6832" x1="452.019" y1="334.368" x2="441.724" y2="323.937" gradientUnits="userSpaceOnUse">
<stop stop-color="#F5EF68"/>
<stop offset="1" stop-color="#F8C154"/>
</linearGradient>
<linearGradient id="paint110_linear_396_6832" x1="462.704" y1="339.523" x2="440.698" y2="325.39" gradientUnits="userSpaceOnUse">
<stop stop-color="#FFD571"/>
<stop offset="0.2509" stop-color="#FFBD60"/>
<stop offset="0.7782" stop-color="#FF8035"/>
<stop offset="1" stop-color="#FF6421"/>
</linearGradient>
<linearGradient id="paint111_linear_396_6832" x1="445.952" y1="330.179" x2="448.213" y2="328.495" gradientUnits="userSpaceOnUse">
<stop stop-color="#F5EF68"/>
<stop offset="1" stop-color="#F8C154"/>
</linearGradient>
<linearGradient id="paint112_linear_396_6832" x1="783.84" y1="27.495" x2="761.548" y2="13.3625" gradientUnits="userSpaceOnUse">
<stop stop-color="#FFD571"/>
<stop offset="0.2509" stop-color="#FFBD60"/>
<stop offset="0.7782" stop-color="#FF8035"/>
<stop offset="1" stop-color="#FF6421"/>
</linearGradient>
<linearGradient id="paint113_linear_396_6832" x1="772.547" y1="25.9958" x2="771.163" y2="28.8833" gradientUnits="userSpaceOnUse">
<stop stop-color="#F5EF68"/>
<stop offset="1" stop-color="#F8C154"/>
</linearGradient>
<linearGradient id="paint114_linear_396_6832" x1="779.986" y1="26.8067" x2="769.69" y2="16.375" gradientUnits="userSpaceOnUse">
<stop stop-color="#F5EF68"/>
<stop offset="1" stop-color="#F8C154"/>
</linearGradient>
<linearGradient id="paint115_linear_396_6832" x1="790.672" y1="31.9613" x2="768.665" y2="17.8285" gradientUnits="userSpaceOnUse">
<stop stop-color="#FFD571"/>
<stop offset="0.2509" stop-color="#FFBD60"/>
<stop offset="0.7782" stop-color="#FF8035"/>
<stop offset="1" stop-color="#FF6421"/>
</linearGradient>
<linearGradient id="paint116_linear_396_6832" x1="773.92" y1="22.6175" x2="776.18" y2="20.9335" gradientUnits="userSpaceOnUse">
<stop stop-color="#F5EF68"/>
<stop offset="1" stop-color="#F8C154"/>
</linearGradient>
<linearGradient id="paint117_linear_396_6832" x1="717.662" y1="123.497" x2="739.954" y2="109.364" gradientUnits="userSpaceOnUse">
<stop stop-color="#FFD571"/>
<stop offset="0.2509" stop-color="#FFBD60"/>
<stop offset="0.7782" stop-color="#FF8035"/>
<stop offset="1" stop-color="#FF6421"/>
</linearGradient>
<linearGradient id="paint118_linear_396_6832" x1="728.955" y1="121.998" x2="730.339" y2="124.885" gradientUnits="userSpaceOnUse">
<stop stop-color="#F5EF68"/>
<stop offset="1" stop-color="#F8C154"/>
</linearGradient>
<linearGradient id="paint119_linear_396_6832" x1="721.515" y1="122.809" x2="731.811" y2="112.377" gradientUnits="userSpaceOnUse">
<stop stop-color="#F5EF68"/>
<stop offset="1" stop-color="#F8C154"/>
</linearGradient>
<linearGradient id="paint120_linear_396_6832" x1="710.83" y1="127.963" x2="732.837" y2="113.831" gradientUnits="userSpaceOnUse">
<stop stop-color="#FFD571"/>
<stop offset="0.2509" stop-color="#FFBD60"/>
<stop offset="0.7782" stop-color="#FF8035"/>
<stop offset="1" stop-color="#FF6421"/>
</linearGradient>
<linearGradient id="paint121_linear_396_6832" x1="727.581" y1="118.619" x2="725.321" y2="116.935" gradientUnits="userSpaceOnUse">
<stop stop-color="#F5EF68"/>
<stop offset="1" stop-color="#F8C154"/>
</linearGradient>
<linearGradient id="paint122_linear_396_6832" x1="352.997" y1="229.221" x2="385.089" y2="208.876" gradientUnits="userSpaceOnUse">
<stop stop-color="#FFD571"/>
<stop offset="0.2509" stop-color="#FFBD60"/>
<stop offset="0.7782" stop-color="#FF8035"/>
<stop offset="1" stop-color="#FF6421"/>
</linearGradient>
<linearGradient id="paint123_linear_396_6832" x1="369.254" y1="227.063" x2="371.247" y2="231.22" gradientUnits="userSpaceOnUse">
<stop stop-color="#F5EF68"/>
<stop offset="1" stop-color="#F8C154"/>
</linearGradient>
<linearGradient id="paint124_linear_396_6832" x1="358.544" y1="228.23" x2="373.366" y2="213.213" gradientUnits="userSpaceOnUse">
<stop stop-color="#F5EF68"/>
<stop offset="1" stop-color="#F8C154"/>
</linearGradient>
<linearGradient id="paint125_linear_396_6832" x1="343.163" y1="235.651" x2="374.843" y2="215.305" gradientUnits="userSpaceOnUse">
<stop stop-color="#FFD571"/>
<stop offset="0.2509" stop-color="#FFBD60"/>
<stop offset="0.7782" stop-color="#FF8035"/>
<stop offset="1" stop-color="#FF6421"/>
</linearGradient>
<linearGradient id="paint126_linear_396_6832" x1="367.278" y1="222.2" x2="364.025" y2="219.775" gradientUnits="userSpaceOnUse">
<stop stop-color="#F5EF68"/>
<stop offset="1" stop-color="#F8C154"/>
</linearGradient>
<clipPath id="clip0_396_6832">
<rect width="888" height="472" fill="white"/>
</clipPath>
</defs>
</svg>
