<svg width="180" height="161" viewBox="0 0 180 161" fill="none" xmlns="http://www.w3.org/2000/svg">
<path d="M89.965 160.798C139.651 160.798 179.93 158.466 179.93 155.59C179.93 152.715 139.651 150.383 89.965 150.383C40.2787 150.383 0 152.715 0 155.59C0 158.466 40.2787 160.798 89.965 160.798Z" fill="#F5F5F5"/>
<path d="M88.383 4.6C87.9607 2.0608 89.6915 0 92.2527 0H73.5396C70.9783 0 69.2476 2.0562 69.6699 4.6H88.383Z" fill="#FBC02D"/>
<path opacity="0.3" d="M88.383 4.6C87.9607 2.0608 89.6915 0 92.2527 0H73.5396C70.9783 0 69.2476 2.0562 69.6699 4.6H88.383Z" fill="black"/>
<path d="M92.2527 0H73.5396C74.8345 0.0426532 76.0762 0.521594 77.0597 1.35783C78.0433 2.19407 78.7099 3.33767 78.9498 4.6L83.0469 29.1272C83.2875 30.3892 83.9544 31.5323 84.9378 32.3684C85.9212 33.2045 87.1624 33.6837 88.4571 33.7272H97.8949C100.456 33.7272 102.187 31.6664 101.765 29.1272L97.6629 4.6C97.423 3.33767 96.7564 2.19407 95.7728 1.35783C94.7893 0.521594 93.5476 0.0426532 92.2527 0V0Z" fill="#FBC02D"/>
<path d="M92.3268 29.1411C92.749 31.6803 91.0183 33.7411 88.457 33.7411H107.17C107.753 33.7606 108.332 33.6481 108.864 33.412C109.396 33.1759 109.866 32.8226 110.239 32.3789C110.613 31.9352 110.879 31.4129 111.017 30.8518C111.156 30.2907 111.164 29.7056 111.04 29.1411H92.3268Z" fill="#FBC02D"/>
<path opacity="0.3" d="M92.3268 29.1411C92.749 31.6803 91.0183 33.7411 88.457 33.7411H107.17C107.753 33.7606 108.332 33.6481 108.864 33.412C109.396 33.1759 109.866 32.8226 110.239 32.3789C110.613 31.9352 110.879 31.4129 111.017 30.8518C111.156 30.2907 111.164 29.7056 111.04 29.1411H92.3268Z" fill="black"/>
<path d="M95.3382 6.72973H81.9796C81.9019 6.72695 81.8275 6.69813 81.7685 6.648C81.7095 6.59787 81.6694 6.52938 81.6548 6.45373V6.45373C81.6469 6.41983 81.647 6.38457 81.6551 6.35071C81.6632 6.31686 81.6792 6.28533 81.7016 6.25859C81.7241 6.23186 81.7525 6.21064 81.7846 6.19662C81.8168 6.18259 81.8517 6.17612 81.8868 6.17773H95.2454C95.323 6.18051 95.3974 6.20932 95.4564 6.25946C95.5154 6.30959 95.5555 6.37808 95.5702 6.45373C95.5781 6.48763 95.578 6.52289 95.5698 6.55675C95.5617 6.5906 95.5458 6.62214 95.5233 6.64887C95.5009 6.6756 95.4724 6.69681 95.4403 6.71084C95.4082 6.72487 95.3732 6.73134 95.3382 6.72973V6.72973Z" fill="white"/>
<path d="M87.9375 8.64331H82.2999C82.2222 8.64052 82.1478 8.61171 82.0888 8.56158C82.0298 8.51145 81.9897 8.44296 81.9751 8.36731V8.36731C81.9672 8.3334 81.9673 8.29814 81.9754 8.26429C81.9835 8.23043 81.9995 8.1989 82.0219 8.17217C82.0444 8.14543 82.0728 8.12422 82.1049 8.11019C82.1371 8.09616 82.172 8.0897 82.2071 8.0913H87.8447C87.9223 8.09409 87.9968 8.1229 88.0557 8.17303C88.1147 8.22317 88.1548 8.29166 88.1695 8.36731V8.36731C88.1765 8.40111 88.1757 8.43603 88.1672 8.46949C88.1587 8.50295 88.1427 8.53409 88.1204 8.56059C88.0981 8.5871 88.0701 8.6083 88.0385 8.62261C88.0068 8.63693 87.9723 8.644 87.9375 8.64331V8.64331Z" fill="white"/>
<path d="M93.1528 8.64339H89.2552C89.1781 8.64041 89.1043 8.61143 89.0461 8.56124C88.9879 8.51105 88.9487 8.44266 88.935 8.36739V8.36739C88.9272 8.33387 88.9273 8.29903 88.9351 8.26554C88.943 8.23204 88.9585 8.20078 88.9805 8.17414C89.0024 8.1475 89.0302 8.12619 89.0617 8.11185C89.0933 8.0975 89.1277 8.0905 89.1624 8.09138H93.06C93.1371 8.09436 93.2108 8.12334 93.269 8.17353C93.3273 8.22372 93.3664 8.29211 93.3801 8.36739V8.36739C93.3879 8.4009 93.3879 8.43574 93.38 8.46923C93.3721 8.50273 93.3566 8.53399 93.3347 8.56063C93.3127 8.58727 93.2849 8.60858 93.2534 8.62293C93.2219 8.63727 93.1875 8.64427 93.1528 8.64339V8.64339Z" fill="white"/>
<path d="M95.9973 10.5801H82.6202C82.543 10.5784 82.4686 10.5505 82.4096 10.5012C82.3505 10.4518 82.3102 10.3839 82.2954 10.3087V10.3087C82.2875 10.2748 82.2876 10.2395 82.2957 10.2057C82.3039 10.1718 82.3198 10.1403 82.3422 10.1136C82.3647 10.0868 82.3931 10.0656 82.4253 10.0516C82.4574 10.0376 82.4923 10.0311 82.5274 10.0327H95.886C95.9636 10.0355 96.038 10.0643 96.097 10.1144C96.156 10.1646 96.1961 10.2331 96.2108 10.3087V10.3087C96.2175 10.3408 96.2172 10.3739 96.2097 10.4058C96.2023 10.4377 96.1879 10.4676 96.1675 10.4935C96.1472 10.5193 96.1215 10.5404 96.0921 10.5554C96.0627 10.5704 96.0304 10.5788 95.9973 10.5801Z" fill="white"/>
<path d="M94.9811 12.4751H82.9403C82.8627 12.4724 82.7883 12.4435 82.7293 12.3934C82.6703 12.3433 82.6302 12.2748 82.6155 12.1991V12.1991C82.6086 12.1653 82.6094 12.1304 82.6179 12.097C82.6264 12.0635 82.6423 12.0324 82.6646 12.0059C82.6869 11.9793 82.7149 11.9582 82.7466 11.9438C82.7782 11.9295 82.8127 11.9224 82.8475 11.9231H94.9115C94.9892 11.9259 95.0636 11.9547 95.1226 12.0049C95.1816 12.055 95.2217 12.1235 95.2363 12.1991V12.1991C95.244 12.235 95.2429 12.2721 95.2332 12.3074C95.2235 12.3428 95.2054 12.3753 95.1804 12.4023C95.1554 12.4293 95.1243 12.45 95.0897 12.4626C95.055 12.4753 95.0178 12.4796 94.9811 12.4751Z" fill="white"/>
<path d="M91.3571 14.3887H83.2603C83.1826 14.3859 83.1082 14.3571 83.0492 14.3069C82.9902 14.2568 82.9501 14.1883 82.9355 14.1127V14.1127C82.9284 14.0791 82.9291 14.0443 82.9376 14.0111C82.9461 13.9778 82.9622 13.9469 82.9846 13.9207C83.0069 13.8946 83.0351 13.8738 83.0668 13.86C83.0985 13.8463 83.1329 13.8398 83.1675 13.8413H91.2689C91.3457 13.8446 91.4192 13.873 91.4779 13.9221C91.5367 13.9712 91.5774 14.0382 91.5937 14.1127V14.1127C91.6008 14.1469 91.5999 14.1822 91.5912 14.216C91.5824 14.2498 91.566 14.2812 91.5432 14.3078C91.5204 14.3344 91.4918 14.3555 91.4596 14.3695C91.4273 14.3835 91.3923 14.3901 91.3571 14.3887V14.3887Z" fill="white"/>
<path d="M96.9251 16.3069H83.5805C83.5028 16.3041 83.4284 16.2753 83.3694 16.2252C83.3104 16.1751 83.2703 16.1066 83.2557 16.0309V16.0309C83.2487 15.9971 83.2495 15.9622 83.258 15.9287C83.2665 15.8953 83.2825 15.8641 83.3048 15.8376C83.327 15.8111 83.355 15.7899 83.3867 15.7756C83.4184 15.7613 83.4529 15.7542 83.4877 15.7549H96.8462C96.9239 15.7577 96.9983 15.7865 97.0573 15.8367C97.1163 15.8868 97.1564 15.9553 97.171 16.0309C97.1794 16.066 97.1792 16.1026 97.1703 16.1376C97.1615 16.1726 97.1443 16.205 97.1202 16.2321C97.0961 16.2591 97.0658 16.28 97.0319 16.2931C96.9979 16.3061 96.9613 16.3108 96.9251 16.3069Z" fill="white"/>
<path d="M97.2594 18.2205H83.9008C83.8231 18.2177 83.7487 18.1889 83.6897 18.1388C83.6307 18.0886 83.5906 18.0202 83.576 17.9445V17.9445C83.569 17.9107 83.5698 17.8758 83.5783 17.8423C83.5868 17.8089 83.6028 17.7777 83.6251 17.7512C83.6473 17.7247 83.6754 17.7035 83.707 17.6892C83.7387 17.6749 83.7732 17.6678 83.808 17.6685H97.1712C97.2483 17.6715 97.322 17.7005 97.3803 17.7507C97.4385 17.8008 97.4777 17.8692 97.4914 17.9445V17.9445C97.4993 17.9784 97.4992 18.0137 97.491 18.0475C97.4829 18.0814 97.467 18.1129 97.4445 18.1396C97.422 18.1664 97.3936 18.1876 97.3615 18.2016C97.3294 18.2156 97.2944 18.2221 97.2594 18.2205V18.2205Z" fill="white"/>
<path d="M92.3225 20.1341H84.2211C84.1443 20.1308 84.0708 20.1023 84.0121 20.0532C83.9533 20.0041 83.9126 19.9372 83.8963 19.8627V19.8627C83.8893 19.8289 83.8901 19.794 83.8986 19.7605C83.9071 19.7271 83.9231 19.6959 83.9454 19.6694C83.9677 19.6429 83.9957 19.6217 84.0273 19.6074C84.059 19.5931 84.0935 19.586 84.1283 19.5867H92.2297C92.3074 19.5895 92.3818 19.6183 92.4408 19.6684C92.4998 19.7186 92.5399 19.7871 92.5545 19.8627V19.8627C92.5616 19.8963 92.5609 19.931 92.5524 19.9643C92.5439 19.9976 92.5278 20.0285 92.5055 20.0546C92.4831 20.0808 92.455 20.1016 92.4233 20.1153C92.3916 20.1291 92.3571 20.1355 92.3225 20.1341V20.1341Z" fill="white"/>
<path d="M99.9917 25.4008L100.828 25.9148L113.651 5.41946L112.815 4.90543L99.9917 25.4008Z" fill="#263238"/>
<path opacity="0.3" d="M99.9917 25.4008L100.828 25.9148L113.651 5.41946L112.815 4.90543L99.9917 25.4008Z" fill="black"/>
<path d="M98.3233 24.3764L99.1592 24.8904L111.982 4.39506L111.146 3.88103L98.3233 24.3764Z" fill="#263238"/>
<path opacity="0.3" d="M98.3233 24.3764L99.1592 24.8904L111.982 4.39506L111.146 3.88103L98.3233 24.3764Z" fill="black"/>
<path d="M99.1631 24.8866L99.999 25.4006L112.822 4.90531L111.986 4.39128L99.1631 24.8866Z" fill="#263238"/>
<path d="M98.3032 26.3489L99.0549 26.8135L100.832 25.9165L98.3264 24.3755L98.3032 26.3489Z" fill="#FF8B7B"/>
<path d="M98.2939 27.1999L99.0549 26.8135L98.3032 26.3489L98.2939 27.1999Z" fill="#263238"/>
<path d="M97.8532 27.3699H97.8207C97.1989 27.116 96.6492 26.7148 96.22 26.2015C95.9506 25.9152 95.6572 25.652 95.343 25.4149C95.2954 25.3756 95.2355 25.3541 95.1736 25.3541C95.1117 25.3541 95.0518 25.3756 95.0043 25.4149C94.9664 25.4557 94.9455 25.509 94.9455 25.5644C94.9455 25.6198 94.9664 25.6731 95.0043 25.7139C95.1156 25.8795 95.2409 26.0359 95.3662 26.1739C95.4166 26.2286 95.4479 26.298 95.4554 26.3718C95.4629 26.4455 95.4463 26.5197 95.408 26.5833C95.3677 26.6392 95.3101 26.6807 95.244 26.7014C95.1779 26.7222 95.1068 26.7211 95.0414 26.6983C94.8649 26.6412 94.6914 26.5752 94.5217 26.5005C94.5067 26.4873 94.4871 26.4802 94.467 26.4808C94.4469 26.4814 94.4277 26.4896 94.4135 26.5037C94.3993 26.5178 94.391 26.5367 94.3905 26.5567C94.3899 26.5766 94.397 26.596 94.4103 26.6109L94.4335 26.6707C94.461 26.7313 94.472 26.798 94.4655 26.8642C94.459 26.9304 94.4352 26.9937 94.3964 27.0479C94.3567 27.0999 94.3045 27.141 94.2444 27.1676C94.1844 27.1941 94.1186 27.2052 94.0531 27.1997C92.0108 27.1042 89.965 27.1119 87.9236 27.2227C87.8929 27.2227 87.8633 27.2106 87.8416 27.189C87.8198 27.1675 87.8076 27.1382 87.8076 27.1077C87.8076 27.0772 87.8198 27.048 87.8416 27.0264C87.8633 27.0048 87.8929 26.9927 87.9236 26.9927C89.9728 26.8819 92.0263 26.8742 94.0763 26.9697C94.1023 26.9741 94.1291 26.9713 94.1537 26.9615C94.1782 26.9518 94.1996 26.9355 94.2155 26.9145C94.2293 26.8907 94.2366 26.8638 94.2366 26.8363C94.2366 26.8089 94.2293 26.7819 94.2155 26.7581L94.1923 26.7075C94.1598 26.649 94.1474 26.5817 94.1568 26.5156C94.1663 26.4495 94.1972 26.3882 94.2448 26.341C94.2924 26.2938 94.3542 26.2632 94.4209 26.2538C94.4876 26.2444 94.5555 26.2567 94.6145 26.2889C94.7737 26.3633 94.9381 26.4263 95.1063 26.4775C95.121 26.4887 95.1389 26.4948 95.1574 26.4948C95.1759 26.4948 95.1938 26.4887 95.2084 26.4775C95.22 26.4559 95.2241 26.431 95.2199 26.4069C95.2157 26.3827 95.2035 26.3606 95.1852 26.3441C95.0507 26.1877 94.9254 26.0221 94.8094 25.8565C94.7425 25.7703 94.7086 25.6634 94.7137 25.5548C94.7188 25.4461 94.7626 25.3428 94.8372 25.2631C94.923 25.1842 95.0357 25.1404 95.1527 25.1404C95.2698 25.1404 95.3825 25.1842 95.4683 25.2631C95.8026 25.5051 96.1133 25.7777 96.3963 26.0773C96.793 26.5379 97.2916 26.9015 97.8532 27.1399C97.868 27.1446 97.8816 27.1521 97.8933 27.1621C97.9051 27.1721 97.9147 27.1843 97.9216 27.198C97.9285 27.2117 97.9326 27.2267 97.9336 27.242C97.9346 27.2573 97.9325 27.2726 97.9275 27.2871C97.9231 27.306 97.914 27.3235 97.9011 27.338C97.8881 27.3524 97.8716 27.3634 97.8532 27.3699Z" fill="white"/>
<path d="M95.8627 44.2243L98.9669 38.9021H92.7632L95.8627 44.2243Z" fill="#FBC02D"/>
<path d="M130.695 28.5938C129.375 27.4366 127.657 26.8272 125.897 26.8918C124.77 24.6378 122.445 23.3222 119.986 23.7684C116.459 24.4078 115.383 28.6076 117.833 30.1394C118.643 30.6483 119.521 31.0431 120.44 31.3124V31.4228C119 31.9379 117.74 32.8542 116.811 34.0619C115.883 35.2695 115.326 36.717 115.207 38.2308C114.845 43.438 120.487 46.4832 123.559 43.5852C123.983 43.1854 124.386 42.7631 124.765 42.3202C125.359 43.1482 125.999 43.9946 126.691 44.8778C134.365 41.3726 135.66 32.8396 130.695 28.5938Z" fill="#263238"/>
<path d="M115.267 48.8383C115.22 49.4823 115.165 50.0435 115.081 50.6323C114.998 51.2211 114.919 51.7915 114.821 52.3665C114.626 53.5211 114.357 54.6665 114.083 55.7935C113.519 58.0862 112.729 60.3186 111.726 62.4589L111.629 62.6613C111.592 62.7395 111.582 62.7671 111.513 62.9051C111.397 63.1326 111.258 63.3483 111.1 63.5491C110.801 63.9133 110.442 64.2244 110.037 64.4691C109.37 64.8637 108.633 65.1305 107.866 65.2557C106.602 65.4487 105.316 65.4657 104.047 65.3063C101.698 65.0208 99.3891 64.4698 97.166 63.6641L97.6764 61.8241C98.7483 61.9851 99.8665 62.1323 100.962 62.2289C102.04 62.3453 103.125 62.4006 104.21 62.3945C105.206 62.4125 106.2 62.3074 107.17 62.0817C107.521 61.9977 107.853 61.8495 108.149 61.6447C108.222 61.5918 108.284 61.5245 108.33 61.4469C108.342 61.4237 108.352 61.399 108.358 61.3733L108.488 61.0421C108.683 60.5499 108.873 60.0531 109.035 59.5425C109.198 59.0319 109.369 58.5259 109.532 58.0153C109.824 56.9803 110.112 55.9453 110.348 54.8873C110.585 53.8293 110.78 52.7713 110.961 51.7041C111.142 50.6369 111.286 49.5329 111.392 48.5393L115.267 48.8383Z" fill="#AD6359"/>
<path d="M112.627 44.2338C111.058 44.6248 109.963 51.0142 109.963 51.0142L114.279 53.9214C114.279 53.9214 118.417 47.4814 117.211 45.7748C115.949 43.9946 114.91 43.6542 112.627 44.2338Z" fill="#263238"/>
<path opacity="0.2" d="M112.766 45.6597L111.564 52.0951L113.986 53.7281L112.766 45.6597Z" fill="black"/>
<path d="M96.0621 61.9069L93.1343 63.0201L96.4426 64.9981C96.4426 64.9981 98.5538 63.7883 98.4981 62.2381L98.1733 62.0541C97.8546 61.8756 97.4997 61.7698 97.1345 61.7443C96.7693 61.7188 96.403 61.7744 96.0621 61.9069V61.9069Z" fill="#9C4C42"/>
<path opacity="0.1" d="M95.8437 62.0496L94.396 62.5602C94.113 62.6549 93.8358 62.7655 93.5654 62.8914C93.5654 62.8914 94.5213 63.287 94.9992 63.0202C95.724 63.0743 96.4529 63.031 97.1661 62.8914L95.8437 62.0496Z" fill="black"/>
<path d="M91.3105 65.1776L93.8022 67.2338L96.4378 65.0166L93.1341 63.0386L91.3105 65.1776Z" fill="#9C4C42"/>
<path d="M121.095 151.745H117.299L117.044 143.023H120.844L121.095 151.745Z" fill="#FFB573"/>
<path d="M117.169 151.308H121.433C121.507 151.306 121.58 151.331 121.636 151.379C121.693 151.426 121.729 151.493 121.74 151.566L122.204 154.914C122.213 154.999 122.204 155.084 122.177 155.165C122.151 155.245 122.108 155.32 122.05 155.383C121.993 155.446 121.923 155.496 121.844 155.53C121.766 155.564 121.681 155.582 121.596 155.581C120.111 155.558 119.392 155.471 117.513 155.471C116.362 155.471 113.044 155.591 111.448 155.591C109.852 155.591 109.768 154.027 110.432 153.884C113.411 153.249 115.536 152.375 116.515 151.538C116.699 151.387 116.931 151.306 117.169 151.308V151.308Z" fill="#263238"/>
<g opacity="0.2">
<path opacity="0.2" d="M117.044 143.023L117.174 147.522H120.974L120.844 143.023H117.044Z" fill="black"/>
</g>
<path d="M112.627 44.2339C112.627 44.2339 110.817 44.8641 114.441 66.9625H129.869C129.609 60.7387 129.604 56.8977 132.606 44.1235C130.447 43.6803 128.257 43.3943 126.055 43.2679C123.722 43.1021 121.381 43.1021 119.048 43.2679C116.037 43.5393 112.627 44.2339 112.627 44.2339Z" fill="#263238"/>
<path d="M123.253 50.292C121.978 50.2544 120.739 49.8657 119.675 49.1696C119.663 49.1613 119.652 49.1507 119.644 49.1382C119.636 49.1258 119.63 49.1119 119.628 49.0973C119.625 49.0827 119.625 49.0677 119.629 49.0533C119.632 49.0388 119.638 49.0252 119.647 49.0132C119.656 49.0004 119.667 48.9894 119.679 48.9808C119.692 48.9723 119.706 48.9663 119.722 48.9633C119.737 48.9603 119.752 48.9603 119.767 48.9634C119.783 48.9664 119.797 48.9724 119.81 48.981C120.947 49.7204 122.287 50.0931 123.647 50.0482C124.153 49.7308 127.651 47.417 127.916 43.4104C127.917 43.3953 127.921 43.3805 127.928 43.367C127.935 43.3535 127.945 43.3415 127.956 43.3317C127.968 43.3218 127.981 43.3144 127.996 43.3097C128.01 43.3051 128.026 43.3033 128.041 43.3046C128.056 43.3058 128.071 43.3099 128.085 43.3168C128.098 43.3237 128.11 43.3331 128.12 43.3447C128.13 43.3562 128.138 43.3696 128.143 43.384C128.147 43.3985 128.149 43.4137 128.148 43.4288C127.879 47.5274 124.436 49.8366 123.744 50.2552C123.728 50.2597 123.71 50.2597 123.693 50.2552C123.545 50.2874 123.396 50.292 123.253 50.292Z" fill="white"/>
<path d="M116.687 49.5835C116.667 49.5901 116.646 49.5901 116.626 49.5835C116.457 49.4531 116.319 49.2875 116.221 49.0984C116.123 48.9092 116.068 48.7011 116.06 48.4887C115.842 47.0857 116.367 44.6339 117.452 43.3643C117.463 43.3532 117.476 43.3443 117.49 43.3383C117.505 43.3322 117.52 43.3291 117.536 43.3291C117.551 43.3291 117.567 43.3322 117.581 43.3383C117.596 43.3443 117.609 43.3532 117.619 43.3643C117.641 43.3858 117.653 43.4147 117.653 43.4448C117.653 43.4749 117.641 43.5038 117.619 43.5253C116.589 44.7167 116.056 47.1133 116.265 48.4657C116.285 48.8156 116.44 49.1445 116.696 49.3857C117.338 49.275 117.963 49.0785 118.552 48.8015C118.58 48.7904 118.612 48.7904 118.64 48.8015C118.669 48.8126 118.692 48.834 118.705 48.8613C118.711 48.8752 118.715 48.8901 118.715 48.9053C118.715 48.9205 118.712 48.9355 118.707 48.9496C118.701 48.9637 118.693 48.9766 118.682 48.9875C118.672 48.9984 118.659 49.0071 118.645 49.0131C118.023 49.2944 117.363 49.4864 116.687 49.5835Z" fill="white"/>
<path d="M125.359 35.4478C124.918 37.6788 124.477 41.7774 126.055 43.2678C126.055 43.2678 125.438 45.5356 121.248 45.5356C116.64 45.5356 119.048 43.2678 119.048 43.2678C121.559 42.6698 121.494 40.8206 121.058 39.0864L125.359 35.4478Z" fill="#AD6359"/>
<path d="M126.05 43.2679C123.718 43.1021 121.376 43.1021 119.044 43.2679L118.58 43.3139C118.018 44.3627 117.879 45.9773 119.22 48.3739C119.22 48.3739 125.363 45.9175 126.964 43.3507C126.667 43.3047 126.361 43.2817 126.05 43.2679Z" fill="#AD6359"/>
<path opacity="0.2" d="M123.605 36.9336L121.053 39.1002C121.163 39.5037 121.236 39.9163 121.271 40.333C122.231 40.195 123.549 39.1508 123.651 38.1526C123.712 37.7469 123.697 37.3335 123.605 36.9336V36.9336Z" fill="black"/>
<path d="M127.79 31.5746C126.932 35.2132 126.644 36.7726 124.445 38.3412C121.141 40.7056 116.821 38.8656 116.557 35.043C116.325 31.6068 117.773 26.2294 121.661 25.383C122.516 25.1919 123.406 25.2204 124.247 25.466C125.088 25.7116 125.851 26.166 126.465 26.7862C127.079 27.4064 127.523 28.1718 127.755 29.0098C127.987 29.8478 127.999 30.7306 127.79 31.5746V31.5746Z" fill="#AD6359"/>
<path d="M114.441 66.9623C114.441 66.9623 111.444 95.9745 111.694 107.442C111.954 119.402 116.367 146.63 116.367 146.63H121.517C121.517 146.63 120.705 120.083 121.16 108.353C121.656 95.5605 125.753 66.9531 125.753 66.9531L114.441 66.9623Z" fill="#FBC02D"/>
<path opacity="0.3" d="M114.441 66.9623C114.441 66.9623 111.444 95.9745 111.694 107.442C111.954 119.402 116.367 146.63 116.367 146.63H121.517C121.517 146.63 120.705 120.083 121.16 108.353C121.656 95.5605 125.753 66.9531 125.753 66.9531L114.441 66.9623Z" fill="white"/>
<path d="M121.949 146.832H115.921L115.48 144.928L122.232 144.693L121.949 146.832Z" fill="#263238"/>
<path opacity="0.2" d="M121.095 74.1797C117.308 81.7375 120.334 95.5237 121.675 100.653C122.361 92.9523 123.531 83.5315 124.426 76.6177C123.837 72.7077 122.844 70.6975 121.095 74.1797Z" fill="black"/>
<path d="M138.852 151.745H135.052L133.66 143.023H137.455L138.852 151.745Z" fill="#FFB573"/>
<path d="M134.866 151.308H139.149C139.225 151.309 139.299 151.335 139.359 151.382C139.419 151.428 139.463 151.493 139.483 151.566L140.411 154.914C140.434 154.994 140.437 155.077 140.421 155.158C140.405 155.239 140.37 155.315 140.319 155.38C140.268 155.445 140.202 155.497 140.127 155.532C140.052 155.567 139.97 155.584 139.887 155.581C138.397 155.558 137.669 155.471 135.79 155.471C134.634 155.471 131.335 155.591 129.758 155.591C128.18 155.591 127.874 154.027 128.519 153.884C131.414 153.249 133.4 152.375 134.295 151.538C134.452 151.396 134.654 151.314 134.866 151.308V151.308Z" fill="#263238"/>
<g opacity="0.2">
<path opacity="0.2" d="M133.66 143.023L134.379 147.522H138.179L137.46 143.023H133.66Z" fill="black"/>
</g>
<path d="M118.733 66.9623C118.733 66.9623 121.921 95.9745 123.675 107.442C125.498 119.402 133.479 146.63 133.479 146.63H138.592C138.592 146.63 134.305 120.083 133.224 108.353C132.045 95.5605 130.008 66.9531 130.008 66.9531L118.733 66.9623Z" fill="#FBC02D"/>
<path opacity="0.3" d="M118.733 66.9623C118.733 66.9623 121.921 95.9745 123.675 107.442C125.498 119.402 133.479 146.63 133.479 146.63H138.592C138.592 146.63 134.305 120.083 133.224 108.353C132.045 95.5605 130.008 66.9531 130.008 66.9531L118.733 66.9623Z" fill="white"/>
<path d="M139.061 146.832H133.034L132.342 144.928L139.061 144.693V146.832Z" fill="#263238"/>
<path d="M133.525 151.966C133.192 151.992 132.858 151.912 132.574 151.736C132.507 151.684 132.452 151.618 132.414 151.542C132.376 151.467 132.357 151.383 132.356 151.299C132.351 151.252 132.359 151.205 132.381 151.164C132.402 151.122 132.436 151.087 132.477 151.064C132.908 150.811 134.523 151.575 134.704 151.667C134.722 151.674 134.738 151.687 134.748 151.704C134.759 151.72 134.765 151.739 134.764 151.759C134.764 151.776 134.759 151.793 134.748 151.807C134.737 151.82 134.721 151.829 134.704 151.833C134.316 151.914 133.922 151.959 133.525 151.966V151.966ZM132.746 151.189C132.69 151.185 132.634 151.196 132.583 151.221C132.566 151.23 132.553 151.244 132.545 151.262C132.536 151.279 132.534 151.298 132.537 151.317C132.538 151.372 132.55 151.426 132.574 151.475C132.599 151.525 132.633 151.568 132.676 151.603C132.936 151.81 133.562 151.842 134.388 151.704C133.872 151.446 133.317 151.272 132.746 151.189V151.189Z" fill="#FBC02D"/>
<path d="M134.685 151.833H134.648C134.184 151.626 133.168 150.816 133.182 150.388C133.182 150.287 133.242 150.163 133.488 150.135C133.674 150.12 133.858 150.176 134.003 150.291C134.392 150.692 134.656 151.195 134.764 151.74C134.767 151.756 134.766 151.771 134.761 151.786C134.756 151.8 134.748 151.813 134.736 151.823C134.72 151.831 134.703 151.834 134.685 151.833ZM133.581 150.305H133.53C133.367 150.305 133.363 150.388 133.363 150.406C133.363 150.664 134.045 151.303 134.541 151.579C134.446 151.141 134.225 150.738 133.906 150.42C133.814 150.347 133.699 150.306 133.581 150.305Z" fill="#FBC02D"/>
<path d="M121.707 31.5516C121.656 31.8506 121.452 32.0668 121.243 32.0116C121.034 31.9564 120.923 31.708 120.979 31.409C121.034 31.11 121.229 30.8938 121.443 30.926C121.656 30.9582 121.758 31.2526 121.707 31.5516Z" fill="#263238"/>
<path d="M118.292 30.9766C118.241 31.2756 118.037 31.4918 117.828 31.4366C117.62 31.3814 117.513 31.1376 117.564 30.834C117.615 30.5304 117.814 30.3188 118.028 30.374C118.241 30.4292 118.343 30.6776 118.292 30.9766Z" fill="#263238"/>
<path d="M118.111 30.4062L117.42 30.075C117.42 30.075 117.698 30.7006 118.111 30.4062Z" fill="#263238"/>
<path d="M119.253 31.6941C118.871 32.3308 118.402 32.9128 117.861 33.4237C117.997 33.558 118.161 33.6616 118.341 33.7275C118.521 33.7933 118.713 33.82 118.905 33.8055L119.253 31.6941Z" fill="#95463B"/>
<path d="M120.334 35.2546C120.178 35.2547 120.023 35.2409 119.87 35.2132C119.858 35.2115 119.847 35.2076 119.837 35.2015C119.827 35.1955 119.818 35.1876 119.811 35.1781C119.804 35.1687 119.799 35.158 119.797 35.1466C119.794 35.1353 119.794 35.1235 119.796 35.112C119.8 35.0883 119.814 35.0674 119.834 35.0536C119.854 35.0398 119.878 35.0344 119.902 35.0384C120.276 35.1095 120.662 35.0924 121.028 34.9886C121.394 34.8847 121.73 34.6969 122.009 34.4404C122.017 34.4315 122.027 34.4244 122.038 34.4195C122.05 34.4146 122.062 34.4121 122.074 34.4121C122.086 34.4121 122.098 34.4146 122.109 34.4195C122.121 34.4244 122.131 34.4315 122.139 34.4404C122.147 34.4485 122.154 34.4582 122.158 34.4689C122.163 34.4795 122.165 34.491 122.165 34.5025C122.165 34.5141 122.163 34.5255 122.158 34.5362C122.154 34.5468 122.147 34.5565 122.139 34.5646C121.653 35.0223 121.004 35.2704 120.334 35.2546V35.2546Z" fill="#263238"/>
<path d="M129.581 25.9074C129.145 25.6044 128.651 25.3945 128.129 25.291C127.707 21.703 124.807 19.4214 121.573 20.1436C117.907 20.9624 116.631 25.4704 119.095 27.0068C120.544 27.8847 122.181 28.4126 123.874 28.5478C123.939 31.524 125.809 34.0678 127.122 34.2058C130.871 32.7246 131.841 27.4852 129.581 25.9074Z" fill="#263238"/>
<path d="M128.217 35.1167C127.847 35.7395 127.246 36.1937 126.542 36.3817C125.614 36.6163 125.15 35.7837 125.438 34.9189C125.684 34.1415 126.472 33.0789 127.405 33.2215C127.608 33.2582 127.798 33.3442 127.959 33.4717C128.119 33.5992 128.246 33.7644 128.326 33.9522C128.407 34.1401 128.439 34.3448 128.42 34.5481C128.401 34.7513 128.331 34.9467 128.217 35.1167Z" fill="#AD6359"/>
<path d="M123.197 31.0917C123.158 31.0916 123.121 31.0795 123.09 31.0572C123.06 31.0349 123.037 31.0035 123.025 30.9675C122.779 30.1809 121.763 29.8405 121.754 29.8405C121.708 29.8257 121.67 29.7938 121.649 29.7515C121.627 29.7093 121.623 29.6602 121.638 29.6151C121.644 29.5924 121.656 29.5714 121.671 29.5532C121.686 29.535 121.705 29.5201 121.726 29.5093C121.748 29.4986 121.771 29.4922 121.795 29.4906C121.819 29.489 121.842 29.4923 121.865 29.5001C121.911 29.5001 123.071 29.9003 123.368 30.8801C123.383 30.9252 123.379 30.9743 123.357 31.0165C123.335 31.0588 123.298 31.0908 123.252 31.1055L123.197 31.0917Z" fill="#263238"/>
<path d="M117.536 29.2379C117.504 29.2378 117.473 29.2298 117.445 29.2145C117.418 29.1992 117.394 29.1772 117.378 29.1505C117.355 29.109 117.349 29.06 117.362 29.0143C117.375 28.9686 117.406 28.9299 117.447 28.9067C117.692 28.7602 117.968 28.6737 118.253 28.6545C118.538 28.6353 118.823 28.6839 119.085 28.7963C119.122 28.8208 119.148 28.8576 119.159 28.8999C119.17 28.9421 119.165 28.9869 119.145 29.0258C119.125 29.0648 119.092 29.0951 119.051 29.1113C119.01 29.1275 118.964 29.1283 118.923 29.1137V29.1137C118.714 29.0287 118.487 28.9936 118.261 29.0112C118.036 29.0287 117.817 29.0985 117.624 29.2149C117.597 29.231 117.567 29.239 117.536 29.2379Z" fill="#263238"/>
<path d="M134.379 48.5073C134.843 50.6739 135.149 52.8037 135.409 54.9795C135.683 57.1638 135.838 59.3612 135.873 61.5621C135.873 61.6725 135.873 61.9025 135.873 62.1049C135.873 62.3073 135.841 62.4729 135.817 62.6431C135.762 62.9789 135.701 63.2917 135.622 63.5631C135.474 64.1519 135.298 64.6993 135.112 65.2375C134.741 66.3093 134.3 67.3259 133.855 68.3287C132.947 70.3175 131.939 72.2597 130.834 74.1477L129.089 73.3427L130.124 70.3159C130.472 69.3131 130.806 68.3011 131.117 67.2937C131.428 66.2863 131.73 65.2881 131.989 64.3037C132.115 63.8115 132.221 63.3239 132.296 62.8639C132.333 62.6339 132.361 62.4039 132.379 62.2199C132.379 62.1233 132.379 62.0359 132.379 61.9577L132.356 61.6955C132.272 60.6651 132.152 59.6301 132.026 58.5905L131.59 55.4625C131.27 53.3833 130.913 51.2765 130.556 49.2203L134.379 48.5073Z" fill="#AD6359"/>
<path d="M132.606 44.1233C134.152 44.5833 136.008 49.8641 136.008 49.8641L130.008 54.1145C130.008 54.1145 127.823 49.7123 128.472 47.7297C129.15 45.6689 130.839 43.5897 132.606 44.1233Z" fill="#263238"/>
<path d="M115.74 151.966C115.413 151.998 115.085 151.917 114.812 151.736C114.75 151.682 114.703 151.614 114.675 151.538C114.646 151.462 114.638 151.379 114.65 151.299C114.652 151.25 114.667 151.203 114.693 151.162C114.719 151.121 114.755 151.087 114.798 151.064C115.262 150.811 116.779 151.575 116.951 151.667C116.968 151.675 116.981 151.689 116.989 151.705C116.998 151.722 117.001 151.741 116.998 151.759C116.995 151.777 116.987 151.793 116.975 151.807C116.962 151.82 116.946 151.829 116.928 151.833C116.537 151.913 116.139 151.958 115.74 151.966V151.966ZM115.063 151.189C115.005 151.185 114.948 151.196 114.896 151.221C114.878 151.23 114.863 151.244 114.852 151.261C114.841 151.278 114.836 151.297 114.835 151.317C114.828 151.369 114.834 151.423 114.852 151.472C114.869 151.522 114.899 151.566 114.937 151.603C115.169 151.81 115.796 151.842 116.636 151.704C116.145 151.444 115.613 151.269 115.063 151.189V151.189Z" fill="#FBC02D"/>
<path d="M116.919 151.833H116.877C116.413 151.626 115.527 150.816 115.601 150.388C115.601 150.287 115.689 150.163 115.935 150.135C116.025 150.126 116.116 150.136 116.202 150.162C116.288 150.189 116.368 150.233 116.436 150.291C116.9 150.687 117.002 151.699 117.002 151.74C117.005 151.756 117.003 151.773 116.996 151.787C116.99 151.802 116.979 151.815 116.965 151.823C116.951 151.83 116.935 151.833 116.919 151.833V151.833ZM116.014 150.305H115.949C115.787 150.305 115.777 150.388 115.773 150.406C115.731 150.664 116.339 151.303 116.798 151.579C116.768 151.155 116.606 150.75 116.334 150.42C116.246 150.343 116.132 150.302 116.014 150.305V150.305Z" fill="#FBC02D"/>
<path d="M121.517 30.9811L120.826 30.6499C120.826 30.6499 121.113 31.2801 121.517 30.9811Z" fill="#263238"/>
<path d="M130.101 66.0653L130.495 67.4453C130.551 67.5557 130.421 67.6615 130.245 67.6615H114.362C114.223 67.6615 114.111 67.5925 114.102 67.5097L113.963 66.1297C113.963 66.0331 114.074 65.9549 114.223 65.9549H129.869C129.914 65.9538 129.958 65.9633 129.998 65.9825C130.039 66.0017 130.074 66.03 130.101 66.0653V66.0653Z" fill="#FBC02D"/>
<path d="M128.013 67.795H128.431C128.514 67.795 128.574 67.7536 128.57 67.703L128.375 65.9228C128.375 65.8722 128.296 65.8262 128.213 65.8262H127.795C127.711 65.8262 127.646 65.8722 127.651 65.9228L127.851 67.703C127.846 67.7536 127.92 67.795 128.013 67.795Z" fill="#FBC02D"/>
<g opacity="0.3">
<path opacity="0.3" d="M128.013 67.795H128.431C128.514 67.795 128.574 67.7536 128.57 67.703L128.375 65.9228C128.375 65.8722 128.296 65.8262 128.213 65.8262H127.795C127.711 65.8262 127.646 65.8722 127.651 65.9228L127.851 67.703C127.846 67.7536 127.92 67.795 128.013 67.795Z" fill="white"/>
</g>
<path d="M115.541 67.795H115.958C116.042 67.795 116.107 67.7536 116.102 67.703L115.903 65.9228C115.903 65.8722 115.824 65.8262 115.74 65.8262H115.323C115.239 65.8262 115.174 65.8722 115.184 65.9228L115.378 67.703C115.383 67.7536 115.457 67.795 115.541 67.795Z" fill="#FBC02D"/>
<path opacity="0.3" d="M115.541 67.795H115.958C116.042 67.795 116.107 67.7536 116.102 67.703L115.903 65.9228C115.903 65.8722 115.824 65.8262 115.74 65.8262H115.323C115.239 65.8262 115.174 65.8722 115.184 65.9228L115.378 67.703C115.383 67.7536 115.457 67.795 115.541 67.795Z" fill="white"/>
<path d="M121.772 67.795H122.19C122.273 67.795 122.338 67.7536 122.329 67.703L122.134 65.9228C122.134 65.8722 122.055 65.8262 121.972 65.8262H121.554C121.471 65.8262 121.406 65.8722 121.415 65.9228L121.61 67.703C121.614 67.7536 121.689 67.795 121.772 67.795Z" fill="#FBC02D"/>
<path opacity="0.3" d="M121.772 67.795H122.19C122.273 67.795 122.338 67.7536 122.329 67.703L122.134 65.9228C122.134 65.8722 122.055 65.8262 121.972 65.8262H121.554C121.471 65.8262 121.406 65.8722 121.415 65.9228L121.61 67.703C121.614 67.7536 121.689 67.795 121.772 67.795Z" fill="white"/>
<path d="M129.159 73.0023L126.212 75.8359L130.054 76.2177C130.054 76.2177 131.446 74.2259 130.718 72.8367L129.159 73.0023Z" fill="#9C4C42"/>
<path d="M125.776 78.9729L129.015 79.1201L130.054 76.2175L126.213 75.8357L125.776 78.9729Z" fill="#9C4C42"/>
<path d="M50.664 152.311C51.0298 152.353 51.3988 152.263 51.7033 152.058C51.7456 152.011 51.7727 151.952 51.7809 151.89C51.7892 151.828 51.7783 151.764 51.7497 151.708C51.7287 151.662 51.6973 151.62 51.658 151.588C51.6186 151.555 51.5722 151.532 51.5224 151.519C50.9748 151.368 49.6664 152.039 49.6292 152.071C49.6134 152.079 49.6001 152.09 49.5911 152.105C49.582 152.12 49.5775 152.137 49.5782 152.154C49.5789 152.17 49.5848 152.184 49.5949 152.196C49.605 152.208 49.6187 152.216 49.6339 152.219C49.9738 152.279 50.3185 152.31 50.664 152.311V152.311ZM51.3043 151.657C51.355 151.65 51.4066 151.65 51.4574 151.657C51.4878 151.663 51.5163 151.677 51.5405 151.696C51.5647 151.715 51.5839 151.74 51.5966 151.768C51.6384 151.869 51.5966 151.92 51.5966 151.947C51.4064 152.163 50.5433 152.168 49.9216 152.081C50.3539 151.86 50.8219 151.717 51.3043 151.657V151.657Z" fill="#FBC02D"/>
<path d="M49.648 152.219H49.6851C50.1213 152.035 51.0446 151.299 51.04 150.921C51.04 150.829 50.989 150.719 50.7709 150.696C50.6044 150.685 50.4395 150.734 50.3069 150.834C49.9494 151.193 49.7003 151.644 49.5877 152.136C49.583 152.149 49.5828 152.163 49.5869 152.176C49.5911 152.19 49.5995 152.201 49.6109 152.209C49.622 152.216 49.635 152.219 49.648 152.219V152.219ZM50.6827 150.839H50.7338C50.873 150.839 50.8776 150.908 50.8776 150.926C50.8776 151.156 50.2419 151.731 49.7826 151.979C49.8854 151.585 50.0939 151.226 50.3858 150.94C50.4725 150.879 50.5764 150.847 50.6827 150.848V150.839Z" fill="#FBC02D"/>
<path d="M45.9126 152.14H49.323L50.8217 144.311H47.4113L45.9126 152.14Z" fill="#B55B52"/>
<path d="M49.3556 151.75H45.6436C45.5727 151.752 45.5041 151.775 45.4464 151.816C45.3886 151.857 45.3443 151.914 45.3188 151.98L44.2006 154.983C44.1693 155.048 44.1556 155.12 44.1607 155.192C44.1658 155.264 44.1896 155.334 44.2298 155.394C44.2699 155.454 44.3251 155.503 44.3899 155.536C44.4547 155.569 44.5269 155.584 44.5996 155.581C45.9499 155.581 47.8987 155.485 49.5876 155.485C51.5596 155.485 51.3787 155.59 53.694 155.59C55.086 155.59 55.6892 154.187 55.1232 154.059C52.5433 153.484 52.2417 153.419 50.1491 152.012C49.918 151.846 49.641 151.754 49.3556 151.75Z" fill="#263238"/>
<path opacity="0.2" d="M50.8215 144.316L50.0466 148.35H46.6362L47.4111 144.316H50.8215Z" fill="black"/>
<path d="M51.0771 67.8269L53.3089 70.1499L49.7083 71.3965C49.7083 71.3965 48.3998 69.5013 49.4067 68.2041L51.0771 67.8269Z" fill="#B55B52"/>
<path d="M53.9768 73.3975L50.4133 73.9127L49.708 71.3965L53.3086 70.1499L53.9768 73.3975Z" fill="#B55B52"/>
<path d="M37.6998 87.1055L55.0905 87.8599C55.4992 87.8662 55.8975 87.7322 56.2179 87.4807C56.5384 87.2293 56.7614 86.8757 56.8491 86.4799L58.9278 75.9459C58.9709 75.7675 58.9731 75.5816 58.934 75.4023C58.8949 75.2229 58.8156 75.0545 58.702 74.9096C58.5883 74.7647 58.4433 74.647 58.2776 74.5652C58.1118 74.4834 57.9297 74.4397 57.7446 74.4371L40.3539 73.6781C39.946 73.6729 39.5488 73.8074 39.2293 74.0588C38.9097 74.3102 38.6875 74.6631 38.5999 75.0581L36.5166 85.5921C36.4726 85.7709 36.4699 85.9572 36.5086 86.1372C36.5473 86.3172 36.6264 86.4862 36.7402 86.6316C36.8539 86.7771 36.9992 86.8952 37.1654 86.9773C37.3315 87.0593 37.5142 87.1032 37.6998 87.1055V87.1055Z" fill="#263238"/>
<path d="M38.8923 90.3439L60.3755 91.2639C60.8627 91.2824 61.3385 91.1146 61.7046 90.7953C62.0707 90.476 62.2992 90.0296 62.3428 89.5481L63.4796 76.4749C63.5026 76.2426 63.4773 76.0081 63.4052 75.7859C63.3331 75.5637 63.2158 75.3585 63.0605 75.183C62.9053 75.0076 62.7154 74.8655 62.5025 74.7657C62.2897 74.6659 62.0585 74.6104 61.8232 74.6027L40.3446 73.6827C39.8574 73.6664 39.3823 73.8348 39.0159 74.1536C38.6496 74.4723 38.4195 74.9175 38.3726 75.3985L37.2358 88.4717C37.2135 88.7039 37.2393 88.9381 37.3117 89.1601C37.384 89.382 37.5014 89.5869 37.6565 89.7622C37.8116 89.9376 38.0013 90.0796 38.2138 90.1796C38.4263 90.2796 38.6572 90.3356 38.8923 90.3439V90.3439Z" fill="#FBC02D"/>
<path opacity="0.2" d="M38.8923 90.3439L60.3755 91.2639C60.8627 91.2824 61.3385 91.1146 61.7046 90.7953C62.0707 90.476 62.2992 90.0296 62.3428 89.5481L63.4796 76.4749C63.5026 76.2426 63.4773 76.0081 63.4052 75.7859C63.3331 75.5637 63.2158 75.3585 63.0605 75.183C62.9053 75.0076 62.7154 74.8655 62.5025 74.7657C62.2897 74.6659 62.0585 74.6104 61.8232 74.6027L40.3446 73.6827C39.8574 73.6664 39.3823 73.8348 39.0159 74.1536C38.6496 74.4723 38.4195 74.9175 38.3726 75.3985L37.2358 88.4717C37.2135 88.7039 37.2393 88.9381 37.3117 89.1601C37.384 89.382 37.5014 89.5869 37.6565 89.7622C37.8116 89.9376 38.0013 90.0796 38.2138 90.1796C38.4263 90.2796 38.6572 90.3356 38.8923 90.3439V90.3439Z" fill="black"/>
<path d="M54.6541 78.0666H54.5985L48.3623 77.7952C48.1998 77.7896 48.0402 77.7512 47.8932 77.6822C47.7463 77.6133 47.6151 77.5152 47.5078 77.3942C47.4004 77.2731 47.3192 77.1316 47.2691 76.9782C47.2189 76.8249 47.2009 76.663 47.2162 76.5026L47.4621 73.6828C47.5227 73.1063 47.8006 72.5737 48.2402 72.1916C48.6798 71.8095 49.2488 71.6061 49.8332 71.622L54.0092 71.8014C54.3109 71.8132 54.6071 71.8858 54.8797 72.0147C55.1523 72.1436 55.3956 72.3261 55.5948 72.5512C55.794 72.7762 55.945 73.0391 56.0385 73.3237C56.1321 73.6084 56.1662 73.909 56.1389 74.2072L55.9023 76.9396C55.8714 77.2471 55.7267 77.5323 55.4963 77.7404C55.2658 77.9485 54.9658 78.0647 54.6541 78.0666V78.0666ZM48.6221 76.4198L54.5196 76.6774L54.7469 74.083C54.7598 73.9694 54.7488 73.8545 54.7147 73.7453C54.6806 73.6362 54.624 73.5352 54.5486 73.4488C54.4732 73.3624 54.3806 73.2924 54.2766 73.2432C54.1726 73.194 54.0594 73.1667 53.9442 73.163L49.7682 72.979C49.5409 72.9772 49.3209 73.0582 49.1498 73.2066C48.9788 73.3549 48.8686 73.5604 48.8402 73.784L48.6221 76.4198Z" fill="#FBC02D"/>
<path d="M62.6724 91.379L41.1939 90.459C40.703 90.4306 40.2406 90.2215 39.8972 89.8726C39.5539 89.5237 39.3544 89.0602 39.3379 88.573L39.0502 75.4401C39.0407 75.2082 39.0803 74.977 39.1665 74.7614C39.2527 74.5457 39.3834 74.3502 39.5504 74.1877C39.7174 74.0252 39.9169 73.8992 40.136 73.8178C40.3552 73.7364 40.5891 73.7014 40.8227 73.7151L62.3059 74.6351C62.7971 74.6624 63.2601 74.8713 63.6037 75.2204C63.9473 75.5695 64.1464 76.0336 64.1619 76.5211L64.4449 89.654C64.4537 89.8857 64.4136 90.1165 64.3272 90.3319C64.2408 90.5473 64.1099 90.7424 63.9431 90.9048C63.7763 91.0671 63.5771 91.1932 63.3583 91.2749C63.1395 91.3565 62.9059 91.392 62.6724 91.379Z" fill="#FBC02D"/>
<path d="M56.3111 42.0993C56.0837 42.5593 55.8146 43.0837 55.5733 43.5851C55.332 44.0865 55.1093 44.6201 54.8541 45.1399C54.3901 46.1841 53.9261 47.2329 53.5271 48.2863C53.128 49.3397 52.7568 50.4023 52.4274 51.4557C52.2743 51.9847 52.1165 52.5091 52.0005 53.0289C51.9309 53.2911 51.8706 53.5533 51.8242 53.8063L51.75 54.1927C51.7221 54.3261 51.6943 54.4595 51.685 54.5515C51.685 54.7539 51.6293 54.9379 51.62 55.2093C51.6108 55.4807 51.5876 55.7015 51.5876 55.9821C51.5876 56.5203 51.5876 57.0861 51.5876 57.6519C51.6108 58.7973 51.6804 59.9519 51.75 61.1387C51.8845 63.4893 52.084 65.8767 52.2696 68.2319L48.0194 68.9127C47.444 66.5161 46.9893 64.1425 46.581 61.7091C46.3861 60.4947 46.2191 59.2711 46.0799 58.0291C46.0149 57.3943 45.95 56.7641 45.9175 56.0971C45.8896 55.7797 45.885 55.4209 45.8804 55.0713C45.8757 54.7217 45.8804 54.3261 45.9221 53.9305C45.9314 53.7503 45.95 53.5706 45.9778 53.3923L46.0428 52.8863C46.0799 52.5459 46.1309 52.2147 46.1912 51.8927C46.3026 51.2303 46.4418 50.5909 46.581 49.9515C46.8826 48.6865 47.226 47.4399 47.6343 46.2347C48.0426 45.0295 48.4741 43.8335 48.9567 42.6651C49.198 42.0809 49.4207 41.5013 49.7084 40.9217C49.996 40.3421 50.2234 39.7901 50.5436 39.1553L56.3111 42.0993Z" fill="#FBC02D"/>
<path d="M65.6092 66.1802C65.6092 66.1802 62.3287 91.448 60.431 101.752C58.4543 112.47 51.4526 147.568 51.4526 147.568H45.6572C45.6572 147.568 48.599 113.096 49.9028 102.571C51.3273 91.0708 53.6148 66.1802 53.6148 66.1802H65.6092Z" fill="#263238"/>
<path d="M52.8821 145.286C52.9099 145.286 52.2047 147.665 52.2047 147.665H45.1797L45.305 145.544L52.8821 145.286Z" fill="#FBC02D"/>
<path d="M68.4028 24.2191C68.4028 24.5043 68.556 24.7389 68.7462 24.7389C68.9364 24.7389 69.0849 24.5043 69.0849 24.2191C69.0849 23.9339 68.9318 23.7039 68.7462 23.7039C68.5606 23.7039 68.4028 23.9201 68.4028 24.2191Z" fill="#263238"/>
<path d="M68.5278 24.7388C68.8763 25.614 69.3447 26.4375 69.9198 27.186C69.721 27.3274 69.4933 27.4237 69.2527 27.4682C69.0122 27.5128 68.7647 27.5043 68.5278 27.4436V24.7388Z" fill="#A02724"/>
<path d="M67.3817 22.632C67.4162 22.6322 67.45 22.6227 67.4792 22.6044C67.6479 22.4748 67.8454 22.3871 68.0553 22.3487C68.2652 22.3103 68.4813 22.3223 68.6856 22.3837C68.7275 22.3988 68.7736 22.3971 68.8143 22.3791C68.855 22.3611 68.8871 22.3281 68.9037 22.287C68.9118 22.2665 68.9158 22.2446 68.9153 22.2226C68.9148 22.2005 68.9099 22.1788 68.9008 22.1586C68.8917 22.1385 68.8787 22.1203 68.8625 22.1053C68.8462 22.0902 68.8271 22.0785 68.8062 22.0709C68.5496 21.9888 68.2769 21.9694 68.0111 22.0143C67.7453 22.0591 67.4944 22.1669 67.2797 22.3284C67.2439 22.355 67.2199 22.3945 67.213 22.4383C67.2061 22.4821 67.2167 22.5269 67.2425 22.5631C67.2584 22.5849 67.2793 22.6026 67.3035 22.6146C67.3278 22.6266 67.3546 22.6326 67.3817 22.632V22.632Z" fill="#263238"/>
<path d="M59.2663 27.3792C59.7303 29.854 60.2407 34.3849 58.4961 36.0317C58.4961 36.0317 59.1782 38.5387 63.8135 38.5387C68.9175 38.5387 66.2449 36.0317 66.2449 36.0317C63.4609 35.3739 63.5398 33.3315 64.0223 31.4087L59.2663 27.3792Z" fill="#B55B52"/>
<path d="M57.8281 36.892C57.4662 36.1008 57.0625 35.1901 57.8931 34.9049C58.8211 34.5921 63.8183 34.2746 65.5444 34.8634C65.7721 34.926 65.985 35.0327 66.1708 35.1775C66.3566 35.3222 66.5116 35.502 66.6268 35.7065C66.7421 35.911 66.8152 36.1361 66.8421 36.3688C66.8689 36.6015 66.8489 36.8372 66.7833 37.0622L57.8281 36.892Z" fill="#263238"/>
<path d="M51.7824 37.0025C48.7989 38.3457 46.9429 48.5301 46.9429 48.5301L52.7939 50.3701C53.9435 47.6807 54.8986 44.9138 55.6522 42.0901C56.7147 37.8397 54.8355 35.6317 51.7824 37.0025Z" fill="#FBC02D"/>
<path d="M88.1087 62.2195H91.7094L91.0783 66.4883C91.0783 66.4883 88.2572 66.3871 86.9766 64.2803L88.1087 62.2195Z" fill="#B55B52"/>
<path d="M95.0964 63.7054L93.2868 67.0036L91.0596 66.4976L91.6906 62.2288L95.0964 63.7054Z" fill="#B55B52"/>
<path d="M58.7745 23.6117C58.9926 27.1261 58.9415 29.1961 60.7326 30.9993C63.4238 33.7133 67.7993 32.1033 68.6438 28.5935C69.4094 25.4379 68.9222 20.2215 65.4514 18.8231C64.6881 18.5113 63.857 18.398 63.037 18.4942C62.2171 18.5903 61.4355 18.8926 60.7666 19.3723C60.0976 19.8521 59.5635 20.4934 59.2148 21.2354C58.8662 21.9774 58.7146 22.7954 58.7745 23.6117V23.6117Z" fill="#B55B52"/>
<path d="M58.3666 28.3912C58.3666 28.3912 55.1557 23.6164 55.8517 20.5022C56.4874 17.6548 62.9695 16.6382 65.6607 16.9234C68.5189 17.2316 69.6325 18.4506 68.0642 20.907C67.1387 21.3418 66.1655 21.6691 65.1642 21.8822C65.1642 21.8822 66.7557 23.8188 66.7696 25.1022C66.3056 25.3414 64.8719 25.9118 64.8719 25.9118C64.8719 25.9118 62.8395 30.8844 62.7792 30.8752C61.9951 30.7832 60.1808 30.7556 59.5312 30.9994C59.071 30.1634 58.6814 29.291 58.3666 28.3912V28.3912Z" fill="#263238"/>
<path d="M63.4657 25.3966C63.6998 26.2373 64.205 26.9789 64.9041 27.508C65.8321 28.198 66.5235 27.5448 66.4539 26.5098C66.3936 25.5898 65.8368 24.104 64.816 23.8142C63.7952 23.5244 63.1966 24.38 63.4657 25.3966Z" fill="#B55B52"/>
<path opacity="0.3" d="M63.1502 75.6241C58.5891 76.6729 59.4382 93.0305 60.3151 102.355C60.3569 102.143 60.3894 101.945 60.4265 101.752C61.5586 95.6157 63.178 84.1801 64.3055 75.9277C63.9544 75.7265 63.5557 75.6217 63.1502 75.6241V75.6241Z" fill="black"/>
<path d="M67.5627 152.311C67.9988 152.311 68.4211 152.251 68.5649 152.058C68.6019 152.007 68.6218 151.946 68.6218 151.883C68.6218 151.82 68.6019 151.759 68.5649 151.708C68.5375 151.661 68.5007 151.62 68.4568 151.588C68.413 151.555 68.3629 151.532 68.3097 151.519C67.7436 151.368 66.5511 152.039 66.5001 152.071C66.486 152.08 66.4749 152.092 66.4682 152.107C66.4616 152.122 66.4597 152.138 66.463 152.154C66.4663 152.17 66.4742 152.185 66.4857 152.196C66.4973 152.207 66.512 152.215 66.528 152.219C66.8696 152.278 67.2158 152.309 67.5627 152.311ZM68.1055 151.657C68.1563 151.65 68.2079 151.65 68.2587 151.657C68.2913 151.664 68.3222 151.677 68.3494 151.696C68.3766 151.715 68.3994 151.739 68.4164 151.768C68.4767 151.869 68.4535 151.92 68.4164 151.947C68.2587 152.163 67.3956 152.168 66.76 152.081C67.1765 151.854 67.6335 151.71 68.1055 151.657V151.657Z" fill="#FBC02D"/>
<path d="M66.5326 152.219H66.5651C66.9781 152.035 67.7947 151.299 67.7298 150.921C67.7298 150.829 67.6509 150.719 67.4282 150.696C67.3454 150.686 67.2614 150.693 67.1816 150.717C67.1017 150.741 67.0277 150.781 66.9642 150.834C66.528 151.188 66.4398 152.099 66.4352 152.136C66.4334 152.15 66.4355 152.164 66.4412 152.177C66.4469 152.19 66.4561 152.201 66.4677 152.209C66.4873 152.221 66.5106 152.224 66.5326 152.219V152.219ZM67.3632 150.839H67.4142C67.5581 150.839 67.5674 150.908 67.572 150.926C67.6091 151.156 67.0523 151.731 66.644 151.979C66.6865 151.594 66.8487 151.231 67.108 150.94C67.1807 150.882 67.2703 150.85 67.3632 150.848V150.839Z" fill="#FBC02D"/>
<path d="M62.7837 152.14H66.1941L66.5328 144.311H63.1271L62.7837 152.14Z" fill="#B55B52"/>
<path d="M66.1707 151.75H62.4587C62.391 151.75 62.3253 151.773 62.2723 151.814C62.2193 151.856 62.182 151.914 62.1663 151.98L61.4935 154.983C61.4775 155.056 61.4781 155.131 61.4954 155.203C61.5128 155.275 61.5463 155.343 61.5936 155.4C61.6409 155.458 61.7007 155.504 61.7686 155.535C61.8364 155.567 61.9105 155.582 61.9854 155.581C63.3263 155.581 65.2659 155.485 66.9548 155.485C68.9315 155.485 70.6344 155.59 72.9497 155.59C74.3417 155.59 74.7361 154.187 74.1515 154.059C71.4835 153.484 69.3073 153.419 67.0012 152.012C66.7546 151.849 66.4668 151.758 66.1707 151.75V151.75Z" fill="#263238"/>
<path opacity="0.2" d="M66.5325 144.316L66.3562 148.35H62.9458L63.1221 144.316H66.5325Z" fill="black"/>
<path d="M71.6924 66.1802C71.6924 66.1802 72.1564 91.448 71.7898 101.752C71.4047 112.47 67.6138 147.568 67.6138 147.568H61.8556C61.8556 147.568 61.6422 113.096 61.3916 102.571C61.1086 91.0708 59.7119 66.1802 59.7119 66.1802H71.6924Z" fill="#263238"/>
<path d="M68.7414 145.286C68.7646 145.286 68.412 147.665 68.412 147.665H61.3917L61.1968 145.544L68.7414 145.286Z" fill="#FBC02D"/>
<path d="M71.4881 36.9703C71.4881 36.9703 75.5806 43.1527 72.1517 68.3009H52.8957C52.7704 65.5409 55.095 49.8687 52.3945 36.7955C54.4097 36.4108 56.4478 36.1557 58.4961 36.0319C61.0769 35.8846 63.6641 35.8846 66.2449 36.0319C68.0147 36.2086 69.7678 36.5224 71.4881 36.9703V36.9703Z" fill="#FBC02D"/>
<path opacity="0.2" d="M73.5207 49.8363L69.4839 43.2031C69.4839 43.2031 71.0012 52.6055 73.3258 56.8467C73.4836 54.1925 73.5392 51.8649 73.5207 49.8363Z" fill="black"/>
<path d="M75.242 41.8093C75.9055 43.9115 76.634 46.0643 77.381 48.1711C78.1281 50.2779 78.9076 52.3709 79.7614 54.3811L80.0862 55.1263C80.1141 55.1816 80.1389 55.2385 80.1604 55.2965C80.1794 55.3393 80.2011 55.3807 80.2254 55.4207C80.4313 55.7253 80.671 56.0061 80.9399 56.2579C81.6722 56.9338 82.4589 57.5492 83.2924 58.0979C84.1647 58.6959 85.0881 59.2755 86.0393 59.8229C86.9905 60.3703 87.9742 60.9315 88.9114 61.4145L87.1065 65.5913C84.8225 64.7604 82.6059 63.7577 80.4759 62.5921C79.3361 61.9614 78.2498 61.2399 77.2279 60.4347C76.6189 59.9481 76.0664 59.3958 75.5807 58.7879C75.4415 58.5901 75.307 58.4153 75.1724 58.1945C75.0378 57.9737 74.8894 57.6977 74.8476 57.6057L74.4393 56.8007C73.3767 54.6571 72.4255 52.5135 71.5486 50.3607C70.6716 48.2079 69.855 46.0413 69.0708 43.8011L75.242 41.8093Z" fill="#FBC02D"/>
<path d="M66.941 38.4974C65.7486 41.5058 73.0009 53.6176 73.0009 53.6176L77.7197 49.1418C77.7197 49.1418 76.6897 45.3376 75.3162 40.756C73.9613 36.2526 68.0778 35.6224 66.941 38.4974Z" fill="#FBC02D"/>
</svg>
