<svg width="514" height="269" viewBox="0 0 514 269" fill="none" xmlns="http://www.w3.org/2000/svg">
<g clip-path="url(#clip0_521_2545)">
<path d="M479.192 266.516C479.192 267.889 374.174 268.995 244.627 268.995C115.08 268.995 10.0625 267.884 10.0625 266.516C10.0625 265.149 115.08 264.033 244.627 264.033C374.174 264.033 479.192 265.149 479.192 266.516Z" fill="#E1E4E5"/>
<path d="M61.5148 101.047C61.1426 95.0166 57.2474 89.8712 54.7939 84.3434C51.9944 78.0348 51.0351 70.9193 52.0678 64.092C53.326 55.7766 57.3942 48.1948 60.2356 40.2777C63.0771 32.3605 64.6341 23.2906 60.9329 15.7402C65.1164 22.9238 68.5607 31.1554 67.1767 39.3502C66.102 45.6955 62.2435 51.2653 60.8333 57.5424C58.7415 66.8324 62.1911 76.3424 64.7914 85.5013C67.3916 94.6603 68.9853 105.176 63.7953 113.162C61.6878 116.405 58.6314 118.915 56.2408 121.959C53.8503 125.003 52.1098 129.017 53.2841 132.7C51.1294 125.941 48.3614 125.375 53.499 118.92C57.6301 113.743 61.9552 108.053 61.5148 101.047Z" fill="#C6CACC"/>
<path d="M25.1858 81.8176C28.9184 67.3666 34.8791 52.0877 29.7991 38.0558C28.6825 34.9696 27.0573 32.0826 25.8516 29.0278C22.1871 19.7536 22.6169 8.95461 26.9997 0C24.499 8.62975 25.6733 18.255 30.1819 26.0255C32.2422 29.578 34.9525 32.7375 36.8346 36.3896C39.7966 42.1323 40.5305 48.9858 38.8582 55.2315C37.8988 58.8049 36.2055 62.1269 34.7219 65.5117C29.0075 78.5638 26.4649 93.8165 31.8437 107.015C30.6222 104.023 25.7048 102.619 24.3627 98.8309C22.4649 93.4707 23.8175 87.1149 25.1858 81.8176Z" fill="#C6CACC"/>
<path d="M6.01358 102.006C7.08305 94.7177 10.0922 87.859 11.7803 80.6858C14.6951 68.2835 13.5103 54.9538 8.44085 43.2588C16.7083 53.6543 20.5248 67.4714 18.7633 80.6282C18.2181 84.7151 17.1591 88.7183 16.6087 92.8C16.011 97.2327 16.011 101.723 16.011 106.193C16.011 116.588 16.5877 127.204 15.8852 137.557C10.5641 127.366 4.30453 113.67 6.01358 102.006Z" fill="#C6CACC"/>
<path d="M13.7888 157.84C15.9382 151.909 16.7246 145.49 16.0797 139.213C19.587 141.566 22.4336 144.887 24.2213 148.707C21.8832 140.706 22.2449 131.945 25.2331 124.165C27.4664 118.349 31.1991 112.59 30.2764 106.428C33.4062 111.505 38.7692 114.901 41.8833 119.983C45.6369 126.108 45.6055 133.743 45.4639 140.921C46.3971 138.846 47.3302 136.771 48.2582 134.696C50.6068 142 53.6265 149.084 57.27 155.838C57.8991 152.946 58.523 150.059 59.1521 147.167C59.6344 149.519 60.966 151.689 62.8428 153.187C63.9437 143.813 64.5518 134.377 64.6619 124.94C68.5256 133.79 75.3304 140.947 81.3488 148.503C87.3619 156.058 92.8665 164.709 93.2911 174.355C93.4327 177.567 92.9714 180.879 91.4039 183.687C88.7931 188.361 83.6083 190.913 78.6279 192.878C67.7917 197.148 56.2792 199.983 44.6304 199.993C34.6958 200.004 16.8556 198.081 10.5332 189.042C4.14784 179.915 10.6013 166.648 13.7888 157.84Z" fill="#C96741"/>
<path d="M15.9642 166.103C17.2539 162.786 18.9525 159.501 19.0206 155.948C19.4662 158.139 19.9171 160.324 20.3627 162.514C21.0285 161.22 21.4217 159.789 21.516 158.338C23.8542 160.863 25.5475 163.986 26.3916 167.319C28.8031 163.038 26.4125 157.672 27.0207 152.799C27.4663 149.242 29.5004 146.114 30.8686 142.802C32.8398 138.044 33.4532 132.737 32.6301 127.649C32.4571 131.175 34.7376 134.33 35.4296 137.788C35.9958 140.638 35.4611 143.578 35.2671 146.48C34.8844 152.165 35.8438 157.929 38.0404 163.184C38.4021 161.178 38.7586 159.171 39.1203 157.164C40.1164 158.883 41.1177 160.596 42.1138 162.315C41.448 157.227 42.0718 151.972 43.9172 147.182C43.5083 151.872 48.9552 155.204 49.5214 159.878C49.7416 158.474 49.9618 157.064 50.182 155.66C50.6433 159.307 54.2135 161.581 56.7246 164.269C59.5451 167.282 61.2384 171.322 61.4166 175.445C62.418 171.888 62.8531 168.173 62.6958 164.484C62.6539 163.509 62.591 162.456 63.1309 161.644C63.6709 160.832 65.0864 160.575 65.5582 161.429C65.1703 160.36 66.5753 159.621 67.4036 158.846C68.2371 158.065 68.5726 156.902 68.819 155.791C69.8099 151.374 69.9619 146.774 69.2646 142.299C70.5648 147.471 73.6526 151.982 76.0222 156.761C78.3918 161.539 80.0747 167.119 78.3551 172.165C77.1651 175.655 74.4337 178.479 71.2568 180.35C68.0798 182.22 64.4625 183.226 60.8347 183.918C50.2187 185.94 39.2252 185.395 28.7087 183.048C24.9866 182.215 17.1438 181.324 14.9262 177.746C13.1176 174.832 14.8476 168.974 15.9642 166.103Z" fill="#EACE42"/>
<path d="M35.9805 95.3306L38.9949 101.843C38.9949 101.843 80.7042 121.901 98.4395 138.506C113.527 152.632 124.683 164.673 124.683 164.673L144.285 160.821L127.011 143.488L62.518 104.636L35.9805 95.3306Z" fill="#2B2A25"/>
<path d="M507.264 163.295C507.264 163.295 479.495 157.028 457.995 155.687C436.496 154.345 407.83 153.449 407.83 153.449C407.83 153.449 373.34 117.636 353.187 106.889C333.03 96.1481 212.101 105.548 201.349 107.785C190.602 110.023 178.953 124.799 165.962 136.436C152.971 148.073 147.152 157.028 147.152 157.028C147.152 157.028 109.558 167.518 68.798 171.992C28.0376 176.467 6.95756 173.591 6.95756 173.591L2.48047 187.916L24.8764 233.58L42.79 238.95L55.7809 242.084L432.013 232.233C432.013 232.233 492.926 216.566 498.75 212.983C504.575 209.404 513.529 177.169 513.98 175.377C514.431 173.591 507.264 163.295 507.264 163.295Z" fill="#2B2A25"/>
<path d="M507.264 163.295C507.264 163.295 479.495 157.028 457.995 155.687C436.496 154.345 407.83 153.449 407.83 153.449C407.83 153.449 373.34 117.636 353.187 106.889C333.03 96.1481 212.101 105.548 201.349 107.785C190.602 110.023 178.953 124.799 165.962 136.436C152.971 148.073 147.152 157.028 147.152 157.028C147.152 157.028 106.974 161.613 66.2187 166.093C25.4583 170.567 6.95756 173.591 6.95756 173.591L2.48047 187.916L5.16462 205.967L24.8764 233.58L42.79 238.95L43.267 239.066C42.9106 237.101 42.7166 235.078 42.7166 233.019C42.7166 213.197 59.9958 197.132 81.3118 197.132C102.628 197.132 119.907 213.203 119.907 233.019C119.907 233.066 119.907 233.108 119.907 233.155C119.907 233.187 119.907 233.213 119.907 233.244C119.907 235.707 119.666 238.107 119.199 240.423L348.217 234.429C348.197 233.962 348.186 233.491 348.186 233.019C348.186 213.197 365.465 197.132 386.781 197.132C407.877 197.132 425.015 212.872 425.366 232.411L432.013 232.238C432.013 232.238 492.926 216.572 498.75 212.988C504.575 209.409 513.529 177.175 513.98 175.383C514.431 173.591 507.264 163.295 507.264 163.295Z" fill="#FBC02D"/>
<path d="M421.213 234.9C421.213 253.732 405.941 269 387.095 269C368.253 269 352.977 253.737 352.977 234.9C352.977 216.069 368.248 200.806 387.095 200.806C405.936 200.806 421.213 216.069 421.213 234.9Z" fill="#777464"/>
<path d="M399.93 203.515C409.849 209.477 418.593 219.323 419.065 231.725C419.71 248.707 412.103 267.968 383.364 267.193C378.829 267.072 373.497 265.961 369.539 264.353C374.671 267.439 382.105 268.911 388.527 268.911C407.369 268.911 421.219 253.947 421.219 235.115C421.214 220.821 412.412 208.581 399.93 203.515Z" fill="#424038"/>
<path d="M407.9 234.9C407.9 246.386 398.584 255.697 387.093 255.697C375.601 255.697 366.285 246.386 366.285 234.9C366.285 223.415 375.601 214.104 387.093 214.104C398.584 214.104 407.9 223.415 407.9 234.9Z" fill="#B7B29E"/>
<path d="M406.209 234.9C406.209 245.453 397.653 254.004 387.095 254.004C376.536 254.004 367.98 245.453 367.98 234.9C367.98 224.348 376.536 215.796 387.095 215.796C397.653 215.796 406.209 224.353 406.209 234.9Z" fill="#969283"/>
<path d="M400.649 234.9C400.649 242.377 394.584 248.445 387.097 248.445C379.611 248.445 373.551 242.382 373.551 234.9C373.551 227.423 379.616 221.361 387.097 221.361C394.578 221.361 400.649 227.423 400.649 234.9Z" fill="#777464"/>
<path d="M389.058 243.907C389.058 244.987 388.183 245.867 387.097 245.867C386.017 245.867 385.137 244.992 385.137 243.907V225.899C385.137 224.819 386.012 223.939 387.097 223.939C388.177 223.939 389.058 224.814 389.058 225.899V243.907Z" fill="#969283"/>
<path d="M396.108 232.747C397.188 232.747 398.069 233.622 398.069 234.707C398.069 235.786 397.193 236.666 396.108 236.666H378.09C377.01 236.666 376.129 235.791 376.129 234.707C376.129 233.627 377.004 232.747 378.09 232.747H396.108Z" fill="#969283"/>
<path d="M394.923 239.957C395.688 240.722 395.688 241.964 394.923 242.723C394.157 243.488 392.915 243.488 392.155 242.723L379.41 229.986C378.645 229.221 378.645 227.984 379.41 227.219C380.175 226.454 381.418 226.454 382.178 227.219L394.923 239.957Z" fill="#969283"/>
<path d="M392.014 227.083C392.779 226.318 394.016 226.318 394.782 227.083C395.547 227.848 395.547 229.09 394.782 229.85L382.037 242.587C381.272 243.352 380.035 243.352 379.269 242.587C378.504 241.822 378.504 240.586 379.269 239.821L392.014 227.083Z" fill="#969283"/>
<path d="M394.934 234.9C394.934 239.223 391.427 242.728 387.102 242.728C382.777 242.728 379.27 239.223 379.27 234.9C379.27 230.578 382.777 227.072 387.102 227.072C391.427 227.072 394.934 230.578 394.934 234.9Z" fill="#969283"/>
<path opacity="0.4" d="M356.205 233.229L359.109 230.97C359.109 230.97 359.434 220.329 369.919 212.432C379.492 205.217 391.214 206.47 391.214 206.47L392.341 204.211C392.341 204.211 377.662 202.44 367.497 210.661C355.256 220.559 356.205 233.229 356.205 233.229Z" fill="#969283"/>
<path d="M388.024 225.653C388.024 226.166 387.61 226.58 387.096 226.58C386.582 226.58 386.168 226.166 386.168 225.653C386.168 225.139 386.582 224.725 387.096 224.725C387.61 224.725 388.024 225.139 388.024 225.653Z" fill="#B7B29E"/>
<path d="M394.477 228.23C394.477 228.744 394.063 229.158 393.549 229.158C393.035 229.158 392.621 228.744 392.621 228.23C392.621 227.717 393.035 227.303 393.549 227.303C394.063 227.303 394.477 227.717 394.477 228.23Z" fill="#B7B29E"/>
<path d="M397.543 234.759C397.543 235.272 397.129 235.686 396.615 235.686C396.102 235.686 395.688 235.272 395.688 234.759C395.688 234.245 396.102 233.832 396.615 233.832C397.129 233.832 397.543 234.251 397.543 234.759Z" fill="#B7B29E"/>
<path d="M394.801 241.775C394.801 242.288 394.387 242.702 393.873 242.702C393.359 242.702 392.945 242.288 392.945 241.775C392.945 241.261 393.359 240.847 393.873 240.847C394.382 240.847 394.801 241.261 394.801 241.775Z" fill="#B7B29E"/>
<path d="M387.946 244.19C387.946 244.704 387.532 245.118 387.018 245.118C386.504 245.118 386.09 244.704 386.09 244.19C386.09 243.677 386.504 243.263 387.018 243.263C387.532 243.263 387.946 243.682 387.946 244.19Z" fill="#B7B29E"/>
<path d="M381.489 241.371C381.489 241.885 381.074 242.299 380.561 242.299C380.047 242.299 379.633 241.885 379.633 241.371C379.633 240.858 380.047 240.444 380.561 240.444C381.074 240.444 381.489 240.858 381.489 241.371Z" fill="#B7B29E"/>
<path d="M378.911 234.842C378.911 235.356 378.496 235.77 377.983 235.77C377.469 235.77 377.055 235.356 377.055 234.842C377.055 234.329 377.469 233.915 377.983 233.915C378.496 233.915 378.911 234.329 378.911 234.842Z" fill="#B7B29E"/>
<path d="M381.489 228.23C381.489 228.744 381.074 229.158 380.561 229.158C380.047 229.158 379.633 228.744 379.633 228.23C379.633 227.717 380.047 227.303 380.561 227.303C381.074 227.303 381.489 227.717 381.489 228.23Z" fill="#B7B29E"/>
<path d="M391.397 234.9C391.397 237.274 389.473 239.202 387.093 239.202C384.718 239.202 382.789 237.279 382.789 234.9C382.789 232.527 384.713 230.599 387.093 230.599C389.468 230.604 391.397 232.527 391.397 234.9Z" fill="#B7B29E"/>
<path d="M115.744 234.9C115.744 253.732 100.473 269 81.6259 269C62.7792 269 47.5078 253.737 47.5078 234.9C47.5078 216.069 62.7792 200.806 81.6259 200.806C100.473 200.806 115.744 216.069 115.744 234.9Z" fill="#777464"/>
<path d="M94.461 203.515C104.38 209.477 113.124 219.323 113.596 231.725C114.241 248.707 106.634 267.968 77.8948 267.193C73.36 267.072 68.0284 265.961 64.0703 264.353C69.2027 267.439 76.6366 268.911 83.0586 268.911C101.9 268.911 115.751 253.947 115.751 235.115C115.746 220.821 106.943 208.581 94.461 203.515Z" fill="#424038"/>
<path d="M102.439 234.9C102.439 246.386 93.1232 255.697 81.6317 255.697C70.1401 255.697 60.8242 246.386 60.8242 234.9C60.8242 223.415 70.1401 214.104 81.6317 214.104C93.1232 214.104 102.439 223.415 102.439 234.9Z" fill="#B7B29E"/>
<path d="M100.748 234.9C100.748 245.453 92.192 254.004 81.6337 254.004C71.0753 254.004 62.5195 245.453 62.5195 234.9C62.5195 224.348 71.0753 215.796 81.6337 215.796C92.192 215.796 100.748 224.353 100.748 234.9Z" fill="#969283"/>
<path d="M95.1779 234.9C95.1779 242.377 89.1123 248.445 81.6261 248.445C74.1398 248.445 68.0742 242.382 68.0742 234.9C68.0742 227.423 74.1398 221.361 81.6261 221.361C89.1123 221.361 95.1779 227.423 95.1779 234.9Z" fill="#777464"/>
<path d="M83.5854 243.907C83.5854 244.987 82.7099 245.867 81.6247 245.867C80.5448 245.867 79.6641 244.992 79.6641 243.907V225.899C79.6641 224.819 80.5396 223.939 81.6247 223.939C82.7047 223.939 83.5854 224.814 83.5854 225.899V243.907Z" fill="#969283"/>
<path d="M90.6367 232.747C91.7167 232.747 92.5974 233.622 92.5974 234.707C92.5974 235.786 91.7219 236.666 90.6367 236.666H72.613C71.5331 236.666 70.6523 235.791 70.6523 234.707C70.6523 233.627 71.5278 232.747 72.613 232.747H90.6367Z" fill="#969283"/>
<path d="M89.4538 239.957C90.2192 240.722 90.2192 241.964 89.4538 242.723C88.6884 243.488 87.4511 243.488 86.6857 242.723L73.9412 229.986C73.1758 229.221 73.1758 227.984 73.9412 227.219C74.7066 226.454 75.9491 226.454 76.7093 227.219L89.4538 239.957Z" fill="#969283"/>
<path d="M86.549 227.083C87.3144 226.318 88.5569 226.318 89.3171 227.083C90.0825 227.848 90.0825 229.09 89.3171 229.85L76.5726 242.587C75.8072 243.352 74.5699 243.352 73.8045 242.587C73.0391 241.822 73.0391 240.586 73.8045 239.821L86.549 227.083Z" fill="#969283"/>
<path d="M89.4614 234.9C89.4614 239.223 85.9542 242.728 81.6292 242.728C77.3041 242.728 73.7969 239.223 73.7969 234.9C73.7969 230.578 77.3041 227.072 81.6292 227.072C85.9542 227.072 89.4614 230.578 89.4614 234.9Z" fill="#969283"/>
<path opacity="0.4" d="M50.7356 233.229L53.6399 230.97C53.6399 230.97 53.965 220.329 64.4499 212.432C74.0227 205.217 85.7449 206.47 85.7449 206.47L86.8721 204.211C86.8721 204.211 72.1931 202.44 62.0332 210.661C49.7919 220.559 50.7356 233.229 50.7356 233.229Z" fill="#969283"/>
<path d="M82.559 225.653C82.559 226.166 82.1448 226.58 81.6311 226.58C81.1173 226.58 80.7031 226.166 80.7031 225.653C80.7031 225.139 81.1173 224.725 81.6311 224.725C82.1448 224.725 82.559 225.139 82.559 225.653Z" fill="#B7B29E"/>
<path d="M89.0121 228.23C89.0121 228.744 88.5979 229.158 88.0842 229.158C87.5704 229.158 87.1562 228.744 87.1562 228.23C87.1562 227.717 87.5704 227.303 88.0842 227.303C88.5927 227.303 89.0121 227.717 89.0121 228.23Z" fill="#B7B29E"/>
<path d="M92.0746 234.759C92.0746 235.272 91.6604 235.686 91.1467 235.686C90.6329 235.686 90.2188 235.272 90.2188 234.759C90.2188 234.245 90.6329 233.832 91.1467 233.832C91.6604 233.832 92.0746 234.251 92.0746 234.759Z" fill="#B7B29E"/>
<path d="M88.4045 242.702C88.917 242.702 89.3324 242.287 89.3324 241.775C89.3324 241.262 88.917 240.847 88.4045 240.847C87.892 240.847 87.4766 241.262 87.4766 241.775C87.4766 242.287 87.892 242.702 88.4045 242.702Z" fill="#B7B29E"/>
<path d="M82.4769 244.19C82.4769 244.704 82.0628 245.118 81.549 245.118C81.0353 245.118 80.6211 244.704 80.6211 244.19C80.6211 243.677 81.0353 243.263 81.549 243.263C82.0628 243.263 82.4769 243.682 82.4769 244.19Z" fill="#B7B29E"/>
<path d="M76.0277 241.371C76.0277 241.885 75.6136 242.299 75.0998 242.299C74.586 242.299 74.1719 241.885 74.1719 241.371C74.1719 240.858 74.586 240.444 75.0998 240.444C75.6083 240.444 76.0277 240.858 76.0277 241.371Z" fill="#B7B29E"/>
<path d="M73.4418 234.842C73.4418 235.356 73.0276 235.77 72.5139 235.77C72.0001 235.77 71.5859 235.356 71.5859 234.842C71.5859 234.329 72.0001 233.915 72.5139 233.915C73.0276 233.915 73.4418 234.329 73.4418 234.842Z" fill="#B7B29E"/>
<path d="M76.0277 228.23C76.0277 228.744 75.6136 229.158 75.0998 229.158C74.586 229.158 74.1719 228.744 74.1719 228.23C74.1719 227.717 74.586 227.303 75.0998 227.303C75.6083 227.303 76.0277 227.717 76.0277 228.23Z" fill="#B7B29E"/>
<path d="M85.9285 234.9C85.9285 237.274 84.0045 239.202 81.6244 239.202C79.2495 239.202 77.3203 237.279 77.3203 234.9C77.3203 232.527 79.2443 230.599 81.6244 230.599C84.0045 230.604 85.9285 232.527 85.9285 234.9Z" fill="#B7B29E"/>
<path d="M181.831 154.654C176.468 162.697 260.966 155.251 260.966 155.251L263.357 112.574C263.357 112.574 225.134 112.574 216.174 116.452C207.215 120.329 187.802 145.699 181.831 154.654Z" fill="#97C1BF"/>
<path d="M273.805 112.868L274.103 154.649C274.103 154.649 357.716 155.545 359.21 151.065C360.704 146.59 341.758 119.816 330.843 115.849C314.413 109.887 273.805 112.868 273.805 112.868Z" fill="#97C1BF"/>
<path d="M218.859 120.031C226.319 116.798 254.083 116.258 263.153 116.169L263.352 112.569C263.352 112.569 225.129 112.569 216.17 116.447C207.21 120.324 187.803 145.695 181.831 154.649C181.003 155.891 182.314 156.761 185.118 157.348C191.693 147.722 210.178 123.793 218.859 120.031Z" fill="#2B2A25"/>
<path d="M276.489 116.452C276.489 116.452 317.102 113.465 333.522 119.438C338.733 121.33 345.768 128.419 351.546 135.802C345.407 127.266 336.888 118.055 330.838 115.854C314.413 109.886 273.805 112.868 273.805 112.868L274.103 154.649C274.103 154.649 275.063 154.659 276.767 154.67L276.489 116.452Z" fill="#2B2A25"/>
<path d="M147.152 157.028C147.75 156.829 165.753 158.437 167.74 155.655C169.732 152.868 201.58 117.253 200.589 115.461C199.593 113.669 189.438 114.466 189.438 114.466C189.438 114.466 177.297 120.434 164.751 134.759C154.371 146.622 147.152 157.028 147.152 157.028Z" fill="#97C1BF"/>
<path d="M31.5188 179.019C30.5123 175.063 5.98264 176.802 5.98264 176.802C5.98264 176.802 0.179202 180.9 0.000957508 190.949C-0.193015 201.968 5.47936 206.092 5.47936 206.092L23.2724 205.511C23.2776 205.516 32.5254 182.975 31.5188 179.019Z" fill="#97C1BF"/>
<path d="M7.66508 181.036C7.66508 181.036 3.87476 185.317 3.13557 187.622C2.39638 189.928 2.3125 198.238 2.3125 198.238L5.60478 198.484C5.60478 198.484 5.49469 191.065 7.08841 188.607C9.97178 184.164 17.7936 181.12 17.7936 181.12L7.66508 181.036Z" fill="white"/>
<path d="M513.151 179.082C513.151 179.082 500.616 178.841 499.305 178.841C497.995 178.841 496.023 180.014 496.023 181.482C496.023 182.949 497.009 192.338 497.334 193.512C497.664 194.686 499.63 195.859 501.926 195.859C504.223 195.859 507.588 195.985 507.588 195.985L513.151 179.082Z" fill="#B52C1A"/>
<path d="M499.512 180.455L500.466 193.47H504.272L503.323 180.324L499.512 180.455Z" fill="#F23325"/>
<path d="M11.2885 215.796C11.2885 215.796 34.1248 214.837 36.9819 216.205C39.4511 217.384 40.054 228.214 36.4682 229.555C32.8875 230.897 14.8376 230.174 14.8376 230.174C14.8376 230.174 8.98178 229.608 8.64102 222.801C8.35269 217.038 11.2885 215.796 11.2885 215.796Z" fill="#72726F"/>
<path opacity="0.5" d="M11.2573 217.237L9.34375 219.695L37.2286 220.701L36.5942 217.421L11.2573 217.237Z" fill="#97C1BF"/>
<path d="M481.136 198.788C481.136 198.788 503.972 197.829 506.83 199.197C509.294 200.376 509.896 211.206 506.316 212.548C502.73 213.889 484.685 213.166 484.685 213.166C484.685 213.166 478.829 212.6 478.489 205.794C478.2 200.025 481.136 198.788 481.136 198.788Z" fill="#72726F"/>
<path opacity="0.5" d="M481.105 200.229L479.191 202.686L507.076 203.687L506.437 200.407L481.105 200.229Z" fill="#97C1BF"/>
<path d="M409.612 158.49C409.612 158.49 41.3846 168.34 35.1094 172.815L68.2576 175.503L429.318 167.444L409.612 158.49Z" fill="#E0A30B"/>
<path d="M132.77 235.498L342.422 229.231L345.106 222.068L132.77 228.335V235.498Z" fill="#E0A30B"/>
<path d="M175.974 236.016L175.853 235.739C175.712 235.409 161.494 202.247 162.831 179.129C163.56 166.538 173.012 157.547 173.693 156.918C175.114 154.948 200.451 119.984 210.967 113.413C218.155 108.923 267.335 108.011 269.421 107.974L269.888 107.964L268.986 156.777C268.97 156.992 267.618 176.116 268.09 190.777C268.561 205.453 270.312 232.129 270.328 232.396L270.36 232.857L175.974 236.016ZM268.97 108.881C263.838 108.986 218.055 110.039 211.439 114.178C200.991 120.702 174.653 157.117 174.391 157.484L174.328 157.557C174.228 157.647 164.456 166.57 163.727 179.187C162.469 200.968 175.187 231.846 176.561 235.11L269.4 232.003C269.164 228.387 267.628 204.442 267.193 190.819C266.721 176.111 268.074 156.944 268.09 156.751L268.97 108.881Z" fill="#2B2A25"/>
<path d="M269.894 232.872L269.852 231.976L342.12 228.796C343.069 226.763 349.679 212.778 355.063 205.741C357.134 203.032 359.97 200.633 362.712 198.306C367.74 194.046 372.94 189.64 373.79 183.127C375.111 173.009 363.195 125.805 335.997 115.111C309.087 104.532 269.868 108.828 269.475 108.87L269.375 107.979C269.768 107.932 309.213 103.615 336.327 114.277C363.923 125.129 376.018 172.988 374.681 183.242C373.784 190.096 368.453 194.618 363.294 198.993C360.589 201.288 357.79 203.656 355.776 206.286C350.052 213.769 342.89 229.262 342.822 229.419L342.707 229.666L342.434 229.676L269.894 232.872Z" fill="#2B2A25"/>
<path d="M260.206 170.536C260.185 172.297 258.738 173.706 256.976 173.685L244.221 173.528C242.46 173.507 241.05 172.061 241.071 170.3L241.086 169.237C241.107 167.476 242.554 166.067 244.316 166.088L257.071 166.245C258.832 166.266 260.242 167.712 260.221 169.472L260.206 170.536Z" fill="#FBC02D"/>
<path d="M261.671 166.863C261.66 167.817 260.879 168.582 259.925 168.571L239.993 168.335C239.039 168.325 238.274 167.544 238.289 166.591C238.3 165.637 239.081 164.872 240.035 164.882L259.967 165.118C260.921 165.129 261.681 165.909 261.671 166.863Z" fill="#2B2A25"/>
<path d="M362.765 166.229C362.801 167.989 361.402 169.446 359.64 169.477L346.885 169.729C345.124 169.765 343.672 168.367 343.635 166.606L343.614 165.542C343.577 163.782 344.977 162.325 346.739 162.294L359.493 162.042C361.255 162.006 362.707 163.405 362.744 165.165L362.765 166.229Z" fill="#FBC02D"/>
<path d="M364.112 162.509C364.133 163.462 363.373 164.248 362.419 164.269L342.492 164.667C341.538 164.688 340.752 163.929 340.731 162.975C340.71 162.021 341.47 161.235 342.424 161.214L362.351 160.816C363.305 160.8 364.091 161.555 364.112 162.509Z" fill="#2B2A25"/>
<path d="M147.153 157.028C147.153 157.028 117.003 130.101 105.417 122.897C91.5666 114.288 42.434 92.6797 42.434 92.6797L35.9805 95.3257C35.9805 95.3257 76.9767 116.641 89.4696 125.585C112.526 142.09 134.277 158.49 134.277 158.49L147.153 157.028Z" fill="#FBC02D"/>
</g>
<defs>
<clipPath id="clip0_521_2545">
<rect width="514" height="269" fill="white"/>
</clipPath>
</defs>
</svg>
