<svg width="498" height="348" viewBox="0 0 498 348" fill="none" xmlns="http://www.w3.org/2000/svg">
<g clip-path="url(#clip0_467_1588)">
<path d="M229.849 293.507C215.341 293.548 200.829 293.898 186.346 295.51C180.886 296.118 175.539 297.458 170.063 297.994C159.132 299.07 148.391 301.079 137.419 302.007C128.583 302.754 119.71 303.192 110.9 304.139C102.64 305.025 93.4945 304.825 85.3013 303.356C79.2337 302.269 73.1403 301.656 67.1704 299.915C60.4955 297.963 53.2493 296.567 46.2914 296.618C36.3742 296.69 26.7195 296.701 17.2294 300.147C13.8997 301.358 9.81856 303.346 7.29166 305.886C1.51736 311.697 0.735105 326.199 6.51455 332.226C16.2516 342.369 37.0329 346.352 50.6864 346.542C65.642 346.748 80.1755 345.635 95.1516 344.981C109.073 344.373 122.953 343.508 136.894 343.539C165.37 343.601 193.845 343.539 222.269 341.633C248.973 339.845 275.745 340.458 302.507 340.458C329.953 340.458 357.208 340.674 384.453 344.327C396.326 345.919 408.42 346.475 420.35 347.588C431.034 348.587 441.301 347.567 451.944 346.645C460.878 345.872 469.761 343.575 477.877 339.691C484.305 336.615 495.761 327.064 497.732 319.728C503.259 299.158 419.866 299.652 407.062 299.699C392.739 299.75 378.303 300.224 363.991 299.678C357.97 299.446 352.041 298.272 346.164 296.979C340.312 295.691 334.415 296.021 328.481 295.48C303.732 293.228 278.926 293.558 254.094 293.558C246.019 293.553 237.934 293.481 229.849 293.507Z" fill="#F1F2F2"/>
<path d="M74.4593 130.454L68.6953 125.807L70.6098 123.303L75.2776 125.627L75.6224 124.03L80.0638 128.594L78.4324 131.463L74.4593 130.454Z" fill="#EAC1A4"/>
<path d="M135.329 127.084L109.488 140.355L79.0883 126.554L76.1445 132.411L108.356 156.515L143.697 147.253L135.329 127.084Z" fill="#8C9498"/>
<path d="M252.46 6.48067C252.45 5.42459 252.435 4.36852 252.424 3.31244L253.886 0.309068C254.251 -0.10821 255.039 -0.0979069 255.383 0.324523L256.67 3.26608L256.706 6.4343C257.885 6.41885 259.815 7.29977 259.83 8.41251C259.845 9.52526 258.898 10.4371 257.72 10.4525L256.758 10.4628L258.054 117.904C258.127 123.968 261.472 128.97 266.186 128.805C269.84 128.676 272.989 125.611 273.468 120.655C273.576 119.558 274.523 118.703 275.691 118.687H275.774C277.122 118.672 278.198 119.774 278.043 121.042C277.194 128.094 271.533 133.194 266.098 133.261C261.853 133.313 258.348 131.432 256.279 127.991C253.716 123.736 253.819 119.017 253.762 114.314C253.711 109.858 253.654 105.401 253.603 100.945C253.526 94.7222 253.454 88.5042 253.376 82.2811C253.289 75.1874 253.207 68.0936 253.119 60.9999C253.032 53.9268 252.949 46.8537 252.862 39.7857C252.79 33.6295 252.712 27.4682 252.64 21.3121C252.599 17.7111 252.553 14.1102 252.512 10.5092L251.853 10.5144C250.674 10.5298 249.707 9.63859 249.692 8.52585C249.676 7.41826 251.282 6.49612 252.46 6.48067Z" fill="#3B455A"/>
<path opacity="0.26" d="M253.186 66.713L257.426 62.3084L257.339 55.1168L253.047 55.1683L253.186 66.713Z" fill="black"/>
<path d="M282.898 65.1831L282.193 61.2318C279.749 47.5492 274.191 34.5775 265.936 23.2646L255.504 8.96899C280.49 9.71082 302.079 23.9189 312.809 44.4737C316.083 50.7484 318.342 57.6103 319.381 64.8637C313.957 63.3491 307.689 62.5146 300.993 62.597C294.442 62.6691 288.271 63.6067 282.898 65.1831Z" fill="#FBC02D" fill-opacity="0.62"/>
<path d="M229.148 57.8472L227.491 66.3628L226.832 66.3679C221.094 64.5906 214.311 63.5964 207.023 63.6788C199.757 63.7612 192.958 64.9049 187.199 66.8058C188.239 57.5175 191.291 48.8062 195.917 41.1045C207.348 22.0849 228.402 9.21107 252.631 8.92773C253.346 8.91743 254.057 8.92773 254.762 8.93803L246.707 20.73C236.811 32.9187 232.349 45.1898 229.148 57.8472Z" fill="#FBC02D" fill-opacity="0.62"/>
<path d="M282.192 61.2318L282.897 65.1831C282.841 65.1985 282.779 65.2191 282.722 65.2346C275.77 62.3136 266.274 60.7012 255.807 60.8248C244.783 60.9536 234.861 62.9782 227.887 66.3576L227.496 66.3628L229.153 57.8472C232.354 45.1898 236.816 32.9187 246.718 20.7403L254.772 8.94836C255.019 8.95352 255.261 8.95867 255.508 8.96897L265.94 23.2646C274.19 34.5775 279.743 47.5492 282.192 61.2318Z" fill="#FBC02D"/>
<path d="M276.447 134.554L273.323 131.659L273.272 127.94L272.464 127.548L271.933 128.506L270.992 125.431L268.784 123.988L265.48 125.22L263.586 128.285L265.181 131.371L268.696 133.622L272.798 137.764L276.447 134.554Z" fill="#875149"/>
<path d="M276.143 131.062L270.523 137.599L285.597 160.075L291.207 161.853L315.107 143.142L308.715 130.335L290.893 145.203L276.143 131.062Z" fill="#3B455A"/>
<path d="M351.979 307.56L352.812 311.315L346.199 316.668L341.645 313.706L344.532 309.152L351.145 303.799L351.979 307.56Z" fill="#3B455A"/>
<path d="M328.85 192L336.23 208.706L336.925 255.709L352.102 306.267L345.046 309.337L314.085 250.63L310.56 232.038L309.16 192.881L328.85 192Z" fill="#8C9295"/>
<path d="M293.123 195.745L292.547 244.999L302.001 308.513H309.268L313.863 249.909L323.811 191.309L293.123 195.745Z" fill="#8C9295"/>
<path d="M309.228 307.663V311.522L301.369 315.38L297.438 311.522L301.369 307.663H309.228Z" fill="#3B455A"/>
<path d="M307.439 129.042L326.748 128.342C326.748 128.342 338.302 138.294 344.272 164.155C350.35 190.49 343.15 228.396 343.15 228.396C343.15 228.396 291.341 221.616 282.844 220.57L295.802 168.581L307.439 129.042Z" fill="#3B455A"/>
<path d="M314.361 130.979C316.615 130.763 318.869 130.546 321.129 130.33C321.154 128.558 321.031 126.781 320.768 125.024C322.647 124.38 324.824 123.406 325.153 121.48C325.256 120.872 325.153 120.254 325.045 119.646C324.608 117.137 324.17 114.623 323.733 112.114C323.584 111.243 323.419 110.352 322.94 109.61C322.096 108.302 320.46 107.73 318.911 107.467C314.953 106.787 310.64 107.622 307.568 110.167C306.75 110.842 306.008 111.656 305.648 112.645C305.092 114.17 305.504 115.849 305.921 117.415C306.307 118.863 306.688 120.305 307.074 121.753C307.516 123.417 308.155 125.307 309.786 125.931C310.651 126.26 311.675 126.168 312.457 126.657C313.831 127.517 313.641 129.532 314.361 130.979Z" fill="#875149"/>
<path d="M292.33 105.891C292.283 104.17 292.531 102.429 292.88 100.858C293.483 98.1635 296.725 96.9478 299.53 96.7572C305.587 96.345 311.433 93.6456 317.352 95.7268C320.733 96.9169 325.272 97.2002 328.334 98.8796C329.611 99.5802 330.63 100.672 331.427 101.878C334.175 106.061 334.186 111.82 331.443 116.009C330.83 116.946 330.094 117.807 329.322 118.626C327.722 120.321 325.812 122.417 323.615 123.046C323.564 121.119 325.365 115.04 323.857 113.459C321.469 110.95 316.055 111.815 313.08 112.428C309.838 113.098 306.951 115.344 303.739 115.823C301.429 116.168 298.48 115.05 296.519 113.876C293.436 112.047 292.407 109.002 292.33 105.891Z" fill="#3B455A"/>
<path d="M312.766 131.386L292.463 211.112L290.801 221.57L316.096 224.836C316.096 224.836 315.097 186.658 315.432 181.568C315.766 176.478 319.518 165.469 320.089 153.605C320.424 146.743 322.642 134.42 321.088 130.407L312.766 131.386Z" fill="white"/>
<path d="M181.9 156.732L187.329 153.095L185.847 150.746L181.565 152.43L181.39 151.003L177.129 154.671L178.333 157.319L181.9 156.732Z" fill="#EBCEB1"/>
<path d="M178.147 152.956L180.268 158.318C180.561 159.199 159.991 170.595 158.164 171.414C154.134 173.217 146.821 177.467 146.821 177.467C141.217 177.534 130.656 174.716 127.131 173.227C125.71 172.63 124.696 169.539 123.837 168.307C122.746 166.752 124.136 164.006 125.072 162.733C126.992 160.127 129.946 158.272 133.157 157.649C134.31 157.422 135.525 157.355 136.657 157.664C137.825 157.984 139.323 152.698 140.311 153.383C142.071 154.604 143.049 162.646 145.143 163.346C147.778 164.238 177.525 151.694 178.147 152.956Z" fill="#8C9498"/>
<path d="M135.852 128.362C135.728 128.367 135.61 128.372 135.486 128.377C129.717 128.656 122.733 136.089 118.683 140.479C108.236 151.807 100.938 164.789 95.4778 179.301C92.5392 187.116 89.9402 195.06 87.506 203.045C86.8318 205.249 82.1125 225.433 80.9648 225.572C92.709 224.099 104.53 222.95 116.223 223.744C127.921 224.542 139.552 227.355 149.577 233.413C154.713 207.516 158.506 180.697 159.752 154.455C159.901 151.317 160.39 148.077 160.086 144.96C159.741 141.37 157.935 139.747 155.887 137.022C155.187 136.089 154.477 135.147 153.622 134.374C149.114 130.294 141.899 128.166 135.852 128.362Z" fill="#8C9498"/>
<path d="M94.8828 216.341L107.1 265.034L107.373 300.925L113.307 302.187L115.628 268.805L121.449 207.676L94.8828 216.341Z" fill="#EBCEB1"/>
<path d="M113.385 303.191L114.343 306.833L113.499 313.974L108.692 313.984L106.891 303.66L107.452 301.934L113.385 303.191Z" fill="#3B455A"/>
<path d="M141.537 210.963L142.618 253.036L136.895 312.464L131.038 312.887L128.933 258.404L117.004 209.015L141.537 210.963Z" fill="#EBCEB1"/>
<path d="M136.714 311.47L144.603 315.586L143.976 319.203L130.039 317.528L130.708 312.32L136.714 311.47Z" fill="#3B455A"/>
<path d="M143.257 216.392L147.225 265.003L143.19 298.344L127.324 297.458L124.493 259.557L117.633 218.231L118.698 211.802L141.564 212.127L143.257 216.392Z" fill="#3B455A"/>
<path d="M119.203 261.469L117.34 296.335L103.547 295.639L103.83 262.571L95.1328 221.044L97.1142 209.438L120.309 210.854L119.203 261.469Z" fill="#3B455A"/>
<path d="M146.135 220.4C131.982 218.005 109.055 212.199 94.9023 209.804C102.308 185.663 114.093 158.849 127.834 137.645C130.325 133.802 133.439 129.789 137.901 128.872C142.682 127.893 151.06 130.989 151.987 136.234C153.345 143.91 150.525 154.501 149.655 162.265C147.694 179.832 149.557 203.05 146.135 220.4Z" fill="white"/>
<path d="M143.678 111.939C149 102.846 160.79 108.75 161.557 117.848C162.062 123.839 156.128 130.433 149.998 130.897C149.875 132.339 149.69 133.771 149.437 135.198C147.888 134.781 146.339 134.369 144.785 133.952C144.306 133.823 143.756 133.632 143.601 133.168C143.509 132.885 143.591 132.581 143.673 132.298C143.951 131.34 144.234 130.381 144.512 129.423C144.409 129.351 144.306 129.279 144.203 129.202C141.651 127.291 140.493 123.963 140.637 120.815C140.781 117.662 142.078 114.669 143.678 111.939Z" fill="#875149"/>
<path d="M144.017 115.014C141.449 117.436 141.207 121.31 141.037 124.643C140.888 127.594 140.44 129.356 137.25 128.527C135.454 128.058 132.242 127.26 131.481 125.323C130.904 123.86 133.019 121.346 134.136 120.49C134.99 119.841 136.272 119.944 137.111 119.275C137.456 118.996 137.692 118.61 137.903 118.229C138.773 116.658 139.401 114.958 139.756 113.201C139.998 112.011 140.116 110.78 140.6 109.662C141.295 108.039 143.384 106.808 144.738 105.685C147.254 103.593 152.972 102.001 155.041 105.731C155.514 106.581 155.504 107.601 155.437 108.564C155.396 109.141 155.334 109.734 155.067 110.249C153.996 112.299 151.917 111.666 150.09 111.959C147.841 112.315 145.659 113.469 144.017 115.014Z" fill="#3B455A"/>
<path d="M158.833 123.283C158.18 124.787 156.548 125.992 156.703 127.62C156.775 128.347 157.202 128.98 157.495 129.65C158.293 131.479 158.015 133.72 156.79 135.306C159.796 136.718 162.796 138.124 165.801 139.536C166.254 139.747 166.733 139.969 167.232 139.938C168.303 139.876 168.946 138.779 169.394 137.82C170.274 135.935 171.174 133.895 170.783 131.855C170.603 130.912 170.15 130.031 169.97 129.083C169.111 124.534 174.664 120.197 172.965 115.885C172.209 113.958 170.222 112.82 168.874 111.233C166.532 108.467 166.198 104.397 163.676 101.785C158.916 96.8498 149.57 100.889 150.285 107.74C150.866 113.335 161.473 117.224 158.833 123.283Z" fill="#3B455A"/>
<g filter="url(#filter0_d_467_1588)">
<path d="M135.084 129.789C135.084 129.789 110.613 187.729 116.017 202.509C121.421 217.289 123.937 223.012 123.937 223.012L86.4609 224.558C86.4609 224.558 110.382 139.907 135.084 129.789Z" fill="#8C9498"/>
</g>
<path d="M362.72 231.615L346.118 214.296L345.593 214.27C344.708 212.199 343.822 210.123 342.932 208.052C338.254 197.11 333.576 186.168 328.898 175.221C324.781 165.598 321.508 149.334 308.631 148.608L186.218 141.746C172.621 140.983 159.77 148.386 153.198 160.771L130.323 203.884L128.285 203.786L86.5367 214.187C71.7407 220.302 61.7824 234.165 60.8663 249.914L59.4922 273.58L370.296 291.008L372.251 257.337C372.802 247.838 369.354 238.539 362.72 231.615Z" fill="#FBC02D"/>
<path d="M244.332 205.172L326.001 209.752L310.062 163.805C309.27 161.518 307.232 159.946 304.88 159.818L247.152 156.582L244.332 205.172Z" fill="#D7E8F4"/>
<path d="M233.187 155.794L186.406 153.172C176.494 152.616 167.123 158.015 162.331 167.045L145.055 199.608L230.362 204.394L233.187 155.794Z" fill="#D7E8F4"/>
<g opacity="0.2">
<path opacity="0.2" d="M311.679 174.798C312.734 175.432 313.784 176.066 314.833 176.699L310.474 164.124C309.682 161.837 307.644 160.266 305.292 160.137L285.293 159.014C294.052 164.33 302.889 169.523 311.679 174.798Z" fill="#FFFDF1"/>
<path opacity="0.2" d="M312.635 185.601C298.107 176.787 282.868 166.855 268.51 157.778L249.73 157.02C261.958 168.58 277.645 179.126 291.494 188.61C299.821 194.307 308.343 199.732 317.102 204.76C319.974 206.409 322.99 207.928 326.016 209.458L319.115 189.568C316.963 188.239 314.802 186.915 312.635 185.601Z" fill="#FFFDF1"/>
<path opacity="0.2" d="M216.774 184.051C210.701 179.692 204.387 175.628 198.021 171.702C191.572 167.72 185.036 163.723 178.232 160.348C175.989 159.235 173.719 158.19 171.449 157.139C167.703 159.529 164.528 162.898 162.33 167.045L162.16 167.36C168.938 172.604 175.767 177.792 182.494 183.072C192.442 190.882 203.568 197.002 214.427 203.498L230.366 204.389L230.88 195.585C226.177 191.732 221.72 187.6 216.774 184.051Z" fill="#FFFDF1"/>
</g>
<path opacity="0.1" d="M177.145 280.174C177.5 278.819 177.721 277.418 177.804 275.981C178.627 261.84 165.54 249.605 148.572 248.651C141.949 248.281 135.716 249.692 130.523 252.381C140.863 255.132 149.781 260.789 156.909 267.944C160.543 271.592 163.311 275.424 165.385 279.437L177.145 280.174Z" fill="#000100"/>
<path opacity="0.1" d="M338.086 289.2C338.431 287.845 338.652 286.444 338.734 285.006C339.558 270.865 326.795 258.651 310.228 257.718C303.759 257.358 297.671 258.775 292.602 261.474C302.689 264.209 311.391 269.856 318.344 277.001C321.885 280.643 324.587 284.471 326.604 288.484L338.086 289.2Z" fill="#000100"/>
<path d="M140.746 302.065C155.861 302.015 168.075 289.928 168.026 275.067C167.977 260.207 155.683 248.201 140.568 248.251C125.453 248.301 113.239 260.389 113.288 275.249C113.337 290.109 125.631 302.115 140.746 302.065Z" fill="#3B455A"/>
<path d="M140.706 290.428C149.284 290.399 156.216 283.54 156.188 275.107C156.16 266.674 149.184 259.861 140.606 259.889C132.028 259.917 125.097 266.776 125.124 275.209C125.152 283.642 132.128 290.456 140.706 290.428Z" fill="#FFFDF1"/>
<path opacity="0.1" d="M142.763 285.929C145.738 285.872 148.784 285.012 150.997 283.059C149.922 285.671 147.477 287.69 144.677 288.283C143.725 288.484 142.748 288.53 141.775 288.535C140.746 288.546 139.706 288.515 138.697 288.314C135.98 287.773 133.561 285.918 132.367 283.456C132.758 284.254 135.769 284.97 136.515 285.145C138.563 285.64 140.658 285.97 142.763 285.929Z" fill="#000100"/>
<path d="M302.207 311.121C317.322 311.071 329.536 298.984 329.487 284.124C329.437 269.264 317.144 257.258 302.029 257.308C286.914 257.358 274.7 269.445 274.749 284.305C274.798 299.165 287.092 311.171 302.207 311.121Z" fill="#3B455A"/>
<path d="M302.166 299.484C310.744 299.456 317.676 292.597 317.648 284.164C317.621 275.731 310.645 268.917 302.067 268.945C293.489 268.973 286.557 275.832 286.585 284.265C286.612 292.698 293.588 299.511 302.166 299.484Z" fill="#FFFDF1"/>
<path opacity="0.1" d="M304.22 294.985C307.195 294.928 310.241 294.068 312.454 292.115C311.379 294.727 308.934 296.747 306.134 297.339C305.182 297.54 304.205 297.586 303.232 297.592C302.203 297.602 301.163 297.571 300.154 297.37C297.437 296.829 295.018 294.975 293.824 292.512C294.215 293.311 297.226 294.027 297.972 294.202C300.021 294.691 302.115 295.026 304.22 294.985Z" fill="#000100"/>
<path opacity="0.5" d="M219.017 223.831L210.551 223.357C208.786 223.259 207.438 221.776 207.541 220.04V220.035C207.644 218.304 209.152 216.98 210.917 217.078L219.383 217.552C221.148 217.649 222.496 219.133 222.393 220.869V220.874C222.296 222.605 220.782 223.929 219.017 223.831Z" fill="#29313F"/>
<path d="M311.32 180.852L307.81 183.984L303.636 183.726L303.127 184.566L304.156 185.22L300.631 185.983L298.824 188.249L299.926 191.922L303.204 194.23L306.806 192.767L309.627 189.156L314.619 185.066L311.32 180.852Z" fill="#AD6359"/>
<path d="M307.961 182.711C313.653 178.353 319.345 173.995 325.037 169.637C326.57 168.462 328.31 167.571 329.838 166.386C332.072 164.65 332.659 164.135 331.907 161.621C329.73 154.342 325.109 147.856 323.004 140.669C325.407 139.283 327.569 137.594 330.158 136.466C334.383 134.616 335.355 137.619 337.074 140.674C339.117 144.296 341.047 147.984 342.838 151.73C344.326 154.836 351.716 167.875 347.516 170.976C344.511 173.207 311.672 190.202 312.001 190.877C311.872 190.604 307.961 182.711 307.961 182.711Z" fill="#3B455A"/>
<path d="M108.307 72.5034C75.9254 88.3755 54.4647 77.0986 51.521 75.3832C51.521 75.3832 51.4129 75.1668 51.346 75.2801C51.2328 75.2132 51.2431 75.4553 51.2431 75.4553C49.4984 78.3505 36.164 98.3438 0 99.6471C0 99.6471 10.473 161.502 36.8742 181.192C65.0715 202.22 85.1529 205.682 85.225 205.595C85.3331 205.641 101.462 193.267 115.748 161.43C129.114 131.638 108.307 72.5034 108.307 72.5034Z" fill="#3B455A"/>
<path d="M104.914 79.9886C75.4973 94.2637 56.0952 84.3057 53.4345 82.7808C53.4345 82.7808 53.3367 82.585 53.275 82.6881C53.172 82.6263 53.1823 82.8426 53.1823 82.8426C51.5869 85.4287 39.4208 103.305 6.63281 104.613C6.63281 104.613 15.8655 159.704 39.7141 177.148C65.1838 195.781 83.7264 200.232 83.7933 200.149C83.8911 200.191 98.2034 187.647 111.291 159.215C123.524 132.612 104.914 79.9886 104.914 79.9886Z" fill="#FBC02D"/>
<g opacity="0.06">
<path opacity="0.06" d="M54.5489 88.1591C54.5489 88.1591 54.5386 87.9325 54.6467 87.9994C54.7085 87.8913 54.8114 88.0973 54.8114 88.0973C57.5442 89.6582 77.1418 99.7193 106.945 86.0109C105.365 80.5554 104.176 77.1914 104.176 77.1914C74.759 91.4665 55.3569 81.5084 52.6962 79.9836C52.6962 79.9836 52.5984 79.7878 52.5367 79.8908C52.4338 79.829 52.444 80.0454 52.444 80.0454C50.8486 82.6315 38.6825 100.507 5.89453 101.816C5.89453 101.816 6.48123 105.329 7.74725 110.862C40.6175 108.874 52.9124 90.8174 54.5489 88.1591Z" fill="black"/>
</g>
<path opacity="0.34" d="M99.5908 97.2722C77.3891 108.152 59.7368 100.574 57.7194 99.3947C57.7194 99.3947 57.6474 99.2453 57.601 99.3225C57.5238 99.2762 57.529 99.441 57.529 99.441C56.335 101.424 44.6783 116.318 19.8828 117.214C19.8828 117.214 29.5787 158.437 47.6736 171.934C67.0036 186.353 80.7703 188.728 80.8218 188.661C80.8938 188.692 91.9535 180.208 101.752 158.38C110.913 137.965 99.5908 97.2722 99.5908 97.2722Z" fill="white"/>
<path d="M404.549 141.766L401.405 140.097L400.556 137.12L399.82 136.975L399.604 137.856L398.178 135.585L396.089 134.889L393.706 136.574L392.852 139.433L394.807 141.581L398.116 142.647L402.316 145.115L404.549 141.766Z" fill="#EAC1A4"/>
<path d="M402.769 138.33L421.266 151.024L440.194 131.077L442.448 153.703L424.004 165.613L399.398 144.311L402.769 138.33Z" fill="#93AA9D"/>
<path d="M469.452 303.959L469.766 307.014L464.115 310.821L460.816 308.142L463.487 304.711L469.138 300.904L469.452 303.959Z" fill="#22252D"/>
<path d="M469.315 210.582L470.273 219.854L461.796 251.722L469.665 302.934L463.87 304.897L448.596 254.896L446.172 240.353L446.259 209.562L469.315 210.582Z" fill="#875149"/>
<path d="M424.758 220.915L436.945 306.731H442.482L443.481 251.722L453.557 213.116L424.758 220.915Z" fill="#875149"/>
<path d="M442.451 306.051V309.131L436.46 312.217L433.465 309.131L436.46 306.051H442.451Z" fill="#22252D"/>
<path d="M438.365 132.829C438.803 132.123 439.389 131.525 440.192 131.077C445.694 128.027 454.813 130.711 460.788 130.711C462.553 148.953 467.432 166.334 470.582 184.241C473.927 203.261 477.694 222.209 481.883 241.069C482.12 242.135 465.266 241.599 463.675 241.625C447.459 241.893 426.235 241.836 410.59 237.025C420.574 210.705 424.223 182.392 432.081 155.387C433.461 150.648 435.102 145.975 436.343 141.2C437.068 138.433 436.955 135.09 438.365 132.829Z" fill="#7DB5DB"/>
<path d="M445.723 105.912C441.616 107.014 438.389 110.744 437.936 114.896C435.693 112.846 434.55 109.693 434.962 106.71C435.374 103.727 437.334 100.992 440.057 99.6008C442.599 100.925 444.575 103.274 445.419 105.978L445.723 105.912Z" fill="#3B455A"/>
<path d="M437.37 111.31C439.49 100.317 453.478 102.218 457.493 111.12C459.773 116.184 457.385 123.35 452.82 126.868C452.722 127.842 452.593 130.526 451.837 131.175C451.018 131.881 448.43 131.206 447.416 130.979C447.133 130.917 446.84 130.835 446.639 130.634C446.382 130.382 446.34 129.712 446.335 128.965C445.589 128.913 444.827 128.774 444.055 128.522C440.803 127.471 438.446 124.514 437.473 121.294C436.495 118.08 436.737 114.618 437.37 111.31Z" fill="#875149"/>
<path d="M458.062 154.949C457.928 154.944 457.82 154.934 457.743 154.919C455.277 154.501 451.315 153.718 450.167 151.168C448.994 148.551 451.078 143.807 451.423 141.092C451.948 136.96 452.117 132.792 452.323 128.64C452.503 124.895 451.145 121.201 449.148 118.002C447.151 114.803 444.542 112.026 441.969 109.255C440.898 108.101 439.792 106.87 439.468 105.34C439.107 103.65 439.792 101.868 440.929 100.549C442.674 98.519 444.748 97.5093 447.383 97.4475C456.636 97.2311 463.589 102.604 466.214 111.475C469.976 124.189 465.277 136.316 465.977 148.968C466.095 151.127 466.826 153.255 468.056 155.047C467.727 154.568 460.053 155.063 458.062 154.949Z" fill="#3B455A"/>
<path d="M451.891 171.934L448.171 173.129L445.114 171.548L444.444 172.011L444.995 172.846L442.077 172.248L439.941 173.356L439.504 176.488L441.182 179.311L444.393 179.399L447.754 177.622L452.921 176.2L451.891 171.934Z" fill="#EAC1A4"/>
<path d="M461.715 167.988C463.285 166.947 464.361 165.469 464.5 163.29C464.628 161.281 464.15 159.292 463.795 157.309C462.673 151.019 462.822 144.512 464.227 138.274C465.627 132.066 472.996 139.871 473.918 142.668C474.931 145.769 474.648 149.149 474.895 152.358C475.23 156.665 475.384 160.987 475.369 165.304C475.359 168.04 476.043 174.495 473.11 176.055C472.317 176.478 471.406 176.627 470.516 176.766C469.116 176.988 452.416 179.059 452.153 178.245L449.848 171.1C453.327 170.409 458.53 170.1 461.715 167.988Z" fill="#7DB5DB"/>
<path d="M427.503 241.573L339.875 228.334L357.877 113.526L445.506 126.765L427.503 241.573Z" fill="#3B455A"/>
<path opacity="0.26" d="M347.188 224.388L348.5 224.589L425.516 238.637L440.513 129.758L436.756 130.227L347.188 224.388Z" fill="black"/>
<path d="M423.858 235.974L345.066 224.068L361.72 117.848L440.512 129.758L423.858 235.974Z" fill="#F4F4F2"/>
<path d="M412.795 115.226L412.265 115.143L412.321 114.793C412.841 111.48 410.119 108.322 406.249 107.74L401.148 106.968C397.273 106.38 393.712 108.59 393.197 111.903L393.141 112.253L392.61 112.171C388.735 111.583 385.174 113.793 384.659 117.106L383.609 123.803L417.828 128.975L418.878 122.278C419.387 118.971 416.67 115.813 412.795 115.226ZM407.185 114.52L398.169 113.16C397.247 113.021 396.609 112.166 396.753 111.264C396.897 110.357 397.767 109.734 398.688 109.873L407.705 111.233C408.626 111.372 409.264 112.227 409.12 113.129C408.976 114.036 408.106 114.659 407.185 114.52Z" fill="#DFE5E5"/>
<path opacity="0.12" d="M417.816 128.98L383.598 123.808L384.092 120.655L418.31 125.827L417.816 128.98Z" fill="black"/>
<path d="M424.866 168.73L365.656 159.782L365.903 158.221L425.113 167.169L424.866 168.73Z" fill="#CDCED0"/>
<path d="M423.061 180.259L363.852 171.311L364.099 169.75L423.308 178.693L423.061 180.259Z" fill="#CDCED0"/>
<path d="M421.253 191.788L362.043 182.84L362.29 181.274L421.495 190.222L421.253 191.788Z" fill="#CDCED0"/>
<path d="M419.448 203.312L360.238 194.369L360.48 192.803L419.69 201.752L419.448 203.312Z" fill="#CDCED0"/>
<path d="M378.531 219.463L356.767 216.171L356.68 216.727L378.444 220.014L378.531 219.463Z" fill="#CDCED0"/>
<path d="M410.667 214.275C409.674 213.729 408.495 213.652 407.445 213.997C407.312 213.899 407.173 213.806 407.023 213.729C405.541 212.915 403.632 213.142 402.381 214.265C401.156 215.362 400.74 217.134 401.357 218.644C401.985 220.179 403.549 221.158 405.227 221.106C405.623 221.096 406.009 221.024 406.37 220.9C407.085 221.405 407.96 221.683 408.871 221.657C410.796 221.601 412.36 220.153 412.684 218.324C412.906 216.691 412.139 215.084 410.667 214.275ZM405.737 220.406C404.368 220.668 402.947 220.055 402.217 218.891C401.475 217.706 401.594 216.145 402.489 215.074C403.385 214.007 404.908 213.595 406.231 214.069C406.411 214.136 406.581 214.213 406.74 214.301C406.483 214.44 406.246 214.61 406.025 214.811C404.8 215.908 404.383 217.68 405.001 219.19C405.186 219.643 405.459 220.05 405.788 220.395C405.773 220.395 405.752 220.4 405.737 220.406ZM408.403 217.67C408.207 218.767 407.486 219.71 406.483 220.169C406.241 219.957 406.03 219.715 405.86 219.437C405.119 218.252 405.237 216.691 406.133 215.62C406.462 215.228 406.874 214.924 407.332 214.723C408.14 215.455 408.552 216.552 408.403 217.67ZM409.375 220.957C408.572 221.111 407.759 220.962 407.07 220.581C408.094 219.993 408.835 218.963 409.046 217.768C409.211 216.563 408.83 215.367 408.022 214.502C408.629 214.373 409.272 214.404 409.874 214.62C411.387 215.161 412.252 216.676 412.046 218.221C411.804 219.576 410.77 220.689 409.375 220.957Z" fill="#CDCED0"/>
<path d="M370.665 131.324L371.632 131.468L370.397 139.34L369.43 139.196L370.665 131.324Z" fill="#202020"/>
<path d="M378.837 132.561L379.804 132.705L378.569 140.577L377.514 140.417L374.673 133.56L373.69 139.84L372.723 139.696L373.958 131.824L375.013 131.984L377.849 138.851L378.837 132.561Z" fill="#202020"/>
<path d="M385.759 138.099C386.032 138.454 386.114 138.959 386.011 139.598C385.908 140.242 385.599 140.736 385.074 141.081C384.549 141.426 383.855 141.535 382.99 141.401C382.12 141.272 381.513 140.999 381.168 140.587C380.818 140.175 380.648 139.629 380.648 138.954L381.462 138.933C381.451 139.902 381.976 140.468 383.031 140.628C384.225 140.808 384.894 140.432 385.038 139.505C385.1 139.103 385.038 138.789 384.848 138.562C384.657 138.335 384.318 138.114 383.829 137.898L383.134 137.583C382.414 137.269 381.92 136.929 381.662 136.574C381.405 136.213 381.323 135.713 381.426 135.069C381.528 134.425 381.827 133.931 382.336 133.575C382.841 133.225 383.515 133.112 384.354 133.241C385.193 133.369 385.774 133.637 386.098 134.044C386.423 134.456 386.587 134.997 386.587 135.677L385.774 135.698C385.785 134.729 385.301 134.168 384.328 134.024C383.191 133.854 382.553 134.23 382.409 135.157C382.347 135.559 382.398 135.873 382.568 136.105C382.738 136.332 383.057 136.548 383.52 136.749L384.246 137.068C384.982 137.398 385.486 137.743 385.759 138.099Z" fill="#202020"/>
<path d="M393.233 134.735L394.201 134.879L393.372 140.154C393.295 140.638 393.172 141.04 393.002 141.37C392.832 141.7 392.642 141.942 392.441 142.107C392.24 142.271 391.993 142.39 391.705 142.457C391.417 142.529 391.154 142.56 390.918 142.555C390.681 142.55 390.413 142.524 390.104 142.477C389.796 142.431 389.528 142.374 389.302 142.313C389.075 142.251 388.838 142.143 388.586 141.988C388.334 141.839 388.138 141.653 387.999 141.437C387.855 141.22 387.752 140.932 387.691 140.566C387.629 140.206 387.634 139.783 387.711 139.299L388.54 134.024L389.507 134.168L388.684 139.412C388.555 140.247 388.669 140.829 389.029 141.164C389.204 141.323 389.389 141.437 389.569 141.509C389.754 141.581 389.976 141.638 390.233 141.674C390.49 141.715 390.722 141.725 390.918 141.71C391.113 141.694 391.324 141.638 391.54 141.54C391.983 141.334 392.271 140.813 392.405 139.969L393.233 134.735Z" fill="#202020"/>
<path d="M396.36 135.208L398.789 135.574C399.268 135.646 399.664 135.775 399.983 135.966C400.302 136.151 400.529 136.378 400.657 136.641C400.904 137.135 400.976 137.676 400.884 138.263C400.709 139.392 400.132 140.041 399.16 140.211C399.335 140.386 399.474 140.649 399.577 141.004L400.343 143.868L399.309 143.714L398.599 140.989C398.522 140.71 398.403 140.515 398.244 140.396C398.084 140.278 397.847 140.185 397.534 140.123L396.602 139.984L396.093 143.23L395.125 143.085L396.36 135.208ZM396.72 139.227L398.136 139.443C398.671 139.526 399.083 139.433 399.376 139.17C399.669 138.907 399.849 138.557 399.916 138.114C399.983 137.671 399.921 137.285 399.721 136.95C399.52 136.615 399.155 136.409 398.619 136.326L397.204 136.11L396.72 139.227Z" fill="#202020"/>
<path d="M405.033 136.517L406.32 136.713L407.709 144.981L406.752 144.837L406.345 142.344L403.294 141.88L402.141 144.136L401.184 143.992L405.033 136.517ZM405.548 137.46L403.649 141.169L406.207 141.555L405.548 137.46Z" fill="#202020"/>
<path d="M415.173 138.052L416.14 138.196L414.905 146.068L413.85 145.908L411.009 139.052L410.026 145.331L409.059 145.187L410.294 137.316L411.349 137.475L414.184 144.342L415.173 138.052Z" fill="#202020"/>
<path d="M421.105 139.587C420.426 139.484 419.885 139.592 419.489 139.917C419.139 140.195 418.872 140.7 418.692 141.432C418.614 141.736 418.537 142.117 418.47 142.57C418.398 143.023 418.352 143.41 418.331 143.734C418.311 144.059 418.321 144.373 418.367 144.672C418.414 144.976 418.501 145.223 418.625 145.419C418.903 145.841 419.381 146.109 420.066 146.212C421.193 146.382 421.867 145.883 422.088 144.708L422.87 144.873C422.695 145.661 422.376 146.248 421.913 146.624C421.455 147 420.796 147.124 419.937 146.995C418.728 146.815 417.961 146.32 417.637 145.522C417.467 145.12 417.374 144.677 417.359 144.188C417.343 143.698 417.384 143.116 417.492 142.436C417.6 141.756 417.734 141.184 417.899 140.726C418.064 140.267 418.29 139.871 418.573 139.536C419.129 138.876 420.009 138.639 421.213 138.82C422.011 138.938 422.577 139.206 422.912 139.623C423.246 140.036 423.4 140.582 423.385 141.256L422.582 141.277C422.587 140.298 422.093 139.737 421.105 139.587Z" fill="#202020"/>
<path d="M425.472 139.608L429.733 140.252L429.615 141.009L426.321 140.51L425.894 143.25L428.961 143.714L428.843 144.471L425.776 144.007L425.328 146.877L428.843 147.408L428.725 148.165L424.242 147.49L425.472 139.608Z" fill="#202020"/>
<path d="M384.277 151.699L382.883 151.487L382.425 154.408L381.457 154.264L382.692 146.393L385.054 146.748C386.712 147 387.406 147.948 387.149 149.597C386.892 151.251 385.934 151.951 384.277 151.699ZM383.001 150.735L384.339 150.936C385.389 151.096 386.001 150.601 386.181 149.453C386.362 148.304 385.929 147.655 384.879 147.495L383.541 147.294L383.001 150.735Z" fill="#202020"/>
<path d="M393.423 155.006C393.135 155.362 392.764 155.609 392.306 155.748C391.848 155.887 391.313 155.913 390.69 155.82C390.073 155.727 389.568 155.547 389.177 155.284C388.786 155.022 388.513 154.676 388.349 154.249C388.184 153.821 388.097 153.373 388.076 152.899C388.055 152.425 388.091 151.915 388.174 151.364C388.256 150.813 388.359 150.349 388.472 149.973C388.585 149.597 388.74 149.236 388.941 148.901C389.141 148.561 389.373 148.294 389.635 148.093C390.222 147.65 391.004 147.505 391.977 147.65C393.207 147.835 393.989 148.366 394.324 149.241C394.488 149.664 394.581 150.112 394.602 150.586C394.622 151.06 394.581 151.606 394.488 152.219C394.391 152.832 394.262 153.363 394.097 153.811C393.938 154.249 393.711 154.651 393.423 155.006ZM390.886 155.052C391.267 155.109 391.617 155.078 391.941 154.955C392.265 154.831 392.528 154.625 392.728 154.331C392.929 154.043 393.094 153.713 393.222 153.347C393.346 152.982 393.449 152.554 393.526 152.065C393.603 151.575 393.639 151.137 393.629 150.751C393.624 150.365 393.567 149.999 393.464 149.659C393.243 148.963 392.708 148.551 391.859 148.422C391.179 148.319 390.634 148.453 390.222 148.824C389.713 149.283 389.363 150.143 389.167 151.405C388.971 152.662 389.044 153.589 389.383 154.177C389.656 154.651 390.16 154.939 390.886 155.052Z" fill="#202020"/>
<path d="M395.852 156.443L397.087 148.572L398.054 148.716L396.937 155.836L399.928 156.289L399.809 157.046L395.852 156.443Z" fill="#202020"/>
<path d="M402.384 149.37L403.351 149.514L402.116 157.386L401.148 157.242L402.384 149.37Z" fill="#202020"/>
<path d="M408.315 150.905C407.636 150.802 407.095 150.911 406.699 151.235C406.349 151.513 406.081 152.018 405.901 152.75C405.824 153.054 405.747 153.435 405.68 153.888C405.608 154.342 405.562 154.728 405.541 155.052C405.52 155.377 405.531 155.691 405.577 155.99C405.623 156.294 405.711 156.541 405.834 156.737C406.112 157.159 406.591 157.427 407.275 157.53C408.402 157.7 409.077 157.201 409.298 156.026L410.08 156.191C409.905 156.979 409.586 157.566 409.128 157.943C408.67 158.319 408.011 158.442 407.152 158.313C405.942 158.133 405.176 157.639 404.851 156.84C404.682 156.438 404.589 155.995 404.573 155.506C404.558 155.016 404.599 154.434 404.707 153.754C404.815 153.074 404.949 152.502 405.114 152.044C405.278 151.585 405.505 151.189 405.788 150.854C406.344 150.195 407.224 149.958 408.428 150.138C409.226 150.256 409.792 150.524 410.126 150.941C410.461 151.354 410.615 151.9 410.6 152.575L409.797 152.595C409.797 151.616 409.303 151.055 408.315 150.905Z" fill="#202020"/>
<path d="M413.794 159.153L412.826 159.009L413.253 156.268L411.586 150.761L412.574 150.911L413.881 155.413L416.506 151.503L417.494 151.652L414.216 156.412L413.794 159.153Z" fill="#202020"/>
</g>
<defs>
<filter id="filter0_d_467_1588" x="82.4609" y="129.789" width="56.625" height="102.769" filterUnits="userSpaceOnUse" color-interpolation-filters="sRGB">
<feFlood flood-opacity="0" result="BackgroundImageFix"/>
<feColorMatrix in="SourceAlpha" type="matrix" values="0 0 0 0 0 0 0 0 0 0 0 0 0 0 0 0 0 0 127 0" result="hardAlpha"/>
<feOffset dy="4"/>
<feGaussianBlur stdDeviation="2"/>
<feComposite in2="hardAlpha" operator="out"/>
<feColorMatrix type="matrix" values="0 0 0 0 0 0 0 0 0 0 0 0 0 0 0 0 0 0 0.25 0"/>
<feBlend mode="normal" in2="BackgroundImageFix" result="effect1_dropShadow_467_1588"/>
<feBlend mode="normal" in="SourceGraphic" in2="effect1_dropShadow_467_1588" result="shape"/>
</filter>
<clipPath id="clip0_467_1588">
<rect width="498" height="348" fill="white"/>
</clipPath>
</defs>
</svg>
