<svg width="557" height="358" viewBox="0 0 557 358" fill="none" xmlns="http://www.w3.org/2000/svg">
<g clip-path="url(#clip0_467_1733)">
<path d="M255.542 299.782C239.233 299.825 222.918 300.202 206.637 301.926C200.499 302.575 194.488 304.004 188.334 304.582C176.044 305.733 163.972 307.883 151.638 308.87C141.706 309.667 131.73 310.141 121.826 311.15C112.538 312.1 102.262 311.882 93.0459 310.31C86.2263 309.148 79.374 308.499 72.6636 306.634C65.1615 304.55 57.0097 303.055 49.1909 303.109C38.0415 303.186 27.187 303.197 16.5235 306.879C12.7779 308.166 8.19151 310.294 5.34684 313.005C-1.16153 319.213 -2.04605 334.706 4.45685 341.149C15.4042 351.988 38.7677 356.238 54.1159 356.44C70.9328 356.658 87.2637 355.474 104.108 354.776C119.756 354.127 135.367 353.205 151.037 353.238C183.049 353.303 215.067 353.238 247.019 351.203C277.038 349.294 307.139 349.948 337.224 349.948C368.079 349.948 398.721 350.177 429.351 354.078C442.696 355.78 456.297 356.374 469.706 357.564C481.719 358.627 493.261 357.542 505.229 356.554C515.276 355.725 525.257 353.27 534.386 349.124C541.61 345.84 554.49 335.634 556.707 327.794C562.92 305.815 469.166 306.344 454.773 306.394C438.672 306.448 422.439 306.955 406.348 306.366C399.578 306.121 392.911 304.861 386.304 303.486C379.725 302.111 373.097 302.46 366.424 301.882C338.6 299.476 310.71 299.825 282.799 299.825C273.719 299.831 264.628 299.755 255.542 299.782Z" fill="#F1F2F2"/>
<path d="M284.515 122.792C284.695 122.765 284.886 122.743 285.061 122.77C286.705 123.021 287.409 124.134 288.91 124.821C289.582 125.127 291.182 124.107 291.406 125.634C291.488 126.196 291.493 127.603 291.662 128.804C291.903 130.555 293.262 132.628 294.649 134.079C300.098 139.769 306.939 143.816 313.841 147.608C314.234 147.826 314.649 148.044 315.097 148.055C315.899 148.077 316.549 147.439 317.106 146.86C319.694 144.182 322.528 141.738 325.569 139.583C328.277 137.657 331.237 135.923 334.513 135.355C337.789 134.788 341.458 135.563 343.691 138.023C345.367 139.867 346.066 142.545 345.509 144.967C344.128 150.985 335.239 152.534 330.292 154.405C325.607 156.178 320.803 157.624 315.916 158.726C315.315 158.862 314.687 158.993 314.081 158.878C313.431 158.758 312.869 158.376 312.329 158C305.356 153.172 298.848 147.75 292.416 142.174C290.647 140.641 289.91 138.378 288.266 136.97C287.212 136.075 285.744 136.13 284.564 135.503C283.396 134.886 282.025 133.773 281.168 132.77C279.481 130.789 280.098 128.176 280.415 125.841C280.491 125.258 280.546 124.865 280.862 124.418C281.381 123.692 282.211 123.436 283.03 123.152C283.516 122.988 284.013 122.863 284.515 122.792Z" fill="#AD6359"/>
<path d="M331.542 152.365C328.43 148.459 325.323 144.558 322.211 140.652C322.413 140.903 339.077 125.47 340.103 124.587C344.013 121.21 348.086 117.74 353.044 116.3C363.636 113.229 372.689 124.576 366.268 134.002C359.301 144.236 347.835 152.676 336.123 156.609C335.866 156.696 335.599 156.778 335.337 156.729C334.976 156.658 334.714 156.352 334.485 156.063C333.508 154.83 332.525 153.598 331.542 152.365Z" fill="#CCD2D9"/>
<path d="M346.586 305.242L346.756 317.538L339.652 317.637L339.461 304.004L346.586 305.242Z" fill="#AD6359"/>
<path d="M340.281 315.705L346.462 317.8L348.302 319.835L347.99 324.652L331.288 325.983C329.879 323.877 330.797 321.019 333.15 320.19L333.925 319.917L340.281 315.705Z" fill="#474EBB"/>
<path d="M397.779 293.459L402.486 304.768L395.95 307.621L390.73 295.085L397.779 293.459Z" fill="#AD6359"/>
<path d="M396.073 307.834C396.307 307.566 396.58 307.315 396.897 307.081C397.683 306.492 404.017 303.049 404.558 304.604C404.645 304.855 404.618 305.133 404.585 305.4C404.061 309.863 403.04 314.265 401.549 318.493C400.91 320.299 399.938 322.301 398.115 322.754C397.318 322.95 396.477 322.803 395.674 322.617C394.489 322.344 393.326 321.979 392.196 321.537C391.781 321.373 391.344 321.172 391.126 320.779C390.695 319.982 391.448 319.039 392.229 318.608C393.01 318.177 393.965 317.871 394.347 317.047C394.517 316.676 394.544 316.262 394.566 315.853C394.735 312.82 394.233 309.917 396.073 307.834Z" fill="#474EBB"/>
<path d="M353.149 248.273C355.48 259.2 362.141 267.056 369.261 275.091C377.407 284.289 385.068 293.934 392.199 303.977C395.284 302.656 398.363 301.342 401.448 300.022C398.871 284.665 391.767 270.574 386.264 256.047C382.436 245.955 379.34 235.279 379.171 224.374C379.089 218.951 380.367 213.987 381.055 208.712C381.907 202.176 381.956 195.477 382.72 188.909C382.977 186.705 383.124 184.103 381.475 182.674C380.738 182.036 379.772 181.768 378.827 181.583C343.763 174.611 348.715 227.494 353.149 248.273Z" fill="#3B455A"/>
<path d="M381.71 190.96C381.726 184.332 380.94 177.939 379.728 173.062C369.752 172.516 358.483 173.645 348.617 175.697C338.974 177.704 332.963 179.854 332.892 190.573C332.766 210.299 325.248 227.101 321.999 246.064C320.11 257.083 323.375 266.941 326.984 277.142C331.117 288.822 334.639 300.725 337.522 312.792C340.863 312.77 344.205 312.754 347.546 312.732C350.844 297.518 349.485 281.719 349.763 266.139C349.96 255.31 351.041 244.231 354.917 234.073C359.182 222.906 365.324 227.352 372.373 220.877C379.231 214.582 381.677 202.416 381.71 190.96Z" fill="#3B455A"/>
<path d="M370.384 115.045C371.487 115.918 372.454 116.977 373.409 118.024C374.266 118.962 375.124 119.901 375.981 120.833C378.951 124.079 380.414 128.885 381.686 133.031C388.381 154.858 390.788 184.796 386.442 207.604C369.953 209.066 350.865 204.8 334.413 202.498C332.814 202.275 331.001 201.909 330.171 200.485C329.669 199.623 329.652 198.565 329.652 197.561C329.652 183.083 332.639 167.525 335.435 153.254C336.614 147.231 338.072 141.258 339.934 135.421C341.91 129.24 344.138 122.563 348.757 117.888C353.704 112.885 363.172 110.414 369.363 114.32C369.718 114.544 370.057 114.789 370.384 115.045Z" fill="#CCD2D9"/>
<path d="M368.586 118.089C368.886 116.12 369.181 114.151 369.481 112.181C369.88 111.985 370.262 111.767 370.617 111.538C377.497 107.037 389.028 82.8595 370.699 77.4425C354.051 72.5273 354.919 96.0121 358.168 105.799C358.725 107.474 359.468 109.056 360.565 110.43C361.319 111.369 361.488 111.189 361.379 112.28C361.275 113.332 360.248 114.527 360.019 115.635C359.773 116.818 359.866 118.133 360.538 119.131C360.947 119.742 361.548 120.195 362.187 120.544C363.202 121.095 364.387 121.401 365.517 121.183C366.855 120.921 368.373 119.502 368.586 118.089Z" fill="#AD6359"/>
<path d="M354.253 96.9341C355.274 100.06 356.699 103.039 358.484 105.777C358.386 100 359.074 94.2065 360.51 88.6149C360.619 88.1894 360.728 87.7039 360.499 87.3329C360.286 86.9838 359.86 86.8529 359.467 86.7656C352.456 85.2108 352.478 91.4898 354.253 96.9341Z" fill="#3B455A"/>
<path d="M372.672 105.641C373.797 107.261 376.259 106.824 377.995 105.93C385.121 102.258 389.314 93.4154 387.731 85.4017C386.409 78.6972 378.165 73.6675 376.499 81.9758C375.91 84.9216 377.657 89.0022 377.258 92.2753C376.685 96.945 374.567 101.413 372.672 105.641Z" fill="#3B455A"/>
<path d="M354.329 71.289C353.532 71.6108 352.719 71.9545 351.861 72.2982C350.087 73.0074 348.804 73.2474 346.98 72.1836C346.456 71.8781 342.956 68.485 343.797 67.7812C338.211 72.4509 342.803 79.27 344.9 84.0979C346.314 87.3492 346.603 91.9425 349.776 94.07C353.265 96.4103 355.662 93.4536 358.828 92.128C361.624 90.9606 364.643 90.3278 367.488 89.2858C372.206 87.5619 379.227 84.5288 377.666 78.0971C375.842 70.5907 368.422 68.7195 361.76 69.2923C358.91 69.5324 356.683 70.3343 354.329 71.289Z" fill="#3B455A"/>
<path d="M374.914 198.494C374.789 198.358 374.658 198.221 374.581 198.058C373.844 196.568 374.352 195.357 374.052 193.726C373.915 193.001 372.163 192.275 373.282 191.217C373.697 190.824 374.843 190.011 375.733 189.187C377.033 187.987 377.95 185.68 378.338 183.716C379.075 179.995 376.891 169.194 381.417 167.361C392.059 163.062 384.579 185.2 384.382 187.278C384.251 188.653 385.141 189.826 385.305 191.146C385.469 192.455 385.348 194.217 385.015 195.494C384.36 198.009 381.865 199.007 379.768 200.087C379.244 200.354 378.895 200.54 378.343 200.534C377.448 200.529 376.76 199.994 376.061 199.487C375.651 199.198 375.258 198.865 374.914 198.494Z" fill="#B55B52"/>
<path d="M375.654 118.859C376.118 119.349 376.636 120.108 377.384 120.953C381.299 125.416 383.74 132.709 385.645 138.236C389.708 150.013 391.182 162.691 389.779 175.075C389.73 175.528 389.648 176.029 389.293 176.319C388.943 176.602 388.446 176.586 387.993 176.559C385.181 176.362 382.369 176.171 379.557 175.975C378.951 175.931 378.318 175.882 377.81 175.544C376.822 174.889 376.756 173.493 376.767 172.309C376.844 164.563 375.916 156.805 374.021 149.299C373.126 145.747 370.701 141.558 370.45 137.974C370.226 134.75 371.624 131.056 371.417 127.527C371.291 125.41 371.111 122.263 372.378 120.402C374.065 117.958 374.736 117.887 375.654 118.859Z" fill="#CCD2D9"/>
<path d="M372.239 335.083L350.459 329.087C348.985 328.684 348.117 327.156 348.521 325.683L358.862 288.167L385.988 295.63L375.646 333.146C375.237 334.624 373.714 335.492 372.239 335.083Z" fill="#3B455A"/>
<path d="M219.642 293.093L201.749 288.173C199.199 287.469 197.703 284.84 198.402 282.292L208.209 246.719L235.334 254.181L225.528 289.755C224.829 292.297 222.192 293.792 219.642 293.093Z" fill="#3B455A"/>
<path d="M378.913 167.459L283.34 141.16C276.024 139.147 268.139 142.333 263.711 149.092L233.992 194.452L233.965 194.446L209.597 219.71C208.62 220.724 207.91 221.968 207.533 223.332L198.775 255.103C197.541 259.571 200.146 264.197 204.606 265.474L378.225 314.991C382.745 316.278 387.452 313.638 388.697 309.11L397.133 278.517C397.438 277.41 397.515 276.248 397.357 275.108L392.191 237.99L391.694 237.854L391.738 185.178C391.733 176.761 386.518 169.554 378.913 167.459Z" fill="#4F4F4F"/>
<path d="M363.923 230.211L260.543 201.762C255.154 200.278 252.953 193.535 256.24 188.576L278.55 154.934C280.576 151.879 284.152 150.45 287.472 151.361L368.384 173.629C371.835 174.578 374.21 177.846 374.226 181.659L374.385 221.482C374.407 227.27 369.159 231.651 363.923 230.211Z" fill="#ACD9DD"/>
<g opacity="0.14">
<path opacity="0.14" d="M374.171 212.503C368.029 206.399 361.548 200.638 355.176 194.774C347.193 187.425 339.44 179.81 331.49 172.424C327.33 168.556 323.185 164.672 319.107 160.722L287.291 151.966C285.921 151.59 284.512 151.617 283.18 151.988C283.223 152.032 283.273 152.076 283.316 152.125C287.417 156.145 291.55 160.138 295.661 164.153C303.021 171.327 310.327 178.561 317.338 186.083C324.299 193.557 330.944 201.315 338.009 208.701C344.638 215.629 351.408 222.421 358.113 229.273L363.748 230.822C368.984 232.262 374.231 227.887 374.209 222.094L374.171 212.503Z" fill="#FFFDF0"/>
<path opacity="0.14" d="M330.297 207.954C323.095 200.278 316.286 192.248 308.986 184.66C301.763 177.148 294.282 169.887 286.808 162.626C284.154 160.046 281.506 157.46 278.863 154.869C278.689 155.081 278.525 155.305 278.372 155.54L268.074 171.071C270.111 173.296 272.202 175.479 274.206 177.704C286.027 190.851 297.804 204.102 310.684 216.213L348.342 226.578C342.276 220.413 336.21 214.254 330.297 207.954Z" fill="#FFFDF0"/>
</g>
<path d="M390.46 229.556L396.788 228.302C397.929 228.078 399.109 228.258 400.13 228.82L406.627 232.393C408.243 233.282 409.232 235.001 409.182 236.845C409.117 239.245 407.332 241.252 404.951 241.596L396.472 242.824C395.702 242.933 394.921 242.862 394.184 242.616L389.777 241.132C387.725 240.44 386.365 238.492 386.42 236.326L386.474 234.27C386.545 231.962 388.194 230.004 390.46 229.556Z" fill="#4F4F4F"/>
<path d="M238.24 187.666L233.446 183.351C232.583 182.576 231.475 182.123 230.312 182.085L222.897 181.829C221.051 181.763 219.321 182.734 218.42 184.349C217.246 186.444 217.748 189.084 219.615 190.595L226.271 195.985C226.872 196.47 227.582 196.814 228.341 196.978L232.883 197.954C235.002 198.412 237.169 197.431 238.229 195.543L239.239 193.748C240.369 191.735 239.954 189.209 238.24 187.666Z" fill="#445E7A"/>
<path opacity="0.1" d="M393.98 289.913L388.689 309.099C387.439 313.627 382.738 316.267 378.217 314.98L204.599 265.463C200.138 264.192 197.533 259.566 198.767 255.092L204.085 238.159L393.98 289.913Z" fill="white"/>
<path opacity="0.1" d="M203.194 264.928L230.21 272.773L227.862 281.294L202.32 268.087L203.194 264.928Z" fill="#000100"/>
<path opacity="0.1" d="M353.36 308.145L380.377 315.989L378.029 324.51L352.492 311.303L353.36 308.145Z" fill="#000100"/>
<path d="M385.046 276.476C385.638 269.635 380.567 263.61 373.72 263.019C366.873 262.428 360.843 267.494 360.251 274.335C359.659 281.176 364.73 287.201 371.577 287.792C378.424 288.383 384.454 283.317 385.046 276.476Z" fill="#F7F7F7"/>
<path opacity="0.1" d="M375.701 283.819C378.049 283.399 380.348 282.325 381.849 280.475C381.336 282.712 379.66 284.643 377.519 285.472C376.793 285.756 376.023 285.914 375.253 286.045C374.44 286.181 373.615 286.291 372.791 286.258C370.569 286.165 368.423 284.981 367.156 283.148C367.571 283.743 370.039 283.939 370.656 283.983C372.338 284.114 374.041 284.114 375.701 283.819Z" fill="#000100"/>
<path d="M238.75 242.277C240.619 235.669 236.772 228.799 230.159 226.932C223.546 225.065 216.67 228.908 214.801 235.516C212.933 242.123 216.779 248.993 223.392 250.86C230.005 252.727 236.881 248.884 238.75 242.277Z" fill="#F7F7F7"/>
<path opacity="0.1" d="M229.826 247.275C232.174 246.855 234.473 245.78 235.974 243.931C235.461 246.168 233.785 248.099 231.644 248.928C230.918 249.212 230.148 249.37 229.378 249.501C228.565 249.637 227.74 249.746 226.916 249.713C224.694 249.621 222.548 248.437 221.281 246.604C221.696 247.199 224.164 247.395 224.781 247.439C226.463 247.57 228.161 247.575 229.826 247.275Z" fill="#000100"/>
<path d="M155.802 83.1268L158.429 75.4295L156.589 70.6616L152.264 70.2034L151.445 75.484L150.408 74.7203L148.535 75.2222L150.009 80.2246L150.583 83.1868L155.802 83.1268Z" fill="#AD6359"/>
<path d="M122.321 125.274C123.774 124.478 125.21 123.616 126.728 122.901C131.03 120.877 135.278 118.744 139.471 116.502C142.038 115.133 144.669 113.649 146.395 111.303C147.372 109.978 148.011 108.445 148.617 106.917C151.833 98.8488 154.492 90.5569 156.567 82.1285C154.82 81.2884 150.026 78.9972 148.371 80.5629C147.814 81.092 147.503 81.8285 147.203 82.5377C145.789 85.9199 144.353 89.2912 142.884 92.6517C141.24 96.4049 139.548 100.174 137.173 103.513C136.867 103.944 136.534 104.38 136.081 104.659C135.595 104.953 135.016 105.041 134.454 105.122C125.827 106.366 120.716 103.158 112.248 105.275C110.337 105.733 105.062 111.581 103.872 113.142C102.944 114.364 102.731 115.973 102.644 117.506C102.523 119.535 102.583 121.663 103.517 123.468C104.604 125.569 106.771 126.971 109.065 127.554C111.358 128.143 113.777 128.002 116.119 127.647C118.385 127.309 120.367 126.349 122.321 125.274Z" fill="#EBB044"/>
<path d="M286.007 28.3618L268.988 78.9864L288.765 80.072L287.056 124.33L307.765 71.5509L285.636 67.465L286.007 28.3618Z" fill="#7FC5A3"/>
<path d="M339.937 81.103L311.899 100.284L316.426 108.259L295.273 129.971L325.26 111.09L321.531 100.715L339.937 81.103Z" fill="#7FC5A3"/>
<path d="M519.284 203.278V214.565L504.226 263.477L507.119 316.147L500.136 317.44L483.516 254.072L484.089 235.808L491.045 198.56L519.284 203.278Z" fill="#8EC3CB"/>
<path d="M507.34 216.644L522.601 322.519L529.688 323.015L533.695 263.673L543.114 207.239L507.34 216.644Z" fill="#8EC3CB"/>
<path d="M500.136 317.44L492.945 325.034L495.026 328.891L509.85 321.777L507.12 316.147L500.136 317.44Z" fill="#3B455A"/>
<path d="M522.598 322.519L513.742 328.083L514.785 332.327L530.925 329.147L529.685 323.015L522.598 322.519Z" fill="#3B455A"/>
<path d="M509.939 119.099L530.917 113.862C530.917 113.862 540.444 126.73 545.315 159.293C550.147 191.604 548.946 239.599 548.946 239.599C548.946 239.599 486.461 226.856 476.207 224.843L496.431 161.524L509.939 119.099Z" fill="#8EC3CB"/>
<path d="M457.207 155.289L449.465 152.943L450.322 149.593L455.984 150.024L455.651 148.251L462.034 151.066L461.613 154.672L457.207 155.289Z" fill="#AD6359"/>
<path d="M516.776 126.594L496.492 150.854L460.194 149.392L459.719 156.582L502.192 167.803L533.691 143.696L516.776 126.594Z" fill="#8EC3CB"/>
<path d="M510.036 90.2622C515.704 92.5698 522.676 89.5639 528.005 92.597C531.472 94.5664 533.334 98.8106 533.263 102.886C533.23 104.784 532.804 106.732 531.734 108.281C531.035 109.29 530.091 110.092 529.075 110.752C527.716 111.63 526.198 112.236 524.631 112.574C524.98 113.982 525.45 115.351 526.045 116.671C523.036 116.829 520.536 122.999 517.527 123.157C517.434 121.428 516.834 113.687 516.741 111.963C515.949 111.658 515.185 111.281 514.464 110.823C510.113 108.052 507.519 102.618 508.049 97.3704C508.294 94.9101 509.163 92.5698 510.036 90.2622Z" fill="#AD6359"/>
<path d="M510.939 92.488L529.574 96.1703L528.613 110.992L534.985 108.614L539.647 85.358L514.493 76.6133L501.444 79.4882L499.816 86.0781L507.482 95.8484L510.939 92.488Z" fill="#3B455A"/>
<path d="M480.734 66.0794L481.914 58.082L485.359 58.4366L485.763 64.0937L487.472 63.5045L485.621 70.2254L481.996 70.34L480.734 66.0794Z" fill="#E4C9AA"/>
<path d="M517.906 120.725L490.907 104.25L487.014 68.158L479.823 68.7526L474.969 112.378L503.47 139.954L517.906 120.725Z" fill="#8EC3CB"/>
<path d="M479.752 144.973L438.387 153.685C437.497 153.87 436.623 153.303 436.432 152.414L422.148 84.7035C421.963 83.8143 422.531 82.9415 423.421 82.7506L464.786 74.0385C465.676 73.8531 466.549 74.4204 466.741 75.3096L481.024 143.02C481.215 143.909 480.642 144.782 479.752 144.973Z" fill="#3B455A"/>
<path d="M464.796 77.9749L424.902 86.3743L437.679 146.949L477.572 138.55L464.796 77.9749Z" fill="#CCD2D9"/>
<path d="M460.663 145.082L455.887 146.088L456.119 147.187L460.895 146.182L460.663 145.082Z" fill="white"/>
<g opacity="0.79">
<path opacity="0.79" d="M459.111 127.276L458.773 129.529L451.784 126.96L451.909 126.125H451.92C451.915 126.125 451.915 126.125 451.909 126.125L451.462 129.098C451.227 130.664 452.313 132.121 453.891 132.35L455.393 132.568C456.971 132.797 458.445 131.717 458.68 130.146L459.111 127.276Z" fill="#3B455A"/>
<path opacity="0.79" d="M451.922 126.125H451.911L451.785 126.96L458.774 129.529L459.113 127.276L452.287 126.218C452.162 126.196 452.042 126.163 451.922 126.125Z" fill="#3C3D43"/>
<path opacity="0.1" d="M451.922 126.125H451.911L451.785 126.96L458.774 129.529L459.113 127.276L452.287 126.218C452.162 126.196 452.042 126.163 451.922 126.125Z" fill="black"/>
<path opacity="0.79" d="M451.092 125.613C450.961 125.487 450.847 125.34 450.754 125.187C450.847 125.34 450.961 125.482 451.092 125.613Z" fill="#687480"/>
<path opacity="0.79" d="M450.769 121.777L450.469 123.747L450.862 121.657C450.829 121.701 450.802 121.739 450.769 121.777Z" fill="#687480"/>
<path opacity="0.79" d="M450.654 125.001C450.594 124.876 450.544 124.745 450.512 124.609C450.544 124.745 450.594 124.876 450.654 125.001Z" fill="#687480"/>
<path opacity="0.79" d="M451.467 125.912C451.369 125.847 451.271 125.776 451.184 125.7C451.271 125.776 451.364 125.847 451.467 125.912Z" fill="#687480"/>
<path opacity="0.79" d="M454.48 111.309L452.16 114.364C452.018 114.555 451.908 114.762 451.832 114.986C452.4 116.393 452.46 117.937 452.045 119.361L454.087 119.655C453.956 119.213 453.912 118.744 453.983 118.259C454.251 116.508 455.894 115.296 457.658 115.553C459.421 115.809 460.634 117.44 460.371 119.186C460.301 119.666 460.12 120.103 459.869 120.479L473.951 122.497L470.915 109.067L464.729 108.161C463.293 107.954 462.517 106.295 463.211 104.926L467.885 95.674L467.06 92.0244C465.739 92.3408 464.57 93.2628 463.91 94.5884L459.694 103.039L461.709 105.526L454.48 111.309Z" fill="#D34E4E"/>
<path opacity="0.79" d="M452.29 126.218L459.115 127.276L475.61 129.84L452.29 126.218C451.995 126.174 451.717 126.071 451.477 125.923C451.613 126.005 451.755 126.071 451.908 126.125C451.913 126.125 451.913 126.125 451.919 126.125C452.039 126.163 452.159 126.196 452.29 126.218Z" fill="#687480"/>
<path opacity="0.79" d="M464.73 108.167L470.916 109.072L469.644 103.437C468.929 102.821 468.219 102.204 467.504 101.588C466.919 101.08 466.313 100.589 465.718 100.082L467.891 95.7887C467.897 95.7778 467.902 95.7723 467.908 95.7614L467.891 95.6851L463.218 104.937C462.519 106.301 463.294 107.954 464.73 108.167Z" fill="#ACD9DD"/>
<path opacity="0.79" d="M465.719 100.082C466.314 100.589 466.92 101.08 467.504 101.588C468.214 102.204 468.929 102.821 469.645 103.437L467.908 95.7615C467.903 95.7724 467.897 95.7778 467.892 95.7888L465.719 100.082Z" fill="#C1E4E5"/>
<path opacity="0.06" d="M450.469 123.752C450.426 124.047 450.442 124.336 450.513 124.609C450.442 124.336 450.426 124.047 450.469 123.752Z" fill="white"/>
<path opacity="0.06" d="M451.48 125.918C451.474 125.913 451.469 125.913 451.469 125.907C451.474 125.913 451.474 125.918 451.48 125.918Z" fill="white"/>
<path opacity="0.06" d="M451.183 125.7C451.15 125.673 451.117 125.64 451.09 125.613C451.117 125.64 451.15 125.673 451.183 125.7Z" fill="white"/>
<path opacity="0.79" d="M452.292 126.218L475.611 129.84L473.951 122.497L459.87 120.479C459.198 121.483 457.981 122.077 456.703 121.886C455.431 121.701 454.443 120.795 454.093 119.65L452.051 119.355C451.811 120.179 451.412 120.959 450.866 121.657L450.473 123.747C450.43 124.041 450.446 124.33 450.517 124.603C450.55 124.74 450.599 124.87 450.659 124.996C450.686 125.056 450.719 125.121 450.757 125.181C450.85 125.34 450.965 125.481 451.096 125.607C451.129 125.64 451.156 125.667 451.189 125.694C451.276 125.771 451.369 125.841 451.473 125.907C451.478 125.912 451.483 125.912 451.483 125.918C451.718 126.065 451.991 126.169 452.292 126.218Z" fill="#D34E4E"/>
<path opacity="0.1" d="M452.155 126.224L475.475 129.846L473.815 122.503L459.733 120.485C459.062 121.488 457.844 122.083 456.567 121.892C455.294 121.707 454.306 120.801 453.957 119.655L451.915 119.361C451.674 120.185 451.276 120.965 450.73 121.663L450.337 123.752C450.293 124.047 450.309 124.336 450.38 124.609C450.413 124.745 450.462 124.876 450.522 125.002C450.55 125.067 450.582 125.127 450.621 125.187C450.713 125.345 450.828 125.487 450.959 125.613C450.992 125.645 451.019 125.673 451.052 125.7C451.139 125.776 451.232 125.847 451.336 125.913C451.341 125.918 451.347 125.918 451.347 125.923C451.587 126.076 451.86 126.18 452.155 126.224Z" fill="white"/>
<path opacity="0.79" d="M460.371 119.186C460.639 117.435 459.421 115.809 457.658 115.553C455.894 115.297 454.251 116.508 453.983 118.259C453.912 118.744 453.956 119.219 454.087 119.655C454.436 120.801 455.419 121.707 456.697 121.892C457.98 122.077 459.192 121.488 459.863 120.485C460.12 120.103 460.3 119.666 460.371 119.186ZM458.744 121.134C458.564 121.226 458.373 121.292 458.176 121.352C457.969 121.412 457.761 121.467 457.548 121.483C456.975 121.527 456.385 121.292 456.003 120.866C456.129 121.003 456.773 120.976 456.931 120.97C457.368 120.948 457.805 120.899 458.225 120.768C458.815 120.588 459.378 120.239 459.705 119.721C459.64 120.31 459.268 120.856 458.744 121.134Z" fill="#F7F7F7"/>
<path opacity="0.79" d="M458.226 120.774C457.806 120.905 457.369 120.954 456.932 120.976C456.774 120.981 456.129 121.008 456.004 120.872C456.386 121.297 456.976 121.537 457.549 121.488C457.762 121.472 457.97 121.417 458.177 121.357C458.368 121.297 458.565 121.237 458.745 121.139C459.269 120.861 459.64 120.315 459.706 119.726C459.373 120.245 458.816 120.588 458.226 120.774Z" fill="#FFFFEB"/>
<path opacity="0.1" d="M458.226 120.774C457.806 120.905 457.369 120.954 456.932 120.976C456.774 120.981 456.129 121.008 456.004 120.872C456.386 121.297 456.976 121.537 457.549 121.488C457.762 121.472 457.97 121.417 458.177 121.357C458.368 121.297 458.565 121.237 458.745 121.139C459.269 120.861 459.64 120.315 459.706 119.726C459.373 120.245 458.816 120.588 458.226 120.774Z" fill="black"/>
<path opacity="0.79" d="M438.898 123.741L440.717 122.29C440.711 122.285 440.711 122.285 440.706 122.279L438.898 123.741Z" fill="#8C343E"/>
<path opacity="0.79" d="M440.04 113.24C440.258 113.065 440.482 112.907 440.711 112.754C440.886 112.58 441.072 112.411 441.274 112.253C444.2 109.912 448.481 110.37 450.823 113.267C450.982 113.464 451.124 113.665 451.26 113.873L454.482 111.303L461.711 105.532L459.696 103.044L457.965 100.906C455.475 97.8289 451.429 96.4323 447.542 97.3106L440.477 100.055L439.625 102.324L436.649 102.204L436.999 101.408L426.297 96.0232L427.078 99.4709L433.57 102.739L428.694 106.628L433.531 128.024L438.877 123.758C438.609 123.534 438.358 123.278 438.129 122.999C435.89 120.239 436.747 115.869 440.04 113.24Z" fill="#474EBB"/>
<path opacity="0.79" d="M427.078 99.4763L428.694 106.634L433.576 102.744L427.078 99.4763Z" fill="#ACD9DD"/>
<path opacity="0.1" d="M438.879 123.764L438.902 123.741L438.879 123.764Z" fill="black"/>
<path opacity="0.79" d="M440.22 121.739C438.03 119.039 438.298 115.166 440.717 112.76C440.487 112.913 440.263 113.071 440.045 113.245C436.753 115.875 435.895 120.244 438.134 123.01C438.363 123.288 438.609 123.545 438.882 123.768L438.904 123.747L440.711 122.285C440.536 122.11 440.373 121.93 440.22 121.739Z" fill="#8C343E"/>
<path opacity="0.79" d="M440.22 121.739C438.03 119.039 438.298 115.166 440.717 112.76C440.487 112.913 440.263 113.071 440.045 113.245C436.753 115.875 435.895 120.244 438.134 123.01C438.363 123.288 438.609 123.545 438.882 123.768L438.904 123.747L440.711 122.285C440.536 122.11 440.373 121.93 440.22 121.739Z" fill="#3B46A8"/>
<path opacity="0.79" d="M452.048 119.361C452.463 117.937 452.403 116.393 451.835 114.986C451.682 114.604 451.491 114.233 451.262 113.878C451.131 113.671 450.983 113.469 450.825 113.273C448.477 110.376 444.202 109.918 441.275 112.258C441.079 112.416 440.893 112.585 440.713 112.76C438.294 115.166 438.032 119.039 440.216 121.739C440.369 121.93 440.533 122.11 440.707 122.279C440.713 122.285 440.713 122.285 440.718 122.29C443.137 124.685 447.035 124.936 449.771 122.754C450.142 122.459 450.475 122.126 450.765 121.777C450.797 121.739 450.83 121.696 450.858 121.657C451.414 120.965 451.813 120.179 452.048 119.361ZM448.859 119.415C447.789 121.248 445.43 121.876 443.59 120.823C441.75 119.77 441.122 117.43 442.187 115.597C443.257 113.764 445.616 113.136 447.456 114.189C449.301 115.242 449.929 117.582 448.859 119.415Z" fill="#3B455A"/>
<path opacity="0.79" d="M447.459 114.189C445.619 113.136 443.255 113.764 442.19 115.597C441.12 117.43 441.748 119.77 443.593 120.823C445.433 121.876 447.797 121.248 448.862 119.415C449.927 117.582 449.299 115.242 447.459 114.189ZM447.847 119.906C447.672 120.092 447.464 120.244 447.257 120.392C447.06 120.528 446.853 120.659 446.634 120.757C445.979 121.041 445.193 120.975 444.592 120.599C445.324 120.681 446.067 120.419 446.678 119.999C447.109 119.704 447.486 119.339 447.83 118.946C447.956 118.804 448.458 118.226 448.42 118.008C448.535 118.684 448.316 119.404 447.847 119.906Z" fill="#F7F7F7"/>
<path opacity="0.79" d="M447.828 118.946C447.484 119.339 447.112 119.704 446.676 119.999C446.064 120.414 445.321 120.675 444.59 120.599C445.19 120.975 445.982 121.035 446.632 120.757C446.856 120.659 447.058 120.528 447.254 120.392C447.462 120.244 447.669 120.092 447.844 119.906C448.314 119.404 448.532 118.679 448.412 118.008C448.456 118.226 447.948 118.804 447.828 118.946Z" fill="#FFFFED"/>
<path opacity="0.1" d="M447.828 118.946C447.484 119.339 447.112 119.704 446.676 119.999C446.064 120.414 445.321 120.675 444.59 120.599C445.19 120.975 445.982 121.035 446.632 120.757C446.856 120.659 447.058 120.528 447.254 120.392C447.462 120.244 447.669 120.092 447.844 119.906C448.314 119.404 448.532 118.679 448.412 118.008C448.456 118.226 447.948 118.804 447.828 118.946Z" fill="black"/>
<path opacity="0.79" d="M439.626 102.324L440.477 100.055L441.717 96.7542C442.782 93.9175 444.589 91.4136 446.942 89.4933C447.554 88.9914 448.051 88.5986 448.231 88.4841C448.837 88.0968 451.332 87.6167 451.332 87.6167L452.249 85.4019C452.249 85.4019 449.994 84.8236 447.674 86.0183C446.478 86.6348 444.889 87.9549 443.628 89.0951C442.307 90.2898 441.253 91.7463 440.538 93.3665L436.994 101.402L436.645 102.199L439.626 102.324Z" fill="#474EBB"/>
</g>
<path d="M516.007 5.85892C497.765 9.80306 488.505 1.33653 487.254 0.0872788C487.254 0.0872788 487.227 -0.0381916 487.178 0.0109055C487.129 -0.0381916 487.102 0.0872788 487.102 0.0872788C485.851 1.33653 476.591 9.80306 458.349 5.85892C458.349 5.85892 455.548 38.6504 466.184 52.0266C477.541 66.3139 487.129 70.6344 487.178 70.5962C487.227 70.6344 496.897 66.3957 508.172 52.0266C518.726 38.5849 516.007 5.85892 516.007 5.85892Z" fill="#3B455A"/>
<path d="M513.343 9.23023C496.789 12.7434 488.386 5.20426 487.255 4.09139C487.255 4.09139 487.234 3.98229 487.19 4.02593C487.146 3.98229 487.124 4.09139 487.124 4.09139C485.994 5.20426 477.591 12.7434 461.036 9.23023C461.036 9.23023 458.497 38.4212 468.145 50.3354C478.454 63.0571 487.141 67.6831 487.184 67.6504C487.228 67.6831 496.008 63.128 506.24 50.3354C515.806 38.3666 513.343 9.23023 513.343 9.23023Z" fill="#7FC5A3"/>
<path d="M497.887 40.4941L497.914 42.2452C497.925 42.9762 498.498 43.5599 499.197 43.549L500.568 43.5327C501.267 43.5217 501.823 42.9271 501.812 42.1961L501.785 40.4341C501.681 40.4668 501.572 40.4832 501.458 40.4832L497.887 40.4941Z" fill="white"/>
<path d="M476.219 40.5435L476.252 42.5237C476.262 43.2547 476.836 43.8384 477.535 43.8275L478.905 43.8111C479.604 43.8002 480.161 43.2056 480.15 42.4746L480.123 40.5544L476.432 40.5653C476.355 40.5653 476.284 40.5544 476.219 40.5435Z" fill="white"/>
<path d="M501.046 28.9346L502.127 28.4218C502.433 28.2799 502.592 27.9254 502.504 27.5926C502.439 27.3362 502.242 27.1343 501.991 27.0743L500.986 26.8398C500.828 26.8016 500.664 26.8234 500.522 26.8998L499.883 27.2434L498.169 21.1008C497.841 19.928 496.864 19.137 495.772 19.1533L482.029 19.3333C480.975 19.3497 480.052 20.108 479.725 21.2263L477.858 27.6253C477.852 27.6199 477.847 27.6144 477.836 27.6144L477.028 27.2053C476.88 27.1343 476.716 27.1125 476.564 27.1562L475.57 27.418C475.324 27.4835 475.128 27.6853 475.073 27.9472C474.996 28.2854 475.166 28.6345 475.477 28.7655L476.574 29.2455C476.673 29.2892 476.782 29.3055 476.891 29.3001L477.262 29.2728L475.28 33.2169C475.188 33.397 475.144 33.5988 475.149 33.8006L475.22 38.574C475.231 39.1686 475.646 39.665 476.192 39.7632C476.258 39.7741 476.329 39.785 476.4 39.785L480.091 39.7741L497.858 39.7141L501.434 39.7032C501.549 39.7032 501.658 39.6868 501.762 39.6541C502.253 39.5068 502.608 39.0268 502.602 38.4649L502.531 33.8716C502.531 33.7024 502.493 33.5388 502.428 33.386L500.533 28.9837L500.741 28.9946C500.839 29.0055 500.948 28.9837 501.046 28.9346ZM478.338 36.9974C477.383 37.0083 476.602 36.2119 476.585 35.219C476.569 34.2261 477.328 33.4079 478.283 33.397C479.239 33.386 480.02 34.1825 480.036 35.1754C480.052 36.1737 479.288 36.9865 478.338 36.9974ZM496.214 28.3018L481.352 28.5472C480.577 28.5582 480.025 27.8162 480.276 27.0962L481.964 22.2028C482.116 21.7609 482.537 21.4554 483.017 21.45L494.653 21.259C495.149 21.2536 495.592 21.5645 495.739 22.0282L497.284 26.867C497.497 27.5708 496.968 28.2909 496.214 28.3018ZM500.872 34.4062C500.888 35.399 500.129 36.2173 499.174 36.2282C498.218 36.2391 497.437 35.4427 497.421 34.4498C497.404 33.457 498.163 32.6387 499.119 32.6278C500.069 32.6169 500.855 33.4079 500.872 34.4062Z" fill="white"/>
<path d="M140.75 163.63L138.348 168.441L145.844 173.34L150.704 170.509L150.818 165.67L146.554 165.79L147.007 164.885L148.372 164.443L147.908 163.079L140.75 163.63Z" fill="#EBCEB1"/>
<path d="M95.4689 108.237C96.4627 106.748 97.7512 105.488 99.3401 104.653C100.181 104.211 101.109 103.89 102.065 103.879C103.069 103.868 104.052 104.201 104.948 104.653C116.501 110.48 117.031 129.344 117.129 140.407C117.194 147.482 127.022 151.388 132.237 155.082C134.639 156.784 142.529 160.799 142.556 163.455C142.562 164.017 139.471 170.002 139.586 170.045C132.843 167.416 126.1 164.786 119.357 162.157C114.377 160.215 109.13 159.168 104.189 157.035C102.316 156.227 100.399 155.262 99.22 153.603C98.3027 152.316 97.9205 150.734 97.5601 149.195C95.7474 141.514 94.4261 133.877 93.5088 126.043C93.0501 122.126 92.5151 118.144 93.1648 114.255C93.5197 112.138 94.2841 110.021 95.4689 108.237Z" fill="#D6C0B9"/>
<path d="M85.2933 103.404C85.195 103.415 85.0913 103.42 84.993 103.431C82.394 103.682 79.7732 104.604 77.9495 106.464C77.0213 107.408 76.3334 108.559 75.7164 109.732C74.0565 112.858 72.8826 116.153 71.6323 119.453C68.0013 129.049 65.1184 138.934 63.0054 148.972C61.9844 153.805 55.9347 208.865 59.5165 208.63C81.4385 207.212 103.399 206.47 125.364 206.404C126.822 177.863 128.144 148.372 118.059 121.63C116.492 117.473 114.608 113.344 111.654 110.027C105.343 102.929 94.144 102.575 85.2933 103.404Z" fill="#EBB044"/>
<path d="M100.547 317.669V321.444L110.233 326.283L115.081 321.444L110.233 316.6H109.611L109.452 317.669H100.547Z" fill="#3B455A"/>
<path d="M76.6787 316.6H76.0071L71.1641 321.444L76.0071 326.283L85.6987 321.444V317.669H76.7879L76.6787 316.6Z" fill="#3B455A"/>
<path d="M120.759 202.46C115.305 200.867 109.392 198.407 103.691 198.456C103.085 198.462 102.479 198.478 101.873 198.494C101.365 198.532 100.847 198.571 100.323 198.614C96.5059 198.92 92.2143 199.329 87.7317 199.874C87.5133 199.902 87.2949 199.929 87.071 199.956C81.3434 201.2 77.6197 201.691 75.2063 201.816C72.8804 202.438 70.6199 203.218 68.496 204.244C67.4367 204.757 66.4539 205.33 65.5093 205.935L65.4766 212.154L76.4021 317.811H85.3566V318.886H85.4057L95.2556 248.011L95.2938 247.613L100.688 318.886H100.737V317.811H109.736L121.153 238.448L120.759 202.46Z" fill="#CCD2D9"/>
<path d="M102.349 75.5278C103.495 77.8409 103.976 80.4594 103.954 83.0506C103.949 83.738 103.954 84.5344 104.484 84.9709C105.046 85.4346 104.484 86.3619 104.959 85.8055C105.434 85.2491 107.045 83.307 107.154 82.5815C107.399 80.874 107.487 79.1392 107.41 77.4154C107.345 75.9152 107.121 74.3386 106.22 73.1494C105.685 72.4456 104.948 71.9328 104.222 71.431C103.168 70.7054 102.081 69.9744 100.847 69.6744C98.7179 69.1561 97.3584 69.8708 99.1766 71.491C100.476 72.6475 101.563 73.9404 102.349 75.5278Z" fill="#3B455A"/>
<path d="M87.4958 104.151C90.4388 104.588 93.3872 105.024 96.3301 105.461C96.9144 102.886 97.3075 100.262 97.5204 97.6215C100.119 97.3051 103.193 96.6177 104.214 93.9228C104.537 93.0718 104.591 92.1335 104.646 91.217C104.864 87.4202 105.088 83.6179 105.306 79.8211C105.383 78.5063 105.454 77.1534 105.072 75.9096C104.406 73.7275 102.495 72.3474 100.594 71.4473C95.7568 69.1397 89.991 68.9215 85.279 71.5946C84.0232 72.3092 82.8275 73.242 82.0631 74.5622C80.8782 76.5915 80.8837 79.1773 80.9274 81.594C80.9711 83.8252 81.0093 86.0564 81.053 88.2876C81.1021 90.857 81.3314 93.8192 83.2151 95.2703C84.2143 96.0395 85.552 96.2413 86.3983 97.2178C87.8944 98.9308 87.0262 101.806 87.4958 104.151Z" fill="#875149"/>
<path d="M105.63 89.7388C105.624 89.0296 105.428 86.9512 104.314 88.1949C104.025 88.5223 103.932 88.9969 103.893 89.4497C103.855 89.9024 103.85 90.3661 103.686 90.7862C103.315 91.7463 102.228 92.1336 101.284 92.0682C100.907 92.0409 100.525 91.9591 100.203 91.7463C99.8913 91.5445 99.6456 91.2335 99.4108 90.928C98.8375 90.1861 98.2642 89.4442 97.6963 88.7077C96.7135 87.4367 94.6114 87.8513 93.1973 87.9658C91.5647 88.0968 89.9158 88.5114 88.5344 89.526C88.3924 89.6297 88.256 89.7388 88.1195 89.8424C87.7864 90.1043 87.4479 90.3661 87.0711 90.5298C85.788 91.0862 84.2647 90.3552 83.4457 89.1496C83.0689 88.5986 82.7304 87.8949 82.108 87.7694C81.622 87.6767 81.1252 88.004 80.8521 88.4568C80.5791 88.9096 80.4809 89.4606 80.4208 89.9952C80.1969 91.9536 80.3607 93.9884 81.1088 95.7723C82.7359 99.6455 86.2194 100.289 89.752 100.393C91.1498 100.431 92.5475 100.469 93.9398 100.513C96.4951 100.584 99.1924 100.617 101.42 99.2254C103.38 97.998 104.625 95.7941 105.204 93.4538C105.504 92.2482 105.641 90.9935 105.63 89.7388ZM96.031 94.6048C94.6442 95.4504 93.1591 95.4231 91.6849 94.8885C91.0569 94.6594 91.3846 93.5902 92.0125 93.8193C93.2355 94.2612 94.404 94.3157 95.5615 93.612C96.1402 93.252 96.6098 94.2503 96.031 94.6048Z" fill="#3B455A"/>
<path d="M107.209 69.1778C107.504 68.2723 107.733 67.3394 107.897 66.4011C107.018 66.663 106.073 66.6957 105.178 66.4939C105.205 65.9484 105.227 65.4028 105.254 64.8518C105.27 64.3991 99.237 63.7608 98.7456 63.6953C94.1592 63.0734 89.9713 62.4843 85.6797 64.7755C82.0161 66.7339 79.5754 69.8161 78.8165 73.9566C78.0958 77.9117 79.1113 83.1814 81.2134 86.6019C81.2517 85.5436 80.7821 83.0069 81.0769 82.014C81.279 81.0103 81.6721 80.0556 82.1908 79.1828C83.2282 77.4371 84.7679 76.0024 86.5151 75.015C89.2998 73.4384 92.483 72.6965 95.6389 72.4128C98.5327 72.1564 102.049 71.9655 104.844 72.8874C106.188 73.3293 106.395 73.6893 107.296 72.3364C107.454 72.0964 108.754 69.2815 108.639 69.2706C108.164 69.2379 107.684 69.2106 107.209 69.1778Z" fill="#3B455A"/>
<path d="M5.19877 255.856L13.0558 235.437L13.4871 235.235C13.5089 233.168 13.5253 231.1 13.5472 229.033C13.6454 218.122 13.7492 207.212 13.8475 196.296C13.9348 186.7 11.0082 171.742 21.5352 166.718L121.59 118.957C132.701 113.654 146.04 115.547 155.858 123.834L190.032 152.676L191.703 151.896L230.267 146.446C244.78 146.582 257.949 154.961 264.206 168.043L273.609 187.704L19.5641 308.974L6.18704 280.999C2.41961 273.111 2.05925 264.017 5.19877 255.856Z" fill="#FBC02D"/>
<path d="M95.0641 192.821L28.3042 224.685L25.6233 180.137C25.4923 177.917 26.6498 175.888 28.5718 174.971L75.7574 152.447L95.0641 192.821Z" fill="#ACD9DD"/>
<path d="M87.1758 146.997L125.418 128.744C133.521 124.876 143.245 126.261 150.403 132.3L176.213 154.083L106.482 187.371L87.1758 146.997Z" fill="#ACD9DD"/>
<g opacity="0.2">
<path opacity="0.2" d="M28.1104 190.044C27.4498 190.944 26.7891 191.844 26.1284 192.739L25.3968 180.552C25.2657 178.332 26.4233 176.302 28.3452 175.386L44.6925 167.585C39.2107 175.102 33.6305 182.548 28.1104 190.044Z" fill="#FFFFF1"/>
<path opacity="0.2" d="M31.0756 199.564C40.1611 187.087 49.4541 173.422 58.3048 160.782L73.7567 153.707C67.5541 167.732 58.1028 182.074 49.8144 194.883C44.8349 202.58 39.5932 210.114 34.0131 217.391C32.184 219.775 30.1911 222.099 28.1927 224.439L27.0352 205.155C28.3729 203.284 29.7215 201.424 31.0756 199.564Z" fill="#FFFFF1"/>
<path opacity="0.2" d="M110.763 165.408C114.323 159.62 118.194 154.001 122.152 148.481C126.16 142.889 130.239 137.248 134.754 132.049C136.245 130.336 137.779 128.667 139.308 126.998C143.277 127.751 147.105 129.529 150.397 132.306L150.648 132.519C146.804 139.299 142.9 146.053 139.111 152.845C133.509 162.899 126.329 171.911 119.504 181.157L106.476 187.376L102.977 180.061C105.57 175.168 107.863 170.121 110.763 165.408Z" fill="#FFFFF1"/>
</g>
<path opacity="0.1" d="M177.442 233.61C176.672 232.579 176 231.46 175.427 230.271C169.809 218.526 176.497 203.633 190.366 197.011C195.782 194.425 201.488 193.492 206.773 194.005C199.08 199.885 193.587 207.752 190.114 216.284C188.345 220.626 187.363 224.843 187.024 228.967L177.442 233.61Z" fill="black"/>
<path opacity="0.1" d="M45.8932 296.405C45.1288 295.368 44.4572 294.256 43.8893 293.061C38.271 281.316 44.692 266.548 58.2329 260.084C63.5182 257.558 69.1093 256.68 74.2963 257.242C66.8051 263.024 61.4925 270.809 58.1619 279.27C56.4638 283.58 55.5411 287.764 55.2517 291.866L45.8932 296.405Z" fill="black"/>
<path d="M230.681 220.631C232.775 207.134 223.522 194.498 210.014 192.405C196.506 190.313 183.859 199.558 181.764 213.054C179.67 226.55 188.923 239.187 202.431 241.279C215.939 243.371 228.587 234.127 230.681 220.631Z" fill="#3B455A"/>
<path d="M219.22 222.177C222.162 215.004 218.728 206.806 211.548 203.866C204.369 200.927 196.164 204.358 193.222 211.531C190.28 218.704 193.714 226.902 200.894 229.842C208.073 232.781 216.278 229.35 219.22 222.177Z" fill="#F7F7F7"/>
<path opacity="0.1" d="M208.216 226.73C205.704 227.702 202.859 228.012 200.32 227.112C202.128 228.967 204.879 229.845 207.429 229.393C208.297 229.24 209.127 228.94 209.946 228.618C210.814 228.274 211.672 227.892 212.447 227.38C214.533 225.989 215.909 223.583 216.051 221.079C216.002 221.892 213.73 223.528 213.168 223.937C211.634 225.045 209.995 226.043 208.216 226.73Z" fill="black"/>
<path d="M91.7529 297.326C101.418 287.669 101.418 272.012 91.7529 262.355C82.0874 252.698 66.4165 252.698 56.751 262.355C47.0854 272.012 47.0854 287.669 56.751 297.326C66.4165 306.983 82.0874 306.983 91.7529 297.326Z" fill="#3B455A"/>
<path d="M74.5645 293.879C82.3218 293.716 88.4776 287.3 88.3139 279.55C88.1502 271.799 81.729 265.649 73.9716 265.812C66.2143 265.976 60.0585 272.391 60.2222 280.142C60.3859 287.892 66.8072 294.043 74.5645 293.879Z" fill="#F7F7F7"/>
<path opacity="0.1" d="M76.2468 289.733C73.7352 290.704 70.8905 291.015 68.3516 290.115C70.1588 291.97 72.9107 292.848 75.4605 292.395C76.3287 292.243 77.1586 291.943 77.9776 291.621C78.8457 291.277 79.703 290.895 80.4783 290.382C82.564 288.991 83.94 286.585 84.0819 284.082C84.0328 284.894 81.7614 286.531 81.199 286.94C79.6593 288.042 78.0213 289.04 76.2468 289.733Z" fill="black"/>
<path opacity="0.25" d="M121.95 200.404L130.473 196.334C131.472 195.854 131.898 194.659 131.418 193.661L130.653 192.062C130.173 191.064 128.977 190.639 127.978 191.119L119.455 195.188C118.456 195.668 118.03 196.863 118.51 197.861L119.275 199.46C119.755 200.458 120.951 200.878 121.95 200.404Z" fill="black"/>
<path d="M193.826 162.381L214.88 142.884L224.637 153.401L231.572 131.34L247.488 140.063L251.85 132.115L229.775 125.187L221.045 141.089L213.084 136.73L185.871 158.016L193.826 162.381Z" fill="#C7920E"/>
<path d="M72.9677 175.364L67.8789 177.121L69.8063 185.86L75.2554 187.235L78.728 183.863L75.5994 180.967L76.5549 180.634L77.838 181.277L78.4605 179.979L72.9677 175.364Z" fill="#EFBFA5"/>
<path d="M79.4344 104.14C81.1871 103.769 82.9889 103.775 84.7143 104.288C85.6261 104.56 86.5161 104.98 87.204 105.641C87.9302 106.333 88.3943 107.261 88.7219 108.21C92.8879 120.452 80.0569 134.291 72.3746 142.267C67.4606 147.368 71.7467 157.029 72.8824 163.313C73.4065 166.205 76.2294 174.589 74.3839 176.51C73.9908 176.919 67.5971 179.03 67.6462 179.139C64.6705 172.544 61.7002 165.948 58.7245 159.358C56.5296 154.487 53.5156 150.073 51.479 145.093C50.7092 143.205 50.0157 141.176 50.3324 139.163C50.5781 137.603 51.4135 136.206 52.2325 134.853C56.3221 128.1 60.7229 121.723 65.5605 115.482C67.9793 112.361 70.3817 109.148 73.5703 106.819C75.3121 105.559 77.3378 104.582 79.4344 104.14Z" fill="#EBB044"/>
<path d="M55.0445 82.183C54.3074 78.9208 56.0437 76.0568 59.1232 75.3585C62.3883 74.6221 65.0036 76.5096 65.7407 79.7664C66.456 82.9359 64.9272 85.8544 61.6621 86.5909C58.4898 87.311 55.7598 85.358 55.0445 82.183ZM54.3839 68.7195L43.2891 25.5249L51.9924 23.561L60.5482 67.3284L54.3839 68.7195Z" fill="#D34E4E"/>
</g>
<defs>
<clipPath id="clip0_467_1733">
<rect width="557" height="358" fill="white"/>
</clipPath>
</defs>
</svg>
