<svg width="576" height="270" viewBox="0 0 576 270" fill="none" xmlns="http://www.w3.org/2000/svg">
<g clip-path="url(#clip0_541_1416)">
<path d="M146.433 49.0962L156.945 80.9543L181.996 58.6179L175.173 91.4678L208.018 84.6439L185.685 109.698L217.558 120.211L185.685 130.745L208.018 155.779L175.173 148.955L181.996 181.825L156.945 159.489L146.433 191.347L135.902 159.489L110.871 181.825L117.694 148.955L84.8289 155.779L107.162 130.745L75.3086 120.211L107.162 109.698L84.8289 84.6439L117.694 91.4678L110.871 58.6179L135.902 80.9543L146.433 49.0962Z" fill="#F8AD3E"/>
<path d="M146.429 83.9302L151.784 100.196L164.557 88.7902L161.086 105.552L177.846 102.081L166.461 114.856L182.706 120.212L166.461 125.588L177.846 138.363L161.086 134.891L164.557 151.653L151.784 140.247L146.429 156.513L141.054 140.247L128.281 151.653L131.752 134.891L114.992 138.363L126.397 125.588L110.133 120.212L126.397 114.856L114.992 102.081L131.752 105.552L128.281 88.7902L141.054 100.196L146.429 83.9302Z" fill="white"/>
<path d="M466.316 76.8084C463.658 73.0195 459.275 70.7383 454.634 70.7383H331.128C326.407 70.7383 321.845 72.6823 318.573 76.1141L278.171 118.426C274.858 121.898 270.435 124.119 265.675 124.695C265.675 124.695 239.375 127.412 185.03 140.505C173.903 143.183 149.289 159.052 149.289 159.052C145.58 161.889 143.398 166.332 143.398 170.994V223.086C143.398 227.192 146.711 230.564 150.816 230.604L184.653 231.06C188.957 231.12 192.726 228.124 193.658 223.899L197.605 205.788C204.487 182.44 226.067 165.4 251.653 165.4C288.425 165.4 315.221 199.996 306.295 235.484C306.037 236.515 305.918 237.586 306.077 238.638C306.216 239.471 306.91 240.106 307.763 240.106H415.541C416.394 240.106 417.088 239.451 417.227 238.618C417.386 237.666 417.326 236.694 417.088 235.761C415.938 231.298 415.283 226.617 415.283 221.776C415.283 190.632 440.512 165.4 471.652 165.4C500.51 165.4 524.311 187.102 527.643 215.072C527.802 216.42 527.405 224.95 527.068 231.417C526.85 235.444 530.043 238.856 534.089 238.836L565.506 238.816C569.513 238.816 572.686 235.404 572.369 231.397L566.934 157.981C566.577 153.24 568.263 142.23 541.646 133.939C504.973 122.513 495.433 118.287 492.696 114.399L466.316 76.8084Z" fill="#FBC02D"/>
<path d="M550.098 202.772C550.098 206.879 553.41 210.191 557.516 210.191H565.291C569.396 210.191 572.708 206.879 572.708 202.772V187.815C572.708 183.709 569.376 180.396 565.291 180.396H557.516C553.41 180.396 550.098 183.709 550.098 187.815V202.772Z" fill="#F8AD3E"/>
<path d="M133.383 217.413C133.383 213.306 136.715 209.994 140.801 209.994H183.583C187.669 209.994 191.001 213.306 191.001 217.413V230.069C191.001 234.175 187.669 237.488 183.583 237.488H140.801C136.695 237.488 133.383 234.175 133.383 230.069V217.413Z" fill="#474046"/>
<path d="M528.159 225.446C528.555 221.26 532.086 218.047 536.271 218.047H568.561C572.666 218.047 575.979 221.379 575.979 225.486V238.142C575.979 242.248 572.666 245.561 568.561 245.561H533.673C529.686 245.561 526.572 242.149 526.949 238.161L528.159 225.446Z" fill="#474046"/>
<path d="M378.828 97.3392C378.828 93.2329 382.14 89.9003 386.246 89.8408L423.792 89.5631C428.354 89.5433 432.598 92.003 434.8 96.0101L451.441 126.123C453.047 129.039 450.945 132.629 447.613 132.629H386.246C382.14 132.629 378.828 129.296 378.828 125.21V97.3392Z" fill="#82B79E"/>
<path d="M431.566 146.535C431.566 149.709 434.125 152.288 437.318 152.288H448.802C451.976 152.288 454.554 149.729 454.554 146.535C454.554 143.361 451.976 140.782 448.802 140.782H437.318C434.145 140.782 431.566 143.361 431.566 146.535Z" fill="#040002"/>
<path d="M403.384 232.905H379.286C374.466 232.905 370.539 228.997 370.539 224.177V88.7107C370.539 83.8903 374.446 79.9824 379.286 79.9824H425.876C430.914 79.9824 435.674 82.6406 438.292 86.9452L461.359 124.774C464.017 129.138 465.425 134.117 465.425 139.215V152.764C465.425 157.525 461.994 161.671 457.095 162.841C417.526 172.204 412.369 209.021 411.992 224.415C411.853 229.176 408.085 232.905 403.384 232.905ZM379.286 82.6009C375.914 82.6009 373.177 85.3384 373.177 88.7107V224.177C373.177 227.549 375.914 230.287 379.286 230.287H403.384C406.637 230.287 409.255 227.668 409.334 224.355C409.731 208.367 415.126 170.101 456.46 160.302C460.169 159.409 462.767 156.335 462.767 152.784V139.235C462.767 134.613 461.498 130.09 459.098 126.163L436.031 88.3139C433.889 84.783 429.982 82.6009 425.856 82.6009H379.286Z" fill="#EEAA00"/>
<path d="M359.548 97.3396C359.548 93.2333 356.236 89.8809 352.13 89.8214L330.293 89.5833C325.592 89.5238 321.05 91.5075 317.857 94.979L288.344 127.154C286.42 129.257 287.907 132.629 290.744 132.629H352.11C356.196 132.629 359.528 129.297 359.528 125.21V97.3396H359.548Z" fill="#82B79E"/>
<path d="M359.195 146.535C359.195 149.709 356.616 152.288 353.463 152.288H341.959C338.785 152.288 336.207 149.729 336.207 146.535C336.207 143.361 338.785 140.782 341.959 140.782H353.463C356.636 140.782 359.195 143.361 359.195 146.535Z" fill="#040002"/>
<path d="M359.111 232.905H322.26C317.579 232.905 313.711 229.017 313.453 224.058C312.739 210.866 308.177 178.988 281.064 167.999C276.165 166.015 273.012 161.71 273.012 157.049V139.215C273.012 134.097 274.916 129.198 278.387 125.449L314.842 85.8541C318.293 82.1248 323.172 79.9824 328.269 79.9824H359.151C363.971 79.9824 367.878 83.8903 367.878 88.7107V224.177C367.838 228.997 363.911 232.905 359.111 232.905ZM328.23 82.6009C323.866 82.6009 319.681 84.4457 316.746 87.6395L280.291 127.234C277.276 130.507 275.61 134.772 275.61 139.235V157.069C275.61 160.659 278.129 164.012 282.036 165.579C310.558 177.124 315.338 210.231 316.071 223.919C316.27 227.49 318.987 230.287 322.26 230.287H359.111C362.483 230.287 365.22 227.529 365.22 224.177V88.7107C365.22 85.3384 362.483 82.6009 359.111 82.6009H328.23Z" fill="#EEAA00"/>
<path d="M302.507 219.356C302.507 247.327 279.837 270 251.871 270C223.905 270 201.234 247.327 201.234 219.356C201.234 191.386 223.905 168.713 251.871 168.713C279.837 168.713 302.507 191.386 302.507 219.356Z" fill="#2D2A2F"/>
<path d="M286.204 219.357C286.204 238.321 270.833 253.694 251.871 253.694C232.91 253.694 217.559 238.321 217.559 219.357C217.559 200.393 232.91 185.019 251.871 185.019C270.833 185.019 286.204 200.393 286.204 219.357Z" fill="#B9B9B9"/>
<path d="M279.52 219.356C279.52 234.631 267.144 247.029 251.871 247.029C236.599 247.029 224.223 234.651 224.223 219.356C224.223 204.082 236.599 191.704 251.871 191.704C267.144 191.684 279.52 204.082 279.52 219.356Z" fill="#73716B"/>
<path d="M267.855 219.357C267.855 228.184 260.695 235.345 251.869 235.345C243.043 235.345 235.883 228.184 235.883 219.357C235.883 210.529 243.043 203.368 251.869 203.368C260.695 203.368 267.855 210.529 267.855 219.357Z" fill="#F9F8F9"/>
<path d="M522.702 218.92C522.702 246.89 500.032 269.564 472.066 269.564C444.12 269.564 421.43 246.89 421.43 218.92C421.43 190.95 444.1 168.276 472.066 168.276C500.032 168.276 522.702 190.95 522.702 218.92Z" fill="#2D2A2F"/>
<path d="M506.399 218.92C506.399 237.884 491.028 253.258 472.067 253.258C453.105 253.258 437.754 237.884 437.754 218.92C437.754 199.956 453.125 184.583 472.067 184.583C491.028 184.583 506.399 199.956 506.399 218.92Z" fill="#B9B9B9"/>
<path d="M499.735 218.92C499.735 234.194 487.359 246.592 472.067 246.592C456.794 246.592 444.418 234.214 444.418 218.92C444.418 203.645 456.794 191.267 472.067 191.267C487.359 191.247 499.735 203.645 499.735 218.92Z" fill="#73716B"/>
<path d="M488.074 218.92C488.074 227.748 480.914 234.909 472.088 234.909C463.262 234.909 456.102 227.748 456.102 218.92C456.102 210.093 463.262 202.932 472.088 202.932C480.914 202.932 488.074 210.073 488.074 218.92Z" fill="#F9F8F9"/>
<path d="M182.671 181.983C182.671 179.266 180.469 177.064 177.772 177.064H143.062V186.903H177.772C180.469 186.883 182.671 184.681 182.671 181.983Z" fill="#A4D7E7"/>
<path d="M182.493 191.168C182.493 189.898 181.461 188.867 180.192 188.867H143.043V193.449H180.192C181.461 193.449 182.493 192.418 182.493 191.168Z" fill="#A4D7E7"/>
<path d="M139.967 139.592C139.67 141.794 137.051 143.044 135.048 142.766C134.354 142.667 132.827 146.535 131.597 147.923C130.308 149.391 128.761 148.201 128.563 147.685C128.404 147.289 130.705 141.933 131.319 140.465C133.362 135.525 135.782 135.208 137.805 135.466C139.789 135.744 140.265 137.39 139.967 139.592Z" fill="#D3766A"/>
<path d="M143.26 136.775L137.488 135.883L134.335 142.389L134.176 143.5L133.541 152.01C133.541 152.01 133.303 156.652 137.806 157.604C140.781 158.239 138.143 157.664 138.143 157.664C142.248 158.299 143.26 153.934 143.26 153.934L145.977 142.548C146.394 140.128 145.898 137.172 143.26 136.775Z" fill="#D3766A"/>
<path d="M64.0817 56.4753C62.495 54.928 63.0504 52.0715 64.4586 50.6234C64.9544 50.1275 62.7529 46.5965 62.376 44.7715C61.9595 42.8672 63.8437 42.3316 64.3792 42.4704C64.7958 42.5895 67.7312 47.6082 68.5444 48.9968C71.2815 53.5791 70.1113 55.7215 68.7031 57.1696C67.275 58.6177 65.6685 58.0226 64.0817 56.4753Z" fill="#D3766A"/>
<path d="M64.3983 60.7997L68.5436 56.6935L65.1916 50.2862L64.3983 49.4927L57.9324 43.9185C57.9324 43.9185 54.3424 40.9628 50.8913 44.0177C48.6104 46.0212 50.6533 44.2359 50.6533 44.2359C47.698 47.1718 50.5938 50.5639 50.5938 50.5639L58.1109 59.5302C59.8166 61.3353 62.4942 62.6644 64.3983 60.7997Z" fill="#D3766A"/>
<path d="M70.2301 51.0801L61.0866 60.939C60.3726 61.5143 60.3131 62.5458 60.9676 63.2004L85.8395 84.9417C88.6361 87.2626 91.2938 87.818 94.2094 86.7667L125.547 76.7093C125.547 76.7093 135.603 72.3254 132.588 64.4502C130.089 57.9238 124.198 58.1619 119.676 59.8877C116.086 61.2564 101.508 67.3067 95.7367 69.7069C94.2888 70.302 92.6227 70.064 91.4327 69.0721L70.2301 51.0801Z" fill="#02A397"/>
<path d="M90.4807 120.072L75.6845 160.123C73.84 164.507 74.197 169.545 76.6762 173.612L94.4673 206.422L111.366 203.169C113.27 202.098 115.848 197.674 113.944 194.599L100.894 169.03C99.6639 167.046 99.9217 165.082 101.092 163.059L123.901 123.167L90.4807 120.072Z" fill="#68492A"/>
<path d="M146.312 65.6996L145.439 55.3844L152.202 35.9046L138.973 31.3223L133.023 48.4217C132.229 50.6831 132.13 50.8814 130.266 52.389L120.15 60.5222C117.711 62.486 113.923 66.9295 111.483 73.9517L97.2422 110.928L127.192 126.242L144.983 75.0428C146.014 72.0276 146.47 68.8537 146.312 65.6996Z" fill="#D3766A"/>
<path d="M129.276 126.996C130.863 119.636 111.009 116.443 105.178 115.828L61.4436 109.42C55.2752 108.766 51.4274 110.63 46.9052 114.876L22.6879 137.192C18.4037 140.505 17.6302 143.044 18.7607 146.615C18.8797 146.991 20.7045 158.616 20.7045 158.616C21.4383 160.937 24.6514 162.94 26.1192 161.889L53.8471 138.105C58.2106 133.879 58.885 134.018 64.26 134.593L99.1084 143.976C107.935 146.178 119.974 148.479 124.516 137.787L129.276 126.996Z" fill="#9B6A45"/>
<path d="M106.545 75.5787L93.1972 114.023C92.5427 115.947 92.4633 116.383 94.3674 117.058L126.082 135.823C127.986 136.478 128.422 136.161 129.077 134.236L147.146 80.6371C151.37 68.973 145.42 55.3848 145.42 55.3848C145.42 55.3848 137.903 58.1619 133.698 58.1619C129.513 58.1619 126.181 55.4046 126.181 55.4046C126.181 55.4046 108.787 69.1317 106.545 75.5787Z" fill="#00BEB7"/>
<path d="M132.191 132.173C131.338 134.553 132.449 135.367 133.202 135.644L146.471 140.465L154.226 114.26C155.377 109.658 155.377 104.858 154.563 100.176L149.446 73.1581C149.446 73.1581 147.265 61.7123 138.696 63.2199C131.536 64.4696 130.624 70.5397 131.496 75.4592C132.151 79.2282 135.047 94.0662 136.812 101.307C137.387 103.647 137.447 106.087 136.931 108.448L132.191 132.173Z" fill="#12DDCE"/>
<path d="M141.294 8.88698L130.563 5.41553L122.669 33.5442C120.27 41.5782 123.126 43.9785 125.486 44.8711C130.405 46.7358 136.91 45.9621 140.262 45.3472C146.768 44.157 150.021 34.9328 150.358 34.2187L158.807 16.5837L141.294 8.88698Z" fill="#D3766A"/>
<path d="M134.848 0.138832C131.079 -0.93236 128.957 4.44344 132.408 7.73636C134.153 9.40266 138.914 13.6279 138.914 13.6279C141.135 15.4926 140.362 17.4961 139.905 18.7458L136.91 26.7203C136.514 27.7716 136.772 28.7635 138.497 28.8031C139.667 28.823 140.877 27.5534 141.611 26.5616C141.611 26.5616 142.761 26.1648 144.07 26.6608L146.034 27.3947C147.422 27.9105 147.799 27.732 147.66 29.1602L146.768 37.6702C146.51 41.4393 148.097 43.5221 149.406 44.018L150.417 44.3949C153.928 40.5466 159.343 34.536 161.306 32.354C167.514 25.5301 170.033 8.15294 150.12 3.92768L134.848 0.138832Z" fill="#442308"/>
<path d="M145.699 25.7481C142.386 24.4984 140.839 27.5334 140.839 27.5334L138.34 34.159C138.34 34.159 137.963 35.6467 139.114 36.3807C140.839 37.4717 142.267 36.1427 143.795 34.6549C143.874 34.5755 145.957 32.3141 146.076 32.1753C147.841 30.2511 148.813 26.9185 145.699 25.7481Z" fill="#D3766A"/>
<path d="M87.2863 217.115C85.1839 220.368 85.8781 223.681 87.5045 226.021L93.7125 221.677C94.0894 221.419 96.7075 219.455 97.0645 219.178C96.9455 218.999 96.8463 218.841 96.7075 218.642C94.3274 215.25 89.0119 215.905 87.2863 217.115Z" fill="#417293"/>
<path d="M114.042 192.854L110.274 199.777C108.865 201.682 107.517 202.118 106.505 202.574C105.573 203.011 103.49 203.328 102.479 203.249C100.872 203.13 96.5682 201.761 95.8938 201.503C93.5931 200.61 92.9981 200.432 91.4907 200.829C89.9833 201.245 89.8246 202.753 90.5982 203.864C92.2047 206.165 95.517 207.99 94.4063 209.339L86.4529 216.777C81.534 221.34 84.2116 225.704 85.6793 227.807L86.4727 228.918C87.4644 230.346 88.1387 230.881 89.6263 229.85L103.094 219.138C104.641 218.047 116.422 209.557 116.422 209.557L122.075 204.875C123.225 204.082 121.698 201.682 121.063 200.769L115.867 194.044C115.173 193.251 114.201 192.576 114.042 192.854Z" fill="#245983"/>
<path d="M85.4414 227.47L85.5207 227.569C87.6231 230.564 87.9802 231.02 89.6462 229.85L121.678 205.788C122.948 204.558 123.225 203.705 122.174 202.217L121.024 200.67L85.4414 227.47Z" fill="#B5B5B5"/>
<path d="M99.1475 207.91C99.5243 207.95 99.8813 207.692 99.9408 207.315C100.02 206.938 99.7822 206.561 99.4053 206.522C98.6516 206.422 97.4219 206.323 96.2517 206.462C95.2997 206.581 94.6848 206.938 94.308 207.256C94.0303 207.494 94.1493 207.93 94.4667 208.109C94.8237 208.307 95.2799 208.228 95.6567 208.049C95.855 207.97 96.0931 207.89 96.4104 207.851C97.4021 207.751 98.4731 207.831 99.1475 207.91Z" fill="#ED5E0F"/>
<path d="M98.1562 210.39C98.533 210.489 98.9099 210.311 99.0289 209.934C99.1677 209.577 98.9892 209.16 98.6322 209.061C97.9182 208.843 96.7083 208.545 95.5182 208.486C94.7249 208.446 94.1299 208.624 93.7133 208.823C93.277 209.041 93.3167 209.656 93.6935 209.953C93.9117 210.132 94.2092 210.112 94.467 210.013C94.6852 209.934 95.0224 209.874 95.4587 209.874C96.4504 209.934 97.5016 210.192 98.1562 210.39Z" fill="#ED5E0F"/>
<path d="M12.9887 129.514C10.6086 126.46 7.23679 126.023 4.51953 126.797L6.58227 134.077C6.70127 134.513 7.69298 137.628 7.85165 138.084C8.04999 138.025 8.22849 137.965 8.4665 137.905C12.4333 136.775 13.544 131.538 12.9887 129.514Z" fill="#417293"/>
<path d="M27.0745 162.186L21.7986 156.929C20.4499 154.966 20.4896 153.557 20.3904 152.446C20.2912 151.435 20.6879 149.352 21.0846 148.419C21.7391 146.932 23.5638 142.806 23.9804 142.21C25.5076 139.909 26.2018 137.489 26.2414 137.291C26.6183 135.704 24.7936 135.267 23.6233 136.001C21.2433 137.489 18.9028 140.286 18.0103 138.779L13.5873 128.821C11.3263 124.635 5.89173 123.762 3.43231 124.476L2.10343 124.853C0.43737 125.329 -0.296489 125.766 0.199362 127.531L5.89173 143.778C6.40741 145.603 10.5726 159.528 10.5726 159.528L13.1113 166.411C13.4882 167.76 16.2451 167.106 17.3161 166.808L25.3687 164.13C26.3406 163.714 27.2728 162.424 27.0745 162.186Z" fill="#3086B2"/>
<path d="M3.82544 124.358L3.70644 124.398C0.175983 125.409 -0.359536 125.568 0.195817 127.532L12.3739 165.718C13.1276 167.325 13.8218 167.86 15.587 167.364L17.4118 166.789L3.82544 124.358Z" fill="#D6D6D6"/>
<path d="M17.7687 143.758C17.61 144.095 17.729 144.512 18.0662 144.71C18.4034 144.889 18.8199 144.789 18.9984 144.452C19.3356 143.778 19.8314 142.627 20.0893 141.497C20.3074 140.544 20.1686 139.85 19.9901 139.414C19.8512 139.076 19.4149 139.057 19.1372 139.295C18.8199 139.572 18.7604 140.009 18.8 140.425C18.8199 140.644 18.8 140.901 18.7405 141.199C18.5025 142.151 18.0662 143.143 17.7687 143.758Z" fill="#ED5E0F"/>
<path d="M15.7639 141.992C15.5457 142.31 15.6052 142.726 15.9027 142.984C16.2002 143.222 16.6366 143.202 16.8548 142.885C17.2911 142.27 17.9853 141.238 18.4217 140.128C18.7192 139.374 18.7588 138.759 18.6993 138.303C18.6398 137.807 18.0448 137.648 17.6283 137.906C17.3903 138.065 17.3109 138.342 17.3109 138.62C17.3109 138.858 17.2713 139.195 17.1126 139.592C16.7556 140.524 16.1606 141.437 15.7639 141.992Z" fill="#ED5E0F"/>
</g>
<defs>
<clipPath id="clip0_541_1416">
<rect width="576" height="270" fill="white"/>
</clipPath>
</defs>
</svg>
