<svg width="77" height="26" viewBox="0 0 77 26" fill="none" xmlns="http://www.w3.org/2000/svg">
<g clip-path="url(#clip0_52_2559)">
<path d="M16.3203 5.72912H19.5679V7.59795C19.9193 6.86133 20.3868 6.30205 20.9697 5.9201C21.5526 5.53814 22.191 5.34717 22.885 5.34717C23.3751 5.34717 23.8887 5.4749 24.4255 5.72912L23.2458 8.93479C22.8017 8.71653 22.4358 8.6074 22.1494 8.6074C21.5665 8.6074 21.0738 8.96207 20.6713 9.67141C20.2688 10.3807 20.0676 11.7721 20.0676 13.8456L20.0815 14.5686V20.5707H16.3203V5.72912Z" fill="white"/>
<path d="M34.5288 5.34717C35.9533 5.34717 37.2926 5.6975 38.5467 6.39754C39.8002 7.09757 40.7787 8.04811 41.4821 9.24853C42.1848 10.449 42.5368 11.7449 42.5368 13.1363C42.5368 14.537 42.1829 15.8465 41.4751 17.0649C40.7673 18.2839 39.8027 19.2363 38.5814 19.9227C37.3601 20.6091 36.0138 20.9526 34.5427 20.9526C32.3776 20.9526 30.5292 20.1955 28.9981 18.6814C27.4664 17.1672 26.7012 15.3281 26.7012 13.1635C26.7012 10.8445 27.5661 8.91246 29.2965 7.36606C30.8137 6.01992 32.558 5.34717 34.5288 5.34717ZM34.5912 8.85294C33.4141 8.85294 32.4337 9.25535 31.6508 10.0602C30.8673 10.865 30.4762 11.8949 30.4762 13.1499C30.4762 14.4415 30.8629 15.4875 31.637 16.2874C32.411 17.0878 33.3907 17.4878 34.5774 17.4878C35.7634 17.4878 36.7507 17.0835 37.5386 16.2737C38.3265 15.4645 38.7202 14.4235 38.7202 13.1499C38.7202 11.8769 38.3328 10.8427 37.5594 10.0465C36.7854 9.25101 35.7962 8.85294 34.5912 8.85294Z" fill="white"/>
<path d="M46.3516 0H50.1405V20.5708H46.3516V0Z" fill="white"/>
<path d="M54.3027 0H58.0916V20.5708H54.3027V0Z" fill="white"/>
<path d="M60.9961 5.729H64.8683L68.7903 15.0416L73.1186 5.729H77.0015L67.5444 25.9997H63.6312L66.7362 19.4631L60.9961 5.729Z" fill="white"/>
<path d="M11.9219 11.6702C11.3478 10.8108 10.4412 10.0946 9.20162 9.52167C9.94161 8.97603 10.4759 8.39194 10.8046 7.76879C11.1327 7.14625 11.2973 6.45242 11.2973 5.68851C11.2973 4.51538 10.9358 3.49725 10.2135 2.6329C9.49118 1.76917 8.51841 1.17826 7.29519 0.859552C6.43344 0.623313 5.07206 0.504883 3.20978 0.504883H0V4.14707H3.88605H4.62794H4.88911C5.78051 4.14707 6.4448 4.33122 6.88135 4.69953C7.3179 5.06784 7.53617 5.56574 7.53617 6.19324C7.53617 6.86661 7.30654 7.39862 6.84665 7.78925C6.38676 8.1805 5.68336 8.37582 4.73581 8.37582H4.62794H3.88605H0V20.571H5.72436C7.37278 20.571 8.6654 20.3416 9.60032 19.8821C10.5359 19.4233 11.2998 18.7294 11.8928 17.8018C12.4858 16.8742 12.7823 15.8468 12.7823 14.7189C12.7823 13.5458 12.4953 12.5295 11.9219 11.6702ZM8.1235 16.3286C7.56204 16.7292 6.47445 16.9288 4.86009 16.9288H3.88605V11.7861H4.69292C6.22337 11.7861 7.31853 12.0366 7.97714 12.5364C8.63575 13.0367 8.96505 13.7188 8.96505 14.5825C8.96568 15.3464 8.68495 15.928 8.1235 16.3286Z" fill="#FBC02D"/>
</g>
<defs>
<clipPath id="clip0_52_2559">
<rect width="77" height="26" fill="white"/>
</clipPath>
</defs>
</svg>
