<svg width="200" height="200" viewBox="0 0 200 200" fill="none" xmlns="http://www.w3.org/2000/svg">
<path d="M97.9525 28.228H95.3965V28.64H97.9525V28.228Z" fill="#FBC02D"/>
<path d="M131.04 44.5346L130.73 51.3996L131.142 51.4181L131.451 44.5531L131.04 44.5346Z" fill="#FBC02D"/>
<path d="M130.244 30.076H83.0443L78.6523 128.364H125.852L130.244 30.076Z" fill="#FBC02D"/>
<path opacity="0.56" d="M128.836 31.428H81.6361L77.2441 129.716H124.444L128.836 31.428Z" fill="#FAFAFA"/>
<path opacity="0.07" d="M127.428 32.776H80.228L75.832 131.064H123.032L127.428 32.776Z" fill="#FBC02D"/>
<path d="M122.056 75.644H81.7676L81.4316 83.164H121.72L122.056 75.644Z" fill="white"/>
<path d="M103.923 70.1559H82.0113L81.8633 73.5199H103.775L103.923 70.1559Z" fill="#FBC02D"/>
<path d="M121.147 95.94H80.8594L80.5234 103.46H120.811L121.147 95.94Z" fill="white"/>
<path opacity="0.47" d="M113.76 113.616H86.6677L86.2637 122.628H113.356L113.76 113.616Z" fill="#FBC02D"/>
<path d="M111.947 124.028H84.8554C84.8436 124.031 84.8312 124.031 84.8194 124.028C84.8154 124.016 84.8154 124.004 84.8194 123.992L85.2194 114.976C85.2194 114.97 85.2206 114.964 85.2231 114.958C85.2255 114.953 85.2291 114.948 85.2336 114.943C85.2382 114.939 85.2435 114.936 85.2493 114.934C85.2551 114.932 85.2613 114.931 85.2674 114.932H112.359C112.364 114.93 112.37 114.928 112.375 114.928C112.381 114.928 112.386 114.93 112.391 114.932C112.394 114.937 112.396 114.942 112.396 114.948C112.396 114.954 112.394 114.959 112.391 114.964L111.999 124C111.995 124.009 111.987 124.017 111.978 124.022C111.968 124.027 111.958 124.029 111.947 124.028ZM84.9034 123.932H111.899L112.299 115.012H85.3034L84.9034 123.932Z" fill="white"/>
<path d="M99.1911 90.452H81.1031L80.9551 93.82H99.0391L99.1911 90.452Z" fill="#FBC02D"/>
<path d="M113.244 51.3519C113.141 53.5405 112.363 55.6434 111.016 57.3719C110.02 58.6776 108.737 59.7376 107.267 60.4705C105.797 61.2034 104.179 61.5898 102.536 61.5999C101.209 61.6101 99.8937 61.3483 98.6714 60.8309C97.4491 60.3134 96.3456 59.5511 95.429 58.5911C94.5124 57.631 93.8021 56.4934 93.3417 55.2484C92.8814 54.0034 92.6809 52.6774 92.7524 51.3519C92.8931 48.6015 94.0792 46.0088 96.0681 44.1039C98.057 42.199 100.699 41.1258 103.452 41.1039C104.781 41.0916 106.098 41.3517 107.321 41.8683C108.545 42.3848 109.65 43.1469 110.568 44.1073C111.485 45.0678 112.196 46.2062 112.657 47.4523C113.117 48.6983 113.317 50.0255 113.244 51.3519Z" fill="white"/>
<path d="M114.209 43.2479C114.183 43.8299 113.976 44.3892 113.617 44.8479C113.351 45.1947 113.01 45.4763 112.619 45.6711C112.228 45.8658 111.797 45.9688 111.361 45.9719C110.937 45.9745 110.52 45.8734 110.145 45.6775C109.77 45.4816 109.448 45.1967 109.209 44.8479C108.891 44.3766 108.734 43.8156 108.761 43.2479C108.799 42.5177 109.115 41.8297 109.644 41.3243C110.172 40.8189 110.873 40.534 111.605 40.5279C111.957 40.5247 112.307 40.5938 112.632 40.7308C112.957 40.8679 113.251 41.0701 113.495 41.3249C113.739 41.5797 113.928 41.8818 114.051 42.2125C114.174 42.5433 114.227 42.8956 114.209 43.2479Z" fill="#FBC02D"/>
<path d="M86.1069 79.404C86.0877 79.7263 85.947 80.0293 85.7132 80.252C85.4794 80.4747 85.1698 80.6005 84.8469 80.604C84.691 80.6058 84.5364 80.5757 84.3926 80.5154C84.2488 80.4551 84.119 80.366 84.011 80.2535C83.903 80.1411 83.8192 80.0076 83.7649 79.8615C83.7105 79.7154 83.6867 79.5597 83.6949 79.404C83.7123 79.081 83.8524 78.7768 84.0866 78.5537C84.3209 78.3307 84.6315 78.2055 84.9549 78.204C85.1107 78.2027 85.265 78.2332 85.4085 78.2937C85.5521 78.3542 85.6817 78.4433 85.7896 78.5557C85.8974 78.668 85.9812 78.8012 86.0358 78.9471C86.0904 79.0929 86.1146 79.2484 86.1069 79.404Z" fill="#263238"/>
<path d="M91.4994 79.4039C91.4811 79.7266 91.3407 80.0302 91.1067 80.2531C90.8727 80.476 90.5626 80.6014 90.2394 80.6039C90.0839 80.6052 89.9297 80.5747 89.7864 80.5142C89.643 80.4537 89.5136 80.3644 89.4061 80.252C89.2986 80.1396 89.2152 80.0064 89.161 79.8605C89.1069 79.7147 89.0832 79.5593 89.0914 79.4039C89.1087 79.0816 89.2483 78.7781 89.4817 78.5551C89.715 78.3321 90.0247 78.2065 90.3474 78.2039C90.5033 78.2021 90.6579 78.2322 90.8017 78.2925C90.9455 78.3528 91.0754 78.4419 91.1834 78.5544C91.2914 78.6668 91.3751 78.8003 91.4295 78.9464C91.4838 79.0925 91.5076 79.2482 91.4994 79.4039Z" fill="#263238"/>
<path d="M96.8958 79.4039C96.8775 79.7266 96.7371 80.0302 96.5031 80.2531C96.269 80.476 95.959 80.6014 95.6358 80.6039C95.4801 80.6052 95.3257 80.5747 95.1822 80.5142C95.0387 80.4537 94.909 80.3646 94.8012 80.2522C94.6933 80.1399 94.6095 80.0067 94.5549 79.8608C94.5004 79.715 94.4762 79.5595 94.4838 79.4039C94.5021 79.0813 94.6425 78.7777 94.8765 78.5548C95.1105 78.3319 95.4206 78.2065 95.7438 78.2039C95.8997 78.2021 96.0543 78.2322 96.1981 78.2925C96.3419 78.3528 96.4718 78.4419 96.5798 78.5544C96.6877 78.6668 96.7715 78.8003 96.8258 78.9464C96.8802 79.0925 96.904 79.2482 96.8958 79.4039Z" fill="#263238"/>
<path d="M85.2005 99.7C85.1813 100.022 85.0406 100.325 84.8067 100.548C84.5729 100.771 84.2634 100.896 83.9405 100.9C83.7848 100.901 83.6304 100.871 83.4869 100.81C83.3434 100.75 83.2137 100.661 83.1058 100.548C82.998 100.436 82.9142 100.303 82.8596 100.157C82.8051 100.011 82.7809 99.8555 82.7885 99.7C82.8068 99.3773 82.9472 99.0737 83.1812 98.8508C83.4152 98.628 83.7253 98.5025 84.0485 98.5C84.2042 98.4987 84.3586 98.5292 84.5021 98.5897C84.6456 98.6502 84.7753 98.7393 84.8831 98.8517C84.991 98.964 85.0748 99.0972 85.1293 99.2431C85.1839 99.389 85.2081 99.5444 85.2005 99.7Z" fill="#263238"/>
<path d="M90.5912 99.7C90.573 100.022 90.4331 100.325 90.2 100.548C89.9668 100.771 89.6577 100.896 89.3352 100.9C89.1793 100.902 89.0247 100.872 88.8809 100.811C88.7371 100.751 88.6072 100.662 88.4993 100.55C88.3913 100.437 88.3075 100.304 88.2532 100.158C88.1988 100.011 88.175 99.8557 88.1832 99.7C88.2015 99.3773 88.3419 99.0737 88.5759 98.8508C88.81 98.628 89.1201 98.5025 89.4432 98.5C89.5988 98.4987 89.753 98.5292 89.8963 98.5897C90.0396 98.6503 90.169 98.7395 90.2766 98.8519C90.3841 98.9643 90.4675 99.0975 90.5216 99.2434C90.5757 99.3892 90.5994 99.5446 90.5912 99.7Z" fill="#263238"/>
<path d="M96.0011 99.7C95.9828 100.023 95.8424 100.326 95.6084 100.549C95.3743 100.772 95.0642 100.897 94.7411 100.9C94.5855 100.901 94.4314 100.87 94.2882 100.809C94.1449 100.748 94.0155 100.659 93.9077 100.547C93.8 100.435 93.7162 100.302 93.6614 100.156C93.6066 100.011 93.582 99.8554 93.5891 99.7C93.6083 99.3776 93.749 99.0746 93.9828 98.8519C94.2166 98.6292 94.5262 98.5034 94.8491 98.5C95.005 98.4981 95.1596 98.5282 95.3034 98.5885C95.4472 98.6488 95.5771 98.7379 95.685 98.8504C95.793 98.9629 95.8768 99.0963 95.9311 99.2424C95.9855 99.3885 96.0093 99.5443 96.0011 99.7Z" fill="#263238"/>
<path d="M101.384 99.7C101.365 100.022 101.224 100.325 100.99 100.548C100.756 100.771 100.447 100.896 100.124 100.9C99.9683 100.901 99.8142 100.87 99.671 100.809C99.5277 100.748 99.3983 100.659 99.2906 100.547C99.1828 100.435 99.099 100.302 99.0442 100.156C98.9895 100.011 98.9648 99.8554 98.9719 99.7C98.9911 99.3776 99.1318 99.0746 99.3656 98.8519C99.5994 98.6292 99.909 98.5035 100.232 98.5C100.388 98.4987 100.542 98.5292 100.685 98.5897C100.829 98.6502 100.959 98.7393 101.067 98.8517C101.174 98.964 101.258 99.0972 101.313 99.2431C101.367 99.3889 101.392 99.5444 101.384 99.7Z" fill="#263238"/>
<path d="M106.8 99.7C106.781 100.022 106.64 100.325 106.407 100.548C106.173 100.771 105.863 100.896 105.54 100.9C105.384 100.902 105.23 100.872 105.086 100.811C104.942 100.751 104.812 100.662 104.704 100.55C104.596 100.437 104.513 100.304 104.458 100.158C104.404 100.011 104.38 99.8557 104.388 99.7C104.407 99.3773 104.547 99.0737 104.781 98.8508C105.015 98.628 105.325 98.5025 105.648 98.5C105.804 98.4987 105.958 98.5292 106.102 98.5897C106.245 98.6502 106.375 98.7393 106.483 98.8517C106.591 98.964 106.675 99.0972 106.729 99.2431C106.784 99.389 106.808 99.5444 106.8 99.7Z" fill="#263238"/>
<path d="M105.983 50.8182C107.657 49.181 107.746 46.5567 106.181 44.9568C104.616 43.3568 101.991 43.387 100.317 45.0242C98.6424 46.6614 98.5535 49.2857 100.118 50.8857C101.683 52.4857 104.308 52.4555 105.983 50.8182Z" fill="#FBC02D"/>
<path d="M111.015 57.372C110.019 58.6776 108.736 59.7376 107.266 60.4705C105.796 61.2034 104.178 61.5898 102.535 61.6C100.943 61.6135 99.3711 61.2349 97.9592 60.4976C96.5473 59.7602 95.3385 58.6868 94.4395 57.372C96.3835 55.436 99.4595 54.172 102.867 54.172C106.275 54.172 109.243 55.436 111.015 57.372Z" fill="#FBC02D"/>
<path opacity="0.1" d="M105.983 50.8182C107.657 49.181 107.746 46.5567 106.181 44.9568C104.616 43.3568 101.991 43.387 100.317 45.0242C98.6424 46.6614 98.5535 49.2857 100.118 50.8857C101.683 52.4857 104.308 52.4555 105.983 50.8182Z" fill="white"/>
<path opacity="0.1" d="M111.015 57.372C110.019 58.6776 108.736 59.7376 107.266 60.4705C105.796 61.2034 104.178 61.5898 102.535 61.6C100.943 61.6135 99.3711 61.2349 97.9592 60.4976C96.5473 59.7602 95.3385 58.6868 94.4395 57.372C96.3835 55.436 99.4595 54.172 102.867 54.172C106.275 54.172 109.243 55.436 111.015 57.372Z" fill="white"/>
<path d="M52.1644 84.976C51.7843 85.808 51.3843 86.724 51.0363 87.612C50.6883 88.5 50.3323 89.416 50.0243 90.328C49.3955 92.1254 48.9165 93.9717 48.5923 95.848L48.5043 96.436C48.496 96.5369 48.5054 96.6385 48.5323 96.736C48.6267 97.0675 48.7754 97.3811 48.9723 97.664C49.486 98.3963 50.0819 99.0674 50.7483 99.664C51.451 100.318 52.188 100.933 52.9563 101.508C53.7243 102.1 54.5324 102.676 55.3284 103.22L54.5803 104.624C52.6796 103.796 50.8755 102.762 49.2003 101.54C48.3066 100.888 47.5001 100.125 46.8003 99.268C46.3856 98.7581 46.0621 98.1802 45.8443 97.56C45.7177 97.1726 45.6529 96.7676 45.6523 96.36C45.6523 96.264 45.6523 96.124 45.6523 96.056V95.86L45.6923 95.46C45.9217 93.376 46.3599 91.3204 47.0003 89.324C47.3123 88.34 47.6443 87.36 48.0243 86.404C48.4043 85.448 48.7963 84.512 49.2803 83.54L52.1644 84.976Z" fill="#E58A7B"/>
<path d="M54.7635 102.972L57.5915 101.54L56.8595 104.644C56.8595 104.644 54.9195 105.188 54.0195 104.244L54.7635 102.972Z" fill="#E58A7B"/>
<path d="M60.1794 102.048L59.4274 104.616L56.8594 104.644L57.5914 101.54L60.1794 102.048Z" fill="#E58A7B"/>
<path d="M64.1721 70C64.3233 70.5543 64.5339 71.0908 64.8001 71.6C64.7223 71.6882 64.6221 71.7537 64.5102 71.7896C64.3982 71.8255 64.2786 71.8305 64.1641 71.804L64.1721 70Z" fill="#DF5753"/>
<path d="M64.0871 70.024C64.2528 70.024 64.3871 69.8181 64.3871 69.564C64.3871 69.31 64.2528 69.104 64.0871 69.104C63.9214 69.104 63.7871 69.31 63.7871 69.564C63.7871 69.8181 63.9214 70.024 64.0871 70.024Z" fill="#263238"/>
<path d="M64 69.12L64.608 68.948C64.608 68.948 64.312 69.42 64 69.12Z" fill="#263238"/>
<path d="M56.3612 72.936C56.7252 74.796 57.0892 78.208 55.7852 79.452C55.7852 79.452 56.2972 81.34 59.7572 81.34C63.5612 81.34 61.5732 79.452 61.5732 79.452C59.4972 78.956 59.5492 77.416 59.9132 75.968L56.3612 72.936Z" fill="#E58A7B"/>
<path d="M55.348 68.6961C55.54 71.8041 55.556 73.1241 57.124 74.7201C59.488 77.1201 63.264 76.2081 64.004 73.1201C64.672 70.3201 64.248 65.7121 61.204 64.4761C60.5358 64.2008 59.8084 64.1005 59.0907 64.1848C58.373 64.269 57.6886 64.535 57.1023 64.9575C56.5161 65.3799 56.0473 65.945 55.7403 66.5992C55.4333 67.2534 55.2982 67.9751 55.348 68.6961Z" fill="#E58A7B"/>
<path d="M55.6552 65.2C54.0952 65.768 52.0152 65.344 52.8312 70.156C53.6952 75.252 52.3672 76.928 52.3672 76.928C52.3672 76.928 58.2832 78.188 64.3232 76.852C64.3232 76.852 62.4792 73.628 62.9952 71.252C63.6552 68.252 63.1352 67.144 63.1352 67.144C63.1352 67.144 57.8472 64.4 55.6552 65.2Z" fill="#263238"/>
<path d="M62.2559 70.316C62.2575 70.907 62.4267 71.4854 62.7439 71.984C63.1679 72.632 63.6679 72.384 63.7919 71.696C63.9039 71.092 63.8199 70.024 63.2799 69.608C62.7399 69.192 62.2639 69.6 62.2559 70.316Z" fill="#E58A7B"/>
<path d="M54.3006 65.724C53.8526 64.464 55.9886 62.524 60.5086 63.324C65.0286 64.124 65.2246 67.888 65.2246 67.888L64.3126 66.8L64.3526 67.944L59.7086 68.836L54.3006 65.724Z" fill="#263238"/>
<path d="M54.6832 79.664C54.6565 79.4814 54.7022 79.2956 54.8106 79.1461C54.9189 78.9967 55.0813 78.8955 55.2632 78.864C56.6712 78.632 59.8712 78.16 61.4792 78.384C62.6792 78.552 62.9912 79.248 63.0432 79.82C63.0514 79.9202 63.038 80.0209 63.0039 80.1155C62.9699 80.21 62.916 80.2962 62.8459 80.3682C62.7758 80.4402 62.6911 80.4964 62.5975 80.5329C62.5039 80.5694 62.4036 80.5855 62.3032 80.58L55.3512 80.268C55.1873 80.2598 55.0313 80.1951 54.9096 80.0851C54.7879 79.975 54.7079 79.8263 54.6832 79.664Z" fill="#FBC02D"/>
<path opacity="0.6" d="M54.6832 79.664C54.6565 79.4814 54.7022 79.2956 54.8106 79.1461C54.9189 78.9967 55.0813 78.8955 55.2632 78.864C56.6712 78.632 59.8712 78.16 61.4792 78.384C62.6792 78.552 62.9912 79.248 63.0432 79.82C63.0514 79.9202 63.038 80.0209 63.0039 80.1155C62.9699 80.21 62.916 80.2962 62.8459 80.3682C62.7758 80.4402 62.6911 80.4964 62.5975 80.5329C62.5039 80.5694 62.4036 80.5855 62.3032 80.58L55.3512 80.268C55.1873 80.2598 55.0313 80.1951 54.9096 80.0851C54.7879 79.975 54.7079 79.8263 54.6832 79.664Z" fill="black"/>
<path d="M58.7031 149.544L61.2831 151.336L65.5991 145.484L63.0191 143.696L58.7031 149.544Z" fill="#E58A7B"/>
<path d="M52.6875 149.428L55.4115 150.98L59.2315 144.792L56.5075 143.24L52.6875 149.428Z" fill="#E58A7B"/>
<path d="M65.595 145.484L63.371 148.5L60.791 146.712L63.015 143.696L65.595 145.484Z" fill="#CF6F64"/>
<path d="M56.5032 143.24L59.2312 144.796L57.2632 147.984L54.5352 146.428L56.5032 143.24Z" fill="#CF6F64"/>
<path d="M60.8796 99.2C60.8796 99.2 70.9516 111.892 69.0596 124.032C67.5356 133.836 58.6956 147.112 58.6956 147.112L54.5396 145.048C57.469 139.178 59.9689 133.104 62.0196 126.872C62.652 124.937 62.8366 122.884 62.5594 120.868C62.2823 118.851 61.5506 116.924 60.4196 115.232C55.3156 107.78 47.1396 112.216 52.6396 99.2H60.8796Z" fill="#FBC02D"/>
<path opacity="0.6" d="M60.8796 99.2C60.8796 99.2 70.9516 111.892 69.0596 124.032C67.5356 133.836 58.6956 147.112 58.6956 147.112L54.5396 145.048C57.469 139.178 59.9689 133.104 62.0196 126.872C62.652 124.937 62.8366 122.884 62.5594 120.868C62.2823 118.851 61.5506 116.924 60.4196 115.232C55.3156 107.78 47.1396 112.216 52.6396 99.2H60.8796Z" fill="black"/>
<path opacity="0.4" d="M65.8195 107.352L64.3555 105.896C64.3555 106.012 67.1915 123.52 67.9875 128.44C68.4572 127.003 68.8169 125.532 69.0635 124.04C69.9995 118.084 68.0435 112 65.8195 107.352Z" fill="black"/>
<path d="M65.3756 99.2C65.3756 99.2 77.5036 115.152 77.8476 124.716C78.1316 132.716 64.6476 148.216 64.6476 148.216L60.7276 145.68C60.7276 145.68 68.6196 134.672 70.6076 125.68C69.8396 116.768 53.5996 99.2 53.5996 99.2H65.3756Z" fill="#FBC02D"/>
<path opacity="0.6" d="M65.3756 99.2C65.3756 99.2 77.5036 115.152 77.8476 124.716C78.1316 132.716 64.6476 148.216 64.6476 148.216L60.7276 145.68C60.7276 145.68 68.6196 134.672 70.6076 125.68C69.8396 116.768 53.5996 99.2 53.5996 99.2H65.3756Z" fill="black"/>
<path d="M50.372 80.164C49.076 80.472 47.832 85.1841 47.832 85.1841L52.9 88.5681C52.9 88.5681 54.588 84.8401 53.996 83.2081C53.384 81.508 52 79.776 50.372 80.164Z" fill="#FBC02D"/>
<path opacity="0.2" d="M51.3637 83.2L51.0117 87.308L52.8957 88.572C53.4159 87.4009 53.8011 86.1743 54.0437 84.916L51.3637 83.2Z" fill="black"/>
<path d="M66.8751 80.256C66.8751 80.256 68.3711 80.78 65.3751 99.196H52.6311C52.8471 93.996 52.8511 90.796 50.3711 80.164C52.1555 79.7963 53.9643 79.5583 55.7831 79.452C57.71 79.3138 59.6442 79.3138 61.5711 79.452C64.0591 79.68 66.8751 80.256 66.8751 80.256Z" fill="#FBC02D"/>
<path d="M68.1726 83.2C68.4606 84 68.7646 84.86 69.0846 85.688C69.4046 86.516 69.7086 87.368 70.0326 88.208L71.0126 90.72L71.2606 91.348L71.3886 91.66L71.4486 91.816C71.4486 91.844 71.4486 91.844 71.4486 91.84C71.3755 91.737 71.2797 91.6521 71.1686 91.592C71.0104 91.4989 70.832 91.4454 70.6486 91.436C70.4963 91.4313 70.3447 91.4599 70.2046 91.52C70.0206 91.604 70.0206 91.64 70.0246 91.636C70.0579 91.6093 70.0875 91.5784 70.1126 91.544C70.334 91.2533 70.5257 90.9411 70.6846 90.612C70.8726 90.244 71.0526 89.852 71.2326 89.456C71.5846 88.656 71.9086 87.828 72.2326 86.992C72.5566 86.156 72.8646 85.312 73.1646 84.46L74.0766 81.908L75.6166 82.308C75.3126 84.132 74.9206 85.908 74.4486 87.716C74.2206 88.616 73.9526 89.508 73.6486 90.408C73.4966 90.86 73.3286 91.308 73.1366 91.768C72.9365 92.2673 72.6901 92.7467 72.4006 93.2C72.2942 93.3526 72.1766 93.497 72.0486 93.632C71.8444 93.8526 71.5965 94.0283 71.3206 94.148C71.0759 94.2531 70.8108 94.3023 70.5446 94.292C70.2465 94.2809 69.9561 94.1942 69.7006 94.04C69.3993 93.852 69.1492 93.5922 68.9726 93.284C68.9126 93.18 68.8606 93.076 68.8246 93L68.7486 92.848L68.5966 92.536L68.2926 91.916C67.8926 91.084 67.4926 90.244 67.1446 89.4C66.7966 88.556 66.4286 87.7 66.0846 86.84C65.7406 85.98 65.4326 85.12 65.1406 84.192L68.1726 83.2Z" fill="#E58A7B"/>
<path d="M66.8761 80.256C68.4081 80.62 70.1321 85.148 70.1321 85.148L65.5761 89.024C65.5761 89.024 62.6281 84.088 63.2241 82.46C63.8441 80.764 64.8761 79.78 66.8761 80.256Z" fill="#FBC02D"/>
<path d="M74.8012 80.476L76.4012 79.14L77.5132 80.872L76.6932 82.316C76.6932 82.316 75.3892 83.516 74.2371 82.904C74.0543 82.493 74.0104 82.0336 74.1122 81.5955C74.214 81.1573 74.4559 80.7643 74.8012 80.476Z" fill="#E58A7B"/>
<path d="M79.2867 79.144L79.1667 79.58L76.6347 80.004L76.3867 79.14L79.2867 79.144Z" fill="#E58A7B"/>
<path d="M64.9586 148.42L60.3906 145.468L61.2106 144.044L66.3426 147.2L64.9586 148.42Z" fill="#FBC02D"/>
<path d="M57.1998 150.772C56.799 150.723 56.4139 150.587 56.0718 150.372C56.0577 150.367 56.0454 150.358 56.0368 150.346C56.0281 150.334 56.0234 150.319 56.0234 150.304C56.0234 150.289 56.0281 150.275 56.0368 150.262C56.0454 150.25 56.0577 150.241 56.0718 150.236C56.1958 150.196 57.2718 149.864 57.5838 150.12C57.6189 150.149 57.6455 150.187 57.661 150.23C57.6764 150.273 57.6802 150.319 57.6718 150.364C57.6662 150.436 57.6424 150.505 57.6025 150.566C57.5626 150.626 57.5079 150.675 57.4438 150.708C57.3689 150.749 57.2851 150.771 57.1998 150.772ZM56.2998 150.332C56.7998 150.588 57.1998 150.68 57.3918 150.584C57.4336 150.561 57.4688 150.527 57.494 150.487C57.5192 150.446 57.5336 150.4 57.5358 150.352C57.5358 150.288 57.5358 150.26 57.4998 150.244C57.3318 150.108 56.7318 150.212 56.2918 150.332H56.2998Z" fill="#263238"/>
<path d="M56.1002 150.4C56.0791 150.4 56.059 150.391 56.0442 150.376C56.0383 150.365 56.0352 150.353 56.0352 150.34C56.0352 150.327 56.0383 150.315 56.0442 150.304C56.0442 150.268 56.3042 149.4 56.7122 149.204C56.7643 149.18 56.821 149.168 56.8782 149.168C56.9355 149.168 56.9921 149.18 57.0442 149.204C57.1004 149.222 57.149 149.258 57.1824 149.306C57.2157 149.355 57.2319 149.413 57.2282 149.472C57.2002 149.832 56.4682 150.328 56.1322 150.412L56.1002 150.4ZM56.8762 149.308C56.8373 149.309 56.7991 149.319 56.7642 149.336C56.5162 149.456 56.3122 149.924 56.2122 150.208C56.5642 150.06 57.0482 149.668 57.0642 149.448C57.0642 149.412 57.0642 149.368 56.9722 149.328C56.9423 149.312 56.9098 149.301 56.8762 149.296V149.308Z" fill="#263238"/>
<path d="M62.9082 152.5C62.4562 152.5 61.8282 151.92 61.4842 151.564C61.4754 151.552 61.4707 151.537 61.4707 151.522C61.4707 151.507 61.4754 151.492 61.4842 151.48C61.4921 151.467 61.5033 151.457 61.5167 151.45C61.5301 151.443 61.5451 151.439 61.5602 151.44C61.7202 151.44 63.1082 151.648 63.3042 152.04C63.325 152.075 63.3359 152.115 63.3359 152.156C63.3359 152.197 63.325 152.237 63.3042 152.272C63.2748 152.333 63.2304 152.386 63.1751 152.425C63.1199 152.464 63.0556 152.489 62.9882 152.496L62.9082 152.5ZM61.7482 151.62C62.2522 152.108 62.6962 152.38 62.9482 152.348C62.9923 152.342 63.0344 152.326 63.0707 152.3C63.1069 152.274 63.1363 152.24 63.1562 152.2C63.1652 152.186 63.1699 152.17 63.1699 152.154C63.1699 152.138 63.1652 152.122 63.1562 152.108C63.0522 151.892 62.3122 151.708 61.7482 151.62Z" fill="#263238"/>
<path d="M61.7921 151.6C61.7023 151.603 61.6125 151.596 61.5241 151.58C61.5117 151.578 61.5001 151.573 61.4903 151.565C61.4804 151.558 61.4728 151.548 61.4681 151.536C61.4621 151.524 61.459 151.511 61.459 151.498C61.459 151.485 61.4621 151.472 61.4681 151.46C61.4921 151.432 62.0321 150.78 62.5441 150.736C62.689 150.725 62.8326 150.771 62.9441 150.864C63.1001 151 63.0921 151.12 63.0521 151.196C62.9521 151.468 62.2601 151.6 61.7921 151.6ZM61.6881 151.452C62.1361 151.476 62.8521 151.328 62.9441 151.132C62.9441 151.132 62.9761 151.068 62.8721 150.98C62.8307 150.944 62.7823 150.917 62.73 150.9C62.6778 150.884 62.6226 150.878 62.5681 150.884C62.2232 150.98 61.9161 151.18 61.6881 151.456V151.452Z" fill="#263238"/>
<path d="M56.2073 149.968L52.8153 149.008C52.7568 148.99 52.6939 148.995 52.6385 149.021C52.5832 149.046 52.5393 149.092 52.5153 149.148L51.3713 151.72C51.3444 151.786 51.3318 151.857 51.3343 151.928C51.3368 151.999 51.3542 152.069 51.3856 152.133C51.417 152.196 51.4615 152.253 51.5162 152.298C51.571 152.344 51.6347 152.377 51.7033 152.396C52.9033 152.708 53.4793 152.796 54.9713 153.224C55.8913 153.48 57.2033 153.956 58.4713 154.316C59.7393 154.676 60.1633 153.44 59.6713 153.176C57.4473 152 57.2713 151.176 56.6633 150.296C56.5544 150.137 56.393 150.021 56.2073 149.968Z" fill="#FBC02D"/>
<path d="M61.5767 151.096L58.6807 149.096C58.6316 149.06 58.5711 149.044 58.5106 149.05C58.4501 149.056 58.394 149.083 58.3527 149.128L56.4327 151.192C56.3859 151.245 56.351 151.308 56.3303 151.376C56.3096 151.444 56.3036 151.515 56.3127 151.586C56.3218 151.656 56.3457 151.724 56.383 151.784C56.4202 151.844 56.4699 151.896 56.5287 151.936C57.5487 152.62 58.0767 152.896 59.3527 153.78C60.1527 154.324 61.7007 155.532 62.7807 156.284C63.8607 157.036 64.6647 156.004 64.2807 155.596C62.5607 153.76 62.1847 152.608 61.9007 151.564C61.8514 151.375 61.7366 151.209 61.5767 151.096Z" fill="#FBC02D"/>
<path d="M59.2278 147.376L54.0078 144.78L54.5478 143.364L60.1238 146.1L59.2278 147.376Z" fill="#FBC02D"/>
<path d="M52.4404 98.448L52.0004 99.6C51.9564 99.688 52.0604 99.78 52.2084 99.78H65.4404C65.5564 99.78 65.6524 99.724 65.6604 99.652L65.7724 98.508C65.7724 98.432 65.6804 98.364 65.5564 98.364H52.6484C52.6096 98.3604 52.5704 98.3661 52.5342 98.3807C52.498 98.3953 52.4658 98.4184 52.4404 98.448Z" fill="#FBC02D"/>
<path opacity="0.4" d="M52.4404 98.448L52.0004 99.6C51.9564 99.688 52.0604 99.78 52.2084 99.78H65.4404C65.5564 99.78 65.6524 99.724 65.6604 99.652L65.7724 98.508C65.7724 98.432 65.6804 98.364 65.5564 98.364H52.6484C52.6096 98.3604 52.5704 98.3661 52.5342 98.3807C52.498 98.3953 52.4658 98.4184 52.4404 98.448Z" fill="white"/>
<path d="M54.5248 99.892H54.1768C54.1088 99.892 54.0568 99.856 54.0608 99.812L54.2248 98.328C54.2248 98.288 54.2888 98.252 54.3568 98.252H54.7048C54.7728 98.252 54.8248 98.288 54.8208 98.328L54.6568 99.812C54.6528 99.856 54.5928 99.892 54.5248 99.892Z" fill="#FBC02D"/>
<path d="M62.6848 99.892H62.3408C62.2728 99.892 62.2208 99.856 62.2248 99.812L62.3848 98.328C62.3848 98.288 62.4528 98.252 62.5208 98.252H62.8648C62.9328 98.252 62.9888 98.288 62.9808 98.328L62.8208 99.812C62.8008 99.856 62.7568 99.892 62.6848 99.892Z" fill="#FBC02D"/>
<g style="mix-blend-mode:multiply">
<path d="M54.2199 167.632C60.1382 167.632 64.9359 167.285 64.9359 166.856C64.9359 166.428 60.1382 166.08 54.2199 166.08C48.3016 166.08 43.5039 166.428 43.5039 166.856C43.5039 167.285 48.3016 167.632 54.2199 167.632Z" fill="#F5F5F5"/>
</g>
<path d="M60.7487 165.76C58.8527 165.208 56.7488 164.5 55.4768 163.76C55.4408 163.736 55.4008 163.724 55.3648 163.704V155.12H59.2008C59.4919 155.103 59.7655 154.975 59.9656 154.763C60.1657 154.55 60.2771 154.27 60.2771 153.978C60.2771 153.686 60.1657 153.406 59.9656 153.193C59.7655 152.981 59.4919 152.853 59.2008 152.836H55.3848V113.708H53.0808V152.836H49.2688C49.1131 152.827 48.9572 152.85 48.8106 152.903C48.6641 152.956 48.5299 153.039 48.4165 153.146C48.303 153.252 48.2126 153.381 48.1508 153.525C48.089 153.668 48.0571 153.822 48.0571 153.978C48.0571 154.134 48.089 154.288 48.1508 154.431C48.2126 154.575 48.303 154.704 48.4165 154.811C48.5299 154.917 48.6641 155 48.8106 155.053C48.9572 155.107 49.1131 155.129 49.2688 155.12H53.0808V163.692C53.0448 163.692 53.0087 163.724 52.9727 163.748C51.6807 164.5 49.5928 165.208 47.6968 165.748C47.5687 165.787 47.4587 165.87 47.3867 165.983C47.3148 166.096 47.2856 166.231 47.3044 166.363C47.3233 166.495 47.3889 166.617 47.4895 166.705C47.5901 166.793 47.719 166.843 47.8528 166.844H60.5927C60.7206 166.835 60.8416 166.783 60.9356 166.696C61.0295 166.609 61.0907 166.492 61.109 166.365C61.1272 166.238 61.1014 166.109 61.0359 165.999C60.9703 165.889 60.869 165.804 60.7487 165.76Z" fill="#E0E0E0"/>
<path d="M61.3351 109.724H47.1111C45.9667 109.724 45.0391 110.652 45.0391 111.796V116.024C45.0391 117.168 45.9667 118.096 47.1111 118.096H61.3351C62.4794 118.096 63.4071 117.168 63.4071 116.024V111.796C63.4071 110.652 62.4794 109.724 61.3351 109.724Z" fill="#FBC02D"/>
<path d="M46.9805 118.1V118.828C46.9805 119.428 47.6325 119.916 48.4325 119.916H60.0325C60.8325 119.916 61.4845 119.428 61.4845 118.828V118.1H46.9805Z" fill="#FBC02D"/>
<path opacity="0.3" d="M46.9805 118.1V118.828C46.9805 119.428 47.6325 119.916 48.4325 119.916H60.0325C60.8325 119.916 61.4845 119.428 61.4845 118.828V118.1H46.9805Z" fill="white"/>
</svg>
