<svg width="383" height="347" viewBox="0 0 383 347" fill="none" xmlns="http://www.w3.org/2000/svg">
<g clip-path="url(#clip0_44_3159)">
<path d="M191.5 346.992C297.263 346.992 383 344.491 383 341.406C383 338.322 297.263 335.821 191.5 335.821C85.7375 335.821 0 338.322 0 341.406C0 344.491 85.7375 346.992 191.5 346.992Z" fill="#BED0DB"/>
<path d="M81.0006 123.792C78.4696 131.601 69.3335 138.22 64.0428 144.278C57.356 151.932 50.9632 159.821 44.8234 167.915C43.9253 169.079 42.9048 169.836 41.8434 170.251C40.3737 174.559 34.8382 179.37 32.7644 181.194C30.7559 182.953 27.588 186.853 24.5671 185.713C21.7993 184.679 22.0035 181.113 22.2076 178.695C22.5831 174.046 24.2079 169.698 26.7879 165.977C28.5025 163.526 30.8457 161.629 33.3849 160.074C39.9329 156.084 52.7349 132.602 54.4984 128.075C55.2006 126.887 55.8129 125.706 56.3191 124.501C58.1643 120.161 56.9233 115.357 56.2947 110.798C55.5762 105.579 54.7352 100.376 53.3391 95.2789C53.1513 94.6031 52.939 93.9273 52.7104 93.2515C60.924 91.2892 68.7946 87.9347 75.8815 83.3344C77.6532 87.951 79.0656 92.6897 80.0454 97.6157C81.6048 105.513 83.5562 115.919 81.0006 123.792Z" fill="#AD6359"/>
<path d="M79.0658 310.344C81.8336 320.261 83.1644 330.577 83.0175 340.869C68.2396 342.921 53.4046 344.663 38.4961 344.036C37.1244 343.979 35.7038 343.898 34.4954 343.246C33.2871 342.595 32.3645 341.211 32.6992 339.884C33.1401 338.141 35.2629 337.539 37.0183 337.115C50.7511 333.802 62.0998 322.167 65.0554 308.39C68.5417 309.994 75.2366 310.149 79.0658 310.344Z" fill="#16162B"/>
<path d="M64.4918 208.902C64.2714 208.951 64.1652 208.975 64.1652 208.975C64.1652 208.975 80.3311 275.333 81.4006 314.252L57.805 317.892L31.2375 212.737C28.1513 201.802 31.5641 190.037 40.0961 182.505C53.2819 170.838 75.1874 153.674 102.228 140.842L102.531 140.704L127.735 168.387C115.324 195.817 68.8109 207.827 64.4918 208.902Z" fill="#2E2E4C"/>
<path d="M62.8588 312.339C65.6266 322.256 66.9574 332.572 66.8104 342.864C52.0326 344.916 37.1975 346.658 22.289 346.031C20.9174 345.974 19.4967 345.893 18.2884 345.241C17.08 344.59 16.1574 343.206 16.4922 341.879C16.9331 340.136 19.0559 339.534 20.8112 339.11C34.544 335.797 45.8928 324.161 48.8484 310.385C52.3265 311.981 59.0214 312.144 62.8588 312.339Z" fill="#16162B"/>
<path d="M38.4717 42.0865C40.8149 45.3759 42.6274 49.0399 43.8276 52.8992C44.1542 53.8681 44.4155 54.8533 44.6441 55.8467V55.863C45.085 57.7438 45.3707 59.6653 45.5177 61.5787C51.6901 57.0598 58.7361 53.4285 65.9373 50.88C58.8913 43.8126 54.6375 33.8549 54.8661 23.9052C52.8495 27.5936 50.5226 30.9563 48.0079 34.319C47.4527 35.0436 46.8812 35.7275 46.277 36.3545C44.0889 38.6343 41.4926 40.4174 38.6595 41.9807C38.6105 42.0132 38.5288 42.0458 38.4717 42.0865Z" fill="#AD6359"/>
<path d="M122.574 124.533C115.814 113.875 112.458 101.491 108.327 89.555C104.212 77.6268 98.9539 65.5765 89.483 57.1983C82.0125 50.5869 72.166 46.8089 62.2052 46.4995C59.764 46.4263 57.3636 46.5565 54.9469 46.8985C52.2445 51.4581 47.5906 54.2101 45.1005 58.8837C44.8882 60.1945 44.7167 61.5054 44.6432 62.8326C42.0306 97.5016 81.294 136.274 85.9968 140.818C98.3089 135.859 110.825 130.656 122.574 124.533Z" fill="#CFD8DC"/>
<path d="M44.6436 62.8408C47.8767 73.9629 61.683 47.4929 62.2056 46.5077C59.7807 46.4263 57.3721 46.5647 54.9636 46.9067C52.2529 51.4662 47.5991 54.2101 45.1089 58.8918C44.8885 60.2027 44.7252 61.5217 44.6436 62.8408Z" fill="#AD6359"/>
<path d="M38.4717 42.0865C40.8149 45.376 42.6274 49.0399 43.8276 52.8993C53.9599 43.8941 52.972 33.806 52.972 33.806L46.2852 36.3545C44.0971 38.6343 41.5007 40.4174 38.6676 41.9807C38.6105 42.0133 38.5288 42.0458 38.4717 42.0865Z" fill="#86472F"/>
<path d="M32.576 12.6528C30.8859 21.6173 30.0613 30.7364 30.1266 39.8556C30.143 42.4773 30.4369 45.4899 32.5923 46.9881C34.9764 48.6491 38.2749 47.501 40.7569 45.9784C46.4476 42.4773 50.9871 38.8134 53.5508 32.658C56.1145 26.5025 56.6697 17.8801 55.1347 11.3908C47.0845 10.9593 40.561 11.5537 32.576 12.6528Z" fill="#AD6359"/>
<path d="M49.355 23.7668C49.7061 22.6839 51.1104 22.1872 52.1636 22.6025C53.225 23.0177 53.8945 24.1332 54.0252 25.2568C54.164 26.3804 53.8455 27.5203 53.4128 28.5625C53.0536 29.4337 52.5882 30.2805 51.8697 30.8911C51.1512 31.5018 50.1388 31.8275 49.2407 31.5425C50.1878 35.9474 54.1558 39.9289 58.63 40.5395C56.6133 36.3056 57.6911 31.4855 59.1525 27.0318C60.614 22.5699 62.5245 18.0755 62.2224 13.3938C62.1081 11.5862 61.6019 9.71353 60.3445 8.40265C59.0872 7.09177 56.9236 6.53811 55.3886 7.49887C55.4131 4.84455 53.0046 2.49148 50.5634 1.43301C48.1222 0.374537 45.3789 0.317542 42.7091 0.268689C37.5327 0.187268 32.3564 0.0895631 27.1882 0C26.8453 2.68689 26.5677 4.94226 27.0576 7.60472C27.5475 10.2672 29.0089 12.8971 31.4338 14.1184C33.5403 15.1769 36.0304 15.0466 38.39 14.8919C41.4027 14.6883 44.4155 14.4848 47.42 14.2812C46.375 17.3182 47.3384 21.2509 49.355 23.7668Z" fill="#263238"/>
<path d="M122.575 124.533C122.575 124.533 172.844 182.09 47.9259 208.975C47.9259 208.975 64.9163 278.191 65.2348 317.175L42.2433 320.302L14.9981 212.737C11.9283 201.794 15.3329 190.037 23.8567 182.497C37.0425 170.838 58.9562 153.666 85.9973 140.834L122.575 124.533Z" fill="#3E3E63"/>
<path d="M90.12 120.479C87.1889 128.149 77.718 134.28 72.1171 140.06C65.0384 147.356 58.2455 154.912 51.6894 162.671C50.7341 163.786 49.6727 164.495 48.595 164.853C46.9049 169.079 41.1244 173.598 38.9608 175.316C36.8625 176.969 33.4987 180.706 30.535 179.403C27.8243 178.222 28.2162 174.672 28.5428 172.271C29.1551 167.646 31.0085 163.388 33.7845 159.813C35.6215 157.452 38.0627 155.677 40.6835 154.26C47.4356 150.621 61.4379 127.831 63.43 123.402C64.1893 122.254 64.867 121.106 65.4385 119.925C67.5041 115.683 66.5162 110.822 66.1243 106.238C65.6753 100.986 65.1037 95.743 63.9852 90.5809C63.8382 89.8969 63.6586 89.2049 63.4627 88.5209C71.766 86.9821 79.8081 84.0428 87.1236 79.817C88.6504 84.515 89.8179 89.327 90.5364 94.2937C91.6794 102.257 93.0837 112.752 90.12 120.479Z" fill="#AD6359"/>
<path d="M87.6712 195.842C74.9834 201.908 60.8097 204.391 47.2076 207.615C45.8033 207.949 46.3993 210.107 47.8036 209.773C61.6344 206.492 75.906 203.943 88.806 197.772C90.1042 197.153 88.9693 195.223 87.6712 195.842Z" fill="#16162B"/>
<path d="M83.817 64.2005C83.2536 62.8815 81.3186 64.0213 81.882 65.3322C85.2295 73.1568 87.4421 81.2745 88.6178 89.6934C88.8137 91.1101 90.9773 90.5076 90.7814 89.099C89.5812 80.4521 87.2461 72.2204 83.817 64.2005Z" fill="#B5CBD5"/>
<path d="M63.8305 80.8511C63.4794 79.4588 61.3077 80.045 61.6669 81.4454C62.9732 86.5912 63.8305 91.794 64.2224 97.0864C64.3286 98.5113 66.5738 98.5276 66.4677 97.0864C66.0595 91.5905 65.194 86.1923 63.8305 80.8511Z" fill="#B5CBD5"/>
<path d="M30.8614 24.4426L27.8242 32.7068L32.576 33.806L30.8614 24.4426Z" fill="#AD6359"/>
<path d="M39.5084 21.7883C38.0632 21.1043 36.5691 20.5507 35.0097 20.168C33.7115 19.8504 33.1645 21.8452 34.4545 22.1628C35.8343 22.5048 37.1733 22.9607 38.4551 23.5714C39.6635 24.1495 40.7167 22.3663 39.5084 21.7883Z" fill="#86472F"/>
<path d="M35.2629 25.8023C35.5323 25.6069 35.9895 25.7616 36.1365 26.0384C36.4467 26.6328 36.4222 27.39 36.1038 27.9844C35.9405 28.2856 35.516 28.3752 35.222 28.2042C35.0914 28.1228 35.0016 28.0088 34.9526 27.8704C34.6015 27.2516 34.6832 26.2257 35.2629 25.8023Z" fill="#343256"/>
<path d="M216.018 87.2589L199.501 172.783C198.823 176.293 201.126 179.696 204.653 180.372C208.172 181.048 211.576 178.752 212.262 175.234L228.779 89.7096C229.457 86.2004 227.154 82.797 223.627 82.1212C220.1 81.4454 216.696 83.7496 216.018 87.2589Z" fill="#F9BF87"/>
<path d="M217.251 337.034C209.495 299.255 201.73 261.467 193.974 223.688C193.116 219.511 186.707 221.278 187.565 225.455C190.7 240.737 193.843 256.012 196.978 271.295C172.517 271.295 148.064 271.295 123.603 271.295C126.738 256.012 129.882 240.737 133.017 225.455C133.874 221.286 127.465 219.503 126.608 223.688C118.852 261.467 111.087 299.255 103.331 337.034C102.473 341.203 108.883 342.986 109.74 338.801C113.904 318.511 118.076 298.213 122.24 277.922C147.607 277.922 172.974 277.922 198.334 277.922C202.498 298.213 206.67 318.511 210.834 338.801C211.699 342.978 218.108 341.211 217.251 337.034Z" fill="#3E3E63"/>
<path d="M109.486 225.789C139.156 225.789 168.949 226.627 198.611 225.789C212.597 225.398 213.683 214.096 215.781 203.341C219.349 185.021 222.909 166.701 226.477 148.382C229.22 134.296 236.282 97.412 239.025 83.3262C240.111 77.7652 231.563 75.3877 230.477 80.9731C224.786 110.195 214.777 162.215 209.094 191.437C207.935 197.381 206.784 203.324 205.624 209.268C204.84 213.315 203.959 216.393 199.003 216.946C193.647 217.549 187.874 216.946 182.486 216.946C173.26 216.946 164.026 216.946 154.8 216.946C139.695 216.946 124.591 216.946 109.495 216.946C103.779 216.946 103.771 225.789 109.486 225.789Z" fill="#5E5E99"/>
<path d="M197.575 204.171H110.238C106.654 204.171 103.739 207.07 103.739 210.652C103.739 214.227 106.646 217.125 110.238 217.125H197.583C201.167 217.125 204.082 214.227 204.082 210.652C204.074 207.07 201.167 204.171 197.575 204.171Z" fill="#F9BF87"/>
<path d="M179.441 197.82C176.959 201.672 172.387 203.829 168.019 204.823C165.602 205.368 163.104 205.401 160.646 205.303C158.189 205.197 155.674 204.945 153.355 204.082C149.608 202.673 146.391 199.612 146.146 195.435C146.023 193.326 146.717 191.225 147.697 189.369C148.269 188.286 148.979 187.309 149.697 186.324C150.342 185.453 151.028 184.541 151.077 183.417C151.077 183.368 151.085 183.319 151.094 183.271C151.061 183.23 151.036 183.189 151.012 183.14C150.285 181.87 149.567 180.608 148.84 179.338C148.293 178.377 147.199 177.083 147.158 175.935C147.126 174.843 147.967 173.598 148.473 172.67C149.036 171.652 149.73 170.658 150.604 169.877C153.502 167.304 158.458 166.53 162.14 167.524C165.627 168.46 168.296 171.644 168.721 175.202C169.137 178.768 167.047 182.448 163.871 184.077C163.52 184.256 163.161 184.402 162.802 184.533C163.21 185.16 164.72 184.818 165.308 184.818C166.182 184.818 167.047 184.923 167.904 185.086C169.701 185.428 171.415 186.088 173.105 186.764C173.791 187.04 174.852 187.7 175.628 187.659C176.477 187.602 177.375 186.723 177.988 186.194C179.367 185.005 180.486 183.604 181.384 182.017C181.972 180.983 183.319 181.569 183.433 182.57C184.038 187.855 182.307 193.367 179.441 197.82Z" fill="#A7327A"/>
<path d="M149.739 175.356C149.396 174.86 148.734 174.738 148.253 174.957C148.057 174.99 147.869 175.08 147.689 175.242C146.53 176.309 144.905 175.78 143.672 175.161C142.938 174.786 142.023 175.242 142.015 176.106C141.991 178.312 143.24 179.908 144.93 180.999C144.791 181.154 144.668 181.325 144.546 181.504C143.974 182.375 144.913 183.279 145.787 183.116C147.053 182.88 148.277 182.872 149.551 182.831C150.441 182.798 151.143 182.44 151.347 181.528C151.796 179.484 150.882 177.017 149.739 175.356Z" fill="#F96969"/>
<path d="M174.306 189.32C172.166 192.781 169.521 196.428 165.488 197.804C163.626 198.439 161.667 198.472 159.789 197.869C158.123 197.332 155.494 195.956 155.739 193.896C155.903 192.496 153.698 192.504 153.535 193.896C153.241 196.355 155.478 198.276 157.47 199.278C159.699 200.402 162.214 200.768 164.663 200.296C169.97 199.278 173.522 194.759 176.2 190.427C176.959 189.222 175.049 188.115 174.306 189.32Z" fill="#821F5C"/>
<path d="M156.18 177.188C157.235 177.188 158.091 176.335 158.091 175.283C158.091 174.231 157.235 173.378 156.18 173.378C155.125 173.378 154.27 174.231 154.27 175.283C154.27 176.335 155.125 177.188 156.18 177.188Z" fill="#16162B"/>
<path d="M324.248 316.117C326.697 324.275 324.052 333.736 317.716 339.452C316.965 340.128 316.149 340.779 315.642 341.651C315.136 342.53 315.014 343.719 315.651 344.5C316.132 345.095 316.924 345.331 317.675 345.502C322.092 346.503 326.763 346.389 331.122 345.168C333.286 344.565 335.531 343.556 336.625 341.602C337.376 340.258 337.466 338.654 337.499 337.115C337.67 329.592 336.87 322.044 335.131 314.717C331.22 314.725 328.036 315.124 324.248 316.117Z" fill="#16162B"/>
<path d="M306.033 317.688L307.299 340.397C307.299 340.397 291.77 342.97 272.126 340.682C271.016 340.552 270.493 339.232 271.203 338.369C273.261 335.854 276.91 335.202 280.013 334.119C283.622 332.857 284.087 333.224 287.655 331.848C292.521 329.959 293.901 323.909 294.676 318.763C298.171 317.485 302.294 317.729 306.033 317.688Z" fill="#16162B"/>
<path d="M341.32 322.655C337.891 324.699 333 325.985 327.554 325.985C324.762 325.985 322.109 325.651 319.733 325.049C319.602 323.795 319.48 322.541 319.349 321.271C318.949 317.192 318.573 313.08 318.239 309.042C318.165 308.227 318.092 307.421 318.026 306.607C316.124 283.638 315.193 257.95 315.193 257.95C315.169 257.689 315.12 256.802 315.112 256.46C314.148 268.526 313.111 290.828 312.213 306.314C312.14 307.454 312.074 308.594 312.009 309.717C311.789 313.585 311.576 317.338 311.372 320.872C311.291 322.329 311.217 323.754 311.144 325.122C308.849 325.684 306.31 325.985 303.632 325.985C300.832 325.985 298.178 325.651 295.794 325.049C293.255 324.398 291.034 323.453 289.271 322.297C289.263 317.68 289.295 313.153 289.344 308.797C289.695 282.295 291.051 256.403 291.1 255.711C291.777 247.17 292.635 239.451 293.296 234.037C299.893 235.543 306.955 236.365 314.312 236.365C323.774 236.365 332.763 235.014 340.92 232.571C340.283 248.937 340.21 283.321 340.855 308.227C340.969 313.251 341.124 318.096 341.32 322.655Z" fill="#343256"/>
<path d="M290.585 187.39C278.265 189.467 260.115 182.92 254.955 180.909C254 180.535 252.979 180.339 251.959 180.339H249.869C249.542 180.299 249.215 180.282 248.889 180.29C246.529 180.331 245.182 179.721 242.798 179.085C241.059 178.621 239.728 177.245 238.953 175.666C238.471 174.672 238.577 173.533 238.152 172.58C236.977 169.917 233.891 171.741 231.482 170.992C230.429 170.667 230.167 169.201 231.164 168.631C234.168 166.913 239.647 166.726 243.108 166.522C246.121 166.351 248.056 167.279 250.326 169.144C254.629 172.653 259.911 172.881 265.267 173.313C270.321 173.712 284.568 173.834 289.622 173.769C290.569 173.761 290.977 174.575 290.855 175.299C290.887 175.413 290.904 175.527 290.904 175.658C290.977 178.076 292.275 184.647 290.585 187.39Z" fill="#AD6359"/>
<path d="M348.259 198.936C346.177 200.703 343.572 201.965 341.058 203.015C340.576 203.235 340.07 203.43 339.564 203.601C339.653 204.904 339.792 206.63 339.825 206.793C340.217 209.773 340.698 215.074 341.131 220.618C341.156 220.781 341.164 220.96 341.172 221.123C341.327 223.028 341.482 224.95 341.588 226.798C341.597 226.831 341.597 226.855 341.597 226.888C341.842 230.267 342.037 233.426 342.135 235.86C334.061 238.922 324.516 240.689 314.302 240.689C306.358 240.689 298.822 239.614 292.07 237.709C293.393 229.111 294.993 216.091 295.524 210.416C295.834 206.956 296.079 203.487 296.234 200.027C296.275 198.749 296.553 195.842 296.593 193.831L284.33 192.968L282.436 192.829C282.142 189.068 282.248 185.778 282.542 183.026C282.608 182.44 282.681 181.87 282.755 181.333C282.755 181.308 282.755 181.3 282.763 181.276C283.473 176.358 284.673 173.614 284.673 173.614C287.719 172.946 293.605 173.305 298.324 173.785C301.974 174.143 304.921 174.575 305.346 174.64C305.354 174.64 305.37 174.64 305.37 174.64C310.563 174.795 315.568 173.818 320.467 172.091C321.357 171.782 322.14 171.741 322.867 171.872C332.95 170.634 343.042 174.909 348.112 184.011C348.3 184.329 348.463 184.655 348.634 184.997C350.945 189.597 352.692 195.15 348.259 198.936Z" fill="#CFD8DC"/>
<path d="M323.824 166.612C323.799 166.954 323.775 167.32 323.742 167.67C323.742 167.67 323.742 167.678 323.734 167.695C323.408 171.587 322.599 176.106 320.076 178.801C316.884 182.18 311.144 182.277 308.826 177.587C308.368 176.659 308.181 175.707 308.14 174.738C308.107 174.094 308.14 173.451 308.205 172.792C308.246 172.222 308.311 171.66 308.36 171.09L309.038 163.966C309.332 160.912 311.095 158.307 314.035 158.307H314.116C314.418 158.12 314.72 157.957 315.055 157.794C320.117 155.596 324.175 161.36 323.824 166.612Z" fill="#AD6359"/>
<path d="M323.824 166.612C323.799 166.954 323.775 167.32 323.742 167.67C323.742 167.67 323.742 167.678 323.734 167.695C323.424 168.118 318.15 175.088 308.148 174.746L308.14 174.738C308.107 174.094 308.14 173.451 308.205 172.792C308.246 172.222 308.311 171.66 308.36 171.09L309.038 163.966C309.332 160.912 311.095 158.307 314.035 158.307H314.116C314.418 158.12 314.72 157.957 315.055 157.794C320.117 155.596 324.175 161.36 323.824 166.612Z" fill="#86472F"/>
<path d="M333.375 149.155C332.15 153.356 330.901 157.631 328.689 161.336C326.484 165.04 323.129 168.151 319.422 168.672C321.692 164.682 324.304 160.587 326.574 156.589C328.305 153.536 330.444 150.303 333.375 149.155Z" fill="#263238"/>
<path d="M310.098 137.097C308.073 138.872 306.669 141.347 306.179 143.993C305.689 146.639 306.114 149.448 307.371 151.826C308.914 148.357 310.563 144.644 312.115 141.176C312.515 140.28 312.915 139.311 312.694 138.359C312.384 137.072 311.29 137.683 310.098 137.097Z" fill="#263238"/>
<path d="M329.489 149.025C329.914 141.542 321.602 138.676 315.038 138.807C312.907 137.797 309.772 138.627 309.421 141.681C308.506 149.627 300.146 155.205 303.166 163.949C305.755 171.448 315.07 174.013 321.48 169.633C327.824 165.293 329.089 156.108 329.489 149.025Z" fill="#AD6359"/>
<path d="M334.136 147.478C333.825 148.895 332.895 150.116 331.996 151.28C330.886 152.73 329.588 154.578 328.477 156.019C326.877 154.765 325.759 152.99 325.375 151.069C324.999 149.155 325.367 147.128 326.395 145.45C323.636 145.703 320.631 145.548 317.872 145.214C315.12 144.872 312.361 143.912 310.393 142.047C308.923 140.663 307.984 138.733 307.984 136.828C317.937 124.46 329.898 140.866 329.898 140.866C332.609 141.583 334.699 144.897 334.136 147.478Z" fill="#263238"/>
<path d="M327.996 156.377C327.955 155.465 328.568 154.562 329.433 154.268C330.298 153.967 331.344 154.301 331.874 155.042C332.323 155.669 332.405 156.491 332.331 157.257C332.176 158.795 331.425 160.269 330.266 161.295C329.106 162.321 327.555 162.899 326.004 162.883C327 160.408 328.11 159.04 327.996 156.377Z" fill="#AD6359"/>
<path d="M311.487 156.092C311.487 156.198 311.185 156.214 310.818 156.051C310.434 155.897 309.968 155.539 309.65 154.92C309.65 154.912 309.642 154.887 309.634 154.879C309.454 154.488 309.397 154.114 309.405 153.788C309.413 153.316 309.568 152.941 309.707 152.778C309.789 152.681 309.846 152.656 309.903 152.689C309.928 152.697 309.952 152.721 309.968 152.746C310.026 152.876 310.034 153.177 310.091 153.536C310.14 153.804 310.205 154.114 310.344 154.415C310.352 154.456 310.368 154.48 310.393 154.521C310.597 154.993 310.916 155.343 311.16 155.604C311.381 155.84 311.528 155.986 311.487 156.092Z" fill="#86472F"/>
<path d="M314.451 159.121C311.104 159.284 308.426 158.128 307.046 157.354C306.573 157.094 305.96 157.419 305.879 157.932C304.523 167.027 312.614 164.544 314.9 160.237C315.203 159.675 315.113 159.097 314.451 159.121Z" fill="white"/>
<path d="M320.109 151.288C319.284 150.319 318.362 149.448 317.366 148.658C317.031 148.398 316.59 148.341 316.263 148.658C315.986 148.927 315.929 149.497 316.263 149.758C317.268 150.547 318.182 151.419 319.007 152.388C319.66 153.153 320.762 152.046 320.109 151.288Z" fill="#86472F"/>
<path d="M310.761 146.664H308.679C307.675 146.664 307.675 148.227 308.679 148.227H310.761C311.765 148.219 311.765 146.664 310.761 146.664Z" fill="#86472F"/>
<path d="M297.663 186.576C297.721 185.526 296.08 185.526 296.022 186.576C295.769 191.404 295.688 196.225 295.777 201.053C295.794 202.103 297.443 202.111 297.419 201.053C297.329 196.225 297.41 191.404 297.663 186.576Z" fill="#CFD8DC"/>
<path d="M316.459 262.029C316.166 260.604 315.953 259.188 315.782 257.754C315.994 257.47 316.035 257.071 315.692 256.753C315.684 256.745 315.667 256.729 315.659 256.72C315.439 254.506 315.357 252.283 315.423 250.044C315.455 248.985 313.814 248.994 313.781 250.044C313.724 251.737 313.773 253.415 313.888 255.084C312.851 254.123 311.806 253.162 310.769 252.193C309.993 251.477 308.826 252.633 309.609 253.35L314.108 257.51C314.296 259.163 314.541 260.808 314.884 262.452C315.096 263.503 316.68 263.063 316.459 262.029Z" fill="#1F1F3A"/>
<path d="M341.598 226.79C336.504 228.443 331.319 229.705 325.988 230.837C318.737 232.367 316.149 234.729 309.422 230.136C307.568 228.883 309.25 225.813 311.112 227.075C312.753 228.199 314.353 228.98 316.117 229.241C316.28 228.817 316.623 228.443 317.113 228.223C321.791 226.188 326.747 225.593 331.588 224.128C334.332 223.297 336.993 222.206 339.655 221.148C340.112 220.977 340.618 220.797 341.149 220.626C341.174 220.789 341.182 220.968 341.19 221.131C341.337 223.02 341.492 224.942 341.598 226.79Z" fill="#CFD8DC"/>
<path d="M337.72 284.387C337.475 273.925 336.389 263.413 336.985 252.951C336.993 252.861 336.969 252.788 336.952 252.714C337.222 252.307 337.156 251.615 336.552 251.379C332.886 249.938 330.649 246.282 330.862 242.39C330.919 241.34 329.278 241.34 329.221 242.39C328.984 246.803 331.49 250.785 335.417 252.649C335.377 252.739 335.344 252.828 335.344 252.942C334.748 263.405 335.842 273.916 336.079 284.379C336.324 295.094 336.209 305.801 335.793 316.508C335.752 317.566 337.393 317.558 337.434 316.508C337.842 305.809 337.965 295.102 337.72 284.387Z" fill="#1F1F3A"/>
<path d="M348.088 217.541C342.259 220.659 332.02 225.251 318.239 228.068L316.508 222.45L333.106 211.108C334.143 210.587 335.221 209.92 335.915 209.252C339.303 205.954 335.686 202.771 336.021 199.514C336.209 197.943 336.878 197.625 338.177 196.982C341.883 195.125 346.349 194.417 350.383 193.367V193.375C350.383 193.375 353.15 199.775 353.812 207.086C354.212 211.401 351.909 215.497 348.088 217.541Z" fill="#AD6359"/>
<path d="M344.423 179.061C344.423 179.061 351.787 185.485 353.232 197.519C353.232 197.519 345.876 202.201 333.801 202.331C333.809 202.339 315.667 179.077 344.423 179.061Z" fill="#CFD8DC"/>
<path d="M338.079 204.383C337.336 202.136 336.675 199.864 336.095 197.568C335.834 196.542 334.25 196.982 334.511 198.008C335.091 200.304 335.752 202.575 336.495 204.823C336.822 205.816 338.414 205.393 338.079 204.383Z" fill="#CFD8DC"/>
<path d="M307.101 228.37C309.061 229.558 311.175 230.487 313.38 231.122C314.572 231.48 315.862 231.749 317.029 231.301C317.895 230.975 318.564 230.299 319.218 229.632C320.23 228.598 323.128 226.163 324.141 225.121L321.259 220.341C318.662 219.153 313.723 218.566 310.914 218.249C310.653 218.216 310.449 218.469 310.522 218.713C310.931 220.04 311.674 220.423 314.703 221.433C312.041 222.882 309.379 224.323 306.726 225.764C306.44 225.911 306.146 226.082 305.983 226.358C305.566 227.108 306.375 227.93 307.101 228.37Z" fill="#AD6359"/>
<path d="M366 190L264 292" stroke="#FBC02D" stroke-width="4" stroke-linecap="round" stroke-linejoin="round"/>
<path d="M264 190L366 292" stroke="#FBC02D" stroke-width="4" stroke-linecap="round" stroke-linejoin="round"/>
</g>
<defs>
<clipPath id="clip0_44_3159">
<rect width="383" height="347" fill="white"/>
</clipPath>
</defs>
</svg>
