<svg width="184" height="176" viewBox="0 0 184 176" fill="none" xmlns="http://www.w3.org/2000/svg">
<path d="M116.255 129.364H111.961V140.217H116.255V129.364Z" fill="#E0E0E0"/>
<path d="M117.104 136.483H111.111L110.695 146.934C110.684 147.2 110.727 147.465 110.821 147.714C110.916 147.964 111.059 148.191 111.244 148.383C111.429 148.575 111.65 148.728 111.895 148.832C112.14 148.937 112.404 148.99 112.67 148.99H115.568C115.834 148.99 116.097 148.936 116.341 148.831C116.586 148.726 116.807 148.574 116.991 148.381C117.175 148.189 117.318 147.962 117.412 147.713C117.506 147.465 117.549 147.199 117.538 146.934L117.104 136.483Z" fill="#263238"/>
<path d="M129.029 148.705C128.902 148.705 128.778 148.673 128.667 148.613C128.556 148.553 128.461 148.467 128.391 148.362C127.797 147.454 126.985 146.71 126.03 146.195C125.075 145.681 124.007 145.412 122.922 145.415H105.294C104.209 145.412 103.141 145.681 102.186 146.195C101.231 146.71 100.419 147.454 99.8248 148.362C99.7103 148.524 99.5373 148.634 99.3425 148.671C99.1477 148.708 98.9463 148.667 98.7808 148.558C98.6153 148.449 98.4987 148.28 98.4557 148.086C98.4127 147.893 98.4466 147.69 98.5502 147.521C99.2863 146.406 100.288 145.492 101.465 144.861C102.643 144.23 103.958 143.901 105.294 143.905H122.922C124.259 143.898 125.577 144.224 126.757 144.854C127.937 145.484 128.941 146.397 129.679 147.512C129.755 147.627 129.799 147.761 129.805 147.898C129.811 148.036 129.78 148.173 129.714 148.294C129.649 148.416 129.552 148.517 129.434 148.588C129.315 148.659 129.18 148.696 129.042 148.696L129.029 148.705Z" fill="#263238"/>
<path d="M121.344 130.124H106.88C106.098 130.124 105.34 129.854 104.734 129.36C104.128 128.866 103.711 128.178 103.554 127.412L103.102 125.197H125.141L124.689 127.412C124.531 128.181 124.112 128.871 123.502 129.366C122.892 129.86 122.129 130.128 121.344 130.124Z" fill="#263238"/>
<path d="M82.459 124.279H99.7977C106.369 124.258 112.714 121.871 117.669 117.555C122.625 113.239 125.86 107.282 126.782 100.775L131.537 67.2911H162.174L157.419 100.775C156.496 107.282 153.261 113.239 148.306 117.555C143.35 121.871 137.006 124.258 130.434 124.279H82.459Z" fill="#263238"/>
<path d="M82.4586 126.819C82.1157 126.834 81.7734 126.779 81.4524 126.658C81.1313 126.536 80.838 126.351 80.5903 126.114C80.3426 125.876 80.1454 125.591 80.0107 125.276C79.8761 124.96 79.8066 124.62 79.8066 124.277C79.8066 123.934 79.8761 123.594 80.0107 123.278C80.1454 122.963 80.3426 122.678 80.5903 122.44C80.838 122.203 81.1313 122.018 81.4524 121.896C81.7734 121.775 82.1157 121.72 82.4586 121.734H99.8471C105.794 121.687 111.527 119.508 116.005 115.595C120.484 111.681 123.411 106.292 124.255 100.405L129.01 66.9204C129.097 66.3142 129.399 65.7594 129.862 65.3577C130.324 64.956 130.915 64.7342 131.528 64.7328H162.164C162.528 64.733 162.888 64.8115 163.22 64.9628C163.551 65.1141 163.846 65.3348 164.085 65.6099C164.323 65.8849 164.5 66.208 164.603 66.5574C164.706 66.9067 164.733 67.274 164.682 67.6346L159.927 101.119C157.848 115.768 145.165 126.819 130.425 126.819H82.4586ZM133.747 69.8223L129.299 101.119C128.704 105.272 127.244 109.255 125.012 112.809C122.781 116.362 119.828 119.408 116.345 121.748H130.434C136.391 121.714 142.137 119.543 146.628 115.629C151.118 111.715 154.054 106.319 154.901 100.423L159.244 69.8358L133.747 69.8223Z" fill="#263238"/>
<path opacity="0.2" d="M113.091 126.819C112.749 126.834 112.406 126.779 112.085 126.658C111.764 126.536 111.471 126.351 111.223 126.114C110.975 125.876 110.778 125.591 110.644 125.276C110.509 124.96 110.439 124.62 110.439 124.277C110.439 123.934 110.509 123.594 110.644 123.278C110.778 122.963 110.975 122.678 111.223 122.44C111.471 122.202 111.764 122.018 112.085 121.896C112.406 121.775 112.749 121.72 113.091 121.734H130.435C136.391 121.701 142.138 119.529 146.628 115.615C151.119 111.701 154.055 106.305 154.901 100.409L159.656 66.9249C159.691 66.5842 159.795 66.254 159.96 65.9542C160.126 65.6543 160.35 65.391 160.62 65.1799C160.89 64.9688 161.199 64.8144 161.53 64.7258C161.861 64.6373 162.206 64.6164 162.545 64.6645C162.884 64.7126 163.21 64.8287 163.504 65.0058C163.797 65.1828 164.051 65.4173 164.252 65.695C164.452 65.9728 164.594 66.2881 164.67 66.6222C164.746 66.9562 164.753 67.3021 164.692 67.6391L159.937 101.123C157.858 115.773 145.174 126.824 130.435 126.824L113.091 126.819Z" fill="white"/>
<path d="M101.416 148.638C101.416 148.205 101.288 147.782 101.048 147.422C100.807 147.062 100.466 146.782 100.066 146.616C99.6661 146.451 99.2263 146.407 98.8019 146.492C98.3775 146.576 97.9877 146.785 97.6818 147.091C97.3758 147.397 97.1675 147.786 97.0831 148.211C96.9986 148.635 97.042 149.075 97.2075 149.475C97.3731 149.874 97.6535 150.216 98.0133 150.457C98.373 150.697 98.796 150.825 99.2287 150.825C99.8089 150.825 100.365 150.595 100.776 150.184C101.186 149.774 101.416 149.218 101.416 148.638Z" fill="#263238"/>
<path d="M131.176 148.638C131.176 148.205 131.048 147.782 130.807 147.422C130.567 147.062 130.225 146.782 129.826 146.616C129.426 146.451 128.986 146.407 128.562 146.492C128.137 146.576 127.747 146.785 127.442 147.091C127.136 147.397 126.927 147.786 126.843 148.211C126.758 148.635 126.802 149.075 126.967 149.475C127.133 149.874 127.413 150.216 127.773 150.457C128.133 150.697 128.556 150.825 128.988 150.825C129.569 150.825 130.125 150.595 130.535 150.184C130.946 149.774 131.176 149.218 131.176 148.638Z" fill="#263238"/>
<path d="M129.029 148.705C128.902 148.705 128.778 148.673 128.667 148.613C128.556 148.553 128.461 148.467 128.391 148.362C127.797 147.454 126.985 146.71 126.03 146.195C125.075 145.681 124.007 145.412 122.922 145.415H105.294C104.209 145.412 103.141 145.681 102.186 146.195C101.231 146.71 100.419 147.454 99.8248 148.362C99.7103 148.524 99.5373 148.634 99.3425 148.671C99.1477 148.708 98.9463 148.667 98.7808 148.558C98.6153 148.449 98.4987 148.28 98.4557 148.086C98.4127 147.893 98.4466 147.69 98.5502 147.521C99.2863 146.406 100.288 145.492 101.465 144.861C102.643 144.23 103.958 143.901 105.294 143.905H122.922C124.259 143.898 125.577 144.224 126.757 144.854C127.937 145.484 128.941 146.397 129.679 147.512C129.755 147.627 129.799 147.761 129.805 147.898C129.811 148.036 129.78 148.173 129.714 148.294C129.649 148.416 129.552 148.517 129.434 148.588C129.315 148.659 129.18 148.696 129.042 148.696L129.029 148.705Z" fill="#263238"/>
<path d="M121.57 149.993C121.409 149.992 121.252 149.941 121.121 149.846C120.991 149.751 120.893 149.618 120.842 149.465C120.291 147.788 119.378 146.698 118.514 146.698H109.7C108.837 146.698 107.924 147.788 107.373 149.465C107.304 149.65 107.166 149.801 106.988 149.887C106.811 149.972 106.607 149.986 106.419 149.925C106.231 149.863 106.075 149.732 105.982 149.558C105.889 149.383 105.868 149.18 105.922 148.99C106.708 146.599 108.118 145.175 109.7 145.175H118.514C120.096 145.175 121.507 146.599 122.293 148.99C122.356 149.182 122.34 149.392 122.248 149.572C122.157 149.753 121.997 149.89 121.805 149.953C121.729 149.979 121.65 149.993 121.57 149.993Z" fill="#263238"/>
<path d="M108.834 149.926C108.834 149.493 108.706 149.07 108.466 148.71C108.225 148.351 107.884 148.07 107.484 147.905C107.084 147.739 106.644 147.696 106.22 147.78C105.796 147.864 105.406 148.073 105.1 148.379C104.794 148.685 104.585 149.075 104.501 149.499C104.417 149.923 104.46 150.363 104.626 150.763C104.791 151.163 105.071 151.504 105.431 151.745C105.791 151.985 106.214 152.113 106.647 152.113C107.227 152.113 107.783 151.883 108.194 151.473C108.604 151.062 108.834 150.506 108.834 149.926Z" fill="#263238"/>
<path d="M123.758 149.926C123.758 149.493 123.63 149.07 123.39 148.71C123.149 148.351 122.807 148.07 122.408 147.905C122.008 147.739 121.568 147.696 121.144 147.78C120.719 147.864 120.33 148.073 120.024 148.379C119.718 148.685 119.509 149.075 119.425 149.499C119.34 149.923 119.384 150.363 119.549 150.763C119.715 151.163 119.995 151.504 120.355 151.745C120.715 151.985 121.138 152.113 121.571 152.113C122.151 152.113 122.707 151.883 123.117 151.473C123.528 151.062 123.758 150.506 123.758 149.926Z" fill="#263238"/>
<path d="M67.0235 119.904L74.7211 123.244L70.3095 128.392L63.873 125.604L67.0235 119.904Z" fill="#AD6359"/>
<path opacity="0.2" d="M67.0281 119.904L74.7256 123.249L72.2532 126.132L65.2607 123.1L67.0281 119.904Z" fill="black"/>
<path d="M71.4034 131.073L70.5355 130.874C70.2805 130.816 70.0437 130.696 69.8458 130.525C69.648 130.354 69.4952 130.137 69.401 129.893L68.845 130.151C68.5239 130.303 68.161 130.343 67.8145 130.264L55.9404 127.552C55.9721 126.485 56.9122 125.292 56.9122 125.292C56.9122 125.292 62.1961 126.196 63.7239 124.935C63.7841 124.892 63.855 124.868 63.9286 124.864C64.0021 124.86 64.0752 124.876 64.1397 124.912C65.0979 125.364 68.8767 126.996 71.2994 126.765C71.3744 126.759 71.4498 126.771 71.5195 126.799C71.5892 126.828 71.6514 126.872 71.701 126.929C71.7506 126.985 71.7862 127.053 71.8052 127.126C71.8242 127.198 71.8259 127.275 71.8101 127.348C71.5848 128.578 71.4488 129.823 71.4034 131.073Z" fill="#263238"/>
<path d="M63.9317 125.278C63.9146 125.278 63.8978 125.274 63.8822 125.267C63.8666 125.26 63.8527 125.25 63.8413 125.237C63.7916 125.183 62.5848 123.881 62.6209 123.145C62.6228 123.071 62.6398 122.998 62.6709 122.932C62.702 122.865 62.7465 122.805 62.8017 122.756C62.8638 122.694 62.9441 122.653 63.031 122.639C63.1179 122.625 63.207 122.639 63.2854 122.679C63.8052 122.941 64.1306 124.392 64.0628 125.165C64.0595 125.189 64.0498 125.212 64.0347 125.231C64.0196 125.25 63.9996 125.265 63.9769 125.274L63.9317 125.278ZM63.1 122.887C63.0751 122.888 63.0507 122.895 63.0282 122.906C63.0057 122.916 62.9856 122.932 62.969 122.95C62.939 122.976 62.9153 123.008 62.8997 123.044C62.884 123.08 62.8768 123.119 62.8786 123.158C62.856 123.61 63.43 124.374 63.8142 124.826C63.7871 124.08 63.5023 123.072 63.1724 122.905C63.1497 122.894 63.1251 122.888 63.1 122.887Z" fill="#263238"/>
<path d="M62.9964 125.332C62.4922 125.374 61.9865 125.269 61.541 125.03C61.4821 124.986 61.4332 124.93 61.3974 124.866C61.3616 124.803 61.3396 124.732 61.333 124.659C61.3155 124.57 61.3276 124.477 61.3676 124.396C61.4076 124.314 61.4733 124.248 61.5545 124.207C62.0698 123.945 63.4348 124.537 64.0179 125.048C64.0365 125.064 64.05 125.085 64.0568 125.108C64.0636 125.132 64.0634 125.157 64.0562 125.18C64.049 125.204 64.0352 125.225 64.0163 125.241C63.9975 125.256 63.9745 125.266 63.9501 125.269C63.6336 125.308 63.3152 125.329 62.9964 125.332ZM61.88 124.401C61.8026 124.399 61.7256 124.413 61.654 124.442C61.6088 124.469 61.559 124.51 61.5726 124.636C61.5773 124.675 61.5897 124.712 61.6091 124.745C61.6285 124.778 61.6546 124.808 61.6856 124.831C62.0291 125.106 62.9964 125.102 63.5885 125.057C63.0808 124.702 62.4943 124.477 61.88 124.401Z" fill="#263238"/>
<path d="M136.157 95.6857L132.844 102.588C127.98 112.776 115.998 117.897 106.429 113.888C100.842 111.546 94.7449 106.597 90.6091 104.332C87.0609 112.111 80.4165 120.69 75.3315 126.661L65.0439 121.486C68.8859 112.667 74.8659 98.8859 78.6627 89.9544C79.3387 88.3706 80.4475 87.0094 81.8617 86.0268C83.2759 85.0443 84.9384 84.4802 86.6586 84.3993C103.762 83.9382 136.157 95.6857 136.157 95.6857Z" fill="#FBC02D"/>
<path d="M125.535 24.2426C123.605 23.6053 121.404 24.8302 121.377 29.1423C121.35 33.4544 125.269 35.7641 126.923 30.1909C127.918 26.828 126.968 24.7082 125.535 24.2426Z" fill="#E0E0E0"/>
<path d="M86.1615 142.481L94.5416 142.088L92.8556 148.651L85.8496 148.986L86.1615 142.481Z" fill="#AD6359"/>
<path opacity="0.2" d="M86.1665 142.481L94.5466 142.088L93.6019 145.767L85.9902 146.129L86.1665 142.481Z" fill="black"/>
<path d="M94.1389 152.113H93.2349C92.9734 152.113 92.7161 152.048 92.4859 151.924C92.2556 151.8 92.0595 151.622 91.915 151.404L91.4314 151.783C91.1503 152 90.8054 152.118 90.4506 152.118H78.2827C78.0748 151.074 78.7347 149.709 78.7347 149.709C78.7347 149.709 84.0864 149.424 85.2932 147.856C85.3368 147.796 85.3963 147.749 85.465 147.721C85.5337 147.693 85.6089 147.685 85.682 147.697C86.717 147.914 90.7669 148.683 93.0767 147.919C93.1481 147.896 93.2238 147.891 93.2978 147.903C93.3717 147.915 93.4418 147.944 93.5025 147.988C93.5631 148.032 93.6126 148.089 93.647 148.156C93.6814 148.222 93.6997 148.296 93.7004 148.371C93.7561 149.627 93.9026 150.878 94.1389 152.113Z" fill="#263238"/>
<path d="M85.5419 148.122C85.5158 148.124 85.4902 148.116 85.4696 148.1C85.4063 148.059 83.9463 147.074 83.8152 146.328C83.8007 146.256 83.8012 146.182 83.8168 146.11C83.8323 146.039 83.8626 145.971 83.9056 145.912C83.9518 145.837 84.0204 145.779 84.1016 145.746C84.1827 145.713 84.2724 145.706 84.3576 145.727C84.9181 145.871 85.56 147.209 85.6639 147.987C85.6666 148.012 85.662 148.037 85.6508 148.059C85.6396 148.082 85.6222 148.1 85.6006 148.113C85.5823 148.122 85.5619 148.125 85.5419 148.122ZM84.2537 145.966C84.2238 145.969 84.1951 145.98 84.1699 145.996C84.1448 146.013 84.1239 146.035 84.109 146.061C84.0864 146.094 84.0711 146.131 84.064 146.17C84.057 146.209 84.0585 146.249 84.0684 146.287C84.1452 146.739 84.8729 147.349 85.352 147.706C85.1622 146.983 84.656 146.066 84.2989 145.975L84.2537 145.966Z" fill="#263238"/>
<path d="M83.7296 148.506C83.5407 148.514 83.3524 148.48 83.1782 148.407C83.1114 148.377 83.0516 148.333 83.0025 148.279C82.9535 148.224 82.9164 148.16 82.8934 148.091C82.8607 148.008 82.8544 147.918 82.8755 147.832C82.8966 147.746 82.9439 147.669 83.0109 147.611C83.4629 147.241 84.9184 147.517 85.6009 147.883C85.6219 147.895 85.6392 147.913 85.6511 147.935C85.663 147.956 85.6691 147.98 85.6687 148.005C85.667 148.029 85.658 148.053 85.6426 148.072C85.6273 148.092 85.6064 148.106 85.5828 148.113C84.9875 148.334 84.3632 148.466 83.7296 148.506ZM83.7296 147.684C83.5377 147.668 83.3455 147.711 83.1782 147.806C83.1375 147.842 83.1013 147.892 83.1375 148.014C83.1511 148.05 83.1721 148.084 83.1994 148.112C83.2266 148.14 83.2594 148.162 83.2957 148.176C83.6935 148.371 84.6291 148.154 85.1986 147.978C84.7279 147.796 84.2295 147.697 83.7251 147.684H83.7296Z" fill="#263238"/>
<path d="M140.948 92.9511L140.894 100.242C140.808 110.995 131.691 120.582 120.807 121.405C114.452 121.857 105.864 122.019 100.919 121.92C100.2 129.45 97.8451 138.323 95.4947 144.75L84.7914 144.005C84.5111 134.879 84.0998 121.938 83.7563 113.354C83.6207 110.01 85.6954 106.719 88.8865 105.146C104.91 97.2451 140.948 92.9511 140.948 92.9511Z" fill="#FBC02D"/>
<path opacity="0.1" d="M93.1902 144.845C93.1663 144.85 93.1418 144.85 93.1179 144.845C93.0538 144.825 93.0002 144.781 92.9688 144.722C92.9374 144.662 92.9309 144.593 92.9507 144.529C94.5688 139.209 97.4707 122.602 97.6108 114.977C97.6151 114.904 97.6476 114.836 97.7012 114.787C97.7286 114.764 97.7604 114.747 97.7946 114.737C97.8288 114.727 97.8647 114.724 97.9001 114.728C113.535 116.808 124.116 116.084 128.523 112.685C136.248 106.683 136.135 96.9649 134.178 91.8934C134.153 91.8305 134.154 91.7604 134.182 91.6985C134.209 91.6366 134.259 91.588 134.322 91.5635C134.385 91.5389 134.455 91.5403 134.517 91.5675C134.579 91.5946 134.628 91.6452 134.652 91.7081C136.664 96.9152 136.777 106.904 128.835 113.079C124.288 116.609 113.955 117.346 98.099 115.262C97.9046 123.041 95.0254 139.39 93.4208 144.664C93.4064 144.715 93.3764 144.76 93.335 144.792C93.2935 144.825 93.2429 144.843 93.1902 144.845Z" fill="black"/>
<path opacity="0.2" d="M90.1923 105.227C88.3558 108.908 86.2276 112.436 83.8281 115.777C83.8824 117.282 83.9411 118.878 83.9999 120.537C87.7877 114.557 90.1968 105.218 90.1968 105.218L90.1923 105.227Z" fill="black"/>
<path d="M112.265 60.728L111.863 60.9857L111.537 61.1846L110.905 61.5507C110.484 61.7902 110.064 62.0027 109.648 62.2106C108.812 62.6355 107.953 63.0016 107.081 63.3496C105.31 64.0514 103.477 64.587 101.607 64.9497C100.653 65.135 99.6724 65.2661 98.678 65.361C97.6614 65.4389 96.641 65.4555 95.6224 65.4108C94.5676 65.3684 93.5174 65.246 92.4811 65.0446C91.4157 64.8286 90.3696 64.5262 89.3532 64.1406L88.9374 63.987C88.3082 63.7558 87.7406 63.3831 87.2785 62.8976C86.2943 61.8631 85.5422 60.6302 85.0728 59.2816C84.7016 58.2142 84.4781 57.101 84.4083 55.973C84.2971 54.1527 84.4493 52.3258 84.8603 50.549C85.2186 48.9765 85.7054 47.436 86.3158 45.9431C86.6141 45.2154 86.9395 44.5058 87.2831 43.8097L87.8209 42.7701C88.0198 42.422 88.2006 42.1102 88.4311 41.7169C88.7611 41.161 89.2655 40.7297 89.8659 40.49C90.4663 40.2503 91.129 40.2156 91.7512 40.3914C92.3733 40.5671 92.9199 40.9435 93.3061 41.4619C93.6923 41.9804 93.8964 42.6118 93.8868 43.2582V43.7102C93.8868 43.986 93.8416 44.3521 93.8235 44.6775L93.7466 45.6855C93.6924 46.3544 93.6608 47.0415 93.6291 47.6833C93.5975 48.3252 93.5839 48.9941 93.5794 49.6269C93.5749 50.2597 93.5794 50.888 93.6201 51.4846C93.6498 52.5374 93.8123 53.5823 94.1037 54.5944C94.1863 54.889 94.3244 55.1651 94.5105 55.408C94.6371 55.5391 94.6959 55.4758 94.6281 55.3266L92.5534 54.0836C93.573 54.268 94.612 54.3211 95.6451 54.2418C96.2111 54.2006 96.7741 54.1251 97.331 54.0158C97.905 53.9164 98.4926 53.7944 99.0848 53.6316C99.6769 53.4689 100.269 53.2791 100.87 53.0802C101.471 52.8813 102.068 52.6282 102.678 52.3932C103.288 52.1581 103.867 51.8734 104.459 51.6022C104.748 51.4666 105.038 51.3219 105.313 51.1818L105.72 50.9739L105.91 50.879C105.951 50.8564 106.046 50.8021 106.014 50.8292C107.327 50.0003 108.915 49.7267 110.429 50.0688C111.943 50.4108 113.26 51.3404 114.089 52.6531C114.918 53.9657 115.191 55.5539 114.849 57.0683C114.507 58.5826 113.578 59.8991 112.265 60.728Z" fill="#AD6359"/>
<path d="M89.2762 44.8267L92.6481 44.9849C96.0246 43.8865 93.8595 39.7914 93.8595 39.7914L93.6109 37.4048C93.5368 36.9881 93.3189 36.6106 92.9951 36.3381C92.6714 36.0655 92.2623 35.9152 91.839 35.9132L89.4841 35.7821C88.4084 35.7234 87.4772 36.4421 87.423 37.3732L87.2919 39.4614C87.2552 40.0701 87.3685 40.6786 87.6219 41.2333L89.2762 44.8267Z" fill="#AD6359"/>
<path d="M117.929 45.8753C116.505 43.9679 111.89 44.4154 109.223 47.4302C108.12 47.385 103.799 51.2948 100.49 52.131C97.1818 52.9672 94.7952 56.9674 95.7173 59.2229C97.4213 63.3858 98.5785 65.3791 101.657 65.7136C104.735 66.0481 108.785 64.0548 112.053 61.6094C115.321 59.1641 120.442 49.2608 117.929 45.8753Z" fill="#E0E0E0"/>
<path d="M99.0712 52.0496C96.4993 50.3953 93.9727 53.1706 93.9727 56.66C93.9727 60.1495 94.7908 63.1237 96.0428 65.1712C97.2949 67.2188 99.5051 67.047 101.566 66.9521C103.347 66.8662 104.224 66.2244 103.374 64.6062C102.524 62.9881 99.3921 60.6467 98.9266 56.0996C98.6689 53.7989 100.26 52.8135 99.0712 52.0496Z" fill="#FAFAFA"/>
<path d="M98.4113 84.3903C97.8598 84.9598 97.4621 87.1655 98.583 90.4696C99.356 92.7613 102.398 91.6177 102.398 91.6177C102.398 91.6177 102.931 95.7716 106.719 96.662C112.961 98.1265 136.506 97.7333 140.506 94.628C127.959 94.497 98.4113 84.3903 98.4113 84.3903Z" fill="#FAFAFA"/>
<path d="M119.528 44.3566C125.688 44.3913 131.832 44.9874 137.884 46.1375C138.882 46.3462 139.827 46.7563 140.661 47.3427C141.496 47.9292 142.202 48.6797 142.736 49.5482C143.27 50.4168 143.622 51.3852 143.769 52.3943C143.916 53.4034 143.856 54.4319 143.593 55.417C139.073 72.6337 141.622 91.5408 141.265 94.9896C141.265 94.9896 105.136 100.192 99.5994 89.4526C92.164 77.3028 104.82 69.3657 109.146 52.2982C110.289 47.7873 114.877 44.3295 119.528 44.3566Z" fill="#263238"/>
<path opacity="0.1" d="M119.528 44.3566C125.688 44.3913 131.832 44.9874 137.884 46.1375C138.882 46.3462 139.827 46.7563 140.661 47.3427C141.496 47.9292 142.202 48.6797 142.736 49.5482C143.27 50.4168 143.622 51.3852 143.769 52.3943C143.916 53.4034 143.856 54.4319 143.593 55.417C139.073 72.6337 141.622 91.5408 141.265 94.9896C141.265 94.9896 105.136 100.192 99.5994 89.4526C92.164 77.3028 104.82 69.3657 109.146 52.2982C110.289 47.7873 114.877 44.3295 119.528 44.3566Z" fill="white"/>
<path opacity="0.4" d="M131.61 45.1566L131.546 45.1295L131.348 45.0617L131.293 45.1024C128.26 44.7408 125.101 44.5057 122.086 44.4108C121.349 44.3837 120.622 44.3701 119.907 44.3611C118.964 44.8924 118.237 45.7389 117.855 46.7522C116.951 49.0393 117.593 51.5886 119.632 53.5683L119.799 53.731L120.039 53.7084C124.468 53.279 132.749 49.7308 133.097 46.9962C133.156 46.5352 133.038 45.6764 131.61 45.1566Z" fill="#FAFAFA"/>
<path d="M144.451 57.79L144.781 58.4228L145.075 59.0014C145.269 59.3856 145.441 59.7698 145.622 60.154C145.979 60.9179 146.296 61.6908 146.616 62.4682C147.231 64.0231 147.805 65.6006 148.284 67.2187C148.533 68.0233 148.736 68.8369 148.98 69.6595C149.224 70.4822 149.374 71.3138 149.545 72.1591C149.903 73.8634 150.163 75.5869 150.323 77.3209L150.368 77.7729C150.431 78.4406 150.351 79.1139 150.133 79.7482C149.787 80.7407 149.26 81.6603 148.578 82.4602C147.999 83.1396 147.321 83.7278 146.567 84.2049C145.433 84.9124 144.187 85.4228 142.883 85.7146C140.927 86.1462 138.92 86.2984 136.921 86.1666C135.15 86.0633 133.388 85.8307 131.651 85.4705C130.801 85.3032 129.965 85.0953 129.133 84.8738C128.301 84.6524 127.506 84.4218 126.629 84.0964C125.995 83.8712 125.457 83.4357 125.104 82.8623C124.752 82.2889 124.606 81.6122 124.692 80.9446C124.777 80.277 125.089 79.6588 125.575 79.1928C126.06 78.7268 126.691 78.4411 127.361 78.3831H127.533L129.793 78.1933C130.566 78.139 131.33 78.0622 132.085 77.9854C132.839 77.9085 133.59 77.8226 134.322 77.7277C135.054 77.6328 135.768 77.5198 136.46 77.3842C137.681 77.1879 138.874 76.8449 140.013 76.3627C140.429 76.1593 140.722 75.9107 140.695 75.861C140.668 75.8112 140.587 75.861 140.447 75.9785C140.274 76.1476 140.136 76.3487 140.04 76.5706L139.85 78.9843C139.511 77.6644 139.154 76.3446 138.72 75.0112C138.508 74.3468 138.268 73.6552 138.028 73.0134C137.789 72.3715 137.576 71.6574 137.296 71.011C136.772 69.6821 136.252 68.3442 135.687 67.0198L134.837 65.0446L134.015 63.1869L133.911 62.9428C133.306 61.5573 133.262 59.9917 133.787 58.5742C134.311 57.1566 135.364 55.9972 136.725 55.3391C138.086 54.6809 139.648 54.5751 141.086 55.0438C142.523 55.5125 143.722 56.5194 144.433 57.8533L144.451 57.79Z" fill="#AD6359"/>
<path d="M117.065 74.4327H110.321C109.977 74.4327 109.697 74.7119 109.697 75.0564V83.762C109.697 84.1065 109.977 84.3857 110.321 84.3857H117.065C117.409 84.3857 117.689 84.1065 117.689 83.762V75.0564C117.689 74.7119 117.409 74.4327 117.065 74.4327Z" fill="#FBC02D"/>
<path d="M117.065 76.3627C117.475 76.3469 117.884 76.4141 118.268 76.5602C118.652 76.7063 119.002 76.9283 119.298 77.2129C119.594 77.4976 119.829 77.839 119.99 78.2168C120.151 78.5946 120.233 79.0009 120.233 79.4115C120.233 79.822 120.151 80.2283 119.99 80.6061C119.829 80.9838 119.594 81.3253 119.298 81.6099C119.002 81.8946 118.652 82.1166 118.268 82.2627C117.884 82.4088 117.475 82.476 117.065 82.4602H117.024C116.614 82.476 116.205 82.4088 115.821 82.2627C115.438 82.1166 115.087 81.8946 114.791 81.6099C114.496 81.3253 114.26 80.9838 114.1 80.6061C113.939 80.2283 113.856 79.822 113.856 79.4115C113.856 79.0009 113.939 78.5946 114.1 78.2168C114.26 77.839 114.496 77.4976 114.791 77.2129C115.087 76.9283 115.438 76.7063 115.821 76.5602C116.205 76.4141 116.614 76.3469 117.024 76.3627H117.079H117.065ZM117.079 75.4587H117.024C116.492 75.4407 115.962 75.53 115.465 75.7213C114.968 75.9125 114.515 76.2018 114.132 76.5719C113.749 76.9419 113.445 77.3853 113.237 77.8754C113.029 78.3656 112.922 78.8926 112.922 79.425C112.922 79.9574 113.029 80.4844 113.237 80.9746C113.445 81.4648 113.749 81.9081 114.132 82.2782C114.515 82.6482 114.968 82.9375 115.465 83.1287C115.962 83.32 116.492 83.4093 117.024 83.3913H117.079C117.611 83.4093 118.141 83.32 118.638 83.1287C119.135 82.9375 119.588 82.6482 119.971 82.2782C120.354 81.9081 120.658 81.4648 120.866 80.9746C121.074 80.4844 121.181 79.9574 121.181 79.425C121.181 78.8926 121.074 78.3656 120.866 77.8754C120.658 77.3853 120.354 76.9419 119.971 76.5719C119.588 76.2018 119.135 75.9125 118.638 75.7213C118.141 75.53 117.611 75.4407 117.079 75.4587Z" fill="#FBC02D"/>
<path d="M127.65 79.9561L127.622 82.0895C126.325 85.3937 122.366 82.9935 122.366 82.9935L119.997 82.6048C119.586 82.506 119.222 82.266 118.969 81.9265C118.716 81.587 118.591 81.1697 118.614 80.7471V78.3877C118.588 77.9022 118.751 77.4255 119.07 77.0585C119.389 76.6915 119.838 76.463 120.323 76.4215H122.447C123.057 76.4255 123.657 76.5808 124.192 76.8735L126.583 78.1481C126.908 78.3248 127.178 78.5862 127.366 78.9046C127.554 79.223 127.652 79.5864 127.65 79.9561Z" fill="#AD6359"/>
<path d="M139.289 47.9229C141.631 47.4709 144.713 50.9377 144.65 54.965C145.491 55.6747 146.946 61.5914 148.809 64.457C150.671 67.3227 149.713 71.8698 147.525 72.9049C143.457 74.8169 141.251 75.5039 138.756 73.6688C136.261 71.8337 133.395 67.5623 132.979 63.5078C132.392 57.564 135.136 48.7048 139.289 47.9229Z" fill="#E0E0E0"/>
<path d="M136.066 71.3365C134.583 74.0123 137.517 76.3582 140.979 76.1548C144.442 75.9514 147.37 74.9163 149.337 73.5332C151.303 72.1501 150.986 69.9624 150.751 67.9058C150.553 66.134 149.847 65.3023 148.297 66.256C146.747 67.2097 144.604 70.4867 140.098 71.228C137.838 71.6258 136.748 70.1025 136.066 71.3365Z" fill="#FAFAFA"/>
<path d="M118.913 46.5488C119.459 45.6366 120.296 44.9357 121.291 44.56C121.708 43.6446 121.797 42.6136 121.544 41.6401L132.717 38.8196C131.61 42.3904 130.742 45.2109 131.98 47.0505C129.748 48.2347 125.652 50.3546 121.358 49.9704C117.064 49.5862 118.122 48.0268 118.913 46.5488Z" fill="#AD6359"/>
<path opacity="0.2" d="M121.611 41.9836L129.865 42.0062C127.126 44.5961 123.162 45.3917 121.453 44.1667C121.689 43.464 121.743 42.713 121.611 41.9836Z" fill="black"/>
<path d="M135.195 33.364C133.604 38.3857 132.415 41.7576 128.917 43.1724C121.97 45.9748 119.135 42.3136 119.194 36.9076C119.248 32.0396 121.843 24.6494 127.33 23.9171C128.547 23.7541 129.786 23.9025 130.93 24.3485C132.075 24.7946 133.087 25.5236 133.873 26.4674C134.659 27.4113 135.192 28.539 135.423 29.7452C135.655 30.9513 135.576 32.1964 135.195 33.364Z" fill="#AD6359"/>
<path d="M131.872 37.3144C129.806 36.4104 130.43 35.7822 130.43 35.7822C130.43 35.7822 132.103 33.9199 132.369 32.8351C132.636 31.7503 131.013 29.4316 131.587 28.2157C132.161 26.9998 138.227 26.4077 140.799 29.5129C140.196 29.6456 139.581 29.7122 138.964 29.7118C139.483 30.2834 139.817 30.9982 139.922 31.7628C140.028 32.5273 139.9 33.306 139.556 33.9968C138.372 36.4963 134.073 38.3043 131.872 37.3144Z" fill="#E0E0E0"/>
<path d="M120.641 37.8387L125.979 37.9201C125.979 37.9201 125.224 39.2083 122.982 39.4072C120.74 39.6061 120.641 37.8387 120.641 37.8387Z" fill="#263238"/>
<path d="M120.748 37.8387C120.915 38.1823 121.422 38.6975 122.954 38.5619C123.79 38.5093 124.606 38.2879 125.354 37.9111C124.409 37.902 122.515 37.8704 120.748 37.8387Z" fill="white"/>
<path opacity="0.2" d="M128.252 32.6769C128.879 32.5534 129.529 32.6835 130.06 33.0385C129.44 33.0355 128.826 32.9127 128.252 32.6769Z" fill="black"/>
<path opacity="0.2" d="M128.193 33.1154C128.483 33.1197 128.769 33.1871 129.03 33.3127C129.292 33.4384 129.523 33.6193 129.708 33.8431C129.157 33.7109 128.641 33.4629 128.193 33.1154Z" fill="black"/>
<path opacity="0.2" d="M121.213 30.9864C121.213 30.9864 120.865 30.4214 120.508 30.6474C120.597 30.7475 120.706 30.8289 120.827 30.8871C120.948 30.9453 121.079 30.979 121.213 30.9864Z" fill="black"/>
<path opacity="0.2" d="M121.092 31.3797C121.092 31.3797 120.817 30.8734 120.527 31.2712C120.598 31.3468 120.691 31.398 120.792 31.4175C120.894 31.437 120.999 31.4238 121.092 31.3797Z" fill="black"/>
<path opacity="0.2" d="M123.988 26.6472C125.547 26.661 127.094 26.9204 128.572 27.4156C127.031 27.2459 125.5 26.9893 123.988 26.6472Z" fill="black"/>
<path opacity="0.2" d="M123.27 27.3524C123.27 27.3524 126.804 27.7501 128.436 28.8123C126.672 28.4862 124.943 27.9975 123.27 27.3524Z" fill="black"/>
<path d="M135.858 38.6433C135.446 39.1499 134.938 39.5703 134.363 39.8805C133.789 40.1907 133.159 40.3847 132.509 40.4513C130.76 40.6186 130.181 38.9778 130.913 37.4907C131.569 36.1347 133.273 34.4488 134.905 34.9731C136.536 35.4974 136.862 37.3732 135.858 38.6433Z" fill="#AD6359"/>
<path d="M126.832 32.6046C126.728 33.0204 126.425 33.3007 126.154 33.2329C125.883 33.1651 125.747 32.7809 125.851 32.3515C125.955 31.9221 126.258 31.6554 126.529 31.7277C126.801 31.8 126.936 32.1933 126.832 32.6046Z" fill="#263238"/>
<path d="M122.416 31.5605C122.312 31.9763 122.009 32.2566 121.738 32.1842C121.467 32.1119 121.331 31.7322 121.435 31.3073C121.539 30.8825 121.842 30.6113 122.113 30.6836C122.385 30.7559 122.52 31.1446 122.416 31.5605Z" fill="#263238"/>
<path d="M123.762 32.252L122.899 35.746C122.899 35.746 121.489 35.746 120.852 34.9369C121.765 33.251 123.762 32.252 123.762 32.252Z" fill="#9B4D42"/>
<path d="M128.544 31.5876C128.584 31.5986 128.626 31.5986 128.666 31.5876C128.697 31.5752 128.725 31.5568 128.749 31.5334C128.773 31.51 128.791 31.4821 128.804 31.4513C128.817 31.4205 128.823 31.3875 128.823 31.3543C128.822 31.321 128.815 31.2882 128.802 31.2576C128.655 30.8846 128.421 30.5519 128.12 30.287C127.819 30.0222 127.46 29.8327 127.071 29.7344C127.037 29.7262 127.003 29.725 126.969 29.7308C126.934 29.7366 126.902 29.7492 126.873 29.768C126.844 29.7868 126.819 29.8113 126.8 29.8401C126.781 29.8688 126.768 29.9011 126.762 29.935C126.756 29.969 126.757 30.0038 126.764 30.0375C126.772 30.0711 126.787 30.1027 126.807 30.1305C126.828 30.1583 126.854 30.1816 126.883 30.199C126.913 30.2163 126.946 30.2275 126.98 30.2316C127.286 30.3151 127.568 30.4689 127.803 30.6809C128.039 30.8928 128.221 31.1569 128.336 31.452C128.356 31.4908 128.386 31.5238 128.422 31.5476C128.459 31.5714 128.501 31.5852 128.544 31.5876Z" fill="#E0E0E0"/>
<path d="M120.341 29.7028C120.381 29.7126 120.423 29.7124 120.464 29.7021C120.504 29.6919 120.541 29.6719 120.572 29.644C120.795 29.422 121.068 29.2559 121.368 29.1593C121.668 29.0627 121.987 29.0383 122.298 29.088C122.33 29.096 122.363 29.0976 122.395 29.0925C122.428 29.0875 122.459 29.076 122.487 29.0587C122.514 29.0414 122.539 29.0187 122.557 28.9919C122.576 28.9651 122.59 28.9348 122.596 28.9027C122.611 28.838 122.6 28.77 122.566 28.7134C122.531 28.6567 122.476 28.6159 122.411 28.5999C122.02 28.529 121.617 28.5532 121.237 28.6704C120.858 28.7876 120.511 28.9944 120.228 29.2734C120.181 29.3208 120.154 29.385 120.154 29.4519C120.154 29.5188 120.181 29.583 120.228 29.6304C120.259 29.6641 120.298 29.689 120.341 29.7028Z" fill="#E0E0E0"/>
<path d="M93.492 45.247C95.9554 43.7192 95.7023 41.1248 96.1362 39.0591C96.2131 38.7066 95.4085 38.1913 94.9339 38.6342C94.6199 38.8825 94.3589 39.1912 94.1664 39.5422C93.9738 39.8931 93.8536 40.2791 93.8129 40.6773C92.9089 40.8129 90.6083 42.0604 90.9699 44.5961C91.7027 45.1142 92.6 45.3457 93.492 45.247Z" fill="#AD6359"/>
<path d="M122.411 36.2839C122.411 36.2839 122.167 37.1879 122.886 37.3822C123.604 37.5766 125.467 36.537 126.999 37.5314C126.461 36.772 124.775 35.6872 122.411 36.2839Z" fill="#E0E0E0"/>
<path d="M121.639 36.1347C121.639 36.1347 121.517 36.9709 120.889 37.0387C120.261 37.1065 119.172 35.981 117.635 36.6997C118.176 36.2278 118.842 35.9231 119.553 35.8228C120.264 35.7225 120.989 35.8309 121.639 36.1347Z" fill="#E0E0E0"/>
<path d="M119.989 53.2022C125.865 52.6282 136.04 47.3262 131.438 45.6357C128.541 47.9364 123.673 48.854 121.381 48.8585C120.532 48.0404 120.265 45.7578 121.291 44.56C118.891 44.3566 115.876 49.202 119.989 53.2022Z" fill="#FAFAFA"/>
<path d="M121.381 48.8585C123.514 47.3895 130.272 43.8232 132.166 43.8549C132.388 44.5878 132.424 45.3647 132.27 46.1149C132.27 46.1149 129.775 48.845 121.381 48.8585Z" fill="#E0E0E0"/>
<path d="M121.381 48.8585C121.381 48.8585 121.711 44.2526 121.295 43.2808C120.946 43.4171 120.637 43.6414 120.399 43.932C120.162 44.2227 120.003 44.5698 119.939 44.9397C119.939 44.9397 120.382 48.1534 121.381 48.8585Z" fill="#E0E0E0"/>
<path d="M137.409 28.0801C134.349 28.4462 125.282 27.5919 122.317 24.1748C119.352 20.7577 121.513 18.4389 124.686 20.4141C124.686 20.4141 122.579 17.5485 125.965 18.2671C129.16 18.9451 132.944 24.4957 137.748 24.2607C141.839 24.0573 140.433 27.732 137.409 28.0801Z" fill="#E0E0E0"/>
<path d="M135.98 40.3609C134.556 41.5135 132.68 41.5542 131.79 40.4558C130.899 39.3575 131.338 37.5314 132.753 36.3878C134.167 35.2443 136.052 35.1946 136.943 36.2929C137.833 37.3913 137.399 39.2083 135.98 40.3609Z" fill="#263238"/>
<path d="M124.192 42.1237C124.03 42.062 123.888 41.9559 123.782 41.8175C123.677 41.6792 123.612 41.5141 123.596 41.3409C123.58 41.1677 123.612 40.9934 123.69 40.8378C123.767 40.6821 123.887 40.5513 124.035 40.4602C124.183 40.369 124.354 40.3212 124.528 40.3222C124.702 40.3231 124.872 40.3727 125.019 40.4654C125.166 40.5581 125.285 40.6902 125.361 40.8467C125.437 41.0032 125.467 41.1778 125.449 41.3508C125.381 41.6179 125.212 41.8482 124.978 41.9925C124.743 42.1369 124.461 42.1839 124.192 42.1237Z" fill="#263238"/>
<path d="M135.886 37.3325C135.807 37.332 135.73 37.3134 135.659 37.2781C135.589 37.2429 135.527 37.1919 135.479 37.1291C135.439 37.0763 135.409 37.016 135.392 36.9518C135.375 36.8875 135.371 36.8205 135.38 36.7546C135.389 36.6888 135.41 36.6252 135.444 36.5677C135.477 36.5102 135.521 36.4598 135.574 36.4195C136.718 35.5471 137.414 33.3775 137.314 30.9955C137.251 29.4858 136.722 25.7297 133.246 23.5104C133.19 23.4747 133.141 23.4284 133.103 23.3739C133.064 23.3194 133.037 23.2579 133.022 23.1928C133.008 23.1278 133.006 23.0605 133.017 22.9947C133.028 22.929 133.053 22.8662 133.088 22.8098C133.124 22.7534 133.17 22.7046 133.225 22.6661C133.279 22.6276 133.341 22.6003 133.406 22.5856C133.471 22.5709 133.538 22.5691 133.604 22.5805C133.67 22.5918 133.732 22.6159 133.789 22.6516C136.528 24.3963 138.187 27.4247 138.336 30.9548C138.449 33.6668 137.613 36.1257 136.198 37.206C136.112 37.2828 136.002 37.3275 135.886 37.3325Z" fill="#263238"/>
<path d="M126.711 42.1237C125.968 42.1227 125.227 42.0728 124.491 41.9746C124.458 41.9706 124.426 41.9601 124.396 41.9437C124.367 41.9272 124.342 41.9051 124.321 41.8786C124.3 41.8521 124.285 41.8217 124.276 41.7893C124.268 41.7569 124.265 41.7231 124.27 41.6898C124.28 41.6238 124.315 41.5643 124.368 41.5238C124.421 41.4833 124.488 41.465 124.555 41.4728C129.979 42.1825 133.219 39.9541 133.251 39.9315C133.306 39.8926 133.375 39.8771 133.441 39.8885C133.508 39.9 133.567 39.9374 133.606 39.9925C133.645 40.0477 133.66 40.116 133.649 40.1826C133.637 40.2491 133.6 40.3084 133.545 40.3474C133.427 40.4332 130.977 42.1237 126.711 42.1237Z" fill="#263238"/>
<path d="M112.052 79.0566V78.2611H111.686L111.876 77.2351H111.148L110.963 78.2611H110.38L110.57 77.2351H109.824L109.697 77.9357V81.5878H109.792L109.978 80.5799H110.556L110.371 81.5878H111.108L111.293 80.5799H112.052V79.7844H111.41L111.546 79.0566H112.052ZM110.696 79.7844H110.122L110.258 79.0566H110.827L110.696 79.7844Z" fill="white"/>
<path d="M114.854 77.2305V81.52H113.779V78.7086C113.624 78.8447 113.456 78.9644 113.277 79.0657C113.08 79.1687 112.874 79.2549 112.662 79.3233V78.356C112.97 78.2611 113.257 78.1076 113.507 77.904C113.705 77.7163 113.859 77.4881 113.959 77.2351L114.854 77.2305Z" fill="white"/>
<path d="M153.563 84.3901H24.1377V87.9112H153.563V84.3901Z" fill="#FBC02D"/>
<path opacity="0.5" d="M153.563 84.3901H24.1377V87.9112H153.563V84.3901Z" fill="white"/>
<path opacity="0.5" d="M153.564 84.3901H124.094V87.9112H153.564V84.3901Z" fill="white"/>
<path d="M123.573 87.9067H124.088V84.3857H123.573V87.9067Z" fill="white"/>
<path d="M151.362 87.9113L155.267 153.465H153.717L149.03 90.2526H128.622L123.939 153.465H122.389L126.289 87.9113H151.362Z" fill="#FBC02D"/>
<path opacity="0.5" d="M151.362 87.9113L155.267 153.465H153.717L149.03 90.2526H128.622L123.939 153.465H122.389L126.289 87.9113H151.362Z" fill="white"/>
<path d="M51.5152 87.9113L55.4205 153.465H53.8701L49.1874 90.2526H28.7751L24.0924 153.465H22.542L26.4473 87.9113H51.5152Z" fill="#FBC02D"/>
<path opacity="0.2" d="M51.5152 87.9113L55.4205 153.465H53.8701L49.1874 90.2526H28.7751L24.0924 153.465H22.542L26.4473 87.9113H51.5152Z" fill="white"/>
<path d="M82.6537 75.2688H34.9858L30.6602 46.3544H78.3326L82.6537 75.2688Z" fill="#FBC02D"/>
<path opacity="0.3" d="M56.1162 75.2688H62.6747L61.1063 61.9438L59.0813 67.5577L56.1162 75.2688Z" fill="black"/>
<path opacity="0.3" d="M82.6532 75.2688H82.1063L77.7852 46.3544H78.3321L82.6532 75.2688Z" fill="black"/>
<path d="M65.364 83.1652H52.3916V84.3902H66.485L65.364 83.1652Z" fill="#FBC02D"/>
<path opacity="0.3" d="M65.364 83.1652H52.3916V84.3902H66.485L65.364 83.1652Z" fill="black"/>
<path d="M54.0737 66.726L53.8929 68.0594H53.3505C53.0817 68.0599 52.8218 68.1555 52.6166 68.3292C52.4115 68.5029 52.2744 68.7436 52.2296 69.0086L51.1131 75.8202C51.0863 75.9825 51.095 76.1486 51.1387 76.3071C51.1824 76.4656 51.26 76.6127 51.3662 76.7383C51.4724 76.8638 51.6046 76.9648 51.7537 77.0341C51.9028 77.1035 52.0652 77.1397 52.2296 77.1401H52.6816V77.687H49.6758V66.726H54.0737Z" fill="#FBC02D"/>
<path opacity="0.3" d="M54.0737 66.726L53.8929 68.0594H53.3505C53.0817 68.0599 52.8218 68.1555 52.6166 68.3292C52.4115 68.5029 52.2744 68.7436 52.2296 69.0086L51.1131 75.8202C51.0863 75.9825 51.095 76.1486 51.1387 76.3071C51.1824 76.4656 51.26 76.6127 51.3662 76.7383C51.4724 76.8638 51.6046 76.9648 51.7537 77.0341C51.9028 77.1035 52.0652 77.1397 52.2296 77.1401H52.6816V77.687H49.6758V66.726H54.0737Z" fill="black"/>
<path d="M49.6754 60.8138L45.8018 84.3902H57.7662L61.6398 60.8138H49.6754ZM56.3062 69.3792L55.1853 76.1864C55.1424 76.4519 55.0066 76.6935 54.8022 76.8682C54.5977 77.0429 54.3378 77.1392 54.0688 77.1401H51.7591C51.5946 77.1396 51.4321 77.1034 51.2828 77.034C51.1336 76.9647 51.0011 76.8638 50.8946 76.7384C50.7881 76.613 50.71 76.4659 50.6657 76.3074C50.6214 76.1489 50.612 75.9827 50.6382 75.8202L51.7591 69.0086C51.8031 68.7432 51.9399 68.502 52.1453 68.3281C52.3506 68.1542 52.611 68.059 52.8801 68.0594H55.1853C55.3512 68.0572 55.5156 68.0914 55.6669 68.1596C55.8182 68.2278 55.9527 68.3284 56.0609 68.4543C56.1691 68.5801 56.2483 68.7282 56.2931 68.888C56.3378 69.0478 56.3469 69.2155 56.3198 69.3792H56.3062Z" fill="#FBC02D"/>
<path opacity="0.3" d="M57.7797 84.3902L57.2012 84.3133L61.0613 60.8138H61.6534L57.7797 84.3902Z" fill="black"/>
<path opacity="0.3" d="M56.1389 55.0283H55.4473L54.5479 49.0167H55.2394L56.1389 55.0283Z" fill="black"/>
<path opacity="0.3" d="M57.427 55.0283H56.7309L55.8359 49.0167H56.5275L57.427 55.0283Z" fill="black"/>
<path opacity="0.3" d="M58.7157 55.0283H58.0196L57.1201 49.0167H57.8162L58.7157 55.0283Z" fill="black"/>
<path opacity="0.3" d="M60.0038 55.0283H59.3077L58.4082 49.0167H59.1043L60.0038 55.0283Z" fill="black"/>
<path opacity="0.3" d="M61.2873 55.0283H60.5958L59.6963 49.0167H60.3924L61.2873 55.0283Z" fill="black"/>
<path opacity="0.3" d="M54.8508 55.0283H54.1592L53.2598 49.0167H53.9513L54.8508 55.0283Z" fill="black"/>
<path opacity="0.3" d="M53.5627 55.0283H52.8712L51.9717 49.0167H52.6678L53.5627 55.0283Z" fill="black"/>
<path opacity="0.3" d="M52.2746 55.0283H51.5831L50.6836 49.0167H51.3797L52.2746 55.0283Z" fill="black"/>
<path opacity="0.3" d="M50.9911 55.0283H50.295L49.3955 49.0167H50.0916L50.9911 55.0283Z" fill="black"/>
</svg>
