<svg width="500" height="500" viewBox="0 0 500 500" fill="none" xmlns="http://www.w3.org/2000/svg">
<path d="M278.438 462.06C261.198 453.9 254.328 434.5 251.898 416.43C251.488 413.43 250.628 410.31 251.608 407.43C252.588 404.55 255.608 402.2 258.508 403.01C260.918 403.68 262.328 406.1 263.938 408.01C266.079 410.587 268.909 412.501 272.098 413.53C274.178 414.2 276.648 414.41 278.358 413.05C280.698 411.18 280.358 407.56 279.878 404.58C278.898 399.053 277.938 393.527 276.998 388C276.32 385.051 276.121 382.012 276.408 379C276.848 376 278.458 373 281.158 371.76C283.858 370.52 287.648 371.53 288.738 374.35C289.059 375.563 289.3 376.795 289.458 378.04C289.748 379.27 290.558 380.54 291.788 380.69C293.018 380.84 294.088 379.79 294.838 378.76C297.398 375.23 298.838 371 300.138 366.81C301.438 362.62 302.658 358.35 304.898 354.59C307.138 350.83 310.558 347.59 314.788 346.59C319.018 345.59 324.018 347.49 325.788 351.5C327.558 355.51 325.848 360.2 323.788 364.06C320.659 369.776 316.722 375.01 312.098 379.6C311.176 380.335 310.51 381.343 310.198 382.48C309.888 384.58 312.108 386.24 314.198 386.56C316.538 386.92 318.918 386.28 321.288 386.16C323.658 386.04 326.348 386.64 327.608 388.69C329.338 391.53 327.328 395.16 325.178 397.69C320.859 402.73 315.708 406.992 309.948 410.29C307.888 411.46 305.698 412.56 304.188 414.4C302.678 416.24 302.068 419.1 303.488 421.02C304.908 422.94 307.778 423.15 309.998 422.33C312.218 421.51 314.068 419.92 316.118 418.73C319.958 416.49 325.298 415.87 328.528 418.97C329.535 420.054 330.277 421.357 330.695 422.776C331.114 424.196 331.197 425.693 330.938 427.15C330.406 430.052 329.294 432.818 327.668 435.28C322.489 444.182 315.043 451.553 306.088 456.64C297.138 461.54 288.478 463.93 278.448 462.07" fill="#F5F5F5"/>
<path d="M281.168 450C282.494 439.709 284.411 429.502 286.908 419.43L288.828 411.5C289.458 408.89 290.088 406.31 290.828 403.83C292.323 399.07 294.079 394.397 296.088 389.83C297.978 385.45 299.928 381.35 301.778 377.54C303.628 373.73 305.438 370.21 307.218 367.08C309.996 362.116 313.167 357.381 316.698 352.92C317.948 351.34 318.958 350.15 319.648 349.35C319.978 348.97 320.248 348.67 320.438 348.44C320.628 348.21 320.718 348.14 320.728 348.15C320.656 348.265 320.575 348.376 320.488 348.48L319.728 349.42C319.068 350.24 318.088 351.42 316.868 353.05C313.414 357.554 310.302 362.311 307.558 367.28C305.808 370.42 304.028 373.94 302.188 377.75C300.348 381.56 298.428 385.66 296.558 390.04C294.567 394.607 292.831 399.281 291.358 404.04C290.588 406.51 289.968 409.04 289.358 411.68L287.438 419.62C284.946 429.671 283.02 439.854 281.668 450.12" fill="#E0E0E0"/>
<path d="M291 403.79C290.783 403.401 290.612 402.988 290.49 402.56C290.19 401.77 289.8 400.56 289.34 399.15C288.42 396.25 287.28 392.2 286.04 387.74C284.8 383.28 283.61 379.25 282.64 376.38C282.16 374.94 281.76 373.77 281.48 372.98C281.312 372.569 281.181 372.144 281.09 371.71C281.331 372.083 281.529 372.482 281.68 372.9C282.03 373.67 282.48 374.82 283.01 376.24C284.08 379.1 285.33 383.11 286.58 387.59C287.83 392.07 288.88 395.99 289.72 399.03C290.11 400.41 290.43 401.57 290.72 402.5C290.851 402.921 290.944 403.353 291 403.79Z" fill="#E0E0E0"/>
<path d="M328.147 390.13C327.663 390.332 327.161 390.482 326.647 390.58C325.647 390.83 324.277 391.19 322.557 391.69C319.107 392.69 314.397 394.17 309.267 396.07C304.137 397.97 299.567 399.9 296.267 401.38C294.627 402.11 293.317 402.74 292.407 403.17C291.949 403.419 291.471 403.626 290.977 403.79C291.39 403.471 291.836 403.196 292.307 402.97C293.187 402.48 294.477 401.8 296.097 400.97C299.327 399.39 303.887 397.4 309.027 395.49C313.413 393.849 317.883 392.437 322.417 391.26C324.157 390.8 325.577 390.5 326.567 390.31C327.086 390.201 327.615 390.141 328.147 390.13Z" fill="#E0E0E0"/>
<path d="M281.516 449.23C281.388 449.099 281.274 448.955 281.176 448.8L280.286 447.53C279.516 446.41 278.446 444.78 277.156 442.74C274.556 438.66 271.156 432.91 267.486 426.51C263.816 420.11 260.486 414.34 257.956 410.22L254.956 405.33L254.156 404C254.051 403.853 253.966 403.691 253.906 403.52C253.906 403.52 254.036 403.65 254.246 403.94C254.456 404.23 254.786 404.7 255.136 405.22C255.906 406.33 256.976 407.96 258.276 410.01C260.866 414.09 264.276 419.83 267.946 426.23C271.616 432.63 274.946 438.4 277.466 442.53L280.466 447.41C280.786 447.94 281.056 448.41 281.266 448.74C281.374 448.89 281.458 449.055 281.516 449.23Z" fill="#E0E0E0"/>
<path d="M329.697 424.18C329.556 424.303 329.397 424.404 329.227 424.48L327.837 425.22L322.677 427.91C318.317 430.19 312.337 433.4 305.737 436.91C299.137 440.42 293.127 443.63 288.737 445.81C286.537 446.9 284.737 447.81 283.497 448.34L281.997 449C281.832 449.087 281.657 449.155 281.477 449.2C281.62 449.08 281.778 448.979 281.947 448.9L283.347 448.16L288.507 445.46C292.857 443.19 298.837 439.98 305.437 436.46C312.037 432.94 318.057 429.75 322.437 427.57C324.637 426.48 326.437 425.57 327.677 425.04L329.117 424.38C329.298 424.284 329.494 424.216 329.697 424.18Z" fill="#E0E0E0"/>
<path d="M153.399 247.41C153.399 247.41 141.519 249.06 148.189 275.08C154.859 301.1 160.519 314.52 160.519 314.52C160.519 314.52 161.409 320.41 156.659 320.23C151.909 320.05 142.219 316.23 138.929 321.32C135.529 326.64 138.509 333.04 145.929 339.75C153.349 346.46 169.169 361.75 170.589 363.14C172.009 364.53 173.049 367.39 169.789 367.78C166.529 368.17 143.409 365.46 142.789 376.51C142.169 387.56 165.999 402.84 168.569 404.56C171.139 406.28 171.569 407.62 170.969 409.12C170.369 410.62 162.709 408.97 156.099 408.46C149.489 407.95 141.729 408.54 141.899 414.94C142.069 421.34 154.589 437.54 191.089 449.58L208.379 454.05L221.149 441.47C246.849 412.88 249.659 392.61 246.629 386.97C243.599 381.33 236.629 384.68 231.089 388.4C225.549 392.12 219.749 397.4 218.509 396.4C217.269 395.4 216.949 394.02 218.329 391.25C219.709 388.48 232.799 363.38 226.759 354.1C220.719 344.82 201.999 358.64 198.999 359.91C195.999 361.18 195.459 358.16 195.999 356.28C196.539 354.4 202.639 333.28 205.779 323.73C208.919 314.18 208.319 307.16 202.719 304.24C197.319 301.43 190.829 309.59 186.789 312.11C182.749 314.63 180.609 309.11 180.609 309.11C180.609 309.11 178.849 294.66 171.709 268.76C164.569 242.86 153.179 247.5 153.179 247.5" fill="#EBEBEB"/>
<path d="M208.369 458.35C203.199 439.35 194.569 405.35 187.019 376.16C179.469 346.97 172.609 320.65 167.529 301.59C164.989 292.07 162.929 284.37 161.529 279.02C160.829 276.37 160.279 274.3 159.899 272.88L159.479 271.28C159.389 270.92 159.359 270.73 159.359 270.73C159.359 270.73 159.429 270.9 159.539 271.26C159.649 271.62 159.799 272.17 159.999 272.85C160.409 274.27 160.999 276.32 161.739 278.96C163.239 284.27 165.359 291.96 167.939 301.48C173.109 320.48 180.039 346.89 187.589 376.02C195.139 405.15 203.699 439.18 208.779 458.24" fill="#E0E0E0"/>
<path d="M152.27 327.26C152.669 327.425 153.051 327.629 153.41 327.87C154.12 328.29 155.14 328.93 156.41 329.73C158.9 331.34 162.29 333.65 165.98 336.26L175.4 342.98L178.27 344.98C178.631 345.205 178.967 345.47 179.27 345.77C178.866 345.607 178.481 345.403 178.12 345.16C177.41 344.74 176.39 344.1 175.12 343.29C172.65 341.66 169.29 339.29 165.6 336.69L156.13 330.04L153.25 328.04C152.896 327.816 152.567 327.554 152.27 327.26Z" fill="#E0E0E0"/>
<path d="M180.718 344.94C180.588 344.86 185.038 337.67 190.648 328.88C196.258 320.09 200.928 313.03 201.058 313.11C201.188 313.19 196.738 320.39 191.118 329.18C185.498 337.97 180.848 345 180.718 344.94Z" fill="#E0E0E0"/>
<path d="M190.297 390.22C190.574 389.875 190.893 389.566 191.247 389.3L193.937 386.94C196.207 384.94 199.337 382.18 202.677 379C206.017 375.82 208.957 372.85 211.057 370.68C212.057 369.68 212.877 368.79 213.547 368.11C213.85 367.775 214.185 367.47 214.547 367.2C214.325 367.582 214.057 367.935 213.747 368.25C213.207 368.9 212.397 369.82 211.377 370.94C209.377 373.19 206.457 376.22 203.097 379.4C199.737 382.58 196.577 385.32 194.237 387.24C193.057 388.24 192.097 388.96 191.417 389.47C191.072 389.761 190.697 390.012 190.297 390.22Z" fill="#E0E0E0"/>
<path d="M161.047 379.89C161.451 379.938 161.847 380.036 162.227 380.18L165.397 381.18C168.057 382.03 171.727 383.24 175.767 384.6C179.807 385.96 183.457 387.24 186.087 388.19L189.197 389.33C189.584 389.451 189.956 389.615 190.307 389.82C189.903 389.779 189.506 389.685 189.127 389.54L185.957 388.54C183.297 387.69 179.627 386.48 175.587 385.11C171.547 383.74 167.897 382.47 165.267 381.53L162.157 380.38C161.767 380.267 161.393 380.102 161.047 379.89Z" fill="#E0E0E0"/>
<path d="M164.43 420.94C164.944 421.017 165.45 421.144 165.94 421.32L170 422.56C173.42 423.63 178.13 425.14 183.33 426.85C188.53 428.56 193.22 430.12 196.61 431.29L200.61 432.69C201.107 432.849 201.592 433.047 202.06 433.28C201.542 433.204 201.033 433.077 200.54 432.9L196.48 431.66C193.06 430.59 188.35 429.08 183.15 427.37C177.95 425.66 173.26 424.09 169.88 422.93L165.88 421.52C165.38 421.371 164.895 421.177 164.43 420.94Z" fill="#E0E0E0"/>
<path d="M201.238 432.73C201.59 432.298 201.982 431.899 202.408 431.54L205.718 428.43C208.508 425.8 212.348 422.15 216.478 418C220.608 413.85 224.258 410 226.878 407.2L229.978 403.88C230.343 403.456 230.741 403.061 231.168 402.7C230.877 403.17 230.542 403.612 230.168 404.02C229.488 404.85 228.468 406.02 227.168 407.46C224.618 410.34 221.018 414.24 216.868 418.39C212.718 422.54 208.868 426.16 205.988 428.72C204.548 429.99 203.378 431.02 202.548 431.72C202.14 432.093 201.702 432.43 201.238 432.73Z" fill="#E0E0E0"/>
<path d="M101.797 92.24L92.0372 89.24C92.0372 89.24 89.4772 97.44 80.9172 94.93C79.26 94.4737 77.7857 93.5135 76.6982 92.1824C75.6107 90.8512 74.9639 89.215 74.8472 87.5C74.7191 86.0539 74.9381 84.598 75.486 83.2535C76.0338 81.909 76.8948 80.7147 77.9972 79.77C80.5072 77.55 84.9072 76.2 91.1172 79.41L97.9872 57.41L88.3372 54.41L84.3372 67.3C84.3372 67.3 69.6972 66.57 65.0472 81.48C60.5972 95.75 72.3572 103.06 77.8372 104.77C81.9972 106.07 96.6072 109.51 101.797 92.24Z" fill="#F5F5F5"/>
<path d="M89.6472 49.831L99.4414 52.8872L102.295 43.7421L92.5008 40.6859L89.6472 49.831Z" fill="#F5F5F5"/>
<path d="M128.728 67.4L132.638 66.4C132.519 65.9559 132.49 65.4924 132.553 65.037C132.616 64.5816 132.771 64.1435 133.007 63.7489C133.243 63.3543 133.556 63.0112 133.927 62.7399C134.298 62.4687 134.72 62.2748 135.168 62.17C135.819 61.9733 136.516 61.9841 137.161 62.2009C137.806 62.4177 138.368 62.8298 138.768 63.38C139.108 63.8368 139.335 64.3676 139.43 64.929C139.526 65.4903 139.488 66.0664 139.318 66.61C138.948 67.88 137.758 69.26 134.998 69.49L137.328 78.3L141.188 77.3L139.828 72.14C141.292 71.2571 142.425 69.9172 143.052 68.327C143.679 66.7367 143.765 64.9843 143.298 63.34C141.798 57.62 136.298 57.65 134.128 58.22C132.448 58.61 126.838 60.52 128.728 67.4Z" fill="#EBEBEB"/>
<path d="M142.551 78.5848L138.613 79.6404L139.599 83.3167L143.537 82.2611L142.551 78.5848Z" fill="#EBEBEB"/>
<path d="M451.539 168.61L455.339 169.98C455.498 169.55 455.742 169.156 456.056 168.821C456.37 168.486 456.748 168.218 457.168 168.032C457.587 167.845 458.039 167.745 458.498 167.736C458.957 167.727 459.413 167.81 459.839 167.98C460.479 168.186 461.04 168.585 461.445 169.122C461.849 169.659 462.078 170.308 462.099 170.98C462.123 171.554 462.01 172.124 461.77 172.646C461.53 173.167 461.17 173.625 460.719 173.98C459.719 174.81 457.929 175.26 455.529 173.88L452.419 182.45L456.179 183.81L457.999 178.81C459.706 178.916 461.4 178.458 462.822 177.508C464.243 176.558 465.314 175.167 465.869 173.55C467.869 167.99 463.359 164.9 461.229 164.13C459.599 163.49 453.899 161.88 451.539 168.61Z" fill="#EBEBEB"/>
<path d="M455.614 185.547L451.797 184.165L450.506 187.728L454.324 189.111L455.614 185.547Z" fill="#EBEBEB"/>
<path d="M48.2582 212.13L56.2582 209.03C56.2582 209.03 53.6582 202.28 60.6282 199.45C61.9622 198.886 63.4384 198.749 64.8533 199.059C66.2682 199.369 67.5522 200.11 68.5282 201.18C69.3586 202.07 69.9671 203.143 70.3042 204.313C70.6413 205.482 70.6975 206.715 70.4682 207.91C69.9682 210.69 67.7682 213.91 61.9782 215.02L68.9782 233.15L76.9782 230.09L72.8782 219.47C72.8782 219.47 82.8782 212.29 78.1882 199.99C73.6382 188.23 61.9982 189.57 57.5282 191.3C54.0782 192.63 42.6382 198 48.2582 212.13Z" fill="#F5F5F5"/>
<path d="M78.4936 233.78L70.4219 236.89L73.3267 244.43L81.3984 241.32L78.4936 233.78Z" fill="#F5F5F5"/>
<path d="M454.669 242.64L448.969 244.83C448.969 244.83 450.809 249.62 445.869 251.62C444.923 252.015 443.879 252.11 442.877 251.892C441.875 251.674 440.965 251.153 440.269 250.4C439.681 249.769 439.25 249.008 439.012 248.179C438.774 247.35 438.735 246.477 438.899 245.63C439.259 243.63 440.819 241.39 444.899 240.63L439.999 227.74L434.359 229.91L437.259 237.44C435.207 239.01 433.727 241.211 433.047 243.705C432.368 246.198 432.527 248.846 433.499 251.24C436.709 259.57 444.929 258.63 448.129 257.4C450.549 256.45 458.649 252.65 454.669 242.64Z" fill="#F5F5F5"/>
<path d="M433.241 227.298L438.961 225.094L436.905 219.757L431.184 221.96L433.241 227.298Z" fill="#F5F5F5"/>
<path d="M92.6407 437.8C93.6407 434.12 91.1707 430.43 88.4707 427.8C85.7707 425.17 82.5407 422.75 81.1307 419.22C78.8507 413.5 81.9107 406.1 78.0307 401.33C75.7407 398.53 71.6407 397.59 69.6107 394.59C68.6721 392.936 68.0514 391.122 67.7807 389.24C65.6229 379.739 60.9497 370.994 54.2507 363.92C53.7991 372.382 55.6332 380.81 59.5607 388.32C61.1307 391.32 63.0707 394.24 63.5607 397.59C64.4107 403.02 61.3707 408.59 62.7107 413.95C64.2407 420.05 71.0907 424.14 71.4107 430.42C71.6907 435.73 67.0607 440.42 67.4107 445.7C67.6911 447.961 68.5108 450.122 69.8007 452C73.9007 458.83 79.9407 463.53 89.0807 463.38L100.281 463.77L92.6407 437.8Z" fill="#FBC02D"/>
<g opacity="0.3">
<path opacity="0.3" d="M92.6407 437.8C93.6407 434.12 91.1707 430.43 88.4707 427.8C85.7707 425.17 82.5407 422.75 81.1307 419.22C78.8507 413.5 81.9107 406.1 78.0307 401.33C75.7407 398.53 71.6407 397.59 69.6107 394.59C68.6721 392.936 68.0514 391.122 67.7807 389.24C65.6229 379.739 60.9497 370.994 54.2507 363.92C53.7991 372.382 55.6332 380.81 59.5607 388.32C61.1307 391.32 63.0707 394.24 63.5607 397.59C64.4107 403.02 61.3707 408.59 62.7107 413.95C64.2407 420.05 71.0907 424.14 71.4107 430.42C71.6907 435.73 67.0607 440.42 67.4107 445.7C67.6911 447.961 68.5108 450.122 69.8007 452C73.9007 458.83 79.9407 463.53 89.0807 463.38L100.281 463.77L92.6407 437.8Z" fill="black"/>
</g>
<path d="M102.541 464C103.567 464.158 104.612 464.138 105.631 463.94C106.868 463.752 108.084 463.444 109.261 463.02C110.887 462.455 112.408 461.623 113.761 460.56C114.576 459.905 115.212 459.056 115.611 458.09C115.946 457.008 116.121 455.883 116.131 454.75C116.154 453.539 116.244 452.331 116.401 451.13C116.612 449.852 117.074 448.628 117.761 447.53C119.081 445.21 121.281 443.01 121.981 439.86C122.681 436.71 122.201 433.41 121.681 430.05C121.161 426.69 120.681 423.05 121.941 419.53C123.201 416.01 125.601 412.86 126.831 408.92C128.061 404.98 127.481 400.64 127.741 396.41C127.818 394.261 128.314 392.148 129.201 390.19C130.101 388.19 131.361 386.34 132.341 384.26C134.341 380.04 134.681 375.26 135.221 370.57C135.491 368.21 135.751 365.82 136.021 363.42C136.191 360.993 136.61 358.591 137.271 356.25C138.03 353.89 138.925 351.576 139.951 349.32C140.48 348.153 140.914 346.946 141.251 345.71C141.44 344.431 141.56 343.142 141.611 341.85C141.73 339.263 141.63 336.67 141.311 334.1C141.011 331.52 140.541 328.96 140.261 326.37C140.261 326.21 140.261 326.06 140.261 325.92L140.201 325.41L139.751 325.63C137.387 326.843 135.334 328.585 133.751 330.72C132.199 332.811 130.95 335.11 130.041 337.55C128.171 342.36 127.501 347.4 126.561 352.21C125.621 357.02 124.421 361.75 121.961 365.75C120.731 367.75 119.241 369.57 117.961 371.51C116.571 373.403 115.621 375.583 115.181 377.89C114.511 382.63 117.121 386.79 116.581 390.99C116.338 393.047 115.656 395.028 114.581 396.8C113.581 398.59 112.371 400.25 111.231 401.91C110.076 403.538 109.072 405.269 108.231 407.08C107.44 408.853 106.973 410.753 106.851 412.69C106.581 416.47 107.111 420.05 106.851 423.43C106.539 426.651 105.598 429.781 104.081 432.64C102.731 435.39 101.221 437.88 99.9612 440.3C99.3312 441.5 98.7412 442.68 98.2612 443.87C97.8069 445.012 97.4718 446.199 97.2612 447.41C96.9265 449.525 96.8995 451.677 97.1812 453.8C97.475 456.76 98.5825 459.581 100.381 461.95C100.656 462.308 100.961 462.643 101.291 462.95C101.512 463.182 101.757 463.39 102.021 463.57C102.441 463.88 102.661 464.02 102.661 464.02C101.862 463.388 101.134 462.67 100.491 461.88C98.7743 459.502 97.7372 456.702 97.4911 453.78C97.2365 451.684 97.2837 449.562 97.6311 447.48C97.8417 446.298 98.1769 445.141 98.6311 444.03C99.1378 442.827 99.7087 441.652 100.341 440.51C101.611 438.11 103.131 435.63 104.511 432.86C106.073 429.956 107.045 426.771 107.371 423.49C107.671 420.04 107.151 416.44 107.431 412.76C107.56 410.885 108.017 409.047 108.781 407.33C109.627 405.556 110.631 403.863 111.781 402.27C112.921 400.61 114.131 398.95 115.171 397.12C116.313 395.281 117.043 393.217 117.311 391.07C117.851 386.6 115.261 382.42 115.931 378.01C116.369 375.804 117.288 373.721 118.621 371.91C119.891 370 121.391 368.18 122.621 366.13C125.171 362.02 126.401 357.2 127.331 352.37C128.261 347.54 128.951 342.54 130.791 337.82C131.676 335.448 132.891 333.212 134.401 331.18C135.923 329.131 137.898 327.461 140.171 326.3L139.661 326.01C139.661 326.16 139.661 326.31 139.711 326.47C139.991 329.09 140.461 331.65 140.711 334.21C141.027 336.74 141.124 339.293 141.001 341.84C140.951 343.091 140.837 344.34 140.661 345.58C140.338 346.776 139.917 347.943 139.401 349.07C138.369 351.35 137.468 353.687 136.701 356.07C136.035 358.447 135.612 360.887 135.441 363.35C135.181 365.76 134.911 368.15 134.651 370.51C134.111 375.22 133.761 379.92 131.851 383.99C130.851 385.99 129.651 387.9 128.721 389.94C127.806 391.972 127.296 394.163 127.221 396.39C126.971 400.71 127.531 404.94 126.361 408.76C125.191 412.58 122.761 415.76 121.531 419.37C120.301 422.98 120.751 426.8 121.291 430.15C121.831 433.5 122.371 436.8 121.651 439.77C120.931 442.74 118.871 444.96 117.531 447.34C116.825 448.486 116.352 449.76 116.141 451.09C115.99 452.304 115.91 453.526 115.901 454.75C115.903 455.854 115.741 456.953 115.421 458.01C115.051 458.926 114.456 459.734 113.691 460.36C112.374 461.422 110.891 462.26 109.301 462.84C108.139 463.288 106.937 463.623 105.711 463.84C104.962 463.976 104.203 464.05 103.441 464.06C102.811 464 102.541 464 102.541 464Z" fill="#263238"/>
<path d="M137.92 332.1C137.867 332.207 137.83 332.322 137.81 332.44L137.57 333.44C137.35 334.33 137.08 335.66 136.66 337.32C136.24 338.98 135.21 340.86 134.34 343.17C133.321 345.77 132.434 348.42 131.68 351.11C130.82 354.11 130.07 357.41 129.27 360.97C128.59 364.762 127.386 368.441 125.69 371.9C124.77 373.72 123.69 375.56 122.92 377.58C122.113 379.643 121.572 381.8 121.31 384C120.742 388.556 119.934 393.079 118.89 397.55C116.65 406.72 114.51 415.46 112.56 423.42C110.61 431.38 108.77 438.5 107.25 444.52C105.73 450.54 104.58 455.34 103.74 458.77C103.35 460.41 103.04 461.7 102.82 462.65C102.73 463.06 102.65 463.39 102.59 463.65C102.579 463.766 102.579 463.884 102.59 464C102.648 463.896 102.692 463.785 102.72 463.67C102.79 463.4 102.89 463.08 103.01 462.67C103.26 461.74 103.61 460.45 104.06 458.82C104.96 455.42 106.23 450.59 107.8 444.64C109.37 438.69 111.2 431.49 113.25 423.58C115.3 415.67 117.38 406.87 119.64 397.69C120.677 393.207 121.465 388.67 122 384.1C122.256 381.953 122.78 379.846 123.56 377.83C124.35 375.83 125.36 374.04 126.28 372.2C128.28 368.55 129.07 364.63 129.86 361.1C130.65 357.57 131.35 354.23 132.17 351.25C132.99 348.27 133.85 345.61 134.71 343.31C135.57 341.01 136.52 339.11 136.93 337.39C137.34 335.67 137.53 334.39 137.71 333.47C137.777 333.057 137.837 332.723 137.89 332.47C137.92 332.22 137.94 332.1 137.92 332.1Z" fill="#263238"/>
<path d="M104.519 464.05C111.829 459.7 113.929 446.5 110.879 438.56C107.829 430.62 102.489 423.36 101.669 414.89C101.029 408.38 103.169 401.7 101.669 395.34C99.6191 386.75 91.2391 380.1 91.3391 371.27C91.3891 366.32 94.2091 361.66 93.9791 356.71C93.7091 350.65 89.0491 345.83 86.1691 340.49C81.7491 332.3 81.4591 322.63 79.9491 313.49C78.4391 304.35 74.9491 294.49 66.8091 289.98C65.6091 297.77 63.5591 303.11 64.1991 313.66C64.4391 317.45 68.8391 324.66 69.4391 333.01C69.7991 338.01 70.0391 342.95 70.3491 347.91C70.6591 352.87 70.9591 357.67 72.6891 362.19C74.0191 365.66 76.1491 368.81 77.1391 372.39C78.9891 379.12 76.5491 386.39 78.0491 393.23C79.3191 399.01 83.3191 403.98 84.1391 409.84C85.2791 418.07 79.9591 426.63 82.6791 434.48C84.0391 438.38 87.2391 441.48 88.1491 445.53C88.8591 448.65 88.0891 451.96 88.7291 455.09C89.7291 460.15 99.3891 464.09 104.539 463.76" fill="#FBC02D"/>
<path d="M68.811 297.67C68.7974 297.816 68.7974 297.964 68.811 298.11C68.811 298.44 68.911 298.86 68.971 299.39C69.141 300.52 69.331 302.17 69.711 304.31C70.091 306.45 71.231 308.87 72.111 311.79C72.991 314.71 73.971 318.05 74.791 321.79C75.611 325.53 76.331 329.7 77.061 334.17C77.791 338.64 78.591 343.51 80.811 348.17C81.811 350.5 82.991 352.84 83.811 355.34C84.6512 357.899 85.1685 360.553 85.351 363.24C85.7598 368.941 86.4776 374.616 87.501 380.24C89.741 391.78 91.871 402.77 93.811 412.78C95.751 422.79 97.701 431.72 99.261 439.28C100.821 446.84 102.101 452.88 102.991 457.14L103.991 461.99C104.111 462.51 104.201 462.92 104.281 463.24C104.308 463.387 104.348 463.53 104.401 463.67C104.419 463.524 104.419 463.376 104.401 463.23C104.341 462.9 104.271 462.49 104.181 461.96C103.961 460.8 103.651 459.16 103.261 457.08C102.421 452.81 101.261 446.71 99.751 439.18C98.241 431.65 96.451 422.62 94.461 412.65C92.471 402.68 90.461 391.65 88.211 380.12C87.1869 374.496 86.4659 368.821 86.051 363.12C85.8607 360.377 85.3265 357.669 84.461 355.06C83.571 352.52 82.401 350.17 81.371 347.85C79.171 343.26 78.371 338.47 77.611 334.02C76.851 329.57 76.121 325.39 75.251 321.63C74.381 317.87 73.431 314.51 72.451 311.63C71.471 308.75 70.381 306.31 69.941 304.22C69.501 302.13 69.291 300.45 69.081 299.34C68.981 298.82 68.901 298.4 68.841 298.07C68.8389 297.936 68.8289 297.803 68.811 297.67Z" fill="#263238"/>
<path d="M421.47 88.77H417.47C417.473 89.2237 417.384 89.6733 417.21 90.0922C417.036 90.5111 416.779 90.8908 416.456 91.2088C416.132 91.5268 415.748 91.7766 415.326 91.9435C414.904 92.1103 414.453 92.1907 414 92.18C413.33 92.204 412.669 92.0185 412.11 91.6492C411.551 91.2799 411.121 90.7453 410.88 90.12C410.669 89.5992 410.585 89.036 410.633 88.4764C410.682 87.9167 410.862 87.3766 411.16 86.9C411.84 85.78 413.32 84.77 416 85.24V76.24H412.07V81.5C410.457 81.9747 409.045 82.9655 408.049 84.3204C407.054 85.6752 406.531 87.3191 406.56 89C406.56 94.82 411.78 96.17 414.02 96.17C415.73 96.21 421.55 95.8 421.47 88.77Z" fill="#FBC02D"/>
<path d="M412.041 74.4199H416.031V70.6899H412.041V74.4199Z" fill="#FBC02D"/>
<path d="M443.279 83.4499C443.293 83.2802 443.293 83.1097 443.279 82.9399C443.279 82.5799 443.279 82.0899 443.279 81.4599C443.279 81.1399 443.279 80.7699 443.229 80.3699C443.179 79.9699 443.119 79.5299 443.049 79.0699C442.979 78.6099 442.909 78.0699 442.829 77.5399L442.409 75.8399C441.667 72.9123 440.451 70.1256 438.809 67.5899C436.426 63.8347 433.214 60.676 429.419 58.3564C425.624 56.0369 421.348 54.6184 416.919 54.2099C415.589 54.0925 414.253 54.0658 412.919 54.1299C412.249 54.1299 411.559 54.1299 410.919 54.2599L408.859 54.5699C406.033 55.0953 403.298 56.0283 400.739 57.3399C398.069 58.7532 395.614 60.5413 393.449 62.6499C391.233 64.8958 389.381 67.4734 387.959 70.2899C386.43 73.1937 385.427 76.3459 384.999 79.5999C384.874 80.4244 384.804 81.2562 384.789 82.0899C384.723 82.9249 384.706 83.763 384.739 84.5999C384.957 89.9644 386.634 95.1679 389.589 99.6499V99.3399C388.199 102.81 386.829 106.22 385.489 109.54L385.249 110.15L385.879 109.97L396.779 106.97L396.519 106.91C400.19 109.689 404.467 111.56 408.999 112.37C411.102 112.762 413.245 112.893 415.379 112.76C416.409 112.745 417.435 112.648 418.449 112.47L419.939 112.24C420.429 112.15 420.939 112 421.379 111.89C428.096 110.188 433.988 106.15 437.999 100.5C439.495 98.4185 440.697 96.1403 441.569 93.7299C441.759 93.2 441.939 92.7299 442.109 92.2099C442.279 91.6899 442.369 91.2099 442.479 90.7599C442.589 90.3099 442.709 89.8499 442.809 89.4299C442.909 89.0099 442.939 88.5999 442.999 88.2099C443.089 87.4399 443.229 86.7599 443.259 86.2099C443.289 85.6599 443.259 85.1299 443.259 84.7099C443.259 84.2899 443.259 84.0299 443.259 83.7999C443.259 83.5699 443.259 83.4899 443.259 83.4899C443.244 83.5927 443.244 83.6972 443.259 83.7999C443.259 84.0299 443.259 84.3299 443.189 84.7099C443.119 85.0899 443.129 85.6199 443.089 86.1999C443.049 86.7799 442.899 87.4599 442.779 88.1999C441.826 93.7345 439.285 98.8731 435.467 102.992C431.648 107.11 426.716 110.031 421.269 111.4C420.799 111.51 420.329 111.65 419.849 111.74L418.379 111.96C417.388 112.125 416.385 112.216 415.379 112.23C413.284 112.34 411.183 112.203 409.119 111.82C404.693 111.005 400.518 109.166 396.929 106.45L396.809 106.35H396.659L385.749 109.35L386.129 109.78L390.239 99.5899L390.299 99.4299L390.209 99.2799C388.24 96.3007 386.843 92.9808 386.089 89.4899C385.744 87.8704 385.537 86.2245 385.469 84.5699C385.436 83.753 385.453 82.9348 385.519 82.1199C385.526 81.3061 385.592 80.4938 385.719 79.6899C386.103 76.5122 387.048 73.4277 388.509 70.5799C389.899 67.8274 391.704 65.3046 393.859 63.0999C395.977 61.0299 398.382 59.2753 400.999 57.8899C403.5 56.589 406.179 55.6624 408.949 55.1399L410.949 54.8299C411.619 54.7299 412.289 54.7399 412.949 54.6899C414.253 54.6279 415.559 54.6513 416.859 54.7599C421.215 55.1413 425.427 56.5102 429.175 58.7627C432.923 61.0153 436.108 64.0922 438.489 67.7599C440.14 70.2514 441.376 72.9935 442.149 75.8799L442.599 77.5599C442.689 78.0899 442.769 78.5599 442.849 79.0599C442.929 79.5599 442.989 79.9599 443.059 80.3599C443.129 80.7599 443.109 81.1199 443.139 81.4399C443.139 82.0599 443.219 82.5499 443.249 82.9099C443.23 83.0904 443.24 83.2727 443.279 83.4499Z" fill="#263238"/>
<path d="M145.071 201.38H202.821C202.821 201.38 202.821 152.89 253.211 152.03C279.381 151.57 292.951 168.72 298.471 181.85C304.871 197.1 302.931 214.48 294.351 228.63C284.561 244.78 263.461 261.01 224.541 254.15L224.171 382.82H281.281V306.54C281.281 306.54 361.371 285.84 361.371 197.54C361.371 113.09 293.081 94.85 256.371 93.67C235.951 93.02 228.551 92.14 203.291 95.73C171.101 100.33 144.391 137.71 145.071 201.38Z" fill="#FBC02D"/>
<path d="M281.968 409.64H224.008V463.77H281.968V409.64Z" fill="#FBC02D"/>
<path opacity="0.1" d="M281.968 409.64H224.008V463.77H281.968V409.64Z" fill="black"/>
<path opacity="0.1" d="M145.071 201.38H202.821C202.821 201.38 202.821 152.89 253.211 152.03C279.381 151.57 292.951 168.72 298.471 181.85C304.871 197.1 302.931 214.48 294.351 228.63C284.561 244.78 263.461 261.01 224.541 254.15L224.171 382.82H281.281V306.54C281.281 306.54 361.371 285.84 361.371 197.54C361.371 113.09 293.081 94.85 256.371 93.67C235.951 93.02 228.551 92.14 203.291 95.73C171.101 100.33 144.391 137.71 145.071 201.38Z" fill="black"/>
<path d="M121.139 201.38H178.899C178.899 201.38 178.899 152.89 229.289 152.03C255.459 151.57 269.029 168.72 274.539 181.85C280.949 197.1 279.009 214.48 270.429 228.63C260.639 244.78 239.169 259.46 200.249 252.63V382.82H257.359V306.54C257.359 306.54 337.449 285.84 337.449 197.54C337.449 113.09 261.709 93.48 229.299 93.48C204.509 93.51 120.049 99.5 121.139 201.38Z" fill="#FBC02D"/>
<path opacity="0.3" d="M121.139 201.38H178.899C178.899 201.38 178.899 152.89 229.289 152.03C255.459 151.57 269.029 168.72 274.539 181.85C280.949 197.1 279.009 214.48 270.429 228.63C260.639 244.78 239.169 259.46 200.249 252.63V382.82H257.359V306.54C257.359 306.54 337.449 285.84 337.449 197.54C337.449 113.09 261.709 93.48 229.299 93.48C204.509 93.51 120.049 99.5 121.139 201.38Z" fill="black"/>
<path d="M258.05 409.64H200.09V463.77H258.05V409.64Z" fill="#FBC02D"/>
<path opacity="0.3" d="M258.05 409.64H200.09V463.77H258.05V409.64Z" fill="black"/>
<path d="M235.808 152.29C235.522 152.315 235.234 152.315 234.948 152.29C234.378 152.29 233.558 152.1 232.488 152.09C229.463 151.941 226.43 152.069 223.428 152.47C218.976 153.034 214.595 154.063 210.358 155.54C207.86 156.413 205.427 157.462 203.078 158.68C200.539 159.949 198.147 161.495 195.948 163.29C193.764 165.101 191.806 167.169 190.118 169.45C188.518 171.558 187.058 173.77 185.748 176.07C183.561 179.987 181.827 184.141 180.578 188.45C179.731 191.358 179.149 194.337 178.838 197.35C178.718 198.41 178.688 199.25 178.658 199.81C178.659 200.099 178.632 200.386 178.578 200.67C178.552 200.384 178.552 200.096 178.578 199.81C178.578 199.24 178.578 198.4 178.668 197.33C178.898 194.285 179.431 191.27 180.258 188.33C181.461 183.971 183.172 179.769 185.358 175.81C186.671 173.485 188.137 171.25 189.748 169.12C191.45 166.802 193.432 164.703 195.648 162.87C197.874 161.05 200.296 159.484 202.868 158.2C205.232 156.96 207.681 155.891 210.198 155C214.474 153.528 218.896 152.522 223.388 152C226.41 151.629 229.462 151.558 232.498 151.79C233.323 151.843 234.144 151.943 234.958 152.09C235.246 152.137 235.53 152.203 235.808 152.29Z" fill="#263238"/>
<path d="M322.831 142C322.831 142 322.761 141.93 322.641 141.78C322.521 141.63 322.341 141.37 322.141 141.08L320.231 138.38C319.821 137.8 319.381 137.13 318.861 136.44L317.061 134.25L315.001 131.72C314.251 130.84 313.371 129.99 312.491 129.06C311.611 128.13 310.711 127.14 309.691 126.19C308.671 125.24 307.581 124.27 306.461 123.27C305.901 122.77 305.351 122.27 304.751 121.74L302.891 120.27C301.621 119.27 300.361 118.27 298.991 117.27C293.02 112.998 286.686 109.257 280.061 106.09L274.791 103.71L269.561 101.71C267.851 101 266.111 100.5 264.431 99.9399C262.751 99.3799 261.111 98.8099 259.431 98.4199L254.651 97.1699C253.101 96.7599 251.561 96.5099 250.091 96.1699C248.621 95.8299 247.201 95.5299 245.811 95.3599L241.811 94.7799C239.281 94.3499 236.961 94.2599 234.941 94.0599C233.941 93.9799 232.941 93.8699 232.111 93.8299L229.731 93.7699L226.431 93.6599H225.571H225.281C225.377 93.6449 225.475 93.6449 225.571 93.6599H226.431H229.731H232.121C232.991 93.6599 233.941 93.7799 234.961 93.8499C236.961 94.0199 239.321 94.0899 241.851 94.4999L245.851 95.0399C247.241 95.1999 248.661 95.5599 250.141 95.8299C251.621 96.0999 253.141 96.3799 254.731 96.8299L259.531 98.0699C261.191 98.4499 262.831 99.0699 264.531 99.5799C266.231 100.09 267.961 100.58 269.671 101.34L274.931 103.34L280.231 105.73C286.891 108.904 293.25 112.672 299.231 116.99C300.611 117.99 301.871 119.06 303.141 120.05L305.001 121.4C305.601 121.9 306.151 122.4 306.711 122.94L309.931 125.94C310.931 126.94 311.831 127.94 312.721 128.85C313.611 129.76 314.461 130.65 315.211 131.54L317.211 134.09L318.991 136.31C319.501 137.01 319.931 137.69 320.331 138.31C321.111 139.48 321.721 140.4 322.151 141.06L322.621 141.79C322.7 141.851 322.771 141.921 322.831 142Z" fill="#263238"/>
<path d="M316.81 266C316.691 266.216 316.547 266.418 316.38 266.6L315 268.23C314.43 268.96 313.71 269.83 312.82 270.8C311.93 271.77 310.98 272.91 309.82 274.09C308.66 275.27 307.42 276.59 306.01 277.92C304.6 279.25 303.07 280.65 301.44 282.11C294.291 288.35 286.454 293.755 278.08 298.22C276.14 299.22 274.31 300.22 272.54 300.99C270.77 301.76 269.12 302.55 267.6 303.19C266.08 303.83 264.68 304.36 263.46 304.83C262.24 305.3 261.17 305.68 260.29 305.96L258.29 306.61C258.058 306.702 257.817 306.769 257.57 306.81C257.786 306.687 258.014 306.586 258.25 306.51L260.25 305.77C261.12 305.46 262.17 305.06 263.38 304.56C264.59 304.06 265.99 303.56 267.49 302.85C268.99 302.14 270.65 301.47 272.38 300.6C274.11 299.73 275.96 298.81 277.89 297.8C281.7 295.7 285.81 293.24 289.96 290.4C294.11 287.56 297.84 284.57 301.16 281.75C302.79 280.31 304.35 278.96 305.74 277.6C307.13 276.24 308.43 275.01 309.58 273.83C310.73 272.65 311.74 271.56 312.64 270.6C313.54 269.64 314.28 268.8 314.88 268.1L316.28 266.51C316.443 266.326 316.62 266.155 316.81 266Z" fill="#263238"/>
<path d="M256.348 378.28C256.198 378.28 256.078 362.22 256.078 342.41C256.078 322.6 256.198 306.53 256.348 306.53C256.498 306.53 256.608 322.59 256.608 342.41C256.608 362.23 256.488 378.28 256.348 378.28Z" fill="#263238"/>
<path d="M258.549 460.1C258.399 460.1 258.289 448.83 258.289 434.93C258.289 421.03 258.399 409.75 258.549 409.75C258.699 409.75 258.809 421.02 258.809 434.93C258.809 448.84 258.689 460.1 258.549 460.1Z" fill="#263238"/>
<path d="M315.397 193.71C314.397 195.71 318.127 197.35 320.277 198C322.471 198.538 324.741 198.694 326.987 198.46C329.987 198.3 333.057 198.02 335.647 196.54C337.916 195.135 339.729 193.103 340.867 190.69C341.99 188.285 342.878 185.776 343.517 183.2C343.517 183.2 319.887 184.74 315.397 193.71Z" fill="#FBC02D"/>
<g opacity="0.4">
<path opacity="0.4" d="M315.397 193.71C314.397 195.71 318.127 197.35 320.277 198C322.471 198.538 324.741 198.694 326.987 198.46C329.987 198.3 333.057 198.02 335.647 196.54C337.916 195.135 339.729 193.103 340.867 190.69C341.99 188.285 342.878 185.776 343.517 183.2C343.517 183.2 319.887 184.74 315.397 193.71Z" fill="black"/>
</g>
<path d="M382.138 187.31C386.033 190.073 390.702 191.536 395.478 191.49C397.767 191.618 400.025 190.907 401.828 189.49C402.598 188.78 403.178 187.88 403.968 187.2C404.508 186.74 405.138 186.39 405.648 185.9C405.917 185.668 406.124 185.373 406.252 185.042C406.379 184.71 406.422 184.352 406.378 184C406.18 183.132 405.694 182.356 404.998 181.8C402.288 180.26 399.048 180.32 395.928 180.39C392.805 180.525 389.721 181.129 386.778 182.18C384.358 183 381.828 184.18 380.598 186.38" fill="#FBC02D"/>
<g opacity="0.4">
<path opacity="0.4" d="M406.378 184C406.024 183.156 405.402 182.453 404.608 182C401.898 180.46 399.048 180.32 395.928 180.39C392.805 180.525 389.721 181.128 386.778 182.18C384.358 183 381.828 184.18 380.598 186.38L382.138 187.31C386.033 190.073 390.702 191.536 395.478 191.49C397.767 191.617 400.025 190.906 401.828 189.49C402.598 188.78 403.178 187.88 403.968 187.2C404.508 186.74 405.138 186.39 405.648 185.9C405.917 185.668 406.124 185.373 406.252 185.042C406.379 184.71 406.422 184.352 406.378 184Z" fill="black"/>
</g>
<path d="M335.998 223.2L385.848 223.86C385.95 223.86 386.05 223.836 386.14 223.79C386.231 223.744 386.309 223.678 386.37 223.596C386.43 223.514 386.47 223.42 386.487 223.32C386.504 223.22 386.498 223.117 386.468 223.02L380.618 204.78C380.618 204.78 381.478 195.66 382.668 184.7C384.478 168.05 386.888 147.12 386.918 147.18C383.508 137.62 363.388 136 363.388 136L340.458 137.36L339.658 136.01L333.058 139.08C331.619 139.75 330.234 140.532 328.918 141.42C324.558 144.33 314.058 151.02 312.138 158.47C307.708 175.72 315.208 194.97 315.208 194.97L320.028 191.2C321.242 190.264 322.519 189.413 323.848 188.65L333.508 214.54C332.933 214.902 332.447 215.389 332.083 215.963C331.72 216.537 331.489 217.185 331.408 217.86C331.328 219.96 332.408 222.48 335.998 223.2Z" fill="#FBC02D"/>
<g opacity="0.3">
<path opacity="0.3" d="M357.387 192.68C358.967 184.18 358.137 175.44 357.287 166.84C354.527 173.84 354.627 181.84 351.697 188.78C351.337 189.513 351.075 190.289 350.917 191.09C350.84 191.492 350.86 191.906 350.975 192.299C351.09 192.692 351.296 193.052 351.577 193.35C352.377 194.08 353.577 193.68 354.637 193.56C355.585 193.379 356.509 193.083 357.387 192.68Z" fill="black"/>
</g>
<g opacity="0.4">
<path opacity="0.4" d="M338.997 212.36C342.997 213.75 347.257 211.16 351.487 210.7C354.287 210.4 357.087 211.04 359.867 211.49C365.489 212.399 371.208 212.541 376.867 211.91C377.736 211.862 378.586 211.641 379.367 211.26C379.771 210.985 380.102 210.615 380.33 210.183C380.558 209.75 380.677 209.269 380.677 208.78C371.257 207.78 361.847 207.24 352.427 206.27C350.082 205.87 347.681 205.948 345.367 206.5C342.527 207.38 340.367 209.61 338.367 211.82" fill="black"/>
</g>
<path d="M404.936 180.72C400.866 171.55 386.516 146.19 386.516 146.19L375.406 160.12L377.996 187.47C377.996 187.47 383.866 180.92 400.276 180.79C401.469 180.838 402.636 181.152 403.691 181.709C404.747 182.266 405.664 183.052 406.376 184.01L404.936 180.72Z" fill="#FBC02D"/>
<path d="M338.228 175.87C337.436 173.926 336.807 171.919 336.348 169.87C335.727 167.874 335.272 165.831 334.988 163.76C335.769 165.707 336.395 167.714 336.858 169.76C337.479 171.756 337.938 173.8 338.228 175.87Z" fill="#263238"/>
<path d="M374.57 158.27C374.931 158.526 375.266 158.817 375.57 159.14C376.453 159.993 377.281 160.902 378.05 161.86C380.635 165.021 382.453 168.738 383.36 172.72C383.83 174.921 383.935 177.185 383.67 179.42C383.42 181.47 383.03 183.27 382.77 184.79C382.51 186.31 382.35 187.55 382.27 188.41C382.267 188.857 382.22 189.302 382.13 189.74C382.059 189.294 382.039 188.841 382.07 188.39C382.114 187.165 382.227 185.943 382.41 184.73C382.62 183.2 382.97 181.38 383.2 179.37C383.431 177.185 383.313 174.978 382.85 172.83C381.954 168.923 380.217 165.257 377.76 162.09C375.93 159.63 374.49 158.35 374.57 158.27Z" fill="#263238"/>
<path d="M364.39 221C364.042 221.155 363.676 221.262 363.3 221.32C362.872 221.433 362.438 221.516 362 221.57C361.49 221.64 360.91 221.75 360.26 221.78C358.736 221.92 357.203 221.92 355.68 221.78C353.815 221.588 351.974 221.22 350.18 220.68C348.394 220.106 346.667 219.366 345.02 218.47C343.684 217.725 342.416 216.865 341.23 215.9C340.71 215.5 340.29 215.08 339.91 214.73C339.582 214.435 339.271 214.121 338.98 213.79C338.701 213.533 338.462 213.236 338.27 212.91C338.34 212.84 339.41 214.04 341.46 215.61C342.657 216.521 343.924 217.337 345.25 218.05C346.878 218.906 348.578 219.618 350.33 220.18C352.093 220.711 353.9 221.086 355.73 221.3C357.224 221.461 358.728 221.508 360.23 221.44C362.8 221.3 364.37 220.92 364.39 221Z" fill="#263238"/>
<path d="M379.779 215.32C380.015 215.772 380.148 216.271 380.17 216.78C380.329 217.999 380.237 219.238 379.899 220.42C379.556 221.629 378.86 222.709 377.899 223.52C377.169 224.13 376.609 224.32 376.579 224.27C376.549 224.22 377.019 223.89 377.649 223.27C378.458 222.427 379.046 221.396 379.359 220.27C380.159 217.63 379.589 215.33 379.779 215.32Z" fill="#263238"/>
<path d="M377.067 218.84C377.284 219.868 377.197 220.938 376.817 221.918C376.437 222.898 375.78 223.746 374.927 224.36C374.817 224.25 375.747 223.26 376.327 221.73C376.907 220.2 376.917 218.85 377.067 218.84Z" fill="#263238"/>
<path d="M368.147 185.94C367.617 186.836 367.022 187.691 366.367 188.5C365.85 189.403 365.265 190.266 364.617 191.08C364.809 190.025 365.263 189.034 365.937 188.2C366.47 187.271 367.231 186.494 368.147 185.94Z" fill="#263238"/>
<path d="M333.927 161.72C333.165 161.273 332.428 160.785 331.717 160.26C328.161 157.923 324.125 156.416 319.907 155.85C319.025 155.786 318.146 155.669 317.277 155.5C318.163 155.378 319.062 155.378 319.947 155.5C324.28 155.87 328.429 157.415 331.947 159.97C332.685 160.459 333.352 161.048 333.927 161.72Z" fill="#263238"/>
<path d="M386.517 145.86C384.727 147.301 383.055 148.883 381.517 150.59C380.1 152.412 378.833 154.345 377.727 156.37C377.845 155.689 378.078 155.033 378.417 154.43C379.141 152.931 380.047 151.527 381.117 150.25C382.189 148.976 383.419 147.844 384.777 146.88C385.293 146.442 385.882 146.097 386.517 145.86Z" fill="#263238"/>
<path d="M365.939 137.62C366.03 137.764 366.104 137.919 366.159 138.08C366.355 138.533 366.512 139.001 366.629 139.48C367.051 141.262 367.051 143.118 366.629 144.9C366.007 147.56 364.583 149.965 362.549 151.79C359.983 153.964 356.713 155.13 353.349 155.07C349.983 155.082 346.704 154.005 343.999 152C341.845 150.355 340.097 148.237 338.889 145.81C338.076 144.185 337.503 142.45 337.189 140.66C337.098 140.178 337.038 139.69 337.009 139.2C336.981 139.028 336.981 138.852 337.009 138.68C337.009 138.68 337.119 139.38 337.399 140.62C337.788 142.359 338.403 144.04 339.229 145.62C340.449 147.974 342.182 150.024 344.299 151.62C346.905 153.55 350.057 154.6 353.299 154.62C356.541 154.68 359.696 153.572 362.189 151.5C364.154 149.742 365.547 147.437 366.189 144.88C366.634 143.154 366.696 141.352 366.369 139.6C366.179 138.28 365.879 137.64 365.939 137.62Z" fill="#263238"/>
<g opacity="0.3">
<path opacity="0.3" d="M369.437 187.71C369.437 187.21 369.357 186.62 368.917 186.37C368.778 186.3 368.623 186.263 368.467 186.263C368.311 186.263 368.157 186.3 368.017 186.37C367.738 186.521 367.49 186.725 367.287 186.97C366.112 188.193 365.202 189.647 364.617 191.24L369.517 190.81C369.487 189.8 369.467 188.74 369.437 187.71Z" fill="black"/>
</g>
<g opacity="0.3">
<path opacity="0.3" d="M385.708 177.4C385.216 174.596 383.987 171.973 382.148 169.8C384.268 176.72 383.558 180.63 382.368 185.37L382.628 184.71C383.998 181.94 386.078 180.2 385.708 177.4Z" fill="black"/>
</g>
<path d="M375.919 409.86L372.929 454.71L353.429 454.48L350.359 407.85L375.919 409.86Z" fill="#AD6359"/>
<path d="M373.48 448.81V450.11C373.48 450.11 395.48 458.95 395.69 463.11L352 462.87L352.68 448.34C359.19 451.39 366 451.77 373.48 448.81Z" fill="#FBC02D"/>
<path d="M357.109 453C356.694 453.125 356.339 453.398 356.111 453.766C355.883 454.134 355.796 454.573 355.869 455C355.976 455.427 356.244 455.795 356.617 456.028C356.989 456.261 357.438 456.341 357.869 456.25C358.314 456.117 358.693 455.823 358.933 455.426C359.174 455.028 359.258 454.556 359.169 454.1C359.01 453.668 358.69 453.315 358.275 453.115C357.861 452.916 357.385 452.885 356.949 453.03" fill="white"/>
<path d="M352 462.87L352.16 459.38L394 460.9C394 460.9 395.94 461.76 395.71 463.12L352 462.87Z" fill="#263238"/>
<path d="M373.639 450.23C373.639 450.44 372.559 450.53 371.509 451.23C370.459 451.93 369.889 452.8 369.699 452.72C369.509 452.64 369.829 451.4 371.119 450.6C372.409 449.8 373.689 450 373.639 450.23Z" fill="#263238"/>
<path d="M378.207 452.15C378.257 452.36 377.327 452.71 376.597 453.61C375.867 454.51 375.657 455.46 375.437 455.45C375.217 455.44 375.097 454.23 376.027 453.14C376.957 452.05 378.197 452 378.207 452.15Z" fill="#263238"/>
<path d="M380.779 457.65C380.579 457.65 380.289 456.65 380.849 455.46C381.409 454.27 382.399 453.84 382.489 454.01C382.579 454.18 381.959 454.81 381.489 455.78C381.019 456.75 380.999 457.63 380.779 457.65Z" fill="#263238"/>
<path d="M372.36 81.85C373.49 79.05 372.12 75.66 369.69 73.85C367.129 72.1641 364.006 71.5568 361 72.16C358.034 72.7818 355.163 73.7905 352.46 75.16C351.203 73.8924 349.618 72.999 347.883 72.5798C346.148 72.1605 344.33 72.2318 342.633 72.7857C340.936 73.3397 339.427 74.3544 338.273 75.7166C337.119 77.0788 336.367 78.7349 336.1 80.5C335.018 80.2278 333.884 80.2552 332.817 80.5792C331.75 80.9032 330.791 81.5116 330.044 82.339C329.297 83.1665 328.789 84.1818 328.575 85.276C328.361 86.3702 328.449 87.502 328.83 88.55L342.35 93.3L357.11 119.3C359.291 121.161 362.075 122.165 364.942 122.124C367.809 122.084 370.564 121.001 372.691 119.079C374.819 117.157 376.175 114.527 376.506 111.678C376.837 108.83 376.12 105.959 374.49 103.6C375.317 102.865 376.019 102 376.57 101.04C377.749 100.343 378.778 99.4175 379.597 98.3188C380.416 97.2201 381.008 95.9696 381.34 94.64C382.65 88.85 378.17 82.53 372.36 81.85Z" fill="#263238"/>
<path d="M363.41 136C362.57 131.77 361.99 128.87 362 128.9C362.01 128.93 370 125.8 369.42 114.67C369.14 109.13 367.03 100.4 365.07 93.32C363.31 86.94 357.36 79.9101 351.07 81.9401L332 91.24C330.09 91.86 329.76 93.66 330.21 95.61V96.61L337.62 127.27L340.75 140.97C341.417 143.783 343.113 146.245 345.505 147.87C347.896 149.495 350.809 150.165 353.67 149.75C355.233 149.53 356.734 148.993 358.081 148.173C359.429 147.352 360.595 146.264 361.507 144.977C362.419 143.689 363.058 142.228 363.385 140.685C363.713 139.141 363.721 137.547 363.41 136Z" fill="#AD6359"/>
<path d="M364.998 100.72C365.078 101.075 365.019 101.447 364.833 101.759C364.647 102.072 364.348 102.301 363.998 102.4C363.821 102.449 363.637 102.462 363.455 102.438C363.273 102.414 363.098 102.354 362.94 102.261C362.782 102.167 362.645 102.043 362.536 101.895C362.427 101.747 362.35 101.579 362.308 101.4C362.228 101.046 362.288 100.676 362.474 100.365C362.66 100.054 362.959 99.8265 363.308 99.73C363.484 99.679 363.669 99.6645 363.851 99.6871C364.032 99.7098 364.208 99.7693 364.366 99.8619C364.524 99.9545 364.662 100.078 364.77 100.226C364.879 100.373 364.957 100.542 364.998 100.72Z" fill="#263238"/>
<path d="M364.13 98.59C363.99 98.81 362.78 98.26 361.3 98.59C359.82 98.92 358.88 99.88 358.68 99.73C358.48 99.58 358.68 99.3 359.09 98.86C359.64 98.2787 360.356 97.8807 361.14 97.72C361.913 97.5532 362.72 97.6409 363.44 97.97C364 98.2 364.19 98.5 364.13 98.59Z" fill="#263238"/>
<path d="M350.479 104C350.559 104.354 350.499 104.724 350.313 105.035C350.127 105.346 349.828 105.574 349.479 105.67C349.306 105.72 349.125 105.736 348.947 105.716C348.768 105.696 348.595 105.64 348.438 105.553C348.281 105.465 348.142 105.348 348.031 105.206C347.919 105.065 347.837 104.903 347.789 104.73C347.709 104.375 347.768 104.003 347.954 103.691C348.14 103.378 348.439 103.149 348.789 103.05C348.962 103 349.144 102.985 349.323 103.006C349.502 103.026 349.676 103.083 349.833 103.171C349.99 103.259 350.128 103.378 350.239 103.521C350.35 103.663 350.432 103.826 350.479 104Z" fill="#263238"/>
<path d="M349.747 102.12C349.617 102.34 348.397 101.78 346.917 102.12C345.437 102.46 344.497 103.4 344.297 103.26C344.097 103.12 344.297 102.83 344.707 102.38C345.26 101.804 345.975 101.41 346.757 101.25C347.53 101.086 348.335 101.17 349.057 101.49C349.587 101.73 349.817 102 349.747 102.12Z" fill="#263238"/>
<path d="M357.277 111.52C358.01 111.116 358.789 110.8 359.597 110.58C359.967 110.46 360.317 110.31 360.327 110.04C360.274 109.642 360.104 109.27 359.837 108.97L358.107 106.31C355.687 102.52 353.847 99.3801 353.997 99.3101C354.147 99.2401 356.237 102.21 358.657 106L360.347 108.68C360.679 109.09 360.859 109.602 360.857 110.13C360.827 110.274 360.766 110.409 360.678 110.527C360.59 110.644 360.477 110.741 360.347 110.81C360.151 110.914 359.943 110.991 359.727 111.04C358.936 111.311 358.112 111.472 357.277 111.52Z" fill="#263238"/>
<path d="M361.998 128.9C356.94 130.043 351.664 129.759 346.758 128.08C346.758 128.08 351.998 134.92 362.568 131.65L361.998 128.9Z" fill="#793B32"/>
<path d="M349.999 100C349.899 100.43 348.369 100.42 346.629 100.85C344.889 101.28 343.509 101.93 343.229 101.59C343.109 101.43 343.309 101.01 343.839 100.59C344.543 99.9967 345.38 99.5817 346.279 99.38C347.17 99.1686 348.098 99.1686 348.989 99.38C349.699 99.51 350.069 99.8 349.999 100Z" fill="#263238"/>
<path d="M363.557 93.87C363.317 94.27 362.037 94.17 360.557 94.46C359.077 94.75 357.907 95.25 357.557 94.96C357.397 94.81 357.557 94.43 357.987 93.96C358.647 93.4047 359.445 93.0384 360.297 92.9C361.134 92.7313 362.002 92.7935 362.807 93.08C363.417 93.36 363.657 93.67 363.557 93.87Z" fill="#263238"/>
<path d="M336.707 84.08C336.928 85.1633 337.385 86.1846 338.046 87.0713C338.706 87.958 339.554 88.6883 340.528 89.2105C341.503 89.7326 342.581 90.0337 343.685 90.0924C344.789 90.1511 345.892 89.9659 346.917 89.55C348.497 88.91 350.137 87.71 351.737 88.29C353.337 88.87 353.997 91.15 355.527 92C357.777 93.26 360.527 91.08 363.037 91.3C365.037 91.47 366.547 93 368.097 94.3C369.647 95.6 371.787 96.58 373.537 95.64C373.136 93.9701 372.542 92.3525 371.767 90.82C370.985 89.2773 369.691 88.0542 368.107 87.36C367.227 87.01 366.277 86.89 365.437 86.46C363.627 85.54 362.817 83.46 361.507 81.89C360.646 80.9007 359.563 80.1306 358.345 79.6437C357.128 79.1567 355.812 78.9669 354.507 79.09C352.347 79.31 350.297 80.4 348.117 80.31C346.507 80.24 344.967 79.52 343.357 79.55C340.227 79.55 337.877 82.35 336.137 84.96" fill="#263238"/>
<path d="M347.249 86.37C345.809 86.26 342.869 85.96 341.899 84.94C340.914 83.8378 339.656 83.0138 338.252 82.5505C336.848 82.0872 335.347 82.0008 333.899 82.3C332.463 82.7283 331.201 83.6066 330.301 84.8056C329.401 86.0045 328.91 87.4608 328.899 88.96C327.15 89.387 325.548 90.2786 324.263 91.5406C322.978 92.8026 322.058 94.3883 321.599 96.13C321.134 97.9533 321.118 99.8625 321.554 101.693C321.989 103.524 322.863 105.222 324.099 106.64C324.7 107.391 325.248 108.183 325.739 109.01C325.061 109.851 324.465 110.755 323.959 111.71C321.669 116.77 327.879 118.71 327.879 118.71C327.879 122.11 331.029 122.09 333.039 122.08C335.049 122.07 336.159 127.44 337.729 127.23L336.139 110.66C336.372 110.751 336.62 110.798 336.869 110.8C340.659 110.87 339.669 103.69 338.449 101.8C339.578 100.394 340.532 98.8563 341.289 97.22C341.976 94.7185 342.024 92.0849 341.429 89.56C342.699 89.4 347.869 86.41 347.249 86.37Z" fill="#263238"/>
<path d="M336.638 111.54C336.509 111.013 336.248 110.528 335.881 110.13C335.513 109.731 335.051 109.432 334.537 109.26C334.023 109.088 333.473 109.049 332.94 109.147C332.407 109.245 331.907 109.477 331.488 109.82C330.488 110.68 329.958 112.12 330.558 114.53C332.178 120.97 338.308 118.02 338.268 117.84C338.228 117.66 337.338 114.2 336.638 111.54Z" fill="#AD6359"/>
<path d="M335.688 115.89C335.688 115.89 335.598 116 335.428 116.13C335.191 116.311 334.894 116.394 334.598 116.36C333.858 116.28 333.008 115.36 332.688 114.19C332.535 113.643 332.504 113.07 332.598 112.51C332.608 112.293 332.67 112.081 332.78 111.893C332.89 111.705 333.043 111.546 333.228 111.43C333.349 111.365 333.49 111.344 333.625 111.371C333.76 111.399 333.881 111.472 333.968 111.58C334.098 111.73 334.088 111.87 334.128 111.88C334.168 111.89 334.238 111.73 334.128 111.48C334.051 111.332 333.928 111.212 333.778 111.14C333.566 111.054 333.329 111.054 333.118 111.14C332.867 111.259 332.65 111.44 332.487 111.666C332.324 111.891 332.221 112.154 332.188 112.43C332.058 113.06 332.082 113.712 332.258 114.33C332.369 114.911 332.65 115.445 333.065 115.867C333.479 116.289 334.009 116.579 334.588 116.7C334.776 116.708 334.963 116.673 335.137 116.599C335.31 116.524 335.464 116.412 335.588 116.27C335.718 116.05 335.718 115.9 335.688 115.89Z" fill="#793B32"/>
<path d="M371.169 102.55C371.169 102.55 371.759 102.1 372.579 101.1C373.71 99.6591 374.404 97.9237 374.579 96.0999C374.711 94.855 374.589 93.596 374.219 92.3999C373.792 91.0279 373 89.7975 371.929 88.8399C370.692 87.7596 369.194 87.0215 367.584 86.6987C365.973 86.3759 364.307 86.4798 362.749 86.9999C362.449 87.0999 362.169 87.2499 361.889 87.3699C361.609 87.4899 361.359 87.6699 361.099 87.8199L360.699 88.0399V87.5999C360.69 86.8253 360.403 86.0797 359.889 85.4999C359.363 84.9373 358.717 84.4999 357.999 84.2199C356.641 83.654 355.136 83.5417 353.709 83.8999C350.949 84.5299 348.609 85.79 346.399 86.05C344.666 86.3511 342.883 85.9945 341.399 85.05C341.007 84.7805 340.668 84.4416 340.399 84.05C340.239 83.78 340.159 83.6299 340.179 83.6199C340.541 84.1138 340.984 84.5431 341.489 84.8899C342.949 85.7327 344.664 86.0203 346.319 85.6999C347.47 85.4833 348.596 85.1482 349.679 84.6999C350.95 84.1919 352.252 83.7677 353.579 83.4299C354.318 83.2511 355.079 83.1737 355.839 83.1999C356.641 83.2423 357.43 83.4251 358.169 83.7399C358.933 84.0666 359.616 84.5584 360.169 85.1799C360.76 85.8569 361.093 86.7212 361.109 87.6199L360.709 87.3999L361.539 86.9199C361.849 86.7999 362.139 86.6399 362.459 86.5299C364.101 85.9677 365.862 85.8501 367.564 86.189C369.266 86.528 370.848 87.3115 372.149 88.4599C373.273 89.4781 374.097 90.7857 374.529 92.2399C374.978 93.7812 375.038 95.4096 374.705 96.98C374.372 98.5503 373.655 100.014 372.619 101.24C372.289 101.616 371.917 101.951 371.509 102.24C371.408 102.357 371.294 102.461 371.169 102.55Z" fill="#455A64"/>
<path d="M369.87 79.94C369.213 79.6067 368.513 79.3677 367.79 79.23C366.963 79.117 366.121 79.1956 365.33 79.46C364.305 79.7736 363.414 80.4213 362.8 81.3L362.55 81.65L362.4 81.25C361.878 80.0207 361.037 78.9529 359.965 78.1566C358.893 77.3604 357.627 76.8644 356.3 76.72C354.214 76.6415 352.159 77.2377 350.44 78.42C348.975 79.375 347.417 80.1791 345.79 80.82C344.668 81.2443 343.46 81.3884 342.27 81.24C341.952 81.1814 341.641 81.0944 341.34 80.98C341.14 80.89 341.03 80.84 341.04 80.82C341.05 80.8 341.49 80.95 342.3 81.03C343.45 81.1018 344.602 80.9139 345.67 80.48C347.251 79.7905 348.767 78.9605 350.2 78C351.085 77.4504 352.023 76.9915 353 76.63C354.074 76.2383 355.222 76.0914 356.36 76.2C357.778 76.3548 359.128 76.8914 360.265 77.7525C361.403 78.6135 362.286 79.767 362.82 81.09H362.43C363.117 80.1502 364.099 79.4674 365.22 79.15C366.071 78.9032 366.968 78.8587 367.84 79.02C368.391 79.1247 368.92 79.328 369.4 79.62C369.571 79.7037 369.729 79.8115 369.87 79.94Z" fill="#455A64"/>
<path d="M356.696 114.48C356.463 114.285 356.191 114.141 355.898 114.058C355.605 113.976 355.298 113.956 354.996 114C354.644 114.075 354.312 114.224 354.021 114.435C353.729 114.647 353.486 114.918 353.306 115.23C353.306 115.23 353.256 115.28 353.246 115.31C353.109 115.538 353.046 115.804 353.066 116.07C353.11 116.36 353.224 116.634 353.398 116.87C353.572 117.105 353.802 117.294 354.066 117.42C354.489 117.634 354.968 117.713 355.436 117.645C355.905 117.577 356.342 117.366 356.686 117.04C357.013 116.695 357.196 116.238 357.198 115.762C357.2 115.286 357.021 114.828 356.696 114.48Z" fill="#9C4C42"/>
<path d="M357.2 117.59C357.12 117.59 357.03 117.29 356.76 116.88C356.435 116.33 355.949 115.894 355.368 115.629C354.787 115.364 354.138 115.284 353.51 115.4C353.02 115.47 352.72 115.61 352.69 115.54C352.66 115.47 352.89 115.23 353.43 115.04C354.137 114.813 354.903 114.855 355.58 115.16C356.263 115.464 356.804 116.019 357.09 116.71C357.3 117.23 357.27 117.58 357.2 117.59Z" fill="#263238"/>
<path d="M336.788 118.83C336.788 118.83 337.078 119.33 336.698 120.09C336.483 120.545 336.105 120.902 335.638 121.09C335.347 121.194 335.035 121.229 334.728 121.193C334.421 121.157 334.127 121.049 333.868 120.88C333.605 120.72 333.382 120.501 333.217 120.241C333.053 119.981 332.95 119.686 332.918 119.38C332.888 118.886 333.033 118.397 333.328 118C333.848 117.34 334.428 117.32 334.428 117.38C334.428 117.44 333.988 117.61 333.638 118.21C333.435 118.546 333.351 118.94 333.398 119.33C333.435 119.558 333.522 119.776 333.651 119.967C333.781 120.159 333.95 120.32 334.148 120.44C334.343 120.565 334.563 120.647 334.792 120.682C335.021 120.716 335.255 120.702 335.478 120.64C335.847 120.508 336.166 120.263 336.388 119.94C336.778 119.32 336.708 118.83 336.788 118.83Z" fill="#FBC02D"/>
<path d="M333.419 118.44C333.469 118.44 333.419 118.78 332.949 119C332.718 119.096 332.465 119.124 332.219 119.08C331.972 119.037 331.744 118.924 331.56 118.754C331.376 118.585 331.244 118.367 331.18 118.125C331.116 117.883 331.123 117.628 331.199 117.39C331.297 117.12 331.484 116.89 331.729 116.74C332.139 116.49 332.449 116.59 332.439 116.65C332.429 116.71 332.199 116.78 331.949 117.03C331.826 117.184 331.751 117.37 331.734 117.566C331.717 117.762 331.757 117.959 331.851 118.132C331.945 118.305 332.088 118.447 332.262 118.539C332.436 118.631 332.633 118.67 332.829 118.65C333.169 118.58 333.349 118.4 333.419 118.44Z" fill="#FBC02D"/>
<path d="M344.41 207.25C344.41 207.25 369.17 208.69 383.81 208.82C395.14 208.93 400.2 205.92 402.46 198.63C404.36 192.52 400.28 180.79 400.28 180.79C392.61 180.79 387.88 181.89 382.95 184.2L384.26 189.56L344.34 193L344.41 207.25Z" fill="#AD6359"/>
<path d="M392.577 195.28C391.503 193.884 390.249 192.636 388.847 191.57C387.343 190.65 385.722 189.937 384.027 189.45C384.561 189.373 385.105 189.421 385.617 189.59C386.876 189.887 388.069 190.413 389.137 191.14C390.208 191.87 391.134 192.792 391.867 193.86C392.427 194.68 392.637 195.25 392.577 195.28Z" fill="#793B32"/>
<path d="M335.349 184.16C335.349 184.16 327.689 186 322.059 189.76L328.059 206.02C330.059 211.36 336.169 214.02 341.059 211.22C348.589 206.91 351.249 194.35 351.249 194.35L359.519 158.47L345.809 149.88L335.399 184.16" fill="#AD6359"/>
<path d="M345.758 149.88L346.318 138.08L343.248 126.08C343.078 125.42 342.998 124.59 343.538 124.19C343.806 123.985 344.137 123.878 344.474 123.889C344.811 123.9 345.134 124.028 345.388 124.25C346.218 125.11 350.218 135.6 350.218 135.6C350.218 135.6 356.288 131.96 357.368 131.78C358.448 131.6 359.798 134.87 359.888 135.12C359.928 135.853 359.928 136.587 359.888 137.32C359.888 137.32 363.638 137.43 363.978 137.94C364.251 138.982 364.395 140.053 364.408 141.13C364.408 141.13 365.998 141.64 366.248 142.84C366.498 144.04 367.018 146.02 366.248 146.46C365.478 146.9 363.918 147.76 363.918 147.76C363.918 147.76 363.288 153.88 363.118 154.44C362.948 155 359.438 158.44 359.438 158.44L345.758 149.88Z" fill="#AD6359"/>
<path d="M333 211.46C333 211.46 333.37 211.68 334.15 211.93C335.291 212.288 336.497 212.384 337.68 212.21C339.58 211.939 341.36 211.119 342.8 209.85C344.703 208.123 346.311 206.096 347.56 203.85C348.295 202.53 348.914 201.148 349.41 199.72C349.93 198.149 350.361 196.55 350.7 194.93C351.48 191.56 352.33 187.93 353.23 184.07C355.03 176.36 357.05 167.74 359.23 158.45V158.38H359.28C359.97 157.7 360.66 157.01 361.35 156.29C361.69 155.93 362.03 155.57 362.35 155.2C362.51 155.01 362.68 154.82 362.81 154.63C362.911 154.442 362.969 154.233 362.98 154.02C363.25 152.02 363.46 149.95 363.68 147.86V147.73L363.8 147.67L365.71 146.6C365.85 146.51 366.07 146.41 366.16 146.33C366.256 146.244 366.319 146.127 366.34 146C366.387 145.668 366.387 145.332 366.34 145C366.243 144.267 366.093 143.541 365.89 142.83C365.55 142.208 364.979 141.745 364.3 141.54L364.13 141.48V141.31C364.13 140.73 364.07 140.13 364 139.54C363.973 139.245 363.929 138.951 363.87 138.66C363.847 138.532 363.806 138.407 363.75 138.29C363.75 138.22 363.75 138.29 363.69 138.23C363.636 138.202 363.579 138.178 363.52 138.16C362.317 137.898 361.091 137.761 359.86 137.75H359.6V137.49C359.6 136.87 359.6 136.18 359.6 135.49C359.559 135.255 359.478 135.028 359.36 134.82C359.26 134.58 359.14 134.35 359.02 134.11C358.786 133.647 358.512 133.205 358.2 132.79C358.059 132.597 357.886 132.428 357.69 132.29C357.617 132.229 357.528 132.19 357.434 132.18C357.34 132.169 357.244 132.186 357.16 132.23C356.676 132.415 356.205 132.632 355.75 132.88C353.89 133.88 352.07 134.88 350.29 135.96L350.03 136.12L349.92 135.84C348.98 133.47 348.04 131.13 347.12 128.84C346.66 127.69 346.21 126.54 345.75 125.41C345.679 125.157 345.538 124.929 345.344 124.752C345.149 124.575 344.909 124.457 344.65 124.41C344.411 124.331 344.152 124.335 343.916 124.422C343.68 124.509 343.48 124.674 343.35 124.89C343.225 125.105 343.173 125.353 343.2 125.6C343.2 125.82 343.34 126.16 343.4 126.43C343.56 127.01 343.71 127.58 343.86 128.15C344.16 129.3 344.45 130.43 344.75 131.55C345.337 133.803 345.913 136.003 346.48 138.15V138.22C346.28 142.327 346.09 146.26 345.91 150.02V150L336.8 179.64L334.23 187.89C333.93 188.82 333.7 189.55 333.54 190.06C333.38 190.57 333.28 190.79 333.28 190.79C333.28 190.79 333.33 190.53 333.47 190.04L334.1 187.85C334.68 185.92 335.51 183.13 336.56 179.57C338.72 172.41 341.79 162.19 345.5 149.87V149.92C345.673 146.173 345.85 142.24 346.03 138.12V138.19C345.46 136.04 344.87 133.84 344.28 131.6L343.38 128.2C343.23 127.63 343.08 127.05 342.92 126.48C342.834 126.181 342.764 125.877 342.71 125.57C342.673 125.223 342.747 124.873 342.92 124.57C343.105 124.258 343.391 124.018 343.73 123.89C344.066 123.792 344.421 123.781 344.762 123.858C345.103 123.935 345.419 124.097 345.68 124.33C345.931 124.565 346.117 124.862 346.22 125.19L347.59 128.62C348.52 130.92 349.45 133.26 350.4 135.62L350.03 135.49C351.82 134.43 353.62 133.37 355.52 132.38C356 132.129 356.494 131.905 357 131.71C357.158 131.644 357.33 131.62 357.5 131.64C357.671 131.665 357.835 131.726 357.98 131.82C358.221 131.993 358.433 132.202 358.61 132.44C358.944 132.878 359.236 133.346 359.48 133.84C359.61 134.09 359.73 134.33 359.84 134.58C359.982 134.845 360.077 135.132 360.12 135.43C360.12 136.14 360.12 136.8 360.12 137.43L359.87 137.16C361.155 137.169 362.436 137.316 363.69 137.6C363.776 137.63 363.86 137.667 363.94 137.71C364.05 137.77 364.14 137.86 364.2 137.97C364.278 138.132 364.335 138.304 364.37 138.48C364.43 138.8 364.47 139.1 364.51 139.41C364.57 140.02 364.61 140.62 364.64 141.22L364.46 140.98C364.869 141.1 365.249 141.302 365.578 141.574C365.906 141.845 366.176 142.181 366.37 142.56C366.589 143.32 366.75 144.096 366.85 144.88C366.919 145.28 366.919 145.69 366.85 146.09C366.806 146.333 366.679 146.552 366.49 146.71C366.326 146.82 366.156 146.92 365.98 147.01L364.08 148L364.21 147.81C363.98 149.9 363.77 151.95 363.49 153.98L363.43 154.37C363.407 154.528 363.341 154.677 363.24 154.8C363.093 155.019 362.929 155.226 362.75 155.42C362.41 155.8 362.07 156.17 361.75 156.53C361.06 157.25 360.37 157.94 359.67 158.62L359.74 158.5C357.54 167.78 355.5 176.4 353.67 184.11C352.76 187.96 351.89 191.59 351.09 194.95C350.748 196.582 350.307 198.192 349.77 199.77C349.255 201.211 348.62 202.606 347.87 203.94C346.593 206.215 344.947 208.263 343 210C341.517 211.277 339.691 212.091 337.75 212.34C336.542 212.502 335.312 212.379 334.16 211.98C333.867 211.872 333.583 211.742 333.31 211.59L333 211.46Z" fill="#793B32"/>
<path d="M359.898 137.35C359.898 137.42 359.558 137.46 359.028 137.48C358.355 137.493 357.685 137.573 357.028 137.72C356.394 137.876 355.809 138.189 355.328 138.63C354.968 138.97 354.808 139.26 354.728 139.23C354.648 139.2 354.728 138.84 355.058 138.38C355.524 137.798 356.172 137.389 356.898 137.22C357.598 137.047 358.325 137.013 359.038 137.12C359.578 137.19 359.898 137.28 359.898 137.35Z" fill="#793B32"/>
<path d="M357 137.46C356.87 137.41 356.86 137.1 357 136.77C357.14 136.44 357.34 136.21 357.47 136.26C357.6 136.31 357.62 136.62 357.47 136.95C357.32 137.28 357.1 137.51 357 137.46Z" fill="#793B32"/>
<path d="M364.579 141.09C363.608 141.39 362.595 141.529 361.579 141.5C361.259 141.489 360.942 141.556 360.653 141.693C360.364 141.83 360.112 142.035 359.919 142.29C359.659 142.7 359.749 143.04 359.669 143.06C359.589 143.08 359.349 142.73 359.599 142.13C359.737 141.792 359.988 141.513 360.309 141.34C360.679 141.137 361.088 141.014 361.509 140.98C362.53 140.824 363.572 140.861 364.579 141.09Z" fill="#793B32"/>
<path d="M363.92 144.69C364.06 144.69 364.14 145.43 364.1 146.34C364.06 147.25 363.91 147.97 363.77 147.97C363.63 147.97 363.54 147.22 363.58 146.31C363.62 145.4 363.77 144.68 363.92 144.69Z" fill="#793B32"/>
<path d="M368.066 171.62L368.956 168.56C368.997 168.42 369.074 168.293 369.178 168.191C369.283 168.09 369.413 168.017 369.554 167.981C369.695 167.945 369.843 167.946 369.984 167.984C370.125 168.023 370.253 168.097 370.356 168.2L371.526 169.39L372.246 166.5C372.289 166.333 372.381 166.183 372.512 166.071C372.642 165.958 372.804 165.888 372.975 165.871C373.147 165.853 373.319 165.889 373.47 165.973C373.62 166.057 373.741 166.185 373.816 166.34L375.446 169.76L368.066 171.62Z" fill="white"/>
<path d="M375.467 171.07C374.349 171.611 373.161 171.994 371.937 172.21C370.754 172.596 369.522 172.812 368.277 172.85C370.58 171.925 373 171.326 375.467 171.07Z" fill="white"/>
<path d="M315.998 154C315.998 154 315.628 154.38 315.108 155.19C314.41 156.344 313.951 157.626 313.758 158.96C313.473 160.947 313.412 162.96 313.578 164.96C313.688 167.23 313.868 169.71 314.148 172.31C314.621 176.75 315.326 181.163 316.258 185.53C316.608 187.21 316.928 188.53 317.148 189.53C317.248 189.95 317.338 190.3 317.408 190.6C317.478 190.9 317.488 190.98 317.488 190.98C317.488 190.98 317.438 190.86 317.368 190.62C317.298 190.38 317.188 189.96 317.078 189.55C316.828 188.62 316.488 187.28 316.078 185.6C315.106 181.234 314.381 176.817 313.908 172.37C313.628 169.77 313.458 167.28 313.358 165.01C313.206 163.008 313.28 160.995 313.578 159.01C313.793 157.658 314.283 156.365 315.018 155.21C315.289 154.764 315.618 154.357 315.998 154Z" fill="white"/>
<path d="M337.05 140.38L336.82 140.5L336.16 140.82C335.59 141.09 334.76 141.49 333.77 142.04C331.189 143.479 328.683 145.048 326.26 146.74C323.4 148.74 320.87 150.56 319.02 151.88L316.83 153.43L316.22 153.84C316.152 153.894 316.078 153.941 316 153.98C316.057 153.913 316.125 153.855 316.2 153.81L316.78 153.37L318.93 151.76C320.76 150.41 323.28 148.53 326.14 146.57C328.567 144.871 331.091 143.315 333.7 141.91C334.7 141.38 335.54 141 336.13 140.75L336.8 140.47C337 140.4 337 140.37 337.05 140.38Z" fill="white"/>
<path d="M384.737 146.89C384.675 146.855 384.617 146.811 384.568 146.76L384.117 146.37C383.56 145.9 382.976 145.462 382.367 145.06C380.337 143.766 378.184 142.677 375.938 141.81C373.698 140.923 371.411 140.162 369.087 139.53C368.187 139.28 367.467 139.1 366.957 138.98L366.388 138.83C366.318 138.816 366.251 138.792 366.188 138.76H366.397L366.978 138.87C367.488 138.97 368.217 139.13 369.117 139.36C371.464 139.952 373.769 140.697 376.017 141.59C378.276 142.457 380.433 143.57 382.448 144.91C383.286 145.478 384.055 146.142 384.737 146.89Z" fill="white"/>
<path d="M337.329 223.22C337.194 223.196 337.062 223.152 336.939 223.09C336.592 222.937 336.257 222.757 335.939 222.55C335.401 222.227 334.931 221.801 334.557 221.297C334.183 220.792 333.912 220.219 333.759 219.61C333.485 218.38 333.622 217.094 334.149 215.95C334.302 215.595 334.496 215.259 334.729 214.95C334.889 214.74 334.999 214.64 335.009 214.65C334.736 215.076 334.493 215.521 334.279 215.98C333.814 217.104 333.706 218.343 333.969 219.53C334.256 220.702 334.969 221.725 335.969 222.4C336.799 223 337.349 223.18 337.329 223.22Z" fill="white"/>
<path d="M334.148 212.39C334.361 212.787 334.519 213.211 334.618 213.65C334.775 214.071 334.869 214.512 334.898 214.96C334.671 214.572 334.509 214.15 334.418 213.71C334.254 213.288 334.163 212.842 334.148 212.39Z" fill="white"/>
<path d="M347.669 436.6L378.169 436.45L377.619 331L377.329 223.73L335.999 223.2L328.569 237.2C325.529 242.828 323.591 248.985 322.859 255.34C322.359 260.2 325.999 276 327.259 280L338.629 316.06L347.669 436.6Z" fill="#263238"/>
<path d="M386.277 223.86L419.797 315.23C421.783 321.117 422.443 327.37 421.729 333.542C421.015 339.714 418.945 345.652 415.667 350.93L376.747 426.93L354.867 399.55L387.427 331.55L358.727 285L363.557 224L377.077 223.78L386.277 223.86Z" fill="#263238"/>
<path d="M374.547 254.47C374.547 254.47 374.547 254.63 374.547 254.94C374.547 255.25 374.597 255.73 374.637 256.32C374.707 257.55 374.797 259.32 374.917 261.61C375.147 266.24 375.467 272.89 375.917 281.1C376.367 289.31 376.747 299.1 377.247 310C377.487 315.44 377.747 321.15 378.007 327.07C378.197 330.07 378.117 333.07 378.147 336.07C378.177 339.07 378.147 342.23 378.147 345.37C378.147 370.5 378.227 393.25 378.257 409.74C378.257 417.96 378.257 424.62 378.257 429.25C378.257 431.54 378.257 433.32 378.257 434.56C378.257 435.14 378.257 435.56 378.257 435.94C378.257 436.32 378.257 436.41 378.257 436.41C378.257 436.41 378.257 436.25 378.257 435.94V434.56C378.257 433.32 378.257 431.56 378.197 429.25C378.197 424.62 378.117 417.97 378.057 409.75C377.987 393.26 377.897 370.51 377.797 345.38C377.797 342.24 377.797 339.14 377.797 336.08C377.797 333.02 377.857 330 377.667 327.08C377.417 321.17 377.167 315.46 376.937 310.02C376.477 299.14 376.057 289.35 375.717 281.11C375.377 272.87 375.127 266.25 374.937 261.62C374.857 259.34 374.797 257.56 374.757 256.32C374.757 255.73 374.757 255.32 374.757 254.94C374.757 254.56 374.547 254.47 374.547 254.47Z" fill="#455A64"/>
<path d="M373.777 225.66C373.894 225.982 373.965 226.318 373.987 226.66C374.097 227.3 374.217 228.23 374.357 229.39C374.617 231.7 374.897 234.91 375.057 238.46C375.217 242.01 375.227 245.23 375.177 247.56C375.177 248.72 375.107 249.67 375.057 250.32C375.068 250.657 375.027 250.995 374.937 251.32C374.811 250.071 374.768 248.815 374.807 247.56C374.807 245.23 374.697 242.03 374.537 238.48C374.377 234.93 374.157 231.74 373.987 229.48C373.845 228.212 373.775 226.936 373.777 225.66Z" fill="#455A64"/>
<path d="M367.058 227.72C367.108 227.79 366.538 228.05 366.378 228.86C366.333 229.08 366.346 229.307 366.414 229.521C366.482 229.734 366.604 229.927 366.768 230.08C366.966 230.264 367.213 230.387 367.479 230.435C367.745 230.483 368.019 230.453 368.268 230.35C368.508 230.226 368.708 230.038 368.846 229.807C368.984 229.575 369.054 229.309 369.048 229.04C369.039 228.816 368.973 228.598 368.855 228.408C368.738 228.217 368.574 228.059 368.378 227.95C367.972 227.753 367.518 227.673 367.068 227.72C367.068 227.72 367.168 227.59 367.428 227.51C367.803 227.418 368.198 227.457 368.548 227.62C368.827 227.736 369.069 227.928 369.246 228.173C369.422 228.419 369.527 228.708 369.548 229.01C369.588 229.382 369.51 229.758 369.325 230.083C369.14 230.409 368.858 230.668 368.518 230.825C368.178 230.982 367.797 231.028 367.43 230.957C367.062 230.886 366.726 230.702 366.468 230.43C366.256 230.219 366.105 229.953 366.033 229.662C365.96 229.371 365.969 229.066 366.058 228.78C366.159 228.406 366.385 228.077 366.698 227.85C366.898 227.71 367.048 227.69 367.058 227.72Z" fill="#455A64"/>
<path d="M351.06 225.91C351.207 226.225 351.298 226.564 351.33 226.91C351.491 227.808 351.521 228.724 351.42 229.63C351.276 230.979 350.886 232.291 350.27 233.5C349.525 235.004 348.423 236.302 347.059 237.28C345.696 238.258 344.113 238.886 342.45 239.11C341.119 239.309 339.762 239.258 338.45 238.96C337.562 238.767 336.706 238.447 335.91 238.01C335.609 237.868 335.332 237.679 335.09 237.45C336.195 237.947 337.348 238.333 338.53 238.6C339.952 238.896 341.42 238.893 342.842 238.593C344.263 238.293 345.607 237.701 346.788 236.856C347.969 236.01 348.962 234.928 349.704 233.68C350.446 232.431 350.922 231.042 351.1 229.6C351.217 228.372 351.204 227.135 351.06 225.91Z" fill="#455A64"/>
<path d="M390.3 234.67C389.647 234.745 388.986 234.666 388.37 234.44C386.859 233.964 385.502 233.094 384.44 231.92C383.367 230.751 382.631 229.313 382.31 227.76C382.152 227.126 382.152 226.464 382.31 225.83C382.4 225.83 382.41 226.56 382.71 227.68C383.115 229.127 383.852 230.46 384.862 231.573C385.872 232.685 387.128 233.547 388.53 234.09C389.57 234.5 390.31 234.57 390.3 234.67Z" fill="#455A64"/>
<path d="M402.208 333.17C401.707 333.742 401.108 334.219 400.438 334.58C399.736 335.025 398.971 335.362 398.168 335.58C397.159 335.848 396.093 335.82 395.098 335.5C393.352 334.841 391.855 333.652 390.818 332.1C390.342 331.517 389.949 330.871 389.648 330.18C390.188 330.695 390.677 331.261 391.108 331.87C392.17 333.278 393.604 334.362 395.248 335C396.088 335.224 396.964 335.275 397.824 335.149C398.683 335.024 399.508 334.725 400.248 334.27C400.88 333.866 401.535 333.499 402.208 333.17Z" fill="#455A64"/>
<path d="M394.57 339C393.388 337.776 392.333 336.436 391.42 335C390.368 333.663 389.451 332.226 388.68 330.71C389.87 331.93 390.929 333.27 391.84 334.71C392.9 336.039 393.815 337.477 394.57 339Z" fill="#455A64"/>
<path d="M343.328 258C343.188 258.05 342.838 257.48 342.528 256.71C342.218 255.94 342.088 255.29 342.218 255.23C342.348 255.17 342.708 255.75 343.008 256.52C343.308 257.29 343.458 258 343.328 258Z" fill="#FAFAFA"/>
<path d="M362.69 260.78C362.54 260.78 362.43 260.29 362.43 259.68C362.43 259.07 362.54 258.57 362.69 258.57C362.84 258.57 362.95 259.07 362.95 259.68C362.95 260.29 362.83 260.78 362.69 260.78Z" fill="#FAFAFA"/>
<path d="M354.728 271.3C354.588 271.3 354.428 270.7 354.378 269.93C354.328 269.16 354.378 268.54 354.538 268.53C354.698 268.52 354.848 269.13 354.898 269.9C354.948 270.67 354.868 271.29 354.728 271.3Z" fill="#FAFAFA"/>
<path d="M340.187 279C340.067 279.09 339.657 278.72 339.117 278.34C338.577 277.96 338.117 277.67 338.117 277.53C338.117 277.39 338.777 277.47 339.387 277.91C339.997 278.35 340.307 279 340.187 279Z" fill="#FAFAFA"/>
<path d="M365.819 288.81C365.699 288.73 365.819 288.3 366.159 287.81C366.499 287.32 366.809 287.04 366.929 287.12C367.049 287.2 366.929 287.64 366.589 288.12C366.249 288.6 365.939 288.89 365.819 288.81Z" fill="#FAFAFA"/>
<path d="M349.998 291.58C349.858 291.58 349.738 290.75 349.738 289.74C349.738 288.73 349.858 287.89 349.998 287.89C350.138 287.89 350.258 288.72 350.258 289.74C350.258 290.76 350.108 291.58 349.998 291.58Z" fill="#FAFAFA"/>
<path d="M344.819 302.8C344.739 302.91 344.219 302.68 343.659 302.27C343.099 301.86 342.659 301.44 342.789 301.32C342.919 301.2 343.399 301.44 343.959 301.85C344.519 302.26 344.909 302.68 344.819 302.8Z" fill="#FAFAFA"/>
<path d="M360.839 306.7C360.899 306.83 360.579 307.1 360.119 307.31C359.659 307.52 359.239 307.57 359.179 307.44C359.119 307.31 359.449 307.04 359.909 306.83C360.369 306.62 360.789 306.57 360.839 306.7Z" fill="#FAFAFA"/>
<path d="M349.999 325C349.879 325.06 349.359 324.29 348.849 323.27C348.339 322.25 348.029 321.37 348.159 321.27C348.289 321.17 348.809 321.98 349.309 323C349.809 324.02 350.089 324.89 349.999 325Z" fill="#FAFAFA"/>
<path d="M367.669 323.3C367.539 323.23 367.769 322.56 368.169 321.79C368.569 321.02 369.019 320.46 369.169 320.53C369.319 320.6 369.069 321.27 368.659 322.04C368.249 322.81 367.789 323.37 367.669 323.3Z" fill="#FAFAFA"/>
<path d="M359.916 338.79C359.766 338.79 359.786 337.98 359.626 337.04C359.466 336.1 359.226 335.35 359.366 335.28C359.506 335.21 359.986 335.92 360.146 336.96C360.306 338 360.056 338.82 359.916 338.79Z" fill="#FAFAFA"/>
<path d="M351.619 347.64C351.519 347.74 351.019 347.36 350.509 346.8C349.999 346.24 349.669 345.71 349.779 345.61C349.889 345.51 350.379 345.89 350.889 346.45C351.399 347.01 351.729 347.54 351.619 347.64Z" fill="#FAFAFA"/>
<path d="M371.758 351C371.658 350.9 372.028 350.36 372.588 349.79C373.148 349.22 373.668 348.85 373.778 348.95C373.888 349.05 373.508 349.6 372.958 350.16C372.408 350.72 371.868 351.1 371.758 351Z" fill="#FAFAFA"/>
<path d="M360.179 364.25C360.039 364.25 360.039 363.46 360.179 362.54C360.319 361.62 360.539 360.9 360.689 360.92C360.839 360.94 360.829 361.7 360.689 362.62C360.549 363.54 360.319 364.27 360.179 364.25Z" fill="#FAFAFA"/>
<path d="M352.387 370.68C352.257 370.75 351.817 370.23 351.387 369.52C350.957 368.81 350.737 368.18 350.857 368.11C350.977 368.04 351.417 368.55 351.857 369.26C352.297 369.97 352.507 370.6 352.387 370.68Z" fill="#FAFAFA"/>
<path d="M371.157 378.79C371.247 378.91 370.737 379.42 370.017 379.93C369.297 380.44 368.667 380.76 368.577 380.64C368.487 380.52 369.007 380.01 369.717 379.5C370.427 378.99 371.077 378.68 371.157 378.79Z" fill="#FAFAFA"/>
<path d="M355.519 389.32C355.379 389.27 355.519 388.47 355.649 387.47C355.779 386.47 355.699 385.65 355.849 385.63C355.999 385.61 356.259 386.45 356.159 387.52C356.059 388.59 355.649 389.38 355.519 389.32Z" fill="#FAFAFA"/>
<path d="M361.769 404.44C361.649 404.53 361.229 404.19 360.819 403.68C360.409 403.17 360.179 402.68 360.289 402.59C360.399 402.5 360.819 402.84 361.229 403.35C361.639 403.86 361.879 404.35 361.769 404.44Z" fill="#FAFAFA"/>
<path d="M354.937 414.58C354.817 414.66 354.267 414.07 353.707 413.25C353.147 412.43 352.797 411.71 352.907 411.63C353.017 411.55 353.577 412.14 354.137 412.96C354.697 413.78 355.057 414.5 354.937 414.58Z" fill="#FAFAFA"/>
<path d="M373.75 401.85C373.62 401.8 373.63 401.43 373.75 401.03C373.87 400.63 374.14 400.33 374.28 400.38C374.42 400.43 374.4 400.8 374.28 401.21C374.16 401.62 373.89 401.91 373.75 401.85Z" fill="#FAFAFA"/>
<path d="M365.45 426C365.32 425.93 365.57 425.22 365.77 424.33C365.97 423.44 366.04 422.69 366.19 422.68C366.34 422.67 366.49 423.48 366.28 424.44C366.07 425.4 365.57 426.08 365.45 426Z" fill="#FAFAFA"/>
<path d="M370.849 271.46C370.719 271.52 370.399 271.12 370.139 270.56C369.879 270 369.768 269.5 369.898 269.44C370.028 269.38 370.348 269.78 370.608 270.34C370.868 270.9 370.999 271.4 370.849 271.46Z" fill="#FAFAFA"/>
<path d="M356.998 240.32C357.078 240.44 356.378 241 355.628 241.8C354.878 242.6 354.368 243.34 354.238 243.27C354.108 243.2 354.448 242.27 355.238 241.45C356.028 240.63 356.898 240.19 356.998 240.32Z" fill="#FAFAFA"/>
<path d="M369.328 240C369.178 240 368.948 239.43 368.598 238.75C368.248 238.07 367.928 237.51 368.038 237.41C368.148 237.31 368.688 237.75 369.038 238.51C369.388 239.27 369.458 239.92 369.328 240Z" fill="#FAFAFA"/>
<path d="M330.827 250.11C330.697 250.05 330.827 249.39 331.137 248.63C331.447 247.87 331.787 247.28 331.927 247.34C332.067 247.4 331.927 248.05 331.617 248.82C331.307 249.59 330.997 250.16 330.827 250.11Z" fill="#FAFAFA"/>
<path d="M332.078 265.21C331.978 265.32 331.408 265 330.798 264.49C330.188 263.98 329.798 263.49 329.858 263.37C329.918 263.25 330.528 263.58 331.138 264.09C331.748 264.6 332.168 265.1 332.078 265.21Z" fill="#FAFAFA"/>
<path d="M357.34 228.33C357.21 228.33 356.93 228.01 356.73 227.5C356.53 226.99 356.47 226.5 356.6 226.5C356.73 226.5 357.01 226.82 357.21 227.33C357.41 227.84 357.47 228.28 357.34 228.33Z" fill="#FAFAFA"/>
<path d="M381.527 235.71C381.387 235.71 381.397 235.08 381.527 234.37C381.657 233.66 381.917 233.1 382.057 233.13C382.197 233.16 382.187 233.77 382.057 234.48C381.927 235.19 381.667 235.74 381.527 235.71Z" fill="#FAFAFA"/>
<path d="M387.206 247.14C387.076 247.08 387.256 246.34 387.616 245.47C387.976 244.6 388.366 243.95 388.496 244C388.626 244.05 388.496 244.8 388.096 245.67C387.696 246.54 387.346 247.19 387.206 247.14Z" fill="#FAFAFA"/>
<path d="M383.158 256.36C383.028 256.42 382.548 255.73 382.088 254.82C381.628 253.91 381.368 253.1 381.498 253.04C381.628 252.98 382.098 253.67 382.558 254.58C383.018 255.49 383.288 256.29 383.158 256.36Z" fill="#FAFAFA"/>
<path d="M391.817 265.58C391.687 265.53 391.817 264.95 392.037 264.29C392.257 263.63 392.607 263.13 392.747 263.18C392.887 263.23 392.747 263.81 392.527 264.47C392.307 265.13 391.997 265.63 391.817 265.58Z" fill="#FAFAFA"/>
<path d="M384.078 274.61C383.958 274.69 383.648 274.42 383.398 274.02C383.148 273.62 383.029 273.22 383.159 273.14C383.289 273.06 383.578 273.33 383.838 273.74C384.098 274.15 384.198 274.54 384.078 274.61Z" fill="#FAFAFA"/>
<path d="M385.727 293.25C385.627 293.34 384.997 292.85 384.337 292.13C383.677 291.41 383.227 290.76 383.337 290.66C383.447 290.56 384.067 291.06 384.727 291.78C385.387 292.5 385.837 293.15 385.727 293.25Z" fill="#FAFAFA"/>
<path d="M395.878 282.54C395.768 282.63 395.218 282.13 394.658 281.41C394.098 280.69 393.738 280.05 393.848 279.96C393.958 279.87 394.508 280.38 395.068 281.09C395.628 281.8 395.998 282.46 395.878 282.54Z" fill="#FAFAFA"/>
<path d="M401.447 297.31C401.317 297.25 401.546 296.5 401.956 295.64C402.366 294.78 402.796 294.12 402.956 294.18C403.116 294.24 402.866 295 402.456 295.86C402.046 296.72 401.577 297.38 401.447 297.31Z" fill="#FAFAFA"/>
<path d="M389.607 309.47C389.477 309.54 389.017 308.99 388.377 308.4C387.737 307.81 387.147 307.4 387.207 307.25C387.267 307.1 388.027 307.37 388.727 308.02C389.427 308.67 389.727 309.4 389.607 309.47Z" fill="#FAFAFA"/>
<path d="M390.347 322C390.347 322.14 389.847 322.26 389.237 322.26C388.627 322.26 388.137 322.14 388.137 322C388.137 321.86 388.627 321.74 389.237 321.74C389.847 321.74 390.347 321.86 390.347 322Z" fill="#FAFAFA"/>
<path d="M402.519 318.5C402.389 318.43 402.649 317.8 402.839 317.02C403.029 316.24 403.109 315.56 403.259 315.55C403.409 315.54 403.569 316.27 403.349 317.14C403.129 318.01 402.629 318.58 402.519 318.5Z" fill="#FAFAFA"/>
<path d="M414.609 322.71C414.479 322.76 414.109 322.05 413.789 321.14C413.469 320.23 413.319 319.45 413.449 319.41C413.579 319.37 413.959 320.06 414.279 320.97C414.599 321.88 414.749 322.66 414.609 322.71Z" fill="#FAFAFA"/>
<path d="M412.678 339.91C412.558 339.84 412.868 339 413.368 338.03C413.868 337.06 414.368 336.33 414.518 336.4C414.668 336.47 414.338 337.31 413.828 338.27C413.318 339.23 412.808 340 412.678 339.91Z" fill="#FAFAFA"/>
<path d="M401.65 350C401.52 350.05 401.11 349.36 400.73 348.45C400.35 347.54 400.16 346.76 400.3 346.7C400.44 346.64 400.84 347.34 401.21 348.25C401.58 349.16 401.78 350 401.65 350Z" fill="#FAFAFA"/>
<path d="M389.428 353.91C389.428 354.05 389.008 354.17 388.498 354.17C387.988 354.17 387.578 354.05 387.578 353.91C387.578 353.77 387.998 353.65 388.498 353.65C388.998 353.65 389.428 353.77 389.428 353.91Z" fill="#FAFAFA"/>
<path d="M396.429 370C396.299 370 396.019 369.45 395.809 368.69C395.599 367.93 395.559 367.27 395.699 367.24C395.839 367.21 396.109 367.79 396.319 368.55C396.529 369.31 396.569 369.92 396.429 370Z" fill="#FAFAFA"/>
<path d="M387.577 364.6C387.457 364.53 387.577 364.06 387.907 363.55C388.237 363.04 388.567 362.69 388.687 362.76C388.807 362.83 388.687 363.31 388.357 363.82C388.027 364.33 387.707 364.68 387.577 364.6Z" fill="#FAFAFA"/>
<path d="M387.397 382.31C387.257 382.31 387.057 381.64 386.957 380.77C386.857 379.9 386.887 379.19 387.027 379.17C387.167 379.15 387.367 379.84 387.467 380.71C387.567 381.58 387.537 382.29 387.397 382.31Z" fill="#FAFAFA"/>
</svg>
