<svg width="500" height="500" viewBox="0 0 500 500" fill="none" xmlns="http://www.w3.org/2000/svg">
<path opacity="0.16" d="M248.259 477.81C332.974 477.81 401.649 469.433 401.649 459.1C401.649 448.767 332.974 440.39 248.259 440.39C163.544 440.39 94.8691 448.767 94.8691 459.1C94.8691 469.433 163.544 477.81 248.259 477.81Z" fill="black"/>
<path opacity="0.07" d="M402.129 68.41C391.649 59.029 380.279 50.6929 368.179 43.52L268.359 193.52L403.999 70.13C403.389 69.55 402.769 69 402.129 68.41ZM312.799 21.81C297.234 18.5687 281.236 17.9569 265.469 20L268.359 193.51L312.799 21.81ZM208.179 42.46C198.646 49.1553 189.921 56.9339 182.179 65.64C179.473 68.6733 176.689 71.7133 173.829 74.76L268.369 193.53L208.179 42.46ZM126.289 118.68C119.807 123.703 113.075 128.396 106.119 132.74C91.1494 142 74.9994 148.87 59.8494 160.68L268.359 193.53L126.289 118.68ZM11.8894 256.81C10.0594 283.88 15.1894 313.18 25.1194 339.68L268.359 193.53L11.8894 256.81ZM268.359 193.53L94.7094 423.36C119.969 434.36 150.339 436.36 181.809 433.94L268.359 193.53ZM268.359 193.53L276.619 418.81C294.469 416.9 316.269 417.49 338.849 416.52L268.359 193.53ZM463.299 349.63L268.359 193.53L420.139 398.14C437.809 388.25 452.999 373.06 463.299 349.63ZM471.549 215L268.359 193.53L477.489 269.26C476.655 251.066 474.671 232.943 471.549 215ZM438.639 115.32L268.359 193.53L456.509 155.85C451.7 141.863 445.722 128.305 438.639 115.32Z" fill="black"/>
<path d="M444.601 335.28C444.601 335.28 433.811 331.63 430.601 329.4C427.391 327.17 419.181 318.93 417.271 312.58C415.623 306.719 414.528 300.716 414.001 294.65C413.521 289.73 411.461 288.46 408.441 292.27C405.421 296.08 404.441 302.27 405.271 306.27C406.101 310.27 408.601 314.84 408.271 315.64C407.941 316.44 407.471 318.02 407.471 318.02C407.471 318.02 397.791 316.91 392.401 315.64C387.011 314.37 382.721 313.89 382.401 316.43C382.081 318.97 383.191 322.94 383.511 325.64C383.831 328.34 387.951 340.24 390.021 342.93C391.488 345.023 393.189 346.942 395.091 348.65C396.361 349.6 396.361 350.39 399.381 350.71C401.94 350.94 404.483 351.31 407.001 351.82C408.111 352.14 409.221 353.25 414.461 353.09C417.754 352.977 421.037 352.659 424.291 352.14L440.001 358L444.601 335.28Z" fill="white" stroke="#263238" stroke-width="0.75" stroke-miterlimit="10"/>
<path d="M439.522 332.26L433.012 360.51L443.652 364.79L449.042 335.44L439.522 332.26Z" fill="white" stroke="#263238" stroke-width="0.75" stroke-miterlimit="10"/>
<path d="M466.322 337.66L445.552 332.58L437.932 366.22L466.202 379.41L466.322 376.86V337.66Z" fill="#263238" stroke="#263238" stroke-width="0.75" stroke-miterlimit="10"/>
<path d="M406.83 319.41C406.83 319.41 405.4 328 405.4 330C405.4 332 409.84 337.62 411.4 337.93" stroke="#263238" stroke-width="0.75" stroke-miterlimit="10"/>
<path d="M403.651 341C403.651 341 405.881 341.79 405.241 343.7C404.601 345.61 399.841 348.3 397.621 349.57C395.401 350.84 394.621 350.68 392.071 349.25C390.572 348.421 389.438 347.062 388.891 345.44C390.49 345.4 392.084 345.243 393.661 344.97L403.651 341Z" fill="white" stroke="#263238" stroke-width="0.75" stroke-miterlimit="10"/>
<path d="M385.401 336.86C385.401 336.86 385.401 344.16 387.151 344.8C388.822 345.445 390.6 345.767 392.391 345.75C393.501 345.59 400.961 343.05 402.391 342.1C403.821 341.15 405.251 339.1 404.461 337.18L403.661 335.28C401.249 335.693 398.807 335.904 396.361 335.91C392.361 335.91 385.731 334.64 385.251 335.12C384.771 335.6 385.401 336.86 385.401 336.86Z" fill="white" stroke="#263238" stroke-width="0.75" stroke-miterlimit="10"/>
<path d="M383 327C382.683 327.202 382.427 327.487 382.26 327.823C382.093 328.16 382.02 328.535 382.05 328.91C382.05 330.34 380.15 334.62 382.37 336.05C384.59 337.48 391.57 338.59 393 338.59C394.43 338.59 402.84 335.59 403.63 335.26C404.42 334.93 404.43 332.08 404.11 330.97C403.79 329.86 400.94 329.54 400.94 329.54C400.94 329.54 388.74 329.25 383 327Z" fill="white" stroke="#263238" stroke-width="0.75" stroke-miterlimit="10"/>
<path d="M387.151 317.34C387.151 317.34 392.231 321.15 393.151 321.47L400.931 324.17C400.931 324.17 401.931 324.64 401.931 326.55C401.913 327.373 401.601 328.161 401.05 328.773C400.499 329.384 399.747 329.777 398.931 329.88C397.351 330.2 391.631 331.15 389.571 330.36C386.762 328.971 384.059 327.38 381.481 325.6C380.051 324.6 379.891 323.37 380.681 321.6C381.368 319.89 381.952 318.14 382.431 316.36" fill="white"/>
<path d="M387.151 317.34C387.151 317.34 392.231 321.15 393.151 321.47L400.931 324.17C400.931 324.17 401.931 324.64 401.931 326.55C401.913 327.373 401.601 328.161 401.05 328.773C400.499 329.384 399.747 329.777 398.931 329.88C397.351 330.2 391.631 331.15 389.571 330.36C386.762 328.971 384.059 327.38 381.481 325.6C380.051 324.6 379.891 323.37 380.681 321.6C381.368 319.89 381.952 318.14 382.431 316.36" stroke="#263238" stroke-width="0.75" stroke-miterlimit="10"/>
<path d="M413.001 89.88C413.001 89.88 402.091 93.19 398.221 93.23C394.351 93.27 382.831 91.36 377.591 87.3C372.823 83.5094 368.424 79.2773 364.451 74.66C361.201 70.93 358.781 71.1 358.541 75.95C358.301 80.8 361.131 86.39 364.091 89.16C367.051 91.93 371.781 94.16 371.991 95.02C372.201 95.88 372.731 97.42 372.731 97.42C372.731 97.42 364.211 102.15 359.081 104.25C353.951 106.35 350.191 108.47 351.411 110.72C352.631 112.97 355.841 115.55 357.671 117.56C359.501 119.57 369.781 126.84 373.031 127.84C375.443 128.682 377.942 129.249 380.481 129.53C382.071 129.53 382.481 130.21 385.171 128.72C387.38 127.411 389.664 126.233 392.011 125.19C393.101 124.8 394.651 125.06 398.811 121.88C401.427 119.87 403.915 117.699 406.261 115.38L422.461 111.01L413.001 89.88Z" fill="white" stroke="#263238" stroke-width="0.75" stroke-miterlimit="10"/>
<path d="M407.102 90.38L418.252 117.14L429.392 114.44L416.692 87.42L407.102 90.38Z" fill="white" stroke="#263238" stroke-width="0.75" stroke-miterlimit="10"/>
<path d="M432.041 79.18L412.191 87.13L425.571 118.92L456.231 113.2L454.851 111.06L432.041 79.18Z" fill="#263238" stroke="#263238" stroke-width="0.75" stroke-miterlimit="10"/>
<path d="M373 99C373 99 376.83 106.8 378 108.48C379.17 110.16 386 112.09 387.52 111.42" stroke="#263238" stroke-width="0.75" stroke-miterlimit="10"/>
<path d="M383 118.35C383 118.35 385.27 117.7 385.86 119.62C386.45 121.54 384.15 126.5 383.08 128.83C382.01 131.16 381.28 131.49 378.38 131.83C376.68 132.032 374.966 131.585 373.58 130.58C374.858 129.619 376.061 128.563 377.18 127.42L383 118.35Z" fill="white" stroke="#263238" stroke-width="0.75" stroke-miterlimit="10"/>
<path d="M365.771 125.61C365.771 125.61 370.011 131.55 371.771 131.05C373.505 130.601 375.14 129.831 376.591 128.78C377.401 128 381.991 121.6 382.591 119.99C383.191 118.38 383.161 115.88 381.411 114.79L379.661 113.7C377.939 115.441 376.076 117.037 374.091 118.47C370.861 120.77 364.701 123.62 364.591 124.28C364.481 124.94 365.771 125.61 365.771 125.61Z" fill="white" stroke="#263238" stroke-width="0.75" stroke-miterlimit="10"/>
<path d="M358.102 119C357.963 119.35 357.922 119.73 357.982 120.102C358.042 120.473 358.201 120.821 358.442 121.11C359.272 122.27 360.212 126.86 362.852 126.73C365.492 126.6 371.852 123.44 372.982 122.61C374.112 121.78 379.222 114.43 379.692 113.71C380.162 112.99 378.482 110.71 377.582 109.95C376.682 109.19 374.172 110.64 374.172 110.64C374.172 110.64 364.002 117.48 358.102 119Z" fill="white" stroke="#263238" stroke-width="0.75" stroke-miterlimit="10"/>
<path d="M355.832 108.72C355.832 108.72 362.172 108.86 363.132 108.57C364.092 108.28 371.032 106.24 371.032 106.24C371.032 106.24 372.082 106.07 373.192 107.62C373.66 108.3 373.865 109.127 373.769 109.948C373.674 110.768 373.284 111.526 372.672 112.08C371.572 113.27 367.482 117.36 365.342 117.92C362.246 118.424 359.118 118.705 355.982 118.76C354.272 118.76 353.402 117.87 352.982 115.99C352.542 114.203 351.998 112.443 351.352 110.72" fill="white"/>
<path d="M355.832 108.72C355.832 108.72 362.172 108.86 363.132 108.57C364.092 108.28 371.032 106.24 371.032 106.24C371.032 106.24 372.082 106.07 373.192 107.62C373.66 108.3 373.865 109.127 373.769 109.948C373.674 110.768 373.284 111.526 372.672 112.08C371.572 113.27 367.482 117.36 365.342 117.92C362.246 118.424 359.118 118.705 355.982 118.76C354.272 118.76 353.402 117.87 352.982 115.99C352.542 114.203 351.998 112.443 351.352 110.72" stroke="#263238" stroke-width="0.75" stroke-miterlimit="10"/>
<path d="M63.8398 331.69C63.8398 331.69 74.6298 328.04 77.8398 325.82C81.0498 323.6 89.2298 315.34 91.1298 309C92.8065 303.142 93.9248 297.139 94.4698 291.07C94.9398 286.15 97.0098 284.88 100.02 288.69C103.03 292.5 104.02 298.69 103.19 302.69C102.36 306.69 99.8598 311.26 100.19 312.05C100.52 312.84 100.98 314.43 100.98 314.43C100.98 314.43 110.66 313.32 116.06 312.05C121.46 310.78 125.74 310.3 126.06 312.84C126.38 315.38 125.26 319.35 124.95 322.05C124.64 324.75 120.5 336.65 118.44 339.35C116.971 341.442 115.266 343.357 113.36 345.06C112.09 346.06 112.09 346.81 109.08 347.12C106.522 347.354 103.978 347.724 101.46 348.23C100.35 348.55 99.2398 349.66 93.9998 349.5C90.7034 349.387 87.4171 349.07 84.1598 348.55L68.4498 354.42L63.8398 331.69Z" fill="white" stroke="#263238" stroke-width="0.75" stroke-miterlimit="10"/>
<path d="M68.9187 328.67L75.4187 356.92L64.7887 361.21L59.3887 331.85L68.9187 328.67Z" fill="white" stroke="#263238" stroke-width="0.75" stroke-miterlimit="10"/>
<path d="M42.1094 334.07L62.8794 328.99L70.4994 362.63L42.2394 375.82L42.1094 373.27V334.07Z" fill="#263238" stroke="#263238" stroke-width="0.75" stroke-miterlimit="10"/>
<path d="M101.609 315.82C101.609 315.82 103.039 324.39 103.039 326.45C103.039 328.51 98.5891 334.07 97.0391 334.39" stroke="#263238" stroke-width="0.75" stroke-miterlimit="10"/>
<path d="M104.779 337.4C104.779 337.4 102.559 338.2 103.189 340.1C103.819 342 108.589 344.7 110.809 345.97C113.029 347.24 113.809 347.08 116.369 345.65C117.866 344.828 118.999 343.471 119.539 341.85C117.942 341.811 116.351 341.651 114.779 341.37L104.779 337.4Z" fill="white" stroke="#263238" stroke-width="0.75" stroke-miterlimit="10"/>
<path d="M122.999 333.28C122.999 333.28 122.999 340.58 121.259 341.21C119.592 341.876 117.813 342.216 116.019 342.21C114.909 342.05 107.449 339.52 106.019 338.56C104.589 337.6 103.159 335.56 103.959 333.64L104.749 331.74C107.16 332.153 109.602 332.364 112.049 332.37C116.049 332.37 122.679 331.1 123.159 331.58C123.639 332.06 122.999 333.28 122.999 333.28Z" fill="white" stroke="#263238" stroke-width="0.75" stroke-miterlimit="10"/>
<path d="M125.41 323.44C125.74 323.629 126.009 323.908 126.186 324.244C126.364 324.581 126.441 324.961 126.41 325.34C126.41 326.77 128.32 331.05 126.1 332.48C123.88 333.91 116.84 335 115.41 335C113.98 335 105.57 332 104.78 331.67C103.99 331.34 103.99 328.49 104.31 327.38C104.63 326.27 107.48 325.96 107.48 325.96C107.48 325.96 119.7 325.66 125.41 323.44Z" fill="white" stroke="#263238" stroke-width="0.75" stroke-miterlimit="10"/>
<path d="M121.29 313.76C121.29 313.76 116.21 317.56 115.29 317.88C114.37 318.2 107.51 320.58 107.51 320.58C107.51 320.58 106.51 321.06 106.51 322.96C106.525 323.783 106.837 324.573 107.388 325.185C107.939 325.797 108.693 326.189 109.51 326.29C111.1 326.61 116.81 327.56 118.88 326.77C121.7 325.381 124.414 323.787 127 322C128.43 321.05 128.59 319.78 127.79 318C127.108 316.289 126.527 314.539 126.05 312.76" fill="white"/>
<path d="M121.29 313.76C121.29 313.76 116.21 317.56 115.29 317.88C114.37 318.2 107.51 320.58 107.51 320.58C107.51 320.58 106.51 321.06 106.51 322.96C106.525 323.783 106.837 324.573 107.388 325.185C107.939 325.797 108.693 326.189 109.51 326.29C111.1 326.61 116.81 327.56 118.88 326.77C121.7 325.381 124.414 323.787 127 322C128.43 321.05 128.59 319.78 127.79 318C127.108 316.289 126.527 314.539 126.05 312.76" stroke="#263238" stroke-width="0.75" stroke-miterlimit="10"/>
<path d="M75.5694 99.38C75.5694 99.38 86.4694 102.69 90.3494 102.73C94.2294 102.77 105.729 100.86 110.979 96.8C115.747 93.0094 120.147 88.7773 124.119 84.16C127.369 80.43 129.789 80.6 130.019 85.45C130.249 90.3 127.429 95.89 124.479 98.66C121.529 101.43 116.779 103.66 116.579 104.52C116.379 105.38 115.839 106.92 115.839 106.92C115.839 106.92 124.359 111.64 129.489 113.75C134.619 115.86 138.379 117.96 137.159 120.21C135.939 122.46 132.729 125.04 130.899 127.05C129.069 129.06 118.789 136.34 115.539 137.34C113.128 138.182 110.628 138.749 108.089 139.03C106.499 139.03 106.089 139.71 103.399 138.21C101.184 136.912 98.901 135.733 96.5594 134.68C95.4694 134.3 93.9194 134.55 89.7494 131.38C87.1382 129.368 84.6534 127.197 82.3094 124.88L66.1094 120.51L75.5694 99.38Z" fill="white" stroke="#263238" stroke-width="0.75" stroke-miterlimit="10"/>
<path d="M81.4599 99.88L70.3099 126.64L59.1699 123.94L71.8699 96.92L81.4599 99.88Z" fill="white" stroke="#263238" stroke-width="0.75" stroke-miterlimit="10"/>
<path d="M56.5201 88.68L76.3701 96.63L62.9901 128.42L32.3301 122.7L33.7101 120.55L56.5201 88.68Z" fill="#263238" stroke="#263238" stroke-width="0.75" stroke-miterlimit="10"/>
<path d="M115.53 108.45C115.53 108.45 111.7 116.25 110.53 117.92C109.36 119.59 102.53 121.53 101.01 120.92" stroke="#263238" stroke-width="0.75" stroke-miterlimit="10"/>
<path d="M105.551 127.85C105.551 127.85 103.281 127.2 102.691 129.12C102.101 131.04 104.401 136 105.471 138.32C106.541 140.64 107.271 140.98 110.171 141.32C111.871 141.516 113.582 141.07 114.971 140.07C113.693 139.109 112.49 138.053 111.371 136.91L105.551 127.85Z" fill="white" stroke="#263238" stroke-width="0.75" stroke-miterlimit="10"/>
<path d="M122.79 135.11C122.79 135.11 118.54 141.05 116.79 140.55C115.053 140.104 113.417 139.331 111.97 138.27C111.16 137.5 106.57 131.09 105.97 129.49C105.37 127.89 105.41 125.37 107.16 124.29L108.91 123.2C110.628 124.943 112.491 126.535 114.48 127.96C117.71 130.27 123.87 133.12 123.98 133.78C124.09 134.44 122.79 135.11 122.79 135.11Z" fill="white" stroke="#263238" stroke-width="0.75" stroke-miterlimit="10"/>
<path d="M130.45 128.49C130.592 128.839 130.636 129.219 130.578 129.591C130.52 129.963 130.362 130.312 130.12 130.6C129.29 131.76 128.34 136.35 125.71 136.22C123.08 136.09 116.71 132.93 115.58 132.1C114.45 131.27 109.33 123.92 108.87 123.2C108.41 122.48 110.07 120.2 110.98 119.44C111.89 118.68 114.39 120.12 114.39 120.12C114.39 120.12 124.51 127 130.45 128.49Z" fill="white" stroke="#263238" stroke-width="0.75" stroke-miterlimit="10"/>
<path d="M132.731 118.22C132.731 118.22 126.381 118.36 125.421 118.07C124.461 117.78 117.531 115.73 117.531 115.73C117.531 115.73 116.531 115.57 115.371 117.12C114.904 117.8 114.698 118.626 114.792 119.445C114.885 120.265 115.272 121.023 115.881 121.58C116.991 122.76 121.081 126.86 123.221 127.42C126.316 127.926 129.445 128.204 132.581 128.25C134.291 128.31 135.161 127.37 135.531 125.49C135.971 123.7 136.515 121.937 137.161 120.21" fill="white"/>
<path d="M132.731 118.22C132.731 118.22 126.381 118.36 125.421 118.07C124.461 117.78 117.531 115.73 117.531 115.73C117.531 115.73 116.531 115.57 115.371 117.12C114.904 117.8 114.698 118.626 114.792 119.445C114.885 120.265 115.272 121.023 115.881 121.58C116.991 122.76 121.081 126.86 123.221 127.42C126.316 127.926 129.445 128.204 132.581 128.25C134.291 128.31 135.161 127.37 135.531 125.49C135.971 123.7 136.515 121.937 137.161 120.21" stroke="#263238" stroke-width="0.75" stroke-miterlimit="10"/>
<path d="M221.999 244.35C221.999 244.35 214.999 275.01 214.719 289.43C214.439 303.85 215.239 355.82 215.509 366.97C215.779 378.12 220.679 414.31 220.679 417.57C220.679 420.83 221.499 427.09 221.499 427.09L219.319 438.79C217.186 440.439 214.91 441.894 212.519 443.14C207.619 445.86 201.909 449.4 200.279 451.3C200.081 451.529 199.94 451.802 199.869 452.096C199.798 452.391 199.799 452.698 199.871 452.992C199.944 453.286 200.086 453.558 200.286 453.786C200.486 454.014 200.737 454.19 201.019 454.3C202.959 455.06 205.002 455.522 207.079 455.67C211.699 455.94 219.319 455.94 223.399 454.85C227.479 453.76 230.749 450.23 232.649 448.85L234.559 447.49L234.829 450.49C235.745 450.355 236.653 450.172 237.549 449.94C239.546 449.365 241.464 448.545 243.259 447.5C243.259 447.5 243.529 442.87 243.529 440.15C243.529 437.43 242.169 432.53 241.899 431.45C241.629 430.37 241.899 420.56 241.089 417.3C240.279 414.04 239.729 414.85 239.179 408.87C238.629 402.89 243.529 346.29 243.259 344.66C242.989 343.03 250.179 294 250.179 294C250.179 294 263.929 358 268.279 370.25C272.629 382.5 274.809 406.16 274.809 407.8C274.809 409.44 277.259 428.74 278.349 431.47C279.439 434.2 282.429 442.62 282.429 442.62C282.429 442.62 286.779 449.15 288.679 452.41C290.579 455.67 297.119 458.41 302.009 459.21C306.899 460.01 310.719 460.3 311.009 453.77C311.299 447.24 308.839 442.89 304.749 439.9C300.659 436.91 299.859 434.19 299.859 434.19C300.156 430.196 300.156 426.185 299.859 422.19C299.309 417.56 296.319 414.02 296.049 404.5C295.779 394.98 293.869 344.92 292.239 337.03C290.609 329.14 288.459 276.36 288.729 269.03C288.999 261.7 288.039 241.22 288.039 241.22L221.799 240.47L221.999 244.35Z" fill="#263238" stroke="#263238" stroke-width="0.75" stroke-miterlimit="10"/>
<path d="M248 134.74C248 134.74 237.89 140.74 230.73 144.28C223.57 147.82 214.83 149.88 213.94 151.89C213.05 153.9 197.6 186.82 194.69 191.29C191.78 195.76 184.84 204.5 186.18 209.42C187.52 214.34 193.12 221.06 196.7 220.62C200.28 220.18 207.45 218.15 210.36 213.01C213.27 207.87 220.21 191.29 220.21 191.29C220.21 191.29 221.33 206.74 221.1 214.35C220.87 221.96 220.88 228.23 220.43 232.03C219.98 235.83 217.97 240.54 218.86 241.88C219.75 243.22 220.86 244.57 222 244.35C223.14 244.13 239.91 243.9 245 244.12C250.09 244.34 273.43 244.12 278.36 244.35C283.29 244.58 287.54 242.11 287.98 241.21C288.42 240.31 289.33 238.97 288.88 234.05C288.43 229.13 289.33 214.13 290.67 208.31C292.01 202.49 300.07 180.1 300.07 180.1C300.07 180.1 321.34 196.89 325.82 198.23C330.3 199.57 342.38 197.56 346.41 192.64C350.44 187.72 351.78 183.9 349.32 180.55C346.86 177.2 337.9 174.06 328.5 163.98C319.1 153.9 315.5 149.21 309.03 146.07C302.56 142.93 289.33 138.69 286.19 137.34C283.05 135.99 282.19 135.34 280.19 134.43C278.19 133.52 273.47 131.75 264.74 131.52C259.006 131.521 253.325 132.614 248 134.74Z" fill="#FBC02D" stroke="#263238" stroke-width="0.75" stroke-miterlimit="10"/>
<path d="M215.69 175.43C216 176.51 220.2 191.29 220.2 191.29L214 179" stroke="#263238" stroke-width="0.75" stroke-miterlimit="10"/>
<path d="M300.109 180.1C299.179 180.1 290.379 175.1 290.379 175.1" stroke="#263238" stroke-width="0.75" stroke-miterlimit="10"/>
<path d="M285.898 174.51C285.898 174.51 289.448 179.14 292.538 180.06" stroke="#263238" stroke-width="0.75" stroke-miterlimit="10"/>
<path d="M246.739 148.47L249.549 159.08C249.549 159.08 240.649 203.57 239.249 211.08C238.397 215.617 237.822 220.203 237.529 224.81L245.329 240.26L255.169 223.56C255.169 223.56 254.229 202.49 253.919 185.64C253.609 168.79 254.229 160.64 254.069 160.2C253.909 159.76 263.909 152.39 263.909 152.39C263.909 152.39 269.679 145.99 269.989 144.9C270.299 143.81 265.939 145.21 264.989 146.15C263.926 147.05 262.666 147.688 261.312 148.012C259.957 148.337 258.545 148.34 257.189 148.02C253.129 147.24 247.819 142.72 247.039 144.9C246.572 146.03 246.468 147.278 246.739 148.47Z" fill="#263238" stroke="#263238" stroke-width="0.75" stroke-miterlimit="10"/>
<path d="M253.45 130.37C252.98 130.68 249.24 131.62 247.99 134.74C246.74 137.86 240.34 152.22 238.47 154.56C236.6 156.9 239.56 155.96 242.06 154.4C244.56 152.84 246.74 146.76 248.14 149.4C249.54 152.04 253.61 153.14 253.61 153.14C253.61 153.14 262.03 151.58 263.91 150.33C265.191 149.436 266.392 148.432 267.5 147.33C267.5 147.33 274.68 158.1 276.7 159.03C278.72 159.96 279.05 158.41 279.2 156.69C279.94 150.42 281.14 144.214 282.79 138.12C284.79 131.41 280.92 129.22 278.42 126.42C275.92 123.62 273.11 125.48 270.31 125.79C267.51 126.1 253.45 130.37 253.45 130.37Z" fill="#FBC02D" stroke="#263238" stroke-width="0.75" stroke-miterlimit="10"/>
<path d="M249.169 82.31C249.169 82.31 244.289 89.72 245.169 91.52C246.049 93.32 246.069 95.68 245.169 96.94C244.489 97.7684 243.992 98.7313 243.711 99.7655C243.43 100.8 243.372 101.882 243.539 102.94C243.899 106.01 242.099 121.54 244.809 123.35C246.552 124.484 248.43 125.394 250.399 126.06C250.399 126.06 253.469 152.06 254.559 151.34C255.649 150.62 271.199 134.69 272.999 131.25C274.799 127.81 276.999 122.95 276.999 122.95C276.999 122.95 283.139 111.21 286.749 106.33C290.359 101.45 294.519 92.43 293.259 87.73C291.999 83.03 285.489 79.6 282.419 77.07C279.349 74.54 281.339 68.77 276.999 65.88C272.659 62.99 267.429 62.27 263.999 63.53C260.569 64.79 260.389 67.53 256.229 64.79C252.069 62.05 248.109 59.38 241.789 62.45C235.469 65.52 234.199 76.35 237.989 79.24C241.779 82.13 249.169 82.31 249.169 82.31Z" fill="white" stroke="#263238" stroke-width="0.75" stroke-miterlimit="10"/>
<path d="M282.399 77.07C279.329 74.55 281.319 68.77 276.979 65.88C272.639 62.99 267.409 62.27 263.979 63.53C260.549 64.79 260.369 67.53 256.209 64.79C252.049 62.05 248.089 59.38 241.769 62.45C235.449 65.52 234.179 76.35 237.969 79.24C241.759 82.13 249.169 82.31 249.169 82.31C249.169 82.31 254.589 79.78 258.169 77.8C261.749 75.82 269.909 79.06 271.349 80.33C272.789 81.6 270.629 80.69 270.269 83.03C269.909 85.37 274.419 89.18 276.409 91.03C278.399 92.88 276.049 94.1 275.509 96.45C274.969 98.8 277.129 99.7 278.399 98.8C279.669 97.9 283.629 92.8 285.079 95.73C286.529 98.66 288.689 102.95 284.719 106.02C280.749 109.09 277.849 108.37 277.849 108.37C277.849 108.37 276.559 116.19 280.309 116.8C282.256 113.218 284.389 109.739 286.699 106.38C290.319 101.51 294.469 92.48 293.209 87.78C291.949 83.08 285.469 79.6 282.399 77.07Z" fill="#263238" stroke="#263238" stroke-width="0.75" stroke-miterlimit="10"/>
<path d="M258.92 91.8801C260.072 91.45 261.302 91.2661 262.53 91.34" stroke="#263238" stroke-width="0.5" stroke-miterlimit="10"/>
<path d="M249.679 93.66C248.788 93.8487 247.927 94.1582 247.119 94.58" stroke="#263238" stroke-width="0.5" stroke-miterlimit="10"/>
<path d="M249.739 88.73C250.381 89.9594 250.569 91.3759 250.269 92.73C249.679 94.73 244.089 99.1 244.159 99.95C244.229 100.8 247.439 102.58 247.379 103.3C247.319 104.02 247.119 105.21 247.119 105.21" stroke="#263238" stroke-width="0.75" stroke-miterlimit="10"/>
<path d="M261.959 94.38C262.611 94.38 263.139 93.7309 263.139 92.93C263.139 92.1292 262.611 91.48 261.959 91.48C261.308 91.48 260.779 92.1292 260.779 92.93C260.779 93.7309 261.308 94.38 261.959 94.38Z" fill="#263238" stroke="#263238" stroke-width="0.5" stroke-miterlimit="10"/>
<path d="M259.658 95.3001C261.246 94.6353 262.939 94.2561 264.658 94.1801" stroke="#263238" stroke-width="0.75" stroke-miterlimit="10"/>
<path d="M255.488 86.6C255.488 86.6 259.358 83.01 262.358 83.73C265.358 84.45 266.498 87.34 266.018 87.35C265.538 87.36 264.018 85.13 262.378 84.96C260.738 84.79 259.568 85.57 258.148 86.29C256.728 87.01 255.858 87.51 255.488 86.6Z" fill="#263238" stroke="#263238" stroke-width="0.5" stroke-miterlimit="10"/>
<path d="M249.999 89.45C249.955 89.206 249.859 88.9741 249.719 88.7693C249.579 88.5645 249.398 88.3914 249.187 88.2613C248.975 88.1312 248.739 88.0469 248.493 88.014C248.247 87.981 247.997 88.0001 247.759 88.07C245.989 88.34 244.649 91.56 245.189 91.52C245.729 91.48 246.319 89.45 247.699 89.26C249.079 89.07 249.999 91.23 249.999 89.45Z" fill="#263238" stroke="#263238" stroke-width="0.5" stroke-miterlimit="10"/>
<path d="M247 109.29C247 109.29 249.83 108.96 253.51 108.5C257.19 108.04 262.37 107.32 263.23 104.69C263.72 103.416 263.941 102.054 263.88 100.69" stroke="#263238" stroke-width="0.75" stroke-miterlimit="10"/>
<path d="M261.889 100.49C262.966 100.402 264.05 100.469 265.109 100.69" stroke="#263238" stroke-width="0.75" stroke-miterlimit="10"/>
<path d="M277.048 113.47C276.531 115.908 275.1 118.055 273.048 119.47C269.768 121.56 245.678 123.95 246.478 124.25C247.278 124.55 250.408 126.05 250.408 126.05L251.348 134.6C255.142 131.241 259.362 128.397 263.898 126.14C271.878 122 276.858 120.63 277.048 113.47Z" fill="#263238" stroke="#263238" stroke-width="0.5" stroke-miterlimit="10"/>
<path d="M290.488 230.24C290.488 230.24 286.008 230.02 284.888 229.8C283.768 229.58 280.188 226.21 278.618 226.44C277.048 226.67 274.148 229.8 273.028 232.44C271.908 235.08 271.458 236.44 271.458 236.44C271.458 236.44 267.458 240.02 269.458 242.44C271.458 244.86 273.718 244.01 273.718 244.01C273.718 244.01 275.058 246.25 276.848 246.47C278.177 246.617 279.512 246.694 280.848 246.7C282.007 247.055 283.218 247.207 284.428 247.15C285.385 246.94 286.296 246.561 287.118 246.03C288.068 246.141 289.025 245.899 289.808 245.35C290.628 244.7 294.598 240.64 296.648 238.55L297.858 237.3L290.488 230.24Z" fill="white" stroke="#263238" stroke-width="0.75" stroke-miterlimit="10"/>
<path d="M327.87 184.13C327.87 184.13 319.59 193.31 316.87 197.78C312.535 204.601 307.828 211.177 302.77 217.48C299.64 221.06 288.67 229.8 288.67 229.8C288.67 229.8 292.02 236.96 294.49 238.08C295.927 238.741 297.424 239.264 298.96 239.64L307.96 232.93C307.96 232.93 324.96 219.93 333.96 212.56C342.96 205.19 355.45 195.32 356.35 191.07C357.25 186.82 356.57 184.58 352.1 181.22C349.318 179.161 346.217 177.573 342.92 176.52" fill="#FBC02D"/>
<path d="M327.87 184.13C327.87 184.13 319.59 193.31 316.87 197.78C312.535 204.601 307.828 211.177 302.77 217.48C299.64 221.06 288.67 229.8 288.67 229.8C288.67 229.8 292.02 236.96 294.49 238.08C295.927 238.741 297.424 239.264 298.96 239.64L307.96 232.93C307.96 232.93 324.96 219.93 333.96 212.56C342.96 205.19 355.45 195.32 356.35 191.07C357.25 186.82 356.57 184.58 352.1 181.22C349.318 179.161 346.217 177.573 342.92 176.52" stroke="#263238" stroke-width="0.75" stroke-miterlimit="10"/>
<path d="M295.639 224.2C295.639 224.2 297.639 234.05 304.589 234.05" stroke="#263238" stroke-width="0.75" stroke-miterlimit="10"/>
<path d="M198.099 151.67C198.099 151.67 199.019 159.54 199.489 163.09C199.623 164.879 200.149 166.617 201.029 168.18C201.029 168.18 193.779 184.38 193.469 184.85C193.159 185.32 185.599 199.51 184.359 201.2C183.119 202.89 180.199 208.3 182.049 211.7C183.899 215.1 186.829 222.04 190.689 222.19C194.549 222.34 199.949 220.03 203.689 217.87C207.429 215.71 208.629 214.32 208.939 208.15C209.249 201.98 209.089 190.87 210.179 185C211.269 179.13 212.029 173 212.799 170.65C213.569 168.3 218.049 169.11 219.589 168.18C221.129 167.25 222.519 165.25 225.299 164.01C227.71 163.093 230.332 162.882 232.859 163.4C233.789 163.71 235.479 162.32 235.019 160.62C234.559 158.92 231.469 158 228.379 158.3C225.289 158.6 222.519 159.54 221.749 159.08C220.979 158.62 220.209 150.43 220.209 150.43C220.209 150.43 209.209 151.36 205.389 151.51C201.569 151.66 198.099 151.67 198.099 151.67Z" fill="white" stroke="#263238" stroke-width="0.75" stroke-miterlimit="10"/>
<path d="M215.068 145.65C215.068 145.65 215.228 155.84 215.228 156.76C215.23 156.975 215.277 157.186 215.364 157.382C215.452 157.578 215.579 157.754 215.738 157.899C215.896 158.043 216.083 158.153 216.286 158.222C216.489 158.291 216.704 158.318 216.918 158.3C217.698 158.15 219.698 158.92 220.168 156.61C220.638 154.3 221.548 147.81 221.088 146.27C220.628 144.73 216.458 144.11 215.068 145.65Z" fill="white" stroke="#263238" stroke-width="0.75" stroke-miterlimit="10"/>
<path d="M215.069 145.65C215.069 145.65 210.139 144.42 208.749 145.19C207.359 145.96 209.519 156.92 209.669 157.84C209.819 158.76 211.989 159.23 212.909 158.92C213.829 158.61 215.229 158 215.229 156.76C215.229 155.52 215.069 145.65 215.069 145.65Z" fill="white" stroke="#263238" stroke-width="0.75" stroke-miterlimit="10"/>
<path d="M207.669 145.5C207.669 145.5 204.429 144.88 203.499 145.96C202.569 147.04 202.269 148.58 202.569 151.36C202.977 154.096 203.81 156.751 205.039 159.23C205.659 160.16 207.669 160.31 208.899 159.85C210.129 159.39 209.669 157.85 209.669 157.85C209.669 157.85 209.049 157.23 208.899 152.45C208.749 147.67 208.749 145.2 208.749 145.2L207.669 145.5Z" fill="white" stroke="#263238" stroke-width="0.75" stroke-miterlimit="10"/>
<path d="M202.268 147.35C201.648 147.5 197.788 147.66 197.638 149.2C197.488 150.74 198.868 158 199.488 158.77C200.108 159.54 201.798 159.23 202.418 158.92C203.038 158.61 204.118 158.15 203.958 157.22C203.798 156.29 202.268 147.35 202.268 147.35Z" fill="white" stroke="#263238" stroke-width="0.75" stroke-miterlimit="10"/>
<path d="M203.498 177.9C202.39 177.723 201.346 177.262 200.47 176.561C199.593 175.86 198.914 174.943 198.498 173.9C196.378 178.62 193.678 184.59 193.498 184.9C193.188 185.36 185.628 199.56 184.388 201.25C183.148 202.94 180.228 208.35 182.078 211.75C183.928 215.15 186.858 222.09 190.718 222.24C194.578 222.39 199.978 220.08 203.718 217.92C207.458 215.76 208.658 214.37 208.968 208.2C209.278 202.03 209.118 190.92 210.208 185.05C210.728 182.17 211.208 179.23 211.608 176.69C209.004 177.596 206.254 178.007 203.498 177.9Z" fill="#FBC02D" stroke="#263238" stroke-width="0.75" stroke-miterlimit="10"/>
<path d="M210.6 160.93C210.6 160.93 207.97 163.24 207.67 165.25C207.514 166.534 207.785 167.835 208.44 168.95" fill="white"/>
<path d="M210.6 160.93C210.6 160.93 207.97 163.24 207.67 165.25C207.514 166.534 207.785 167.835 208.44 168.95" stroke="#263238" stroke-width="0.75" stroke-miterlimit="10"/>
</svg>
