<svg width="142" height="142" viewBox="0 0 142 142" fill="none" xmlns="http://www.w3.org/2000/svg">
<path d="M112.016 111.436L76.1951 111.413C74.1263 111.412 72.1427 110.589 70.6803 109.125C69.2179 107.662 68.3965 105.678 68.3965 103.609L68.4135 13.8052C68.4139 12.7803 68.6161 11.7656 69.0087 10.8188C69.4012 9.87211 69.9764 9.01198 70.7014 8.28755C71.4263 7.56311 72.2869 6.98856 73.2339 6.59671C74.1809 6.20485 75.1958 6.00335 76.2207 6.00372L112.042 6.02644C113.067 6.02607 114.082 6.22766 115.029 6.6197C115.976 7.01173 116.837 7.58654 117.562 8.31127C118.287 9.03601 118.862 9.89648 119.254 10.8435C119.647 11.7906 119.849 12.8056 119.849 13.8308L119.832 103.634C119.832 104.66 119.629 105.676 119.237 106.623C118.844 107.571 118.268 108.431 117.542 109.156C116.816 109.881 115.954 110.455 115.006 110.846C114.058 111.237 113.042 111.438 112.016 111.436Z" fill="#263238"/>
<path d="M112.005 9.20152H105.059C104.833 9.20631 104.609 9.25569 104.402 9.34682C104.195 9.43795 104.008 9.56904 103.852 9.7326C103.695 9.89615 103.572 10.089 103.491 10.3C103.409 10.511 103.369 10.7361 103.375 10.9623V12.2119C103.38 12.4383 103.34 12.6635 103.258 12.8745C103.176 13.0855 103.053 13.2783 102.896 13.4418C102.739 13.6053 102.552 13.7364 102.345 13.8275C102.137 13.9186 101.914 13.9679 101.688 13.9727H88.1523C87.6948 13.963 87.2599 13.7721 86.943 13.442C86.6262 13.1118 86.4534 12.6694 86.4625 12.2119V10.951C86.4724 10.4935 86.3003 10.0507 85.984 9.72004C85.6677 9.38935 85.233 9.19775 84.7755 9.18732H76.2555C75.5377 9.18694 74.8269 9.328 74.1636 9.60244C73.5003 9.87687 72.8976 10.2793 72.3899 10.7867C71.8822 11.2942 71.4795 11.8967 71.2047 12.5598C70.93 13.2229 70.7885 13.9337 70.7885 14.6515L70.7715 102.305C70.7715 103.754 71.3467 105.144 72.3707 106.169C73.3948 107.194 74.7839 107.771 76.2328 107.772L111.983 107.792C113.432 107.792 114.822 107.217 115.847 106.192C116.873 105.167 117.449 103.777 117.45 102.328L117.467 14.6742C117.468 13.9563 117.327 13.2452 117.053 12.5816C116.779 11.9181 116.377 11.315 115.87 10.8068C115.362 10.2986 114.76 9.89527 114.097 9.61984C113.434 9.34441 112.723 9.20226 112.005 9.20152Z" fill="white"/>
<path d="M112.004 9.20152H105.057C104.831 9.20631 104.608 9.25569 104.401 9.34682C104.194 9.43795 104.007 9.56904 103.85 9.7326C103.694 9.89615 103.571 10.089 103.489 10.3C103.407 10.511 103.368 10.7361 103.373 10.9623V12.2119C103.378 12.4383 103.338 12.6635 103.256 12.8745C103.174 13.0855 103.051 13.2783 102.895 13.4418C102.738 13.6053 102.551 13.7364 102.343 13.8275C102.136 13.9186 101.913 13.9679 101.686 13.9727H88.1509C87.6934 13.963 87.2585 13.7721 86.9416 13.442C86.6248 13.1118 86.4519 12.6694 86.4611 12.2119V10.951C86.471 10.4935 86.2989 10.0507 85.9826 9.72004C85.6662 9.38935 85.2316 9.19775 84.7741 9.18732H76.2541C75.5363 9.18694 74.8255 9.328 74.1622 9.60244C73.4989 9.87687 72.8962 10.2793 72.3885 10.7867C71.8808 11.2942 71.4781 11.8967 71.2033 12.5598C70.9285 13.2229 70.7871 13.9337 70.7871 14.6515V23.2595H117.463V14.6685C117.463 13.2201 116.888 11.8308 115.864 10.8058C114.841 9.78076 113.452 9.20378 112.004 9.20152Z" fill="#EBEBEB"/>
<path d="M112.485 16.0971C112.486 16.2168 112.451 16.3341 112.385 16.4339C112.319 16.5338 112.224 16.6117 112.114 16.658C112.003 16.7042 111.882 16.7166 111.764 16.6936C111.647 16.6705 111.538 16.6131 111.454 16.5287C111.369 16.4442 111.311 16.3364 111.287 16.219C111.264 16.1016 111.275 15.9798 111.321 15.8691C111.367 15.7584 111.444 15.6637 111.544 15.5971C111.643 15.5305 111.761 15.495 111.88 15.495C112.04 15.495 112.194 15.5583 112.307 15.6712C112.42 15.784 112.484 15.9371 112.485 16.0971Z" fill="#263238"/>
<path d="M112.485 17.7301C112.485 17.8498 112.45 17.9667 112.383 18.0662C112.317 18.1657 112.222 18.2432 112.112 18.289C112.001 18.3348 111.88 18.3467 111.762 18.3234C111.645 18.3001 111.537 18.2425 111.453 18.1579C111.368 18.0733 111.31 17.9655 111.287 17.8481C111.264 17.7308 111.276 17.6092 111.321 17.4986C111.367 17.3881 111.445 17.2936 111.544 17.2271C111.644 17.1607 111.761 17.1252 111.88 17.1252C111.96 17.1248 112.039 17.1402 112.112 17.1705C112.186 17.2007 112.253 17.2453 112.309 17.3015C112.365 17.3578 112.41 17.4246 112.44 17.4982C112.47 17.5717 112.486 17.6506 112.485 17.7301Z" fill="#263238"/>
<path d="M112.485 19.3603C112.486 19.48 112.451 19.5973 112.385 19.6971C112.319 19.797 112.224 19.8749 112.114 19.9212C112.003 19.9674 111.882 19.9798 111.764 19.9567C111.647 19.9337 111.538 19.8763 111.454 19.7919C111.369 19.7074 111.311 19.5996 111.287 19.4822C111.264 19.3647 111.275 19.243 111.321 19.1323C111.367 19.0216 111.444 18.9269 111.544 18.8603C111.643 18.7937 111.761 18.7582 111.88 18.7582C111.96 18.7578 112.038 18.7731 112.112 18.8032C112.185 18.8333 112.252 18.8776 112.308 18.9335C112.364 18.9895 112.409 19.056 112.439 19.1292C112.47 19.2024 112.485 19.281 112.485 19.3603Z" fill="#263238"/>
<path d="M113.72 28.3148C114.172 28.3148 114.538 27.9486 114.538 27.4969C114.538 27.0451 114.172 26.679 113.72 26.679C113.269 26.679 112.902 27.0451 112.902 27.4969C112.902 27.9486 113.269 28.3148 113.72 28.3148Z" fill="#E0E0E0"/>
<path d="M112.696 28.7692C112.696 28.9309 112.648 29.0891 112.559 29.2236C112.469 29.3581 112.341 29.4629 112.191 29.5248C112.042 29.5867 111.878 29.6029 111.719 29.5714C111.56 29.5398 111.414 29.4619 111.3 29.3475C111.186 29.2331 111.108 29.0874 111.076 28.9287C111.045 28.7701 111.061 28.6056 111.123 28.4561C111.185 28.3067 111.29 28.179 111.424 28.0891C111.559 27.9992 111.717 27.9512 111.878 27.9512C112.095 27.9512 112.303 28.0374 112.457 28.1908C112.61 28.3442 112.696 28.5522 112.696 28.7692Z" fill="#E0E0E0"/>
<path d="M114.538 29.9393C114.538 30.101 114.49 30.2592 114.4 30.3937C114.31 30.5282 114.183 30.633 114.033 30.6949C113.884 30.7568 113.719 30.773 113.561 30.7415C113.402 30.7099 113.256 30.632 113.142 30.5176C113.028 30.4032 112.95 30.2575 112.918 30.0988C112.887 29.9402 112.903 29.7757 112.965 29.6263C113.027 29.4768 113.131 29.3491 113.266 29.2592C113.4 29.1693 113.559 29.1213 113.72 29.1213C113.937 29.1213 114.145 29.2075 114.299 29.3609C114.452 29.5143 114.538 29.7223 114.538 29.9393Z" fill="#E0E0E0"/>
<path d="M113.487 30.0586L111.621 28.7664L113.635 27.3748L113.805 27.619L112.141 28.7692L113.655 29.8172L113.487 30.0586Z" fill="#E0E0E0"/>
<path d="M105.88 25.2191H78.0085C76.0384 25.2191 74.4414 26.8161 74.4414 28.7862V29.1099C74.4414 31.0799 76.0384 32.677 78.0085 32.677H105.88C107.85 32.677 109.447 31.0799 109.447 29.1099V28.7862C109.447 26.8161 107.85 25.2191 105.88 25.2191Z" fill="#EBEBEB"/>
<path d="M79.9809 28.968V29.7774H79.5719V29.0333C79.5719 28.8033 79.4669 28.6982 79.2879 28.6982C79.109 28.6982 78.95 28.8203 78.95 29.0787V29.7774H78.541V27.832H78.9528V28.5164C79.0125 28.4596 79.0829 28.4152 79.16 28.386C79.2371 28.3567 79.3192 28.3431 79.4015 28.346C79.4818 28.344 79.5617 28.3591 79.6357 28.3903C79.7098 28.4214 79.7764 28.4679 79.8311 28.5267C79.8859 28.5855 79.9275 28.6552 79.9533 28.7313C79.9792 28.8073 79.9886 28.888 79.9809 28.968Z" fill="#263238"/>
<path d="M81.2608 29.7035C81.1622 29.7675 81.0461 29.7992 80.9286 29.7944C80.8586 29.8042 80.7874 29.798 80.7202 29.7763C80.653 29.7545 80.5916 29.7177 80.5407 29.6688C80.4898 29.6198 80.4507 29.5599 80.4264 29.4936C80.4021 29.4273 80.3932 29.3563 80.4003 29.286V28.718H80.1816V28.4H80.4003V28.0478H80.8093V28.4H81.1614V28.7152H80.8093V29.2832C80.8058 29.3076 80.8079 29.3326 80.8153 29.3561C80.8227 29.3796 80.8354 29.4012 80.8523 29.4192C80.8692 29.4372 80.8899 29.4512 80.913 29.4601C80.936 29.469 80.9608 29.4726 80.9854 29.4706C81.0452 29.4717 81.1039 29.4538 81.1529 29.4195L81.2608 29.7035Z" fill="#263238"/>
<path d="M82.3605 29.7035C82.2618 29.7675 82.1457 29.7992 82.0282 29.7944C81.9582 29.8042 81.887 29.798 81.8198 29.7763C81.7526 29.7545 81.6912 29.7177 81.6403 29.6688C81.5894 29.6198 81.5504 29.5599 81.526 29.4936C81.5017 29.4273 81.4928 29.3563 81.4999 29.286V28.718H81.2812V28.4H81.5084V28.0478H81.9174V28.4H82.2696V28.7152H81.9174V29.2832C81.9139 29.3076 81.916 29.3326 81.9234 29.3561C81.9309 29.3796 81.9435 29.4012 81.9604 29.4192C81.9773 29.4372 81.9981 29.4512 82.0211 29.4601C82.0441 29.469 82.0689 29.4726 82.0935 29.4706C82.1533 29.4717 82.212 29.4538 82.261 29.4195L82.3605 29.7035Z" fill="#263238"/>
<path d="M84.1447 29.0673C84.1503 29.1623 84.136 29.2575 84.1029 29.3467C84.0698 29.4359 84.0185 29.5172 83.9522 29.5856C83.886 29.6539 83.8064 29.7078 83.7183 29.7437C83.6302 29.7796 83.5355 29.7969 83.4404 29.7944C83.3615 29.7972 83.2828 29.7835 83.2095 29.7541C83.1361 29.7248 83.0697 29.6805 83.0144 29.624V30.2829H82.6055V28.3602H82.9974V28.5221C83.0525 28.4599 83.121 28.411 83.1977 28.379C83.2745 28.347 83.3574 28.3328 83.4404 28.3375C83.5358 28.3349 83.6307 28.3523 83.719 28.3884C83.8073 28.4245 83.8871 28.4786 83.9534 28.5473C84.0196 28.6159 84.0708 28.6976 84.1038 28.7872C84.1367 28.8767 84.1507 28.9721 84.1447 29.0673ZM83.7273 29.0673C83.7217 28.9974 83.6959 28.9305 83.6529 28.875C83.61 28.8195 83.5517 28.7777 83.4854 28.7548C83.419 28.7319 83.3474 28.7289 83.2794 28.7461C83.2113 28.7632 83.1497 28.7999 83.1022 28.8516C83.0547 28.9033 83.0233 28.9677 83.0119 29.0369C83.0004 29.1062 83.0094 29.1773 83.0378 29.2415C83.0662 29.3057 83.1126 29.3602 83.1715 29.3984C83.2305 29.4366 83.2992 29.4568 83.3694 29.4564C83.4193 29.4571 83.4687 29.4472 83.5145 29.4274C83.5603 29.4077 83.6014 29.3785 83.6352 29.3418C83.669 29.3051 83.6946 29.2617 83.7105 29.2144C83.7263 29.1671 83.732 29.117 83.7273 29.0673Z" fill="#263238"/>
<path d="M84.2812 29.6411L84.4176 29.3571C84.5657 29.4471 84.7355 29.4952 84.9089 29.4962C85.0963 29.4962 85.1673 29.4451 85.1673 29.3656C85.1673 29.1355 84.3153 29.3656 84.3153 28.7976C84.3153 28.5306 84.5567 28.3403 84.9685 28.3403C85.1568 28.3369 85.3431 28.3799 85.511 28.4653L85.3746 28.7493C85.2503 28.6809 85.1104 28.6457 84.9685 28.6471C84.7839 28.6471 84.7044 28.7039 84.7044 28.7777C84.7044 29.0191 85.5564 28.7777 85.5564 29.3457C85.5564 29.607 85.3122 29.7944 84.889 29.7944C84.6764 29.7984 84.4665 29.7454 84.2812 29.6411Z" fill="#263238"/>
<path d="M85.7124 28.5931C85.719 28.5303 85.7486 28.4722 85.7956 28.43C85.8425 28.3877 85.9034 28.3644 85.9666 28.3644C86.0297 28.3644 86.0906 28.3877 86.1375 28.43C86.1844 28.4722 86.2141 28.5303 86.2207 28.5931C86.2245 28.6287 86.2208 28.6647 86.2097 28.6988C86.1986 28.7329 86.1805 28.7643 86.1566 28.7909C86.1326 28.8176 86.1033 28.8389 86.0706 28.8535C86.0378 28.868 86.0024 28.8756 85.9666 28.8756C85.9307 28.8756 85.8953 28.868 85.8625 28.8535C85.8298 28.8389 85.8005 28.8176 85.7765 28.7909C85.7526 28.7643 85.7345 28.7329 85.7234 28.6988C85.7124 28.6647 85.7086 28.6287 85.7124 28.5931ZM85.7124 29.536C85.719 29.4732 85.7486 29.4151 85.7956 29.3728C85.8425 29.3306 85.9034 29.3073 85.9666 29.3073C86.0297 29.3073 86.0906 29.3306 86.1375 29.3728C86.1844 29.4151 86.2141 29.4732 86.2207 29.536C86.2245 29.5716 86.2208 29.6076 86.2097 29.6417C86.1986 29.6758 86.1805 29.7072 86.1566 29.7338C86.1326 29.7605 86.1033 29.7818 86.0706 29.7963C86.0378 29.8109 86.0024 29.8185 85.9666 29.8185C85.9307 29.8185 85.8953 29.8109 85.8625 29.7963C85.8298 29.7818 85.8005 29.7605 85.7765 29.7338C85.7526 29.7072 85.7345 29.6758 85.7234 29.6417C85.7124 29.6076 85.7086 29.5716 85.7124 29.536Z" fill="#263238"/>
<path d="M87.2295 27.5621H87.593L86.7268 30.0358H86.3633L87.2295 27.5621Z" fill="#263238"/>
<path d="M88.067 27.5621H88.4305L87.5643 30.0358H87.1895L88.067 27.5621Z" fill="#263238"/>
<path d="M90.6936 28.3602L90.1824 29.7802H89.7877L89.4611 28.8941L89.1316 29.7717H88.7369L88.2285 28.3517H88.6148L88.947 29.3059L89.2935 28.3517H89.64L89.978 29.3059L90.3216 28.3517L90.6936 28.3602Z" fill="#263238"/>
<path d="M93.1223 28.3602L92.6082 29.7802H92.2163L91.8982 28.9027L91.5688 29.7802H91.1655L90.6543 28.3602H91.0405L91.3757 29.3145L91.7335 28.3602H92.08L92.4151 29.3145L92.7587 28.3602H93.1223Z" fill="#263238"/>
<path d="M95.5457 28.3602L95.0345 29.7802H94.6398L94.3217 28.9026L94.0036 29.7717H93.6089L93.0977 28.3517H93.4839L93.819 29.3059L94.1655 28.3517H94.512L94.8471 29.3059L95.1907 28.3517L95.5457 28.3602Z" fill="#263238"/>
<path d="M95.5561 29.5359C95.5628 29.4732 95.5924 29.4151 95.6393 29.3728C95.6863 29.3306 95.7472 29.3073 95.8103 29.3073C95.8734 29.3073 95.9343 29.3306 95.9813 29.3728C96.0282 29.4151 96.0578 29.4732 96.0645 29.5359C96.0683 29.5716 96.0645 29.6076 96.0534 29.6417C96.0424 29.6758 96.0243 29.7072 96.0003 29.7338C95.9763 29.7605 95.947 29.7818 95.9143 29.7963C95.8816 29.8109 95.8461 29.8185 95.8103 29.8185C95.7745 29.8185 95.739 29.8109 95.7063 29.7963C95.6736 29.7818 95.6442 29.7605 95.6203 29.7338C95.5963 29.7072 95.5782 29.6758 95.5672 29.6417C95.5561 29.6076 95.5523 29.5716 95.5561 29.5359Z" fill="#263238"/>
<path d="M96.2436 29.5359C96.2503 29.4732 96.2799 29.4151 96.3268 29.3728C96.3738 29.3306 96.4347 29.3073 96.4978 29.3073C96.5609 29.3073 96.6218 29.3306 96.6688 29.3728C96.7157 29.4151 96.7453 29.4732 96.752 29.5359C96.7558 29.5716 96.752 29.6076 96.7409 29.6417C96.7299 29.6758 96.7118 29.7072 96.6878 29.7338C96.6638 29.7605 96.6345 29.7818 96.6018 29.7963C96.5691 29.8109 96.5336 29.8185 96.4978 29.8185C96.462 29.8185 96.4265 29.8109 96.3938 29.7963C96.3611 29.7818 96.3318 29.7605 96.3078 29.7338C96.2838 29.7072 96.2657 29.6758 96.2547 29.6417C96.2436 29.6076 96.2398 29.5716 96.2436 29.5359Z" fill="#263238"/>
<path d="M96.9297 29.5359C96.9297 29.4681 96.9566 29.4031 97.0046 29.3552C97.0525 29.3073 97.1175 29.2803 97.1853 29.2803C97.2531 29.2803 97.3181 29.3073 97.366 29.3552C97.414 29.4031 97.4409 29.4681 97.4409 29.5359C97.4409 29.6037 97.414 29.6687 97.366 29.7167C97.3181 29.7646 97.2531 29.7915 97.1853 29.7915C97.1175 29.7915 97.0525 29.7646 97.0046 29.7167C96.9566 29.6687 96.9297 29.6037 96.9297 29.5359Z" fill="#263238"/>
<path d="M104.765 18.5196C104.765 18.5622 100.323 18.5934 94.8447 18.5934C89.3663 18.5934 84.916 18.5622 84.916 18.5196C84.916 18.477 89.3663 18.46 94.856 18.46C100.346 18.46 104.765 18.4798 104.765 18.5196Z" fill="#263238"/>
<path d="M112.565 92.1239C112.565 92.1665 104.437 92.1977 94.415 92.1977C84.3926 92.1977 76.2617 92.1665 76.2617 92.1239C76.2617 92.0813 84.387 92.05 94.415 92.05C104.443 92.05 112.565 92.0841 112.565 92.1239Z" fill="#E0E0E0"/>
<path d="M112.565 89.0112C112.565 89.051 104.437 89.0851 94.415 89.0851C84.3926 89.0851 76.2617 89.051 76.2617 89.0112C76.2617 88.9715 84.387 88.9374 94.415 88.9374C104.443 88.9374 112.565 88.9686 112.565 89.0112Z" fill="#E0E0E0"/>
<path d="M112.565 85.8957C112.565 85.9355 104.437 85.9696 94.415 85.9696C84.3926 85.9696 76.2617 85.9355 76.2617 85.8957C76.2617 85.856 84.387 85.8219 94.415 85.8219C104.443 85.8219 112.565 85.8531 112.565 85.8957Z" fill="#E0E0E0"/>
<path d="M112.565 82.7803C112.565 82.82 104.437 82.8541 94.415 82.8541C84.3926 82.8541 76.2617 82.82 76.2617 82.7803C76.2617 82.7405 84.387 82.7064 94.415 82.7064C104.443 82.7064 112.565 82.7405 112.565 82.7803Z" fill="#E0E0E0"/>
<path d="M112.565 79.6648C112.565 79.7074 104.437 79.7387 94.415 79.7387C84.3926 79.7387 76.2617 79.7074 76.2617 79.6648C76.2617 79.6222 84.387 79.591 94.415 79.591C104.443 79.591 112.565 79.6251 112.565 79.6648Z" fill="#E0E0E0"/>
<path d="M112.565 76.5493C112.565 76.5919 104.437 76.6231 94.415 76.6231C84.3926 76.6231 76.2617 76.5919 76.2617 76.5493C76.2617 76.5067 84.387 76.4755 94.415 76.4755C104.443 76.4755 112.565 76.5095 112.565 76.5493Z" fill="#E0E0E0"/>
<path d="M112.565 73.4367C112.565 73.4764 104.437 73.5105 94.415 73.5105C84.3926 73.5105 76.2617 73.4764 76.2617 73.4367C76.2617 73.3969 84.387 73.3629 94.415 73.3629C104.443 73.3629 112.565 73.3941 112.565 73.4367Z" fill="#E0E0E0"/>
<path d="M112.565 70.3212C112.565 70.361 104.437 70.3951 94.415 70.3951C84.3926 70.3951 76.2617 70.361 76.2617 70.3212C76.2617 70.2815 84.387 70.2474 94.415 70.2474C104.443 70.2474 112.565 70.2786 112.565 70.3212Z" fill="#E0E0E0"/>
<path d="M112.565 67.2057C112.565 67.2455 104.437 67.2796 94.415 67.2796C84.3926 67.2796 76.2617 67.2455 76.2617 67.2057C76.2617 67.166 84.387 67.1319 94.415 67.1319C104.443 67.1319 112.565 67.166 112.565 67.2057Z" fill="#E0E0E0"/>
<path d="M112.565 64.0903C112.565 64.1329 104.437 64.1641 94.415 64.1641C84.3926 64.1641 76.2617 64.1329 76.2617 64.0903C76.2617 64.0477 84.387 64.0164 94.415 64.0164C104.443 64.0164 112.565 64.0505 112.565 64.0903Z" fill="#E0E0E0"/>
<path d="M112.565 60.9748C112.565 61.0174 104.437 61.0486 94.415 61.0486C84.3926 61.0486 76.2617 61.0174 76.2617 60.9748C76.2617 60.9322 84.387 60.9009 94.415 60.9009C104.443 60.9009 112.565 60.935 112.565 60.9748Z" fill="#E0E0E0"/>
<path d="M112.565 57.8622C112.565 57.9019 104.437 57.936 94.415 57.936C84.3926 57.936 76.2617 57.9019 76.2617 57.8622C76.2617 57.8224 84.387 57.7883 94.415 57.7883C104.443 57.7883 112.565 57.8196 112.565 57.8622Z" fill="#E0E0E0"/>
<path d="M112.565 54.7466C112.565 54.7864 104.437 54.8205 94.415 54.8205C84.3926 54.8205 76.2617 54.7864 76.2617 54.7466C76.2617 54.7069 84.387 54.6728 94.415 54.6728C104.443 54.6728 112.565 54.704 112.565 54.7466Z" fill="#E0E0E0"/>
<path d="M112.565 51.6312C112.565 51.6709 104.437 51.705 94.415 51.705C84.3926 51.705 76.2617 51.6709 76.2617 51.6312C76.2617 51.5914 84.387 51.5573 94.415 51.5573C104.443 51.5573 112.565 51.5914 112.565 51.6312Z" fill="#E0E0E0"/>
<path d="M112.565 48.5157C112.565 48.5583 104.437 48.5895 94.415 48.5895C84.3926 48.5895 76.2617 48.5583 76.2617 48.5157C76.2617 48.4731 84.387 48.4418 94.415 48.4418C104.443 48.4418 112.565 48.4759 112.565 48.5157Z" fill="#E0E0E0"/>
<path d="M112.565 45.4002C112.565 45.4428 104.437 45.474 94.415 45.474C84.3926 45.474 76.2617 45.4428 76.2617 45.4002C76.2617 45.3576 84.387 45.3264 94.415 45.3264C104.443 45.3264 112.565 45.3604 112.565 45.4002Z" fill="#E0E0E0"/>
<path d="M112.565 42.2876C112.565 42.3273 104.437 42.3614 94.415 42.3614C84.3926 42.3614 76.2617 42.3273 76.2617 42.2876C76.2617 42.2478 84.387 42.2137 94.415 42.2137C104.443 42.2137 112.565 42.245 112.565 42.2876Z" fill="#E0E0E0"/>
<path d="M112.565 39.172C112.565 39.2118 104.437 39.2459 94.415 39.2459C84.3926 39.2459 76.2617 39.2118 76.2617 39.172C76.2617 39.1323 84.387 39.0982 94.415 39.0982C104.443 39.0982 112.565 39.1294 112.565 39.172Z" fill="#E0E0E0"/>
<path d="M112.565 36.068C112.565 36.1077 104.437 36.1418 94.415 36.1418C84.3926 36.1418 76.2617 36.1077 76.2617 36.068C76.2617 36.0282 84.387 35.9941 94.415 35.9941C104.443 35.9941 112.565 36.0169 112.565 36.068Z" fill="#E0E0E0"/>
<path d="M112.565 95.2394C112.565 95.282 104.437 95.3132 94.415 95.3132C84.3926 95.3132 76.2617 95.282 76.2617 95.2394C76.2617 95.1968 84.387 95.1655 94.415 95.1655C104.443 95.1655 112.565 95.1996 112.565 95.2394Z" fill="#E0E0E0"/>
<path d="M112.565 98.3548C112.565 98.3946 104.437 98.4287 94.415 98.4287C84.3926 98.4287 76.2617 98.3946 76.2617 98.3548C76.2617 98.3151 84.387 98.281 94.415 98.281C104.443 98.281 112.565 98.3151 112.565 98.3548Z" fill="#E0E0E0"/>
<path d="M112.565 101.47C112.565 101.51 104.437 101.544 94.415 101.544C84.3926 101.544 76.2617 101.51 76.2617 101.47C76.2617 101.431 84.387 101.396 94.415 101.396C104.443 101.396 112.565 101.428 112.565 101.47Z" fill="#E0E0E0"/>
<path d="M119.254 34.9206H77.5234C76.311 34.9206 75.3281 35.9035 75.3281 37.1159V84.1776C75.3281 85.39 76.311 86.3729 77.5234 86.3729H119.254C120.467 86.3729 121.45 85.39 121.45 84.1776V37.1159C121.45 35.9035 120.467 34.9206 119.254 34.9206Z" fill="white"/>
<path d="M119.253 86.3729H119.378C119.5 86.3649 119.622 86.3469 119.741 86.319C120.214 86.2074 120.636 85.9428 120.943 85.5664C121.164 85.289 121.317 84.9629 121.388 84.615C121.434 84.1896 121.447 83.7614 121.428 83.3341C121.428 82.3997 121.428 81.3262 121.428 80.1164C121.428 75.2714 121.414 68.2651 121.403 59.6087C121.403 55.2806 121.403 50.5378 121.403 45.4485C121.403 42.902 121.403 40.2721 121.403 37.559C121.422 37.2246 121.396 36.8891 121.323 36.5621C121.236 36.2439 121.074 35.9515 120.849 35.7101C120.625 35.4577 120.343 35.2629 120.028 35.1421C119.707 35.0284 119.366 34.9811 119.026 35.003H114.771H77.5303C77.13 35.0039 76.738 35.1173 76.3991 35.3302C76.0601 35.5431 75.7879 35.8469 75.6133 36.2071C75.4465 36.5715 75.3743 36.9719 75.4031 37.3715V43.452C75.4031 46.6706 75.4031 49.8382 75.4031 52.9546C75.4031 59.1827 75.4031 65.1922 75.4031 70.9176C75.4031 73.7803 75.4031 76.5683 75.4031 79.2814C75.4031 80.639 75.4031 81.9747 75.4031 83.2887C75.4031 83.6181 75.4031 83.9476 75.4031 84.2685C75.4229 84.7403 75.5996 85.1921 75.9051 85.5522C76.2107 85.9123 76.6277 86.1602 77.0901 86.2565C77.399 86.3055 77.7121 86.3216 78.0244 86.3048H84.4343H91.2304L111.735 86.3275L117.31 86.3417H118.761C119.088 86.3417 119.253 86.3417 119.253 86.3417H118.761H117.31L111.735 86.3559L91.2304 86.3814H78.0187C77.698 86.3963 77.3765 86.3801 77.0588 86.3331C76.5679 86.2294 76.1255 85.9651 75.8015 85.582C75.4775 85.1989 75.2904 84.7187 75.2696 84.2174C75.2696 83.8879 75.2696 83.5642 75.2696 83.2319C75.2696 81.9179 75.2696 80.5821 75.2696 79.2246C75.2696 76.5134 75.2696 73.7254 75.2696 70.8608C75.2696 65.1354 75.2696 59.1259 75.2696 52.8978V37.363C75.2406 36.9417 75.3178 36.5199 75.494 36.1361C75.6801 35.7527 75.9696 35.4288 76.3299 35.201C76.6902 34.9732 77.1069 34.8505 77.5331 34.8468H114.774H118.997C119.353 34.8244 119.71 34.8757 120.045 34.9973C120.38 35.1216 120.68 35.3264 120.917 35.5937C121.156 35.8546 121.33 36.1692 121.422 36.511C121.498 36.8492 121.525 37.1961 121.505 37.5419C121.505 40.2551 121.505 42.8849 121.505 45.4315C121.505 50.5207 121.505 55.2635 121.505 59.5917C121.505 68.248 121.488 75.2543 121.482 80.0994C121.482 81.3092 121.482 82.3818 121.482 83.3171C121.499 83.7475 121.482 84.1785 121.434 84.6064C121.358 84.9591 121.201 85.289 120.974 85.5692C120.662 85.9485 120.232 86.2116 119.753 86.3161C119.632 86.3424 119.509 86.3576 119.386 86.3616L119.253 86.3729Z" fill="#263238"/>
<path d="M121.501 36.5025C121.404 36.1487 121.225 35.8228 120.978 35.5514C120.731 35.2799 120.424 35.0706 120.081 34.9405C119.737 34.8139 119.37 34.7607 119.004 34.7843H77.5404C77.0988 34.7829 76.6659 34.9068 76.2919 35.1415C75.9179 35.3763 75.6181 35.7123 75.4274 36.1106C75.2423 36.5038 75.1621 36.9382 75.1945 37.3716V83.2944V83.6409C75.1945 83.8538 75.1945 84.0668 75.1945 84.2827C75.2113 84.6284 75.3023 84.9665 75.4615 85.2738C75.6219 85.5754 75.8464 85.8382 76.1192 86.0438C76.392 86.2494 76.7064 86.3927 77.0405 86.4638C77.2275 86.5011 77.4179 86.5182 77.6085 86.5149H77.759C77.8424 86.5149 77.9247 86.5149 78.0061 86.5149L111.723 86.4809L117.298 86.4666H118.749H119.243H119.365C119.494 86.4624 119.622 86.4463 119.748 86.4184C120.244 86.3119 120.688 86.0393 121.007 85.6459C121.242 85.3568 121.405 85.0162 121.484 84.6519C121.527 84.3596 121.542 84.0638 121.529 83.7686C121.529 83.6323 121.529 83.4846 121.529 83.3512L121.558 59.6258V45.4656V37.4056C121.582 37.1034 121.563 36.7992 121.501 36.5025ZM75.328 59.1345V37.363C75.2979 36.9515 75.3731 36.539 75.5467 36.1646C75.7246 35.7941 76.0027 35.4809 76.3496 35.2605C76.6965 35.0401 77.0982 34.9214 77.5091 34.9178C77.099 34.9217 76.6981 35.0402 76.3518 35.26C76.0055 35.4799 75.7276 35.7922 75.5495 36.1617C75.3746 36.5347 75.2993 36.9466 75.3309 37.3574L75.328 59.1345ZM121.319 84.5922C121.249 84.9286 121.102 85.2439 120.887 85.5124C120.591 85.8764 120.183 86.1321 119.726 86.2394C119.609 86.2672 119.49 86.2853 119.371 86.2934H119.251C119.22 86.2934 119.055 86.2934 118.76 86.2934L111.734 86.2707L91.2292 86.248H78.0203H77.7647C77.5413 86.2589 77.3173 86.2436 77.0973 86.2025C76.6492 86.1085 76.2453 85.8674 75.9499 85.5174C75.6546 85.1675 75.4847 84.7289 75.4672 84.2713C75.4672 84.064 75.4672 83.8538 75.4672 83.6437V83.2915V37.3687C75.435 36.9787 75.5055 36.587 75.6717 36.2327C75.8375 35.8867 76.097 35.5941 76.4208 35.3883C76.7447 35.1824 77.1198 35.0716 77.5034 35.0683H77.5319H119.013C119.344 35.0453 119.675 35.0917 119.987 35.2046C120.289 35.3203 120.56 35.5052 120.777 35.7444C120.995 35.9836 121.153 36.2705 121.239 36.582C121.306 36.8542 121.331 37.1345 121.316 37.4142V58.8931L121.342 80.1164V83.3313C121.342 83.4761 121.342 83.6153 121.342 83.7544C121.36 84.0338 121.353 84.3143 121.319 84.5922Z" fill="#263238"/>
<path d="M80.5762 41.1544L80.7068 40.8704C80.8692 40.9841 81.0624 41.0455 81.2606 41.0465C81.4878 41.0465 81.5815 40.9698 81.5815 40.8676C81.5815 40.5524 80.6103 40.7682 80.6103 40.1462C80.6103 39.8622 80.8375 39.6237 81.3146 39.6237C81.5187 39.6198 81.7201 39.6718 81.8968 39.7742L81.7775 40.0582C81.6359 39.9756 81.4756 39.9306 81.3117 39.9276C81.0817 39.9276 80.9937 40.0128 80.9937 40.1178C80.9937 40.4274 81.9678 40.2144 81.9678 40.8307C81.9678 41.1147 81.7349 41.3475 81.2578 41.3475C81.0161 41.3548 80.7781 41.2873 80.5762 41.1544Z" fill="#263238"/>
<path d="M83.522 40.5836V41.3191H83.1499V40.6404C83.1499 40.433 83.0534 40.3365 82.8886 40.3365C82.7239 40.3365 82.5791 40.4472 82.5791 40.683V41.3191H82.207V39.5441H82.5791V40.1661C82.6337 40.1148 82.698 40.0748 82.7682 40.0485C82.8384 40.0222 82.9131 40.01 82.988 40.0127C83.0626 40.0079 83.1374 40.0196 83.2069 40.0472C83.2764 40.0747 83.3389 40.1173 83.39 40.1719C83.4411 40.2265 83.4794 40.2917 83.5022 40.3629C83.525 40.4341 83.5318 40.5095 83.522 40.5836Z" fill="#263238"/>
<path d="M84.9994 40.5864V41.3191H84.6501V41.1601C84.6066 41.222 84.5473 41.2713 84.4784 41.3027C84.4095 41.3342 84.3335 41.3467 84.2582 41.339C83.9543 41.339 83.7754 41.1714 83.7754 40.9499C83.7754 40.7284 83.9373 40.5637 84.3292 40.5637H84.6132C84.6132 40.4046 84.5195 40.3109 84.3292 40.3109C84.1956 40.3099 84.0652 40.3517 83.9571 40.4302L83.8237 40.1689C83.9931 40.0611 84.191 40.0067 84.3917 40.0127C84.7722 40.0127 84.9994 40.1945 84.9994 40.5864ZM84.6331 40.913V40.7824H84.3775C84.2042 40.7824 84.1474 40.8448 84.1474 40.9329C84.1474 41.0209 84.2269 41.0891 84.3576 41.0891C84.4161 41.0917 84.4739 41.0762 84.5232 41.0446C84.5725 41.0131 84.6109 40.9671 84.6331 40.913Z" fill="#263238"/>
<path d="M86.1349 40.0127V40.3592H86.0497C86.0023 40.3549 85.9547 40.3613 85.9102 40.378C85.8657 40.3948 85.8255 40.4213 85.7928 40.4557C85.76 40.4901 85.7354 40.5315 85.7209 40.5768C85.7064 40.622 85.7023 40.67 85.7089 40.717V41.3248H85.334V40.044H85.6918V40.2144C85.7436 40.1471 85.8111 40.0936 85.8883 40.0585C85.9655 40.0233 86.0502 40.0076 86.1349 40.0127Z" fill="#263238"/>
<path d="M87.598 40.7824H86.621C86.6417 40.8624 86.6902 40.9324 86.7579 40.9798C86.8256 41.0272 86.908 41.0488 86.9902 41.0408C87.0498 41.0425 87.1091 41.0323 87.1647 41.0109C87.2203 40.9894 87.271 40.9571 87.314 40.9158L87.51 41.1317C87.4092 41.2283 87.2835 41.2949 87.147 41.324C87.0105 41.353 86.8686 41.3434 86.7372 41.2962C86.6059 41.249 86.4903 41.166 86.4036 41.0567C86.3168 40.9473 86.2623 40.8159 86.2462 40.6773C86.2449 40.5877 86.262 40.4988 86.2964 40.4161C86.3308 40.3334 86.3817 40.2586 86.4461 40.1964C86.5105 40.1341 86.587 40.0857 86.6708 40.0541C86.7546 40.0225 86.844 40.0084 86.9334 40.0127C87.0223 40.0082 87.1111 40.0224 87.1941 40.0544C87.2771 40.0863 87.3524 40.1353 87.4153 40.1982C87.4782 40.2611 87.5272 40.3365 87.5592 40.4195C87.5911 40.5025 87.6053 40.5913 87.6009 40.6801C87.6037 40.7085 87.6008 40.7511 87.598 40.7824ZM86.6182 40.5637H87.2544C87.2403 40.4896 87.2008 40.4228 87.1428 40.3747C87.0847 40.3266 87.0117 40.3003 86.9363 40.3003C86.8609 40.3003 86.7879 40.3266 86.7298 40.3747C86.6717 40.4228 86.6323 40.4896 86.6182 40.5637Z" fill="#263238"/>
<path d="M114.359 74.6323H82.1198C80.1498 74.6323 78.5527 76.2293 78.5527 78.1994V78.5231C78.5527 80.4931 80.1498 82.0902 82.1198 82.0902H114.359C116.329 82.0902 117.926 80.4931 117.926 78.5231V78.1994C117.926 76.2293 116.329 74.6323 114.359 74.6323Z" fill="#EBEBEB"/>
<path d="M118.735 41.6344C121.521 41.6344 123.779 39.3762 123.779 36.5905C123.779 33.8049 121.521 31.5467 118.735 31.5467C115.95 31.5467 113.691 33.8049 113.691 36.5905C113.691 39.3762 115.95 41.6344 118.735 41.6344Z" fill="#FBC02D"/>
<path d="M120.82 35.1833L120.105 34.4684L116.902 37.6714L117.617 38.3863L120.82 35.1833Z" fill="white"/>
<path d="M117.615 34.4664L116.9 35.1813L120.103 38.3844L120.818 37.6695L117.615 34.4664Z" fill="white"/>
<path d="M113.707 77.7421H112.191C112.009 77.7421 111.861 77.8896 111.861 78.0716V79.5881C111.861 79.7701 112.009 79.9176 112.191 79.9176H113.707C113.889 79.9176 114.037 79.7701 114.037 79.5881V78.0716C114.037 77.8896 113.889 77.7421 113.707 77.7421Z" fill="#263238"/>
<path d="M114.647 76.8021H113.13C112.948 76.8021 112.801 76.9496 112.801 77.1316V78.6481C112.801 78.8301 112.948 78.9776 113.13 78.9776H114.647C114.829 78.9776 114.976 78.8301 114.976 78.6481V77.1316C114.976 76.9496 114.829 76.8021 114.647 76.8021Z" fill="#EBEBEB"/>
<path d="M114.646 79.1224H113.13C113.004 79.1216 112.884 79.0713 112.796 78.9825C112.708 78.8936 112.658 78.7734 112.658 78.6481V77.1315C112.659 77.0067 112.709 76.8873 112.797 76.799C112.885 76.7107 113.005 76.6608 113.13 76.6601H114.646C114.771 76.6601 114.891 76.7098 114.98 76.7982C115.068 76.8866 115.118 77.0065 115.118 77.1315V78.6481C115.118 78.7102 115.106 78.7719 115.083 78.8294C115.059 78.8869 115.024 78.9392 114.981 78.9833C114.937 79.0274 114.885 79.0623 114.827 79.0862C114.77 79.1101 114.708 79.1224 114.646 79.1224ZM113.13 76.9441C113.08 76.9448 113.033 76.9648 112.998 76.9998C112.963 77.0348 112.943 77.0821 112.942 77.1315V78.6481C112.942 78.6981 112.962 78.746 112.997 78.7817C113.032 78.8173 113.08 78.8376 113.13 78.8384H114.646C114.671 78.8384 114.696 78.8334 114.719 78.8238C114.742 78.8142 114.762 78.8002 114.78 78.7825C114.797 78.7648 114.811 78.7438 114.82 78.7207C114.829 78.6976 114.834 78.6729 114.834 78.6481V77.1315C114.834 77.1069 114.829 77.0825 114.819 77.0598C114.81 77.0371 114.796 77.0164 114.779 76.999C114.761 76.9816 114.741 76.9678 114.718 76.9584C114.695 76.9489 114.671 76.9441 114.646 76.9441H113.13Z" fill="#263238"/>
<path d="M120.417 68.1174C120.417 68.16 110.63 68.194 98.5491 68.194C86.4678 68.194 76.6953 68.16 76.6953 68.1174C76.6953 68.0748 86.4791 68.0435 98.5491 68.0435C110.619 68.0435 120.417 68.0776 120.417 68.1174Z" fill="#E0E0E0"/>
<path d="M97.8056 52.4547C99.9936 52.4547 101.767 50.681 101.767 48.4929C101.767 46.3049 99.9936 44.5311 97.8056 44.5311C95.6175 44.5311 93.8438 46.3049 93.8438 48.4929C93.8438 50.681 95.6175 52.4547 97.8056 52.4547Z" fill="#FBC02D"/>
<path d="M110.516 52.4547C112.705 52.4547 114.478 50.681 114.478 48.4929C114.478 46.3049 112.705 44.5311 110.516 44.5311C108.328 44.5311 106.555 46.3049 106.555 48.4929C106.555 50.681 108.328 52.4547 110.516 52.4547Z" fill="#FBC02D"/>
<path d="M84.9247 52.4547C87.1127 52.4547 88.8865 50.681 88.8865 48.4929C88.8865 46.3049 87.1127 44.5311 84.9247 44.5311C82.7367 44.5311 80.9629 46.3049 80.9629 48.4929C80.9629 50.681 82.7367 52.4547 84.9247 52.4547Z" fill="#FBC02D"/>
<path d="M97.87 64.2919C100.058 64.2919 101.832 62.5181 101.832 60.3301C101.832 58.142 100.058 56.3683 97.87 56.3683C95.682 56.3683 93.9082 58.142 93.9082 60.3301C93.9082 62.5181 95.682 64.2919 97.87 64.2919Z" fill="#FBC02D"/>
<path d="M95.6402 60.4238L96.5888 60.7078L97.1567 61.8438L97.7247 61.3894L98.5767 62.0653C98.6408 62.0843 98.7097 62.0777 98.769 62.047C98.8283 62.0163 98.8734 61.9638 98.8948 61.9006C98.9829 61.6705 99.6872 58.8987 99.6872 58.8987C99.6872 58.8987 99.7837 58.6147 99.4344 58.7141L95.6743 60.1171C95.6463 60.126 95.621 60.1415 95.6002 60.1623C95.5795 60.183 95.564 60.2084 95.555 60.2363C95.5445 60.2537 95.5385 60.2733 95.5373 60.2936C95.5362 60.3138 95.5399 60.334 95.5483 60.3525C95.5567 60.3709 95.5694 60.387 95.5854 60.3995C95.6014 60.4119 95.6202 60.4202 95.6402 60.4238Z" fill="white"/>
<path d="M96.793 60.614L97.1877 61.5456C97.1877 61.5456 97.253 60.9776 97.2616 60.9776L98.9088 59.4326L96.793 60.614Z" fill="#FBC02D"/>
<path d="M110.516 64.1868C112.705 64.1868 114.478 62.4131 114.478 60.225C114.478 58.037 112.705 56.2632 110.516 56.2632C108.328 56.2632 106.555 58.037 106.555 60.225C106.555 62.4131 108.328 64.1868 110.516 64.1868Z" fill="#FBC02D"/>
<path d="M84.9247 64.1868C87.1127 64.1868 88.8865 62.4131 88.8865 60.225C88.8865 58.037 87.1127 56.2632 84.9247 56.2632C82.7367 56.2632 80.9629 58.037 80.9629 60.225C80.9629 62.4131 82.7367 64.1868 84.9247 64.1868Z" fill="#FBC02D"/>
<path d="M82.8867 49.7738C83.2544 50.01 83.6799 50.1404 84.1168 50.1508C84.5536 50.1611 84.9849 50.051 85.3633 49.8324C85.7417 49.6139 86.0527 49.2954 86.262 48.9119C86.4714 48.5283 86.5712 48.0945 86.5503 47.658C86.715 47.5412 86.8566 47.3949 86.9678 47.2264C86.8151 47.2931 86.6534 47.3372 86.4878 47.357C86.6635 47.2532 86.7949 47.0884 86.857 46.8941C86.692 46.9916 86.5114 47.0598 86.3231 47.0957C86.1961 46.9641 86.0295 46.8777 85.8488 46.8496C85.668 46.8215 85.4831 46.8534 85.3221 46.9403C85.1612 47.0272 85.0331 47.1644 84.9575 47.3309C84.8818 47.4974 84.8627 47.6841 84.9031 47.8625C84.5698 47.8458 84.2437 47.759 83.9462 47.6078C83.6487 47.4566 83.3864 47.2444 83.1764 46.985C83.0722 47.1701 83.041 47.3875 83.0888 47.5945C83.1366 47.8015 83.26 47.9832 83.4348 48.1039C83.3014 48.1 83.1708 48.064 83.0543 47.9988C83.0545 48.1936 83.1214 48.3824 83.2439 48.5338C83.3663 48.6852 83.537 48.7901 83.7274 48.8309C83.6044 48.8656 83.4749 48.8705 83.3496 48.8451C83.4046 49.0093 83.5093 49.1522 83.6493 49.254C83.7893 49.3558 83.9576 49.4115 84.1306 49.4131C83.9576 49.5528 83.7585 49.6566 83.5449 49.7185C83.3314 49.7804 83.1076 49.7992 82.8867 49.7738Z" fill="white"/>
<path d="M97.1891 50.6059H98.0411V48.4731H98.6347L98.6972 47.7602H98.0411V47.3541C98.0411 47.1866 98.0724 47.1184 98.2371 47.1184H98.6972V46.38H98.1065C97.4731 46.38 97.1891 46.664 97.1891 47.1922V47.7602H96.7461V48.4816H97.1891V50.6059Z" fill="white"/>
<path fill-rule="evenodd" clip-rule="evenodd" d="M112.894 48.2203C112.871 47.6524 112.63 47.1151 112.222 46.7196C111.813 46.3242 111.269 46.1008 110.7 46.0957C110.132 46.0906 109.583 46.3041 109.168 46.6922C108.753 47.0803 108.502 47.6131 108.469 48.1806V48.28C108.467 48.6804 108.577 49.0736 108.784 49.416L108.387 50.5946L109.611 50.2055C109.938 50.3884 110.306 50.486 110.681 50.4895C110.971 50.491 111.258 50.4354 111.526 50.3258C111.794 50.2163 112.038 50.0549 112.244 49.851C112.45 49.6471 112.613 49.4047 112.725 49.1375C112.837 48.8704 112.896 48.5838 112.897 48.2942C112.898 48.2695 112.897 48.2448 112.894 48.2203ZM110.681 50.1231C110.318 50.1248 109.962 50.018 109.659 49.8164L108.943 50.0464L109.173 49.3592C108.944 49.045 108.821 48.666 108.821 48.2771C108.821 48.2146 108.821 48.155 108.821 48.0954C108.866 47.6321 109.083 47.2025 109.429 46.8915C109.776 46.5804 110.226 46.4104 110.691 46.415C111.157 46.4196 111.603 46.5986 111.943 46.9165C112.283 47.2344 112.492 47.6682 112.527 48.1323C112.53 48.1805 112.53 48.2289 112.527 48.2771C112.524 48.7658 112.329 49.2336 111.983 49.5791C111.638 49.9247 111.17 50.1201 110.681 50.1231Z" fill="white"/>
<path fill-rule="evenodd" clip-rule="evenodd" d="M111.695 48.7201C111.641 48.6917 111.374 48.5611 111.326 48.544C111.277 48.527 111.238 48.5185 111.204 48.5725C111.17 48.6264 111.062 48.7457 111.03 48.7826C110.999 48.8195 110.968 48.8224 110.914 48.7826C110.753 48.7209 110.605 48.6304 110.477 48.5157C110.358 48.4077 110.256 48.2823 110.176 48.1436C110.144 48.0897 110.176 48.0613 110.198 48.0357C110.221 48.0101 110.252 47.9704 110.281 47.9391L110.3 47.9136L110.335 47.8511C110.342 47.8362 110.346 47.8196 110.346 47.8028C110.346 47.786 110.342 47.7695 110.335 47.7545L110.167 47.3569C110.124 47.249 110.079 47.2661 110.045 47.2661H109.943C109.915 47.2668 109.888 47.2732 109.863 47.2849C109.838 47.2966 109.816 47.3134 109.798 47.3342C109.736 47.3914 109.688 47.4609 109.655 47.5383C109.622 47.6156 109.606 47.699 109.608 47.7829C109.608 47.8455 109.618 47.9076 109.636 47.9675C109.678 48.102 109.743 48.228 109.829 48.3396C110.054 48.697 110.378 48.9819 110.761 49.1603C111.329 49.3733 111.329 49.3023 111.414 49.2938C111.489 49.2793 111.561 49.2491 111.624 49.205C111.687 49.161 111.74 49.1041 111.78 49.0382C111.816 48.9581 111.827 48.869 111.811 48.7826C111.786 48.7599 111.749 48.7457 111.695 48.7201Z" fill="white"/>
<path d="M84.9163 58.5721C85.4388 58.5721 85.5013 58.5721 85.7058 58.5721C85.8297 58.5739 85.9525 58.596 86.0693 58.6375C86.1538 58.67 86.2304 58.7204 86.2937 58.7851C86.3585 58.8478 86.4081 58.9246 86.4385 59.0095C86.483 59.1246 86.5061 59.2468 86.5067 59.3702C86.5067 59.5775 86.5067 59.6371 86.5067 60.1597C86.5067 60.6822 86.5067 60.7277 86.5067 60.9492C86.5061 61.0726 86.483 61.1948 86.4385 61.3099C86.4081 61.3948 86.3585 61.4716 86.2937 61.5342C86.2304 61.599 86.1538 61.6494 86.0693 61.6819C85.9525 61.7234 85.8297 61.7454 85.7058 61.7472C85.5013 61.7472 85.4388 61.7472 84.9163 61.7472C84.3937 61.7472 84.3483 61.7472 84.1296 61.7472C84.0057 61.7454 83.8829 61.7234 83.7661 61.6819C83.6816 61.6494 83.605 61.599 83.5417 61.5342C83.4769 61.4716 83.4273 61.3948 83.3969 61.3099C83.3524 61.1948 83.3293 61.0726 83.3287 60.9492C83.3287 60.7419 83.3287 60.6652 83.3287 60.1597C83.3287 59.6542 83.3287 59.5775 83.3287 59.3702C83.3293 59.2468 83.3524 59.1246 83.3969 59.0095C83.4273 58.9246 83.4769 58.8478 83.5417 58.7851C83.605 58.7204 83.6816 58.67 83.7661 58.6375C83.8829 58.596 84.0057 58.5739 84.1296 58.5721C84.3341 58.5721 84.3966 58.5721 84.9163 58.5721ZM84.9163 58.22C84.388 58.22 84.3199 58.22 84.1126 58.22C83.9504 58.223 83.79 58.2537 83.6383 58.3109C83.508 58.3599 83.3898 58.4364 83.2918 58.5352C83.1933 58.6335 83.1168 58.7516 83.0674 58.8817C83.0113 59.0337 82.9806 59.194 82.9766 59.356C82.9766 59.5633 82.9766 59.64 82.9766 60.1597C82.9766 60.6794 82.9766 60.7561 82.9766 60.9634C82.9809 61.1254 83.0116 61.2856 83.0674 61.4377C83.1168 61.5678 83.1933 61.6859 83.2918 61.7842C83.3898 61.883 83.508 61.9595 83.6383 62.0085C83.79 62.0657 83.9504 62.0964 84.1126 62.0994C84.3199 62.0994 84.3966 62.0994 84.9163 62.0994C85.436 62.0994 85.5127 62.0994 85.7228 62.0994C85.885 62.0964 86.0454 62.0657 86.1971 62.0085C86.3269 61.9601 86.4443 61.8835 86.5408 61.7842C86.6401 61.686 86.7175 61.5679 86.768 61.4377C86.8238 61.2856 86.8545 61.1254 86.8588 60.9634C86.8588 60.7561 86.8588 60.6794 86.8588 60.1597C86.8588 59.64 86.8588 59.5633 86.8588 59.356C86.8548 59.194 86.8241 59.0337 86.768 58.8817C86.7175 58.7515 86.6401 58.6334 86.5408 58.5352C86.4443 58.4359 86.3269 58.3592 86.1971 58.3109C86.0454 58.2537 85.885 58.223 85.7228 58.22C85.5127 58.22 85.4388 58.22 84.9163 58.22Z" fill="white"/>
<path d="M84.9166 59.1685C84.7183 59.1685 84.5245 59.2273 84.3596 59.3375C84.1947 59.4476 84.0663 59.6042 83.9904 59.7874C83.9145 59.9706 83.8946 60.1722 83.9333 60.3666C83.972 60.5611 84.0675 60.7397 84.2077 60.8799C84.3479 61.0201 84.5265 61.1156 84.721 61.1543C84.9155 61.193 85.117 61.1731 85.3002 61.0972C85.4834 61.0214 85.64 60.8929 85.7501 60.728C85.8603 60.5631 85.9191 60.3693 85.9191 60.171C85.9183 59.9054 85.8125 59.6508 85.6246 59.463C85.4368 59.2751 85.1822 59.1693 84.9166 59.1685ZM84.9166 60.8214C84.788 60.8214 84.6622 60.7833 84.5553 60.7118C84.4483 60.6403 84.3649 60.5388 84.3157 60.4199C84.2665 60.3011 84.2536 60.1703 84.2787 60.0442C84.3038 59.918 84.3658 59.8021 84.4567 59.7112C84.5477 59.6202 84.6635 59.5583 84.7897 59.5332C84.9159 59.5081 85.0466 59.521 85.1655 59.5702C85.2843 59.6194 85.3859 59.7028 85.4573 59.8097C85.5288 59.9167 85.5669 60.0424 85.5669 60.171C85.5662 60.3433 85.4974 60.5083 85.3756 60.6301C85.2538 60.7519 85.0888 60.8207 84.9166 60.8214Z" fill="white"/>
<path d="M86.2019 59.1287C86.2025 59.1755 86.1891 59.2213 86.1636 59.2605C86.138 59.2996 86.1014 59.3303 86.0584 59.3485C86.0154 59.3668 85.9679 59.3719 85.922 59.3631C85.876 59.3543 85.8338 59.3321 85.8005 59.2993C85.7673 59.2664 85.7445 59.2244 85.7352 59.1786C85.7259 59.1328 85.7304 59.0853 85.7481 59.0421C85.7659 58.9988 85.7961 58.9618 85.8349 58.9358C85.8738 58.9098 85.9194 58.8959 85.9662 58.8959C86.0282 58.8959 86.0877 58.9203 86.1319 58.9639C86.176 59.0075 86.2012 59.0667 86.2019 59.1287Z" fill="white"/>
<path d="M112.434 61.7955H108.6V58.8732H112.434V61.7955ZM108.878 61.5115H112.152V59.1486H108.878V61.5115Z" fill="white"/>
<path d="M110.573 60.6482L108.65 59.1231L108.824 58.9044L110.567 60.2875L112.203 58.9073L112.382 59.1203L110.573 60.6482Z" fill="white"/>
<path d="M110.054 60.0369L108.637 61.4636L108.834 61.6597L110.251 60.233L110.054 60.0369Z" fill="white"/>
<path d="M110.539 60.2739L110.324 60.4493L111.561 61.9604L111.775 61.785L110.539 60.2739Z" fill="white"/>
<path d="M78.7847 19.4227C78.7197 19.423 78.6565 19.401 78.6058 19.3603L76.9274 17.9829C76.8951 17.9567 76.869 17.9239 76.8509 17.8866C76.8327 17.8493 76.823 17.8085 76.8223 17.767C76.8219 17.7255 76.8305 17.6844 76.8477 17.6467C76.8649 17.6089 76.8901 17.5753 76.9217 17.5483L78.6001 16.1028C78.6285 16.0785 78.6613 16.0601 78.6968 16.0486C78.7322 16.037 78.7696 16.0326 78.8068 16.0355C78.844 16.0384 78.8802 16.0486 78.9135 16.0655C78.9467 16.0824 78.9763 16.1057 79.0006 16.134C79.0248 16.1624 79.0432 16.1952 79.0548 16.2307C79.0663 16.2661 79.0708 16.3035 79.0679 16.3407C79.065 16.3779 79.0548 16.4141 79.0379 16.4474C79.021 16.4806 78.9977 16.5102 78.9693 16.5345L77.5493 17.7585L78.9693 18.9201C78.9981 18.9439 79.0219 18.9732 79.0393 19.0062C79.0567 19.0393 79.0674 19.0754 79.0709 19.1126C79.0743 19.1498 79.0704 19.1873 79.0593 19.223C79.0482 19.2587 79.0302 19.2918 79.0062 19.3205C78.9792 19.3529 78.9453 19.3789 78.907 19.3966C78.8687 19.4143 78.8269 19.4232 78.7847 19.4227Z" fill="#263238"/>
<path d="M73.5557 93.3764C69.983 97.5398 69.6053 102.038 68.1796 106.25C65.8536 113.129 64.5955 120.138 65.9076 127.28C68.8356 128.72 72.272 127.28 75.5125 126.888C81.2635 126.204 86.9435 128.996 92.7257 128.703C93.9214 128.641 95.1852 128.419 96.0712 127.607C97.4912 126.32 97.4202 124.139 97.5111 122.231C97.9087 113.458 103.623 105.878 105.932 97.412C106.065 96.9235 106.176 96.364 105.898 95.9409C105.619 95.5177 105.137 95.4183 104.679 95.3274C99.8371 94.3647 94.8444 94.8106 89.9113 94.981C85.2253 95.1428 80.3831 95.0179 76.0521 93.277C75.4633 93.0309 74.8136 92.9695 74.189 93.1009C73.9558 93.1297 73.7358 93.2254 73.5557 93.3764Z" fill="#455A64"/>
<path d="M78.8984 105.756C78.9295 105.704 78.9646 105.655 79.0035 105.608L79.3216 105.199C79.4608 105.02 79.634 104.807 79.8527 104.572C80.0714 104.336 80.3071 104.058 80.5996 103.782L81.0512 103.339C81.2102 103.186 81.3891 103.041 81.5652 102.882C81.9145 102.561 82.3178 102.254 82.7381 101.925C84.5965 100.53 86.6773 99.4595 88.8924 98.7582C89.4064 98.6077 89.8892 98.4543 90.355 98.3549C90.585 98.3038 90.8066 98.2441 91.0224 98.2044L91.6472 98.0936C92.042 98.0141 92.4055 97.9829 92.7236 97.9431C93.0416 97.9033 93.3171 97.8835 93.5415 97.8721L94.0584 97.8494C94.1187 97.8425 94.1797 97.8425 94.2401 97.8494C94.1813 97.8634 94.1215 97.8729 94.0612 97.8778L93.5472 97.9289C93.3228 97.9459 93.0502 97.9715 92.7349 98.0226C92.4197 98.0737 92.0562 98.1078 91.6642 98.193L91.0451 98.3123C90.8321 98.3549 90.6134 98.4174 90.3834 98.4713C89.9233 98.5736 89.4434 98.7298 88.935 98.8831C87.8445 99.2476 86.7823 99.6918 85.757 100.212C84.7382 100.746 83.7604 101.354 82.8318 102.033C82.4115 102.356 82.0082 102.657 81.6561 102.973C81.48 103.126 81.3011 103.257 81.142 103.419L80.6848 103.853C80.3866 104.123 80.148 104.396 79.9265 104.626C79.705 104.856 79.5232 105.06 79.3784 105.233L79.0376 105.622C78.9968 105.672 78.95 105.717 78.8984 105.756Z" fill="#263238"/>
<path d="M81.4398 83.496C81.4398 83.496 73.6525 74.2035 70.6904 74.2035C70.6904 74.2035 68.8188 77.5007 68.7563 79.2956C68.6939 81.0905 74.7487 89.5196 74.7487 89.5196L81.4398 83.496Z" fill="#FBC02D"/>
<path d="M62.682 74.1069L70.6908 74.1893L73.1644 86.5263C73.1644 86.5263 71.8353 99.3858 70.8441 102.669C69.853 105.952 67.5923 111.328 67.5923 111.328L47.8572 106.963L47.2664 92.7146L44.8496 79.3382L53.2816 76.0041L62.682 74.1069Z" fill="#FBC02D"/>
<path d="M39.2461 91.164C39.2461 90.667 42.0037 80.5169 44.8522 79.3383L47.0532 82.7463L48.0586 91.9848L39.2461 91.164Z" fill="#FBC02D"/>
<path d="M73.0709 80.1902C73.0832 80.2969 73.0832 80.4045 73.0709 80.5112C73.0709 80.7497 73.051 81.0394 73.0396 81.383C73.0112 82.1214 72.9885 83.141 72.9999 84.2656C73.0112 85.3903 73.0652 86.407 73.1106 87.1426C73.1333 87.4862 73.1504 87.7787 73.1646 88.0173C73.1769 88.1239 73.1769 88.2316 73.1646 88.3382C73.131 88.2361 73.11 88.1302 73.1021 88.023C73.0737 87.8185 73.0368 87.5203 73.0027 87.1511C72.9289 86.4155 72.8607 85.396 72.8465 84.2656C72.8323 83.1353 72.8749 82.1158 72.9289 81.3774C72.9573 81.011 72.9828 80.7128 73.0084 80.5055C73.0156 80.3982 73.0366 80.2922 73.0709 80.1902Z" fill="#263238"/>
<path d="M47.1742 83.1324C47.1773 83.2544 47.1668 83.3763 47.1429 83.496C47.1145 83.7203 47.0748 84.0469 47.0322 84.453C46.8076 86.5623 46.8544 88.6917 47.1713 90.7891C47.231 91.1924 47.2849 91.5161 47.3247 91.7405C47.3541 91.8556 47.3694 91.9738 47.3701 92.0926C47.3248 91.9827 47.2905 91.8686 47.2679 91.7518C47.2111 91.5303 47.1429 91.2094 47.0691 90.8061C46.6916 88.7039 46.6447 86.5556 46.9299 84.4388C46.9839 84.0356 47.0407 83.709 47.0861 83.4846C47.1017 83.3642 47.1312 83.246 47.1742 83.1324Z" fill="#263238"/>
<path d="M64.2808 106.139C64.1765 106.046 64.0814 105.944 63.9968 105.833L63.2726 104.981C62.6592 104.248 61.81 103.242 60.8529 102.141C59.8958 101.039 59.0098 100.07 58.3651 99.3687L57.604 98.5338C57.5056 98.4367 57.4172 98.3302 57.3398 98.2157C57.4514 98.2998 57.5541 98.395 57.6466 98.4997C57.8368 98.6843 58.1095 98.9598 58.4418 99.3006C59.1063 99.9879 60.0038 100.953 60.9637 102.05C61.9236 103.146 62.7614 104.165 63.3521 104.912C63.6361 105.287 63.8832 105.594 64.0422 105.81C64.1317 105.912 64.2115 106.022 64.2808 106.139Z" fill="#263238"/>
<path d="M65.9532 61.7302C65.9926 63.4792 65.6609 65.2167 64.98 66.8282C64.299 68.4397 63.2844 69.8886 62.0028 71.0795C61.4121 69.3755 60.8233 67.6715 60.2363 65.9675" fill="#263238"/>
<path d="M52.6367 51.5517C54.1533 50.7224 55.9851 50.6031 57.6805 50.9411C59.376 51.279 60.9522 52.0487 62.4489 52.9149C63.3113 53.3594 64.0821 53.9625 64.7209 54.6927C65.82 56.0758 66.9105 58.3506 67.0156 60.1171C67.1008 61.5371 66.5555 65.1212 65.9506 66.419C65.3968 67.609 62.8039 68.515 61.5231 68.8103L49.791 55.1528C50.0024 54.3936 50.3629 53.6842 50.8515 53.0659C51.3401 52.4476 51.947 51.9328 52.6367 51.5517Z" fill="#263238"/>
<path d="M50.6112 53.392L53.4285 52.8893C51.8892 56.5529 51.4718 64.9337 50.5885 68.8103C49.5519 67.3051 47.1408 62.7185 47.2686 60.8952C47.3964 59.072 47.2686 53.0824 50.6112 53.392Z" fill="#263238"/>
<path d="M49.0033 59.3559C49.1851 56.5443 51.0567 53.1079 53.8569 53.3919L60.3406 55.0448C61.3367 55.3012 62.2248 55.869 62.8756 56.6654C63.5265 57.4618 63.9059 58.4452 63.9588 59.4724C63.9588 59.5803 63.9758 59.4497 63.9758 59.5292L62.5274 76.3164L57.6511 85.9951L53.3542 75.8649C53.3542 74.496 53.3542 73.4054 53.3542 73.4139C53.3542 73.4225 49.7645 72.809 49.0289 68.1202C48.6739 65.7885 48.7989 62.4799 49.0033 59.3559Z" fill="#AD6359"/>
<path d="M50.4122 63.1786C50.4098 63.3337 50.4676 63.4837 50.5735 63.5971C50.6795 63.7104 50.8252 63.7783 50.9802 63.7863C51.0568 63.7937 51.1342 63.7855 51.2076 63.762C51.2809 63.7386 51.3488 63.7005 51.407 63.65C51.4651 63.5995 51.5124 63.5378 51.546 63.4684C51.5796 63.3991 51.5987 63.3237 51.6021 63.2467C51.6046 63.0916 51.5467 62.9416 51.4408 62.8282C51.3349 62.7149 51.1891 62.647 51.0341 62.639C50.9575 62.6316 50.8801 62.6399 50.8067 62.6633C50.7334 62.6867 50.6656 62.7248 50.6074 62.7753C50.5492 62.8258 50.5019 62.8876 50.4683 62.9569C50.4348 63.0262 50.4157 63.1016 50.4122 63.1786Z" fill="#263238"/>
<path d="M49.6997 61.2048C49.7764 61.2815 50.2308 60.9464 50.8783 60.9492C51.5258 60.952 52.0143 61.2758 52.0683 61.1991C52.1222 61.1224 52.0285 61.0202 51.8212 60.8697C51.5409 60.6792 51.2086 60.58 50.8698 60.5857C50.533 60.582 50.2042 60.6876 49.9326 60.8867C49.7366 61.0259 49.6713 61.1679 49.6997 61.2048Z" fill="#263238"/>
<path d="M56.3477 63.1786C56.3453 63.3337 56.4032 63.4838 56.5091 63.5971C56.615 63.7105 56.7608 63.7783 56.9157 63.7864C56.9922 63.7934 57.0692 63.7848 57.1423 63.7612C57.2153 63.7375 57.2828 63.6994 57.3407 63.6489C57.3985 63.5985 57.4456 63.5369 57.4789 63.4677C57.5123 63.3986 57.5313 63.3234 57.5349 63.2468C57.5373 63.0916 57.4794 62.9416 57.3735 62.8283C57.2676 62.7149 57.1218 62.6471 56.9669 62.639C56.8904 62.632 56.8134 62.6406 56.7403 62.6642C56.6673 62.6879 56.5998 62.726 56.5419 62.7765C56.4841 62.8269 56.437 62.8885 56.4036 62.9577C56.3703 63.0268 56.3512 63.1019 56.3477 63.1786Z" fill="#263238"/>
<path d="M55.8514 61.2048C55.9252 61.2815 56.3825 60.9464 57.03 60.9492C57.6775 60.9521 58.1489 61.2758 58.2199 61.1991C58.2909 61.1225 58.1802 61.0202 57.9729 60.8697C57.6913 60.6797 57.3583 60.5806 57.0186 60.5857C56.682 60.5824 56.3532 60.688 56.0814 60.8867C55.8826 61.0259 55.8145 61.1679 55.8514 61.2048Z" fill="#263238"/>
<path d="M53.8295 66.2855C53.4886 66.1776 53.1356 66.1127 52.7787 66.0924C52.614 66.0754 52.4578 66.0413 52.4294 65.9305C52.4159 65.7594 52.4545 65.5881 52.5401 65.4392L53.0314 64.184C53.713 62.3948 54.21 60.9208 54.1362 60.8952C54.0624 60.8697 53.4518 62.2982 52.7702 64.0874L52.2987 65.3512C52.195 65.5502 52.1639 65.7792 52.2107 65.9987C52.2359 66.0583 52.2747 66.1112 52.324 66.1531C52.3733 66.195 52.4318 66.2248 52.4947 66.2401C52.5868 66.2674 52.6826 66.2808 52.7787 66.2799C53.1274 66.3251 53.4803 66.327 53.8295 66.2855Z" fill="#263238"/>
<path d="M59.5839 71.7469C59.5839 71.7469 58.0589 74.9647 53.3672 74.5159V73.414C55.5536 73.4432 57.7054 72.8662 59.5839 71.7469Z" fill="#A25449"/>
<path d="M56.0538 58.8647C56.1191 59.0407 56.7638 58.9612 57.5221 59.0521C58.2803 59.143 58.8966 59.3531 58.996 59.1969C59.0415 59.1203 58.9364 58.9555 58.6893 58.7851C58.3596 58.574 57.9859 58.4414 57.5969 58.3976C57.2079 58.3538 56.814 58.3999 56.4457 58.5324C56.1674 58.6431 56.0282 58.788 56.0538 58.8647Z" fill="#263238"/>
<path d="M49.9175 59.2254C50.0311 59.3731 50.4855 59.2254 51.0109 59.2254C51.5363 59.2254 52.002 59.3276 52.1071 59.1743C52.1526 59.0976 52.0816 58.9499 51.8828 58.8107C51.6192 58.6388 51.3082 58.5543 50.9938 58.5693C50.6799 58.5712 50.3743 58.6704 50.1191 58.8533C49.9288 59.001 49.8664 59.1515 49.9175 59.2254Z" fill="#263238"/>
<path d="M50.2684 55.0959C50.4345 54.7523 50.6925 54.4614 51.0138 54.2553C51.3351 54.0493 51.7072 53.9363 52.0888 53.9287C52.8555 53.9284 53.6063 54.1472 54.2529 54.5592C57.0446 56.1723 58.4788 60.0716 61.2364 61.7415C61.9152 62.1505 62.7984 61.7756 63.375 62.3095C63.9515 62.8435 64.3264 63.7295 64.0083 64.4509C64.4037 63.9603 64.7261 63.415 64.9654 62.8321C65.0835 62.5393 65.1377 62.2247 65.1245 61.9093C65.1113 61.5939 65.0309 61.285 64.8887 61.0031C64.6501 60.5913 64.227 60.2733 64.1134 59.8103C64.0111 59.4042 64.1702 58.9782 64.1531 58.5579C64.1067 58.131 63.9598 57.7213 63.7243 57.3623C62.6451 55.4509 61.1683 53.7214 59.2428 52.6479C57.9931 51.926 56.5705 51.5579 55.1276 51.5829C53.6796 51.6173 52.2915 52.1683 51.2141 53.1363C50.5978 53.7043 49.9474 54.3064 50.2684 55.0874" fill="#263238"/>
<path d="M63.332 62.8889C63.3803 62.7554 65.8256 61.8722 65.8596 64.4708C65.8909 66.9956 63.3406 66.4986 63.3377 66.4276C63.3349 66.3566 63.332 62.8889 63.332 62.8889Z" fill="#AD6359"/>
<path d="M64.094 65.462C64.094 65.462 64.1366 65.4932 64.2133 65.5273C64.319 65.5696 64.437 65.5696 64.5427 65.5273C64.8068 65.4279 65.0283 65.0019 65.0369 64.5475C65.0396 64.3303 64.995 64.1152 64.9062 63.917C64.8821 63.8384 64.8392 63.7669 64.7813 63.7085C64.7235 63.6502 64.6523 63.6067 64.5739 63.5819C64.5231 63.5692 64.4693 63.5748 64.4221 63.5976C64.3749 63.6204 64.3372 63.6591 64.3155 63.7068C64.2814 63.7778 64.2985 63.8261 64.2843 63.8318C64.2701 63.8375 64.2303 63.7892 64.2502 63.6841C64.2636 63.6218 64.2976 63.5657 64.3467 63.5251C64.416 63.4735 64.5023 63.4502 64.5881 63.4598C64.6921 63.4794 64.7894 63.5252 64.8709 63.5927C64.9524 63.6603 65.0153 63.7474 65.0539 63.846C65.1626 64.0646 65.2172 64.3062 65.2129 64.5503C65.2129 65.0587 64.9289 65.5358 64.5796 65.6465C64.5119 65.6664 64.4407 65.6711 64.371 65.6603C64.3013 65.6495 64.2348 65.6235 64.1763 65.5841C64.0997 65.5244 64.0855 65.4676 64.094 65.462Z" fill="#A15449"/>
<path d="M64.319 61.5911C64.2667 61.5666 64.2163 61.5381 64.1685 61.5059C64.0719 61.4462 63.9214 61.3639 63.7453 61.2361C63.2467 60.8737 62.7896 60.4575 62.3821 59.995C61.7849 59.3066 61.2283 58.584 60.715 57.8309C60.094 56.9089 59.3967 56.0406 58.6305 55.2351C58.2206 54.8345 57.7693 54.4784 57.2843 54.173C56.8293 53.8949 56.3419 53.6737 55.8331 53.5141C54.9698 53.2377 54.0623 53.126 53.1578 53.1847C52.5474 53.2218 51.9448 53.3403 51.3657 53.5368C51.1584 53.5993 51.0051 53.6703 50.8971 53.7101C50.8441 53.7347 50.789 53.7547 50.7324 53.7697C50.7819 53.7384 50.8342 53.7118 50.8886 53.6902C51.039 53.616 51.1936 53.5506 51.3515 53.4942C51.9303 53.2801 52.5366 53.1491 53.1521 53.1051C54.0675 53.031 54.9886 53.1352 55.8643 53.4119C56.3829 53.572 56.8798 53.7952 57.3439 54.0764C57.8373 54.3842 58.2954 54.7451 58.71 55.1528C59.4814 55.9623 60.1808 56.8375 60.8002 57.7684C61.3093 58.5206 61.8572 59.2458 62.4417 59.941C62.8425 60.4037 63.2877 60.8261 63.7709 61.202C63.9441 61.3326 64.0889 61.4178 64.1798 61.486C64.2294 61.5165 64.276 61.5517 64.319 61.5911Z" fill="#455A64"/>
<path d="M63.6861 62.3067C63.7258 62.994 63.7571 63.7267 63.439 64.3373C63.1209 64.9479 62.3172 65.3654 61.7151 65.0246C61.2266 64.7406 61.0818 64.1186 60.9966 63.5591C60.758 61.9517 60.6501 60.3272 60.3945 58.7311L63.6861 62.3067Z" fill="#263238"/>
<path d="M55.4192 67.5125C55.5384 67.6733 55.6182 67.8599 55.6522 68.0572C55.6863 68.2544 55.6736 68.457 55.6152 68.6485C55.5526 68.8392 55.4455 69.0123 55.3028 69.1535C55.1601 69.2948 54.9858 69.4 54.7944 69.4607C54.6417 69.5133 54.4757 69.5133 54.323 69.4607C54.1995 69.3917 54.0915 69.2981 54.0055 69.1858C53.9196 69.0735 53.8575 68.9447 53.8232 68.8075C53.7351 68.5917 53.6471 68.373 53.5619 68.1543C53.5421 68.1203 53.5296 68.0825 53.5252 68.0434C53.5208 68.0043 53.5246 67.9647 53.5363 67.9271C53.5601 67.8916 53.5916 67.8619 53.6285 67.8403C53.6654 67.8186 53.7067 67.8056 53.7493 67.8021L55.3681 67.4102" fill="#A25449"/>
<path d="M54.3577 69.3954C54.6083 69.4271 54.8628 69.3928 55.0961 69.296C55.3692 69.2093 55.5995 69.0227 55.7408 68.7734C55.8224 68.6192 55.857 68.4444 55.8402 68.2708C55.8297 68.0918 55.7854 67.9164 55.7096 67.7539C55.6376 67.5939 55.5342 67.45 55.4057 67.3307L55.3631 67.291L55.3091 67.3108C54.2356 67.6886 53.3978 67.8788 53.4063 67.9271C53.4148 67.9754 54.2782 67.859 55.3716 67.4898L55.275 67.4699C55.3824 67.5745 55.4699 67.6976 55.5335 67.8334C55.6012 67.964 55.6405 68.1074 55.6488 68.2542C55.6571 68.4011 55.6343 68.548 55.5818 68.6854C55.4635 68.9018 55.2738 69.0704 55.045 69.1625C54.6417 69.3386 54.352 69.3585 54.3577 69.3954Z" fill="#263238"/>
<path d="M50.8984 53.8833C50.8984 53.8975 51.1228 53.8407 51.5261 53.8293C52.0973 53.8193 52.6649 53.9226 53.196 54.1332C53.5631 54.2761 53.9144 54.457 54.244 54.6728C54.6203 54.9259 54.9807 55.2019 55.3232 55.4992C56.1172 56.1688 56.8276 56.9316 57.439 57.7712C57.7599 58.2228 58.0439 58.6857 58.3506 59.1145C58.6433 59.5313 58.9836 59.9125 59.3645 60.2505C60.0184 60.8043 60.7341 61.2808 61.4973 61.6705C62.142 62.0142 62.6844 62.2527 63.0565 62.4175L63.4882 62.6021C63.5369 62.6262 63.5884 62.6443 63.6415 62.656C63.5972 62.6244 63.5496 62.5977 63.4995 62.5765L63.0792 62.3663C62.7128 62.1874 62.1818 61.9347 61.5456 61.5825C60.7968 61.181 60.0941 60.6992 59.4497 60.1455C59.0779 59.8066 58.7472 59.4253 58.4642 59.0095C58.1632 58.5863 57.8792 58.1234 57.5554 57.6661C56.9368 56.8158 56.2157 56.0451 55.4084 55.3714C55.0592 55.0737 54.6922 54.7977 54.3093 54.545C53.9705 54.3293 53.6097 54.1503 53.2329 54.0111C52.6896 53.8052 52.1091 53.7152 51.5289 53.7469C51.3722 53.7553 51.2165 53.7762 51.0632 53.8094C51.0061 53.829 50.951 53.8537 50.8984 53.8833Z" fill="#455A64"/>
<path d="M63.7559 60.7447C63.8242 60.8047 63.8996 60.8561 63.9802 60.8981L64.6192 61.273L64.8351 61.3951C64.9213 61.4472 65.0186 61.4783 65.1191 61.486C65.1788 61.4934 65.2392 61.4793 65.2895 61.4462C65.317 61.4279 65.3399 61.4035 65.3567 61.375C65.3734 61.3464 65.3834 61.3145 65.386 61.2815C65.3802 61.1648 65.3386 61.0527 65.2667 60.9606L64.5227 59.7735L64.4233 59.8643C64.668 60.0464 64.943 60.1839 65.2355 60.2705C65.5278 60.3595 65.8337 60.3951 66.1386 60.3755C66.2168 60.3755 66.2944 60.3631 66.3687 60.3386C66.4115 60.3256 66.4511 60.3037 66.4848 60.2743C66.5186 60.245 66.5458 60.2088 66.5646 60.1682C66.5783 60.1253 66.5816 60.0797 66.5742 60.0353C66.5668 59.9908 66.5489 59.9488 66.522 59.9126C66.4788 59.8552 66.4303 59.802 66.3772 59.7536C66.0476 59.4302 65.7612 59.0656 65.5252 58.6687C65.3164 58.2948 65.1342 57.9066 64.9799 57.5071C64.9916 57.6228 65.0183 57.7364 65.0594 57.8451C65.1554 58.1492 65.2829 58.4423 65.44 58.7198C65.6693 59.1366 65.9561 59.519 66.292 59.8558C66.3857 59.9439 66.4794 60.0461 66.4425 60.1398C66.4056 60.2335 66.2693 60.2591 66.1358 60.2619C65.5548 60.2896 64.9818 60.1183 64.5113 59.7763L64.2103 59.5548L64.4119 59.87L65.1702 61.0486C65.2286 61.119 65.2651 61.2049 65.2753 61.2957C65.2753 61.3667 65.2128 61.4093 65.1304 61.4036C64.9684 61.3707 64.8141 61.3071 64.676 61.2162L64.0171 60.8754C63.9355 60.8217 63.8478 60.7778 63.7559 60.7447Z" fill="#455A64"/>
<g opacity="0.3">
<path opacity="0.3" d="M47.848 97.7784C48.5551 95.4269 49.8644 93.1549 51.9461 91.8513C53.6501 90.7863 55.7091 90.4569 57.7141 90.383C61.3437 90.2524 64.9618 90.8829 68.4692 91.8257C73.9817 93.3054 79.3862 95.6228 83.6377 99.4313L84.6657 100.175C81.3004 101.149 77.685 100.42 74.3253 99.4171C70.9656 98.4145 67.6314 97.1309 64.1269 96.9945C62.0338 96.9122 59.8669 97.2388 57.8789 96.5771C57.0723 96.3073 56.2714 95.8727 55.4251 95.9693C54.4169 96.0801 53.6558 96.9037 52.9941 97.6733L46.6523 105.037C46.9647 102.601 47.1437 100.13 47.848 97.7784Z" fill="black"/>
</g>
<path d="M80.8844 83.9816C80.8844 83.9816 88.0072 92.033 88.5524 94.8844C89.0977 97.7358 88.5524 98.9712 86.0731 99.9027C83.5938 100.834 67.1758 94.697 67.1758 94.697L69.9647 89.9258L78.7999 91.661L75.5424 88.7869L78.5017 86.1287L80.8844 83.9816Z" fill="#AD6359"/>
<path d="M61.7328 80.6276L62.5677 90.8175C62.5812 90.9832 62.5294 91.1476 62.4232 91.2755C62.3171 91.4034 62.1651 91.4847 61.9997 91.5019L55.7148 92.1722C55.5465 92.1897 55.3781 92.1397 55.2466 92.0332C55.1151 91.9267 55.0312 91.7724 55.0133 91.6042L53.7836 80.9599C53.7734 80.8721 53.7814 80.7831 53.8073 80.6986C53.8332 80.6141 53.8763 80.5358 53.9339 80.4688C53.9916 80.4019 54.0625 80.3475 54.1422 80.3094C54.222 80.2712 54.3087 80.2499 54.3971 80.247L61.0796 80.034C61.2439 80.0299 61.4035 80.0894 61.5251 80.1999C61.6468 80.3104 61.7211 80.4636 61.7328 80.6276Z" fill="#263238"/>
<path d="M58.5766 85.1545C58.7725 85.1716 63.0382 85.9299 63.0382 85.9299L68.119 89.4941L69.9763 89.9257L68.8602 95.14L67.1874 94.7055C66.3153 94.7427 65.4416 94.7237 64.5718 94.6487C63.2711 94.5265 59.1531 94.2113 59.1531 94.2113L57.0288 93.0327C57.0288 93.0327 56.3472 91.9166 56.3472 91.6127C56.339 91.5234 56.356 91.4335 56.3963 91.3534C56.4366 91.2732 56.4986 91.2059 56.5752 91.1592C56.6518 91.1125 56.7399 91.0882 56.8296 91.089C56.9193 91.0899 57.007 91.1158 57.0827 91.164C57.5172 91.4111 60.4907 91.4735 61.2348 91.164C61.2348 91.164 56.8981 90.8487 56.3415 90.1387C55.7848 89.4287 55.9694 88.8693 56.651 88.8693C57.3326 88.8693 59.8091 89.2413 60.5532 89.1788C61.2973 89.1163 62.226 89.1192 62.4134 88.7471C62.6008 88.3751 62.0414 88.0655 62.0414 88.0655L61.2348 87.4464C61.2348 87.4464 58.0739 86.8784 57.8893 86.2053C57.8499 86.0908 57.8373 85.9688 57.8523 85.8486C57.8673 85.7284 57.9096 85.6132 57.9759 85.5118C58.0422 85.4105 58.1308 85.3256 58.2349 85.2637C58.339 85.2017 58.4558 85.1644 58.5766 85.1545Z" fill="#AD6359"/>
<path d="M78.8984 91.732C78.962 91.6966 79.0312 91.6726 79.1029 91.661C79.2894 91.6128 79.4793 91.5786 79.6709 91.5587C80.3113 91.4847 80.9595 91.5203 81.5879 91.6638C82.2173 91.8042 82.8172 92.0542 83.3601 92.4022C83.5245 92.5059 83.6802 92.6228 83.8258 92.7515C83.9309 92.8424 83.982 92.8964 83.9764 92.9021C83.9707 92.9077 83.7236 92.7345 83.3061 92.4903C82.7604 92.1768 82.1707 91.947 81.5567 91.8086C80.942 91.6714 80.3108 91.6226 79.6823 91.6638C79.2023 91.6894 78.9041 91.749 78.8984 91.732Z" fill="#A15449"/>
<path d="M57.1293 84.9358C57.1293 84.9358 53.5055 85.5237 53.2755 85.7538C53.0454 85.9838 48.4844 91.5729 48.4844 91.5729L50.8132 96.1482L54.8943 93.9386C55.3099 93.7531 55.744 93.6122 56.1893 93.5183C56.1893 93.5183 60.3101 92.8708 60.5771 92.3823C60.8441 91.8938 60.6907 91.7717 60.384 91.695C60.0773 91.6184 57.615 91.8995 57.0669 92.0018C56.5219 92.0548 55.9731 92.0548 55.4282 92.0018C55.4282 92.0018 57.1322 91.6013 57.5241 91.4678C57.916 91.3344 61.7443 90.4738 61.6819 89.7894C61.6194 89.105 61.1423 88.8522 58.7453 89.5054C57.4279 89.882 56.0702 90.0993 54.7011 90.1529L60.0034 88.3041C60.0034 88.3041 62.1391 87.6168 61.4518 87.0062C60.7645 86.3956 56.1893 87.6566 56.1893 87.6566L54.1672 88.4177L54.7352 87.1993C54.7352 87.1993 57.6093 86.3473 57.9785 86.0633C58.4357 85.7083 58.4982 85.3789 58.1546 85.0835C57.8109 84.7882 57.1293 84.9358 57.1293 84.9358Z" fill="#AD6359"/>
<path d="M40.4579 91.3145L47.1177 91.8825L47.0523 93.7086L48.4723 91.5615L50.8012 96.1368C50.8012 96.1368 49.9492 98.8575 49.5033 100.36C48.2878 104.384 46.3111 108.88 43.8801 108.661C40.9634 108.377 38.8334 104.932 38.8817 102.697C38.9356 100.672 40.4579 91.3145 40.4579 91.3145Z" fill="#AD6359"/>
<path d="M48.4844 91.5729C48.4844 91.5729 48.5241 91.5161 48.6093 91.4082L48.9785 90.9425L50.4184 89.1589L52.7075 86.3559L53.0511 85.9441C53.1079 85.8731 53.1675 85.8021 53.2329 85.7311C53.3137 85.6715 53.4053 85.6281 53.5027 85.6033C53.8662 85.4953 54.2467 85.4158 54.6387 85.3335C55.4197 85.1744 56.2489 85.0267 57.1208 84.8819C57.3415 84.8317 57.5695 84.8211 57.7939 84.8507C57.9124 84.8662 58.0264 84.9058 58.129 84.9671C58.2331 85.0337 58.3198 85.1243 58.3818 85.2312C58.4143 85.288 58.4344 85.351 58.4407 85.4161C58.4471 85.4812 58.4396 85.547 58.4187 85.6089C58.3761 85.7264 58.3083 85.833 58.2199 85.9213C58.1369 86.0122 58.0412 86.0906 57.9359 86.1542C57.8251 86.211 57.7172 86.2593 57.6036 86.3047C56.709 86.6541 55.7548 86.9466 54.7636 87.2505L54.8062 87.2135L54.2382 88.4347L54.153 88.3439L56.1751 87.5799C57.0413 87.347 57.9331 87.1369 58.8561 86.9665C59.3257 86.8779 59.7997 86.8144 60.2761 86.7762C60.5189 86.7549 60.7631 86.7549 61.0059 86.7762C61.1348 86.7851 61.2614 86.8149 61.3808 86.8642C61.4479 86.8903 61.5083 86.9312 61.5574 86.9838C61.6066 87.0364 61.6433 87.0994 61.6648 87.1681C61.6791 87.2393 61.6754 87.3129 61.654 87.3824C61.6327 87.4518 61.5945 87.5148 61.5427 87.5657C61.4587 87.6595 61.3633 87.7425 61.2587 87.8128C61.0479 87.9478 60.8255 88.0637 60.5941 88.1593C60.1341 88.3552 59.6569 88.4972 59.1741 88.6676C58.2313 88.9999 57.2713 89.3322 56.3029 89.6701L54.7437 90.2154L54.7182 90.0706C55.9835 90.0156 57.2394 89.8252 58.4641 89.5026C59.0608 89.3326 59.6667 89.197 60.2789 89.0965C60.5871 89.0425 60.9023 89.0425 61.2104 89.0965C61.3753 89.1283 61.5233 89.2179 61.6279 89.3492C61.7191 89.4885 61.7674 89.6514 61.7671 89.8178C61.7592 89.909 61.7177 89.9941 61.6506 90.0564C61.5961 90.1143 61.5351 90.1658 61.4689 90.2097C61.3429 90.2924 61.211 90.3655 61.0741 90.4284C60.8065 90.5517 60.5325 90.6607 60.2533 90.755C59.7052 90.9453 59.1543 91.1043 58.6118 91.2492L57.8053 91.465C57.5411 91.5332 57.277 91.6269 57.0129 91.6894C56.4875 91.8229 55.9678 91.9478 55.4594 92.0671V91.9393C56.0542 92.0101 56.6558 92.0025 57.2486 91.9166C57.8337 91.8314 58.4073 91.7689 58.9526 91.7121C59.2366 91.6865 59.5206 91.661 59.7847 91.6439C59.9211 91.6439 60.0687 91.6439 60.1965 91.6439C60.2674 91.6372 60.3387 91.6372 60.4095 91.6439C60.4793 91.6595 60.547 91.6833 60.6112 91.7149C60.6486 91.7317 60.6819 91.7564 60.7089 91.7873C60.7358 91.8182 60.7558 91.8545 60.7674 91.8939C60.7874 91.9673 60.7874 92.0448 60.7674 92.1182C60.7489 92.1835 60.7251 92.2471 60.6964 92.3085L60.6509 92.3994C60.6326 92.4335 60.6075 92.4634 60.5771 92.4874C60.3584 92.6341 60.1164 92.7427 59.8614 92.8083C58.958 93.0632 58.0411 93.268 57.1151 93.4218L56.4875 93.5269C56.2864 93.5552 56.0872 93.596 55.8911 93.649C55.5238 93.7319 55.1688 93.8617 54.8346 94.0352L51.8839 95.6143L51.1029 96.0261L50.9012 96.1283L50.8331 96.1595L50.8955 96.1198L51.0943 96.0062L51.864 95.5773L54.7977 93.9671C55.4424 93.6092 56.2489 93.4757 57.0981 93.3309C58.0195 93.1725 58.9315 92.9639 59.8302 92.7061C60.0691 92.6436 60.2964 92.5429 60.5033 92.4079C60.5232 92.3907 60.5405 92.3706 60.5544 92.3483L60.597 92.2631C60.6237 92.2073 60.6455 92.1493 60.6623 92.0898C60.6964 91.9677 60.6765 91.8626 60.5686 91.8058C60.512 91.7795 60.453 91.7586 60.3925 91.7433C60.3301 91.7389 60.2675 91.7389 60.2051 91.7433C60.0716 91.7433 59.9353 91.7433 59.8018 91.7604C59.5178 91.7774 59.2537 91.803 58.9725 91.8314C58.4045 91.8882 57.8365 91.9535 57.2685 92.0387C56.6666 92.1293 56.0553 92.1388 55.4509 92.0671C55.4343 92.0671 55.4184 92.0605 55.4067 92.0488C55.395 92.0371 55.3884 92.0212 55.3884 92.0046C55.3884 91.9881 55.395 91.9722 55.4067 91.9604C55.4184 91.9487 55.4343 91.9421 55.4509 91.9421C55.9593 91.82 56.479 91.6979 57.0015 91.5616C57.2685 91.4991 57.5213 91.4082 57.7911 91.3344L58.5976 91.1185C59.1401 90.9709 59.6882 90.8147 60.2306 90.6244C60.505 90.5307 60.7742 90.4227 61.0372 90.3006C61.1678 90.2423 61.2932 90.1729 61.4121 90.0933C61.52 90.0166 61.6478 89.9115 61.6478 89.8093C61.6478 89.675 61.6083 89.5436 61.5342 89.4316C61.4506 89.3265 61.3313 89.2558 61.1991 89.2328C60.9088 89.1817 60.6118 89.1817 60.3215 89.2328C59.7152 89.3349 59.1151 89.4705 58.5238 89.6389C57.2869 89.9639 56.0186 90.1543 54.7409 90.2069C54.7312 90.2077 54.7215 90.2065 54.7124 90.2032C54.7032 90.2 54.6949 90.1948 54.6879 90.1881C54.6809 90.1814 54.6754 90.1733 54.6718 90.1643C54.6682 90.1553 54.6666 90.1456 54.6671 90.1359C54.6667 90.1205 54.6712 90.1054 54.6798 90.0927C54.6885 90.0799 54.7009 90.0702 54.7153 90.0649L56.2745 89.5196L59.1486 88.5171C59.6172 88.3467 60.0971 88.2019 60.5459 88.0144C60.7682 87.9216 60.982 87.8094 61.1849 87.6793C61.2835 87.618 61.3733 87.5434 61.4518 87.4578C61.4877 87.4247 61.515 87.3833 61.5313 87.3373C61.5476 87.2913 61.5525 87.242 61.5455 87.1937C61.4859 87.0005 61.2473 86.9267 61.0173 86.9097C60.7829 86.8898 60.5473 86.8898 60.313 86.9097C59.8441 86.9462 59.3776 87.0088 58.9157 87.0971C57.9984 87.2647 57.1066 87.472 56.2461 87.702L54.224 88.4631C54.2074 88.4697 54.1889 88.4696 54.1725 88.4627C54.156 88.4558 54.1429 88.4427 54.136 88.4262C54.1303 88.4087 54.1303 88.3898 54.136 88.3723C54.3348 87.9491 54.5336 87.5203 54.704 87.1539C54.7118 87.1368 54.7261 87.1235 54.7437 87.117C55.7292 86.833 56.6891 86.5291 57.5837 86.1855C57.6923 86.1429 57.7984 86.0945 57.9018 86.0406C57.9973 85.984 58.0842 85.9142 58.1603 85.8333C58.2433 85.7715 58.303 85.6834 58.3298 85.5835C58.3566 85.4835 58.3489 85.3774 58.3079 85.2823C58.2553 85.1929 58.1824 85.117 58.0951 85.0607C58.0078 85.0045 57.9085 84.9695 57.8053 84.9586C57.596 84.931 57.3835 84.9406 57.1776 84.987C56.3086 85.129 55.4736 85.271 54.6983 85.4272C54.3092 85.5067 53.9287 85.5862 53.5623 85.6885C53.4795 85.7108 53.4009 85.7463 53.3294 85.7935L53.1533 85.998L52.8069 86.407L50.4979 89.193L49.0353 90.9567L48.6519 91.4139C48.5327 91.5218 48.4844 91.5729 48.4844 91.5729Z" fill="#AD6359"/>
<path d="M36.9145 121.762L25.4863 126.522L29.9792 131.731L39.746 129.822L36.9145 121.762Z" fill="#AD6359"/>
<path d="M67.4509 111.774C67.4509 111.774 68.0189 124.909 66.8829 127.221C65.7469 129.532 54.0802 129.865 54.0802 129.865L35.7196 131.185L33.3965 122.634C33.3965 122.634 46.6337 116.147 47.8805 115.403C49.1272 114.659 52.0922 113.344 52.0922 113.344L56.4658 107.466L67.4509 111.774Z" fill="#263238"/>
<path d="M46.1562 130.183C46.2016 130.16 46.2492 130.142 46.2982 130.129L46.7186 129.995L48.2806 129.53L53.5374 128.016H53.5573C53.8539 128.009 54.1497 127.984 54.4434 127.942C54.7303 127.903 55.0148 127.848 55.2954 127.777C55.5794 127.692 55.8435 127.624 56.0991 127.516C56.5951 127.328 57.0709 127.09 57.5191 126.806C58.2853 126.324 58.9682 125.72 59.5412 125.02C59.9248 124.544 60.2535 124.027 60.521 123.477C60.6175 123.284 60.6743 123.125 60.7254 123.023C60.7454 122.968 60.7711 122.916 60.8021 122.867C60.7927 122.924 60.7765 122.981 60.7538 123.034C60.7112 123.14 60.663 123.318 60.5749 123.503C60.324 124.067 60.0044 124.599 59.6235 125.085C59.0535 125.806 58.3672 126.427 57.5929 126.922C57.135 127.214 56.6488 127.458 56.1417 127.652C55.8832 127.763 55.6021 127.834 55.3238 127.922C55.0372 127.993 54.7471 128.049 54.4547 128.09C54.1554 128.132 53.8538 128.156 53.5516 128.163H53.5686L48.3005 129.632L46.7271 130.052L46.2982 130.16C46.252 130.173 46.2043 130.181 46.1562 130.183Z" fill="#455A64"/>
<path d="M47.4778 115.79L46.1543 97.2785C46.1543 97.2785 47.0063 83.5244 39.2446 84.2599C31.4829 84.9955 32.0196 97.145 32.0196 97.145C32.0196 97.145 32.4882 113.785 32.9597 116.201C33.4311 118.618 33.6186 121.294 35.1692 122.302L42.2181 121.433L47.4778 115.79Z" fill="#263238"/>
<path d="M43.5549 87.8838L45.2589 92.4647L43.5549 109.692C43.5549 109.692 33.561 110.229 33.6632 109.959C33.7655 109.689 32.1523 101.306 32.1523 101.306C32.1523 101.306 31.8882 90.2296 34.9071 88.2189C37.9261 86.2082 43.5549 87.8838 43.5549 87.8838Z" fill="#263238"/>
<path d="M43.1669 109.712L42.7721 117.948L35.55 121.552L34.1641 110.03L43.1669 109.712Z" fill="#AD6359"/>
<path d="M56.4576 107.466L48.1307 104.711L43.8906 108.673L46.5858 116.747L53.2087 114.117L56.4576 107.466Z" fill="#263238"/>
<path d="M33.3828 122.634C33.4114 122.613 33.4418 122.595 33.4737 122.58L33.7577 122.435L34.8227 121.887L38.7476 119.899L44.5753 116.971L48.0202 115.247L49.8434 114.338L50.775 113.873L51.2464 113.637C51.4026 113.552 51.5649 113.479 51.7321 113.418C52.3925 113.162 53.0874 113.006 53.7939 112.955C54.4773 112.899 55.1651 112.928 55.8415 113.041C57.1201 113.255 58.3467 113.709 59.4569 114.378C60.4597 114.982 61.3646 115.734 62.1406 116.61C62.814 117.372 63.4113 118.198 63.9242 119.076C64.6601 120.349 65.2717 121.69 65.7503 123.08C65.9235 123.568 66.0343 123.952 66.1252 124.216C66.1621 124.341 66.1905 124.44 66.2132 124.514L66.2388 124.616C66.2214 124.585 66.208 124.552 66.199 124.517L66.0968 124.233C66.0087 123.975 65.8781 123.594 65.6963 123.097C65.2002 121.717 64.5774 120.386 63.8361 119.121C63.3194 118.254 62.7212 117.438 62.0498 116.684C61.2789 115.821 60.3817 115.08 59.3887 114.486C58.2909 113.83 57.0802 113.385 55.8188 113.174C55.1534 113.065 54.4772 113.038 53.8053 113.094C53.114 113.143 52.4341 113.296 51.7889 113.549C51.6234 113.607 51.4629 113.678 51.3089 113.762L50.8374 113.998L49.9059 114.463L48.0827 115.369L44.6349 117.088L38.793 119.984L34.8454 121.927L33.7719 122.447L33.4879 122.58L33.3828 122.634Z" fill="#455A64"/>
<path d="M49.5339 113.765C49.5293 113.347 49.4913 112.93 49.4203 112.518C49.188 111.535 48.8048 110.594 48.2843 109.729C47.7503 108.86 47.2941 107.946 46.9211 106.997C46.8165 106.704 46.7367 106.403 46.6826 106.097C46.6576 105.986 46.6471 105.872 46.6513 105.759C46.6797 105.759 46.7365 106.236 47.0177 106.96C47.4183 107.891 47.8842 108.793 48.4121 109.658C48.9511 110.532 49.3354 111.493 49.5481 112.498C49.6015 112.805 49.6196 113.118 49.6021 113.43C49.5953 113.544 49.5724 113.657 49.5339 113.765Z" fill="#455A64"/>
<path d="M32.1504 101.306C32.1631 101.334 32.1717 101.363 32.176 101.394L32.2328 101.661C32.2839 101.905 32.3549 102.251 32.4429 102.689C32.6218 103.583 32.8746 104.878 33.17 106.48C33.3176 107.281 33.4795 108.159 33.63 109.107C33.667 109.346 33.7039 109.584 33.7266 109.837C33.7295 109.872 33.7295 109.907 33.7266 109.942V109.976C33.7266 109.993 33.7266 109.976 33.7266 109.948V109.928C33.7266 109.928 33.7266 109.928 33.7436 109.928C33.8018 109.939 33.8606 109.947 33.9197 109.951C34.0418 109.951 34.1668 109.951 34.2946 109.951C34.803 109.951 35.3284 109.951 35.8651 109.934C38.0178 109.874 40.3836 109.763 42.8657 109.65L43.5615 109.613L43.4933 109.678C43.9761 104.89 44.4135 100.59 44.7288 97.4659C44.8906 95.9209 45.0128 94.6685 45.115 93.7938C45.1633 93.3678 45.203 93.0355 45.2286 92.7998L45.2627 92.5413C45.2583 92.5122 45.2583 92.4825 45.2627 92.4533C45.2664 92.4825 45.2664 92.5121 45.2627 92.5413C45.2627 92.6095 45.2627 92.6947 45.2428 92.8026C45.2229 93.0383 45.1945 93.3706 45.1576 93.7995C45.0752 94.677 44.9588 95.9295 44.8168 97.4773C44.5129 100.601 44.0926 104.898 43.624 109.689V109.755H43.5615L42.8657 109.792C40.3807 109.916 38.015 110.024 35.8594 110.076C35.3227 110.076 34.7973 110.095 34.2832 110.076L33.8998 110.058C33.8341 110.054 33.7687 110.045 33.7039 110.033C33.6812 110.033 33.6726 110.033 33.6357 110.002C33.5988 109.97 33.6357 110.002 33.6102 109.968C33.6075 109.954 33.6075 109.941 33.6102 109.928C33.6102 109.911 33.6556 109.928 33.6102 109.928V109.914C33.6102 109.914 33.6102 109.86 33.6102 109.837C33.5931 109.596 33.5534 109.351 33.5193 109.116C33.3744 108.17 33.2182 107.292 33.0791 106.489C32.7951 104.893 32.5622 103.597 32.3975 102.692C32.3208 102.251 32.2583 101.905 32.2157 101.658C32.1987 101.547 32.1845 101.456 32.1731 101.374C32.163 101.352 32.1553 101.329 32.1504 101.306Z" fill="#455A64"/>
<path d="M41.8096 86.5262C41.8907 86.5819 41.9634 86.6488 42.0254 86.725C42.2136 86.9136 42.3909 87.1128 42.5565 87.3214C43.114 88.0065 43.5905 88.7536 43.9765 89.548C44.3541 90.3432 44.64 91.1788 44.8285 92.0387C44.8871 92.2994 44.9326 92.5629 44.9648 92.8282C44.9829 92.9217 44.9886 93.0172 44.9819 93.1122C44.9563 93.1122 44.891 92.7033 44.7263 92.0557C44.2946 90.3627 43.5299 88.7726 42.477 87.3782C42.0709 86.85 41.7897 86.5433 41.8096 86.5262Z" fill="#455A64"/>
<path d="M49.9219 113.379C49.9236 113.282 49.9379 113.187 49.9645 113.095C50.0014 112.918 50.0639 112.666 50.1548 112.359C50.6282 110.749 51.3642 109.228 52.333 107.858C52.5205 107.596 52.6795 107.389 52.7931 107.253C52.9067 107.116 52.9777 107.04 52.9862 107.048C52.9947 107.057 52.7704 107.38 52.4182 107.914C51.962 108.609 51.5512 109.333 51.1885 110.081C50.8283 110.831 50.5153 111.602 50.2513 112.39C50.0497 113.001 49.9446 113.384 49.9219 113.379Z" fill="#455A64"/>
<path d="M62.4062 112.117C62.429 112.117 62.5341 112.401 62.7527 112.856C63.325 114.033 64.1584 115.065 65.1895 115.872C65.5842 116.182 65.8512 116.346 65.837 116.369C65.7655 116.348 65.6975 116.316 65.6353 116.275C65.4595 116.179 65.2897 116.072 65.127 115.954C64.0387 115.179 63.1849 114.119 62.659 112.89C62.579 112.705 62.5098 112.515 62.4517 112.322C62.427 112.256 62.4117 112.187 62.4062 112.117Z" fill="#455A64"/>
<path d="M25.7699 131.944C21.473 131.816 20.391 131.975 16.0969 131.847C15.0461 131.813 11.2348 132.026 10.3459 131.469C9.53649 130.958 8.50273 130.489 8.27553 129.561C7.88929 127.996 8.27553 126.207 9.71257 125.193C10.2087 124.848 10.7862 124.637 11.3882 124.582C13.9186 124.327 16.2758 126.127 18.7977 125.525C19.4793 125.363 20.0871 124.957 20.7658 124.79C21.7761 124.573 22.8305 124.721 23.7422 125.207C24.6623 125.659 24.8782 125.732 24.8782 125.732L29.354 124.108L30.9274 131.966L25.7699 131.944Z" fill="#455A64"/>
<path d="M29.3937 122.245L27.0365 123.071C26.8629 123.132 26.718 123.256 26.6299 123.417C26.5418 123.579 26.5167 123.767 26.5594 123.946L28.5729 132.37C28.615 132.549 28.7223 132.707 28.874 132.812C29.0256 132.916 29.2108 132.961 29.3937 132.938L31.8077 132.628C31.9106 132.614 32.0096 132.579 32.0982 132.525C32.1868 132.471 32.2631 132.399 32.3222 132.314C32.3813 132.229 32.4219 132.132 32.4414 132.03C32.4609 131.928 32.4588 131.823 32.4353 131.722L30.3735 122.796C30.3517 122.692 30.3078 122.593 30.2449 122.508C30.1819 122.422 30.1014 122.35 30.0086 122.298C29.9158 122.246 29.8129 122.214 29.7069 122.205C29.6009 122.196 29.4941 122.209 29.3937 122.245Z" fill="#455A64"/>
<path d="M28.6338 132.699C28.4433 132.293 28.2875 131.871 28.1681 131.438C27.9096 130.651 27.5802 129.552 27.2848 128.314C26.9895 127.076 26.7822 125.954 26.6686 125.13C26.6089 124.721 26.572 124.386 26.5521 124.156C26.5347 124.037 26.5347 123.915 26.5521 123.796C26.6748 124.226 26.7697 124.665 26.8361 125.108C26.9866 125.92 27.211 127.039 27.5064 128.266C27.8017 129.493 28.1084 130.592 28.33 131.39C28.4603 131.819 28.5618 132.256 28.6338 132.699Z" fill="#263238"/>
<path d="M26.9801 125.017C26.9403 124.986 27.6503 124.366 28.7579 124.165C29.8655 123.963 30.7459 124.293 30.7175 124.335C30.6891 124.378 29.8428 124.17 28.7949 124.366C27.7469 124.562 27.017 125.071 26.9801 125.017Z" fill="#263238"/>
<path d="M27.3303 128.203C27.3133 128.149 28.1823 127.817 29.3183 127.533C30.4543 127.249 31.3688 127.118 31.3802 127.172C31.3915 127.226 30.4827 127.456 29.3666 127.74C28.2505 128.024 27.3474 128.257 27.3303 128.203Z" fill="#263238"/>
<path d="M28.4824 131.492C28.4824 131.43 29.4083 131.518 30.4136 131.063C31.419 130.609 31.9841 129.885 32.0324 129.927C32.0807 129.97 31.9415 130.146 31.6859 130.418C31.002 131.13 30.0653 131.543 29.0788 131.569C28.8767 131.591 28.6722 131.565 28.4824 131.492Z" fill="#263238"/>
<path d="M43.1658 115.327L42.771 117.951L35.5517 121.552L34.6543 116.082L43.1658 115.327Z" fill="#455A64"/>
<path d="M33.5419 113.952L33.9934 116.451C34.0273 116.636 34.1284 116.802 34.2774 116.917C34.4263 117.032 34.6125 117.088 34.8 117.073L43.604 116.392C43.7912 116.377 43.9663 116.293 44.0954 116.157C44.2244 116.02 44.2983 115.841 44.3026 115.653L44.3651 113.182C44.3682 113.077 44.3491 112.972 44.309 112.874C44.2689 112.776 44.2088 112.688 44.1326 112.615C44.0563 112.542 43.9655 112.486 43.8662 112.45C43.7668 112.414 43.6611 112.4 43.5557 112.407L34.2462 113.06C34.1388 113.066 34.0337 113.094 33.9381 113.144C33.8425 113.193 33.7586 113.262 33.6919 113.347C33.6252 113.431 33.5773 113.529 33.5515 113.633C33.5256 113.738 33.5223 113.846 33.5419 113.952Z" fill="#455A64"/>
<path d="M43.9354 116.383C43.4964 116.508 43.0481 116.597 42.5949 116.65C41.76 116.784 40.6069 116.934 39.3176 117.042C38.0282 117.15 36.8638 117.17 36.0203 117.156C35.5972 117.156 35.2564 117.133 35.0207 117.116C34.8968 117.118 34.7734 117.102 34.6543 117.068C35.1071 117.021 35.5623 117.001 36.0175 117.008C36.8695 116.985 38.0225 116.937 39.3034 116.835C40.5842 116.733 41.7373 116.602 42.5751 116.505C43.0249 116.431 43.4796 116.39 43.9354 116.383Z" fill="#263238"/>
<path d="M35.9438 116.818C35.9069 116.852 35.3985 116.04 35.3758 114.895C35.3531 113.75 35.8188 112.907 35.8586 112.95C35.8984 112.992 35.5519 113.802 35.5746 114.889C35.5973 115.977 36.0063 116.792 35.9438 116.818Z" fill="#263238"/>
<path d="M39.2057 116.974C39.1489 116.974 38.953 116.048 38.845 114.872C38.7371 113.697 38.757 112.742 38.8138 112.742C38.8706 112.742 38.9444 113.688 39.0524 114.855C39.1603 116.023 39.2625 116.965 39.2057 116.974Z" fill="#263238"/>
<path d="M42.697 116.341C42.6316 116.341 42.8702 115.415 42.572 114.33C42.2738 113.245 41.6348 112.561 41.6888 112.521C41.7427 112.481 41.8932 112.646 42.1261 112.947C42.733 113.748 42.9994 114.756 42.8674 115.753C42.858 115.959 42.7996 116.161 42.697 116.341Z" fill="#263238"/>
<path d="M83.002 73H82.654C82.506 73 82.391 72.959 82.309 72.877C82.229 72.795 82.189 72.681 82.189 72.535V71.536C82.189 71.388 82.229 71.274 82.309 71.194C82.391 71.112 82.506 71.071 82.654 71.071H83.002C83.148 71.071 83.262 71.112 83.344 71.194C83.426 71.274 83.467 71.388 83.467 71.536V71.68C83.467 71.716 83.449 71.734 83.413 71.734H83.224C83.19 71.734 83.173 71.716 83.173 71.68V71.548C83.173 71.4 83.101 71.326 82.957 71.326H82.696C82.552 71.326 82.48 71.4 82.48 71.548V72.523C82.48 72.671 82.552 72.745 82.696 72.745H82.957C83.101 72.745 83.173 72.671 83.173 72.523V72.391C83.173 72.355 83.19 72.337 83.224 72.337H83.413C83.449 72.337 83.467 72.355 83.467 72.391V72.535C83.467 72.681 83.426 72.795 83.344 72.877C83.262 72.959 83.148 73 83.002 73ZM84.5081 73H84.2441C84.0961 73 83.9811 72.959 83.8991 72.877C83.8191 72.795 83.7791 72.681 83.7791 72.535V71.935C83.7791 71.787 83.8191 71.673 83.8991 71.593C83.9811 71.511 84.0961 71.47 84.2441 71.47H84.5081C84.6541 71.47 84.7681 71.511 84.8501 71.593C84.9341 71.673 84.9761 71.787 84.9761 71.935V72.535C84.9761 72.681 84.9341 72.795 84.8501 72.877C84.7681 72.959 84.6541 73 84.5081 73ZM84.2861 72.745H84.4691C84.6131 72.745 84.6851 72.672 84.6851 72.526V71.944C84.6851 71.798 84.6131 71.725 84.4691 71.725H84.2861C84.2101 71.725 84.1551 71.743 84.1211 71.779C84.0871 71.813 84.0701 71.868 84.0701 71.944V72.526C84.0701 72.602 84.0871 72.658 84.1211 72.694C84.1551 72.728 84.2101 72.745 84.2861 72.745ZM85.8908 73H85.7378C85.5938 73 85.4828 72.96 85.4048 72.88C85.3288 72.798 85.2908 72.683 85.2908 72.535V71.935C85.2908 71.785 85.3288 71.67 85.4048 71.59C85.4828 71.51 85.5938 71.47 85.7378 71.47H85.8908C86.0448 71.47 86.1448 71.523 86.1908 71.629H86.2028V70.942C86.2028 70.908 86.2198 70.891 86.2538 70.891H86.4458C86.4798 70.891 86.4968 70.908 86.4968 70.942V72.949C86.4968 72.983 86.4798 73 86.4458 73H86.2538C86.2198 73 86.2028 72.983 86.2028 72.949V72.841H86.1908C86.1448 72.947 86.0448 73 85.8908 73ZM86.2028 72.49V71.98C86.2028 71.81 86.1208 71.725 85.9568 71.725H85.7978C85.6538 71.725 85.5818 71.799 85.5818 71.947V72.523C85.5818 72.671 85.6538 72.745 85.7978 72.745H85.9568C86.1208 72.745 86.2028 72.66 86.2028 72.49ZM87.9566 73H87.3086C87.1606 73 87.0456 72.959 86.9636 72.877C86.8836 72.795 86.8436 72.681 86.8436 72.535V71.935C86.8436 71.787 86.8836 71.673 86.9636 71.593C87.0456 71.511 87.1606 71.47 87.3086 71.47H87.5546C87.7026 71.47 87.8176 71.511 87.8996 71.593C87.9816 71.673 88.0226 71.787 88.0226 71.935V72.316C88.0226 72.352 88.0046 72.37 87.9686 72.37H87.1646C87.1426 72.37 87.1316 72.38 87.1316 72.4V72.529C87.1316 72.675 87.2046 72.748 87.3506 72.748H87.9566C87.9926 72.748 88.0106 72.766 88.0106 72.802V72.952C88.0106 72.984 87.9926 73 87.9566 73ZM87.1646 72.166H87.7016C87.7216 72.166 87.7316 72.156 87.7316 72.136V71.944C87.7316 71.868 87.7146 71.813 87.6806 71.779C87.6466 71.743 87.5916 71.725 87.5156 71.725H87.3506C87.2746 71.725 87.2196 71.743 87.1856 71.779C87.1516 71.813 87.1346 71.868 87.1346 71.944V72.136C87.1346 72.156 87.1446 72.166 87.1646 72.166Z" fill="#263238"/>
<path d="M82.456 80H82.16C82.1387 80 82.1227 79.9933 82.112 79.98C82.104 79.9667 82.1053 79.9493 82.116 79.928L82.776 78.668L82.144 77.5C82.1333 77.4813 82.132 77.4653 82.14 77.452C82.1507 77.436 82.1667 77.428 82.188 77.428H82.472C82.5253 77.428 82.5627 77.4507 82.584 77.496L83.044 78.424H83.06L83.52 77.496C83.544 77.4507 83.5787 77.428 83.624 77.428H83.92C83.9413 77.428 83.956 77.436 83.964 77.452C83.9747 77.468 83.976 77.4853 83.968 77.504L83.328 78.668L83.988 79.924C83.9987 79.9453 84 79.964 83.992 79.98C83.984 79.9933 83.968 80 83.944 80H83.644C83.6013 80 83.5707 79.9787 83.552 79.936L83.06 78.96H83.044L82.552 79.936C82.5333 79.9787 82.5013 80 82.456 80ZM85.4415 80H84.9775C84.7801 80 84.6268 79.9453 84.5175 79.836C84.4108 79.7267 84.3575 79.5747 84.3575 79.38V78.048C84.3575 77.8507 84.4108 77.6987 84.5175 77.592C84.6268 77.4827 84.7801 77.428 84.9775 77.428H85.4415C85.6361 77.428 85.7881 77.4827 85.8975 77.592C86.0068 77.6987 86.0615 77.8507 86.0615 78.048V78.24C86.0615 78.288 86.0375 78.312 85.9895 78.312H85.7375C85.6921 78.312 85.6695 78.288 85.6695 78.24V78.064C85.6695 77.8667 85.5735 77.768 85.3815 77.768H85.0335C84.8415 77.768 84.7455 77.8667 84.7455 78.064V79.364C84.7455 79.5613 84.8415 79.66 85.0335 79.66H85.3815C85.5735 79.66 85.6695 79.5613 85.6695 79.364V79.188C85.6695 79.14 85.6921 79.116 85.7375 79.116H85.9895C86.0375 79.116 86.0615 79.14 86.0615 79.188V79.38C86.0615 79.5747 86.0068 79.7267 85.8975 79.836C85.7881 79.9453 85.6361 80 85.4415 80ZM86.6976 80H86.4096C86.3723 80 86.359 79.9773 86.3696 79.932L87.0656 77.496C87.079 77.4507 87.111 77.428 87.1616 77.428H87.5616C87.615 77.428 87.647 77.4507 87.6576 77.496L88.3536 79.932C88.3643 79.9773 88.3496 80 88.3096 80H88.0256C88.0016 80 87.9843 79.996 87.9736 79.988C87.9656 79.9773 87.959 79.9587 87.9536 79.932L87.8016 79.412H86.9216L86.7696 79.932C86.759 79.9773 86.735 80 86.6976 80ZM87.3536 77.812L87.0016 79.092H87.7256L87.3696 77.812H87.3536ZM89.561 78.64H89.313C89.2624 78.64 89.2197 78.6493 89.185 78.668C89.153 78.6867 89.1317 78.7067 89.121 78.728C89.0917 78.7893 89.0557 78.82 89.013 78.82H88.761C88.7157 78.82 88.693 78.7973 88.693 78.752V77.496C88.693 77.4507 88.7157 77.428 88.761 77.428H90.117C90.165 77.428 90.189 77.4507 90.189 77.496V77.724C90.189 77.7693 90.165 77.792 90.117 77.792H89.085V78.52C89.1304 78.3893 89.2424 78.324 89.421 78.324H89.657C89.849 78.324 89.9957 78.3747 90.097 78.476C90.1984 78.5747 90.249 78.7213 90.249 78.916V79.38C90.249 79.5747 90.1944 79.7267 90.085 79.836C89.9757 79.9453 89.8237 80 89.629 80H89.289C89.0917 80 88.9384 79.9453 88.829 79.836C88.7224 79.7267 88.669 79.5747 88.669 79.38V79.276C88.669 79.228 88.6917 79.204 88.737 79.204H88.989C89.0344 79.204 89.057 79.228 89.057 79.276V79.376C89.057 79.5707 89.153 79.668 89.345 79.668H89.573C89.7704 79.668 89.869 79.5707 89.869 79.376V78.972C89.869 78.852 89.845 78.7667 89.797 78.716C89.7517 78.6653 89.673 78.64 89.561 78.64ZM91.7693 79.168V77.752L90.9813 79.168H91.7693ZM92.0733 80H91.8373C91.792 80 91.7693 79.9773 91.7693 79.932V79.512H90.7133C90.636 79.512 90.5973 79.4733 90.5973 79.396V79.272C90.5973 79.2133 90.6093 79.1613 90.6333 79.116L91.5253 77.528C91.5466 77.488 91.5666 77.4613 91.5853 77.448C91.604 77.4347 91.632 77.428 91.6693 77.428H92.0213C92.0986 77.428 92.1373 77.4667 92.1373 77.544V79.168H92.4293C92.4746 79.168 92.4973 79.1907 92.4973 79.236V79.436C92.4973 79.4867 92.4746 79.512 92.4293 79.512H92.1373V79.932C92.1373 79.9773 92.116 80 92.0733 80ZM92.6901 78.056V77.82C92.6901 77.7773 92.7088 77.7453 92.7461 77.724L93.1621 77.472C93.2128 77.4427 93.2555 77.428 93.2901 77.428H93.5301C93.5755 77.428 93.5981 77.4507 93.5981 77.496V79.932C93.5981 79.9773 93.5768 80 93.5341 80H93.2741C93.2288 80 93.2061 79.9773 93.2061 79.932V77.844L92.7701 78.096C92.7168 78.12 92.6901 78.1067 92.6901 78.056ZM94.7947 79.66H95.1107C95.2094 79.66 95.2814 79.6373 95.3267 79.592C95.3747 79.5467 95.3987 79.4747 95.3987 79.376V79.16C95.3987 78.96 95.3027 78.86 95.1107 78.86H94.7947C94.6027 78.86 94.5067 78.96 94.5067 79.16V79.376C94.5067 79.4747 94.5294 79.5467 94.5747 79.592C94.6227 79.6373 94.6961 79.66 94.7947 79.66ZM94.7947 78.548H95.1107C95.3027 78.548 95.3987 78.448 95.3987 78.248V78.052C95.3987 77.9533 95.3747 77.8813 95.3267 77.836C95.2814 77.7907 95.2094 77.768 95.1107 77.768H94.7947C94.6961 77.768 94.6227 77.7907 94.5747 77.836C94.5294 77.8813 94.5067 77.9533 94.5067 78.052V78.248C94.5067 78.448 94.6027 78.548 94.7947 78.548ZM95.1667 80H94.7427C94.5454 80 94.3921 79.9493 94.2827 79.848C94.1734 79.7467 94.1187 79.5987 94.1187 79.404V79.188C94.1187 78.9427 94.2107 78.7827 94.3947 78.708C94.2107 78.6333 94.1187 78.472 94.1187 78.224V78.02C94.1187 77.828 94.1734 77.6813 94.2827 77.58C94.3921 77.4787 94.5454 77.428 94.7427 77.428H95.1667C95.3641 77.428 95.5161 77.4787 95.6227 77.58C95.7321 77.6813 95.7867 77.828 95.7867 78.02V78.224C95.7867 78.3467 95.7614 78.4507 95.7107 78.536C95.6627 78.6213 95.5974 78.6787 95.5147 78.708C95.6961 78.78 95.7867 78.9413 95.7867 79.192V79.404C95.7867 79.5987 95.7321 79.7467 95.6227 79.848C95.5161 79.9493 95.3641 80 95.1667 80ZM96.9035 78.548H97.1235C97.3209 78.548 97.4195 78.4507 97.4195 78.256V78.048C97.4195 77.856 97.3209 77.76 97.1235 77.76H96.8875C96.7889 77.76 96.7155 77.7827 96.6675 77.828C96.6222 77.8733 96.5995 77.9467 96.5995 78.048V78.164C96.5995 78.2093 96.5769 78.232 96.5315 78.232H96.2755C96.2302 78.232 96.2075 78.2093 96.2075 78.164V78.04C96.2075 77.8453 96.2622 77.6947 96.3715 77.588C96.4809 77.4813 96.6342 77.428 96.8315 77.428H97.1795C97.3769 77.428 97.5302 77.4813 97.6395 77.588C97.7489 77.6947 97.8035 77.8453 97.8035 78.04V78.26C97.8035 78.4947 97.6969 78.644 97.4835 78.708C97.6969 78.7587 97.8035 78.908 97.8035 79.156V79.388C97.8035 79.5827 97.7489 79.7333 97.6395 79.84C97.5302 79.9467 97.3769 80 97.1795 80H96.8315C96.6342 80 96.4809 79.9467 96.3715 79.84C96.2622 79.7333 96.2075 79.5827 96.2075 79.388V79.248C96.2075 79.2 96.2302 79.176 96.2755 79.176H96.5315C96.5769 79.176 96.5995 79.2 96.5995 79.248V79.38C96.5995 79.4787 96.6222 79.552 96.6675 79.6C96.7155 79.6453 96.7889 79.668 96.8875 79.668H97.1235C97.3209 79.668 97.4195 79.572 97.4195 79.38V79.16C97.4195 78.9653 97.3209 78.868 97.1235 78.868H96.9035C96.8582 78.868 96.8355 78.8453 96.8355 78.8V78.62C96.8355 78.572 96.8582 78.548 96.9035 78.548ZM98.6392 80H98.3632C98.3125 80 98.3005 79.9747 98.3272 79.924L99.1832 77.788H98.1752C98.1298 77.788 98.1072 77.764 98.1072 77.716V77.496C98.1072 77.4507 98.1298 77.428 98.1752 77.428H99.5312C99.5792 77.428 99.6032 77.4507 99.6032 77.496V77.744C99.6032 77.7867 99.5885 77.8427 99.5592 77.912L98.7512 79.936C98.7352 79.9787 98.6978 80 98.6392 80Z" fill="#263238"/>
</svg>
