<svg width="510" height="288" viewBox="0 0 510 288" fill="none" xmlns="http://www.w3.org/2000/svg">
<path d="M504.808 4.9519H329.347V282.957H504.808V4.9519Z" stroke="#263238" stroke-miterlimit="10"/>
<path opacity="0.6" d="M504.808 4.9519H329.347V282.957H504.808V4.9519Z" stroke="white" stroke-miterlimit="10"/>
<path d="M402.797 85.6697C402.797 85.6697 390.417 101.875 407.6 114.28L411.797 104.277C411.797 104.277 409.717 101.021 410.918 92.4168L402.797 85.6697Z" fill="#AD6359"/>
<path d="M436.706 61.3678C430.429 55.4254 421.181 58.8051 399.566 85.3974C399.566 85.3974 408.096 94.3357 413.32 97.0469C413.32 97.0469 431.89 81.4605 435.097 77.8208C438.303 74.1811 444.332 68.5729 436.706 61.3678Z" fill="#FBC02D"/>
<path opacity="0.1" d="M436.706 61.3678C430.429 55.4254 421.181 58.8051 399.566 85.3974C399.566 85.3974 408.096 94.3357 413.32 97.0469C413.32 97.0469 431.89 81.4605 435.097 77.8208C438.303 74.1811 444.332 68.5729 436.706 61.3678Z" fill="white"/>
<path d="M444.468 236.124L451.017 228.634L456.588 233.66L449.965 241.707L444.468 236.124Z" fill="#AD6359"/>
<path d="M451.45 241.348L444.79 235.071C444.648 234.972 444.476 234.926 444.304 234.942C444.131 234.958 443.97 235.034 443.849 235.158L436.594 241.026C436.291 241.224 436.062 241.519 435.946 241.862C435.829 242.205 435.831 242.578 435.951 242.92C435.997 242.988 436.051 243.05 436.112 243.106C438.253 245.037 439.962 246.3 442.599 248.788C444.22 250.324 448.9 255.176 451.153 257.293C453.406 259.41 456.638 256.563 455.981 255.412C453.047 250.262 451.599 245.582 451.847 242.673C451.892 242.436 451.879 242.192 451.81 241.962C451.741 241.731 451.618 241.521 451.45 241.348V241.348Z" fill="#263238"/>
<path d="M418.718 148.956C418.718 148.956 437.833 171.24 477.114 182.877C477.114 182.877 459.101 195.257 452.466 223.137L448.281 229.018C450.437 231.904 453.315 234.171 456.625 235.591L460.785 229.958C460.785 229.958 487.86 205.879 499.992 178.061C499.819 164.258 435.765 123.862 431.581 127.539C427.396 131.216 418.718 148.956 418.718 148.956Z" fill="#FBC02D"/>
<path opacity="0.5" d="M418.718 148.956C418.718 148.956 437.833 171.24 477.114 182.877C477.114 182.877 459.101 195.257 452.466 223.137L448.281 229.018C450.437 231.904 453.315 234.171 456.625 235.591L460.785 229.958C460.785 229.958 487.86 205.879 499.992 178.061C499.819 164.258 435.765 123.862 431.581 127.539C427.396 131.216 418.718 148.956 418.718 148.956Z" fill="black"/>
<path d="M340.55 263.05L345.601 253.691L351.804 257.702L347.805 265.44L340.55 263.05Z" fill="#AD6359"/>
<path d="M348.325 264.87L340.786 261.503C340.62 261.455 340.442 261.468 340.285 261.541C340.128 261.614 340.002 261.741 339.932 261.899L334.237 269.438C334.009 269.72 333.884 270.072 333.884 270.435C333.884 270.798 334.009 271.149 334.237 271.431C334.295 271.488 334.362 271.534 334.435 271.568C337.109 272.682 339.127 273.313 342.445 274.786C344.475 275.703 350.504 278.748 353.327 280.011C356.149 281.274 358.279 277.535 357.264 276.631C352.795 272.744 349.836 268.795 349.167 265.972C349.122 265.735 349.023 265.513 348.877 265.321C348.73 265.13 348.542 264.976 348.325 264.87V264.87Z" fill="#263238"/>
<path d="M406.127 198.216C399.937 211.141 355.592 254.459 355.592 254.459L351.371 259.819C348.116 259.014 345.189 257.224 342.989 254.694L346.505 248.962C365.991 203.317 387.508 194.391 387.508 194.391C390.058 148.275 395.394 144.388 401.126 125.929C412.453 122.909 431.581 127.539 431.581 127.539C431.581 127.539 425.923 164.716 406.127 198.216Z" fill="#FBC02D"/>
<path opacity="0.3" d="M406.127 198.216C399.937 211.141 355.592 254.459 355.592 254.459L351.371 259.819C348.116 259.014 345.189 257.224 342.989 254.694L346.505 248.962C365.991 203.317 387.508 194.391 387.508 194.391C390.058 148.275 395.394 144.388 401.126 125.929C412.453 122.909 431.581 127.539 431.581 127.539C431.581 127.539 425.923 164.716 406.127 198.216Z" fill="black"/>
<path d="M436.594 127.006C436.594 127.006 425.118 131.55 401.188 125.929C401.188 125.929 419.485 68.2262 423.323 60.0059C426.604 52.9741 452.416 52.9617 459.559 63.299C467.309 74.6762 446.498 119.937 436.594 127.006Z" fill="#FBC02D"/>
<path opacity="0.6" d="M436.594 127.006C436.594 127.006 425.118 131.55 401.188 125.929C401.188 125.929 419.485 68.2262 423.323 60.0059C426.604 52.9741 452.416 52.9617 459.559 63.299C467.309 74.6762 446.498 119.937 436.594 127.006Z" fill="white"/>
<path d="M473.511 120.569L479.701 121.646C479.701 121.646 486.213 119.306 487.798 119.43C489.383 119.554 496.464 123.849 496.464 123.849C496.464 123.849 497.826 126.078 497.628 126.66C497.43 127.242 487.402 132.577 485.532 132.491C483.663 132.404 479.578 128.603 478.959 128.121C478.34 127.638 468.25 124.134 468.25 124.134L473.511 120.569Z" fill="#AD6359"/>
<path d="M432.509 92.6891C432.509 92.6891 445.038 127.353 478.6 127.353L480.692 121.287C480.692 121.287 460.117 121.72 444.357 89.5322L432.509 92.6891Z" fill="#AD6359"/>
<path d="M424.994 56.2794C417.084 59.7706 416.626 69.6127 432.794 99.7952C432.794 99.7952 444.344 95.3879 448.888 91.612C448.888 91.612 441.683 68.5109 439.59 64.0912C437.498 59.6716 434.601 52.0455 424.994 56.2794Z" fill="#FBC02D"/>
<path opacity="0.4" d="M424.994 56.2794C417.084 59.7706 416.626 69.6127 432.794 99.7952C432.794 99.7952 444.344 95.3879 448.888 91.612C448.888 91.612 441.683 68.5109 439.59 64.0912C437.498 59.6716 434.601 52.0455 424.994 56.2794Z" fill="white"/>
<path d="M446.189 36.5952C445.756 42.29 444.084 52.5407 439.306 55.1652C440.457 57.2419 442.008 59.0701 443.87 60.5447C445.731 62.0192 447.866 63.1109 450.151 63.7569C457.034 65.8244 456.155 60.0429 456.155 60.0429C451.03 56.5765 451.859 52.194 454.075 48.2943L446.189 36.5952Z" fill="#AD6359"/>
<path opacity="0.2" d="M449.396 41.3369L454.063 48.2325C453.57 49.1621 453.156 50.1311 452.825 51.1295C450.621 50.1514 448.096 46.7098 448.517 44.2338C448.635 43.2236 448.932 42.2425 449.396 41.3369V41.3369Z" fill="black"/>
<path d="M456.402 23.9182C453.716 26.5551 455.759 29.8111 463.694 34.045C465.836 29.873 464.932 22.7173 462.456 21.3431C459.98 19.969 458.68 21.6526 456.402 23.9182Z" fill="#263238"/>
<path d="M444.245 32.0641C445.483 37.5113 446.177 41.3491 448.195 44.2832C448.965 45.3759 449.91 46.3338 450.993 47.1182C457.653 51.9464 466.331 46.9697 466.876 39.2074C466.876 38.9598 466.876 38.6998 466.876 38.4522C467.124 31.4451 464.177 21.1202 456.625 19.4984C454.903 19.1105 453.11 19.1681 451.416 19.6656C449.722 20.1631 448.183 21.0841 446.944 22.3417C445.705 23.5994 444.807 25.1521 444.335 26.8532C443.863 28.5543 443.832 30.3478 444.245 32.0641V32.0641Z" fill="#AD6359"/>
<path d="M455.771 32.2498C455.87 32.8565 456.279 33.3021 456.675 33.2279C457.071 33.1536 457.318 32.6212 457.207 31.9899C457.096 31.3585 456.712 30.9375 456.316 30.9994C455.92 31.0613 455.709 31.6432 455.771 32.2498Z" fill="#263238"/>
<path d="M462.704 31.0986C462.803 31.7176 463.211 32.1509 463.607 32.089C464.004 32.0271 464.251 31.47 464.152 30.851C464.053 30.232 463.645 29.7987 463.248 29.8606C462.852 29.9225 462.592 30.492 462.704 31.0986Z" fill="#263238"/>
<path d="M460.488 31.7671C461.528 33.5095 462.803 35.1008 464.276 36.4963C463.909 36.8626 463.466 37.1443 462.978 37.3218C462.491 37.4993 461.97 37.5682 461.453 37.5238L460.488 31.7671Z" fill="#9C4B40"/>
<path d="M453.518 30.3805C453.442 30.4051 453.359 30.4051 453.283 30.3805C453.197 30.3356 453.131 30.2585 453.101 30.1659C453.071 30.0732 453.079 29.9725 453.122 29.8853C453.375 29.3688 453.749 28.9211 454.213 28.5805C454.676 28.2399 455.215 28.0165 455.784 27.9293C455.829 27.9223 455.876 27.9245 455.921 27.9357C455.965 27.9469 456.007 27.9669 456.044 27.9946C456.081 28.0223 456.112 28.057 456.135 28.0968C456.159 28.1366 456.174 28.1807 456.18 28.2264C456.187 28.3211 456.158 28.4149 456.098 28.4885C456.038 28.5622 455.952 28.6102 455.858 28.6226V28.6226C455.41 28.7021 454.988 28.8858 454.624 29.159C454.261 29.4321 453.967 29.787 453.766 30.1948C453.739 30.2408 453.703 30.281 453.661 30.3129C453.618 30.3448 453.57 30.3678 453.518 30.3805V30.3805Z" fill="#263238"/>
<path d="M465.477 28.2388C465.407 28.2506 465.336 28.243 465.27 28.2168C465.205 28.1905 465.148 28.1468 465.106 28.0902C464.849 27.7204 464.509 27.4159 464.114 27.2009C463.718 26.9859 463.278 26.8665 462.828 26.8522C462.731 26.8557 462.637 26.8214 462.566 26.7567C462.494 26.692 462.45 26.6019 462.444 26.5056C462.443 26.4099 462.479 26.3176 462.543 26.2466C462.607 26.1756 462.695 26.1311 462.79 26.1218C463.366 26.1442 463.929 26.3001 464.433 26.5773C464.938 26.8545 465.372 27.2453 465.7 27.7189C465.755 27.7968 465.778 27.893 465.764 27.9875C465.751 28.082 465.701 28.1676 465.626 28.2264V28.2264L465.477 28.2388Z" fill="#263238"/>
<path d="M448.306 20.3279C452.02 20.9469 450.027 29.3901 445.954 37.3999C441.819 35.221 438.377 28.8701 439.702 26.2579C441.026 23.6457 445.075 19.7956 448.306 20.3279Z" fill="#263238"/>
<path d="M441.67 38.6503C442.494 40.3841 443.972 41.7199 445.781 42.3643C448.182 43.1938 449.495 41.1263 448.987 38.737C448.504 36.6324 446.659 33.6612 444.208 33.785C443.661 33.8265 443.133 34.0069 442.674 34.3092C442.215 34.6114 441.842 35.0256 441.588 35.5126C441.334 35.9995 441.208 36.5431 441.222 37.0922C441.237 37.6412 441.391 38.1774 441.67 38.6503V38.6503Z" fill="#AD6359"/>
<path d="M456.068 39.8018C456.745 40.5042 457.601 41.0082 458.544 41.2592C459.487 41.5101 460.48 41.4984 461.416 41.2254" stroke="#263238" stroke-width="0.526291" stroke-linecap="round" stroke-linejoin="round"/>
<path d="M464.054 17.852C463.335 19.2385 462.345 21.1698 457.789 22.0117C453.233 22.8535 448.95 21.0336 447.563 22.3583C446.177 23.683 444.84 27.8303 444.84 27.8303L439.752 26.877C439.261 25.6762 439.126 24.3595 439.363 23.0841C439.6 21.8087 440.199 20.6284 441.089 19.6842C447.477 12.4914 460.389 17.592 462.518 8.75269C462.518 8.75269 465.849 14.3113 464.054 17.852Z" fill="#263238"/>
<path d="M454.769 14.596C454.769 14.596 459.052 12.5285 459.015 9.75537C459.506 10.3386 459.781 11.0739 459.792 11.8365C459.804 12.5992 459.551 13.3423 459.077 13.9398C457.368 15.9949 454.769 14.596 454.769 14.596Z" fill="#263238"/>
<path d="M460.637 21.1821C462.073 20.5259 469.092 14.9921 464.747 9.40869" stroke="#263238" stroke-width="0.25" stroke-miterlimit="10"/>
<path d="M509.76 278.005H499.856V287.909H509.76V278.005Z" fill="#FBC02D"/>
<path d="M334.299 278.005H324.395V287.909H334.299V278.005Z" fill="#FBC02D"/>
<path d="M422.036 278.005H412.132V287.909H422.036V278.005Z" fill="#FBC02D"/>
<path d="M509.76 0H499.856V9.90401H509.76V0Z" fill="#FBC02D"/>
<path d="M334.299 0H324.395V9.90401H334.299V0Z" fill="#FBC02D"/>
<path d="M509.76 139.003H499.856V148.907H509.76V139.003Z" fill="#FBC02D"/>
<path d="M334.299 139.003H324.395V148.907H334.299V139.003Z" fill="#FBC02D"/>
<path d="M422.036 0H412.132V9.90401H422.036V0Z" fill="#FBC02D"/>
<g opacity="0.2">
<path opacity="0.2" d="M509.76 278.005H499.856V287.909H509.76V278.005Z" fill="white"/>
<path opacity="0.2" d="M334.299 278.005H324.395V287.909H334.299V278.005Z" fill="white"/>
<path opacity="0.2" d="M422.036 278.005H412.132V287.909H422.036V278.005Z" fill="white"/>
<path opacity="0.2" d="M509.76 0H499.856V9.90401H509.76V0Z" fill="white"/>
<path opacity="0.2" d="M334.299 0H324.395V9.90401H334.299V0Z" fill="white"/>
<path opacity="0.2" d="M509.76 139.003H499.856V148.907H509.76V139.003Z" fill="white"/>
<path opacity="0.2" d="M334.299 139.003H324.395V148.907H334.299V139.003Z" fill="white"/>
<path opacity="0.2" d="M422.036 0H412.132V9.90401H422.036V0Z" fill="white"/>
</g>
<path d="M317.746 150.404C317.746 150.404 312.62 144.87 311.271 144.363C309.922 143.855 303.67 144.264 303.67 144.264C282.822 132.8 286.721 118.266 288.578 113.834L291.166 114.156L293.902 97.7893C300.76 84.7284 305.428 71.0732 301.491 65.3784C299.403 62.7654 296.697 60.7145 293.617 59.4112V59.4112C289.235 56.9352 289.111 53.7784 290.312 50.6215C290.448 50.2748 290.596 49.9406 290.745 49.5939C290.893 49.2473 290.968 49.1235 291.092 48.9006V48.814C293.434 49.5914 295.976 49.5215 298.272 48.6164C300.569 47.7114 302.475 46.0287 303.657 43.862C303.781 43.6515 303.892 43.4163 304.004 43.1935C305.555 40.0376 306.479 36.6113 306.727 33.1037C306.748 33.1544 306.78 33.1997 306.821 33.2362C306.861 33.2727 306.91 33.2994 306.963 33.3142H307.124C307.17 33.3053 307.214 33.2873 307.254 33.2614C307.293 33.2354 307.327 33.2019 307.353 33.1628C307.38 33.1237 307.398 33.0798 307.408 33.0335C307.417 32.9873 307.417 32.9396 307.408 32.8933C307.331 32.4566 307.176 32.0373 306.95 31.6553C307.78 29.2536 307.916 26.9137 307.025 25.75C306.766 25.3892 306.448 25.0752 306.084 24.8215C307.105 24.7883 308.101 24.4988 308.981 23.9797C311.865 22.8284 315.171 20.3771 314.155 15.8584L312.385 17.6906C312.489 16.5747 312.489 15.4516 312.385 14.3357C311.874 15.0287 311.23 15.6125 310.49 16.0526C309.75 16.4928 308.93 16.7803 308.077 16.8983C308.429 16.4692 308.677 15.9637 308.799 15.422C308.922 14.8804 308.916 14.3176 308.783 13.7786C307.668 16.2546 303.038 16.4031 302.914 16.4031C298.359 15.3013 293.221 13.1843 288.343 15.3261C287.202 15.7924 286.209 16.561 285.472 17.549C284.735 18.5371 284.281 19.7074 284.159 20.9342C282.735 22.3331 282.537 26.0224 283.453 29.365C282.713 29.5761 282.066 30.0307 281.617 30.6553C281.167 31.28 280.942 32.038 280.977 32.8066C281.009 34.7215 281.797 36.546 283.168 37.8824L283.478 38.1548C282.859 43.9858 281.076 52.4784 276.768 54.7811L276.83 54.9049C271.432 54.3107 266.455 54.6078 263.311 56.0191C263.311 56.0191 253.518 55.462 230.491 80.7791C230.491 80.7791 230.764 81.3857 231.259 82.3266C225.205 89.2842 209.346 109.934 209.792 134.706C209.433 135.387 206.363 139.931 206.561 141.738C206.759 143.546 213.444 152.447 213.989 152.558C214.534 152.67 216.527 150.998 216.527 150.998C216.527 150.998 219.609 143.447 219.486 141.899C219.362 140.352 216.118 134.397 216.118 134.397V134.038C216.205 131.413 217.567 114.081 238.179 91.9459C238.678 92.4055 239.217 92.8198 239.789 93.1839C239.789 93.1839 245.583 89.7794 251.599 86.0406C245.347 104.388 237.845 125.434 237.845 125.434C233.797 138.458 242.735 151.135 257.492 167.885C260.752 175.019 264.406 181.967 268.436 188.696C251.5 190.067 235.214 195.827 221.182 205.409L214.125 206.907C214.053 207.515 214.015 208.126 214.014 208.739L207.452 209.457V208.962C207.41 208.795 207.312 208.648 207.175 208.544C207.038 208.44 206.869 208.387 206.697 208.392L197.412 207.835C197.055 207.776 196.688 207.84 196.372 208.015C196.055 208.19 195.806 208.467 195.667 208.801C195.654 208.883 195.654 208.966 195.667 209.048C195.939 211.92 196.335 214 196.607 217.615C196.768 219.844 196.917 226.591 197.14 229.673C197.363 232.756 201.671 232.843 201.98 231.555C203.305 225.774 205.397 221.354 207.551 219.373C207.737 219.227 207.886 219.038 207.985 218.823C208.084 218.608 208.131 218.372 208.121 218.135V217.256L215.413 216.229C215.561 216.625 215.734 217.033 215.92 217.467L222.791 216.13C222.791 216.13 246.734 216.897 267.074 207.327C259.733 219.163 251.29 236.185 249.866 253.703L247.514 259.992C247.514 259.992 247.972 260.363 248.752 260.871L246.598 268.596H246.103C245.806 268.596 245.546 268.893 245.484 269.302L243.354 278.525C243.269 278.877 243.305 279.248 243.458 279.576C243.611 279.905 243.872 280.171 244.196 280.332C244.274 280.345 244.353 280.345 244.431 280.332C247.316 280.258 249.383 280.01 253.097 280.01C255.338 280.01 262.073 280.345 265.168 280.345C268.263 280.345 268.647 276.049 267.384 275.653C261.726 273.919 257.48 271.505 255.648 269.215C255.506 269.017 255.321 268.855 255.106 268.741C254.891 268.628 254.653 268.565 254.41 268.559L255.747 263.359C256.077 263.378 256.407 263.378 256.737 263.359L259.869 257.293C259.869 257.293 295.202 206.362 298.841 192.509C300.81 184.994 291.686 166.374 282.921 150.899C279.702 137.851 275.493 127.068 273.103 127.018H271.717C272.794 126.734 273.339 126.523 273.339 126.523C273.962 126.069 274.554 125.573 275.109 125.038C275.592 139.398 294.174 146.74 299.559 148.56C300.244 148.881 300.891 149.275 301.491 149.736C301.912 150.305 304.524 154.688 306.121 155.195C307.718 155.703 317.783 153.611 318.105 153.153C318.427 152.695 317.746 150.404 317.746 150.404Z" fill="white"/>
<g opacity="0.6">
<path opacity="0.6" d="M298.569 141.788L303.633 144.264C303.633 144.264 309.823 143.868 311.234 144.363C312.645 144.858 317.709 150.405 317.709 150.405C317.709 150.405 318.34 152.682 318.018 153.141C317.696 153.599 307.631 155.716 306.034 155.183C304.437 154.651 301.825 150.293 301.404 149.724C300.983 149.154 292.082 144.772 292.082 144.772L298.569 141.788Z" fill="#AD6359"/>
<path opacity="0.6" d="M216.23 128.232L216.118 134.323C216.118 134.323 219.362 140.278 219.486 141.825C219.609 143.373 216.527 150.925 216.527 150.925C216.527 150.925 214.583 152.584 213.989 152.484C213.395 152.385 206.71 143.484 206.561 141.664C206.412 139.844 209.433 135.313 209.792 134.632C210.151 133.952 212.033 123.664 212.033 123.664L216.23 128.232Z" fill="#AD6359"/>
<path opacity="0.6" d="M233.562 79.7271C233.562 79.7271 209.248 104.041 209.792 134.632L216.168 134.323C216.168 134.323 215.797 114.762 240.408 89.6063L233.562 79.7271Z" fill="#AD6359"/>
<path opacity="0.6" d="M289.198 112.447C289.198 112.447 278.662 130.535 303.633 144.264L300.934 148.956C300.934 148.956 268.845 139.857 276.038 118.241C276.496 116.892 285.484 109.253 285.484 109.253L289.198 112.447Z" fill="#AD6359"/>
<path opacity="0.6" d="M206.536 209.556L216.44 208.479L217.146 215.944L206.808 217.393L206.536 209.556Z" fill="#AD6359"/>
<path opacity="0.6" d="M279.987 112.744L291.129 114.156L295.586 87.415L279.987 112.744Z" fill="#FBC02D"/>
<path opacity="0.1" d="M279.987 112.744L291.129 114.156L295.586 87.415L279.987 112.744Z" fill="white"/>
<path opacity="0.6" d="M208.121 218.098L207.465 208.962C207.422 208.795 207.324 208.648 207.187 208.544C207.05 208.441 206.881 208.387 206.709 208.392L197.424 207.835C197.067 207.777 196.701 207.84 196.384 208.015C196.067 208.19 195.819 208.467 195.679 208.801C195.666 208.883 195.666 208.967 195.679 209.049C195.951 211.921 196.347 214.001 196.62 217.616C196.781 219.844 196.929 226.591 197.152 229.674C197.375 232.756 201.683 232.843 201.993 231.555C203.317 225.774 205.409 221.354 207.564 219.374C207.753 219.222 207.902 219.027 207.999 218.805C208.096 218.582 208.138 218.34 208.121 218.098V218.098Z" fill="#263238"/>
<path opacity="0.6" d="M246.338 269.228L249.185 258.99L256.13 261.527L253.952 269.958L246.338 269.228Z" fill="#AD6359"/>
<path opacity="0.6" d="M244.147 125.744C244.147 125.744 247.39 153.475 268.436 188.696C251.5 190.068 235.214 195.828 221.182 205.409L214.125 206.907C213.759 210.491 214.344 214.107 215.821 217.393L222.692 216.056C222.692 216.056 264.227 217.393 284.357 194.7C293.568 184.412 278.551 127.155 272.98 127.031C267.409 126.907 244.147 125.744 244.147 125.744Z" fill="#FBC02D"/>
<path opacity="0.5" d="M244.147 125.744C244.147 125.744 247.39 153.475 268.436 188.696C251.5 190.068 235.214 195.828 221.182 205.409L214.125 206.907C213.759 210.491 214.344 214.107 215.821 217.393L222.692 216.056C222.692 216.056 264.227 217.393 284.357 194.7C293.568 184.412 278.551 127.155 272.98 127.031C267.409 126.907 244.147 125.744 244.147 125.744Z" fill="black"/>
<path opacity="0.6" d="M237.845 125.434C232.113 143.88 252.404 161.596 278.414 191.234C278.414 191.234 252.416 221.639 249.804 253.629L247.452 259.918C250.091 261.986 253.302 263.192 256.65 263.372L259.782 257.306C259.782 257.306 295.115 206.374 298.755 192.521C302.394 178.668 268.3 127.031 268.3 127.031C268.3 127.031 249.16 122.401 237.845 125.434Z" fill="#FBC02D"/>
<path opacity="0.3" d="M237.845 125.434C232.113 143.88 252.404 161.596 278.414 191.234C278.414 191.234 252.416 221.639 249.804 253.629L247.452 259.918C250.091 261.986 253.302 263.192 256.65 263.372L259.782 257.306C259.782 257.306 295.115 206.374 298.755 192.521C302.394 178.668 268.3 127.031 268.3 127.031C268.3 127.031 249.16 122.401 237.845 125.434Z" fill="black"/>
<path opacity="0.6" d="M273.252 126.499C273.252 126.499 261.763 131.054 237.845 125.434C237.845 125.434 258.235 68.3993 259.968 59.4981C261.801 50.1883 294.31 55.0413 301.454 65.3786C309.265 76.6939 283.156 119.442 273.252 126.499Z" fill="#FBC02D"/>
<path opacity="0.6" d="M273.252 126.499C273.252 126.499 261.763 131.054 237.845 125.434C237.845 125.434 258.235 68.3993 259.968 59.4981C261.801 50.1883 294.31 55.0413 301.454 65.3786C309.265 76.6939 283.156 119.442 273.252 126.499Z" fill="white"/>
<path opacity="0.6" d="M263.274 55.9329C263.274 55.9329 253.481 55.3758 230.454 80.6929C230.454 80.6929 234.738 90.0645 239.801 93.0728C239.801 93.0728 260.996 80.631 264.45 77.177C267.904 73.7229 274.094 60.7116 263.274 55.9329Z" fill="#FBC02D"/>
<path opacity="0.4" d="M263.274 55.9329C263.274 55.9329 253.481 55.3758 230.454 80.6929C230.454 80.6929 234.738 90.0645 239.801 93.0728C239.801 93.0728 260.996 80.631 264.45 77.177C267.904 73.7229 274.094 60.7116 263.274 55.9329Z" fill="white"/>
<path opacity="0.6" d="M254.298 268.522H246.041C245.743 268.522 245.483 268.819 245.422 269.228L243.292 278.451C243.207 278.803 243.243 279.174 243.396 279.502C243.549 279.831 243.809 280.097 244.134 280.259C244.212 280.271 244.291 280.271 244.369 280.259C247.254 280.184 249.321 279.937 253.035 279.937C255.276 279.937 262.011 280.271 265.106 280.271C268.201 280.271 268.585 275.975 267.322 275.579C261.664 273.846 257.418 271.432 255.586 269.141C255.437 268.941 255.242 268.781 255.018 268.673C254.794 268.565 254.547 268.513 254.298 268.522V268.522Z" fill="#263238"/>
<path opacity="0.6" d="M283.651 36.2981C283.218 41.9929 281.546 52.1816 276.768 54.7443C277.911 56.8355 279.458 58.6787 281.32 60.1664C283.182 61.6541 285.321 62.7568 287.612 63.4103C294.496 65.4777 293.567 59.3868 293.567 59.3868C287.934 56.2794 289.333 51.8474 291.537 47.9477L283.651 36.2981Z" fill="#AD6359"/>
<path opacity="0.2" d="M286.87 41.0024L291.525 47.8981C291 48.8079 290.553 49.7604 290.188 50.7455C287.972 49.7798 285.521 46.3754 285.942 43.8994C286.064 42.8834 286.379 41.9001 286.87 41.0024V41.0024Z" fill="black"/>
<path opacity="0.6" d="M300.414 25.4903C296.885 26.7283 297.38 30.5785 302.89 37.7341C306.604 34.8496 308.795 27.9911 307.037 25.676C305.279 23.361 303.533 24.3761 300.414 25.4903Z" fill="#263238"/>
<path opacity="0.6" d="M286.065 27.8176C284.926 33.302 283.948 37.0779 284.555 40.5814C284.802 41.8857 285.262 43.1404 285.917 44.2954C289.953 51.4635 299.918 50.5597 303.645 43.726C303.769 43.5155 303.88 43.2803 303.991 43.0574C307.136 36.7932 308.745 26.2454 302.58 21.5534C301.182 20.4741 299.531 19.7696 297.785 19.5067C296.038 19.2438 294.253 19.4312 292.6 20.0511C290.946 20.671 289.477 21.7029 288.334 23.049C287.19 24.3952 286.409 26.011 286.065 27.7434V27.8176Z" fill="#AD6359"/>
<path opacity="0.6" d="M296.464 32.7947C296.303 33.4013 296.464 34.0327 296.873 34.0327C297.282 34.0327 297.702 33.7479 297.876 33.1537C298.049 32.5594 297.876 31.99 297.467 31.9157C297.059 31.8414 296.7 32.2252 296.464 32.7947Z" fill="#263238"/>
<path opacity="0.6" d="M303.236 34.6514C303.075 35.2457 303.236 35.8152 303.657 35.8894C304.078 35.9637 304.499 35.6047 304.66 34.9981C304.821 34.3915 304.66 33.822 304.239 33.7601C303.818 33.6982 303.397 34.0572 303.236 34.6514Z" fill="#263238"/>
<path opacity="0.6" d="M300.958 34.3296C301.171 36.348 301.662 38.3271 302.419 40.2101C301.932 40.3903 301.411 40.4615 300.894 40.4187C300.376 40.3759 299.874 40.2202 299.423 39.9625L300.958 34.3296Z" fill="#D58745"/>
<path opacity="0.6" d="M295.189 30.108C295.109 30.0933 295.036 30.0544 294.979 29.9966C294.949 29.9593 294.927 29.9165 294.914 29.8708C294.901 29.825 294.898 29.7771 294.904 29.7298C294.909 29.6826 294.924 29.637 294.948 29.5956C294.971 29.5543 295.003 29.518 295.041 29.489C295.487 29.1235 296.015 28.8717 296.58 28.7553C297.145 28.6388 297.73 28.6612 298.284 28.8205C298.329 28.8317 298.371 28.8521 298.408 28.8805C298.445 28.9089 298.475 28.9446 298.497 28.9853C298.519 29.0261 298.533 29.071 298.537 29.1172C298.54 29.1634 298.535 29.2099 298.519 29.2538C298.504 29.2986 298.48 29.3399 298.449 29.3754C298.417 29.4109 298.379 29.4398 298.337 29.4605C298.294 29.4812 298.248 29.4933 298.201 29.4961C298.153 29.4988 298.106 29.4922 298.061 29.4766V29.4766C297.609 29.363 297.136 29.3611 296.683 29.4711C296.231 29.5811 295.811 29.7997 295.462 30.108C295.374 30.1402 295.277 30.1402 295.189 30.108V30.108Z" fill="#263238"/>
<path opacity="0.6" d="M306.95 33.2032C306.884 33.1853 306.825 33.1491 306.779 33.0987C306.733 33.0482 306.702 32.9857 306.69 32.9184C306.618 32.4684 306.44 32.0419 306.171 31.6739C305.902 31.3059 305.55 31.0069 305.143 30.8014C305.055 30.7608 304.986 30.6884 304.949 30.5989C304.912 30.5094 304.911 30.4093 304.945 30.3186C304.978 30.2388 305.039 30.1735 305.116 30.1348C305.193 30.0962 305.282 30.0867 305.366 30.1082C305.88 30.3679 306.326 30.7436 306.67 31.2055C307.014 31.6675 307.245 32.203 307.346 32.7699C307.355 32.8162 307.355 32.8638 307.346 32.9101C307.336 32.9563 307.318 33.0003 307.291 33.0394C307.265 33.0785 307.231 33.1119 307.192 33.1379C307.152 33.1639 307.108 33.1819 307.062 33.1908H306.901L306.95 33.2032Z" fill="#263238"/>
<path opacity="0.6" d="M294.657 18.8546C297.764 20.9592 292.429 27.8053 285.397 33.3887C282.537 29.6747 282.067 22.4696 284.345 20.6745C286.622 18.8794 291.946 17.0224 294.657 18.8546Z" fill="#263238"/>
<path opacity="0.6" d="M280.977 32.7327C281.009 34.6475 281.797 36.4721 283.168 37.8085C285.001 39.5664 287.105 38.2046 287.588 35.8524C288.034 33.7354 287.588 30.269 285.285 29.4148C284.776 29.2324 284.228 29.181 283.694 29.2652C283.159 29.3495 282.654 29.5667 282.225 29.897C281.796 30.2273 281.457 30.66 281.239 31.1555C281.021 31.651 280.931 32.1933 280.977 32.7327V32.7327Z" fill="#AD6359"/>
<path opacity="0.6" d="M293.58 39.7893C293.901 40.7121 294.469 41.529 295.222 42.1512C295.975 42.7734 296.884 43.1768 297.851 43.3176" stroke="#263238" stroke-width="0.526291" stroke-linecap="round" stroke-linejoin="round"/>
<path opacity="0.6" d="M309.996 23.163C308.758 24.141 307.062 25.4781 302.568 24.401C298.074 23.3239 294.942 19.8204 293.134 20.4518C291.327 21.0832 288.368 24.2896 288.368 24.2896L284.146 21.2936C284.202 19.9986 284.629 18.7468 285.375 17.6869C286.121 16.6269 287.155 15.8034 288.356 15.3141C297.17 11.4515 306.777 21.5041 312.398 14.3237C312.398 14.2618 313.103 20.7118 309.996 23.163Z" fill="#263238"/>
<path opacity="0.6" d="M302.89 16.3291C302.89 16.3291 307.644 16.2425 308.77 13.7046C308.972 14.4404 308.914 15.223 308.608 15.9215C308.301 16.6201 307.764 17.1923 307.086 17.5424C304.685 18.6937 302.89 16.3291 302.89 16.3291Z" fill="#263238"/>
<path opacity="0.6" d="M305.502 24.7723C307.087 24.7723 315.765 22.6925 314.168 15.7844" stroke="#263238" stroke-width="0.25" stroke-miterlimit="10"/>
</g>
<path d="M211.278 84.3079C210.969 83.8374 208.629 83.5279 208.629 83.5279C208.629 83.5279 201.548 86.1153 200.557 87.1553C199.567 88.1952 197.512 94.1252 197.512 94.1252L195.184 96.2051C184.624 104.772 175.995 102.853 169.855 98.9534L170.461 97.2573C164.233 91.8183 159.915 84.5235 158.143 76.4466V76.4466C157.994 75.4636 157.63 74.5254 157.079 73.6982C155.11 70.8508 150.963 68.2015 145.937 66.0474C145.941 65.9773 145.941 65.907 145.937 65.8369C141.542 63.4228 141.43 60.204 142.631 57.0471C142.767 56.7005 142.904 56.3662 143.065 56.0319C143.225 55.6977 143.287 55.5615 143.399 55.3263L143.622 54.9177C146.112 55.4301 148.703 55.0193 150.913 53.7619C153.122 52.5046 154.799 50.4865 155.63 48.084C155.718 47.8489 155.792 47.6092 155.853 47.3659C156.882 44.0019 157.252 40.4709 156.943 36.9667C156.971 37.0122 157.009 37.0512 157.054 37.0811C157.099 37.1109 157.149 37.131 157.203 37.1401C157.251 37.1521 157.302 37.1521 157.351 37.1401C157.439 37.1067 157.511 37.0399 157.55 36.9542C157.59 36.8685 157.594 36.7707 157.562 36.682C157.419 36.2736 157.2 35.8956 156.918 35.5678C157.351 33.0918 157.116 30.7396 156.039 29.7244C155.733 29.4158 155.377 29.1606 154.986 28.9693C155.99 28.7791 156.926 28.3263 157.698 27.657C160.359 26.06 163.269 23.1135 161.498 18.8177L160.05 20.9099C159.981 19.7909 159.811 18.6804 159.542 17.592C159.149 18.3594 158.606 19.0399 157.944 19.5929C157.283 20.1459 156.517 20.5601 155.692 20.8108C155.971 20.3326 156.134 19.7959 156.168 19.2435C156.202 18.6911 156.107 18.1383 155.89 17.6292C155.197 20.2785 150.641 21.1327 150.517 21.1575C145.838 20.7985 140.44 19.5233 135.958 22.3955C134.907 23.0354 134.051 23.9501 133.482 25.041C132.912 26.1318 132.651 27.3573 132.727 28.5855C131.489 30.1949 131.935 33.8717 133.383 37.0286C132.681 37.3477 132.109 37.8974 131.762 38.5865C131.415 39.2757 131.315 40.0627 131.477 40.8169C131.641 41.7521 131.988 42.6457 132.497 43.4466C133.007 44.2474 133.67 44.9399 134.448 45.4842C134.818 45.7434 135.241 45.9168 135.686 45.9918C134.931 51.6866 133.111 59.0651 129.149 61.182V61.3306C123.838 60.5383 119.01 60.5383 115.878 61.603L115.606 61.3801C115.606 61.3801 106.259 58.4337 77.6981 77.3255C77.6981 77.3255 77.8219 77.9693 78.0695 79.0092C70.493 84.2707 50.0412 100.377 44.3836 124.506C43.8636 125.075 39.7658 128.727 39.5182 130.535C39.2706 132.342 43.5541 142.593 44.1112 142.915C44.6683 143.237 46.9586 142.036 46.9586 142.036C46.9586 142.036 51.7992 135.462 52.0592 133.927C52.3191 132.392 50.6355 125.83 50.6355 125.83L50.7221 125.484C51.4525 123.008 57.0235 106.505 82.4644 90.1265C82.8346 90.675 83.2486 91.1925 83.7024 91.674C83.7024 91.674 97.9394 87.5391 106.259 84.5307C100.304 102.346 91.9351 125.88 90.3876 130.225C88.1716 133.679 87.4041 139.746 89.3972 149.86C87.9735 163.292 85.5594 179.151 78.1191 191.556C78.1191 191.556 62.8545 181.268 34.1824 180.253L27.5963 177.306C27.1821 177.759 26.7935 178.234 26.4326 178.73L20.7006 175.449L20.9606 175.041C21.0303 174.881 21.0411 174.701 20.9913 174.533C20.9415 174.366 20.8342 174.221 20.6882 174.125L13.5202 168.22C13.2673 167.959 12.9333 167.793 12.5733 167.748C12.2132 167.703 11.8486 167.782 11.5394 167.972C11.4764 168.025 11.4221 168.088 11.3785 168.158C9.90525 170.634 9.0139 172.565 7.095 175.586C5.857 177.492 2.06871 183.014 0.434554 185.651C-1.19961 188.288 2.22966 190.887 3.23244 190.021C7.70162 186.133 12.0099 183.831 14.9068 183.459C15.1543 183.448 15.3958 183.379 15.6111 183.256C15.8264 183.133 16.0093 182.961 16.1448 182.754L16.6152 182.011L23.1147 185.477C23.0074 185.89 22.9084 186.303 22.8176 186.715L29.1562 189.686C29.1562 189.686 61.9508 215.214 91.5885 208.714C97.3328 207.476 104.786 193.858 111.099 178.421C120.475 186.15 130.369 193.227 140.712 199.603C140.712 199.603 138.125 222.753 168.654 261.874L171.984 267.718C172.606 267.589 173.218 267.42 173.816 267.21L177.295 272.62L176.874 272.942C176.757 273.067 176.686 273.228 176.672 273.399C176.659 273.57 176.704 273.741 176.8 273.883L180.663 282.549C180.802 282.885 181.053 283.162 181.373 283.334C181.694 283.505 182.064 283.56 182.421 283.49C182.497 283.465 182.568 283.427 182.631 283.378C184.897 281.583 186.419 280.122 189.316 277.931C191.099 276.594 196.682 272.793 199.146 270.936C201.61 269.079 199.344 265.403 198.106 265.848C192.535 267.879 187.682 268.522 184.847 267.78C184.617 267.706 184.372 267.687 184.133 267.726C183.894 267.765 183.668 267.86 183.473 268.002L183.312 268.126L180.118 263.347L180.526 262.902L177.852 256.576C177.852 256.576 161.362 196.817 153.092 185.155C144.142 169.922 134.07 155.377 122.959 141.64C123.876 137.319 124.272 134.063 123.962 132.466C124.503 132.335 125.036 132.174 125.559 131.983C129.855 126.301 141.48 112.46 149.638 99.3372C154.665 108.201 164.234 114.787 164.234 114.787L165.076 112.41C183.844 121.076 197.512 103.286 200.297 99.2505C200.718 98.8816 201.179 98.5617 201.671 98.2973C202.365 98.1239 207.379 97.4059 208.493 96.1431C209.607 94.8804 211.588 84.7783 211.278 84.3079Z" fill="white"/>
<g opacity="0.3">
<path opacity="0.3" d="M19.8959 174.954L28.5371 179.906L24.7117 186.344L15.501 181.441L19.8959 174.954Z" fill="#AD6359"/>
<path opacity="0.3" d="M16.1449 182.778L20.9855 175.016C21.0552 174.856 21.066 174.676 21.0162 174.508C20.9664 174.341 20.8591 174.196 20.7131 174.1L13.5451 168.195C13.2922 167.935 12.9582 167.768 12.5982 167.723C12.2381 167.678 11.8735 167.757 11.5643 167.947C11.5013 168 11.447 168.063 11.4034 168.133C9.93016 170.609 9.0388 172.54 7.1199 175.561C5.8819 177.467 2.09362 182.989 0.459457 185.626C-1.1747 188.263 2.25456 190.862 3.25734 189.996C7.72652 186.109 12.0348 183.806 14.9317 183.434C15.1707 183.425 15.4044 183.362 15.6148 183.248C15.8251 183.134 16.0065 182.973 16.1449 182.778V182.778Z" fill="#263238"/>
<path opacity="0.3" d="M91.1923 132.714C89.1372 147.062 89.1372 173.11 78.0943 191.531C78.0943 191.531 62.8297 181.243 34.1577 180.228L27.5715 177.282C25.159 179.962 23.5014 183.234 22.7681 186.765L29.1066 189.736C29.1066 189.736 61.9012 215.264 91.539 208.764C105.033 205.867 127.887 134.88 123.455 131.5C119.023 128.121 99.3012 129.817 91.1923 132.714Z" fill="#FBC02D"/>
<path opacity="0.5" d="M91.1923 132.714C89.1372 147.062 89.1372 173.11 78.0943 191.531C78.0943 191.531 62.8297 181.243 34.1577 180.228L27.5715 177.282C25.159 179.962 23.5014 183.234 22.7681 186.765L29.1066 189.736C29.1066 189.736 61.9012 215.264 91.539 208.764C105.033 205.867 127.887 134.88 123.455 131.5C119.023 128.121 99.3012 129.817 91.1923 132.714Z" fill="black"/>
<path opacity="0.3" d="M178.137 273.895L172.393 264.944L178.905 261.466L183.746 268.695L178.137 273.895Z" fill="#AD6359"/>
<path opacity="0.3" d="M183.498 267.965L176.899 272.917C176.782 273.042 176.711 273.204 176.697 273.375C176.684 273.546 176.729 273.716 176.825 273.858L180.688 282.524C180.827 282.86 181.078 283.137 181.398 283.309C181.719 283.48 182.089 283.536 182.446 283.465C182.522 283.44 182.593 283.403 182.656 283.354C184.922 281.558 186.444 280.098 189.341 277.906C191.124 276.569 196.707 272.769 199.171 270.912C201.635 269.055 199.369 265.378 198.131 265.824C192.56 267.854 187.707 268.498 184.872 267.755C184.643 267.679 184.399 267.659 184.16 267.696C183.921 267.732 183.694 267.825 183.498 267.965V267.965Z" fill="#263238"/>
<path opacity="0.3" d="M153.093 185.155C161.412 196.817 177.853 256.575 177.853 256.575L180.502 262.865C178.219 265.319 175.237 267.013 171.96 267.717L168.63 261.874C138.1 222.753 140.688 199.603 140.688 199.603C101.567 175.066 91.4155 159.479 89.6327 151.098C81.0782 110.95 114.108 131.426 114.108 131.426C114.108 131.426 133.285 151.618 153.093 185.155Z" fill="#FBC02D"/>
<path opacity="0.3" d="M153.093 185.155C161.412 196.817 177.853 256.575 177.853 256.575L180.502 262.865C178.219 265.319 175.237 267.013 171.96 267.717L168.63 261.874C138.1 222.753 140.688 199.603 140.688 199.603C101.567 175.066 91.4155 159.479 89.6327 151.098C81.0782 110.95 114.108 131.426 114.108 131.426C114.108 131.426 133.285 151.618 153.093 185.155Z" fill="black"/>
<path opacity="0.3" d="M193.278 97.8391L197.524 94.1251C197.524 94.1251 199.579 88.2075 200.57 87.1552C201.56 86.1029 208.641 83.5278 208.641 83.5278C208.641 83.5278 210.981 83.8373 211.291 84.3078C211.6 84.7782 209.644 94.8803 208.518 96.1431C207.391 97.4058 202.328 98.1238 201.696 98.2972C201.065 98.4705 193.488 104.958 193.488 104.958L193.278 97.8391Z" fill="#AD6359"/>
<path opacity="0.3" d="M197.524 94.1252C184.402 106.505 174.002 102.445 167.429 97.2574C166.389 101.12 163.628 107.446 163.108 111.408C185.256 123.664 200.855 98.4582 200.855 98.4582L197.524 94.1252Z" fill="#AD6359"/>
<path opacity="0.3" d="M158.106 76.4465C159.878 84.5235 164.196 91.8183 170.424 97.2573L164.234 114.787C164.234 114.787 151.854 106.282 147.843 95.6108L158.106 76.4465Z" fill="#FBC02D"/>
<path opacity="0.1" d="M158.106 76.4465C159.878 84.5235 164.196 91.8183 170.424 97.2573L164.234 114.787C164.234 114.787 151.854 106.282 147.843 95.6108L158.106 76.4465Z" fill="white"/>
<path opacity="0.3" d="M125.559 131.983C125.559 131.983 114.083 136.539 90.1523 130.919C90.1523 130.919 110.542 73.8839 112.288 64.9827C114.108 55.6606 149.886 63.3857 157.029 73.723C164.853 85.0383 133.284 121.72 125.559 131.983Z" fill="#FBC02D"/>
<path opacity="0.6" d="M125.559 131.983C125.559 131.983 114.083 136.539 90.1523 130.919C90.1523 130.919 110.542 73.8839 112.288 64.9827C114.108 55.6606 149.886 63.3857 157.029 73.723C164.853 85.0383 133.284 121.72 125.559 131.983Z" fill="white"/>
<path opacity="0.3" d="M52.2448 119.925L50.6354 125.806C50.6354 125.806 52.319 132.379 52.0591 133.902C51.7991 135.425 46.9585 142.011 46.9585 142.011C46.9585 142.011 44.6682 143.138 44.1111 142.89C43.554 142.642 39.2705 132.367 39.5181 130.51C39.7657 128.653 43.8635 125.05 44.3835 124.481C44.9034 123.911 49.2488 114.404 49.2488 114.404L52.2448 119.925Z" fill="#AD6359"/>
<path opacity="0.3" d="M80.9172 77.1521C80.9172 77.1521 51.3785 94.7317 44.3838 124.53L50.5738 125.768C50.5738 125.768 55.0306 106.716 85.0645 88.3931L80.9172 77.1521Z" fill="#AD6359"/>
<path opacity="0.3" d="M115.606 61.4173C115.606 61.4173 106.259 58.4709 77.6982 77.3627C77.6982 77.3627 79.5552 87.502 83.7273 91.6493C83.7273 91.6493 107.324 84.8031 111.52 82.3024C115.717 79.8016 124.891 68.6967 115.606 61.4173Z" fill="#FBC02D"/>
<path opacity="0.4" d="M115.606 61.4173C115.606 61.4173 106.259 58.4709 77.6982 77.3627C77.6982 77.3627 79.5552 87.502 83.7273 91.6493C83.7273 91.6493 107.324 84.8031 111.52 82.3024C115.717 79.8016 124.891 68.6967 115.606 61.4173Z" fill="white"/>
<path opacity="0.3" d="M135.971 42.7729C135.538 48.4677 133.867 58.6565 129.088 61.2192C130.231 63.3104 131.778 65.1535 133.64 66.6413C135.502 68.129 137.641 69.2317 139.933 69.8852C146.816 71.9526 145.888 65.8617 145.888 65.8617C140.255 62.7667 141.641 58.3346 143.857 54.4225L135.971 42.7729Z" fill="#AD6359"/>
<path opacity="0.2" d="M139.178 47.5269L143.845 54.4225C143.315 55.3254 142.867 56.2743 142.508 57.2575C140.292 56.2919 137.828 52.8874 138.249 50.4114C138.381 49.4015 138.696 48.4241 139.178 47.5269V47.5269Z" fill="black"/>
<path opacity="0.3" d="M149.502 30.5909C146.221 32.4232 147.323 36.1124 153.848 42.3024C157.017 38.8484 158.119 31.7299 156.002 29.7243C153.885 27.7188 152.362 29.0063 149.502 30.5909Z" fill="#263238"/>
<path opacity="0.3" d="M135.674 35.1963C135.426 40.7921 135.055 44.667 136.231 48.022C136.671 49.286 137.329 50.4633 138.174 51.5008C143.3 57.9384 153.03 55.45 155.581 48.1087C155.668 47.8736 155.742 47.6339 155.804 47.3907C157.908 40.7055 157.809 30.0587 150.975 26.3447C149.419 25.5037 147.674 25.0746 145.905 25.0981C144.137 25.1216 142.403 25.5969 140.87 26.4789C139.337 27.3609 138.055 28.6202 137.145 30.1373C136.236 31.6544 135.729 33.3789 135.674 35.1468V35.1963Z" fill="#AD6359"/>
<path opacity="0.3" d="M146.729 38.4523C146.667 39.0589 146.952 39.5912 147.348 39.6903C147.744 39.7893 148.116 39.2693 148.19 38.6503C148.264 38.0313 147.98 37.5114 147.583 37.4123C147.187 37.3133 146.902 37.8456 146.729 38.4523Z" fill="#263238"/>
<path opacity="0.3" d="M153.724 39.195C153.724 39.8017 153.935 40.334 154.331 40.3711C154.727 40.4083 155.123 39.9626 155.185 39.3436C155.247 38.7246 154.975 38.1923 154.566 38.1056C154.157 38.019 153.786 38.576 153.724 39.195Z" fill="#263238"/>
<path opacity="0.3" d="M151.409 39.2446C151.947 41.1982 152.751 43.0685 153.798 44.8032C153.347 45.061 152.845 45.2167 152.328 45.2595C151.81 45.3023 151.289 45.2311 150.802 45.0509L151.409 39.2446Z" fill="#D58745"/>
<path opacity="0.3" d="M145.058 36.0382C145.018 36.0424 144.977 36.0379 144.938 36.0251C144.9 36.0123 144.865 35.9914 144.835 35.9639C144.768 35.8966 144.73 35.8053 144.73 35.7101C144.73 35.6149 144.768 35.5237 144.835 35.4563C145.212 35.0143 145.69 34.6706 146.23 34.4549C146.769 34.2392 147.352 34.158 147.93 34.2183C147.976 34.2244 148.02 34.2395 148.06 34.2628C148.099 34.2861 148.134 34.3171 148.162 34.354C148.19 34.3909 148.21 34.4329 148.221 34.4776C148.232 34.5224 148.234 34.5689 148.227 34.6145V34.6145C148.209 34.7088 148.155 34.7925 148.077 34.8479C147.998 34.9033 147.901 34.9261 147.806 34.9116V34.9116C147.347 34.8643 146.882 34.9273 146.452 35.0952C146.021 35.2631 145.637 35.5312 145.33 35.8773C145.298 35.9214 145.258 35.9584 145.211 35.9861C145.164 36.0138 145.112 36.0315 145.058 36.0382V36.0382Z" fill="#263238"/>
<path opacity="0.3" d="M157.153 37.1648C157.085 37.1567 157.021 37.1306 156.967 37.0893C156.912 37.0479 156.87 36.9928 156.844 36.9296C156.704 36.496 156.463 36.1022 156.14 35.7813C155.817 35.4603 155.421 35.2215 154.987 35.085C154.892 35.0615 154.81 35.0016 154.759 34.9181C154.708 34.8347 154.692 34.7345 154.714 34.6393C154.738 34.547 154.796 34.4673 154.877 34.4166C154.957 34.3659 155.054 34.3481 155.148 34.3669C155.699 34.5368 156.202 34.8354 156.615 35.2379C157.029 35.6404 157.34 36.1354 157.525 36.682C157.557 36.7707 157.553 36.8685 157.513 36.9542C157.474 37.0399 157.403 37.1067 157.314 37.1401V37.1401C157.264 37.1625 157.208 37.1711 157.153 37.1648V37.1648Z" fill="#263238"/>
<path opacity="0.3" d="M142.718 24.9705C146.123 26.5428 141.951 34.1564 135.897 40.7921C132.492 37.5981 130.871 30.5539 132.839 28.4121C134.807 26.2704 139.747 23.5963 142.718 24.9705Z" fill="#263238"/>
<path opacity="0.3" d="M131.44 40.854C131.604 41.7891 131.951 42.6828 132.461 43.4836C132.97 44.2845 133.633 44.9769 134.411 45.5212C136.503 46.9573 138.36 45.286 138.472 42.8843C138.558 40.7178 137.58 37.3752 135.154 36.8924C134.623 36.7956 134.075 36.8336 133.562 37.0028C133.049 37.1721 132.587 37.4673 132.218 37.8613C131.848 38.2554 131.583 38.7358 131.448 39.2586C131.312 39.7814 131.309 40.3299 131.44 40.854Z" fill="#AD6359"/>
<path opacity="0.3" d="M145.008 45.8062C145.472 46.666 146.162 47.3819 147.005 47.8754C147.848 48.3688 148.81 48.621 149.787 48.6041" stroke="#263238" stroke-width="0.526291" stroke-linecap="round" stroke-linejoin="round"/>
<path opacity="0.3" d="M158.552 26.7656C157.487 27.9294 156.076 29.5264 151.409 29.1178C146.741 28.7093 143.151 25.8248 141.505 26.7285C139.858 27.6322 137.419 31.272 137.419 31.272L132.777 29.0064C132.623 27.7198 132.842 26.4161 133.409 25.2506C133.975 24.0851 134.864 23.107 135.971 22.4326C144.055 17.1959 155.135 25.5524 159.555 17.592C159.505 17.592 161.226 23.844 158.552 26.7656Z" fill="#263238"/>
<path opacity="0.3" d="M150.468 21.1574C150.468 21.1574 155.147 20.3156 155.853 17.6292C156.171 18.3218 156.24 19.1031 156.049 19.8409C155.857 20.5786 155.416 21.2274 154.801 21.6774C152.597 23.2125 150.468 21.1574 150.468 21.1574Z" fill="#263238"/>
<path opacity="0.3" d="M154.331 29.0683C155.878 28.8207 164.123 25.3543 161.412 18.8176" stroke="#263238" stroke-width="0.25" stroke-miterlimit="10"/>
</g>
</svg>
