<svg width="437" height="255" viewBox="0 0 437 255" fill="none" xmlns="http://www.w3.org/2000/svg">
<path d="M172.465 224.879C172.465 224.879 156.025 175.465 198.648 173.063C242.299 170.584 244.696 167.839 244.696 167.839C244.696 167.839 280.279 128.072 337.63 131.808C396.274 135.621 419.717 146.793 418.347 146.144C418.347 146.144 418.423 148.851 416.558 148.585C413.438 148.127 409.48 145.916 411.801 151.787C415.531 161.167 435.472 173.025 436.119 187.399C436.728 201.773 430.525 224.879 430.525 224.879H172.465Z" fill="#FBC02D"/>
<path d="M169.957 197.007C175.019 197.045 186.854 196.969 188.072 195.749C195.949 187.17 190.622 184.882 190.622 184.882H174.524C172.088 188.543 170.68 192.737 169.957 197.007Z" fill="#BDBDBD"/>
<path d="M253.102 171.767C255.119 161.624 285.678 143.666 308.778 140.845C332.639 139.32 346.606 140.235 346.606 140.235L345.883 171.576C345.883 171.576 263.871 171.767 253.102 171.767Z" fill="#4A484B"/>
<path d="M253.104 173.102C252.685 173.102 252.304 172.911 252.076 172.606C251.81 172.301 251.696 171.881 251.81 171.5C254.055 160.214 285.946 142.256 308.666 139.473C317.875 138.901 326.59 138.596 334.658 138.596C342.384 138.596 346.57 138.863 346.722 138.863C347.445 138.901 347.978 139.511 347.978 140.235L347.293 171.615C347.293 172.339 346.684 172.949 345.961 172.949C345.885 172.949 263.874 173.102 253.104 173.102ZM334.62 141.303C326.59 141.303 317.951 141.608 308.894 142.18C287.126 144.811 259.535 160.748 254.968 170.394C269.848 170.394 334.506 170.242 344.553 170.242L345.2 141.493C343.411 141.417 339.796 141.303 334.62 141.303Z" fill="#212121"/>
<path d="M350.648 140.311C350.648 140.311 391.787 143.513 400.198 149.614C400.198 149.614 401.225 169.745 408.646 171.766H350.648V140.311Z" fill="#4A484B"/>
<path d="M408.718 173.101C408.68 173.101 408.68 173.101 408.642 173.101H350.644C349.883 173.101 349.312 172.491 349.312 171.729V140.311C349.312 139.93 349.465 139.587 349.731 139.32C349.998 139.053 350.34 138.9 350.759 138.977C352.433 139.129 392.354 142.294 400.993 148.509C401.335 148.737 401.526 149.119 401.564 149.538C401.944 156.859 404.266 168.945 408.87 170.394C409.517 170.47 410.05 171.042 410.05 171.729C410.088 172.491 409.479 173.101 408.718 173.101ZM352.014 170.394H404.532C400.194 165.018 399.128 153.618 398.9 150.339C390.794 145.382 359.169 142.37 351.976 141.76V170.394H352.014Z" fill="#212121"/>
<path d="M328.344 176.456C325.224 176.456 322.598 177.829 322.598 179.468C322.598 181.108 325.224 182.48 328.344 182.48C331.465 182.48 334.091 181.108 334.091 179.468C334.091 177.829 331.465 176.456 328.344 176.456Z" fill="#FBC02D"/>
<path d="M397.723 176.456C394.602 176.456 391.977 177.829 391.977 179.468C391.977 181.108 394.602 182.48 397.723 182.48C400.844 182.48 403.47 181.108 403.47 179.468C403.47 177.829 400.844 176.456 397.723 176.456Z" fill="#FBC02D"/>
<path d="M406.622 179.43C406.622 180.155 406.051 180.727 405.366 180.727L389.497 180.765C388.774 180.765 388.203 180.193 388.203 179.507C388.203 178.782 388.774 178.21 389.459 178.21L405.366 177.448C406.09 177.448 407.269 177.905 406.622 179.43Z" fill="#212121"/>
<path d="M434.293 179.736C435.244 182.366 436.158 185.035 437.033 187.742C436.272 195.559 435.168 203.337 433.76 210.962C432.656 210.085 431.515 209.208 430.411 208.332C430.449 198.761 429.954 189.229 428.965 179.774C430.335 178.973 431.667 178.172 433.037 177.372C433.379 178.172 433.836 178.973 434.293 179.736Z" fill="#DB2A24"/>
<path d="M432.843 181.413C433.49 181.146 434.289 182.252 434.746 183.357C435.165 184.425 435.355 185.683 434.822 186.026C434.784 186.026 434.746 186.064 434.746 186.064C434.061 186.331 433.3 185.226 432.843 184.082C432.424 183.014 432.234 181.794 432.767 181.451C432.767 181.451 432.805 181.413 432.843 181.413ZM434.137 183.624C433.718 182.595 433.224 182.099 433.109 182.061C433.033 182.175 432.995 182.862 433.414 183.891C433.833 184.959 434.327 185.454 434.441 185.454C434.518 185.378 434.594 184.654 434.137 183.624Z" fill="#FF6963"/>
<path d="M434.827 186.712C435.208 186.56 435.665 187.208 435.931 187.894C436.159 188.543 436.274 189.305 435.931 189.496C435.931 189.496 435.893 189.534 435.855 189.534C435.474 189.686 435.018 189 434.751 188.314C434.523 187.666 434.409 186.941 434.751 186.712C434.789 186.751 434.789 186.751 434.827 186.712ZM435.589 188.047C435.36 187.399 435.056 187.132 434.98 187.094C434.942 187.17 434.904 187.551 435.132 188.199C435.36 188.848 435.665 189.115 435.703 189.153C435.779 189.115 435.817 188.695 435.589 188.047Z" fill="#FF6963"/>
<path d="M434.373 200.705C433.726 201.086 433.041 201.468 432.395 201.849C432.471 201.963 432.509 202.116 432.585 202.23C433.232 201.849 433.917 201.468 434.564 201.086C434.488 200.934 434.411 200.819 434.373 200.705Z" fill="#FF6963"/>
<path d="M434.288 198.227C433.641 198.608 432.956 198.99 432.309 199.371C432.385 199.485 432.461 199.6 432.499 199.752C433.146 199.371 433.793 198.99 434.478 198.608C434.44 198.456 434.364 198.341 434.288 198.227Z" fill="#FF6963"/>
<path d="M434.218 195.711C433.571 196.093 432.924 196.512 432.277 196.893C432.353 197.008 432.43 197.122 432.468 197.275C433.115 196.893 433.762 196.474 434.409 196.093C434.37 195.978 434.294 195.864 434.218 195.711Z" fill="#FF6963"/>
<path d="M434.101 193.271C433.454 193.652 432.807 194.072 432.16 194.453C432.236 194.567 432.312 194.682 432.35 194.834C432.997 194.453 433.644 194.034 434.291 193.652C434.253 193.5 434.177 193.385 434.101 193.271Z" fill="#FF6963"/>
<path d="M433.984 190.793C433.337 191.212 432.69 191.594 432.043 192.013C432.119 192.127 432.195 192.242 432.233 192.356C432.88 191.975 433.527 191.556 434.174 191.174C434.136 191.022 434.06 190.907 433.984 190.793Z" fill="#FF6963"/>
<path d="M411.834 151.825C411.796 151.711 411.758 151.596 411.72 151.52L411.035 153.045C411.035 153.045 423.023 172.872 431.205 175.045C424.85 166.047 414.422 158.345 411.834 151.825Z" fill="#4A484B"/>
<path d="M249.028 166.504C259.836 154.99 287.997 141.149 292.374 139.472C294.201 138.785 294.505 137.985 294.239 137.298C262.88 147.517 244.689 167.839 244.689 167.839C244.689 167.839 244.689 167.839 244.613 167.877C245.679 168.525 247.201 168.716 249.028 166.504Z" fill="#262529"/>
<path d="M229.094 193.995C229.094 193.995 241.005 187.818 269.509 187.818C298.014 187.818 388.245 187.818 388.245 187.818C388.245 187.818 421.126 188.123 421.126 215.156C421.126 220.799 421.126 224.878 421.126 224.878H229.094V193.995Z" fill="#F5AF00"/>
<path d="M350.641 172.91H342.535V138.786L350.641 139.014V172.91Z" fill="#212121"/>
<path d="M169.809 211.953C170.646 219.388 172.473 224.878 172.473 224.878H198.427V219.274H184.955V213.974L169.809 211.953Z" fill="black"/>
<path d="M259.496 224.879H352.506V222.325H260.181L259.496 224.879Z" fill="url(#paint0_linear_541_1319)"/>
<path d="M381.893 193.995C369.372 193.995 358.603 201.392 353.617 212.03C353.617 212.03 350.611 217.596 350.649 225.26C354.188 225.26 356.586 225.26 356.586 225.26H413.099C413.137 208.064 399.132 193.995 381.893 193.995Z" fill="black"/>
<path d="M408.682 225.299C408.682 240.13 396.694 252.141 381.928 252.141C367.124 252.141 355.137 240.13 355.137 225.299C355.137 210.505 367.124 198.495 381.928 198.495C396.694 198.495 408.682 210.505 408.682 225.299Z" fill="#504E51"/>
<path d="M381.892 240.93C373.291 240.93 366.289 233.915 366.289 225.298C366.289 216.681 373.291 209.666 381.892 209.666C390.493 209.666 397.495 216.681 397.495 225.298C397.533 233.915 390.493 240.93 381.892 240.93Z" fill="#E3E3E3"/>
<path d="M381.89 229.759C379.416 229.759 377.438 227.739 377.438 225.298C377.438 222.82 379.454 220.837 381.89 220.837C384.326 220.837 386.343 222.82 386.343 225.298C386.381 227.777 384.364 229.759 381.89 229.759Z" fill="#1C2426"/>
<path d="M229.098 193.995C216.578 193.995 205.808 201.392 200.822 212.03C200.822 212.03 197.816 217.596 197.892 225.26C201.431 225.26 203.829 225.26 203.829 225.26H260.342C260.342 208.064 246.338 193.995 229.098 193.995Z" fill="black"/>
<path d="M255.843 225.299C255.843 240.13 243.855 252.141 229.09 252.141C214.324 252.141 202.336 240.13 202.336 225.299C202.336 210.505 214.324 198.495 229.09 198.495C243.893 198.495 255.843 210.505 255.843 225.299Z" fill="#504E51"/>
<path d="M229.087 240.93C220.487 240.93 213.484 233.915 213.484 225.298C213.484 216.681 220.487 209.666 229.087 209.666C237.688 209.666 244.691 216.681 244.691 225.298C244.691 233.915 237.688 240.93 229.087 240.93Z" fill="#E3E3E3"/>
<path d="M229.089 229.759C226.616 229.759 224.637 227.739 224.637 225.298C224.637 222.82 226.654 220.837 229.089 220.837C231.563 220.837 233.542 222.82 233.542 225.298C233.542 227.777 231.563 229.759 229.089 229.759Z" fill="#1C2426"/>
<path d="M432.317 217.443L421.091 215.155L413.441 224.878H430.491C430.529 224.878 431.328 221.904 432.317 217.443Z" fill="black"/>
<path d="M256 167.229L252.879 170.661L254.858 172.567L259.158 171.156L256 167.229Z" fill="url(#paint1_linear_541_1319)"/>
<path d="M267.714 169.365L266.344 159.376C266.116 157.584 263.909 156.63 261.587 157.469C256.564 159.299 254.661 169.823 254.889 170.28C256.221 172.835 259.608 172.682 263.566 172.644C266.116 172.644 267.943 171.157 267.714 169.365Z" fill="#A6A6A6"/>
<path d="M337.243 179.43C337.243 180.155 336.673 180.727 335.988 180.727L320.118 180.765C319.433 180.765 318.824 180.193 318.824 179.507C318.824 178.782 319.395 178.21 320.08 178.21L335.988 177.448C336.749 177.448 337.89 177.905 337.243 179.43Z" fill="#212121"/>
<path d="M19.1028 159.49C19.1028 159.223 19.0648 158.995 19.0267 158.728L17.9992 153.542C17.5806 151.483 15.6397 150.149 13.6608 150.568L2.89086 152.742C0.911932 153.161 -0.343925 155.106 0.036638 157.164L1.06416 162.35C1.48278 164.409 3.42364 165.743 5.40257 165.324L15.7158 163.265L16.1344 163.189L22.4898 161.93L21.919 158.995L19.1028 159.49Z" fill="#B72200"/>
<path d="M136.583 135.889C136.469 135.66 136.393 135.393 136.354 135.164L135.327 129.979C134.908 127.92 136.202 125.976 138.181 125.556L148.951 123.383C150.93 123.002 152.871 124.336 153.289 126.357L154.317 131.542C154.736 133.601 153.442 135.546 151.463 135.965L141.15 138.024L140.731 138.1L134.376 139.359L133.805 136.423L136.583 135.889Z" fill="#B72200"/>
<path d="M20.2031 165.018C20.2031 165.018 20.812 157.164 21.6112 147.441C22.3723 137.719 22.8671 123.345 39.1932 120.066L103.052 107.216C119.34 103.937 125.353 117.015 129.805 125.708L137.873 141.417L20.2031 165.018Z" fill="#FE5C14"/>
<path d="M6.05078 215.767L11.0742 232.239C11.7592 235.632 11.8353 238.492 15.1462 237.843L170.416 206.655C173.727 206.007 172.699 203.338 172.014 199.944L170.302 182.787L6.05078 215.767Z" fill="#F73706"/>
<path d="M163.836 161.357C163.303 158.65 162.428 156.935 161.248 155.867L161.172 155.829C160.715 155.41 160.221 155.104 159.65 154.876L137.844 141.378L20.1737 165.018L5.97872 186.331C5.48399 186.865 5.10343 187.475 4.79898 188.123L4.64675 188.352H4.68481C3.80951 190.335 3.65729 192.775 4.30424 196.016L6.05483 215.766L170.306 182.747L163.836 161.357Z" fill="#FE5C14"/>
<path d="M26.5625 165.438C26.5625 165.438 31.4337 196.245 38.9308 194.758C46.3898 193.271 53.4302 191.555 53.4302 191.555C53.4302 191.555 48.7493 168.831 37.6369 167.153C26.5625 165.438 26.5625 165.438 26.5625 165.438Z" fill="#F73706"/>
<path d="M131.979 144.277C131.979 144.277 139.324 174.589 131.865 176.076C124.406 177.563 117.251 178.745 117.251 178.745C117.251 178.745 112.798 155.982 122.389 150.11C131.979 144.277 131.979 144.277 131.979 144.277Z" fill="#F73706"/>
<path d="M24.1719 161.549L24.6285 149.958C25.0472 139.549 22.231 134.401 35.779 131.694L110.674 116.634C124.184 113.927 123.613 119.722 127.989 129.178L132.861 139.663L24.1719 161.549Z" fill="#262529"/>
<path d="M134.873 140.731L22.6836 163.264L23.1783 149.919C23.2544 148.204 23.2164 146.64 23.2164 145.192C23.1022 137.719 23.0261 132.8 35.4705 130.284L110.365 115.223C122.772 112.745 124.636 117.32 127.414 124.259C127.947 125.594 128.518 127.043 129.241 128.606L134.873 140.731ZM25.652 159.833L130.839 138.672L126.729 129.788C126.006 128.187 125.397 126.7 124.827 125.327C122.163 118.731 121.097 115.986 110.936 118.044L36.0413 133.067C25.9184 135.088 25.9564 138.062 26.0706 145.153C26.0706 146.64 26.1087 148.242 26.0325 150.034L25.652 159.833Z" fill="#303030"/>
<path d="M104.576 118.044C109.333 117.091 114.09 116.519 118.809 116.214C116.868 115.833 114.28 115.909 110.665 116.634L35.7322 131.694C22.2222 134.401 25.0003 139.549 24.5817 149.958L24.125 161.549L40.1086 158.346C55.7497 138.252 78.1649 123.344 104.576 118.044Z" fill="#2B2B2B"/>
<path d="M37.4074 252.484L25.6481 254.848C21.8805 255.611 18.2651 253.476 17.5801 250.044L15.1445 237.805L40.5281 232.696L42.9637 244.935C43.6487 248.366 41.175 251.722 37.4074 252.484Z" fill="#56505E"/>
<path d="M166.575 226.519L154.816 228.883C151.048 229.645 147.433 227.51 146.748 224.079L144.312 211.84L169.696 206.73L172.132 218.97C172.855 222.401 170.343 225.756 166.575 226.519Z" fill="#56505E"/>
<path d="M13.7785 221.067L14.9201 229.913C15.1865 231.972 17.0132 233.344 18.9922 232.925L34.1386 229.875C36.1175 229.493 36.8786 227.663 35.3944 226.214C32.7305 223.583 27.2504 219.885 16.8991 217.864C14.9201 217.521 13.5121 219.008 13.7785 221.067Z" fill="#B72200"/>
<path d="M25.8365 225.451C26.2932 227.624 24.9232 229.721 22.8301 230.141C20.737 230.56 18.682 229.149 18.2253 226.976C17.8067 224.803 19.1386 222.706 21.2317 222.286C23.3629 221.867 25.4179 223.278 25.8365 225.451Z" fill="white"/>
<path d="M166.19 190.031L168.55 198.647C169.083 200.668 167.941 202.613 165.962 202.994L150.816 206.044C148.837 206.464 147.429 205.091 148.228 203.185C149.712 199.753 153.289 194.186 162.08 188.353C163.793 187.209 165.658 188.01 166.19 190.031Z" fill="#B72200"/>
<path d="M156.491 198.877C156.91 201.05 159.003 202.461 161.096 202.041C163.189 201.622 164.559 199.525 164.102 197.352C163.684 195.178 161.59 193.768 159.497 194.187C157.404 194.606 156.072 196.704 156.491 198.877Z" fill="white"/>
<path d="M132.93 209.666L50.8806 226.137C48.4069 226.633 44.7535 225.718 42.6985 224.117L34.1358 217.444C32.0808 215.843 32.4233 214.127 34.8969 213.631L142.939 191.899C145.412 191.403 146.364 192.852 145.07 195.101L139.742 204.557C138.41 206.921 135.404 209.171 132.93 209.666Z" fill="#B72200"/>
<path d="M14.3505 186.218C14.3505 186.218 39.6579 182.634 43.4635 190.222C47.2311 197.809 38.8206 201.012 38.8206 201.012C38.8206 201.012 14.2363 213.594 8.56592 197.237C4.83641 186.6 14.3505 186.218 14.3505 186.218Z" fill="#B72200"/>
<path d="M151.646 158.613C151.646 158.613 126.909 165.095 126.338 173.559C125.768 182.023 134.787 181.718 134.787 181.718C134.787 181.718 162.302 183.854 161.236 166.543C160.551 155.296 151.646 158.613 151.646 158.613Z" fill="#B72200"/>
<path d="M131.784 181.033C102.632 191.365 72.1875 197.466 41.3239 199.22C41.1716 196.436 41.0194 193.653 40.8672 190.832C70.9316 189.116 100.616 183.168 129.044 173.102C129.919 175.771 130.87 178.402 131.784 181.033Z" fill="#B72200"/>
<path d="M26.52 201.888C18.3379 203.528 13.4667 201.659 11.5639 196.207C11.1072 194.911 10.8789 193.691 10.8789 192.776C10.8789 192.776 11.2214 190.183 12.9339 189.84C14.6465 189.458 13.5048 189.649 13.9234 189.535L14.1517 189.497H14.4181L14.6465 189.458C22.7144 188.315 35.7296 188.01 39.6875 190.793C39.6875 190.793 43.5312 193.996 37.6705 198.037L37.2138 198.266C37.1758 198.228 32.2285 200.744 26.52 201.888Z" fill="white"/>
<path d="M146.059 177.867C154.241 176.228 158.047 172.606 157.666 166.848C157.59 165.476 157.323 164.294 156.981 163.417C156.981 163.417 155.687 161.167 153.936 161.472C152.224 161.777 153.328 161.51 152.909 161.587L152.681 161.625L152.452 161.701L152.224 161.777C144.308 163.836 132.244 168.602 129.657 172.682C129.657 172.682 127.335 177.143 134.299 178.592H134.832C134.794 178.592 140.35 179.011 146.059 177.867Z" fill="white"/>
<path opacity="0.5" d="M84.8603 127.844C85.1648 129.369 84.1753 130.856 82.6531 131.123L67.6589 134.135C66.1367 134.44 64.6525 133.449 64.348 131.962C64.0436 130.437 65.033 128.95 66.5553 128.683L81.5494 125.671C83.0717 125.327 84.5559 126.319 84.8603 127.844Z" fill="black"/>
<path opacity="0.5" d="M75.1941 123.758L71.4258 124.517L72.033 127.545L75.8014 126.786L75.1941 123.758Z" fill="black"/>
<path d="M117.817 210.352L65.0713 220.914C58.9823 222.134 58.9823 219.16 58.2592 215.614C57.5362 212.068 61.1896 208.369 66.4033 207.302L111.348 198.265C116.561 197.236 121.356 199.257 122.042 202.803C122.765 206.349 123.906 209.094 117.817 210.352Z" fill="white"/>
<path d="M169.348 9.9514C168.397 10.3327 167.598 11.5147 167.598 12.5822V53.1504C167.598 54.1799 168.283 55.5525 169.12 56.1625L200.821 79.4206C201.658 80.0306 203.028 80.0306 203.865 79.4206L235.566 56.1625C236.403 55.5525 237.088 54.218 237.088 53.1504V12.5441C237.088 11.5147 236.289 10.3327 235.338 9.91328C229.477 7.54934 210.563 0 202.343 0C194.085 0 175.171 7.54934 169.348 9.9514Z" fill="#FBC02D"/>
<path d="M179.551 28.138C182.101 29.7393 184.536 31.4932 186.82 33.3234C187.999 34.2003 189.141 35.1535 190.245 36.1067C191.348 37.0599 192.49 37.975 193.594 38.9663C197.932 42.8554 202.08 46.9732 206 51.2054L198.046 52.0823C202.118 44.0755 206.571 36.2592 211.48 28.7099C213.954 24.9352 216.541 21.2368 219.281 17.6146C222.022 13.9925 224.876 10.4466 228.149 7.09131C227.121 11.6285 225.637 15.9751 224.115 20.2455C222.554 24.5158 220.842 28.7099 219.015 32.8277C215.324 41.0634 211.176 49.0321 206.647 56.7721L202.993 62.987L198.655 57.649C195.002 53.1499 191.538 48.4602 188.304 43.6179C187.505 42.3978 186.743 41.1396 185.944 39.9195C185.145 38.6994 184.384 37.4412 183.661 36.1448C182.177 33.5521 180.769 30.9213 179.551 28.138Z" fill="white"/>
<defs>
<linearGradient id="paint0_linear_541_1319" x1="306.007" y1="224.884" x2="306.007" y2="222.312" gradientUnits="userSpaceOnUse">
<stop stop-color="#5F5A5E"/>
<stop offset="0.2754" stop-color="#262529"/>
<stop offset="0.4762" stop-color="#29282C"/>
<stop offset="0.6286" stop-color="#333135"/>
<stop offset="0.7647" stop-color="#434144"/>
<stop offset="0.8093" stop-color="#4A484B"/>
</linearGradient>
<linearGradient id="paint1_linear_541_1319" x1="256.009" y1="167.245" x2="256.009" y2="172.562" gradientUnits="userSpaceOnUse">
<stop stop-color="#5F5A5E"/>
<stop offset="0.2754"/>
<stop offset="0.7541"/>
<stop offset="0.8093"/>
</linearGradient>
</defs>
</svg>
